%TF.GenerationSoftware,KiCad,Pcbnew,9.0.0*%
%TF.CreationDate,2025-08-07T11:31:08+08:00*%
%TF.ProjectId,Regen Clamp,52656765-6e20-4436-9c61-6d702e6b6963,1.1*%
%TF.SameCoordinates,PXa7d8c00PY8c30ac0*%
%TF.FileFunction,Copper,L4,Bot*%
%TF.FilePolarity,Positive*%
%FSLAX46Y46*%
G04 Gerber Fmt 4.6, Leading zero omitted, Abs format (unit mm)*
G04 Created by KiCad (PCBNEW 9.0.0) date 2025-08-07 11:31:08*
%MOMM*%
%LPD*%
G01*
G04 APERTURE LIST*
%TA.AperFunction,ComponentPad*%
%ADD10C,2.400000*%
%TD*%
%TA.AperFunction,ComponentPad*%
%ADD11C,2.900000*%
%TD*%
%TA.AperFunction,ComponentPad*%
%ADD12C,2.000000*%
%TD*%
%TA.AperFunction,ComponentPad*%
%ADD13R,2.000000X2.000000*%
%TD*%
%TA.AperFunction,ComponentPad*%
%ADD14R,1.218000X1.218000*%
%TD*%
%TA.AperFunction,ComponentPad*%
%ADD15C,1.218000*%
%TD*%
%TA.AperFunction,ComponentPad*%
%ADD16R,2.400000X2.400000*%
%TD*%
%TA.AperFunction,ViaPad*%
%ADD17C,0.600000*%
%TD*%
%TA.AperFunction,ViaPad*%
%ADD18C,0.800000*%
%TD*%
%TA.AperFunction,Conductor*%
%ADD19C,0.254000*%
%TD*%
%TA.AperFunction,Conductor*%
%ADD20C,3.000000*%
%TD*%
%TA.AperFunction,Conductor*%
%ADD21C,0.500000*%
%TD*%
G04 APERTURE END LIST*
D10*
%TO.P,J2,1,Pin_1*%
%TO.N,SW1*%
X5500000Y36500000D03*
%TO.P,J2,2,Pin_2*%
%TO.N,VIN-*%
X5500000Y31420000D03*
%TD*%
%TO.P,J5,1,Pin_1*%
%TO.N,VOUT+*%
X94500000Y37460000D03*
%TO.P,J5,2,Pin_2*%
%TO.N,VIN-*%
X94500000Y42540000D03*
%TD*%
D11*
%TO.P,J3,1,Pin_1*%
%TO.N,VOUT+*%
X78400000Y11500000D03*
X78400000Y6500000D03*
X85600000Y11500000D03*
X85600000Y6500000D03*
%TD*%
D10*
%TO.P,J1,1,Pin_1*%
%TO.N,SW2*%
X5500000Y48580000D03*
%TO.P,J1,2,Pin_2*%
%TO.N,SW1*%
X5500000Y43500000D03*
%TD*%
D12*
%TO.P,K1,11*%
%TO.N,VOUT+*%
X59537500Y75687500D03*
X59537500Y68187500D03*
%TO.P,K1,12*%
%TO.N,R_PRECHARGE-*%
X64537500Y75687500D03*
X64537500Y68187500D03*
%TO.P,K1,14*%
%TO.N,R_PRECHARGE+*%
X54537500Y75687500D03*
X54537500Y68187500D03*
D13*
%TO.P,K1,A1*%
%TO.N,+12V*%
X79537500Y75687500D03*
D12*
%TO.P,K1,A2*%
%TO.N,Net-(D6-A)*%
X79537500Y68187500D03*
%TD*%
D14*
%TO.P,RV2,1,1*%
%TO.N,unconnected-(RV2-Pad1)*%
X35960000Y19000000D03*
D15*
%TO.P,RV2,2,2*%
%TO.N,Net-(R42-Pad1)*%
X38500000Y19000000D03*
%TO.P,RV2,3,3*%
%TO.N,VIN-*%
X41040000Y19000000D03*
%TD*%
D16*
%TO.P,C23,1*%
%TO.N,VOUT+*%
X63977780Y40000000D03*
D10*
%TO.P,C23,2*%
%TO.N,VIN-*%
X56477780Y40000000D03*
%TD*%
D16*
%TO.P,C22,1*%
%TO.N,VOUT+*%
X73977780Y24000000D03*
D10*
%TO.P,C22,2*%
%TO.N,VIN-*%
X66477780Y24000000D03*
%TD*%
D11*
%TO.P,J4,1,Pin_1*%
%TO.N,R_DISCHARGE-*%
X63400000Y11500000D03*
X63400000Y6500000D03*
X70600000Y11500000D03*
X70600000Y6500000D03*
%TD*%
D14*
%TO.P,RV1,1,1*%
%TO.N,unconnected-(RV1-Pad1)*%
X48460000Y19000000D03*
D15*
%TO.P,RV1,2,2*%
%TO.N,Net-(R36-Pad1)*%
X51000000Y19000000D03*
%TO.P,RV1,3,3*%
%TO.N,VIN-*%
X53540000Y19000000D03*
%TD*%
D16*
%TO.P,C19,1*%
%TO.N,VOUT+*%
X83977780Y40000000D03*
D10*
%TO.P,C19,2*%
%TO.N,VIN-*%
X76477780Y40000000D03*
%TD*%
D16*
%TO.P,C20,1*%
%TO.N,VOUT+*%
X93977780Y56000000D03*
D10*
%TO.P,C20,2*%
%TO.N,VIN-*%
X86477780Y56000000D03*
%TD*%
D11*
%TO.P,J7,1,Pin_1*%
%TO.N,R_PRECHARGE-*%
X70600000Y82000000D03*
X70600000Y87000000D03*
X63400000Y82000000D03*
X63400000Y87000000D03*
%TD*%
%TO.P,J6,1,Pin_1*%
%TO.N,R_PRECHARGE+*%
X55600000Y82000000D03*
X55600000Y87000000D03*
X48400000Y82000000D03*
X48400000Y87000000D03*
%TD*%
D14*
%TO.P,RV3,1,1*%
%TO.N,unconnected-(RV3-Pad1)*%
X23960000Y19000000D03*
D15*
%TO.P,RV3,2,2*%
%TO.N,Net-(R23-Pad1)*%
X26500000Y19000000D03*
%TO.P,RV3,3,3*%
%TO.N,VIN-*%
X29040000Y19000000D03*
%TD*%
D16*
%TO.P,C24,1*%
%TO.N,VOUT+*%
X93977780Y24000000D03*
D10*
%TO.P,C24,2*%
%TO.N,VIN-*%
X86477780Y24000000D03*
%TD*%
D16*
%TO.P,C21,1*%
%TO.N,VOUT+*%
X73977780Y56000000D03*
D10*
%TO.P,C21,2*%
%TO.N,VIN-*%
X66477780Y56000000D03*
%TD*%
D17*
%TO.N,VIN+*%
X26500000Y55500000D03*
X12037500Y42000000D03*
X18500000Y55000000D03*
X30050000Y50000000D03*
D18*
%TO.N,VIN-*%
X43000000Y8500000D03*
D17*
X3500000Y19500000D03*
X29500000Y77000000D03*
D18*
X41000000Y13000000D03*
D17*
X24000000Y8250000D03*
D18*
X3500000Y31500000D03*
D17*
X11500000Y18500000D03*
X53000000Y50500000D03*
X19000000Y9000000D03*
X35637500Y9000000D03*
X11000000Y9000000D03*
D18*
X43000000Y4500000D03*
X28175000Y73525000D03*
D17*
X15250000Y21000000D03*
D18*
X24500000Y66000000D03*
D17*
X25000000Y11500000D03*
X27500000Y14000000D03*
D18*
X7500000Y31500000D03*
X28175000Y70475000D03*
X41000000Y6460000D03*
X96500000Y42500000D03*
X96500000Y44500000D03*
X28500000Y66000000D03*
X94500000Y44500000D03*
D17*
X40020000Y75000000D03*
X45500000Y50500000D03*
D18*
X7500000Y29500000D03*
D17*
X12500000Y25000000D03*
D18*
X43000000Y13000000D03*
X45000000Y4500000D03*
D17*
X39500000Y68000000D03*
D18*
X98500000Y44500000D03*
D17*
X34500000Y9000000D03*
X37000000Y8050000D03*
X44500000Y73905000D03*
X29500000Y67000000D03*
D18*
X26500000Y50000000D03*
X41000000Y4500000D03*
X18500000Y50000000D03*
X45000000Y13000000D03*
X24825000Y70475000D03*
D17*
X29500000Y76000000D03*
X17510000Y20490000D03*
X35500000Y11500000D03*
X49500000Y40000000D03*
X50500000Y50500000D03*
X90000000Y72950000D03*
X48000000Y50500000D03*
D18*
X28500000Y64000000D03*
D17*
X27500000Y4000000D03*
D18*
X26500000Y66000000D03*
D17*
X3500000Y14000000D03*
D18*
X24825000Y73525000D03*
X41000000Y8500000D03*
X24500000Y64000000D03*
D17*
X16500000Y14000000D03*
X13095000Y10000000D03*
D18*
X5500000Y29500000D03*
D17*
X36500000Y13000000D03*
X35500000Y6500000D03*
X21000000Y16500000D03*
X16500000Y4000000D03*
D18*
X26500000Y72000000D03*
D17*
X3500000Y25000000D03*
X35500000Y73000000D03*
D18*
X3500000Y29500000D03*
X98500000Y42500000D03*
X45000000Y8500000D03*
D17*
X47000000Y69500000D03*
X54750000Y50500000D03*
%TO.N,Net-(Q1-G)*%
X90000000Y71050000D03*
X46250000Y72510000D03*
D18*
%TO.N,+15V*%
X45500000Y55500000D03*
D17*
X19000000Y6525000D03*
X34020000Y12250000D03*
X32800000Y68300000D03*
X35500000Y71000000D03*
%TO.N,+12V*%
X11500000Y22250000D03*
X33000000Y77000000D03*
%TO.N,/VIN_REF*%
X41000000Y40000000D03*
X41000000Y67000000D03*
%TO.N,/VOUT_REF_PRE*%
X41500000Y76000000D03*
X21000000Y45000000D03*
%TO.N,VOUT_REF_DIS*%
X11000000Y6525000D03*
X10000000Y23500000D03*
D18*
%TO.N,VOUT+*%
X59537500Y58000000D03*
X59537500Y56000000D03*
X59537500Y60000000D03*
X62000000Y60000000D03*
X98500000Y37500000D03*
D17*
X62000000Y25000000D03*
D18*
X96500000Y35500000D03*
X62000000Y58000000D03*
X98500000Y35500000D03*
D17*
X62000000Y45000000D03*
D18*
X62000000Y56000000D03*
D17*
%TO.N,+5V*%
X27900000Y11500000D03*
X17000000Y16500000D03*
%TO.N,/Comparator/VIN_REF_H*%
X21000000Y27500000D03*
X14365000Y4000000D03*
%TO.N,/Comparator/VIN_REF_L*%
X14365000Y14000000D03*
X19000000Y32500000D03*
D18*
%TO.N,R_PRECHARGE+*%
X15000000Y65500000D03*
X15000000Y73500000D03*
X15000000Y71500000D03*
X15000000Y75500000D03*
X17000000Y69500000D03*
X19000000Y69500000D03*
X15000000Y67500000D03*
X15000000Y69500000D03*
%TO.N,R_DISCHARGE-*%
X55925000Y6225000D03*
X51075000Y11775000D03*
X55925000Y11775000D03*
X51075000Y6225000D03*
X53500000Y9000000D03*
D17*
%TO.N,/PRE*%
X45500000Y71000000D03*
X10000000Y25000000D03*
%TO.N,/DIS*%
X33362500Y6500000D03*
X8510000Y13000000D03*
D18*
%TO.N,SW2*%
X5500000Y54500000D03*
X3500000Y54500000D03*
X7500000Y54500000D03*
D17*
%TO.N,Net-(R36-Pad1)*%
X51000000Y30000000D03*
%TO.N,Net-(R42-Pad1)*%
X47000000Y35000000D03*
%TO.N,Net-(R23-Pad1)*%
X23000000Y42500000D03*
X15000000Y45000000D03*
X23000000Y35000000D03*
%TD*%
D19*
%TO.N,/VIN_REF*%
X41000000Y40000000D02*
X41000000Y67000000D01*
%TO.N,/VOUT_REF_PRE*%
X34000000Y73500000D02*
X34000000Y47500000D01*
X28500000Y45000000D02*
X31500000Y45000000D01*
X28500000Y45000000D02*
X21000000Y45000000D01*
X36500000Y76000000D02*
X34000000Y73500000D01*
X41500000Y76000000D02*
X36500000Y76000000D01*
X34000000Y47500000D02*
X31500000Y45000000D01*
%TO.N,VOUT_REF_DIS*%
X10000000Y23500000D02*
X10000000Y7525000D01*
X10000000Y7525000D02*
X11000000Y6525000D01*
D20*
%TO.N,VOUT+*%
X59537500Y68187500D02*
X59537500Y60000000D01*
X59537500Y58000000D02*
X59537500Y56000000D01*
X59537500Y75687500D02*
X59537500Y68187500D01*
X59537500Y60000000D02*
X59537500Y58000000D01*
D19*
%TO.N,/Comparator/VIN_REF_H*%
X19000000Y13000000D02*
X14365000Y8365000D01*
X19000000Y25500000D02*
X21000000Y27500000D01*
X14365000Y8365000D02*
X14365000Y4000000D01*
X19000000Y13000000D02*
X19000000Y25500000D01*
%TO.N,/Comparator/VIN_REF_L*%
X14365000Y27865000D02*
X19000000Y32500000D01*
X14365000Y14000000D02*
X14365000Y27865000D01*
D20*
%TO.N,R_PRECHARGE+*%
X52000000Y78225000D02*
X52000000Y84500000D01*
X54537500Y75687500D02*
X52000000Y78225000D01*
X54537500Y75687500D02*
X54537500Y68187500D01*
%TO.N,R_PRECHARGE-*%
X67000000Y78150000D02*
X67000000Y83000000D01*
X64537500Y75687500D02*
X64537500Y68187500D01*
X67000000Y83000000D02*
X67000000Y84500000D01*
X64537500Y75687500D02*
X67000000Y78150000D01*
D19*
%TO.N,/PRE*%
X40500000Y71000000D02*
X45500000Y71000000D01*
X33500000Y40500000D02*
X37000000Y44000000D01*
X10000000Y30000000D02*
X20500000Y40500000D01*
X37000000Y67500000D02*
X40500000Y71000000D01*
X37000000Y44000000D02*
X37000000Y67500000D01*
X10000000Y25000000D02*
X10000000Y30000000D01*
X20500000Y40500000D02*
X33500000Y40500000D01*
%TO.N,/DIS*%
X28862500Y2000000D02*
X33362500Y6500000D01*
X8510000Y13000000D02*
X8510000Y4990000D01*
X8510000Y4990000D02*
X11500000Y2000000D01*
X11500000Y2000000D02*
X28862500Y2000000D01*
D21*
%TO.N,Net-(R36-Pad1)*%
X51000000Y19000000D02*
X51000000Y30000000D01*
%TO.N,Net-(R42-Pad1)*%
X38500000Y26500000D02*
X38500000Y19000000D01*
X47000000Y35000000D02*
X38500000Y26500000D01*
%TO.N,Net-(R23-Pad1)*%
X23000000Y42500000D02*
X17500000Y42500000D01*
X23000000Y35000000D02*
X26500000Y31500000D01*
X26500000Y31500000D02*
X26500000Y19000000D01*
X17500000Y42500000D02*
X15000000Y45000000D01*
%TD*%
%TA.AperFunction,Conductor*%
%TO.N,R_PRECHARGE-*%
G36*
X72018306Y88981694D02*
G01*
X72481694Y88518306D01*
X72500000Y88474112D01*
X72500000Y80525888D01*
X72481694Y80481694D01*
X72018306Y80018306D01*
X71974112Y80000000D01*
X62025888Y80000000D01*
X61981694Y80018306D01*
X61518306Y80481694D01*
X61500000Y80525888D01*
X61500000Y88474112D01*
X61518306Y88518306D01*
X61981694Y88981694D01*
X62025888Y89000000D01*
X71974112Y89000000D01*
X72018306Y88981694D01*
G37*
%TD.AperFunction*%
%TD*%
%TA.AperFunction,Conductor*%
%TO.N,R_PRECHARGE+*%
G36*
X46500000Y81500000D02*
G01*
X45500000Y81500000D01*
X21000000Y81500000D01*
X20000000Y80500000D01*
X20000000Y65025888D01*
X19981694Y64981694D01*
X19018306Y64018306D01*
X18974112Y64000000D01*
X15025888Y64000000D01*
X14981694Y64018306D01*
X14018306Y64981694D01*
X14000000Y65025888D01*
X14000000Y86474112D01*
X14018306Y86518306D01*
X14981694Y87481694D01*
X15025888Y87500000D01*
X45750000Y87500000D01*
X46500000Y87500000D01*
X46500000Y81500000D01*
G37*
%TD.AperFunction*%
%TD*%
%TA.AperFunction,Conductor*%
%TO.N,SW1*%
G36*
X8518306Y44981694D02*
G01*
X8981694Y44518306D01*
X9000000Y44474112D01*
X9000000Y35525888D01*
X8981694Y35481694D01*
X8518306Y35018306D01*
X8474112Y35000000D01*
X2525888Y35000000D01*
X2481694Y35018306D01*
X2018306Y35481694D01*
X2000000Y35525888D01*
X2000000Y44474112D01*
X2018306Y44518306D01*
X2481694Y44981694D01*
X2525888Y45000000D01*
X8474112Y45000000D01*
X8518306Y44981694D01*
G37*
%TD.AperFunction*%
%TD*%
%TA.AperFunction,Conductor*%
%TO.N,VIN-*%
G36*
X29018306Y78481694D02*
G01*
X29981694Y77518306D01*
X30000000Y77474112D01*
X30000000Y63525888D01*
X29981694Y63481694D01*
X29018306Y62518306D01*
X28974112Y62500000D01*
X24025888Y62500000D01*
X23981694Y62518306D01*
X23018306Y63481694D01*
X23000000Y63525888D01*
X23000000Y77474112D01*
X23018306Y77518306D01*
X23981694Y78481694D01*
X24025888Y78500000D01*
X28974112Y78500000D01*
X29018306Y78481694D01*
G37*
%TD.AperFunction*%
%TD*%
%TA.AperFunction,Conductor*%
%TO.N,VOUT+*%
G36*
X87500000Y17000000D02*
G01*
X87500000Y4025888D01*
X87481694Y3981694D01*
X87018306Y3518306D01*
X86974112Y3500000D01*
X77025888Y3500000D01*
X76981694Y3518306D01*
X76518306Y3981694D01*
X76500000Y4025888D01*
X76500000Y17000000D01*
X76500000Y17500000D01*
X87500000Y17500000D01*
X87500000Y17000000D01*
G37*
%TD.AperFunction*%
%TD*%
%TA.AperFunction,Conductor*%
%TO.N,VOUT+*%
G36*
X98018306Y63481694D02*
G01*
X99731194Y61768806D01*
X99749500Y61724612D01*
X99749500Y48068000D01*
X99731194Y48023806D01*
X99687000Y48005500D01*
X92062492Y48005500D01*
X92023123Y48005191D01*
X91709468Y47980504D01*
X91709444Y47980501D01*
X91401362Y47916697D01*
X91401352Y47916695D01*
X91103686Y47814780D01*
X91059417Y47796443D01*
X90987284Y47765228D01*
X90987246Y47765210D01*
X90709196Y47617990D01*
X90451767Y47437068D01*
X90219053Y47225317D01*
X90219044Y47225307D01*
X90014706Y46986060D01*
X90014703Y46986057D01*
X89841960Y46723084D01*
X89841954Y46723073D01*
X89703534Y46440529D01*
X89685199Y46396264D01*
X89670445Y46359837D01*
X89573214Y46060593D01*
X89514258Y45751530D01*
X89514257Y45751525D01*
X89514257Y45751522D01*
X89494500Y45437500D01*
X89494500Y45437491D01*
X89494500Y41062492D01*
X89494809Y41023124D01*
X89519496Y40709469D01*
X89519499Y40709445D01*
X89583303Y40401363D01*
X89583305Y40401353D01*
X89658478Y40181794D01*
X89685224Y40103676D01*
X89703530Y40059482D01*
X89703557Y40059418D01*
X89734772Y39987285D01*
X89734790Y39987247D01*
X89824291Y39818210D01*
X89882010Y39709196D01*
X90062930Y39451770D01*
X90274688Y39219049D01*
X90513944Y39014703D01*
X90776924Y38841956D01*
X90931489Y38766235D01*
X91059471Y38703535D01*
X91059476Y38703533D01*
X91059482Y38703530D01*
X91103676Y38685224D01*
X91140164Y38670445D01*
X91439407Y38573215D01*
X91748478Y38514257D01*
X92062500Y38494500D01*
X92062509Y38494500D01*
X93412744Y38494500D01*
X93440622Y38494802D01*
X93466788Y38495084D01*
X93659021Y38511351D01*
X93780303Y38521612D01*
X93780317Y38521614D01*
X93781395Y38521775D01*
X93798453Y38524304D01*
X93851937Y38532829D01*
X94158173Y38605080D01*
X94206371Y38619702D01*
X94212304Y38621187D01*
X94321438Y38642895D01*
X94327497Y38643794D01*
X94382866Y38649247D01*
X94438233Y38654699D01*
X94444358Y38655000D01*
X94555642Y38655000D01*
X94561768Y38654699D01*
X94672500Y38643794D01*
X94678562Y38642895D01*
X94787690Y38621188D01*
X94793640Y38619698D01*
X94841894Y38605060D01*
X94887695Y38591706D01*
X94893821Y38589919D01*
X95201547Y38524304D01*
X95219690Y38521613D01*
X95231881Y38519940D01*
X95273249Y38514259D01*
X95273253Y38514259D01*
X95273266Y38514257D01*
X95587288Y38494500D01*
X95587298Y38494500D01*
X99687000Y38494500D01*
X99731194Y38476194D01*
X99749500Y38432000D01*
X99749500Y19275388D01*
X99731194Y19231194D01*
X98018306Y17518306D01*
X97974112Y17500000D01*
X60025888Y17500000D01*
X59981694Y17518306D01*
X58018306Y19481694D01*
X58000000Y19525888D01*
X58000000Y24181791D01*
X62777280Y24181791D01*
X62777280Y23818210D01*
X62812916Y23456377D01*
X62883846Y23099782D01*
X62883850Y23099767D01*
X62989394Y22751836D01*
X62989396Y22751831D01*
X62989398Y22751825D01*
X63128532Y22415926D01*
X63299923Y22095274D01*
X63501929Y21792951D01*
X63501932Y21792948D01*
X63732578Y21511905D01*
X63732584Y21511898D01*
X63989677Y21254805D01*
X63989684Y21254799D01*
X64270727Y21024153D01*
X64270730Y21024150D01*
X64270736Y21024146D01*
X64573048Y20822147D01*
X64573050Y20822146D01*
X64573053Y20822144D01*
X64694864Y20757035D01*
X64893704Y20650753D01*
X65229604Y20511619D01*
X65229603Y20511619D01*
X65229606Y20511618D01*
X65229616Y20511614D01*
X65577547Y20406070D01*
X65577556Y20406069D01*
X65577561Y20406067D01*
X65672729Y20387138D01*
X65934149Y20335138D01*
X65934154Y20335138D01*
X65934157Y20335137D01*
X65934155Y20335137D01*
X66118470Y20316984D01*
X66295986Y20299500D01*
X66295990Y20299500D01*
X66659570Y20299500D01*
X66659574Y20299500D01*
X66894789Y20322667D01*
X67021403Y20335137D01*
X67021405Y20335138D01*
X67021411Y20335138D01*
X67378013Y20406070D01*
X67725944Y20511614D01*
X68061856Y20650753D01*
X68382512Y20822147D01*
X68684824Y21024146D01*
X68965881Y21254803D01*
X69222977Y21511899D01*
X69453634Y21792956D01*
X69655633Y22095268D01*
X69827027Y22415924D01*
X69966166Y22751836D01*
X70071710Y23099767D01*
X70142642Y23456369D01*
X70178280Y23818206D01*
X70178280Y24181791D01*
X82777280Y24181791D01*
X82777280Y23818210D01*
X82812916Y23456377D01*
X82883846Y23099782D01*
X82883850Y23099767D01*
X82989394Y22751836D01*
X82989396Y22751831D01*
X82989398Y22751825D01*
X83128532Y22415926D01*
X83299923Y22095274D01*
X83501929Y21792951D01*
X83501932Y21792948D01*
X83732578Y21511905D01*
X83732584Y21511898D01*
X83989677Y21254805D01*
X83989684Y21254799D01*
X84270727Y21024153D01*
X84270730Y21024150D01*
X84270736Y21024146D01*
X84573048Y20822147D01*
X84573050Y20822146D01*
X84573053Y20822144D01*
X84694864Y20757035D01*
X84893704Y20650753D01*
X85229604Y20511619D01*
X85229603Y20511619D01*
X85229606Y20511618D01*
X85229616Y20511614D01*
X85577547Y20406070D01*
X85577556Y20406069D01*
X85577561Y20406067D01*
X85672729Y20387138D01*
X85934149Y20335138D01*
X85934154Y20335138D01*
X85934157Y20335137D01*
X85934155Y20335137D01*
X86118470Y20316984D01*
X86295986Y20299500D01*
X86295990Y20299500D01*
X86659570Y20299500D01*
X86659574Y20299500D01*
X86894789Y20322667D01*
X87021403Y20335137D01*
X87021405Y20335138D01*
X87021411Y20335138D01*
X87378013Y20406070D01*
X87725944Y20511614D01*
X88061856Y20650753D01*
X88382512Y20822147D01*
X88684824Y21024146D01*
X88965881Y21254803D01*
X89222977Y21511899D01*
X89453634Y21792956D01*
X89655633Y22095268D01*
X89827027Y22415924D01*
X89966166Y22751836D01*
X90071710Y23099767D01*
X90142642Y23456369D01*
X90178280Y23818206D01*
X90178280Y24181794D01*
X90142642Y24543631D01*
X90071710Y24900233D01*
X89966166Y25248164D01*
X89827027Y25584076D01*
X89655633Y25904732D01*
X89453634Y26207044D01*
X89453630Y26207050D01*
X89453627Y26207053D01*
X89222981Y26488096D01*
X89222975Y26488103D01*
X88965882Y26745196D01*
X88965875Y26745202D01*
X88684832Y26975848D01*
X88684829Y26975851D01*
X88382506Y27177857D01*
X88061854Y27349248D01*
X87725955Y27488382D01*
X87725956Y27488382D01*
X87725947Y27488385D01*
X87725944Y27488386D01*
X87537167Y27545651D01*
X87378014Y27593930D01*
X87377998Y27593934D01*
X87021402Y27664864D01*
X87021404Y27664864D01*
X86743200Y27692264D01*
X86659574Y27700500D01*
X86295986Y27700500D01*
X86212359Y27692264D01*
X85934156Y27664864D01*
X85577561Y27593934D01*
X85577545Y27593930D01*
X85359139Y27527677D01*
X85229616Y27488386D01*
X85229612Y27488385D01*
X85229604Y27488382D01*
X84893705Y27349248D01*
X84573053Y27177857D01*
X84270730Y26975851D01*
X84270727Y26975848D01*
X83989684Y26745202D01*
X83989677Y26745196D01*
X83732584Y26488103D01*
X83732578Y26488096D01*
X83501932Y26207053D01*
X83501929Y26207050D01*
X83299923Y25904727D01*
X83128532Y25584075D01*
X82989398Y25248176D01*
X82883850Y24900235D01*
X82883846Y24900219D01*
X82812916Y24543624D01*
X82777280Y24181791D01*
X70178280Y24181791D01*
X70178280Y24181794D01*
X70142642Y24543631D01*
X70071710Y24900233D01*
X69966166Y25248164D01*
X69827027Y25584076D01*
X69655633Y25904732D01*
X69453634Y26207044D01*
X69453630Y26207050D01*
X69453627Y26207053D01*
X69222981Y26488096D01*
X69222975Y26488103D01*
X68965882Y26745196D01*
X68965875Y26745202D01*
X68684832Y26975848D01*
X68684829Y26975851D01*
X68382506Y27177857D01*
X68061854Y27349248D01*
X67725955Y27488382D01*
X67725956Y27488382D01*
X67725947Y27488385D01*
X67725944Y27488386D01*
X67537167Y27545651D01*
X67378014Y27593930D01*
X67377998Y27593934D01*
X67021402Y27664864D01*
X67021404Y27664864D01*
X66743200Y27692264D01*
X66659574Y27700500D01*
X66295986Y27700500D01*
X66212359Y27692264D01*
X65934156Y27664864D01*
X65577561Y27593934D01*
X65577545Y27593930D01*
X65359139Y27527677D01*
X65229616Y27488386D01*
X65229612Y27488385D01*
X65229604Y27488382D01*
X64893705Y27349248D01*
X64573053Y27177857D01*
X64270730Y26975851D01*
X64270727Y26975848D01*
X63989684Y26745202D01*
X63989677Y26745196D01*
X63732584Y26488103D01*
X63732578Y26488096D01*
X63501932Y26207053D01*
X63501929Y26207050D01*
X63299923Y25904727D01*
X63128532Y25584075D01*
X62989398Y25248176D01*
X62883850Y24900235D01*
X62883846Y24900219D01*
X62812916Y24543624D01*
X62777280Y24181791D01*
X58000000Y24181791D01*
X58000000Y36583371D01*
X58018306Y36627565D01*
X58038579Y36641112D01*
X58061856Y36650753D01*
X58382512Y36822147D01*
X58684824Y37024146D01*
X58965881Y37254803D01*
X59222977Y37511899D01*
X59453634Y37792956D01*
X59655633Y38095268D01*
X59827027Y38415924D01*
X59966166Y38751836D01*
X60071710Y39099767D01*
X60142642Y39456369D01*
X60178280Y39818206D01*
X60178280Y40181791D01*
X72777280Y40181791D01*
X72777280Y39818210D01*
X72812916Y39456377D01*
X72883846Y39099782D01*
X72883850Y39099767D01*
X72989394Y38751836D01*
X72989396Y38751831D01*
X72989398Y38751825D01*
X73128532Y38415926D01*
X73299923Y38095274D01*
X73501929Y37792951D01*
X73501932Y37792948D01*
X73732578Y37511905D01*
X73732584Y37511898D01*
X73989677Y37254805D01*
X73989684Y37254799D01*
X74270727Y37024153D01*
X74270730Y37024150D01*
X74270736Y37024146D01*
X74573048Y36822147D01*
X74573050Y36822146D01*
X74573053Y36822144D01*
X74694864Y36757035D01*
X74893704Y36650753D01*
X75229604Y36511619D01*
X75229603Y36511619D01*
X75229606Y36511618D01*
X75229616Y36511614D01*
X75577547Y36406070D01*
X75577556Y36406069D01*
X75577561Y36406067D01*
X75672729Y36387138D01*
X75934149Y36335138D01*
X75934154Y36335138D01*
X75934157Y36335137D01*
X75934155Y36335137D01*
X76118470Y36316984D01*
X76295986Y36299500D01*
X76295990Y36299500D01*
X76659570Y36299500D01*
X76659574Y36299500D01*
X76894789Y36322667D01*
X77021403Y36335137D01*
X77021405Y36335138D01*
X77021411Y36335138D01*
X77378013Y36406070D01*
X77725944Y36511614D01*
X78061856Y36650753D01*
X78382512Y36822147D01*
X78684824Y37024146D01*
X78965881Y37254803D01*
X79222977Y37511899D01*
X79453634Y37792956D01*
X79655633Y38095268D01*
X79827027Y38415924D01*
X79966166Y38751836D01*
X80071710Y39099767D01*
X80142642Y39456369D01*
X80178280Y39818206D01*
X80178280Y40181794D01*
X80142642Y40543631D01*
X80071710Y40900233D01*
X79966166Y41248164D01*
X79827027Y41584076D01*
X79655633Y41904732D01*
X79453634Y42207044D01*
X79453630Y42207050D01*
X79453627Y42207053D01*
X79222981Y42488096D01*
X79222975Y42488103D01*
X78965882Y42745196D01*
X78965875Y42745202D01*
X78684832Y42975848D01*
X78684829Y42975851D01*
X78382506Y43177857D01*
X78061854Y43349248D01*
X77725955Y43488382D01*
X77725956Y43488382D01*
X77725947Y43488385D01*
X77725944Y43488386D01*
X77537167Y43545651D01*
X77378014Y43593930D01*
X77377998Y43593934D01*
X77021402Y43664864D01*
X77021404Y43664864D01*
X76743200Y43692264D01*
X76659574Y43700500D01*
X76295986Y43700500D01*
X76212359Y43692264D01*
X75934156Y43664864D01*
X75577561Y43593934D01*
X75577545Y43593930D01*
X75359139Y43527677D01*
X75229616Y43488386D01*
X75229612Y43488385D01*
X75229604Y43488382D01*
X74893705Y43349248D01*
X74573053Y43177857D01*
X74270730Y42975851D01*
X74270727Y42975848D01*
X73989684Y42745202D01*
X73989677Y42745196D01*
X73732584Y42488103D01*
X73732578Y42488096D01*
X73501932Y42207053D01*
X73501929Y42207050D01*
X73299923Y41904727D01*
X73128532Y41584075D01*
X72989398Y41248176D01*
X72883850Y40900235D01*
X72883846Y40900219D01*
X72812916Y40543624D01*
X72777280Y40181791D01*
X60178280Y40181791D01*
X60178280Y40181794D01*
X60142642Y40543631D01*
X60071710Y40900233D01*
X59966166Y41248164D01*
X59827027Y41584076D01*
X59655633Y41904732D01*
X59453634Y42207044D01*
X59453630Y42207050D01*
X59453627Y42207053D01*
X59222981Y42488096D01*
X59222975Y42488103D01*
X58965882Y42745196D01*
X58965875Y42745202D01*
X58684832Y42975848D01*
X58684829Y42975851D01*
X58382506Y43177857D01*
X58061858Y43349246D01*
X58061853Y43349248D01*
X58038581Y43358888D01*
X58004757Y43392714D01*
X58000000Y43416630D01*
X58000000Y56181791D01*
X62777280Y56181791D01*
X62777280Y55818210D01*
X62812916Y55456377D01*
X62883846Y55099782D01*
X62883850Y55099767D01*
X62989394Y54751836D01*
X62989396Y54751831D01*
X62989398Y54751825D01*
X63128532Y54415926D01*
X63299923Y54095274D01*
X63501929Y53792951D01*
X63501932Y53792948D01*
X63732578Y53511905D01*
X63732584Y53511898D01*
X63989677Y53254805D01*
X63989684Y53254799D01*
X64270727Y53024153D01*
X64270730Y53024150D01*
X64270736Y53024146D01*
X64573048Y52822147D01*
X64573050Y52822146D01*
X64573053Y52822144D01*
X64694864Y52757035D01*
X64893704Y52650753D01*
X65229604Y52511619D01*
X65229603Y52511619D01*
X65229606Y52511618D01*
X65229616Y52511614D01*
X65577547Y52406070D01*
X65577556Y52406069D01*
X65577561Y52406067D01*
X65672729Y52387138D01*
X65934149Y52335138D01*
X65934154Y52335138D01*
X65934157Y52335137D01*
X65934155Y52335137D01*
X66118470Y52316984D01*
X66295986Y52299500D01*
X66295990Y52299500D01*
X66659570Y52299500D01*
X66659574Y52299500D01*
X66894789Y52322667D01*
X67021403Y52335137D01*
X67021405Y52335138D01*
X67021411Y52335138D01*
X67378013Y52406070D01*
X67725944Y52511614D01*
X68061856Y52650753D01*
X68382512Y52822147D01*
X68684824Y53024146D01*
X68965881Y53254803D01*
X69222977Y53511899D01*
X69453634Y53792956D01*
X69655633Y54095268D01*
X69827027Y54415924D01*
X69966166Y54751836D01*
X70071710Y55099767D01*
X70142642Y55456369D01*
X70178280Y55818206D01*
X70178280Y56181791D01*
X82777280Y56181791D01*
X82777280Y55818210D01*
X82812916Y55456377D01*
X82883846Y55099782D01*
X82883850Y55099767D01*
X82989394Y54751836D01*
X82989396Y54751831D01*
X82989398Y54751825D01*
X83128532Y54415926D01*
X83299923Y54095274D01*
X83501929Y53792951D01*
X83501932Y53792948D01*
X83732578Y53511905D01*
X83732584Y53511898D01*
X83989677Y53254805D01*
X83989684Y53254799D01*
X84270727Y53024153D01*
X84270730Y53024150D01*
X84270736Y53024146D01*
X84573048Y52822147D01*
X84573050Y52822146D01*
X84573053Y52822144D01*
X84694864Y52757035D01*
X84893704Y52650753D01*
X85229604Y52511619D01*
X85229603Y52511619D01*
X85229606Y52511618D01*
X85229616Y52511614D01*
X85577547Y52406070D01*
X85577556Y52406069D01*
X85577561Y52406067D01*
X85672729Y52387138D01*
X85934149Y52335138D01*
X85934154Y52335138D01*
X85934157Y52335137D01*
X85934155Y52335137D01*
X86118470Y52316984D01*
X86295986Y52299500D01*
X86295990Y52299500D01*
X86659570Y52299500D01*
X86659574Y52299500D01*
X86894789Y52322667D01*
X87021403Y52335137D01*
X87021405Y52335138D01*
X87021411Y52335138D01*
X87378013Y52406070D01*
X87725944Y52511614D01*
X88061856Y52650753D01*
X88382512Y52822147D01*
X88684824Y53024146D01*
X88965881Y53254803D01*
X89222977Y53511899D01*
X89453634Y53792956D01*
X89655633Y54095268D01*
X89827027Y54415924D01*
X89966166Y54751836D01*
X90071710Y55099767D01*
X90142642Y55456369D01*
X90178280Y55818206D01*
X90178280Y56181794D01*
X90142642Y56543631D01*
X90071710Y56900233D01*
X89966166Y57248164D01*
X89827027Y57584076D01*
X89655633Y57904732D01*
X89453634Y58207044D01*
X89453630Y58207050D01*
X89453627Y58207053D01*
X89222981Y58488096D01*
X89222975Y58488103D01*
X88965882Y58745196D01*
X88965875Y58745202D01*
X88684832Y58975848D01*
X88684829Y58975851D01*
X88382506Y59177857D01*
X88061854Y59349248D01*
X87725955Y59488382D01*
X87725956Y59488382D01*
X87725947Y59488385D01*
X87725944Y59488386D01*
X87537167Y59545651D01*
X87378014Y59593930D01*
X87377998Y59593934D01*
X87021402Y59664864D01*
X87021404Y59664864D01*
X86743200Y59692264D01*
X86659574Y59700500D01*
X86295986Y59700500D01*
X86212359Y59692264D01*
X85934156Y59664864D01*
X85577561Y59593934D01*
X85577545Y59593930D01*
X85359139Y59527677D01*
X85229616Y59488386D01*
X85229612Y59488385D01*
X85229604Y59488382D01*
X84893705Y59349248D01*
X84573053Y59177857D01*
X84270730Y58975851D01*
X84270727Y58975848D01*
X83989684Y58745202D01*
X83989677Y58745196D01*
X83732584Y58488103D01*
X83732578Y58488096D01*
X83501932Y58207053D01*
X83501929Y58207050D01*
X83299923Y57904727D01*
X83128532Y57584075D01*
X82989398Y57248176D01*
X82883850Y56900235D01*
X82883846Y56900219D01*
X82812916Y56543624D01*
X82777280Y56181791D01*
X70178280Y56181791D01*
X70178280Y56181794D01*
X70142642Y56543631D01*
X70071710Y56900233D01*
X69966166Y57248164D01*
X69827027Y57584076D01*
X69655633Y57904732D01*
X69453634Y58207044D01*
X69453630Y58207050D01*
X69453627Y58207053D01*
X69222981Y58488096D01*
X69222975Y58488103D01*
X68965882Y58745196D01*
X68965875Y58745202D01*
X68684832Y58975848D01*
X68684829Y58975851D01*
X68382506Y59177857D01*
X68061854Y59349248D01*
X67725955Y59488382D01*
X67725956Y59488382D01*
X67725947Y59488385D01*
X67725944Y59488386D01*
X67537167Y59545651D01*
X67378014Y59593930D01*
X67377998Y59593934D01*
X67021402Y59664864D01*
X67021404Y59664864D01*
X66743200Y59692264D01*
X66659574Y59700500D01*
X66295986Y59700500D01*
X66212359Y59692264D01*
X65934156Y59664864D01*
X65577561Y59593934D01*
X65577545Y59593930D01*
X65359139Y59527677D01*
X65229616Y59488386D01*
X65229612Y59488385D01*
X65229604Y59488382D01*
X64893705Y59349248D01*
X64573053Y59177857D01*
X64270730Y58975851D01*
X64270727Y58975848D01*
X63989684Y58745202D01*
X63989677Y58745196D01*
X63732584Y58488103D01*
X63732578Y58488096D01*
X63501932Y58207053D01*
X63501929Y58207050D01*
X63299923Y57904727D01*
X63128532Y57584075D01*
X62989398Y57248176D01*
X62883850Y56900235D01*
X62883846Y56900219D01*
X62812916Y56543624D01*
X62777280Y56181791D01*
X58000000Y56181791D01*
X58000000Y61474112D01*
X58018306Y61518306D01*
X59981694Y63481694D01*
X60025888Y63500000D01*
X97974112Y63500000D01*
X98018306Y63481694D01*
G37*
%TD.AperFunction*%
%TD*%
%TA.AperFunction,Conductor*%
%TO.N,VIN-*%
G36*
X8518306Y32981694D02*
G01*
X8981694Y32518306D01*
X9000000Y32474112D01*
X9000000Y29025888D01*
X8981694Y28981694D01*
X8518306Y28518306D01*
X8474112Y28500000D01*
X2525888Y28500000D01*
X2481694Y28518306D01*
X2018306Y28981694D01*
X2000000Y29025888D01*
X2000000Y32474112D01*
X2018306Y32518306D01*
X2481694Y32981694D01*
X2525888Y33000000D01*
X8474112Y33000000D01*
X8518306Y32981694D01*
G37*
%TD.AperFunction*%
%TD*%
%TA.AperFunction,Conductor*%
%TO.N,R_PRECHARGE+*%
G36*
X57018306Y88981694D02*
G01*
X57481694Y88518306D01*
X57500000Y88474112D01*
X57500000Y80525888D01*
X57481694Y80481694D01*
X57018306Y80018306D01*
X56974112Y80000000D01*
X47025888Y80000000D01*
X46981694Y80018306D01*
X46518306Y80481694D01*
X46500000Y80525888D01*
X46500000Y81000000D01*
X46500000Y88474112D01*
X46518306Y88518306D01*
X46981694Y88981694D01*
X47025888Y89000000D01*
X56974112Y89000000D01*
X57018306Y88981694D01*
G37*
%TD.AperFunction*%
%TD*%
%TA.AperFunction,Conductor*%
%TO.N,R_DISCHARGE-*%
G36*
X72018306Y14481694D02*
G01*
X72481694Y14018306D01*
X72500000Y13974112D01*
X72500000Y4025888D01*
X72481694Y3981694D01*
X72018306Y3518306D01*
X71974112Y3500000D01*
X49025888Y3500000D01*
X48981694Y3518306D01*
X48518306Y3981694D01*
X48500000Y4025888D01*
X48500000Y13974112D01*
X48518306Y14018306D01*
X48981694Y14481694D01*
X49025888Y14500000D01*
X71974112Y14500000D01*
X72018306Y14481694D01*
G37*
%TD.AperFunction*%
%TD*%
%TA.AperFunction,Conductor*%
%TO.N,SW2*%
G36*
X8518306Y61981694D02*
G01*
X8981694Y61518306D01*
X9000000Y61474112D01*
X9000000Y47525888D01*
X8981694Y47481694D01*
X8518306Y47018306D01*
X8474112Y47000000D01*
X2525888Y47000000D01*
X2481694Y47018306D01*
X2018306Y47481694D01*
X2000000Y47525888D01*
X2000000Y61474112D01*
X2018306Y61518306D01*
X2481694Y61981694D01*
X2525888Y62000000D01*
X8474112Y62000000D01*
X8518306Y61981694D01*
G37*
%TD.AperFunction*%
%TD*%
%TA.AperFunction,Conductor*%
%TO.N,VIN-*%
G36*
X99731194Y45481694D02*
G01*
X99749500Y45437500D01*
X99749500Y41062500D01*
X99731194Y41018306D01*
X99687000Y41000000D01*
X95587288Y41000000D01*
X95569145Y41002691D01*
X95400234Y41053930D01*
X95400218Y41053934D01*
X95043622Y41124864D01*
X95043624Y41124864D01*
X94765420Y41152264D01*
X94681794Y41160500D01*
X94318206Y41160500D01*
X94234579Y41152264D01*
X93956376Y41124864D01*
X93599781Y41053934D01*
X93599765Y41053930D01*
X93430855Y41002691D01*
X93412712Y41000000D01*
X92062500Y41000000D01*
X92018306Y41018306D01*
X92000000Y41062500D01*
X92000000Y45437500D01*
X92018306Y45481694D01*
X92062500Y45500000D01*
X99687000Y45500000D01*
X99731194Y45481694D01*
G37*
%TD.AperFunction*%
%TD*%
%TA.AperFunction,Conductor*%
%TO.N,VIN-*%
G36*
X27018306Y51981694D02*
G01*
X27481694Y51518306D01*
X27500000Y51474112D01*
X27500000Y49525888D01*
X27481694Y49481694D01*
X27018306Y49018306D01*
X26974112Y49000000D01*
X15525888Y49000000D01*
X15481694Y49018306D01*
X15018306Y49481694D01*
X15000000Y49525888D01*
X15000000Y51474112D01*
X15018306Y51518306D01*
X15481694Y51981694D01*
X15525888Y52000000D01*
X26974112Y52000000D01*
X27018306Y51981694D01*
G37*
%TD.AperFunction*%
%TD*%
%TA.AperFunction,Conductor*%
%TO.N,/Comparator/VIN_REF_L*%
G36*
X18760331Y32660114D02*
G01*
X18761367Y32659500D01*
X18998734Y32502016D01*
X19002015Y32498735D01*
X19159499Y32261368D01*
X19161218Y32252580D01*
X19156218Y32245151D01*
X19155182Y32244537D01*
X18677235Y31994005D01*
X18668316Y31993200D01*
X18663530Y31996095D01*
X18496094Y32163531D01*
X18492667Y32171804D01*
X18494003Y32177234D01*
X18744538Y32655185D01*
X18751412Y32660919D01*
X18760331Y32660114D01*
G37*
%TD.AperFunction*%
%TD*%
%TA.AperFunction,Conductor*%
%TO.N,Net-(R23-Pad1)*%
G36*
X15256166Y45158735D02*
G01*
X15589998Y44764808D01*
X15592732Y44756281D01*
X15589345Y44748971D01*
X15251029Y44410655D01*
X15242756Y44407228D01*
X15235192Y44410002D01*
X14841265Y44743834D01*
X14837169Y44751797D01*
X14839079Y44759227D01*
X14997985Y44998737D01*
X15001263Y45002015D01*
X15240773Y45160921D01*
X15249560Y45162639D01*
X15256166Y45158735D01*
G37*
%TD.AperFunction*%
%TD*%
%TA.AperFunction,Conductor*%
%TO.N,/Comparator/VIN_REF_L*%
G36*
X14491669Y14590809D02*
G01*
X14494564Y14586023D01*
X14655370Y14070910D01*
X14654565Y14061991D01*
X14647689Y14056255D01*
X14646522Y14055955D01*
X14367320Y13999470D01*
X14362680Y13999470D01*
X14083477Y14055955D01*
X14076048Y14060955D01*
X14074329Y14069743D01*
X14074625Y14070898D01*
X14235436Y14586024D01*
X14241172Y14592899D01*
X14246604Y14594236D01*
X14483396Y14594236D01*
X14491669Y14590809D01*
G37*
%TD.AperFunction*%
%TD*%
%TA.AperFunction,Conductor*%
%TO.N,/VIN_REF*%
G36*
X41281523Y66944045D02*
G01*
X41288951Y66939046D01*
X41290670Y66930258D01*
X41290370Y66929091D01*
X41129564Y66413977D01*
X41123828Y66407101D01*
X41118396Y66405764D01*
X40881604Y66405764D01*
X40873331Y66409191D01*
X40870436Y66413977D01*
X40709629Y66929091D01*
X40710434Y66938010D01*
X40717310Y66943746D01*
X40718458Y66944042D01*
X40997682Y67000531D01*
X41002318Y67000531D01*
X41281523Y66944045D01*
G37*
%TD.AperFunction*%
%TD*%
%TA.AperFunction,Conductor*%
%TO.N,/VIN_REF*%
G36*
X41126669Y40590809D02*
G01*
X41129564Y40586023D01*
X41290370Y40070910D01*
X41289565Y40061991D01*
X41282689Y40056255D01*
X41281522Y40055955D01*
X41002320Y39999470D01*
X40997680Y39999470D01*
X40718477Y40055955D01*
X40711048Y40060955D01*
X40709329Y40069743D01*
X40709625Y40070898D01*
X40870436Y40586024D01*
X40876172Y40592899D01*
X40881604Y40594236D01*
X41118396Y40594236D01*
X41126669Y40590809D01*
G37*
%TD.AperFunction*%
%TD*%
%TA.AperFunction,Conductor*%
%TO.N,VIN-*%
G36*
X46518306Y14481694D02*
G01*
X46981694Y14018306D01*
X47000000Y13974112D01*
X47000000Y4025888D01*
X46981694Y3981694D01*
X46518306Y3518306D01*
X46474112Y3500000D01*
X40525888Y3500000D01*
X40481694Y3518306D01*
X40018306Y3981694D01*
X40000000Y4025888D01*
X40000000Y13974112D01*
X40018306Y14018306D01*
X40481694Y14481694D01*
X40525888Y14500000D01*
X46474112Y14500000D01*
X46518306Y14481694D01*
G37*
%TD.AperFunction*%
%TD*%
%TA.AperFunction,Conductor*%
%TO.N,VOUT_REF_DIS*%
G36*
X10281523Y23444045D02*
G01*
X10288951Y23439046D01*
X10290670Y23430258D01*
X10290370Y23429091D01*
X10129564Y22913977D01*
X10123828Y22907101D01*
X10118396Y22905764D01*
X9881604Y22905764D01*
X9873331Y22909191D01*
X9870436Y22913977D01*
X9709629Y23429091D01*
X9710434Y23438010D01*
X9717310Y23443746D01*
X9718458Y23444042D01*
X9997682Y23500531D01*
X10002318Y23500531D01*
X10281523Y23444045D01*
G37*
%TD.AperFunction*%
%TD*%
%TA.AperFunction,Conductor*%
%TO.N,Net-(R36-Pad1)*%
G36*
X51249728Y20202871D02*
G01*
X51252600Y20198157D01*
X51593319Y19131268D01*
X51592572Y19122345D01*
X51585733Y19116564D01*
X51584475Y19116238D01*
X51002301Y18999462D01*
X50997699Y18999462D01*
X50415524Y19116238D01*
X50408086Y19121224D01*
X50406354Y19130010D01*
X50406677Y19131259D01*
X50747400Y20198158D01*
X50753181Y20204996D01*
X50758545Y20206298D01*
X51241455Y20206298D01*
X51249728Y20202871D01*
G37*
%TD.AperFunction*%
%TD*%
%TA.AperFunction,Conductor*%
%TO.N,/DIS*%
G36*
X33122831Y6660114D02*
G01*
X33123867Y6659500D01*
X33361234Y6502016D01*
X33364515Y6498735D01*
X33521999Y6261368D01*
X33523718Y6252580D01*
X33518718Y6245151D01*
X33517682Y6244537D01*
X33039735Y5994005D01*
X33030816Y5993200D01*
X33026030Y5996095D01*
X32858594Y6163531D01*
X32855167Y6171804D01*
X32856503Y6177234D01*
X33107038Y6655185D01*
X33113912Y6660919D01*
X33122831Y6660114D01*
G37*
%TD.AperFunction*%
%TD*%
%TA.AperFunction,Conductor*%
%TO.N,/Comparator/VIN_REF_H*%
G36*
X20760331Y27660114D02*
G01*
X20761367Y27659500D01*
X20998734Y27502016D01*
X21002015Y27498735D01*
X21159499Y27261368D01*
X21161218Y27252580D01*
X21156218Y27245151D01*
X21155182Y27244537D01*
X20677235Y26994005D01*
X20668316Y26993200D01*
X20663530Y26996095D01*
X20496094Y27163531D01*
X20492667Y27171804D01*
X20494003Y27177234D01*
X20744538Y27655185D01*
X20751412Y27660919D01*
X20760331Y27660114D01*
G37*
%TD.AperFunction*%
%TD*%
%TA.AperFunction,Conductor*%
%TO.N,Net-(R23-Pad1)*%
G36*
X22939631Y42790646D02*
G01*
X22943535Y42784040D01*
X23000530Y42502320D01*
X23000530Y42497680D01*
X22943535Y42215961D01*
X22938535Y42208532D01*
X22931104Y42206621D01*
X22416501Y42249114D01*
X22408538Y42253210D01*
X22405764Y42260774D01*
X22405764Y42739227D01*
X22409191Y42747500D01*
X22416499Y42750887D01*
X22931104Y42793380D01*
X22939631Y42790646D01*
G37*
%TD.AperFunction*%
%TD*%
%TA.AperFunction,Conductor*%
%TO.N,/VOUT_REF_PRE*%
G36*
X21070902Y45290373D02*
G01*
X21586023Y45129564D01*
X21592899Y45123828D01*
X21594236Y45118396D01*
X21594236Y44881605D01*
X21590809Y44873332D01*
X21586023Y44870437D01*
X21070909Y44709630D01*
X21061990Y44710435D01*
X21056254Y44717311D01*
X21055957Y44718463D01*
X20999469Y44997682D01*
X20999469Y45002320D01*
X21055955Y45281526D01*
X21060954Y45288952D01*
X21069742Y45290671D01*
X21070902Y45290373D01*
G37*
%TD.AperFunction*%
%TD*%
%TA.AperFunction,Conductor*%
%TO.N,/VOUT_REF_PRE*%
G36*
X41438009Y76289566D02*
G01*
X41443745Y76282690D01*
X41444045Y76281523D01*
X41500530Y76002320D01*
X41500530Y75997680D01*
X41444045Y75718478D01*
X41439045Y75711049D01*
X41430257Y75709330D01*
X41429090Y75709630D01*
X40913977Y75870437D01*
X40907101Y75876173D01*
X40905764Y75881605D01*
X40905764Y76118396D01*
X40909191Y76126669D01*
X40913977Y76129564D01*
X41429091Y76290371D01*
X41438009Y76289566D01*
G37*
%TD.AperFunction*%
%TD*%
%TA.AperFunction,Conductor*%
%TO.N,/PRE*%
G36*
X45438009Y71289566D02*
G01*
X45443745Y71282690D01*
X45444045Y71281523D01*
X45500530Y71002320D01*
X45500530Y70997680D01*
X45444045Y70718478D01*
X45439045Y70711049D01*
X45430257Y70709330D01*
X45429090Y70709630D01*
X44913977Y70870437D01*
X44907101Y70876173D01*
X44905764Y70881605D01*
X44905764Y71118396D01*
X44909191Y71126669D01*
X44913977Y71129564D01*
X45429091Y71290371D01*
X45438009Y71289566D01*
G37*
%TD.AperFunction*%
%TD*%
%TA.AperFunction,Conductor*%
%TO.N,/Comparator/VIN_REF_H*%
G36*
X14491669Y4590809D02*
G01*
X14494564Y4586023D01*
X14655370Y4070910D01*
X14654565Y4061991D01*
X14647689Y4056255D01*
X14646522Y4055955D01*
X14367320Y3999470D01*
X14362680Y3999470D01*
X14083477Y4055955D01*
X14076048Y4060955D01*
X14074329Y4069743D01*
X14074625Y4070898D01*
X14235436Y4586024D01*
X14241172Y4592899D01*
X14246604Y4594236D01*
X14483396Y4594236D01*
X14491669Y4590809D01*
G37*
%TD.AperFunction*%
%TD*%
%TA.AperFunction,Conductor*%
%TO.N,Net-(R23-Pad1)*%
G36*
X23256166Y35158735D02*
G01*
X23589998Y34764808D01*
X23592732Y34756281D01*
X23589345Y34748971D01*
X23251029Y34410655D01*
X23242756Y34407228D01*
X23235192Y34410002D01*
X22841265Y34743834D01*
X22837169Y34751797D01*
X22839079Y34759227D01*
X22997985Y34998737D01*
X23001263Y35002015D01*
X23240773Y35160921D01*
X23249560Y35162639D01*
X23256166Y35158735D01*
G37*
%TD.AperFunction*%
%TD*%
%TA.AperFunction,Conductor*%
%TO.N,/PRE*%
G36*
X10126669Y25590809D02*
G01*
X10129564Y25586023D01*
X10290370Y25070910D01*
X10289565Y25061991D01*
X10282689Y25056255D01*
X10281522Y25055955D01*
X10002320Y24999470D01*
X9997680Y24999470D01*
X9718477Y25055955D01*
X9711048Y25060955D01*
X9709329Y25069743D01*
X9709625Y25070898D01*
X9870436Y25586024D01*
X9876172Y25592899D01*
X9881604Y25594236D01*
X10118396Y25594236D01*
X10126669Y25590809D01*
G37*
%TD.AperFunction*%
%TD*%
%TA.AperFunction,Conductor*%
%TO.N,/DIS*%
G36*
X8791523Y12944045D02*
G01*
X8798951Y12939046D01*
X8800670Y12930258D01*
X8800370Y12929091D01*
X8639564Y12413977D01*
X8633828Y12407101D01*
X8628396Y12405764D01*
X8391604Y12405764D01*
X8383331Y12409191D01*
X8380436Y12413977D01*
X8219629Y12929091D01*
X8220434Y12938010D01*
X8227310Y12943746D01*
X8228458Y12944042D01*
X8507682Y13000531D01*
X8512318Y13000531D01*
X8791523Y12944045D01*
G37*
%TD.AperFunction*%
%TD*%
%TA.AperFunction,Conductor*%
%TO.N,Net-(R36-Pad1)*%
G36*
X51284039Y29943536D02*
G01*
X51291468Y29938536D01*
X51293379Y29931105D01*
X51250887Y29416501D01*
X51246791Y29408538D01*
X51239227Y29405764D01*
X50760773Y29405764D01*
X50752500Y29409191D01*
X50749113Y29416501D01*
X50706620Y29931105D01*
X50709354Y29939632D01*
X50715959Y29943536D01*
X50997682Y30000531D01*
X51002318Y30000531D01*
X51284039Y29943536D01*
G37*
%TD.AperFunction*%
%TD*%
%TA.AperFunction,Conductor*%
%TO.N,Net-(R42-Pad1)*%
G36*
X46759227Y35160920D02*
G01*
X46998734Y35002016D01*
X47002015Y34998735D01*
X47160919Y34759228D01*
X47162638Y34750440D01*
X47158734Y34743834D01*
X46764807Y34410002D01*
X46756280Y34407268D01*
X46748970Y34410655D01*
X46410654Y34748971D01*
X46407227Y34757244D01*
X46410001Y34764808D01*
X46609913Y35000707D01*
X46743834Y35158736D01*
X46751796Y35162831D01*
X46759227Y35160920D01*
G37*
%TD.AperFunction*%
%TD*%
%TA.AperFunction,Conductor*%
%TO.N,VOUT_REF_DIS*%
G36*
X10677233Y7030997D02*
G01*
X11155182Y6780463D01*
X11160918Y6773588D01*
X11160113Y6764669D01*
X11159499Y6763633D01*
X11002015Y6526266D01*
X10998734Y6522985D01*
X10761367Y6365501D01*
X10752579Y6363782D01*
X10745150Y6368782D01*
X10744541Y6369809D01*
X10494003Y6847766D01*
X10493199Y6856684D01*
X10496092Y6861468D01*
X10663531Y7028907D01*
X10671803Y7032333D01*
X10677233Y7030997D01*
G37*
%TD.AperFunction*%
%TD*%
%TA.AperFunction,Conductor*%
%TO.N,Net-(R23-Pad1)*%
G36*
X26749728Y20202871D02*
G01*
X26752600Y20198157D01*
X27093319Y19131268D01*
X27092572Y19122345D01*
X27085733Y19116564D01*
X27084475Y19116238D01*
X26502301Y18999462D01*
X26497699Y18999462D01*
X25915524Y19116238D01*
X25908086Y19121224D01*
X25906354Y19130010D01*
X25906677Y19131259D01*
X26247400Y20198158D01*
X26253181Y20204996D01*
X26258545Y20206298D01*
X26741455Y20206298D01*
X26749728Y20202871D01*
G37*
%TD.AperFunction*%
%TD*%
%TA.AperFunction,Conductor*%
%TO.N,Net-(R42-Pad1)*%
G36*
X38749728Y20202871D02*
G01*
X38752600Y20198157D01*
X39093319Y19131268D01*
X39092572Y19122345D01*
X39085733Y19116564D01*
X39084475Y19116238D01*
X38502301Y18999462D01*
X38497699Y18999462D01*
X37915524Y19116238D01*
X37908086Y19121224D01*
X37906354Y19130010D01*
X37906677Y19131259D01*
X38247400Y20198158D01*
X38253181Y20204996D01*
X38258545Y20206298D01*
X38741455Y20206298D01*
X38749728Y20202871D01*
G37*
%TD.AperFunction*%
%TD*%
M02*
