%TF.GenerationSoftware,KiCad,Pcbnew,9.0.0*%
%TF.CreationDate,2025-08-07T11:31:08+08:00*%
%TF.ProjectId,Regen Clamp,52656765-6e20-4436-9c61-6d702e6b6963,1.1*%
%TF.SameCoordinates,PXa7d8c00PY8c30ac0*%
%TF.FileFunction,Copper,L3,Inr*%
%TF.FilePolarity,Positive*%
%FSLAX46Y46*%
G04 Gerber Fmt 4.6, Leading zero omitted, Abs format (unit mm)*
G04 Created by KiCad (PCBNEW 9.0.0) date 2025-08-07 11:31:08*
%MOMM*%
%LPD*%
G01*
G04 APERTURE LIST*
%TA.AperFunction,ComponentPad*%
%ADD10C,2.400000*%
%TD*%
%TA.AperFunction,ComponentPad*%
%ADD11C,2.900000*%
%TD*%
%TA.AperFunction,ComponentPad*%
%ADD12C,2.000000*%
%TD*%
%TA.AperFunction,ComponentPad*%
%ADD13R,2.000000X2.000000*%
%TD*%
%TA.AperFunction,ComponentPad*%
%ADD14R,1.218000X1.218000*%
%TD*%
%TA.AperFunction,ComponentPad*%
%ADD15C,1.218000*%
%TD*%
%TA.AperFunction,ComponentPad*%
%ADD16R,2.400000X2.400000*%
%TD*%
%TA.AperFunction,ViaPad*%
%ADD17C,0.600000*%
%TD*%
%TA.AperFunction,ViaPad*%
%ADD18C,0.800000*%
%TD*%
%TA.AperFunction,Conductor*%
%ADD19C,0.600000*%
%TD*%
%TA.AperFunction,Conductor*%
%ADD20C,0.500000*%
%TD*%
%TA.AperFunction,Conductor*%
%ADD21C,3.000000*%
%TD*%
%TA.AperFunction,Conductor*%
%ADD22C,0.254000*%
%TD*%
G04 APERTURE END LIST*
D10*
%TO.N,SW1*%
%TO.C,J2*%
X5500000Y36500000D03*
%TO.N,VIN-*%
X5500000Y31420000D03*
%TD*%
%TO.N,VOUT+*%
%TO.C,J5*%
X94500000Y37460000D03*
%TO.N,VIN-*%
X94500000Y42540000D03*
%TD*%
D11*
%TO.N,VOUT+*%
%TO.C,J3*%
X78400000Y11500000D03*
X78400000Y6500000D03*
X85600000Y11500000D03*
X85600000Y6500000D03*
%TD*%
D10*
%TO.N,SW2*%
%TO.C,J1*%
X5500000Y48580000D03*
%TO.N,SW1*%
X5500000Y43500000D03*
%TD*%
D12*
%TO.N,VOUT+*%
%TO.C,K1*%
X59537500Y75687500D03*
X59537500Y68187500D03*
%TO.N,R_PRECHARGE-*%
X64537500Y75687500D03*
X64537500Y68187500D03*
%TO.N,R_PRECHARGE+*%
X54537500Y75687500D03*
X54537500Y68187500D03*
D13*
%TO.N,+12V*%
X79537500Y75687500D03*
D12*
%TO.N,Net-(D6-A)*%
X79537500Y68187500D03*
%TD*%
D14*
%TO.N,unconnected-(RV2-Pad1)*%
%TO.C,RV2*%
X35960000Y19000000D03*
D15*
%TO.N,Net-(R42-Pad1)*%
X38500000Y19000000D03*
%TO.N,VIN-*%
X41040000Y19000000D03*
%TD*%
D16*
%TO.N,VOUT+*%
%TO.C,C23*%
X63977780Y40000000D03*
D10*
%TO.N,VIN-*%
X56477780Y40000000D03*
%TD*%
D16*
%TO.N,VOUT+*%
%TO.C,C22*%
X73977780Y24000000D03*
D10*
%TO.N,VIN-*%
X66477780Y24000000D03*
%TD*%
D11*
%TO.N,R_DISCHARGE-*%
%TO.C,J4*%
X63400000Y11500000D03*
X63400000Y6500000D03*
X70600000Y11500000D03*
X70600000Y6500000D03*
%TD*%
D14*
%TO.N,unconnected-(RV1-Pad1)*%
%TO.C,RV1*%
X48460000Y19000000D03*
D15*
%TO.N,Net-(R36-Pad1)*%
X51000000Y19000000D03*
%TO.N,VIN-*%
X53540000Y19000000D03*
%TD*%
D16*
%TO.N,VOUT+*%
%TO.C,C19*%
X83977780Y40000000D03*
D10*
%TO.N,VIN-*%
X76477780Y40000000D03*
%TD*%
D16*
%TO.N,VOUT+*%
%TO.C,C20*%
X93977780Y56000000D03*
D10*
%TO.N,VIN-*%
X86477780Y56000000D03*
%TD*%
D11*
%TO.N,R_PRECHARGE-*%
%TO.C,J7*%
X70600000Y82000000D03*
X70600000Y87000000D03*
X63400000Y82000000D03*
X63400000Y87000000D03*
%TD*%
%TO.N,R_PRECHARGE+*%
%TO.C,J6*%
X55600000Y82000000D03*
X55600000Y87000000D03*
X48400000Y82000000D03*
X48400000Y87000000D03*
%TD*%
D14*
%TO.N,unconnected-(RV3-Pad1)*%
%TO.C,RV3*%
X23960000Y19000000D03*
D15*
%TO.N,Net-(R23-Pad1)*%
X26500000Y19000000D03*
%TO.N,VIN-*%
X29040000Y19000000D03*
%TD*%
D16*
%TO.N,VOUT+*%
%TO.C,C24*%
X93977780Y24000000D03*
D10*
%TO.N,VIN-*%
X86477780Y24000000D03*
%TD*%
D16*
%TO.N,VOUT+*%
%TO.C,C21*%
X73977780Y56000000D03*
D10*
%TO.N,VIN-*%
X66477780Y56000000D03*
%TD*%
D17*
%TO.N,VIN+*%
X26500000Y55500000D03*
X12037500Y42000000D03*
X18500000Y55000000D03*
X30050000Y50000000D03*
D18*
%TO.N,VIN-*%
X43000000Y8500000D03*
D17*
X3500000Y19500000D03*
X29500000Y77000000D03*
D18*
X41000000Y13000000D03*
D17*
X24000000Y8250000D03*
D18*
X3500000Y31500000D03*
D17*
X11500000Y18500000D03*
X53000000Y50500000D03*
X19000000Y9000000D03*
X35637500Y9000000D03*
X11000000Y9000000D03*
D18*
X43000000Y4500000D03*
X28175000Y73525000D03*
D17*
X15250000Y21000000D03*
D18*
X24500000Y66000000D03*
D17*
X25000000Y11500000D03*
X27500000Y14000000D03*
D18*
X7500000Y31500000D03*
X28175000Y70475000D03*
X41000000Y6460000D03*
X96500000Y42500000D03*
X96500000Y44500000D03*
X28500000Y66000000D03*
X94500000Y44500000D03*
D17*
X40020000Y75000000D03*
X45500000Y50500000D03*
D18*
X7500000Y29500000D03*
D17*
X12500000Y25000000D03*
D18*
X43000000Y13000000D03*
X45000000Y4500000D03*
D17*
X39500000Y68000000D03*
D18*
X98500000Y44500000D03*
D17*
X34500000Y9000000D03*
X37000000Y8050000D03*
X44500000Y73905000D03*
X29500000Y67000000D03*
D18*
X26500000Y50000000D03*
X41000000Y4500000D03*
X18500000Y50000000D03*
X45000000Y13000000D03*
X24825000Y70475000D03*
D17*
X29500000Y76000000D03*
X17510000Y20490000D03*
X35500000Y11500000D03*
X49500000Y40000000D03*
X50500000Y50500000D03*
X90000000Y72950000D03*
X48000000Y50500000D03*
D18*
X28500000Y64000000D03*
D17*
X27500000Y4000000D03*
D18*
X26500000Y66000000D03*
D17*
X3500000Y14000000D03*
D18*
X24825000Y73525000D03*
X41000000Y8500000D03*
X24500000Y64000000D03*
D17*
X16500000Y14000000D03*
X13095000Y10000000D03*
D18*
X5500000Y29500000D03*
D17*
X36500000Y13000000D03*
X35500000Y6500000D03*
X21000000Y16500000D03*
X16500000Y4000000D03*
D18*
X26500000Y72000000D03*
D17*
X3500000Y25000000D03*
X35500000Y73000000D03*
D18*
X3500000Y29500000D03*
X98500000Y42500000D03*
X45000000Y8500000D03*
D17*
X47000000Y69500000D03*
X54750000Y50500000D03*
%TO.N,Net-(Q1-G)*%
X90000000Y71050000D03*
X46250000Y72510000D03*
D18*
%TO.N,+15V*%
X45500000Y55500000D03*
D17*
X19000000Y6525000D03*
X34020000Y12250000D03*
X32800000Y68300000D03*
X35500000Y71000000D03*
%TO.N,+12V*%
X11500000Y22250000D03*
X33000000Y77000000D03*
%TO.N,/VIN_REF*%
X41000000Y40000000D03*
X41000000Y67000000D03*
%TO.N,/VOUT_REF_PRE*%
X41500000Y76000000D03*
X21000000Y45000000D03*
%TO.N,VOUT_REF_DIS*%
X11000000Y6525000D03*
X10000000Y23500000D03*
D18*
%TO.N,VOUT+*%
X59537500Y58000000D03*
X59537500Y56000000D03*
X59537500Y60000000D03*
X62000000Y60000000D03*
X98500000Y37500000D03*
D17*
X62000000Y25000000D03*
D18*
X96500000Y35500000D03*
X62000000Y58000000D03*
X98500000Y35500000D03*
D17*
X62000000Y45000000D03*
D18*
X62000000Y56000000D03*
D17*
%TO.N,+5V*%
X27900000Y11500000D03*
X17000000Y16500000D03*
%TO.N,/Comparator/VIN_REF_H*%
X21000000Y27500000D03*
X14365000Y4000000D03*
%TO.N,/Comparator/VIN_REF_L*%
X14365000Y14000000D03*
X19000000Y32500000D03*
D18*
%TO.N,R_PRECHARGE+*%
X15000000Y65500000D03*
X15000000Y73500000D03*
X15000000Y71500000D03*
X15000000Y75500000D03*
X17000000Y69500000D03*
X19000000Y69500000D03*
X15000000Y67500000D03*
X15000000Y69500000D03*
%TO.N,R_DISCHARGE-*%
X55925000Y6225000D03*
X51075000Y11775000D03*
X55925000Y11775000D03*
X51075000Y6225000D03*
X53500000Y9000000D03*
D17*
%TO.N,/PRE*%
X45500000Y71000000D03*
X10000000Y25000000D03*
%TO.N,/DIS*%
X33362500Y6500000D03*
X8510000Y13000000D03*
D18*
%TO.N,SW2*%
X5500000Y54500000D03*
X3500000Y54500000D03*
X7500000Y54500000D03*
D17*
%TO.N,Net-(R36-Pad1)*%
X51000000Y30000000D03*
%TO.N,Net-(R42-Pad1)*%
X47000000Y35000000D03*
%TO.N,Net-(R23-Pad1)*%
X23000000Y42500000D03*
X15000000Y45000000D03*
X23000000Y35000000D03*
%TD*%
D19*
%TO.N,VIN+*%
X30050000Y51950000D02*
X26500000Y55500000D01*
D20*
X12037500Y42000000D02*
X12037500Y48537500D01*
X12037500Y48537500D02*
X18500000Y55000000D01*
D19*
X30050000Y50000000D02*
X30050000Y51950000D01*
D20*
%TO.N,Net-(Q1-G)*%
X71500000Y79000000D02*
X79450000Y71050000D01*
X52740000Y79000000D02*
X71500000Y79000000D01*
X46250000Y72510000D02*
X52740000Y79000000D01*
X79450000Y71050000D02*
X90000000Y71050000D01*
%TO.N,+15V*%
X45500000Y68500000D02*
X43000000Y71000000D01*
X43000000Y71000000D02*
X35500000Y71000000D01*
X45500000Y55500000D02*
X45500000Y68500000D01*
X34020000Y37000000D02*
X34020000Y12250000D01*
X45500000Y55500000D02*
X34020000Y44020000D01*
X28295000Y6525000D02*
X34020000Y12250000D01*
X35500000Y71000000D02*
X32800000Y68300000D01*
X19000000Y6525000D02*
X28295000Y6525000D01*
X34020000Y44020000D02*
X34020000Y37000000D01*
%TO.N,+12V*%
X79537500Y81962500D02*
X79537500Y75687500D01*
X33000000Y77000000D02*
X40500000Y84500000D01*
X30500000Y26000000D02*
X30500000Y44500000D01*
X30500000Y44500000D02*
X34000000Y48000000D01*
X40500000Y84500000D02*
X77000000Y84500000D01*
X30500000Y59000000D02*
X30500000Y74500000D01*
X11500000Y22250000D02*
X26750000Y22250000D01*
X30500000Y74500000D02*
X33000000Y77000000D01*
X34000000Y48000000D02*
X34000000Y55500000D01*
X26750000Y22250000D02*
X30500000Y26000000D01*
X34000000Y55500000D02*
X30500000Y59000000D01*
X77000000Y84500000D02*
X79537500Y81962500D01*
D21*
%TO.N,VOUT+*%
X59537500Y75687500D02*
X59537500Y68187500D01*
D22*
%TO.N,+5V*%
X25400000Y14000000D02*
X19500000Y14000000D01*
X19500000Y14000000D02*
X17000000Y16500000D01*
X27900000Y11500000D02*
X25400000Y14000000D01*
D21*
%TO.N,R_PRECHARGE+*%
X54537500Y75687500D02*
X54537500Y68187500D01*
%TO.N,R_PRECHARGE-*%
X64537500Y75687500D02*
X64537500Y68187500D01*
%TD*%
%TA.AperFunction,Conductor*%
%TO.N,VIN-*%
G36*
X97914545Y89731194D02*
G01*
X99731194Y87914545D01*
X99749500Y87870351D01*
X99749500Y2129649D01*
X99731194Y2085455D01*
X97914545Y268806D01*
X97870351Y250500D01*
X2129649Y250500D01*
X2085455Y268806D01*
X268806Y2085455D01*
X250500Y2129649D01*
X250500Y5112773D01*
X3279500Y5112773D01*
X3279500Y4887228D01*
X3308938Y4663624D01*
X3308938Y4663623D01*
X3367309Y4445782D01*
X3453617Y4237413D01*
X3453618Y4237410D01*
X3566385Y4042093D01*
X3566387Y4042090D01*
X3703684Y3863161D01*
X3863161Y3703684D01*
X4042090Y3566387D01*
X4237409Y3453619D01*
X4445777Y3367311D01*
X4663627Y3308938D01*
X4887232Y3279500D01*
X4887238Y3279500D01*
X5112762Y3279500D01*
X5112768Y3279500D01*
X5336373Y3308938D01*
X5554223Y3367311D01*
X5762591Y3453619D01*
X5957910Y3566387D01*
X6136839Y3703684D01*
X6296316Y3863161D01*
X6433613Y4042090D01*
X6454955Y4079056D01*
X13764500Y4079056D01*
X13764500Y3920945D01*
X13764501Y3920937D01*
X13805421Y3768220D01*
X13805422Y3768217D01*
X13805423Y3768216D01*
X13884480Y3631284D01*
X13996284Y3519480D01*
X14133216Y3440423D01*
X14133219Y3440422D01*
X14226681Y3415379D01*
X14285943Y3399500D01*
X14285944Y3399500D01*
X14444056Y3399500D01*
X14444057Y3399500D01*
X14596784Y3440423D01*
X14733716Y3519480D01*
X14845520Y3631284D01*
X14924577Y3768216D01*
X14965500Y3920943D01*
X14965500Y4079057D01*
X14924577Y4231784D01*
X14845520Y4368716D01*
X14733716Y4480520D01*
X14637464Y4536091D01*
X14596783Y4559578D01*
X14596780Y4559579D01*
X14444063Y4600499D01*
X14444058Y4600500D01*
X14444057Y4600500D01*
X14285943Y4600500D01*
X14285942Y4600500D01*
X14285936Y4600499D01*
X14133219Y4559579D01*
X14133216Y4559578D01*
X14036964Y4504007D01*
X13996284Y4480520D01*
X13996283Y4480519D01*
X13996279Y4480516D01*
X13884484Y4368721D01*
X13884481Y4368717D01*
X13805422Y4231784D01*
X13805421Y4231781D01*
X13764501Y4079064D01*
X13764500Y4079056D01*
X6454955Y4079056D01*
X6546381Y4237409D01*
X6632689Y4445777D01*
X6691062Y4663627D01*
X6720500Y4887232D01*
X6720500Y5112768D01*
X6691062Y5336373D01*
X6689195Y5343339D01*
X6632690Y5554219D01*
X6632689Y5554223D01*
X6546381Y5762591D01*
X6433613Y5957910D01*
X6300582Y6131280D01*
X6296320Y6136834D01*
X6296311Y6136844D01*
X6136843Y6296312D01*
X6136833Y6296321D01*
X6020908Y6385273D01*
X5957910Y6433613D01*
X5957907Y6433615D01*
X5762590Y6546382D01*
X5762580Y6546387D01*
X5752867Y6550410D01*
X5752865Y6550410D01*
X5623350Y6604056D01*
X10399500Y6604056D01*
X10399500Y6445945D01*
X10399501Y6445937D01*
X10440421Y6293220D01*
X10440422Y6293217D01*
X10463909Y6252536D01*
X10519480Y6156284D01*
X10631284Y6044480D01*
X10752494Y5974500D01*
X10768216Y5965423D01*
X10768219Y5965422D01*
X10796262Y5957908D01*
X10920943Y5924500D01*
X10920944Y5924500D01*
X11079056Y5924500D01*
X11079057Y5924500D01*
X11231784Y5965423D01*
X11368716Y6044480D01*
X11480520Y6156284D01*
X11559577Y6293216D01*
X11600500Y6445943D01*
X11600500Y6604056D01*
X18399500Y6604056D01*
X18399500Y6445945D01*
X18399501Y6445937D01*
X18440421Y6293220D01*
X18440422Y6293217D01*
X18463909Y6252536D01*
X18519480Y6156284D01*
X18631284Y6044480D01*
X18752494Y5974500D01*
X18768216Y5965423D01*
X18768219Y5965422D01*
X18796262Y5957908D01*
X18920943Y5924500D01*
X18920944Y5924500D01*
X19079056Y5924500D01*
X19079057Y5924500D01*
X19081280Y5925096D01*
X19092320Y5927016D01*
X19094032Y5927158D01*
X19094036Y5927157D01*
X19608640Y5969650D01*
X19619165Y5972430D01*
X19635121Y5974500D01*
X28367473Y5974500D01*
X28367474Y5974500D01*
X28367475Y5974500D01*
X28507485Y6012016D01*
X28520413Y6019480D01*
X28633015Y6084490D01*
X29127581Y6579056D01*
X32762000Y6579056D01*
X32762000Y6420945D01*
X32762001Y6420937D01*
X32802921Y6268220D01*
X32802922Y6268217D01*
X32802923Y6268216D01*
X32881980Y6131284D01*
X32993784Y6019480D01*
X33100431Y5957908D01*
X33130716Y5940423D01*
X33130719Y5940422D01*
X33224181Y5915379D01*
X33283443Y5899500D01*
X33283444Y5899500D01*
X33441556Y5899500D01*
X33441557Y5899500D01*
X33594284Y5940423D01*
X33731216Y6019480D01*
X33843020Y6131284D01*
X33922077Y6268216D01*
X33928984Y6293994D01*
X50374500Y6293994D01*
X50374500Y6156007D01*
X50401419Y6020674D01*
X50401419Y6020673D01*
X50451610Y5899502D01*
X50454225Y5893189D01*
X50530886Y5778458D01*
X50628458Y5680886D01*
X50743189Y5604225D01*
X50870672Y5551420D01*
X51006007Y5524500D01*
X51143993Y5524500D01*
X51279328Y5551420D01*
X51406811Y5604225D01*
X51521542Y5680886D01*
X51619114Y5778458D01*
X51695775Y5893189D01*
X51748580Y6020672D01*
X51775500Y6156007D01*
X51775500Y6293993D01*
X51775500Y6293994D01*
X55224500Y6293994D01*
X55224500Y6156007D01*
X55251419Y6020674D01*
X55251419Y6020673D01*
X55301610Y5899502D01*
X55304225Y5893189D01*
X55380886Y5778458D01*
X55478458Y5680886D01*
X55593189Y5604225D01*
X55720672Y5551420D01*
X55856007Y5524500D01*
X55993993Y5524500D01*
X56129328Y5551420D01*
X56256811Y5604225D01*
X56371542Y5680886D01*
X56469114Y5778458D01*
X56545775Y5893189D01*
X56598580Y6020672D01*
X56625500Y6156007D01*
X56625500Y6293993D01*
X56598580Y6429328D01*
X56545775Y6556811D01*
X56507069Y6614739D01*
X61649500Y6614739D01*
X61649500Y6385262D01*
X61679452Y6157760D01*
X61679452Y6157758D01*
X61733002Y5957908D01*
X61738842Y5936113D01*
X61754007Y5899502D01*
X61826653Y5724118D01*
X61826659Y5724106D01*
X61924741Y5554223D01*
X61941389Y5525388D01*
X62081081Y5343339D01*
X62243339Y5181081D01*
X62425388Y5041389D01*
X62624112Y4926656D01*
X62836113Y4838842D01*
X63057762Y4779452D01*
X63285266Y4749500D01*
X63285272Y4749500D01*
X63514728Y4749500D01*
X63514734Y4749500D01*
X63742238Y4779452D01*
X63963887Y4838842D01*
X64175888Y4926656D01*
X64374612Y5041389D01*
X64556661Y5181081D01*
X64718919Y5343339D01*
X64858611Y5525388D01*
X64973344Y5724112D01*
X65061158Y5936113D01*
X65120548Y6157762D01*
X65150500Y6385266D01*
X65150500Y6614734D01*
X65150499Y6614739D01*
X68849500Y6614739D01*
X68849500Y6385262D01*
X68879452Y6157760D01*
X68879452Y6157758D01*
X68933002Y5957908D01*
X68938842Y5936113D01*
X68954007Y5899502D01*
X69026653Y5724118D01*
X69026659Y5724106D01*
X69124741Y5554223D01*
X69141389Y5525388D01*
X69281081Y5343339D01*
X69443339Y5181081D01*
X69625388Y5041389D01*
X69824112Y4926656D01*
X70036113Y4838842D01*
X70257762Y4779452D01*
X70485266Y4749500D01*
X70485272Y4749500D01*
X70714728Y4749500D01*
X70714734Y4749500D01*
X70942238Y4779452D01*
X71163887Y4838842D01*
X71375888Y4926656D01*
X71574612Y5041389D01*
X71756661Y5181081D01*
X71918919Y5343339D01*
X72058611Y5525388D01*
X72173344Y5724112D01*
X72261158Y5936113D01*
X72320548Y6157762D01*
X72350500Y6385266D01*
X72350500Y6614734D01*
X72350499Y6614739D01*
X76649500Y6614739D01*
X76649500Y6385262D01*
X76679452Y6157760D01*
X76679452Y6157758D01*
X76733002Y5957908D01*
X76738842Y5936113D01*
X76754007Y5899502D01*
X76826653Y5724118D01*
X76826659Y5724106D01*
X76924741Y5554223D01*
X76941389Y5525388D01*
X77081081Y5343339D01*
X77243339Y5181081D01*
X77425388Y5041389D01*
X77624112Y4926656D01*
X77836113Y4838842D01*
X78057762Y4779452D01*
X78285266Y4749500D01*
X78285272Y4749500D01*
X78514728Y4749500D01*
X78514734Y4749500D01*
X78742238Y4779452D01*
X78963887Y4838842D01*
X79175888Y4926656D01*
X79374612Y5041389D01*
X79556661Y5181081D01*
X79718919Y5343339D01*
X79858611Y5525388D01*
X79973344Y5724112D01*
X80061158Y5936113D01*
X80120548Y6157762D01*
X80150500Y6385266D01*
X80150500Y6614734D01*
X80150499Y6614739D01*
X83849500Y6614739D01*
X83849500Y6385262D01*
X83879452Y6157760D01*
X83879452Y6157758D01*
X83933002Y5957908D01*
X83938842Y5936113D01*
X83954007Y5899502D01*
X84026653Y5724118D01*
X84026659Y5724106D01*
X84124741Y5554223D01*
X84141389Y5525388D01*
X84281081Y5343339D01*
X84443339Y5181081D01*
X84625388Y5041389D01*
X84824112Y4926656D01*
X85036113Y4838842D01*
X85257762Y4779452D01*
X85485266Y4749500D01*
X85485272Y4749500D01*
X85714728Y4749500D01*
X85714734Y4749500D01*
X85942238Y4779452D01*
X86163887Y4838842D01*
X86375888Y4926656D01*
X86574612Y5041389D01*
X86667641Y5112773D01*
X93279500Y5112773D01*
X93279500Y4887228D01*
X93308938Y4663624D01*
X93308938Y4663623D01*
X93367309Y4445782D01*
X93453617Y4237413D01*
X93453618Y4237410D01*
X93566385Y4042093D01*
X93566387Y4042090D01*
X93703684Y3863161D01*
X93863161Y3703684D01*
X94042090Y3566387D01*
X94237409Y3453619D01*
X94445777Y3367311D01*
X94663627Y3308938D01*
X94887232Y3279500D01*
X94887238Y3279500D01*
X95112762Y3279500D01*
X95112768Y3279500D01*
X95336373Y3308938D01*
X95554223Y3367311D01*
X95762591Y3453619D01*
X95957910Y3566387D01*
X96136839Y3703684D01*
X96296316Y3863161D01*
X96433613Y4042090D01*
X96546381Y4237409D01*
X96632689Y4445777D01*
X96691062Y4663627D01*
X96720500Y4887232D01*
X96720500Y5112768D01*
X96691062Y5336373D01*
X96689195Y5343339D01*
X96632690Y5554219D01*
X96632689Y5554223D01*
X96546381Y5762591D01*
X96433613Y5957910D01*
X96300582Y6131280D01*
X96296320Y6136834D01*
X96296311Y6136844D01*
X96136843Y6296312D01*
X96136833Y6296321D01*
X96020908Y6385273D01*
X95957910Y6433613D01*
X95957907Y6433615D01*
X95762590Y6546382D01*
X95762587Y6546383D01*
X95554218Y6632691D01*
X95336376Y6691062D01*
X95112772Y6720500D01*
X95112768Y6720500D01*
X94887232Y6720500D01*
X94887227Y6720500D01*
X94663623Y6691062D01*
X94663622Y6691062D01*
X94445781Y6632691D01*
X94237412Y6546383D01*
X94237409Y6546382D01*
X94042092Y6433615D01*
X93863166Y6296321D01*
X93863156Y6296312D01*
X93703688Y6136844D01*
X93703679Y6136834D01*
X93566385Y5957908D01*
X93453618Y5762591D01*
X93453617Y5762588D01*
X93367309Y5554219D01*
X93308938Y5336378D01*
X93308938Y5336377D01*
X93279500Y5112773D01*
X86667641Y5112773D01*
X86756661Y5181081D01*
X86918919Y5343339D01*
X87058611Y5525388D01*
X87173344Y5724112D01*
X87261158Y5936113D01*
X87320548Y6157762D01*
X87350500Y6385266D01*
X87350500Y6614734D01*
X87320548Y6842238D01*
X87319600Y6845775D01*
X87262313Y7059577D01*
X87261158Y7063887D01*
X87173344Y7275888D01*
X87058611Y7474612D01*
X86918919Y7656661D01*
X86756661Y7818919D01*
X86574612Y7958611D01*
X86558316Y7968020D01*
X86375894Y8073341D01*
X86375882Y8073347D01*
X86266763Y8118546D01*
X86163887Y8161158D01*
X86163883Y8161159D01*
X86163881Y8161160D01*
X86163882Y8161160D01*
X85942241Y8220548D01*
X85714738Y8250500D01*
X85714734Y8250500D01*
X85485266Y8250500D01*
X85485261Y8250500D01*
X85257759Y8220548D01*
X85257757Y8220548D01*
X85036118Y8161160D01*
X84824117Y8073347D01*
X84824105Y8073341D01*
X84625394Y7958615D01*
X84625391Y7958613D01*
X84625388Y7958611D01*
X84528823Y7884514D01*
X84443337Y7818918D01*
X84281082Y7656663D01*
X84215486Y7571177D01*
X84141389Y7474612D01*
X84141387Y7474609D01*
X84141385Y7474606D01*
X84026659Y7275895D01*
X84026653Y7275883D01*
X83938840Y7063882D01*
X83879452Y6842243D01*
X83879452Y6842241D01*
X83849500Y6614739D01*
X80150499Y6614739D01*
X80120548Y6842238D01*
X80119600Y6845775D01*
X80062313Y7059577D01*
X80061158Y7063887D01*
X79973344Y7275888D01*
X79858611Y7474612D01*
X79718919Y7656661D01*
X79556661Y7818919D01*
X79374612Y7958611D01*
X79358316Y7968020D01*
X79175894Y8073341D01*
X79175882Y8073347D01*
X79066763Y8118546D01*
X78963887Y8161158D01*
X78963883Y8161159D01*
X78963881Y8161160D01*
X78963882Y8161160D01*
X78742241Y8220548D01*
X78514738Y8250500D01*
X78514734Y8250500D01*
X78285266Y8250500D01*
X78285261Y8250500D01*
X78057759Y8220548D01*
X78057757Y8220548D01*
X77836118Y8161160D01*
X77624117Y8073347D01*
X77624105Y8073341D01*
X77425394Y7958615D01*
X77425391Y7958613D01*
X77425388Y7958611D01*
X77328823Y7884514D01*
X77243337Y7818918D01*
X77081082Y7656663D01*
X77015486Y7571177D01*
X76941389Y7474612D01*
X76941387Y7474609D01*
X76941385Y7474606D01*
X76826659Y7275895D01*
X76826653Y7275883D01*
X76738840Y7063882D01*
X76679452Y6842243D01*
X76679452Y6842241D01*
X76649500Y6614739D01*
X72350499Y6614739D01*
X72320548Y6842238D01*
X72319600Y6845775D01*
X72262313Y7059577D01*
X72261158Y7063887D01*
X72173344Y7275888D01*
X72058611Y7474612D01*
X71918919Y7656661D01*
X71756661Y7818919D01*
X71574612Y7958611D01*
X71558316Y7968020D01*
X71375894Y8073341D01*
X71375882Y8073347D01*
X71266763Y8118546D01*
X71163887Y8161158D01*
X71163883Y8161159D01*
X71163881Y8161160D01*
X71163882Y8161160D01*
X70942241Y8220548D01*
X70714738Y8250500D01*
X70714734Y8250500D01*
X70485266Y8250500D01*
X70485261Y8250500D01*
X70257759Y8220548D01*
X70257757Y8220548D01*
X70036118Y8161160D01*
X69824117Y8073347D01*
X69824105Y8073341D01*
X69625394Y7958615D01*
X69625391Y7958613D01*
X69625388Y7958611D01*
X69528823Y7884514D01*
X69443337Y7818918D01*
X69281082Y7656663D01*
X69215486Y7571177D01*
X69141389Y7474612D01*
X69141387Y7474609D01*
X69141385Y7474606D01*
X69026659Y7275895D01*
X69026653Y7275883D01*
X68938840Y7063882D01*
X68879452Y6842243D01*
X68879452Y6842241D01*
X68849500Y6614739D01*
X65150499Y6614739D01*
X65120548Y6842238D01*
X65119600Y6845775D01*
X65062313Y7059577D01*
X65061158Y7063887D01*
X64973344Y7275888D01*
X64858611Y7474612D01*
X64718919Y7656661D01*
X64556661Y7818919D01*
X64374612Y7958611D01*
X64358316Y7968020D01*
X64175894Y8073341D01*
X64175882Y8073347D01*
X64066763Y8118546D01*
X63963887Y8161158D01*
X63963883Y8161159D01*
X63963881Y8161160D01*
X63963882Y8161160D01*
X63742241Y8220548D01*
X63514738Y8250500D01*
X63514734Y8250500D01*
X63285266Y8250500D01*
X63285261Y8250500D01*
X63057759Y8220548D01*
X63057757Y8220548D01*
X62836118Y8161160D01*
X62624117Y8073347D01*
X62624105Y8073341D01*
X62425394Y7958615D01*
X62425391Y7958613D01*
X62425388Y7958611D01*
X62328823Y7884514D01*
X62243337Y7818918D01*
X62081082Y7656663D01*
X62015486Y7571177D01*
X61941389Y7474612D01*
X61941387Y7474609D01*
X61941385Y7474606D01*
X61826659Y7275895D01*
X61826653Y7275883D01*
X61738840Y7063882D01*
X61679452Y6842243D01*
X61679452Y6842241D01*
X61649500Y6614739D01*
X56507069Y6614739D01*
X56469114Y6671542D01*
X56371542Y6769114D01*
X56371541Y6769115D01*
X56256813Y6845774D01*
X56256811Y6845775D01*
X56129326Y6898581D01*
X55993993Y6925500D01*
X55856007Y6925500D01*
X55720673Y6898581D01*
X55720672Y6898581D01*
X55593188Y6845775D01*
X55593186Y6845774D01*
X55478458Y6769115D01*
X55380885Y6671542D01*
X55304226Y6556814D01*
X55304225Y6556812D01*
X55251419Y6429328D01*
X55251419Y6429327D01*
X55224500Y6293994D01*
X51775500Y6293994D01*
X51748580Y6429328D01*
X51695775Y6556811D01*
X51619114Y6671542D01*
X51521542Y6769114D01*
X51521541Y6769115D01*
X51406813Y6845774D01*
X51406811Y6845775D01*
X51279326Y6898581D01*
X51143993Y6925500D01*
X51006007Y6925500D01*
X50870673Y6898581D01*
X50870672Y6898581D01*
X50743188Y6845775D01*
X50743186Y6845774D01*
X50628458Y6769115D01*
X50530885Y6671542D01*
X50454226Y6556814D01*
X50454225Y6556812D01*
X50401419Y6429328D01*
X50401419Y6429327D01*
X50374500Y6293994D01*
X33928984Y6293994D01*
X33963000Y6420943D01*
X33963000Y6579057D01*
X33938219Y6671542D01*
X33922078Y6731781D01*
X33922077Y6731784D01*
X33907643Y6756784D01*
X33843020Y6868716D01*
X33731216Y6980520D01*
X33634964Y7036091D01*
X33594283Y7059578D01*
X33594280Y7059579D01*
X33441563Y7100499D01*
X33441558Y7100500D01*
X33441557Y7100500D01*
X33283443Y7100500D01*
X33283442Y7100500D01*
X33283436Y7100499D01*
X33130719Y7059579D01*
X33130716Y7059578D01*
X33037086Y7005520D01*
X32993784Y6980520D01*
X32993783Y6980519D01*
X32993779Y6980516D01*
X32881984Y6868721D01*
X32881981Y6868717D01*
X32802922Y6731784D01*
X32802921Y6731781D01*
X32762001Y6579064D01*
X32762000Y6579056D01*
X29127581Y6579056D01*
X31617517Y9068994D01*
X52799500Y9068994D01*
X52799500Y8931007D01*
X52826419Y8795674D01*
X52826419Y8795673D01*
X52879225Y8668189D01*
X52955886Y8553458D01*
X53053458Y8455886D01*
X53168189Y8379225D01*
X53295672Y8326420D01*
X53431007Y8299500D01*
X53568993Y8299500D01*
X53704328Y8326420D01*
X53831811Y8379225D01*
X53946542Y8455886D01*
X54044114Y8553458D01*
X54120775Y8668189D01*
X54173580Y8795672D01*
X54200500Y8931007D01*
X54200500Y9068993D01*
X54173580Y9204328D01*
X54120775Y9331811D01*
X54044114Y9446542D01*
X53946542Y9544114D01*
X53946541Y9544115D01*
X53831813Y9620774D01*
X53831811Y9620775D01*
X53704326Y9673581D01*
X53568993Y9700500D01*
X53431007Y9700500D01*
X53295673Y9673581D01*
X53295672Y9673581D01*
X53168188Y9620775D01*
X53168186Y9620774D01*
X53053458Y9544115D01*
X52955885Y9446542D01*
X52879226Y9331814D01*
X52879225Y9331812D01*
X52826419Y9204328D01*
X52826419Y9204327D01*
X52799500Y9068994D01*
X31617517Y9068994D01*
X33960424Y11411902D01*
X33973660Y11422000D01*
X33982318Y11426936D01*
X34376245Y11760768D01*
X34376247Y11760771D01*
X34377554Y11761878D01*
X34386710Y11768323D01*
X34388716Y11769480D01*
X34463230Y11843994D01*
X50374500Y11843994D01*
X50374500Y11706007D01*
X50401419Y11570674D01*
X50401419Y11570673D01*
X50454225Y11443189D01*
X50454226Y11443187D01*
X50530885Y11328459D01*
X50628458Y11230886D01*
X50737901Y11157758D01*
X50743189Y11154225D01*
X50870672Y11101420D01*
X51006007Y11074500D01*
X51143993Y11074500D01*
X51279328Y11101420D01*
X51406811Y11154225D01*
X51521542Y11230886D01*
X51619114Y11328458D01*
X51695775Y11443189D01*
X51748580Y11570672D01*
X51775500Y11706007D01*
X51775500Y11843993D01*
X51775500Y11843994D01*
X55224500Y11843994D01*
X55224500Y11706007D01*
X55251419Y11570674D01*
X55251419Y11570673D01*
X55304225Y11443189D01*
X55304226Y11443187D01*
X55380885Y11328459D01*
X55478458Y11230886D01*
X55587901Y11157758D01*
X55593189Y11154225D01*
X55720672Y11101420D01*
X55856007Y11074500D01*
X55993993Y11074500D01*
X56129328Y11101420D01*
X56256811Y11154225D01*
X56371542Y11230886D01*
X56469114Y11328458D01*
X56545775Y11443189D01*
X56598580Y11570672D01*
X56607346Y11614739D01*
X61649500Y11614739D01*
X61649500Y11385262D01*
X61679452Y11157760D01*
X61679452Y11157758D01*
X61738840Y10936119D01*
X61826653Y10724118D01*
X61826656Y10724112D01*
X61941389Y10525388D01*
X62081081Y10343339D01*
X62243339Y10181081D01*
X62425388Y10041389D01*
X62624112Y9926656D01*
X62836113Y9838842D01*
X63057762Y9779452D01*
X63285266Y9749500D01*
X63285272Y9749500D01*
X63514728Y9749500D01*
X63514734Y9749500D01*
X63742238Y9779452D01*
X63963887Y9838842D01*
X64175888Y9926656D01*
X64374612Y10041389D01*
X64556661Y10181081D01*
X64718919Y10343339D01*
X64858611Y10525388D01*
X64973344Y10724112D01*
X65061158Y10936113D01*
X65120548Y11157762D01*
X65150500Y11385266D01*
X65150500Y11614734D01*
X65150499Y11614739D01*
X68849500Y11614739D01*
X68849500Y11385262D01*
X68879452Y11157760D01*
X68879452Y11157758D01*
X68938840Y10936119D01*
X69026653Y10724118D01*
X69026656Y10724112D01*
X69141389Y10525388D01*
X69281081Y10343339D01*
X69443339Y10181081D01*
X69625388Y10041389D01*
X69824112Y9926656D01*
X70036113Y9838842D01*
X70257762Y9779452D01*
X70485266Y9749500D01*
X70485272Y9749500D01*
X70714728Y9749500D01*
X70714734Y9749500D01*
X70942238Y9779452D01*
X71163887Y9838842D01*
X71375888Y9926656D01*
X71574612Y10041389D01*
X71756661Y10181081D01*
X71918919Y10343339D01*
X72058611Y10525388D01*
X72173344Y10724112D01*
X72261158Y10936113D01*
X72320548Y11157762D01*
X72350500Y11385266D01*
X72350500Y11614734D01*
X72350499Y11614739D01*
X76649500Y11614739D01*
X76649500Y11385262D01*
X76679452Y11157760D01*
X76679452Y11157758D01*
X76738840Y10936119D01*
X76826653Y10724118D01*
X76826656Y10724112D01*
X76941389Y10525388D01*
X77081081Y10343339D01*
X77243339Y10181081D01*
X77425388Y10041389D01*
X77624112Y9926656D01*
X77836113Y9838842D01*
X78057762Y9779452D01*
X78285266Y9749500D01*
X78285272Y9749500D01*
X78514728Y9749500D01*
X78514734Y9749500D01*
X78742238Y9779452D01*
X78963887Y9838842D01*
X79175888Y9926656D01*
X79374612Y10041389D01*
X79556661Y10181081D01*
X79718919Y10343339D01*
X79858611Y10525388D01*
X79973344Y10724112D01*
X80061158Y10936113D01*
X80120548Y11157762D01*
X80150500Y11385266D01*
X80150500Y11614734D01*
X80150499Y11614739D01*
X83849500Y11614739D01*
X83849500Y11385262D01*
X83879452Y11157760D01*
X83879452Y11157758D01*
X83938840Y10936119D01*
X84026653Y10724118D01*
X84026656Y10724112D01*
X84141389Y10525388D01*
X84281081Y10343339D01*
X84443339Y10181081D01*
X84625388Y10041389D01*
X84824112Y9926656D01*
X85036113Y9838842D01*
X85257762Y9779452D01*
X85485266Y9749500D01*
X85485272Y9749500D01*
X85714728Y9749500D01*
X85714734Y9749500D01*
X85942238Y9779452D01*
X86163887Y9838842D01*
X86375888Y9926656D01*
X86574612Y10041389D01*
X86756661Y10181081D01*
X86918919Y10343339D01*
X87058611Y10525388D01*
X87173344Y10724112D01*
X87261158Y10936113D01*
X87320548Y11157762D01*
X87350500Y11385266D01*
X87350500Y11614734D01*
X87320548Y11842238D01*
X87320077Y11843994D01*
X87290853Y11953063D01*
X87261158Y12063887D01*
X87173344Y12275888D01*
X87058611Y12474612D01*
X86918919Y12656661D01*
X86756661Y12818919D01*
X86574612Y12958611D01*
X86558316Y12968020D01*
X86375894Y13073341D01*
X86375882Y13073347D01*
X86266763Y13118546D01*
X86163887Y13161158D01*
X86163883Y13161159D01*
X86163881Y13161160D01*
X86163882Y13161160D01*
X85942241Y13220548D01*
X85714738Y13250500D01*
X85714734Y13250500D01*
X85485266Y13250500D01*
X85485261Y13250500D01*
X85257759Y13220548D01*
X85257757Y13220548D01*
X85036118Y13161160D01*
X84824117Y13073347D01*
X84824105Y13073341D01*
X84625394Y12958615D01*
X84625391Y12958613D01*
X84625388Y12958611D01*
X84576291Y12920937D01*
X84443337Y12818918D01*
X84281082Y12656663D01*
X84261608Y12631284D01*
X84141389Y12474612D01*
X84141387Y12474609D01*
X84141385Y12474606D01*
X84026659Y12275895D01*
X84026653Y12275883D01*
X83938840Y12063882D01*
X83879452Y11842243D01*
X83879452Y11842241D01*
X83849500Y11614739D01*
X80150499Y11614739D01*
X80120548Y11842238D01*
X80120077Y11843994D01*
X80090853Y11953063D01*
X80061158Y12063887D01*
X79973344Y12275888D01*
X79858611Y12474612D01*
X79718919Y12656661D01*
X79556661Y12818919D01*
X79374612Y12958611D01*
X79358316Y12968020D01*
X79175894Y13073341D01*
X79175882Y13073347D01*
X79066763Y13118546D01*
X78963887Y13161158D01*
X78963883Y13161159D01*
X78963881Y13161160D01*
X78963882Y13161160D01*
X78742241Y13220548D01*
X78514738Y13250500D01*
X78514734Y13250500D01*
X78285266Y13250500D01*
X78285261Y13250500D01*
X78057759Y13220548D01*
X78057757Y13220548D01*
X77836118Y13161160D01*
X77624117Y13073347D01*
X77624105Y13073341D01*
X77425394Y12958615D01*
X77425391Y12958613D01*
X77425388Y12958611D01*
X77376291Y12920937D01*
X77243337Y12818918D01*
X77081082Y12656663D01*
X77061608Y12631284D01*
X76941389Y12474612D01*
X76941387Y12474609D01*
X76941385Y12474606D01*
X76826659Y12275895D01*
X76826653Y12275883D01*
X76738840Y12063882D01*
X76679452Y11842243D01*
X76679452Y11842241D01*
X76649500Y11614739D01*
X72350499Y11614739D01*
X72320548Y11842238D01*
X72320077Y11843994D01*
X72290853Y11953063D01*
X72261158Y12063887D01*
X72173344Y12275888D01*
X72058611Y12474612D01*
X71918919Y12656661D01*
X71756661Y12818919D01*
X71574612Y12958611D01*
X71558316Y12968020D01*
X71375894Y13073341D01*
X71375882Y13073347D01*
X71266763Y13118546D01*
X71163887Y13161158D01*
X71163883Y13161159D01*
X71163881Y13161160D01*
X71163882Y13161160D01*
X70942241Y13220548D01*
X70714738Y13250500D01*
X70714734Y13250500D01*
X70485266Y13250500D01*
X70485261Y13250500D01*
X70257759Y13220548D01*
X70257757Y13220548D01*
X70036118Y13161160D01*
X69824117Y13073347D01*
X69824105Y13073341D01*
X69625394Y12958615D01*
X69625391Y12958613D01*
X69625388Y12958611D01*
X69576291Y12920937D01*
X69443337Y12818918D01*
X69281082Y12656663D01*
X69261608Y12631284D01*
X69141389Y12474612D01*
X69141387Y12474609D01*
X69141385Y12474606D01*
X69026659Y12275895D01*
X69026653Y12275883D01*
X68938840Y12063882D01*
X68879452Y11842243D01*
X68879452Y11842241D01*
X68849500Y11614739D01*
X65150499Y11614739D01*
X65120548Y11842238D01*
X65120077Y11843994D01*
X65090853Y11953063D01*
X65061158Y12063887D01*
X64973344Y12275888D01*
X64858611Y12474612D01*
X64718919Y12656661D01*
X64556661Y12818919D01*
X64374612Y12958611D01*
X64358316Y12968020D01*
X64175894Y13073341D01*
X64175882Y13073347D01*
X64066763Y13118546D01*
X63963887Y13161158D01*
X63963883Y13161159D01*
X63963881Y13161160D01*
X63963882Y13161160D01*
X63742241Y13220548D01*
X63514738Y13250500D01*
X63514734Y13250500D01*
X63285266Y13250500D01*
X63285261Y13250500D01*
X63057759Y13220548D01*
X63057757Y13220548D01*
X62836118Y13161160D01*
X62624117Y13073347D01*
X62624105Y13073341D01*
X62425394Y12958615D01*
X62425391Y12958613D01*
X62425388Y12958611D01*
X62376291Y12920937D01*
X62243337Y12818918D01*
X62081082Y12656663D01*
X62061608Y12631284D01*
X61941389Y12474612D01*
X61941387Y12474609D01*
X61941385Y12474606D01*
X61826659Y12275895D01*
X61826653Y12275883D01*
X61738840Y12063882D01*
X61679452Y11842243D01*
X61679452Y11842241D01*
X61649500Y11614739D01*
X56607346Y11614739D01*
X56625500Y11706007D01*
X56625500Y11843993D01*
X56598580Y11979328D01*
X56545775Y12106811D01*
X56469114Y12221542D01*
X56371542Y12319114D01*
X56356663Y12329056D01*
X56256813Y12395774D01*
X56256811Y12395775D01*
X56129326Y12448581D01*
X55993993Y12475500D01*
X55856007Y12475500D01*
X55720673Y12448581D01*
X55720672Y12448581D01*
X55593188Y12395775D01*
X55593186Y12395774D01*
X55478458Y12319115D01*
X55380885Y12221542D01*
X55304226Y12106814D01*
X55304225Y12106812D01*
X55251419Y11979328D01*
X55251419Y11979327D01*
X55224500Y11843994D01*
X51775500Y11843994D01*
X51748580Y11979328D01*
X51695775Y12106811D01*
X51619114Y12221542D01*
X51521542Y12319114D01*
X51506663Y12329056D01*
X51406813Y12395774D01*
X51406811Y12395775D01*
X51279326Y12448581D01*
X51143993Y12475500D01*
X51006007Y12475500D01*
X50870673Y12448581D01*
X50870672Y12448581D01*
X50743188Y12395775D01*
X50743186Y12395774D01*
X50628458Y12319115D01*
X50530885Y12221542D01*
X50454226Y12106814D01*
X50454225Y12106812D01*
X50401419Y11979328D01*
X50401419Y11979327D01*
X50374500Y11843994D01*
X34463230Y11843994D01*
X34500520Y11881284D01*
X34579577Y12018216D01*
X34620500Y12170943D01*
X34620500Y12329057D01*
X34619902Y12331286D01*
X34617984Y12342320D01*
X34617842Y12344033D01*
X34617843Y12344036D01*
X34575351Y12858639D01*
X34572570Y12869170D01*
X34570500Y12885124D01*
X34570500Y19653864D01*
X35050500Y19653864D01*
X35050500Y18346137D01*
X35053415Y18321011D01*
X35053415Y18321009D01*
X35098794Y18218235D01*
X35178235Y18138794D01*
X35281009Y18093415D01*
X35306135Y18090500D01*
X36613864Y18090501D01*
X36638991Y18093415D01*
X36741765Y18138794D01*
X36821206Y18218235D01*
X36866585Y18321009D01*
X36869500Y18346135D01*
X36869499Y19089579D01*
X37590500Y19089579D01*
X37590500Y18910422D01*
X37625451Y18734709D01*
X37625453Y18734701D01*
X37694011Y18569190D01*
X37793545Y18420227D01*
X37920227Y18293545D01*
X38069190Y18194011D01*
X38142991Y18163442D01*
X38234700Y18125454D01*
X38234704Y18125453D01*
X38234709Y18125451D01*
X38410422Y18090500D01*
X38589578Y18090500D01*
X38765291Y18125451D01*
X38765297Y18125454D01*
X38765299Y18125454D01*
X38804821Y18141825D01*
X38930810Y18194011D01*
X39079773Y18293545D01*
X39206455Y18420227D01*
X39305989Y18569190D01*
X39374549Y18734709D01*
X39409500Y18910422D01*
X39409500Y19089578D01*
X39374549Y19265291D01*
X39374547Y19265296D01*
X39374546Y19265300D01*
X39336558Y19357009D01*
X39305989Y19430810D01*
X39206455Y19579773D01*
X39132364Y19653864D01*
X47550500Y19653864D01*
X47550500Y18346137D01*
X47553415Y18321011D01*
X47553415Y18321009D01*
X47598794Y18218235D01*
X47678235Y18138794D01*
X47781009Y18093415D01*
X47806135Y18090500D01*
X49113864Y18090501D01*
X49138991Y18093415D01*
X49241765Y18138794D01*
X49321206Y18218235D01*
X49366585Y18321009D01*
X49369500Y18346135D01*
X49369499Y19089579D01*
X50090500Y19089579D01*
X50090500Y18910422D01*
X50125451Y18734709D01*
X50125453Y18734701D01*
X50194011Y18569190D01*
X50293545Y18420227D01*
X50420227Y18293545D01*
X50569190Y18194011D01*
X50642991Y18163442D01*
X50734700Y18125454D01*
X50734704Y18125453D01*
X50734709Y18125451D01*
X50910422Y18090500D01*
X51089578Y18090500D01*
X51265291Y18125451D01*
X51265297Y18125454D01*
X51265299Y18125454D01*
X51304821Y18141825D01*
X51430810Y18194011D01*
X51579773Y18293545D01*
X51706455Y18420227D01*
X51805989Y18569190D01*
X51874549Y18734709D01*
X51909500Y18910422D01*
X51909500Y19089578D01*
X51874549Y19265291D01*
X51874547Y19265296D01*
X51874546Y19265300D01*
X51836558Y19357009D01*
X51805989Y19430810D01*
X51706455Y19579773D01*
X51579773Y19706455D01*
X51467061Y19781767D01*
X51430812Y19805988D01*
X51430810Y19805989D01*
X51265299Y19874547D01*
X51265291Y19874549D01*
X51089578Y19909500D01*
X50910422Y19909500D01*
X50734708Y19874549D01*
X50734700Y19874547D01*
X50569189Y19805989D01*
X50569187Y19805988D01*
X50420227Y19706456D01*
X50293544Y19579773D01*
X50194012Y19430813D01*
X50194011Y19430811D01*
X50125453Y19265300D01*
X50125451Y19265292D01*
X50090500Y19089579D01*
X49369499Y19089579D01*
X49369499Y19653864D01*
X49366585Y19678991D01*
X49321206Y19781765D01*
X49241765Y19861206D01*
X49138991Y19906585D01*
X49113865Y19909500D01*
X49113863Y19909500D01*
X47806136Y19909500D01*
X47781007Y19906585D01*
X47678233Y19861205D01*
X47598795Y19781767D01*
X47598794Y19781766D01*
X47598794Y19781765D01*
X47565542Y19706455D01*
X47553415Y19678990D01*
X47550500Y19653864D01*
X39132364Y19653864D01*
X39079773Y19706455D01*
X38967061Y19781767D01*
X38930812Y19805988D01*
X38930810Y19805989D01*
X38765299Y19874547D01*
X38765291Y19874549D01*
X38589578Y19909500D01*
X38410422Y19909500D01*
X38234708Y19874549D01*
X38234700Y19874547D01*
X38069189Y19805989D01*
X38069187Y19805988D01*
X37920227Y19706456D01*
X37793544Y19579773D01*
X37694012Y19430813D01*
X37694011Y19430811D01*
X37625453Y19265300D01*
X37625451Y19265292D01*
X37590500Y19089579D01*
X36869499Y19089579D01*
X36869499Y19653864D01*
X36866585Y19678991D01*
X36821206Y19781765D01*
X36741765Y19861206D01*
X36638991Y19906585D01*
X36613865Y19909500D01*
X36613863Y19909500D01*
X35306136Y19909500D01*
X35281007Y19906585D01*
X35178233Y19861205D01*
X35098795Y19781767D01*
X35098794Y19781766D01*
X35098794Y19781765D01*
X35065542Y19706455D01*
X35053415Y19678990D01*
X35050500Y19653864D01*
X34570500Y19653864D01*
X34570500Y25079056D01*
X61399500Y25079056D01*
X61399500Y24920945D01*
X61399501Y24920937D01*
X61440421Y24768220D01*
X61440422Y24768217D01*
X61440423Y24768216D01*
X61519480Y24631284D01*
X61631284Y24519480D01*
X61768216Y24440423D01*
X61768219Y24440422D01*
X61861681Y24415379D01*
X61920943Y24399500D01*
X61920944Y24399500D01*
X62079056Y24399500D01*
X62079057Y24399500D01*
X62231784Y24440423D01*
X62368716Y24519480D01*
X62480520Y24631284D01*
X62559577Y24768216D01*
X62600500Y24920943D01*
X62600500Y25079057D01*
X62559577Y25231784D01*
X62552025Y25244864D01*
X72477280Y25244864D01*
X72477280Y22755137D01*
X72480136Y22730520D01*
X72480195Y22730009D01*
X72525574Y22627235D01*
X72605015Y22547794D01*
X72707789Y22502415D01*
X72732915Y22499500D01*
X75222644Y22499501D01*
X75247771Y22502415D01*
X75350545Y22547794D01*
X75429986Y22627235D01*
X75475365Y22730009D01*
X75478280Y22755135D01*
X75478279Y25244864D01*
X92477280Y25244864D01*
X92477280Y22755137D01*
X92480136Y22730520D01*
X92480195Y22730009D01*
X92525574Y22627235D01*
X92605015Y22547794D01*
X92707789Y22502415D01*
X92732915Y22499500D01*
X95222644Y22499501D01*
X95247771Y22502415D01*
X95350545Y22547794D01*
X95429986Y22627235D01*
X95475365Y22730009D01*
X95478280Y22755135D01*
X95478279Y25244864D01*
X95475365Y25269991D01*
X95429986Y25372765D01*
X95350545Y25452206D01*
X95247771Y25497585D01*
X95222645Y25500500D01*
X95222643Y25500500D01*
X92732916Y25500500D01*
X92707787Y25497585D01*
X92605013Y25452205D01*
X92525575Y25372767D01*
X92525574Y25372766D01*
X92525574Y25372765D01*
X92523789Y25368721D01*
X92480195Y25269990D01*
X92477280Y25244864D01*
X75478279Y25244864D01*
X75475365Y25269991D01*
X75429986Y25372765D01*
X75350545Y25452206D01*
X75247771Y25497585D01*
X75222645Y25500500D01*
X75222643Y25500500D01*
X72732916Y25500500D01*
X72707787Y25497585D01*
X72605013Y25452205D01*
X72525575Y25372767D01*
X72525574Y25372766D01*
X72525574Y25372765D01*
X72523789Y25368721D01*
X72480195Y25269990D01*
X72477280Y25244864D01*
X62552025Y25244864D01*
X62480520Y25368716D01*
X62368716Y25480520D01*
X62272464Y25536091D01*
X62231783Y25559578D01*
X62231780Y25559579D01*
X62079063Y25600499D01*
X62079058Y25600500D01*
X62079057Y25600500D01*
X61920943Y25600500D01*
X61920942Y25600500D01*
X61920936Y25600499D01*
X61768219Y25559579D01*
X61768216Y25559578D01*
X61671964Y25504007D01*
X61631284Y25480520D01*
X61631283Y25480519D01*
X61631279Y25480516D01*
X61519484Y25368721D01*
X61519481Y25368717D01*
X61440422Y25231784D01*
X61440421Y25231781D01*
X61399501Y25079064D01*
X61399500Y25079056D01*
X34570500Y25079056D01*
X34570500Y30079056D01*
X50399500Y30079056D01*
X50399500Y29920945D01*
X50399501Y29920937D01*
X50440421Y29768220D01*
X50440422Y29768217D01*
X50440423Y29768216D01*
X50519480Y29631284D01*
X50631284Y29519480D01*
X50768216Y29440423D01*
X50768219Y29440422D01*
X50861681Y29415379D01*
X50920943Y29399500D01*
X50920944Y29399500D01*
X51079056Y29399500D01*
X51079057Y29399500D01*
X51231784Y29440423D01*
X51368716Y29519480D01*
X51480520Y29631284D01*
X51559577Y29768216D01*
X51600500Y29920943D01*
X51600500Y30079057D01*
X51559577Y30231784D01*
X51480520Y30368716D01*
X51368716Y30480520D01*
X51272464Y30536091D01*
X51231783Y30559578D01*
X51231780Y30559579D01*
X51079063Y30600499D01*
X51079058Y30600500D01*
X51079057Y30600500D01*
X50920943Y30600500D01*
X50920942Y30600500D01*
X50920936Y30600499D01*
X50768219Y30559579D01*
X50768216Y30559578D01*
X50671964Y30504007D01*
X50631284Y30480520D01*
X50631283Y30480519D01*
X50631279Y30480516D01*
X50519484Y30368721D01*
X50519481Y30368717D01*
X50440422Y30231784D01*
X50440421Y30231781D01*
X50399501Y30079064D01*
X50399500Y30079056D01*
X34570500Y30079056D01*
X34570500Y35079056D01*
X46399500Y35079056D01*
X46399500Y34920945D01*
X46399501Y34920937D01*
X46440421Y34768220D01*
X46440422Y34768217D01*
X46440423Y34768216D01*
X46519480Y34631284D01*
X46631284Y34519480D01*
X46768216Y34440423D01*
X46768219Y34440422D01*
X46861681Y34415379D01*
X46920943Y34399500D01*
X46920944Y34399500D01*
X47079056Y34399500D01*
X47079057Y34399500D01*
X47231784Y34440423D01*
X47368716Y34519480D01*
X47480520Y34631284D01*
X47559577Y34768216D01*
X47600500Y34920943D01*
X47600500Y35079057D01*
X47559577Y35231784D01*
X47480520Y35368716D01*
X47368716Y35480520D01*
X47262426Y35541886D01*
X47231783Y35559578D01*
X47231780Y35559579D01*
X47196642Y35568994D01*
X95799500Y35568994D01*
X95799500Y35431007D01*
X95826419Y35295674D01*
X95826419Y35295673D01*
X95879225Y35168189D01*
X95879226Y35168187D01*
X95938781Y35079057D01*
X95955886Y35053458D01*
X96053458Y34955886D01*
X96168189Y34879225D01*
X96295672Y34826420D01*
X96431007Y34799500D01*
X96568993Y34799500D01*
X96704328Y34826420D01*
X96831811Y34879225D01*
X96946542Y34955886D01*
X97044114Y35053458D01*
X97120775Y35168189D01*
X97173580Y35295672D01*
X97200500Y35431007D01*
X97200500Y35568993D01*
X97200500Y35568994D01*
X97799500Y35568994D01*
X97799500Y35431007D01*
X97826419Y35295674D01*
X97826419Y35295673D01*
X97879225Y35168189D01*
X97879226Y35168187D01*
X97938781Y35079057D01*
X97955886Y35053458D01*
X98053458Y34955886D01*
X98168189Y34879225D01*
X98295672Y34826420D01*
X98431007Y34799500D01*
X98568993Y34799500D01*
X98704328Y34826420D01*
X98831811Y34879225D01*
X98946542Y34955886D01*
X99044114Y35053458D01*
X99120775Y35168189D01*
X99173580Y35295672D01*
X99200500Y35431007D01*
X99200500Y35568993D01*
X99173580Y35704328D01*
X99120775Y35831811D01*
X99044114Y35946542D01*
X98946542Y36044114D01*
X98946541Y36044115D01*
X98831813Y36120774D01*
X98831811Y36120775D01*
X98704326Y36173581D01*
X98568993Y36200500D01*
X98431007Y36200500D01*
X98295673Y36173581D01*
X98295672Y36173581D01*
X98168188Y36120775D01*
X98168186Y36120774D01*
X98053458Y36044115D01*
X97955885Y35946542D01*
X97879226Y35831814D01*
X97879225Y35831812D01*
X97826419Y35704328D01*
X97826419Y35704327D01*
X97799500Y35568994D01*
X97200500Y35568994D01*
X97173580Y35704328D01*
X97120775Y35831811D01*
X97044114Y35946542D01*
X96946542Y36044114D01*
X96946541Y36044115D01*
X96831813Y36120774D01*
X96831811Y36120775D01*
X96704326Y36173581D01*
X96568993Y36200500D01*
X96431007Y36200500D01*
X96295673Y36173581D01*
X96295672Y36173581D01*
X96168188Y36120775D01*
X96168186Y36120774D01*
X96053458Y36044115D01*
X95955885Y35946542D01*
X95879226Y35831814D01*
X95879225Y35831812D01*
X95826419Y35704328D01*
X95826419Y35704327D01*
X95799500Y35568994D01*
X47196642Y35568994D01*
X47079063Y35600499D01*
X47079058Y35600500D01*
X47079057Y35600500D01*
X46920943Y35600500D01*
X46920942Y35600500D01*
X46920936Y35600499D01*
X46768219Y35559579D01*
X46768216Y35559578D01*
X46696091Y35517936D01*
X46631284Y35480520D01*
X46631283Y35480519D01*
X46631279Y35480516D01*
X46519484Y35368721D01*
X46519481Y35368717D01*
X46440422Y35231784D01*
X46440421Y35231781D01*
X46399501Y35079064D01*
X46399500Y35079056D01*
X34570500Y35079056D01*
X34570500Y37578092D01*
X92999500Y37578092D01*
X92999500Y37341908D01*
X93027014Y37168187D01*
X93036448Y37108628D01*
X93109431Y36884010D01*
X93109435Y36884002D01*
X93216658Y36673565D01*
X93355482Y36482491D01*
X93355489Y36482483D01*
X93522482Y36315490D01*
X93522490Y36315483D01*
X93713567Y36176657D01*
X93924008Y36069432D01*
X94148632Y35996447D01*
X94381908Y35959500D01*
X94381910Y35959500D01*
X94618090Y35959500D01*
X94618092Y35959500D01*
X94851368Y35996447D01*
X95075992Y36069432D01*
X95286433Y36176657D01*
X95477510Y36315483D01*
X95644517Y36482490D01*
X95783343Y36673567D01*
X95890568Y36884008D01*
X95963553Y37108632D01*
X96000500Y37341908D01*
X96000500Y37568994D01*
X97799500Y37568994D01*
X97799500Y37431007D01*
X97826419Y37295674D01*
X97826419Y37295673D01*
X97879225Y37168189D01*
X97879226Y37168187D01*
X97940829Y37075992D01*
X97955886Y37053458D01*
X98053458Y36955886D01*
X98168189Y36879225D01*
X98295672Y36826420D01*
X98431007Y36799500D01*
X98568993Y36799500D01*
X98704328Y36826420D01*
X98831811Y36879225D01*
X98946542Y36955886D01*
X99044114Y37053458D01*
X99120775Y37168189D01*
X99173580Y37295672D01*
X99200500Y37431007D01*
X99200500Y37568993D01*
X99173580Y37704328D01*
X99120775Y37831811D01*
X99044114Y37946542D01*
X98946542Y38044114D01*
X98946541Y38044115D01*
X98831813Y38120774D01*
X98831811Y38120775D01*
X98704326Y38173581D01*
X98568993Y38200500D01*
X98431007Y38200500D01*
X98295673Y38173581D01*
X98295672Y38173581D01*
X98168188Y38120775D01*
X98168186Y38120774D01*
X98053458Y38044115D01*
X97955885Y37946542D01*
X97879226Y37831814D01*
X97879225Y37831812D01*
X97826419Y37704328D01*
X97826419Y37704327D01*
X97799500Y37568994D01*
X96000500Y37568994D01*
X96000500Y37578092D01*
X95963553Y37811368D01*
X95890568Y38035992D01*
X95783343Y38246433D01*
X95644517Y38437510D01*
X95644510Y38437518D01*
X95477517Y38604511D01*
X95477509Y38604518D01*
X95286435Y38743342D01*
X95075998Y38850565D01*
X95075990Y38850569D01*
X94851372Y38923552D01*
X94851370Y38923553D01*
X94851368Y38923553D01*
X94688489Y38949351D01*
X94618093Y38960500D01*
X94618092Y38960500D01*
X94381908Y38960500D01*
X94381906Y38960500D01*
X94241113Y38938201D01*
X94148632Y38923553D01*
X94148630Y38923553D01*
X94148627Y38923552D01*
X93924009Y38850569D01*
X93924001Y38850565D01*
X93713564Y38743342D01*
X93522490Y38604518D01*
X93522482Y38604511D01*
X93355489Y38437518D01*
X93355482Y38437510D01*
X93216658Y38246436D01*
X93109435Y38035999D01*
X93109431Y38035991D01*
X93036448Y37811373D01*
X93010020Y37644511D01*
X92999500Y37578092D01*
X34570500Y37578092D01*
X34570500Y40079056D01*
X40399500Y40079056D01*
X40399500Y39920945D01*
X40399501Y39920937D01*
X40440421Y39768220D01*
X40440422Y39768217D01*
X40440423Y39768216D01*
X40519480Y39631284D01*
X40631284Y39519480D01*
X40768216Y39440423D01*
X40768219Y39440422D01*
X40861681Y39415379D01*
X40920943Y39399500D01*
X40920944Y39399500D01*
X41079056Y39399500D01*
X41079057Y39399500D01*
X41231784Y39440423D01*
X41368716Y39519480D01*
X41480520Y39631284D01*
X41559577Y39768216D01*
X41600500Y39920943D01*
X41600500Y40079057D01*
X41559577Y40231784D01*
X41480520Y40368716D01*
X41368716Y40480520D01*
X41272464Y40536091D01*
X41231783Y40559578D01*
X41231780Y40559579D01*
X41079063Y40600499D01*
X41079058Y40600500D01*
X41079057Y40600500D01*
X40920943Y40600500D01*
X40920942Y40600500D01*
X40920936Y40600499D01*
X40768219Y40559579D01*
X40768216Y40559578D01*
X40671964Y40504007D01*
X40631284Y40480520D01*
X40631283Y40480519D01*
X40631279Y40480516D01*
X40519484Y40368721D01*
X40519481Y40368717D01*
X40440422Y40231784D01*
X40440421Y40231781D01*
X40399501Y40079064D01*
X40399500Y40079056D01*
X34570500Y40079056D01*
X34570500Y41244864D01*
X62477280Y41244864D01*
X62477280Y38755137D01*
X62480195Y38730011D01*
X62480195Y38730009D01*
X62525574Y38627235D01*
X62605015Y38547794D01*
X62707789Y38502415D01*
X62732915Y38499500D01*
X65222644Y38499501D01*
X65247771Y38502415D01*
X65350545Y38547794D01*
X65429986Y38627235D01*
X65475365Y38730009D01*
X65478280Y38755135D01*
X65478279Y41244864D01*
X82477280Y41244864D01*
X82477280Y38755137D01*
X82480195Y38730011D01*
X82480195Y38730009D01*
X82525574Y38627235D01*
X82605015Y38547794D01*
X82707789Y38502415D01*
X82732915Y38499500D01*
X85222644Y38499501D01*
X85247771Y38502415D01*
X85350545Y38547794D01*
X85429986Y38627235D01*
X85475365Y38730009D01*
X85478280Y38755135D01*
X85478279Y41244864D01*
X85475365Y41269991D01*
X85429986Y41372765D01*
X85350545Y41452206D01*
X85247771Y41497585D01*
X85222645Y41500500D01*
X85222643Y41500500D01*
X82732916Y41500500D01*
X82707787Y41497585D01*
X82605013Y41452205D01*
X82525575Y41372767D01*
X82480195Y41269990D01*
X82477280Y41244864D01*
X65478279Y41244864D01*
X65475365Y41269991D01*
X65429986Y41372765D01*
X65350545Y41452206D01*
X65247771Y41497585D01*
X65222645Y41500500D01*
X65222643Y41500500D01*
X62732916Y41500500D01*
X62707787Y41497585D01*
X62605013Y41452205D01*
X62525575Y41372767D01*
X62480195Y41269990D01*
X62477280Y41244864D01*
X34570500Y41244864D01*
X34570500Y43766088D01*
X34588805Y43810281D01*
X35857580Y45079056D01*
X61399500Y45079056D01*
X61399500Y44920945D01*
X61399501Y44920937D01*
X61440421Y44768220D01*
X61440422Y44768217D01*
X61440423Y44768216D01*
X61519480Y44631284D01*
X61631284Y44519480D01*
X61768216Y44440423D01*
X61768219Y44440422D01*
X61861681Y44415379D01*
X61920943Y44399500D01*
X61920944Y44399500D01*
X62079056Y44399500D01*
X62079057Y44399500D01*
X62231784Y44440423D01*
X62368716Y44519480D01*
X62480520Y44631284D01*
X62559577Y44768216D01*
X62600500Y44920943D01*
X62600500Y45079057D01*
X62559577Y45231784D01*
X62480520Y45368716D01*
X62368716Y45480520D01*
X62272464Y45536091D01*
X62231783Y45559578D01*
X62231780Y45559579D01*
X62079063Y45600499D01*
X62079058Y45600500D01*
X62079057Y45600500D01*
X61920943Y45600500D01*
X61920942Y45600500D01*
X61920936Y45600499D01*
X61768219Y45559579D01*
X61768216Y45559578D01*
X61671964Y45504007D01*
X61631284Y45480520D01*
X61631283Y45480519D01*
X61631279Y45480516D01*
X61519484Y45368721D01*
X61519481Y45368717D01*
X61440422Y45231784D01*
X61440421Y45231781D01*
X61399501Y45079064D01*
X61399500Y45079056D01*
X35857580Y45079056D01*
X45285604Y54507081D01*
X45295074Y54514851D01*
X45882164Y54906861D01*
X45887699Y54910645D01*
X45899989Y54923187D01*
X45909891Y54931398D01*
X45946542Y54955886D01*
X46044114Y55053458D01*
X46120775Y55168189D01*
X46173580Y55295672D01*
X46200500Y55431007D01*
X46200500Y55568993D01*
X46191093Y55616283D01*
X46189897Y55627730D01*
X46189643Y55649182D01*
X46189642Y55649189D01*
X46107822Y56059851D01*
X46106000Y56068994D01*
X58837000Y56068994D01*
X58837000Y55931007D01*
X58863919Y55795674D01*
X58863919Y55795673D01*
X58916725Y55668189D01*
X58916726Y55668187D01*
X58993385Y55553459D01*
X58993386Y55553458D01*
X59090958Y55455886D01*
X59205689Y55379225D01*
X59333172Y55326420D01*
X59468507Y55299500D01*
X59606493Y55299500D01*
X59741828Y55326420D01*
X59869311Y55379225D01*
X59984042Y55455886D01*
X60081614Y55553458D01*
X60158275Y55668189D01*
X60211080Y55795672D01*
X60238000Y55931007D01*
X60238000Y56068993D01*
X60238000Y56068994D01*
X61299500Y56068994D01*
X61299500Y55931007D01*
X61326419Y55795674D01*
X61326419Y55795673D01*
X61379225Y55668189D01*
X61379226Y55668187D01*
X61455885Y55553459D01*
X61455886Y55553458D01*
X61553458Y55455886D01*
X61668189Y55379225D01*
X61795672Y55326420D01*
X61931007Y55299500D01*
X62068993Y55299500D01*
X62204328Y55326420D01*
X62331811Y55379225D01*
X62446542Y55455886D01*
X62544114Y55553458D01*
X62620775Y55668189D01*
X62673580Y55795672D01*
X62700500Y55931007D01*
X62700500Y56068993D01*
X62673580Y56204328D01*
X62620775Y56331811D01*
X62544114Y56446542D01*
X62446542Y56544114D01*
X62446541Y56544115D01*
X62331813Y56620774D01*
X62331811Y56620775D01*
X62204326Y56673581D01*
X62068993Y56700500D01*
X61931007Y56700500D01*
X61795673Y56673581D01*
X61795672Y56673581D01*
X61668188Y56620775D01*
X61668186Y56620774D01*
X61553458Y56544115D01*
X61455885Y56446542D01*
X61379226Y56331814D01*
X61379225Y56331812D01*
X61326419Y56204328D01*
X61326419Y56204327D01*
X61299500Y56068994D01*
X60238000Y56068994D01*
X60211080Y56204328D01*
X60158275Y56331811D01*
X60081614Y56446542D01*
X59984042Y56544114D01*
X59984041Y56544115D01*
X59869313Y56620774D01*
X59869311Y56620775D01*
X59741826Y56673581D01*
X59606493Y56700500D01*
X59468507Y56700500D01*
X59333173Y56673581D01*
X59333172Y56673581D01*
X59205688Y56620775D01*
X59205686Y56620774D01*
X59090958Y56544115D01*
X58993385Y56446542D01*
X58916726Y56331814D01*
X58916725Y56331812D01*
X58863919Y56204328D01*
X58863919Y56204327D01*
X58837000Y56068994D01*
X46106000Y56068994D01*
X46051705Y56341503D01*
X46050500Y56353716D01*
X46050500Y57244864D01*
X72477280Y57244864D01*
X72477280Y54755137D01*
X72480195Y54730008D01*
X72500232Y54684629D01*
X72525574Y54627235D01*
X72605015Y54547794D01*
X72707789Y54502415D01*
X72732915Y54499500D01*
X75222644Y54499501D01*
X75247771Y54502415D01*
X75350545Y54547794D01*
X75429986Y54627235D01*
X75475365Y54730009D01*
X75478280Y54755135D01*
X75478279Y57244864D01*
X92477280Y57244864D01*
X92477280Y54755137D01*
X92480195Y54730008D01*
X92500232Y54684629D01*
X92525574Y54627235D01*
X92605015Y54547794D01*
X92707789Y54502415D01*
X92732915Y54499500D01*
X95222644Y54499501D01*
X95247771Y54502415D01*
X95350545Y54547794D01*
X95429986Y54627235D01*
X95475365Y54730009D01*
X95478280Y54755135D01*
X95478279Y57244864D01*
X95475365Y57269991D01*
X95429986Y57372765D01*
X95350545Y57452206D01*
X95247771Y57497585D01*
X95222645Y57500500D01*
X95222643Y57500500D01*
X92732916Y57500500D01*
X92707787Y57497585D01*
X92617029Y57457511D01*
X92613350Y57455886D01*
X92605013Y57452205D01*
X92525575Y57372767D01*
X92525574Y57372766D01*
X92525574Y57372765D01*
X92493225Y57299500D01*
X92480195Y57269990D01*
X92477280Y57244864D01*
X75478279Y57244864D01*
X75475365Y57269991D01*
X75429986Y57372765D01*
X75350545Y57452206D01*
X75247771Y57497585D01*
X75222645Y57500500D01*
X75222643Y57500500D01*
X72732916Y57500500D01*
X72707787Y57497585D01*
X72617029Y57457511D01*
X72613350Y57455886D01*
X72605013Y57452205D01*
X72525575Y57372767D01*
X72525574Y57372766D01*
X72525574Y57372765D01*
X72493225Y57299500D01*
X72480195Y57269990D01*
X72477280Y57244864D01*
X46050500Y57244864D01*
X46050500Y58068994D01*
X58837000Y58068994D01*
X58837000Y57931007D01*
X58863919Y57795674D01*
X58863919Y57795673D01*
X58916725Y57668189D01*
X58993386Y57553458D01*
X59090958Y57455886D01*
X59205689Y57379225D01*
X59333172Y57326420D01*
X59468507Y57299500D01*
X59606493Y57299500D01*
X59741828Y57326420D01*
X59869311Y57379225D01*
X59984042Y57455886D01*
X60081614Y57553458D01*
X60158275Y57668189D01*
X60211080Y57795672D01*
X60238000Y57931007D01*
X60238000Y58068993D01*
X60238000Y58068994D01*
X61299500Y58068994D01*
X61299500Y57931007D01*
X61326419Y57795674D01*
X61326419Y57795673D01*
X61379225Y57668189D01*
X61455886Y57553458D01*
X61553458Y57455886D01*
X61668189Y57379225D01*
X61795672Y57326420D01*
X61931007Y57299500D01*
X62068993Y57299500D01*
X62105915Y57306845D01*
X62111570Y57307969D01*
X62137351Y57313098D01*
X62204328Y57326420D01*
X62331811Y57379225D01*
X62446542Y57455886D01*
X62544114Y57553458D01*
X62620775Y57668189D01*
X62673580Y57795672D01*
X62700500Y57931007D01*
X62700500Y58068993D01*
X62673580Y58204328D01*
X62620775Y58331811D01*
X62544114Y58446542D01*
X62446542Y58544114D01*
X62446541Y58544115D01*
X62331813Y58620774D01*
X62331811Y58620775D01*
X62204326Y58673581D01*
X62068993Y58700500D01*
X61931007Y58700500D01*
X61795673Y58673581D01*
X61795672Y58673581D01*
X61668188Y58620775D01*
X61668186Y58620774D01*
X61553458Y58544115D01*
X61455885Y58446542D01*
X61379226Y58331814D01*
X61379225Y58331812D01*
X61326419Y58204328D01*
X61326419Y58204327D01*
X61299500Y58068994D01*
X60238000Y58068994D01*
X60211080Y58204328D01*
X60158275Y58331811D01*
X60081614Y58446542D01*
X59984042Y58544114D01*
X59984041Y58544115D01*
X59869313Y58620774D01*
X59869311Y58620775D01*
X59741826Y58673581D01*
X59606493Y58700500D01*
X59468507Y58700500D01*
X59333173Y58673581D01*
X59333172Y58673581D01*
X59205688Y58620775D01*
X59205686Y58620774D01*
X59090958Y58544115D01*
X58993385Y58446542D01*
X58916726Y58331814D01*
X58916725Y58331812D01*
X58863919Y58204328D01*
X58863919Y58204327D01*
X58837000Y58068994D01*
X46050500Y58068994D01*
X46050500Y60068994D01*
X58837000Y60068994D01*
X58837000Y59931007D01*
X58863919Y59795674D01*
X58863919Y59795673D01*
X58916725Y59668189D01*
X58993386Y59553458D01*
X59090958Y59455886D01*
X59205689Y59379225D01*
X59333172Y59326420D01*
X59468507Y59299500D01*
X59606493Y59299500D01*
X59741828Y59326420D01*
X59869311Y59379225D01*
X59984042Y59455886D01*
X60081614Y59553458D01*
X60158275Y59668189D01*
X60211080Y59795672D01*
X60238000Y59931007D01*
X60238000Y60068993D01*
X60238000Y60068994D01*
X61299500Y60068994D01*
X61299500Y59931007D01*
X61326419Y59795674D01*
X61326419Y59795673D01*
X61379225Y59668189D01*
X61455886Y59553458D01*
X61553458Y59455886D01*
X61668189Y59379225D01*
X61795672Y59326420D01*
X61931007Y59299500D01*
X62068993Y59299500D01*
X62204328Y59326420D01*
X62331811Y59379225D01*
X62446542Y59455886D01*
X62544114Y59553458D01*
X62620775Y59668189D01*
X62673580Y59795672D01*
X62700500Y59931007D01*
X62700500Y60068993D01*
X62673580Y60204328D01*
X62620775Y60331811D01*
X62544114Y60446542D01*
X62446542Y60544114D01*
X62446541Y60544115D01*
X62331813Y60620774D01*
X62331811Y60620775D01*
X62204326Y60673581D01*
X62068993Y60700500D01*
X61931007Y60700500D01*
X61795673Y60673581D01*
X61795672Y60673581D01*
X61668188Y60620775D01*
X61668186Y60620774D01*
X61553458Y60544115D01*
X61455885Y60446542D01*
X61379226Y60331814D01*
X61379225Y60331812D01*
X61326419Y60204328D01*
X61326419Y60204327D01*
X61299500Y60068994D01*
X60238000Y60068994D01*
X60211080Y60204328D01*
X60158275Y60331811D01*
X60081614Y60446542D01*
X59984042Y60544114D01*
X59984041Y60544115D01*
X59869313Y60620774D01*
X59869311Y60620775D01*
X59741826Y60673581D01*
X59606493Y60700500D01*
X59468507Y60700500D01*
X59333173Y60673581D01*
X59333172Y60673581D01*
X59205688Y60620775D01*
X59205686Y60620774D01*
X59090958Y60544115D01*
X58993385Y60446542D01*
X58916726Y60331814D01*
X58916725Y60331812D01*
X58863919Y60204328D01*
X58863919Y60204327D01*
X58837000Y60068994D01*
X46050500Y60068994D01*
X46050500Y68572474D01*
X46050499Y68572480D01*
X46024712Y68668716D01*
X46012984Y68712485D01*
X45991036Y68750500D01*
X45940510Y68838015D01*
X43699469Y71079056D01*
X44899500Y71079056D01*
X44899500Y70920945D01*
X44899501Y70920937D01*
X44940421Y70768220D01*
X44940422Y70768217D01*
X44940423Y70768216D01*
X45019480Y70631284D01*
X45131284Y70519480D01*
X45252494Y70449500D01*
X45268216Y70440423D01*
X45268219Y70440422D01*
X45302659Y70431194D01*
X45420943Y70399500D01*
X45420944Y70399500D01*
X45579056Y70399500D01*
X45579057Y70399500D01*
X45731784Y70440423D01*
X45868716Y70519480D01*
X45980520Y70631284D01*
X46059577Y70768216D01*
X46100500Y70920943D01*
X46100500Y71079057D01*
X46059577Y71231784D01*
X45980520Y71368716D01*
X45868716Y71480520D01*
X45747506Y71550500D01*
X45731783Y71559578D01*
X45731780Y71559579D01*
X45579063Y71600499D01*
X45579058Y71600500D01*
X45579057Y71600500D01*
X45420943Y71600500D01*
X45420942Y71600500D01*
X45420936Y71600499D01*
X45268219Y71559579D01*
X45268216Y71559578D01*
X45187514Y71512984D01*
X45131284Y71480520D01*
X45131283Y71480519D01*
X45131279Y71480516D01*
X45019484Y71368721D01*
X45019481Y71368717D01*
X45019480Y71368716D01*
X45018321Y71366708D01*
X44940422Y71231784D01*
X44940421Y71231781D01*
X44899501Y71079064D01*
X44899500Y71079056D01*
X43699469Y71079056D01*
X43338015Y71440510D01*
X43249777Y71491454D01*
X43212484Y71512985D01*
X43212481Y71512986D01*
X43192056Y71518458D01*
X43168139Y71524867D01*
X43072479Y71550500D01*
X43072475Y71550500D01*
X36134761Y71550500D01*
X36118259Y71552718D01*
X36108641Y71555351D01*
X35592314Y71597987D01*
X35581287Y71599903D01*
X35579058Y71600500D01*
X35579057Y71600500D01*
X35420943Y71600500D01*
X35420942Y71600500D01*
X35420936Y71600499D01*
X35268219Y71559579D01*
X35268216Y71559578D01*
X35187514Y71512984D01*
X35131284Y71480520D01*
X35131283Y71480519D01*
X35131279Y71480516D01*
X35019480Y71368717D01*
X35019479Y71368715D01*
X35018320Y71366708D01*
X35011881Y71357563D01*
X34676937Y70962324D01*
X34676933Y70962318D01*
X34671453Y70952906D01*
X34661638Y70940164D01*
X32859580Y69138107D01*
X32846348Y69128009D01*
X32837688Y69123071D01*
X32837675Y69123062D01*
X32442440Y68788120D01*
X32433288Y68781677D01*
X32431283Y68780520D01*
X32319484Y68668721D01*
X32319481Y68668717D01*
X32240422Y68531784D01*
X32240421Y68531781D01*
X32199501Y68379064D01*
X32199500Y68379056D01*
X32199500Y68220945D01*
X32199501Y68220937D01*
X32240421Y68068220D01*
X32240422Y68068217D01*
X32254338Y68044114D01*
X32319480Y67931284D01*
X32431284Y67819480D01*
X32568216Y67740423D01*
X32568219Y67740422D01*
X32661681Y67715379D01*
X32720943Y67699500D01*
X32720944Y67699500D01*
X32879056Y67699500D01*
X32879057Y67699500D01*
X33031784Y67740423D01*
X33168716Y67819480D01*
X33280520Y67931284D01*
X33281673Y67933283D01*
X33288122Y67942446D01*
X33289229Y67943754D01*
X33289232Y67943755D01*
X33623064Y68337682D01*
X33628538Y68347087D01*
X33638354Y68359832D01*
X35440424Y70161902D01*
X35453660Y70172000D01*
X35462318Y70176936D01*
X35727266Y70401467D01*
X35762523Y70416071D01*
X36108640Y70444650D01*
X36119165Y70447430D01*
X36135121Y70449500D01*
X42746087Y70449500D01*
X42790281Y70431194D01*
X44931194Y68290281D01*
X44949500Y68246087D01*
X44949500Y56353718D01*
X44948295Y56341505D01*
X44837900Y55787429D01*
X44828583Y55764935D01*
X44514858Y55295088D01*
X44507074Y55285601D01*
X33579490Y44358016D01*
X33538163Y44286433D01*
X33507015Y44232485D01*
X33507015Y44232483D01*
X33469500Y44092480D01*
X33469500Y12884761D01*
X33467283Y12868261D01*
X33464649Y12858641D01*
X33464648Y12858637D01*
X33436068Y12512528D01*
X33421461Y12477265D01*
X33196938Y12212325D01*
X33196927Y12212309D01*
X33191453Y12202907D01*
X33181637Y12190163D01*
X28085281Y7093806D01*
X28041087Y7075500D01*
X19634761Y7075500D01*
X19618259Y7077718D01*
X19608641Y7080351D01*
X19092314Y7122987D01*
X19081287Y7124903D01*
X19079058Y7125500D01*
X19079057Y7125500D01*
X18920943Y7125500D01*
X18920942Y7125500D01*
X18920936Y7125499D01*
X18768219Y7084579D01*
X18768216Y7084578D01*
X18671964Y7029007D01*
X18631284Y7005520D01*
X18631283Y7005519D01*
X18631279Y7005516D01*
X18519484Y6893721D01*
X18519481Y6893717D01*
X18519480Y6893716D01*
X18495993Y6853036D01*
X18440422Y6756784D01*
X18440421Y6756781D01*
X18399501Y6604064D01*
X18399500Y6604056D01*
X11600500Y6604056D01*
X11600500Y6604057D01*
X11559577Y6756784D01*
X11480520Y6893716D01*
X11368716Y7005520D01*
X11267629Y7063882D01*
X11231783Y7084578D01*
X11231780Y7084579D01*
X11079063Y7125499D01*
X11079058Y7125500D01*
X11079057Y7125500D01*
X10920943Y7125500D01*
X10920942Y7125500D01*
X10920936Y7125499D01*
X10768219Y7084579D01*
X10768216Y7084578D01*
X10671964Y7029007D01*
X10631284Y7005520D01*
X10631283Y7005519D01*
X10631279Y7005516D01*
X10519484Y6893721D01*
X10519481Y6893717D01*
X10519480Y6893716D01*
X10495993Y6853036D01*
X10440422Y6756784D01*
X10440421Y6756781D01*
X10399501Y6604064D01*
X10399500Y6604056D01*
X5623350Y6604056D01*
X5554218Y6632691D01*
X5336376Y6691062D01*
X5112772Y6720500D01*
X5112768Y6720500D01*
X4887232Y6720500D01*
X4887227Y6720500D01*
X4663623Y6691062D01*
X4663622Y6691062D01*
X4445781Y6632691D01*
X4237412Y6546383D01*
X4237409Y6546382D01*
X4042092Y6433615D01*
X3863166Y6296321D01*
X3863156Y6296312D01*
X3703688Y6136844D01*
X3703679Y6136834D01*
X3566385Y5957908D01*
X3453618Y5762591D01*
X3453617Y5762588D01*
X3367309Y5554219D01*
X3308938Y5336378D01*
X3308938Y5336377D01*
X3279500Y5112773D01*
X250500Y5112773D01*
X250500Y13079056D01*
X7909500Y13079056D01*
X7909500Y12920945D01*
X7909501Y12920937D01*
X7950421Y12768220D01*
X7950422Y12768217D01*
X7950423Y12768216D01*
X8029480Y12631284D01*
X8141284Y12519480D01*
X8264086Y12448581D01*
X8278216Y12440423D01*
X8278219Y12440422D01*
X8371681Y12415379D01*
X8430943Y12399500D01*
X8430944Y12399500D01*
X8589056Y12399500D01*
X8589057Y12399500D01*
X8741784Y12440423D01*
X8878716Y12519480D01*
X8990520Y12631284D01*
X9069577Y12768216D01*
X9110500Y12920943D01*
X9110500Y13079057D01*
X9069577Y13231784D01*
X8990520Y13368716D01*
X8878716Y13480520D01*
X8751108Y13554194D01*
X8741783Y13559578D01*
X8741780Y13559579D01*
X8589063Y13600499D01*
X8589058Y13600500D01*
X8589057Y13600500D01*
X8430943Y13600500D01*
X8430942Y13600500D01*
X8430936Y13600499D01*
X8278219Y13559579D01*
X8278216Y13559578D01*
X8208765Y13519480D01*
X8141284Y13480520D01*
X8141283Y13480519D01*
X8141279Y13480516D01*
X8029484Y13368721D01*
X8029481Y13368717D01*
X7950422Y13231784D01*
X7950421Y13231781D01*
X7909501Y13079064D01*
X7909500Y13079056D01*
X250500Y13079056D01*
X250500Y14079056D01*
X13764500Y14079056D01*
X13764500Y13920945D01*
X13764501Y13920937D01*
X13805421Y13768220D01*
X13805422Y13768217D01*
X13805423Y13768216D01*
X13884480Y13631284D01*
X13996284Y13519480D01*
X14133216Y13440423D01*
X14133219Y13440422D01*
X14226681Y13415379D01*
X14285943Y13399500D01*
X14285944Y13399500D01*
X14444056Y13399500D01*
X14444057Y13399500D01*
X14596784Y13440423D01*
X14733716Y13519480D01*
X14845520Y13631284D01*
X14924577Y13768216D01*
X14965500Y13920943D01*
X14965500Y14079057D01*
X14924577Y14231784D01*
X14845520Y14368716D01*
X14733716Y14480520D01*
X14637464Y14536091D01*
X14596783Y14559578D01*
X14596780Y14559579D01*
X14444063Y14600499D01*
X14444058Y14600500D01*
X14444057Y14600500D01*
X14285943Y14600500D01*
X14285942Y14600500D01*
X14285936Y14600499D01*
X14133219Y14559579D01*
X14133216Y14559578D01*
X14036964Y14504007D01*
X13996284Y14480520D01*
X13996283Y14480519D01*
X13996279Y14480516D01*
X13884484Y14368721D01*
X13884481Y14368717D01*
X13884480Y14368716D01*
X13860993Y14328036D01*
X13805422Y14231784D01*
X13805421Y14231781D01*
X13764501Y14079064D01*
X13764500Y14079056D01*
X250500Y14079056D01*
X250500Y16579056D01*
X16399500Y16579056D01*
X16399500Y16420945D01*
X16399501Y16420937D01*
X16440421Y16268220D01*
X16440422Y16268217D01*
X16440423Y16268216D01*
X16519480Y16131284D01*
X16519484Y16131280D01*
X16631284Y16019480D01*
X16679516Y15991634D01*
X16686962Y15986588D01*
X16702982Y15973958D01*
X17153722Y15737687D01*
X17168898Y15726526D01*
X19237503Y13657920D01*
X19237509Y13657915D01*
X19334988Y13601634D01*
X19334991Y13601633D01*
X19443719Y13572500D01*
X19556282Y13572500D01*
X25197036Y13572500D01*
X25241230Y13554194D01*
X27126522Y11668902D01*
X27137684Y11653725D01*
X27373961Y11202975D01*
X27381768Y11188987D01*
X27381779Y11188969D01*
X27382381Y11187953D01*
X27394538Y11169070D01*
X27394539Y11169069D01*
X27395722Y11167905D01*
X27406014Y11154605D01*
X27419477Y11131288D01*
X27419484Y11131279D01*
X27476263Y11074501D01*
X27531284Y11019480D01*
X27668216Y10940423D01*
X27668219Y10940422D01*
X27684301Y10936113D01*
X27820943Y10899500D01*
X27820944Y10899500D01*
X27979056Y10899500D01*
X27979057Y10899500D01*
X28131784Y10940423D01*
X28268716Y11019480D01*
X28380520Y11131284D01*
X28459577Y11268216D01*
X28500500Y11420943D01*
X28500500Y11579057D01*
X28459577Y11731784D01*
X28380520Y11868716D01*
X28367950Y11881286D01*
X28268721Y11980516D01*
X28268715Y11980521D01*
X28220471Y12008375D01*
X28213033Y12013416D01*
X28197016Y12026043D01*
X27746277Y12262314D01*
X27731100Y12273476D01*
X25662496Y14342081D01*
X25662490Y14342086D01*
X25565011Y14398367D01*
X25565008Y14398368D01*
X25456287Y14427499D01*
X25456282Y14427500D01*
X25456281Y14427500D01*
X25456280Y14427500D01*
X19702964Y14427500D01*
X19658770Y14445806D01*
X17773474Y16331102D01*
X17762312Y16346279D01*
X17526043Y16797017D01*
X17518274Y16810942D01*
X17518266Y16810957D01*
X17517664Y16811973D01*
X17505462Y16830930D01*
X17504280Y16832092D01*
X17493982Y16845399D01*
X17480520Y16868716D01*
X17368716Y16980520D01*
X17272464Y17036091D01*
X17231783Y17059578D01*
X17231780Y17059579D01*
X17079063Y17100499D01*
X17079058Y17100500D01*
X17079057Y17100500D01*
X16920943Y17100500D01*
X16920942Y17100500D01*
X16920936Y17100499D01*
X16768219Y17059579D01*
X16768216Y17059578D01*
X16671964Y17004007D01*
X16631284Y16980520D01*
X16631283Y16980519D01*
X16631279Y16980516D01*
X16519484Y16868721D01*
X16519481Y16868717D01*
X16519480Y16868716D01*
X16498335Y16832092D01*
X16440422Y16731784D01*
X16440421Y16731781D01*
X16399501Y16579064D01*
X16399500Y16579056D01*
X250500Y16579056D01*
X250500Y19653864D01*
X23050500Y19653864D01*
X23050500Y18346137D01*
X23053415Y18321011D01*
X23053415Y18321009D01*
X23098794Y18218235D01*
X23178235Y18138794D01*
X23281009Y18093415D01*
X23306135Y18090500D01*
X24613864Y18090501D01*
X24638991Y18093415D01*
X24741765Y18138794D01*
X24821206Y18218235D01*
X24866585Y18321009D01*
X24869500Y18346135D01*
X24869499Y19089579D01*
X25590500Y19089579D01*
X25590500Y18910422D01*
X25625451Y18734709D01*
X25625453Y18734701D01*
X25694011Y18569190D01*
X25793545Y18420227D01*
X25920227Y18293545D01*
X26069190Y18194011D01*
X26142991Y18163442D01*
X26234700Y18125454D01*
X26234704Y18125453D01*
X26234709Y18125451D01*
X26410422Y18090500D01*
X26589578Y18090500D01*
X26765291Y18125451D01*
X26765297Y18125454D01*
X26765299Y18125454D01*
X26804821Y18141825D01*
X26930810Y18194011D01*
X27079773Y18293545D01*
X27206455Y18420227D01*
X27305989Y18569190D01*
X27374549Y18734709D01*
X27409500Y18910422D01*
X27409500Y19089578D01*
X27374549Y19265291D01*
X27374547Y19265296D01*
X27374546Y19265300D01*
X27336558Y19357009D01*
X27305989Y19430810D01*
X27206455Y19579773D01*
X27079773Y19706455D01*
X26967061Y19781767D01*
X26930812Y19805988D01*
X26930810Y19805989D01*
X26765299Y19874547D01*
X26765291Y19874549D01*
X26589578Y19909500D01*
X26410422Y19909500D01*
X26234708Y19874549D01*
X26234700Y19874547D01*
X26069189Y19805989D01*
X26069187Y19805988D01*
X25920227Y19706456D01*
X25793544Y19579773D01*
X25694012Y19430813D01*
X25694011Y19430811D01*
X25625453Y19265300D01*
X25625451Y19265292D01*
X25590500Y19089579D01*
X24869499Y19089579D01*
X24869499Y19653864D01*
X24866585Y19678991D01*
X24821206Y19781765D01*
X24741765Y19861206D01*
X24638991Y19906585D01*
X24613865Y19909500D01*
X24613863Y19909500D01*
X23306136Y19909500D01*
X23281007Y19906585D01*
X23178233Y19861205D01*
X23098795Y19781767D01*
X23098794Y19781766D01*
X23098794Y19781765D01*
X23065542Y19706455D01*
X23053415Y19678990D01*
X23050500Y19653864D01*
X250500Y19653864D01*
X250500Y22329056D01*
X10899500Y22329056D01*
X10899500Y22170945D01*
X10899501Y22170937D01*
X10940421Y22018220D01*
X10940422Y22018217D01*
X10940423Y22018216D01*
X11019480Y21881284D01*
X11131284Y21769480D01*
X11252494Y21699500D01*
X11268216Y21690423D01*
X11268219Y21690422D01*
X11361681Y21665379D01*
X11420943Y21649500D01*
X11420944Y21649500D01*
X11579056Y21649500D01*
X11579057Y21649500D01*
X11581280Y21650096D01*
X11592320Y21652016D01*
X11594032Y21652158D01*
X11594036Y21652157D01*
X12108640Y21694650D01*
X12119165Y21697430D01*
X12135121Y21699500D01*
X26822473Y21699500D01*
X26822474Y21699500D01*
X26822475Y21699500D01*
X26962485Y21737016D01*
X27088015Y21809490D01*
X30940510Y25661985D01*
X31012984Y25787515D01*
X31050500Y25927526D01*
X31050500Y26072474D01*
X31050500Y44246087D01*
X31068806Y44290281D01*
X32379025Y45600500D01*
X34440510Y47661985D01*
X34512984Y47787515D01*
X34537909Y47880536D01*
X34550500Y47927525D01*
X34550500Y55572475D01*
X34548736Y55579057D01*
X34529944Y55649189D01*
X34512984Y55712485D01*
X34501841Y55731785D01*
X34440510Y55838015D01*
X31068806Y59209719D01*
X31050500Y59253913D01*
X31050500Y67079056D01*
X40399500Y67079056D01*
X40399500Y66920945D01*
X40399501Y66920937D01*
X40440421Y66768220D01*
X40440422Y66768217D01*
X40440423Y66768216D01*
X40519480Y66631284D01*
X40631284Y66519480D01*
X40768216Y66440423D01*
X40768219Y66440422D01*
X40852616Y66417808D01*
X40920943Y66399500D01*
X40920944Y66399500D01*
X41079056Y66399500D01*
X41079057Y66399500D01*
X41231784Y66440423D01*
X41368716Y66519480D01*
X41480520Y66631284D01*
X41559577Y66768216D01*
X41600500Y66920943D01*
X41600500Y67079057D01*
X41559577Y67231784D01*
X41480520Y67368716D01*
X41368716Y67480520D01*
X41272464Y67536091D01*
X41231783Y67559578D01*
X41231780Y67559579D01*
X41079063Y67600499D01*
X41079058Y67600500D01*
X41079057Y67600500D01*
X40920943Y67600500D01*
X40920942Y67600500D01*
X40920936Y67600499D01*
X40768219Y67559579D01*
X40768216Y67559578D01*
X40675221Y67505887D01*
X40631284Y67480520D01*
X40631283Y67480519D01*
X40631279Y67480516D01*
X40519484Y67368721D01*
X40519481Y67368717D01*
X40440422Y67231784D01*
X40440421Y67231781D01*
X40399501Y67079064D01*
X40399500Y67079056D01*
X31050500Y67079056D01*
X31050500Y72589056D01*
X45649500Y72589056D01*
X45649500Y72430945D01*
X45649501Y72430937D01*
X45690421Y72278220D01*
X45690422Y72278217D01*
X45690423Y72278216D01*
X45769480Y72141284D01*
X45881284Y72029480D01*
X46018216Y71950423D01*
X46018219Y71950422D01*
X46111681Y71925379D01*
X46170943Y71909500D01*
X46170944Y71909500D01*
X46329056Y71909500D01*
X46329057Y71909500D01*
X46481784Y71950423D01*
X46618716Y72029480D01*
X46730520Y72141284D01*
X46731673Y72143283D01*
X46738122Y72152446D01*
X46739229Y72153754D01*
X46739232Y72153755D01*
X47073064Y72547682D01*
X47078539Y72557088D01*
X47088353Y72569830D01*
X50324040Y75805516D01*
X52737000Y75805516D01*
X52737000Y68069485D01*
X52767807Y67835483D01*
X52767807Y67835482D01*
X52828888Y67607524D01*
X52828892Y67607513D01*
X52828894Y67607507D01*
X52876970Y67491441D01*
X52919213Y67389457D01*
X52919219Y67389445D01*
X52973359Y67295672D01*
X53037227Y67185050D01*
X53180908Y66997801D01*
X53347801Y66830908D01*
X53535050Y66687227D01*
X53739451Y66569216D01*
X53957507Y66478894D01*
X53957517Y66478892D01*
X53957523Y66478889D01*
X54185482Y66417808D01*
X54185486Y66417807D01*
X54419489Y66387000D01*
X54419495Y66387000D01*
X54655505Y66387000D01*
X54655511Y66387000D01*
X54889514Y66417807D01*
X54889518Y66417808D01*
X55117476Y66478889D01*
X55117479Y66478891D01*
X55117493Y66478894D01*
X55335549Y66569216D01*
X55539950Y66687227D01*
X55727199Y66830908D01*
X55894092Y66997801D01*
X56037773Y67185050D01*
X56155784Y67389451D01*
X56246106Y67607507D01*
X56267750Y67688281D01*
X56307192Y67835482D01*
X56307192Y67835483D01*
X56307193Y67835486D01*
X56338000Y68069489D01*
X56338000Y75805511D01*
X56337999Y75805516D01*
X57737000Y75805516D01*
X57737000Y68069485D01*
X57767807Y67835483D01*
X57767807Y67835482D01*
X57828888Y67607524D01*
X57828892Y67607513D01*
X57828894Y67607507D01*
X57876970Y67491441D01*
X57919213Y67389457D01*
X57919219Y67389445D01*
X57973359Y67295672D01*
X58037227Y67185050D01*
X58180908Y66997801D01*
X58347801Y66830908D01*
X58535050Y66687227D01*
X58739451Y66569216D01*
X58957507Y66478894D01*
X58957517Y66478892D01*
X58957523Y66478889D01*
X59185482Y66417808D01*
X59185486Y66417807D01*
X59419489Y66387000D01*
X59419495Y66387000D01*
X59655505Y66387000D01*
X59655511Y66387000D01*
X59889514Y66417807D01*
X59889518Y66417808D01*
X60117476Y66478889D01*
X60117479Y66478891D01*
X60117493Y66478894D01*
X60335549Y66569216D01*
X60539950Y66687227D01*
X60727199Y66830908D01*
X60894092Y66997801D01*
X61037773Y67185050D01*
X61155784Y67389451D01*
X61246106Y67607507D01*
X61267750Y67688281D01*
X61307192Y67835482D01*
X61307192Y67835483D01*
X61307193Y67835486D01*
X61338000Y68069489D01*
X61338000Y75805511D01*
X61337999Y75805516D01*
X62737000Y75805516D01*
X62737000Y68069485D01*
X62767807Y67835483D01*
X62767807Y67835482D01*
X62828888Y67607524D01*
X62828892Y67607513D01*
X62828894Y67607507D01*
X62876970Y67491441D01*
X62919213Y67389457D01*
X62919219Y67389445D01*
X62973359Y67295672D01*
X63037227Y67185050D01*
X63180908Y66997801D01*
X63347801Y66830908D01*
X63535050Y66687227D01*
X63739451Y66569216D01*
X63957507Y66478894D01*
X63957517Y66478892D01*
X63957523Y66478889D01*
X64185482Y66417808D01*
X64185486Y66417807D01*
X64419489Y66387000D01*
X64419495Y66387000D01*
X64655505Y66387000D01*
X64655511Y66387000D01*
X64889514Y66417807D01*
X64889518Y66417808D01*
X65117476Y66478889D01*
X65117479Y66478891D01*
X65117493Y66478894D01*
X65335549Y66569216D01*
X65539950Y66687227D01*
X65727199Y66830908D01*
X65894092Y66997801D01*
X66037773Y67185050D01*
X66155784Y67389451D01*
X66246106Y67607507D01*
X66267750Y67688281D01*
X66307192Y67835482D01*
X66307192Y67835483D01*
X66307193Y67835486D01*
X66338000Y68069489D01*
X66338000Y68289850D01*
X78237000Y68289850D01*
X78237000Y68085151D01*
X78237001Y68085137D01*
X78269022Y67882967D01*
X78332279Y67688283D01*
X78332280Y67688280D01*
X78425215Y67505887D01*
X78545535Y67340279D01*
X78690278Y67195536D01*
X78690281Y67195534D01*
X78855890Y67075213D01*
X79038281Y66982280D01*
X79232966Y66919023D01*
X79435148Y66887000D01*
X79435150Y66887000D01*
X79639850Y66887000D01*
X79639852Y66887000D01*
X79842034Y66919023D01*
X80036719Y66982280D01*
X80219110Y67075213D01*
X80384719Y67195534D01*
X80529466Y67340281D01*
X80649787Y67505890D01*
X80742720Y67688281D01*
X80805977Y67882966D01*
X80838000Y68085148D01*
X80838000Y68289852D01*
X80805977Y68492034D01*
X80742720Y68686719D01*
X80649787Y68869110D01*
X80529466Y69034719D01*
X80529464Y69034722D01*
X80384721Y69179465D01*
X80219113Y69299785D01*
X80219112Y69299786D01*
X80219110Y69299787D01*
X80131459Y69344448D01*
X80036720Y69392720D01*
X80036717Y69392721D01*
X79842032Y69455978D01*
X79842033Y69455978D01*
X79639863Y69487999D01*
X79639853Y69488000D01*
X79639852Y69488000D01*
X79435148Y69488000D01*
X79435146Y69488000D01*
X79435136Y69487999D01*
X79232966Y69455978D01*
X79038282Y69392721D01*
X79038279Y69392720D01*
X78855886Y69299785D01*
X78690278Y69179465D01*
X78545535Y69034722D01*
X78425215Y68869114D01*
X78332280Y68686721D01*
X78332279Y68686718D01*
X78269022Y68492034D01*
X78237001Y68289864D01*
X78237000Y68289850D01*
X66338000Y68289850D01*
X66338000Y75805511D01*
X66307193Y76039514D01*
X66307192Y76039519D01*
X66246111Y76267477D01*
X66246108Y76267483D01*
X66246106Y76267493D01*
X66155784Y76485549D01*
X66037773Y76689950D01*
X65894092Y76877199D01*
X65727199Y77044092D01*
X65727195Y77044095D01*
X65727193Y77044097D01*
X65539947Y77187775D01*
X65335555Y77305781D01*
X65335543Y77305787D01*
X65213721Y77356247D01*
X65117493Y77396106D01*
X65117487Y77396108D01*
X65117476Y77396112D01*
X64889517Y77457193D01*
X64655515Y77488000D01*
X64655511Y77488000D01*
X64419489Y77488000D01*
X64419484Y77488000D01*
X64185482Y77457193D01*
X64185481Y77457193D01*
X63957523Y77396112D01*
X63957508Y77396107D01*
X63957507Y77396106D01*
X63957505Y77396105D01*
X63739456Y77305787D01*
X63739444Y77305781D01*
X63535052Y77187775D01*
X63347806Y77044097D01*
X63347796Y77044088D01*
X63180912Y76877204D01*
X63180903Y76877194D01*
X63037225Y76689948D01*
X62919219Y76485556D01*
X62919213Y76485544D01*
X62828895Y76267495D01*
X62828888Y76267477D01*
X62767807Y76039519D01*
X62767807Y76039518D01*
X62737000Y75805516D01*
X61337999Y75805516D01*
X61307193Y76039514D01*
X61307192Y76039519D01*
X61246111Y76267477D01*
X61246108Y76267483D01*
X61246106Y76267493D01*
X61155784Y76485549D01*
X61037773Y76689950D01*
X60894092Y76877199D01*
X60727199Y77044092D01*
X60727195Y77044095D01*
X60727193Y77044097D01*
X60539947Y77187775D01*
X60335555Y77305781D01*
X60335543Y77305787D01*
X60213721Y77356247D01*
X60117493Y77396106D01*
X60117487Y77396108D01*
X60117476Y77396112D01*
X59889517Y77457193D01*
X59655515Y77488000D01*
X59655511Y77488000D01*
X59419489Y77488000D01*
X59419484Y77488000D01*
X59185482Y77457193D01*
X59185481Y77457193D01*
X58957523Y77396112D01*
X58957508Y77396107D01*
X58957507Y77396106D01*
X58957505Y77396105D01*
X58739456Y77305787D01*
X58739444Y77305781D01*
X58535052Y77187775D01*
X58347806Y77044097D01*
X58347796Y77044088D01*
X58180912Y76877204D01*
X58180903Y76877194D01*
X58037225Y76689948D01*
X57919219Y76485556D01*
X57919213Y76485544D01*
X57828895Y76267495D01*
X57828888Y76267477D01*
X57767807Y76039519D01*
X57767807Y76039518D01*
X57737000Y75805516D01*
X56337999Y75805516D01*
X56307193Y76039514D01*
X56307192Y76039519D01*
X56246111Y76267477D01*
X56246108Y76267483D01*
X56246106Y76267493D01*
X56155784Y76485549D01*
X56037773Y76689950D01*
X55894092Y76877199D01*
X55727199Y77044092D01*
X55727195Y77044095D01*
X55727193Y77044097D01*
X55539947Y77187775D01*
X55335555Y77305781D01*
X55335543Y77305787D01*
X55213721Y77356247D01*
X55117493Y77396106D01*
X55117487Y77396108D01*
X55117476Y77396112D01*
X54889517Y77457193D01*
X54655515Y77488000D01*
X54655511Y77488000D01*
X54419489Y77488000D01*
X54419484Y77488000D01*
X54185482Y77457193D01*
X54185481Y77457193D01*
X53957523Y77396112D01*
X53957508Y77396107D01*
X53957507Y77396106D01*
X53957505Y77396105D01*
X53739456Y77305787D01*
X53739444Y77305781D01*
X53535052Y77187775D01*
X53347806Y77044097D01*
X53347796Y77044088D01*
X53180912Y76877204D01*
X53180903Y76877194D01*
X53037225Y76689948D01*
X52919219Y76485556D01*
X52919213Y76485544D01*
X52828895Y76267495D01*
X52828888Y76267477D01*
X52767807Y76039519D01*
X52767807Y76039518D01*
X52737000Y75805516D01*
X50324040Y75805516D01*
X52949719Y78431194D01*
X52993913Y78449500D01*
X71246087Y78449500D01*
X71290281Y78431194D01*
X79111985Y70609490D01*
X79133944Y70596812D01*
X79215890Y70549500D01*
X79215891Y70549500D01*
X79237511Y70537018D01*
X79237512Y70537018D01*
X79237515Y70537016D01*
X79323198Y70514057D01*
X79377520Y70499501D01*
X79377522Y70499501D01*
X79377525Y70499500D01*
X79377526Y70499500D01*
X79522474Y70499500D01*
X89365244Y70499500D01*
X89381743Y70497283D01*
X89391360Y70494650D01*
X89905963Y70452157D01*
X89905967Y70452158D01*
X89907679Y70452016D01*
X89918713Y70450098D01*
X89920943Y70449500D01*
X89920945Y70449500D01*
X90079056Y70449500D01*
X90079057Y70449500D01*
X90231784Y70490423D01*
X90368716Y70569480D01*
X90480520Y70681284D01*
X90559577Y70818216D01*
X90600500Y70970943D01*
X90600500Y71129057D01*
X90572975Y71231781D01*
X90559578Y71281781D01*
X90559577Y71281784D01*
X90551558Y71295674D01*
X90480520Y71418716D01*
X90368716Y71530520D01*
X90252671Y71597518D01*
X90231783Y71609578D01*
X90231780Y71609579D01*
X90079063Y71650499D01*
X90079058Y71650500D01*
X90079057Y71650500D01*
X89920943Y71650500D01*
X89920942Y71650500D01*
X89918713Y71649903D01*
X89907686Y71647987D01*
X89391359Y71605352D01*
X89380835Y71602572D01*
X89364876Y71600500D01*
X79703913Y71600500D01*
X79659719Y71618806D01*
X71838019Y79440506D01*
X71838015Y79440510D01*
X71712485Y79512984D01*
X71712484Y79512985D01*
X71712483Y79512985D01*
X71572479Y79550500D01*
X71572475Y79550500D01*
X52667525Y79550500D01*
X52667520Y79550500D01*
X52527517Y79512985D01*
X52527515Y79512985D01*
X52439277Y79462041D01*
X52401985Y79440510D01*
X52401984Y79440509D01*
X52401980Y79440506D01*
X46309580Y73348107D01*
X46296348Y73338009D01*
X46287688Y73333071D01*
X46287675Y73333062D01*
X45892440Y72998120D01*
X45883288Y72991677D01*
X45881283Y72990520D01*
X45769484Y72878721D01*
X45769481Y72878717D01*
X45690422Y72741784D01*
X45690421Y72741781D01*
X45649501Y72589064D01*
X45649500Y72589056D01*
X31050500Y72589056D01*
X31050500Y74246088D01*
X31068805Y74290281D01*
X32857579Y76079056D01*
X40899500Y76079056D01*
X40899500Y75920945D01*
X40899501Y75920937D01*
X40940421Y75768220D01*
X40940422Y75768217D01*
X40940423Y75768216D01*
X41019480Y75631284D01*
X41131284Y75519480D01*
X41268216Y75440423D01*
X41268219Y75440422D01*
X41303357Y75431007D01*
X41420943Y75399500D01*
X41420944Y75399500D01*
X41579056Y75399500D01*
X41579057Y75399500D01*
X41731784Y75440423D01*
X41868716Y75519480D01*
X41980520Y75631284D01*
X42059577Y75768216D01*
X42100500Y75920943D01*
X42100500Y76079057D01*
X42074274Y76176934D01*
X42059578Y76231781D01*
X42059577Y76231784D01*
X41980520Y76368716D01*
X41868716Y76480520D01*
X41772464Y76536091D01*
X41731783Y76559578D01*
X41731780Y76559579D01*
X41579063Y76600499D01*
X41579058Y76600500D01*
X41579057Y76600500D01*
X41420943Y76600500D01*
X41420942Y76600500D01*
X41420936Y76600499D01*
X41268219Y76559579D01*
X41268216Y76559578D01*
X41171964Y76504007D01*
X41131284Y76480520D01*
X41131283Y76480519D01*
X41131279Y76480516D01*
X41019484Y76368721D01*
X41019481Y76368717D01*
X40940422Y76231784D01*
X40940421Y76231781D01*
X40899501Y76079064D01*
X40899500Y76079056D01*
X32857579Y76079056D01*
X32940427Y76161904D01*
X32953661Y76172001D01*
X32962318Y76176936D01*
X33356245Y76510768D01*
X33356247Y76510771D01*
X33357554Y76511878D01*
X33366710Y76518323D01*
X33368716Y76519480D01*
X33480520Y76631284D01*
X33481673Y76633283D01*
X33488122Y76642446D01*
X33489229Y76643754D01*
X33489232Y76643755D01*
X33823064Y77037682D01*
X33828539Y77047088D01*
X33838353Y77059830D01*
X38893263Y82114739D01*
X46649500Y82114739D01*
X46649500Y81885262D01*
X46679452Y81657760D01*
X46679452Y81657758D01*
X46738840Y81436119D01*
X46826653Y81224118D01*
X46826656Y81224112D01*
X46941389Y81025388D01*
X47081081Y80843339D01*
X47243339Y80681081D01*
X47425388Y80541389D01*
X47624112Y80426656D01*
X47836113Y80338842D01*
X48057762Y80279452D01*
X48285266Y80249500D01*
X48285272Y80249500D01*
X48514728Y80249500D01*
X48514734Y80249500D01*
X48742238Y80279452D01*
X48963887Y80338842D01*
X49175888Y80426656D01*
X49374612Y80541389D01*
X49556661Y80681081D01*
X49718919Y80843339D01*
X49858611Y81025388D01*
X49973344Y81224112D01*
X50061158Y81436113D01*
X50120548Y81657762D01*
X50150500Y81885266D01*
X50150500Y82114734D01*
X50150499Y82114739D01*
X53849500Y82114739D01*
X53849500Y81885262D01*
X53879452Y81657760D01*
X53879452Y81657758D01*
X53938840Y81436119D01*
X54026653Y81224118D01*
X54026656Y81224112D01*
X54141389Y81025388D01*
X54281081Y80843339D01*
X54443339Y80681081D01*
X54625388Y80541389D01*
X54824112Y80426656D01*
X55036113Y80338842D01*
X55257762Y80279452D01*
X55485266Y80249500D01*
X55485272Y80249500D01*
X55714728Y80249500D01*
X55714734Y80249500D01*
X55942238Y80279452D01*
X56163887Y80338842D01*
X56375888Y80426656D01*
X56574612Y80541389D01*
X56756661Y80681081D01*
X56918919Y80843339D01*
X57058611Y81025388D01*
X57173344Y81224112D01*
X57261158Y81436113D01*
X57320548Y81657762D01*
X57350500Y81885266D01*
X57350500Y82114734D01*
X57350499Y82114739D01*
X61649500Y82114739D01*
X61649500Y81885262D01*
X61679452Y81657760D01*
X61679452Y81657758D01*
X61738840Y81436119D01*
X61826653Y81224118D01*
X61826656Y81224112D01*
X61941389Y81025388D01*
X62081081Y80843339D01*
X62243339Y80681081D01*
X62425388Y80541389D01*
X62624112Y80426656D01*
X62836113Y80338842D01*
X63057762Y80279452D01*
X63285266Y80249500D01*
X63285272Y80249500D01*
X63514728Y80249500D01*
X63514734Y80249500D01*
X63742238Y80279452D01*
X63963887Y80338842D01*
X64175888Y80426656D01*
X64374612Y80541389D01*
X64556661Y80681081D01*
X64718919Y80843339D01*
X64858611Y81025388D01*
X64973344Y81224112D01*
X65061158Y81436113D01*
X65120548Y81657762D01*
X65150500Y81885266D01*
X65150500Y82114734D01*
X65150499Y82114739D01*
X68849500Y82114739D01*
X68849500Y81885262D01*
X68879452Y81657760D01*
X68879452Y81657758D01*
X68938840Y81436119D01*
X69026653Y81224118D01*
X69026656Y81224112D01*
X69141389Y81025388D01*
X69281081Y80843339D01*
X69443339Y80681081D01*
X69625388Y80541389D01*
X69824112Y80426656D01*
X70036113Y80338842D01*
X70257762Y80279452D01*
X70485266Y80249500D01*
X70485272Y80249500D01*
X70714728Y80249500D01*
X70714734Y80249500D01*
X70942238Y80279452D01*
X71163887Y80338842D01*
X71375888Y80426656D01*
X71574612Y80541389D01*
X71756661Y80681081D01*
X71918919Y80843339D01*
X72058611Y81025388D01*
X72173344Y81224112D01*
X72261158Y81436113D01*
X72320548Y81657762D01*
X72350500Y81885266D01*
X72350500Y82114734D01*
X72320548Y82342238D01*
X72261158Y82563887D01*
X72173344Y82775888D01*
X72058611Y82974612D01*
X71918919Y83156661D01*
X71756661Y83318919D01*
X71574612Y83458611D01*
X71387940Y83566386D01*
X71375894Y83573341D01*
X71375882Y83573347D01*
X71266763Y83618546D01*
X71163887Y83661158D01*
X71163883Y83661159D01*
X71163881Y83661160D01*
X71163882Y83661160D01*
X70942241Y83720548D01*
X70714738Y83750500D01*
X70714734Y83750500D01*
X70485266Y83750500D01*
X70485261Y83750500D01*
X70257759Y83720548D01*
X70257757Y83720548D01*
X70036118Y83661160D01*
X69824117Y83573347D01*
X69824105Y83573341D01*
X69625394Y83458615D01*
X69625391Y83458613D01*
X69625388Y83458611D01*
X69528823Y83384514D01*
X69443337Y83318918D01*
X69281082Y83156663D01*
X69215486Y83071177D01*
X69141389Y82974612D01*
X69141387Y82974609D01*
X69141385Y82974606D01*
X69026659Y82775895D01*
X69026653Y82775883D01*
X68938840Y82563882D01*
X68879452Y82342243D01*
X68879452Y82342241D01*
X68849500Y82114739D01*
X65150499Y82114739D01*
X65120548Y82342238D01*
X65061158Y82563887D01*
X64973344Y82775888D01*
X64858611Y82974612D01*
X64718919Y83156661D01*
X64556661Y83318919D01*
X64374612Y83458611D01*
X64187940Y83566386D01*
X64175894Y83573341D01*
X64175882Y83573347D01*
X64066763Y83618546D01*
X63963887Y83661158D01*
X63963883Y83661159D01*
X63963881Y83661160D01*
X63963882Y83661160D01*
X63742241Y83720548D01*
X63514738Y83750500D01*
X63514734Y83750500D01*
X63285266Y83750500D01*
X63285261Y83750500D01*
X63057759Y83720548D01*
X63057757Y83720548D01*
X62836118Y83661160D01*
X62624117Y83573347D01*
X62624105Y83573341D01*
X62425394Y83458615D01*
X62425391Y83458613D01*
X62425388Y83458611D01*
X62328823Y83384514D01*
X62243337Y83318918D01*
X62081082Y83156663D01*
X62015486Y83071177D01*
X61941389Y82974612D01*
X61941387Y82974609D01*
X61941385Y82974606D01*
X61826659Y82775895D01*
X61826653Y82775883D01*
X61738840Y82563882D01*
X61679452Y82342243D01*
X61679452Y82342241D01*
X61649500Y82114739D01*
X57350499Y82114739D01*
X57320548Y82342238D01*
X57261158Y82563887D01*
X57173344Y82775888D01*
X57058611Y82974612D01*
X56918919Y83156661D01*
X56756661Y83318919D01*
X56574612Y83458611D01*
X56387940Y83566386D01*
X56375894Y83573341D01*
X56375882Y83573347D01*
X56266763Y83618546D01*
X56163887Y83661158D01*
X56163883Y83661159D01*
X56163881Y83661160D01*
X56163882Y83661160D01*
X55942241Y83720548D01*
X55714738Y83750500D01*
X55714734Y83750500D01*
X55485266Y83750500D01*
X55485261Y83750500D01*
X55257759Y83720548D01*
X55257757Y83720548D01*
X55036118Y83661160D01*
X54824117Y83573347D01*
X54824105Y83573341D01*
X54625394Y83458615D01*
X54625391Y83458613D01*
X54625388Y83458611D01*
X54528823Y83384514D01*
X54443337Y83318918D01*
X54281082Y83156663D01*
X54215486Y83071177D01*
X54141389Y82974612D01*
X54141387Y82974609D01*
X54141385Y82974606D01*
X54026659Y82775895D01*
X54026653Y82775883D01*
X53938840Y82563882D01*
X53879452Y82342243D01*
X53879452Y82342241D01*
X53849500Y82114739D01*
X50150499Y82114739D01*
X50120548Y82342238D01*
X50061158Y82563887D01*
X49973344Y82775888D01*
X49858611Y82974612D01*
X49718919Y83156661D01*
X49556661Y83318919D01*
X49374612Y83458611D01*
X49187940Y83566386D01*
X49175894Y83573341D01*
X49175882Y83573347D01*
X49066763Y83618546D01*
X48963887Y83661158D01*
X48963883Y83661159D01*
X48963881Y83661160D01*
X48963882Y83661160D01*
X48742241Y83720548D01*
X48514738Y83750500D01*
X48514734Y83750500D01*
X48285266Y83750500D01*
X48285261Y83750500D01*
X48057759Y83720548D01*
X48057757Y83720548D01*
X47836118Y83661160D01*
X47624117Y83573347D01*
X47624105Y83573341D01*
X47425394Y83458615D01*
X47425391Y83458613D01*
X47425388Y83458611D01*
X47328823Y83384514D01*
X47243337Y83318918D01*
X47081082Y83156663D01*
X47015486Y83071177D01*
X46941389Y82974612D01*
X46941387Y82974609D01*
X46941385Y82974606D01*
X46826659Y82775895D01*
X46826653Y82775883D01*
X46738840Y82563882D01*
X46679452Y82342243D01*
X46679452Y82342241D01*
X46649500Y82114739D01*
X38893263Y82114739D01*
X40709719Y83931194D01*
X40753913Y83949500D01*
X76746087Y83949500D01*
X76790281Y83931194D01*
X78968694Y81752781D01*
X78987000Y81708587D01*
X78987000Y77816835D01*
X78974500Y77779335D01*
X78299187Y76878919D01*
X78299179Y76878906D01*
X78298368Y76877361D01*
X78298369Y76877360D01*
X78294258Y76869516D01*
X78293944Y76868916D01*
X78285294Y76860265D01*
X78263264Y76810375D01*
X78262293Y76808520D01*
X78253778Y76792271D01*
X78250589Y76782707D01*
X78250421Y76782763D01*
X78248285Y76776452D01*
X78239916Y76757496D01*
X78239915Y76757493D01*
X78239915Y76757491D01*
X78237000Y76732365D01*
X78237000Y76689496D01*
X78235823Y76681689D01*
X78237000Y76676097D01*
X78237000Y74642637D01*
X78239915Y74617511D01*
X78239915Y74617509D01*
X78285294Y74514735D01*
X78364735Y74435294D01*
X78467509Y74389915D01*
X78492635Y74387000D01*
X80582364Y74387001D01*
X80607491Y74389915D01*
X80710265Y74435294D01*
X80789706Y74514735D01*
X80835085Y74617509D01*
X80838000Y74642635D01*
X80837999Y76732364D01*
X80835085Y76757491D01*
X80789706Y76860265D01*
X80787739Y76862232D01*
X80777479Y76876544D01*
X80777328Y76876451D01*
X80776017Y76878584D01*
X80775890Y76878761D01*
X80775816Y76878911D01*
X80775814Y76878914D01*
X80100500Y77779334D01*
X80088000Y77816834D01*
X80088000Y82034974D01*
X80087999Y82034980D01*
X80054238Y82160974D01*
X80050484Y82174985D01*
X79978010Y82300515D01*
X77338015Y84940510D01*
X77212485Y85012984D01*
X77212484Y85012985D01*
X77212483Y85012985D01*
X77072479Y85050500D01*
X77072475Y85050500D01*
X40427525Y85050500D01*
X40427520Y85050500D01*
X40287517Y85012985D01*
X40287515Y85012985D01*
X40199277Y84962041D01*
X40161985Y84940510D01*
X40161984Y84940509D01*
X40161980Y84940506D01*
X33059580Y77838107D01*
X33046348Y77828009D01*
X33037688Y77823071D01*
X33037675Y77823062D01*
X32642440Y77488120D01*
X32633288Y77481677D01*
X32631283Y77480520D01*
X32519480Y77368717D01*
X32519479Y77368715D01*
X32518320Y77366708D01*
X32511881Y77357563D01*
X32176939Y76962325D01*
X32176928Y76962309D01*
X32171452Y76952905D01*
X32161638Y76940165D01*
X30059490Y74838016D01*
X30001170Y74737000D01*
X30001169Y74736999D01*
X29987016Y74712488D01*
X29987016Y74712486D01*
X29949500Y74572480D01*
X29949500Y58927528D01*
X29949501Y58927520D01*
X29987014Y58787519D01*
X29987015Y58787516D01*
X29987016Y58787515D01*
X30059490Y58661985D01*
X30059494Y58661981D01*
X33431194Y55290281D01*
X33449500Y55246087D01*
X33449500Y48253913D01*
X33431194Y48209719D01*
X30059494Y44838020D01*
X30059487Y44838011D01*
X30019191Y44768218D01*
X30019192Y44768217D01*
X29987017Y44712488D01*
X29987015Y44712483D01*
X29949500Y44572480D01*
X29949500Y26253913D01*
X29931194Y26209719D01*
X26540281Y22818806D01*
X26496087Y22800500D01*
X12134761Y22800500D01*
X12118259Y22802718D01*
X12108641Y22805351D01*
X11592314Y22847987D01*
X11581287Y22849903D01*
X11579058Y22850500D01*
X11579057Y22850500D01*
X11420943Y22850500D01*
X11420942Y22850500D01*
X11420936Y22850499D01*
X11268219Y22809579D01*
X11268216Y22809578D01*
X11173922Y22755137D01*
X11131284Y22730520D01*
X11131283Y22730519D01*
X11131279Y22730516D01*
X11019484Y22618721D01*
X11019481Y22618717D01*
X10940422Y22481784D01*
X10940421Y22481781D01*
X10899501Y22329064D01*
X10899500Y22329056D01*
X250500Y22329056D01*
X250500Y23579056D01*
X9399500Y23579056D01*
X9399500Y23420945D01*
X9399501Y23420937D01*
X9440421Y23268220D01*
X9440422Y23268217D01*
X9440423Y23268216D01*
X9519480Y23131284D01*
X9631284Y23019480D01*
X9768216Y22940423D01*
X9768219Y22940422D01*
X9861681Y22915379D01*
X9920943Y22899500D01*
X9920944Y22899500D01*
X10079056Y22899500D01*
X10079057Y22899500D01*
X10231784Y22940423D01*
X10368716Y23019480D01*
X10480520Y23131284D01*
X10559577Y23268216D01*
X10600500Y23420943D01*
X10600500Y23579057D01*
X10559577Y23731784D01*
X10480520Y23868716D01*
X10368716Y23980520D01*
X10272464Y24036091D01*
X10231783Y24059578D01*
X10231780Y24059579D01*
X10079063Y24100499D01*
X10079058Y24100500D01*
X10079057Y24100500D01*
X9920943Y24100500D01*
X9920942Y24100500D01*
X9920936Y24100499D01*
X9768219Y24059579D01*
X9768216Y24059578D01*
X9671964Y24004007D01*
X9631284Y23980520D01*
X9631283Y23980519D01*
X9631279Y23980516D01*
X9519484Y23868721D01*
X9519481Y23868717D01*
X9440422Y23731784D01*
X9440421Y23731781D01*
X9399501Y23579064D01*
X9399500Y23579056D01*
X250500Y23579056D01*
X250500Y25079056D01*
X9399500Y25079056D01*
X9399500Y24920945D01*
X9399501Y24920937D01*
X9440421Y24768220D01*
X9440422Y24768217D01*
X9440423Y24768216D01*
X9519480Y24631284D01*
X9631284Y24519480D01*
X9768216Y24440423D01*
X9768219Y24440422D01*
X9861681Y24415379D01*
X9920943Y24399500D01*
X9920944Y24399500D01*
X10079056Y24399500D01*
X10079057Y24399500D01*
X10231784Y24440423D01*
X10368716Y24519480D01*
X10480520Y24631284D01*
X10559577Y24768216D01*
X10600500Y24920943D01*
X10600500Y25079057D01*
X10559577Y25231784D01*
X10480520Y25368716D01*
X10368716Y25480520D01*
X10272464Y25536091D01*
X10231783Y25559578D01*
X10231780Y25559579D01*
X10079063Y25600499D01*
X10079058Y25600500D01*
X10079057Y25600500D01*
X9920943Y25600500D01*
X9920942Y25600500D01*
X9920936Y25600499D01*
X9768219Y25559579D01*
X9768216Y25559578D01*
X9671964Y25504007D01*
X9631284Y25480520D01*
X9631283Y25480519D01*
X9631279Y25480516D01*
X9519484Y25368721D01*
X9519481Y25368717D01*
X9440422Y25231784D01*
X9440421Y25231781D01*
X9399501Y25079064D01*
X9399500Y25079056D01*
X250500Y25079056D01*
X250500Y27579056D01*
X20399500Y27579056D01*
X20399500Y27420945D01*
X20399501Y27420937D01*
X20440421Y27268220D01*
X20440422Y27268217D01*
X20440423Y27268216D01*
X20519480Y27131284D01*
X20631284Y27019480D01*
X20768216Y26940423D01*
X20768219Y26940422D01*
X20861681Y26915379D01*
X20920943Y26899500D01*
X20920944Y26899500D01*
X21079056Y26899500D01*
X21079057Y26899500D01*
X21231784Y26940423D01*
X21368716Y27019480D01*
X21480520Y27131284D01*
X21559577Y27268216D01*
X21600500Y27420943D01*
X21600500Y27579057D01*
X21559577Y27731784D01*
X21480520Y27868716D01*
X21368716Y27980520D01*
X21272464Y28036091D01*
X21231783Y28059578D01*
X21231780Y28059579D01*
X21079063Y28100499D01*
X21079058Y28100500D01*
X21079057Y28100500D01*
X20920943Y28100500D01*
X20920942Y28100500D01*
X20920936Y28100499D01*
X20768219Y28059579D01*
X20768216Y28059578D01*
X20671964Y28004007D01*
X20631284Y27980520D01*
X20631283Y27980519D01*
X20631279Y27980516D01*
X20519484Y27868721D01*
X20519481Y27868717D01*
X20440422Y27731784D01*
X20440421Y27731781D01*
X20399501Y27579064D01*
X20399500Y27579056D01*
X250500Y27579056D01*
X250500Y32579056D01*
X18399500Y32579056D01*
X18399500Y32420945D01*
X18399501Y32420937D01*
X18440421Y32268220D01*
X18440422Y32268217D01*
X18440423Y32268216D01*
X18519480Y32131284D01*
X18631284Y32019480D01*
X18768216Y31940423D01*
X18768219Y31940422D01*
X18861681Y31915379D01*
X18920943Y31899500D01*
X18920944Y31899500D01*
X19079056Y31899500D01*
X19079057Y31899500D01*
X19231784Y31940423D01*
X19368716Y32019480D01*
X19480520Y32131284D01*
X19559577Y32268216D01*
X19600500Y32420943D01*
X19600500Y32579057D01*
X19559577Y32731784D01*
X19480520Y32868716D01*
X19368716Y32980520D01*
X19272464Y33036091D01*
X19231783Y33059578D01*
X19231780Y33059579D01*
X19079063Y33100499D01*
X19079058Y33100500D01*
X19079057Y33100500D01*
X18920943Y33100500D01*
X18920942Y33100500D01*
X18920936Y33100499D01*
X18768219Y33059579D01*
X18768216Y33059578D01*
X18671964Y33004007D01*
X18631284Y32980520D01*
X18631283Y32980519D01*
X18631279Y32980516D01*
X18519484Y32868721D01*
X18519481Y32868717D01*
X18440422Y32731784D01*
X18440421Y32731781D01*
X18399501Y32579064D01*
X18399500Y32579056D01*
X250500Y32579056D01*
X250500Y36618092D01*
X3999500Y36618092D01*
X3999500Y36381908D01*
X4032495Y36173581D01*
X4036448Y36148628D01*
X4109431Y35924010D01*
X4109435Y35924002D01*
X4216658Y35713565D01*
X4355482Y35522491D01*
X4355489Y35522483D01*
X4522482Y35355490D01*
X4522490Y35355483D01*
X4692750Y35231781D01*
X4713567Y35216657D01*
X4924008Y35109432D01*
X5148632Y35036447D01*
X5381908Y34999500D01*
X5381910Y34999500D01*
X5618090Y34999500D01*
X5618092Y34999500D01*
X5851368Y35036447D01*
X5982505Y35079056D01*
X22399500Y35079056D01*
X22399500Y34920945D01*
X22399501Y34920937D01*
X22440421Y34768220D01*
X22440422Y34768217D01*
X22440423Y34768216D01*
X22519480Y34631284D01*
X22631284Y34519480D01*
X22768216Y34440423D01*
X22768219Y34440422D01*
X22861681Y34415379D01*
X22920943Y34399500D01*
X22920944Y34399500D01*
X23079056Y34399500D01*
X23079057Y34399500D01*
X23231784Y34440423D01*
X23368716Y34519480D01*
X23480520Y34631284D01*
X23559577Y34768216D01*
X23600500Y34920943D01*
X23600500Y35079057D01*
X23559577Y35231784D01*
X23480520Y35368716D01*
X23368716Y35480520D01*
X23272464Y35536091D01*
X23231783Y35559578D01*
X23231780Y35559579D01*
X23079063Y35600499D01*
X23079058Y35600500D01*
X23079057Y35600500D01*
X22920943Y35600500D01*
X22920942Y35600500D01*
X22920936Y35600499D01*
X22768219Y35559579D01*
X22768216Y35559578D01*
X22696091Y35517936D01*
X22631284Y35480520D01*
X22631283Y35480519D01*
X22631279Y35480516D01*
X22519484Y35368721D01*
X22519481Y35368717D01*
X22440422Y35231784D01*
X22440421Y35231781D01*
X22399501Y35079064D01*
X22399500Y35079056D01*
X5982505Y35079056D01*
X6075992Y35109432D01*
X6286433Y35216657D01*
X6477510Y35355483D01*
X6644517Y35522490D01*
X6783343Y35713567D01*
X6890568Y35924008D01*
X6963553Y36148632D01*
X7000500Y36381908D01*
X7000500Y36618092D01*
X6963553Y36851368D01*
X6890568Y37075992D01*
X6783343Y37286433D01*
X6776630Y37295672D01*
X6644517Y37477510D01*
X6644510Y37477518D01*
X6477517Y37644511D01*
X6477509Y37644518D01*
X6286435Y37783342D01*
X6075998Y37890565D01*
X6075990Y37890569D01*
X5851372Y37963552D01*
X5851370Y37963553D01*
X5851368Y37963553D01*
X5688489Y37989351D01*
X5618093Y38000500D01*
X5618092Y38000500D01*
X5381908Y38000500D01*
X5381906Y38000500D01*
X5241113Y37978201D01*
X5148632Y37963553D01*
X5148630Y37963553D01*
X5148627Y37963552D01*
X4924009Y37890569D01*
X4924001Y37890565D01*
X4713564Y37783342D01*
X4522490Y37644518D01*
X4522482Y37644511D01*
X4355489Y37477518D01*
X4355482Y37477510D01*
X4216658Y37286436D01*
X4109435Y37075999D01*
X4109431Y37075991D01*
X4036448Y36851373D01*
X4036447Y36851370D01*
X4036447Y36851368D01*
X3999500Y36618092D01*
X250500Y36618092D01*
X250500Y43618094D01*
X3999500Y43618094D01*
X3999500Y43381907D01*
X4036448Y43148628D01*
X4109431Y42924010D01*
X4109435Y42924002D01*
X4216658Y42713565D01*
X4355482Y42522491D01*
X4355489Y42522483D01*
X4522482Y42355490D01*
X4522490Y42355483D01*
X4713567Y42216657D01*
X4924008Y42109432D01*
X5148632Y42036447D01*
X5381908Y41999500D01*
X5381910Y41999500D01*
X5618090Y41999500D01*
X5618092Y41999500D01*
X5851368Y42036447D01*
X5982508Y42079057D01*
X11437000Y42079057D01*
X11437000Y42077252D01*
X11437000Y41920945D01*
X11437001Y41920937D01*
X11477921Y41768220D01*
X11477922Y41768217D01*
X11477923Y41768216D01*
X11556980Y41631284D01*
X11668784Y41519480D01*
X11785307Y41452206D01*
X11805716Y41440423D01*
X11805719Y41440422D01*
X11899181Y41415379D01*
X11958443Y41399500D01*
X11958444Y41399500D01*
X12116556Y41399500D01*
X12116557Y41399500D01*
X12269284Y41440423D01*
X12406216Y41519480D01*
X12518020Y41631284D01*
X12597077Y41768216D01*
X12638000Y41920943D01*
X12638000Y42079057D01*
X12637402Y42081286D01*
X12635484Y42092320D01*
X12635342Y42094033D01*
X12635343Y42094036D01*
X12595294Y42579056D01*
X22399500Y42579056D01*
X22399500Y42420945D01*
X22399501Y42420937D01*
X22440421Y42268220D01*
X22440422Y42268217D01*
X22440423Y42268216D01*
X22519480Y42131284D01*
X22631284Y42019480D01*
X22768216Y41940423D01*
X22768219Y41940422D01*
X22840909Y41920945D01*
X22920943Y41899500D01*
X22920944Y41899500D01*
X23079056Y41899500D01*
X23079057Y41899500D01*
X23231784Y41940423D01*
X23368716Y42019480D01*
X23480520Y42131284D01*
X23559577Y42268216D01*
X23600500Y42420943D01*
X23600500Y42579057D01*
X23559577Y42731784D01*
X23480520Y42868716D01*
X23368716Y42980520D01*
X23272464Y43036091D01*
X23231783Y43059578D01*
X23231780Y43059579D01*
X23079063Y43100499D01*
X23079058Y43100500D01*
X23079057Y43100500D01*
X22920943Y43100500D01*
X22920942Y43100500D01*
X22920936Y43100499D01*
X22768219Y43059579D01*
X22768216Y43059578D01*
X22671964Y43004007D01*
X22631284Y42980520D01*
X22631283Y42980519D01*
X22631279Y42980516D01*
X22519484Y42868721D01*
X22519481Y42868717D01*
X22440422Y42731784D01*
X22440421Y42731781D01*
X22399501Y42579064D01*
X22399500Y42579056D01*
X12595294Y42579056D01*
X12592851Y42608639D01*
X12589103Y42622835D01*
X12588586Y42626585D01*
X12588935Y42627921D01*
X12588000Y42635124D01*
X12588000Y45079056D01*
X14399500Y45079056D01*
X14399500Y44920945D01*
X14399501Y44920937D01*
X14440421Y44768220D01*
X14440422Y44768217D01*
X14440423Y44768216D01*
X14519480Y44631284D01*
X14631284Y44519480D01*
X14768216Y44440423D01*
X14768219Y44440422D01*
X14861681Y44415379D01*
X14920943Y44399500D01*
X14920944Y44399500D01*
X15079056Y44399500D01*
X15079057Y44399500D01*
X15231784Y44440423D01*
X15368716Y44519480D01*
X15480520Y44631284D01*
X15559577Y44768216D01*
X15600500Y44920943D01*
X15600500Y45079056D01*
X20399500Y45079056D01*
X20399500Y44920945D01*
X20399501Y44920937D01*
X20440421Y44768220D01*
X20440422Y44768217D01*
X20440423Y44768216D01*
X20519480Y44631284D01*
X20631284Y44519480D01*
X20768216Y44440423D01*
X20768219Y44440422D01*
X20861681Y44415379D01*
X20920943Y44399500D01*
X20920944Y44399500D01*
X21079056Y44399500D01*
X21079057Y44399500D01*
X21231784Y44440423D01*
X21368716Y44519480D01*
X21480520Y44631284D01*
X21559577Y44768216D01*
X21600500Y44920943D01*
X21600500Y45079057D01*
X21559577Y45231784D01*
X21480520Y45368716D01*
X21368716Y45480520D01*
X21272464Y45536091D01*
X21231783Y45559578D01*
X21231780Y45559579D01*
X21079063Y45600499D01*
X21079058Y45600500D01*
X21079057Y45600500D01*
X20920943Y45600500D01*
X20920942Y45600500D01*
X20920936Y45600499D01*
X20768219Y45559579D01*
X20768216Y45559578D01*
X20671964Y45504007D01*
X20631284Y45480520D01*
X20631283Y45480519D01*
X20631279Y45480516D01*
X20519484Y45368721D01*
X20519481Y45368717D01*
X20440422Y45231784D01*
X20440421Y45231781D01*
X20399501Y45079064D01*
X20399500Y45079056D01*
X15600500Y45079056D01*
X15600500Y45079057D01*
X15559577Y45231784D01*
X15480520Y45368716D01*
X15368716Y45480520D01*
X15272464Y45536091D01*
X15231783Y45559578D01*
X15231780Y45559579D01*
X15079063Y45600499D01*
X15079058Y45600500D01*
X15079057Y45600500D01*
X14920943Y45600500D01*
X14920942Y45600500D01*
X14920936Y45600499D01*
X14768219Y45559579D01*
X14768216Y45559578D01*
X14671964Y45504007D01*
X14631284Y45480520D01*
X14631283Y45480519D01*
X14631279Y45480516D01*
X14519484Y45368721D01*
X14519481Y45368717D01*
X14440422Y45231784D01*
X14440421Y45231781D01*
X14399501Y45079064D01*
X14399500Y45079056D01*
X12588000Y45079056D01*
X12588000Y48283588D01*
X12606305Y48327781D01*
X18440427Y54161904D01*
X18453661Y54172001D01*
X18462318Y54176936D01*
X18856245Y54510768D01*
X18856247Y54510771D01*
X18857554Y54511878D01*
X18866710Y54518323D01*
X18868716Y54519480D01*
X18980520Y54631284D01*
X19059577Y54768216D01*
X19100500Y54920943D01*
X19100500Y55079057D01*
X19059577Y55231784D01*
X18980520Y55368716D01*
X18868716Y55480520D01*
X18779292Y55532149D01*
X18731789Y55559575D01*
X18731780Y55559579D01*
X18659068Y55579062D01*
X25899499Y55579062D01*
X25899499Y55420945D01*
X25899500Y55420937D01*
X25940421Y55268220D01*
X25940422Y55268218D01*
X25940423Y55268215D01*
X25947139Y55256583D01*
X25979518Y55200500D01*
X26019481Y55131283D01*
X26019484Y55131279D01*
X26134839Y55015924D01*
X26134853Y55015912D01*
X29431194Y51719571D01*
X29449500Y51675377D01*
X29449500Y49920945D01*
X29449501Y49920937D01*
X29490421Y49768220D01*
X29490422Y49768217D01*
X29490423Y49768216D01*
X29569480Y49631284D01*
X29681284Y49519480D01*
X29818216Y49440423D01*
X29818219Y49440422D01*
X29911681Y49415379D01*
X29970943Y49399500D01*
X29970944Y49399500D01*
X30129056Y49399500D01*
X30129057Y49399500D01*
X30281784Y49440423D01*
X30418716Y49519480D01*
X30530520Y49631284D01*
X30609577Y49768216D01*
X30650500Y49920943D01*
X30650500Y52029057D01*
X30609577Y52181784D01*
X30609577Y52181785D01*
X30580639Y52231905D01*
X30530520Y52318716D01*
X30418716Y52430520D01*
X30416538Y52432698D01*
X30416527Y52432708D01*
X26984088Y55865147D01*
X26984076Y55865161D01*
X26868720Y55980516D01*
X26868716Y55980520D01*
X26868711Y55980523D01*
X26758569Y56044114D01*
X26758565Y56044115D01*
X26741585Y56053919D01*
X26731784Y56059578D01*
X26579061Y56100501D01*
X26579057Y56100501D01*
X26420943Y56100501D01*
X26420938Y56100501D01*
X26268214Y56059577D01*
X26268212Y56059577D01*
X26241434Y56044115D01*
X26241433Y56044115D01*
X26131288Y55980523D01*
X26131279Y55980516D01*
X26019484Y55868722D01*
X26019481Y55868718D01*
X25969360Y55781905D01*
X25969359Y55781905D01*
X25940425Y55731791D01*
X25940423Y55731786D01*
X25899499Y55579062D01*
X18659068Y55579062D01*
X18579063Y55600499D01*
X18579058Y55600500D01*
X18579057Y55600500D01*
X18420943Y55600500D01*
X18420942Y55600500D01*
X18420936Y55600499D01*
X18268219Y55559579D01*
X18268216Y55559578D01*
X18215301Y55529027D01*
X18131284Y55480520D01*
X18131283Y55480519D01*
X18131279Y55480516D01*
X18019480Y55368717D01*
X18019479Y55368715D01*
X18018320Y55366708D01*
X18011881Y55357563D01*
X17676939Y54962325D01*
X17676928Y54962309D01*
X17671452Y54952905D01*
X17661638Y54940165D01*
X11596994Y48875520D01*
X11596991Y48875516D01*
X11524515Y48749985D01*
X11524515Y48749983D01*
X11487000Y48609980D01*
X11487000Y42634761D01*
X11484783Y42618261D01*
X11482149Y42608641D01*
X11482148Y42608636D01*
X11439513Y42092313D01*
X11438486Y42086408D01*
X11438621Y42085760D01*
X11438190Y42083504D01*
X11437000Y42079057D01*
X5982508Y42079057D01*
X6075992Y42109432D01*
X6286433Y42216657D01*
X6477510Y42355483D01*
X6644517Y42522490D01*
X6783343Y42713567D01*
X6890568Y42924008D01*
X6963553Y43148632D01*
X7000500Y43381908D01*
X7000500Y43618092D01*
X6963553Y43851368D01*
X6890568Y44075992D01*
X6783343Y44286433D01*
X6731335Y44358015D01*
X6644517Y44477510D01*
X6644510Y44477518D01*
X6477517Y44644511D01*
X6477509Y44644518D01*
X6286435Y44783342D01*
X6075998Y44890565D01*
X6075990Y44890569D01*
X5851372Y44963552D01*
X5851370Y44963553D01*
X5851368Y44963553D01*
X5688489Y44989351D01*
X5618093Y45000500D01*
X5618092Y45000500D01*
X5381908Y45000500D01*
X5381906Y45000500D01*
X5241113Y44978201D01*
X5148632Y44963553D01*
X5148630Y44963553D01*
X5148627Y44963552D01*
X4924009Y44890569D01*
X4924001Y44890565D01*
X4713564Y44783342D01*
X4522490Y44644518D01*
X4522482Y44644511D01*
X4355489Y44477518D01*
X4355482Y44477510D01*
X4216658Y44286436D01*
X4109435Y44075999D01*
X4109431Y44075991D01*
X4036448Y43851373D01*
X3999500Y43618094D01*
X250500Y43618094D01*
X250500Y48698094D01*
X3999500Y48698094D01*
X3999500Y48461907D01*
X4036448Y48228628D01*
X4109431Y48004010D01*
X4109435Y48004002D01*
X4216658Y47793565D01*
X4355482Y47602491D01*
X4355489Y47602483D01*
X4522482Y47435490D01*
X4522490Y47435483D01*
X4713567Y47296657D01*
X4924008Y47189432D01*
X5148632Y47116447D01*
X5381908Y47079500D01*
X5381910Y47079500D01*
X5618090Y47079500D01*
X5618092Y47079500D01*
X5851368Y47116447D01*
X6075992Y47189432D01*
X6286433Y47296657D01*
X6477510Y47435483D01*
X6644517Y47602490D01*
X6783343Y47793567D01*
X6890568Y48004008D01*
X6963553Y48228632D01*
X7000500Y48461908D01*
X7000500Y48698092D01*
X6963553Y48931368D01*
X6890568Y49155992D01*
X6783343Y49366433D01*
X6672147Y49519480D01*
X6644517Y49557510D01*
X6644510Y49557518D01*
X6477517Y49724511D01*
X6477509Y49724518D01*
X6286435Y49863342D01*
X6075998Y49970565D01*
X6075990Y49970569D01*
X5851372Y50043552D01*
X5851370Y50043553D01*
X5851368Y50043553D01*
X5688489Y50069351D01*
X5618093Y50080500D01*
X5618092Y50080500D01*
X5381908Y50080500D01*
X5381906Y50080500D01*
X5241113Y50058201D01*
X5148632Y50043553D01*
X5148630Y50043553D01*
X5148627Y50043552D01*
X4924009Y49970569D01*
X4924001Y49970565D01*
X4713564Y49863342D01*
X4522490Y49724518D01*
X4522482Y49724511D01*
X4355489Y49557518D01*
X4355482Y49557510D01*
X4216658Y49366436D01*
X4109435Y49155999D01*
X4109431Y49155991D01*
X4036448Y48931373D01*
X3999500Y48698094D01*
X250500Y48698094D01*
X250500Y54568994D01*
X2799500Y54568994D01*
X2799500Y54431007D01*
X2826419Y54295674D01*
X2826419Y54295673D01*
X2875600Y54176941D01*
X2879225Y54168189D01*
X2955886Y54053458D01*
X3053458Y53955886D01*
X3168189Y53879225D01*
X3295672Y53826420D01*
X3431007Y53799500D01*
X3568993Y53799500D01*
X3704328Y53826420D01*
X3831811Y53879225D01*
X3946542Y53955886D01*
X4044114Y54053458D01*
X4120775Y54168189D01*
X4173580Y54295672D01*
X4200500Y54431007D01*
X4200500Y54568993D01*
X4200500Y54568994D01*
X4799500Y54568994D01*
X4799500Y54431007D01*
X4826419Y54295674D01*
X4826419Y54295673D01*
X4875600Y54176941D01*
X4879225Y54168189D01*
X4955886Y54053458D01*
X5053458Y53955886D01*
X5168189Y53879225D01*
X5295672Y53826420D01*
X5431007Y53799500D01*
X5568993Y53799500D01*
X5704328Y53826420D01*
X5831811Y53879225D01*
X5946542Y53955886D01*
X6044114Y54053458D01*
X6120775Y54168189D01*
X6173580Y54295672D01*
X6200500Y54431007D01*
X6200500Y54568993D01*
X6200500Y54568994D01*
X6799500Y54568994D01*
X6799500Y54431007D01*
X6826419Y54295674D01*
X6826419Y54295673D01*
X6875600Y54176941D01*
X6879225Y54168189D01*
X6955886Y54053458D01*
X7053458Y53955886D01*
X7168189Y53879225D01*
X7295672Y53826420D01*
X7431007Y53799500D01*
X7568993Y53799500D01*
X7704328Y53826420D01*
X7831811Y53879225D01*
X7946542Y53955886D01*
X8044114Y54053458D01*
X8120775Y54168189D01*
X8173580Y54295672D01*
X8200500Y54431007D01*
X8200500Y54568993D01*
X8173580Y54704328D01*
X8120775Y54831811D01*
X8044114Y54946542D01*
X7946542Y55044114D01*
X7932558Y55053458D01*
X7831813Y55120774D01*
X7831811Y55120775D01*
X7704326Y55173581D01*
X7568993Y55200500D01*
X7431007Y55200500D01*
X7295673Y55173581D01*
X7295672Y55173581D01*
X7168188Y55120775D01*
X7168186Y55120774D01*
X7053458Y55044115D01*
X6955885Y54946542D01*
X6879226Y54831814D01*
X6879225Y54831812D01*
X6826419Y54704328D01*
X6826419Y54704327D01*
X6799500Y54568994D01*
X6200500Y54568994D01*
X6173580Y54704328D01*
X6120775Y54831811D01*
X6044114Y54946542D01*
X5946542Y55044114D01*
X5932558Y55053458D01*
X5831813Y55120774D01*
X5831811Y55120775D01*
X5704326Y55173581D01*
X5568993Y55200500D01*
X5431007Y55200500D01*
X5295673Y55173581D01*
X5295672Y55173581D01*
X5168188Y55120775D01*
X5168186Y55120774D01*
X5053458Y55044115D01*
X4955885Y54946542D01*
X4879226Y54831814D01*
X4879225Y54831812D01*
X4826419Y54704328D01*
X4826419Y54704327D01*
X4799500Y54568994D01*
X4200500Y54568994D01*
X4173580Y54704328D01*
X4120775Y54831811D01*
X4044114Y54946542D01*
X3946542Y55044114D01*
X3932558Y55053458D01*
X3831813Y55120774D01*
X3831811Y55120775D01*
X3704326Y55173581D01*
X3568993Y55200500D01*
X3431007Y55200500D01*
X3295673Y55173581D01*
X3295672Y55173581D01*
X3168188Y55120775D01*
X3168186Y55120774D01*
X3053458Y55044115D01*
X2955885Y54946542D01*
X2879226Y54831814D01*
X2879225Y54831812D01*
X2826419Y54704328D01*
X2826419Y54704327D01*
X2799500Y54568994D01*
X250500Y54568994D01*
X250500Y65568994D01*
X14299500Y65568994D01*
X14299500Y65431007D01*
X14326419Y65295674D01*
X14326419Y65295673D01*
X14379225Y65168189D01*
X14455886Y65053458D01*
X14553458Y64955886D01*
X14668189Y64879225D01*
X14795672Y64826420D01*
X14931007Y64799500D01*
X15068993Y64799500D01*
X15204328Y64826420D01*
X15331811Y64879225D01*
X15446542Y64955886D01*
X15544114Y65053458D01*
X15620775Y65168189D01*
X15673580Y65295672D01*
X15700500Y65431007D01*
X15700500Y65568993D01*
X15673580Y65704328D01*
X15620775Y65831811D01*
X15544114Y65946542D01*
X15446542Y66044114D01*
X15446541Y66044115D01*
X15331813Y66120774D01*
X15331811Y66120775D01*
X15204326Y66173581D01*
X15068993Y66200500D01*
X14931007Y66200500D01*
X14795673Y66173581D01*
X14795672Y66173581D01*
X14668188Y66120775D01*
X14668186Y66120774D01*
X14553458Y66044115D01*
X14455885Y65946542D01*
X14379226Y65831814D01*
X14379225Y65831812D01*
X14326419Y65704328D01*
X14326419Y65704327D01*
X14299500Y65568994D01*
X250500Y65568994D01*
X250500Y67568994D01*
X14299500Y67568994D01*
X14299500Y67431007D01*
X14326419Y67295674D01*
X14326419Y67295673D01*
X14379225Y67168189D01*
X14379226Y67168187D01*
X14455885Y67053459D01*
X14455886Y67053458D01*
X14553458Y66955886D01*
X14668189Y66879225D01*
X14795672Y66826420D01*
X14931007Y66799500D01*
X15068993Y66799500D01*
X15204328Y66826420D01*
X15331811Y66879225D01*
X15446542Y66955886D01*
X15544114Y67053458D01*
X15620775Y67168189D01*
X15673580Y67295672D01*
X15700500Y67431007D01*
X15700500Y67568993D01*
X15673580Y67704328D01*
X15620775Y67831811D01*
X15544114Y67946542D01*
X15446542Y68044114D01*
X15410471Y68068216D01*
X15331813Y68120774D01*
X15331811Y68120775D01*
X15204326Y68173581D01*
X15068993Y68200500D01*
X14931007Y68200500D01*
X14795673Y68173581D01*
X14795672Y68173581D01*
X14668188Y68120775D01*
X14668186Y68120774D01*
X14553458Y68044115D01*
X14455885Y67946542D01*
X14379226Y67831814D01*
X14379225Y67831812D01*
X14326419Y67704328D01*
X14326419Y67704327D01*
X14299500Y67568994D01*
X250500Y67568994D01*
X250500Y69568994D01*
X14299500Y69568994D01*
X14299500Y69431007D01*
X14326419Y69295674D01*
X14326419Y69295673D01*
X14374554Y69179466D01*
X14379225Y69168189D01*
X14455886Y69053458D01*
X14553458Y68955886D01*
X14668189Y68879225D01*
X14795672Y68826420D01*
X14931007Y68799500D01*
X15068993Y68799500D01*
X15204328Y68826420D01*
X15331811Y68879225D01*
X15446542Y68955886D01*
X15544114Y69053458D01*
X15620775Y69168189D01*
X15673580Y69295672D01*
X15700500Y69431007D01*
X15700500Y69568993D01*
X15700500Y69568994D01*
X16299500Y69568994D01*
X16299500Y69431007D01*
X16326419Y69295674D01*
X16326419Y69295673D01*
X16374554Y69179466D01*
X16379225Y69168189D01*
X16455886Y69053458D01*
X16553458Y68955886D01*
X16668189Y68879225D01*
X16795672Y68826420D01*
X16931007Y68799500D01*
X17068993Y68799500D01*
X17204328Y68826420D01*
X17331811Y68879225D01*
X17446542Y68955886D01*
X17544114Y69053458D01*
X17620775Y69168189D01*
X17673580Y69295672D01*
X17700500Y69431007D01*
X17700500Y69568993D01*
X17700500Y69568994D01*
X18299500Y69568994D01*
X18299500Y69431007D01*
X18326419Y69295674D01*
X18326419Y69295673D01*
X18374554Y69179466D01*
X18379225Y69168189D01*
X18455886Y69053458D01*
X18553458Y68955886D01*
X18668189Y68879225D01*
X18795672Y68826420D01*
X18931007Y68799500D01*
X19068993Y68799500D01*
X19204328Y68826420D01*
X19331811Y68879225D01*
X19446542Y68955886D01*
X19544114Y69053458D01*
X19620775Y69168189D01*
X19673580Y69295672D01*
X19700500Y69431007D01*
X19700500Y69568993D01*
X19673580Y69704328D01*
X19620775Y69831811D01*
X19544114Y69946542D01*
X19446542Y70044114D01*
X19446541Y70044115D01*
X19331813Y70120774D01*
X19331811Y70120775D01*
X19204326Y70173581D01*
X19068993Y70200500D01*
X18931007Y70200500D01*
X18795673Y70173581D01*
X18795672Y70173581D01*
X18668188Y70120775D01*
X18668186Y70120774D01*
X18553458Y70044115D01*
X18455885Y69946542D01*
X18379226Y69831814D01*
X18379225Y69831812D01*
X18326419Y69704328D01*
X18326419Y69704327D01*
X18299500Y69568994D01*
X17700500Y69568994D01*
X17673580Y69704328D01*
X17620775Y69831811D01*
X17544114Y69946542D01*
X17446542Y70044114D01*
X17446541Y70044115D01*
X17331813Y70120774D01*
X17331811Y70120775D01*
X17204326Y70173581D01*
X17068993Y70200500D01*
X16931007Y70200500D01*
X16795673Y70173581D01*
X16795672Y70173581D01*
X16668188Y70120775D01*
X16668186Y70120774D01*
X16553458Y70044115D01*
X16455885Y69946542D01*
X16379226Y69831814D01*
X16379225Y69831812D01*
X16326419Y69704328D01*
X16326419Y69704327D01*
X16299500Y69568994D01*
X15700500Y69568994D01*
X15673580Y69704328D01*
X15620775Y69831811D01*
X15544114Y69946542D01*
X15446542Y70044114D01*
X15446541Y70044115D01*
X15331813Y70120774D01*
X15331811Y70120775D01*
X15204326Y70173581D01*
X15068993Y70200500D01*
X14931007Y70200500D01*
X14795673Y70173581D01*
X14795672Y70173581D01*
X14668188Y70120775D01*
X14668186Y70120774D01*
X14553458Y70044115D01*
X14455885Y69946542D01*
X14379226Y69831814D01*
X14379225Y69831812D01*
X14326419Y69704328D01*
X14326419Y69704327D01*
X14299500Y69568994D01*
X250500Y69568994D01*
X250500Y71568994D01*
X14299500Y71568994D01*
X14299500Y71431007D01*
X14326419Y71295674D01*
X14326419Y71295673D01*
X14379225Y71168189D01*
X14379226Y71168187D01*
X14438781Y71079057D01*
X14455886Y71053458D01*
X14553458Y70955886D01*
X14668189Y70879225D01*
X14795672Y70826420D01*
X14931007Y70799500D01*
X15068993Y70799500D01*
X15204328Y70826420D01*
X15331811Y70879225D01*
X15446542Y70955886D01*
X15544114Y71053458D01*
X15620775Y71168189D01*
X15673580Y71295672D01*
X15700500Y71431007D01*
X15700500Y71568993D01*
X15673580Y71704328D01*
X15620775Y71831811D01*
X15544114Y71946542D01*
X15446542Y72044114D01*
X15446541Y72044115D01*
X15331813Y72120774D01*
X15331811Y72120775D01*
X15204326Y72173581D01*
X15068993Y72200500D01*
X14931007Y72200500D01*
X14795673Y72173581D01*
X14795672Y72173581D01*
X14668188Y72120775D01*
X14668186Y72120774D01*
X14553458Y72044115D01*
X14455885Y71946542D01*
X14379226Y71831814D01*
X14379225Y71831812D01*
X14326419Y71704328D01*
X14326419Y71704327D01*
X14299500Y71568994D01*
X250500Y71568994D01*
X250500Y73568994D01*
X14299500Y73568994D01*
X14299500Y73431007D01*
X14326419Y73295674D01*
X14326419Y73295673D01*
X14379225Y73168189D01*
X14455886Y73053458D01*
X14553458Y72955886D01*
X14668189Y72879225D01*
X14795672Y72826420D01*
X14931007Y72799500D01*
X15068993Y72799500D01*
X15204328Y72826420D01*
X15331811Y72879225D01*
X15446542Y72955886D01*
X15544114Y73053458D01*
X15620775Y73168189D01*
X15673580Y73295672D01*
X15700500Y73431007D01*
X15700500Y73568993D01*
X15673580Y73704328D01*
X15620775Y73831811D01*
X15544114Y73946542D01*
X15446542Y74044114D01*
X15446541Y74044115D01*
X15331813Y74120774D01*
X15331811Y74120775D01*
X15204326Y74173581D01*
X15068993Y74200500D01*
X14931007Y74200500D01*
X14795673Y74173581D01*
X14795672Y74173581D01*
X14668188Y74120775D01*
X14668186Y74120774D01*
X14553458Y74044115D01*
X14455885Y73946542D01*
X14379226Y73831814D01*
X14379225Y73831812D01*
X14326419Y73704328D01*
X14326419Y73704327D01*
X14299500Y73568994D01*
X250500Y73568994D01*
X250500Y75568994D01*
X14299500Y75568994D01*
X14299500Y75431007D01*
X14326419Y75295674D01*
X14326419Y75295673D01*
X14379225Y75168189D01*
X14455886Y75053458D01*
X14553458Y74955886D01*
X14668189Y74879225D01*
X14795672Y74826420D01*
X14931007Y74799500D01*
X15068993Y74799500D01*
X15204328Y74826420D01*
X15331811Y74879225D01*
X15446542Y74955886D01*
X15544114Y75053458D01*
X15620775Y75168189D01*
X15673580Y75295672D01*
X15700500Y75431007D01*
X15700500Y75568993D01*
X15673580Y75704328D01*
X15620775Y75831811D01*
X15544114Y75946542D01*
X15446542Y76044114D01*
X15394248Y76079056D01*
X15331813Y76120774D01*
X15331811Y76120775D01*
X15204326Y76173581D01*
X15068993Y76200500D01*
X14931007Y76200500D01*
X14795673Y76173581D01*
X14795672Y76173581D01*
X14668188Y76120775D01*
X14668186Y76120774D01*
X14553458Y76044115D01*
X14455885Y75946542D01*
X14379226Y75831814D01*
X14379225Y75831812D01*
X14326419Y75704328D01*
X14326419Y75704327D01*
X14299500Y75568994D01*
X250500Y75568994D01*
X250500Y85112773D01*
X3279500Y85112773D01*
X3279500Y84887228D01*
X3308938Y84663624D01*
X3308938Y84663623D01*
X3367309Y84445782D01*
X3453617Y84237413D01*
X3453618Y84237410D01*
X3453619Y84237409D01*
X3566387Y84042090D01*
X3703684Y83863161D01*
X3863161Y83703684D01*
X4042090Y83566387D01*
X4237409Y83453619D01*
X4445777Y83367311D01*
X4445781Y83367310D01*
X4626377Y83318919D01*
X4663627Y83308938D01*
X4887232Y83279500D01*
X4887238Y83279500D01*
X5112762Y83279500D01*
X5112768Y83279500D01*
X5336373Y83308938D01*
X5554223Y83367311D01*
X5762591Y83453619D01*
X5957910Y83566387D01*
X6136839Y83703684D01*
X6296316Y83863161D01*
X6433613Y84042090D01*
X6546381Y84237409D01*
X6632689Y84445777D01*
X6691062Y84663627D01*
X6720500Y84887232D01*
X6720500Y85112768D01*
X6720499Y85112773D01*
X93279500Y85112773D01*
X93279500Y84887228D01*
X93308938Y84663624D01*
X93308938Y84663623D01*
X93367309Y84445782D01*
X93453617Y84237413D01*
X93453618Y84237410D01*
X93453619Y84237409D01*
X93566387Y84042090D01*
X93703684Y83863161D01*
X93863161Y83703684D01*
X94042090Y83566387D01*
X94237409Y83453619D01*
X94445777Y83367311D01*
X94445781Y83367310D01*
X94626377Y83318919D01*
X94663627Y83308938D01*
X94887232Y83279500D01*
X94887238Y83279500D01*
X95112762Y83279500D01*
X95112768Y83279500D01*
X95336373Y83308938D01*
X95554223Y83367311D01*
X95762591Y83453619D01*
X95957910Y83566387D01*
X96136839Y83703684D01*
X96296316Y83863161D01*
X96433613Y84042090D01*
X96546381Y84237409D01*
X96632689Y84445777D01*
X96691062Y84663627D01*
X96720500Y84887232D01*
X96720500Y85112768D01*
X96691062Y85336373D01*
X96690400Y85338842D01*
X96632690Y85554219D01*
X96632689Y85554223D01*
X96546381Y85762591D01*
X96433613Y85957910D01*
X96296316Y86136839D01*
X96136839Y86296316D01*
X96136835Y86296319D01*
X96136833Y86296321D01*
X95957907Y86433615D01*
X95762590Y86546382D01*
X95762587Y86546383D01*
X95554218Y86632691D01*
X95336376Y86691062D01*
X95112772Y86720500D01*
X95112768Y86720500D01*
X94887232Y86720500D01*
X94887227Y86720500D01*
X94663623Y86691062D01*
X94663622Y86691062D01*
X94445781Y86632691D01*
X94237412Y86546383D01*
X94237409Y86546382D01*
X94042092Y86433615D01*
X93863166Y86296321D01*
X93863156Y86296312D01*
X93703688Y86136844D01*
X93703679Y86136834D01*
X93566385Y85957908D01*
X93453618Y85762591D01*
X93453617Y85762588D01*
X93367309Y85554219D01*
X93308938Y85336378D01*
X93308938Y85336377D01*
X93279500Y85112773D01*
X6720499Y85112773D01*
X6691062Y85336373D01*
X6690400Y85338842D01*
X6632690Y85554219D01*
X6632689Y85554223D01*
X6546381Y85762591D01*
X6433613Y85957910D01*
X6296316Y86136839D01*
X6136839Y86296316D01*
X6136835Y86296319D01*
X6136833Y86296321D01*
X5957907Y86433615D01*
X5762590Y86546382D01*
X5762587Y86546383D01*
X5554218Y86632691D01*
X5336376Y86691062D01*
X5112772Y86720500D01*
X5112768Y86720500D01*
X4887232Y86720500D01*
X4887227Y86720500D01*
X4663623Y86691062D01*
X4663622Y86691062D01*
X4445781Y86632691D01*
X4237412Y86546383D01*
X4237409Y86546382D01*
X4042092Y86433615D01*
X3863166Y86296321D01*
X3863156Y86296312D01*
X3703688Y86136844D01*
X3703679Y86136834D01*
X3566385Y85957908D01*
X3453618Y85762591D01*
X3453617Y85762588D01*
X3367309Y85554219D01*
X3308938Y85336378D01*
X3308938Y85336377D01*
X3279500Y85112773D01*
X250500Y85112773D01*
X250500Y87114739D01*
X46649500Y87114739D01*
X46649500Y86885262D01*
X46679452Y86657760D01*
X46679452Y86657758D01*
X46738840Y86436119D01*
X46826653Y86224118D01*
X46826656Y86224112D01*
X46941389Y86025388D01*
X47081081Y85843339D01*
X47243339Y85681081D01*
X47425388Y85541389D01*
X47624112Y85426656D01*
X47836113Y85338842D01*
X48057762Y85279452D01*
X48285266Y85249500D01*
X48285272Y85249500D01*
X48514728Y85249500D01*
X48514734Y85249500D01*
X48742238Y85279452D01*
X48963887Y85338842D01*
X49175888Y85426656D01*
X49374612Y85541389D01*
X49556661Y85681081D01*
X49718919Y85843339D01*
X49858611Y86025388D01*
X49973344Y86224112D01*
X50061158Y86436113D01*
X50120548Y86657762D01*
X50150500Y86885266D01*
X50150500Y87114734D01*
X50150499Y87114739D01*
X53849500Y87114739D01*
X53849500Y86885262D01*
X53879452Y86657760D01*
X53879452Y86657758D01*
X53938840Y86436119D01*
X54026653Y86224118D01*
X54026656Y86224112D01*
X54141389Y86025388D01*
X54281081Y85843339D01*
X54443339Y85681081D01*
X54625388Y85541389D01*
X54824112Y85426656D01*
X55036113Y85338842D01*
X55257762Y85279452D01*
X55485266Y85249500D01*
X55485272Y85249500D01*
X55714728Y85249500D01*
X55714734Y85249500D01*
X55942238Y85279452D01*
X56163887Y85338842D01*
X56375888Y85426656D01*
X56574612Y85541389D01*
X56756661Y85681081D01*
X56918919Y85843339D01*
X57058611Y86025388D01*
X57173344Y86224112D01*
X57261158Y86436113D01*
X57320548Y86657762D01*
X57350500Y86885266D01*
X57350500Y87114734D01*
X57350499Y87114739D01*
X61649500Y87114739D01*
X61649500Y86885262D01*
X61679452Y86657760D01*
X61679452Y86657758D01*
X61738840Y86436119D01*
X61826653Y86224118D01*
X61826656Y86224112D01*
X61941389Y86025388D01*
X62081081Y85843339D01*
X62243339Y85681081D01*
X62425388Y85541389D01*
X62624112Y85426656D01*
X62836113Y85338842D01*
X63057762Y85279452D01*
X63285266Y85249500D01*
X63285272Y85249500D01*
X63514728Y85249500D01*
X63514734Y85249500D01*
X63742238Y85279452D01*
X63963887Y85338842D01*
X64175888Y85426656D01*
X64374612Y85541389D01*
X64556661Y85681081D01*
X64718919Y85843339D01*
X64858611Y86025388D01*
X64973344Y86224112D01*
X65061158Y86436113D01*
X65120548Y86657762D01*
X65150500Y86885266D01*
X65150500Y87114734D01*
X65150499Y87114739D01*
X68849500Y87114739D01*
X68849500Y86885262D01*
X68879452Y86657760D01*
X68879452Y86657758D01*
X68938840Y86436119D01*
X69026653Y86224118D01*
X69026656Y86224112D01*
X69141389Y86025388D01*
X69281081Y85843339D01*
X69443339Y85681081D01*
X69625388Y85541389D01*
X69824112Y85426656D01*
X70036113Y85338842D01*
X70257762Y85279452D01*
X70485266Y85249500D01*
X70485272Y85249500D01*
X70714728Y85249500D01*
X70714734Y85249500D01*
X70942238Y85279452D01*
X71163887Y85338842D01*
X71375888Y85426656D01*
X71574612Y85541389D01*
X71756661Y85681081D01*
X71918919Y85843339D01*
X72058611Y86025388D01*
X72173344Y86224112D01*
X72261158Y86436113D01*
X72320548Y86657762D01*
X72350500Y86885266D01*
X72350500Y87114734D01*
X72320548Y87342238D01*
X72261158Y87563887D01*
X72173344Y87775888D01*
X72058611Y87974612D01*
X71918919Y88156661D01*
X71756661Y88318919D01*
X71574612Y88458611D01*
X71558316Y88468020D01*
X71375894Y88573341D01*
X71375882Y88573347D01*
X71266763Y88618546D01*
X71163887Y88661158D01*
X71163883Y88661159D01*
X71163881Y88661160D01*
X71163882Y88661160D01*
X70942241Y88720548D01*
X70714738Y88750500D01*
X70714734Y88750500D01*
X70485266Y88750500D01*
X70485261Y88750500D01*
X70257759Y88720548D01*
X70257757Y88720548D01*
X70036118Y88661160D01*
X69824117Y88573347D01*
X69824105Y88573341D01*
X69625394Y88458615D01*
X69625391Y88458613D01*
X69625388Y88458611D01*
X69528823Y88384514D01*
X69443337Y88318918D01*
X69281082Y88156663D01*
X69269752Y88141897D01*
X69141389Y87974612D01*
X69141387Y87974609D01*
X69141385Y87974606D01*
X69026659Y87775895D01*
X69026653Y87775883D01*
X68938840Y87563882D01*
X68879452Y87342243D01*
X68879452Y87342241D01*
X68849500Y87114739D01*
X65150499Y87114739D01*
X65120548Y87342238D01*
X65061158Y87563887D01*
X64973344Y87775888D01*
X64858611Y87974612D01*
X64718919Y88156661D01*
X64556661Y88318919D01*
X64374612Y88458611D01*
X64358316Y88468020D01*
X64175894Y88573341D01*
X64175882Y88573347D01*
X64066763Y88618546D01*
X63963887Y88661158D01*
X63963883Y88661159D01*
X63963881Y88661160D01*
X63963882Y88661160D01*
X63742241Y88720548D01*
X63514738Y88750500D01*
X63514734Y88750500D01*
X63285266Y88750500D01*
X63285261Y88750500D01*
X63057759Y88720548D01*
X63057757Y88720548D01*
X62836118Y88661160D01*
X62624117Y88573347D01*
X62624105Y88573341D01*
X62425394Y88458615D01*
X62425391Y88458613D01*
X62425388Y88458611D01*
X62328823Y88384514D01*
X62243337Y88318918D01*
X62081082Y88156663D01*
X62069752Y88141897D01*
X61941389Y87974612D01*
X61941387Y87974609D01*
X61941385Y87974606D01*
X61826659Y87775895D01*
X61826653Y87775883D01*
X61738840Y87563882D01*
X61679452Y87342243D01*
X61679452Y87342241D01*
X61649500Y87114739D01*
X57350499Y87114739D01*
X57320548Y87342238D01*
X57261158Y87563887D01*
X57173344Y87775888D01*
X57058611Y87974612D01*
X56918919Y88156661D01*
X56756661Y88318919D01*
X56574612Y88458611D01*
X56558316Y88468020D01*
X56375894Y88573341D01*
X56375882Y88573347D01*
X56266763Y88618546D01*
X56163887Y88661158D01*
X56163883Y88661159D01*
X56163881Y88661160D01*
X56163882Y88661160D01*
X55942241Y88720548D01*
X55714738Y88750500D01*
X55714734Y88750500D01*
X55485266Y88750500D01*
X55485261Y88750500D01*
X55257759Y88720548D01*
X55257757Y88720548D01*
X55036118Y88661160D01*
X54824117Y88573347D01*
X54824105Y88573341D01*
X54625394Y88458615D01*
X54625391Y88458613D01*
X54625388Y88458611D01*
X54528823Y88384514D01*
X54443337Y88318918D01*
X54281082Y88156663D01*
X54269752Y88141897D01*
X54141389Y87974612D01*
X54141387Y87974609D01*
X54141385Y87974606D01*
X54026659Y87775895D01*
X54026653Y87775883D01*
X53938840Y87563882D01*
X53879452Y87342243D01*
X53879452Y87342241D01*
X53849500Y87114739D01*
X50150499Y87114739D01*
X50120548Y87342238D01*
X50061158Y87563887D01*
X49973344Y87775888D01*
X49858611Y87974612D01*
X49718919Y88156661D01*
X49556661Y88318919D01*
X49374612Y88458611D01*
X49358316Y88468020D01*
X49175894Y88573341D01*
X49175882Y88573347D01*
X49066763Y88618546D01*
X48963887Y88661158D01*
X48963883Y88661159D01*
X48963881Y88661160D01*
X48963882Y88661160D01*
X48742241Y88720548D01*
X48514738Y88750500D01*
X48514734Y88750500D01*
X48285266Y88750500D01*
X48285261Y88750500D01*
X48057759Y88720548D01*
X48057757Y88720548D01*
X47836118Y88661160D01*
X47624117Y88573347D01*
X47624105Y88573341D01*
X47425394Y88458615D01*
X47425391Y88458613D01*
X47425388Y88458611D01*
X47328823Y88384514D01*
X47243337Y88318918D01*
X47081082Y88156663D01*
X47069752Y88141897D01*
X46941389Y87974612D01*
X46941387Y87974609D01*
X46941385Y87974606D01*
X46826659Y87775895D01*
X46826653Y87775883D01*
X46738840Y87563882D01*
X46679452Y87342243D01*
X46679452Y87342241D01*
X46649500Y87114739D01*
X250500Y87114739D01*
X250500Y87870351D01*
X268806Y87914545D01*
X2085455Y89731194D01*
X2129649Y89749500D01*
X97870351Y89749500D01*
X97914545Y89731194D01*
G37*
%TD.AperFunction*%
%TD*%
%TA.AperFunction,Conductor*%
%TO.N,+15V*%
G36*
X33779227Y12410920D02*
G01*
X34018734Y12252016D01*
X34022015Y12248735D01*
X34180919Y12009228D01*
X34182638Y12000440D01*
X34178734Y11993834D01*
X33784807Y11660002D01*
X33776280Y11657268D01*
X33768970Y11660655D01*
X33430654Y11998971D01*
X33427227Y12007244D01*
X33430001Y12014808D01*
X33629913Y12250707D01*
X33763834Y12408736D01*
X33771796Y12412831D01*
X33779227Y12410920D01*
G37*
%TD.AperFunction*%
%TD*%
%TA.AperFunction,Conductor*%
%TO.N,Net-(Q1-G)*%
G36*
X89939631Y71340646D02*
G01*
X89943535Y71334040D01*
X90000530Y71052320D01*
X90000530Y71047680D01*
X89943535Y70765961D01*
X89938535Y70758532D01*
X89931104Y70756621D01*
X89416501Y70799114D01*
X89408538Y70803210D01*
X89405764Y70810774D01*
X89405764Y71289227D01*
X89409191Y71297500D01*
X89416499Y71300887D01*
X89931104Y71343380D01*
X89939631Y71340646D01*
G37*
%TD.AperFunction*%
%TD*%
%TA.AperFunction,Conductor*%
%TO.N,+12V*%
G36*
X33251029Y77589346D02*
G01*
X33589345Y77251030D01*
X33592772Y77242757D01*
X33589998Y77235193D01*
X33256166Y76841266D01*
X33248203Y76837170D01*
X33240772Y76839081D01*
X33001265Y76997985D01*
X32997984Y77001266D01*
X32839080Y77240773D01*
X32837361Y77249561D01*
X32841264Y77256166D01*
X33235192Y77590000D01*
X33243719Y77592733D01*
X33251029Y77589346D01*
G37*
%TD.AperFunction*%
%TD*%
%TA.AperFunction,Conductor*%
%TO.N,+5V*%
G36*
X27577233Y12005997D02*
G01*
X28055182Y11755463D01*
X28060918Y11748588D01*
X28060113Y11739669D01*
X28059499Y11738633D01*
X27902015Y11501266D01*
X27898734Y11497985D01*
X27661367Y11340501D01*
X27652579Y11338782D01*
X27645150Y11343782D01*
X27644541Y11344809D01*
X27394003Y11822766D01*
X27393199Y11831684D01*
X27396092Y11836468D01*
X27563531Y12003907D01*
X27571803Y12007333D01*
X27577233Y12005997D01*
G37*
%TD.AperFunction*%
%TD*%
%TA.AperFunction,Conductor*%
%TO.N,+15V*%
G36*
X33051029Y68889346D02*
G01*
X33389345Y68551030D01*
X33392772Y68542757D01*
X33389998Y68535193D01*
X33056166Y68141266D01*
X33048203Y68137170D01*
X33040772Y68139081D01*
X32801265Y68297985D01*
X32797984Y68301266D01*
X32639080Y68540773D01*
X32637361Y68549561D01*
X32641264Y68556166D01*
X33035192Y68890000D01*
X33043719Y68892733D01*
X33051029Y68889346D01*
G37*
%TD.AperFunction*%
%TD*%
%TA.AperFunction,Conductor*%
%TO.N,+15V*%
G36*
X35259227Y71160920D02*
G01*
X35498734Y71002016D01*
X35502015Y70998735D01*
X35660919Y70759228D01*
X35662638Y70750440D01*
X35658734Y70743834D01*
X35264807Y70410002D01*
X35256280Y70407268D01*
X35248970Y70410655D01*
X34910654Y70748971D01*
X34907227Y70757244D01*
X34910001Y70764808D01*
X35109913Y71000707D01*
X35243834Y71158736D01*
X35251796Y71162831D01*
X35259227Y71160920D01*
G37*
%TD.AperFunction*%
%TD*%
%TA.AperFunction,Conductor*%
%TO.N,+15V*%
G36*
X19583499Y6775887D02*
G01*
X19591462Y6771791D01*
X19594236Y6764227D01*
X19594236Y6285774D01*
X19590809Y6277501D01*
X19583499Y6274114D01*
X19068895Y6231621D01*
X19060368Y6234355D01*
X19056464Y6240961D01*
X18999469Y6522680D01*
X18999469Y6527320D01*
X19049578Y6775000D01*
X19056464Y6809041D01*
X19061464Y6816469D01*
X19068894Y6818380D01*
X19583499Y6775887D01*
G37*
%TD.AperFunction*%
%TD*%
%TA.AperFunction,Conductor*%
%TO.N,+15V*%
G36*
X45177134Y55715766D02*
G01*
X45498743Y55502012D01*
X45502011Y55498744D01*
X45715765Y55177135D01*
X45717491Y55168348D01*
X45712518Y55160929D01*
X45124508Y54768304D01*
X45115725Y54766560D01*
X45109738Y54769761D01*
X44769760Y55109739D01*
X44766333Y55118012D01*
X44768303Y55124509D01*
X45160930Y55712521D01*
X45168372Y55717496D01*
X45177134Y55715766D01*
G37*
%TD.AperFunction*%
%TD*%
%TA.AperFunction,Conductor*%
%TO.N,+15V*%
G36*
X36083499Y71250887D02*
G01*
X36091462Y71246791D01*
X36094236Y71239227D01*
X36094236Y70760774D01*
X36090809Y70752501D01*
X36083499Y70749114D01*
X35568895Y70706621D01*
X35560368Y70709355D01*
X35556464Y70715961D01*
X35499469Y70997680D01*
X35499469Y71002320D01*
X35549578Y71250000D01*
X35556464Y71284041D01*
X35561464Y71291469D01*
X35568894Y71293380D01*
X36083499Y71250887D01*
G37*
%TD.AperFunction*%
%TD*%
%TA.AperFunction,Conductor*%
%TO.N,Net-(Q1-G)*%
G36*
X46501029Y73099346D02*
G01*
X46839345Y72761030D01*
X46842772Y72752757D01*
X46839998Y72745193D01*
X46506166Y72351266D01*
X46498203Y72347170D01*
X46490772Y72349081D01*
X46251265Y72507985D01*
X46247984Y72511266D01*
X46089080Y72750773D01*
X46087361Y72759561D01*
X46091264Y72766166D01*
X46485192Y73100000D01*
X46493719Y73102733D01*
X46501029Y73099346D01*
G37*
%TD.AperFunction*%
%TD*%
%TA.AperFunction,Conductor*%
%TO.N,+15V*%
G36*
X34267500Y12840809D02*
G01*
X34270887Y12833499D01*
X34313379Y12318896D01*
X34310645Y12310369D01*
X34304039Y12306465D01*
X34022320Y12249470D01*
X34017680Y12249470D01*
X33735960Y12306465D01*
X33728531Y12311465D01*
X33726620Y12318896D01*
X33769113Y12833499D01*
X33773209Y12841462D01*
X33780773Y12844236D01*
X34259227Y12844236D01*
X34267500Y12840809D01*
G37*
%TD.AperFunction*%
%TD*%
%TA.AperFunction,Conductor*%
%TO.N,VIN+*%
G36*
X12285000Y42590809D02*
G01*
X12288387Y42583499D01*
X12330879Y42068896D01*
X12328145Y42060369D01*
X12321539Y42056465D01*
X12039820Y41999470D01*
X12035180Y41999470D01*
X11753460Y42056465D01*
X11746031Y42061465D01*
X11744120Y42068896D01*
X11786613Y42583499D01*
X11790709Y42591462D01*
X11798273Y42594236D01*
X12276727Y42594236D01*
X12285000Y42590809D01*
G37*
%TD.AperFunction*%
%TD*%
%TA.AperFunction,Conductor*%
%TO.N,VIN+*%
G36*
X18259227Y55160920D02*
G01*
X18498734Y55002016D01*
X18502015Y54998735D01*
X18660919Y54759228D01*
X18662638Y54750440D01*
X18658734Y54743834D01*
X18264807Y54410002D01*
X18256280Y54407268D01*
X18248970Y54410655D01*
X17910654Y54748971D01*
X17907227Y54757244D01*
X17910001Y54764808D01*
X18109913Y55000707D01*
X18243834Y55158736D01*
X18251796Y55162831D01*
X18259227Y55160920D01*
G37*
%TD.AperFunction*%
%TD*%
%TA.AperFunction,Conductor*%
%TO.N,+5V*%
G36*
X17254849Y16656219D02*
G01*
X17255463Y16655183D01*
X17505995Y16177236D01*
X17506800Y16168317D01*
X17503905Y16163531D01*
X17336469Y15996095D01*
X17328196Y15992668D01*
X17322764Y15994005D01*
X17069819Y16126595D01*
X16844816Y16244538D01*
X16839081Y16251413D01*
X16839886Y16260332D01*
X16840500Y16261368D01*
X16997985Y16498737D01*
X17001263Y16502015D01*
X17238632Y16659501D01*
X17247420Y16661219D01*
X17254849Y16656219D01*
G37*
%TD.AperFunction*%
%TD*%
%TA.AperFunction,Conductor*%
%TO.N,+12V*%
G36*
X32759227Y77160920D02*
G01*
X32998734Y77002016D01*
X33002015Y76998735D01*
X33160919Y76759228D01*
X33162638Y76750440D01*
X33158734Y76743834D01*
X32764807Y76410002D01*
X32756280Y76407268D01*
X32748970Y76410655D01*
X32410654Y76748971D01*
X32407227Y76757244D01*
X32410001Y76764808D01*
X32609913Y77000707D01*
X32743834Y77158736D01*
X32751796Y77162831D01*
X32759227Y77160920D01*
G37*
%TD.AperFunction*%
%TD*%
%TA.AperFunction,Conductor*%
%TO.N,+12V*%
G36*
X12083499Y22500887D02*
G01*
X12091462Y22496791D01*
X12094236Y22489227D01*
X12094236Y22010774D01*
X12090809Y22002501D01*
X12083499Y21999114D01*
X11568895Y21956621D01*
X11560368Y21959355D01*
X11556464Y21965961D01*
X11499469Y22247680D01*
X11499469Y22252320D01*
X11549578Y22500000D01*
X11556464Y22534041D01*
X11561464Y22541469D01*
X11568894Y22543380D01*
X12083499Y22500887D01*
G37*
%TD.AperFunction*%
%TD*%
%TA.AperFunction,Conductor*%
%TO.N,+12V*%
G36*
X79789923Y77684073D02*
G01*
X79791010Y77682820D01*
X80531414Y76695614D01*
X80533636Y76686939D01*
X80530331Y76680325D01*
X79545777Y75694786D01*
X79537506Y75691355D01*
X79529231Y75694778D01*
X79529223Y75694786D01*
X78544668Y76680325D01*
X78541245Y76688600D01*
X78543584Y76695613D01*
X79283990Y77682820D01*
X79291695Y77687382D01*
X79293350Y77687500D01*
X79781650Y77687500D01*
X79789923Y77684073D01*
G37*
%TD.AperFunction*%
%TD*%
%TA.AperFunction,Conductor*%
%TO.N,+15V*%
G36*
X45748675Y56288887D02*
G01*
X45751876Y56282900D01*
X45890032Y55589487D01*
X45888288Y55580704D01*
X45880869Y55575731D01*
X45502311Y55499466D01*
X45497689Y55499466D01*
X45119130Y55575731D01*
X45111697Y55580725D01*
X45109967Y55589486D01*
X45248124Y56282901D01*
X45253101Y56290344D01*
X45259598Y56292314D01*
X45740402Y56292314D01*
X45748675Y56288887D01*
G37*
%TD.AperFunction*%
%TD*%
M02*
