M48
; DRILL file {KiCad 9.0.0} date 2025-08-07T11:31:17+0800
; FORMAT={-:-/ absolute / metric / decimal}
; #@! TF.CreationDate,2025-08-07T11:31:17+08:00
; #@! TF.GenerationSoftware,Kicad,Pcbnew,9.0.0
; #@! TF.FileFunction,Plated,1,4,PTH
FMAT,2
METRIC
; #@! TA.AperFunction,Plated,PTH,ViaDrill
T1C0.300
; #@! TA.AperFunction,Plated,PTH,ViaDrill
T2C0.400
; #@! TA.AperFunction,Plated,PTH,ComponentDrill
T3C0.710
; #@! TA.AperFunction,Plated,PTH,ComponentDrill
T4C1.200
; #@! TA.AperFunction,Plated,PTH,ComponentDrill
T5C1.300
; #@! TA.AperFunction,Plated,PTH,ComponentDrill
T6C1.900
%
G90
G05
T1
X3.5Y25.0
X3.5Y19.5
X3.5Y14.0
X8.51Y13.0
X10.0Y25.0
X10.0Y23.5
X11.0Y9.0
X11.0Y6.525
X11.5Y22.25
X11.5Y18.5
X12.037Y42.0
X12.5Y25.0
X13.095Y10.0
X14.365Y14.0
X14.365Y4.0
X15.0Y45.0
X15.25Y21.0
X16.5Y14.0
X16.5Y4.0
X17.0Y16.5
X17.51Y20.49
X18.5Y55.0
X19.0Y32.5
X19.0Y9.0
X19.0Y6.525
X21.0Y45.0
X21.0Y27.5
X21.0Y16.5
X23.0Y42.5
X23.0Y35.0
X24.0Y8.25
X25.0Y11.5
X26.5Y55.5
X27.5Y14.0
X27.5Y4.0
X27.9Y11.5
X29.5Y77.0
X29.5Y76.0
X29.5Y67.0
X30.05Y50.0
X32.8Y68.3
X33.0Y77.0
X33.362Y6.5
X34.02Y12.25
X34.5Y9.0
X35.5Y73.0
X35.5Y71.0
X35.5Y11.5
X35.5Y6.5
X35.637Y9.0
X36.5Y13.0
X37.0Y8.05
X39.5Y68.0
X40.02Y75.0
X41.0Y67.0
X41.0Y40.0
X41.5Y76.0
X44.5Y73.905
X45.5Y71.0
X45.5Y50.5
X46.25Y72.51
X47.0Y69.5
X47.0Y35.0
X48.0Y50.5
X49.5Y40.0
X50.5Y50.5
X51.0Y30.0
X53.0Y50.5
X54.75Y50.5
X62.0Y45.0
X62.0Y25.0
X90.0Y72.95
X90.0Y71.05
T2
X3.5Y54.5
X3.5Y31.5
X3.5Y29.5
X5.5Y54.5
X5.5Y29.5
X7.5Y54.5
X7.5Y31.5
X7.5Y29.5
X15.0Y75.5
X15.0Y73.5
X15.0Y71.5
X15.0Y69.5
X15.0Y67.5
X15.0Y65.5
X17.0Y69.5
X18.5Y50.0
X19.0Y69.5
X24.5Y66.0
X24.5Y64.0
X24.825Y73.525
X24.825Y70.475
X26.5Y72.0
X26.5Y66.0
X26.5Y50.0
X28.175Y73.525
X28.175Y70.475
X28.5Y66.0
X28.5Y64.0
X41.0Y13.0
X41.0Y8.5
X41.0Y6.46
X41.0Y4.5
X43.0Y13.0
X43.0Y8.5
X43.0Y4.5
X45.0Y13.0
X45.0Y8.5
X45.0Y4.5
X45.5Y55.5
X51.075Y11.775
X51.075Y6.225
X53.5Y9.0
X55.925Y11.775
X55.925Y6.225
X59.537Y60.0
X59.537Y58.0
X59.537Y56.0
X62.0Y60.0
X62.0Y58.0
X62.0Y56.0
X94.5Y44.5
X96.5Y44.5
X96.5Y42.5
X96.5Y35.5
X98.5Y44.5
X98.5Y42.5
X98.5Y37.5
X98.5Y35.5
T3
X23.96Y19.0
X26.5Y19.0
X29.04Y19.0
X35.96Y19.0
X38.5Y19.0
X41.04Y19.0
X48.46Y19.0
X51.0Y19.0
X53.54Y19.0
T4
X5.5Y48.58
X5.5Y43.5
X5.5Y36.5
X5.5Y31.42
X56.478Y40.0
X63.978Y40.0
X66.478Y56.0
X66.478Y24.0
X73.978Y56.0
X73.978Y24.0
X76.478Y40.0
X83.978Y40.0
X86.478Y56.0
X86.478Y24.0
X93.978Y56.0
X93.978Y24.0
X94.5Y42.54
X94.5Y37.46
T5
X54.537Y75.688
X54.537Y68.188
X59.537Y75.688
X59.537Y68.188
X64.537Y75.688
X64.537Y68.188
X79.537Y75.688
X79.537Y68.188
T6
X48.4Y87.0
X48.4Y82.0
X55.6Y87.0
X55.6Y82.0
X63.4Y87.0
X63.4Y82.0
X63.4Y11.5
X63.4Y6.5
X70.6Y87.0
X70.6Y82.0
X70.6Y11.5
X70.6Y6.5
X78.4Y11.5
X78.4Y6.5
X85.6Y11.5
X85.6Y6.5
M30
