%TF.GenerationSoftware,KiCad,Pcbnew,9.0.0*%
%TF.CreationDate,2025-08-07T11:31:08+08:00*%
%TF.ProjectId,Regen Clamp,52656765-6e20-4436-9c61-6d702e6b6963,1.1*%
%TF.SameCoordinates,PXa7d8c00PY8c30ac0*%
%TF.FileFunction,Paste,Top*%
%TF.FilePolarity,Positive*%
%FSLAX46Y46*%
G04 Gerber Fmt 4.6, Leading zero omitted, Abs format (unit mm)*
G04 Created by KiCad (PCBNEW 9.0.0) date 2025-08-07 11:31:08*
%MOMM*%
%LPD*%
G01*
G04 APERTURE LIST*
G04 Aperture macros list*
%AMRoundRect*
0 Rectangle with rounded corners*
0 $1 Rounding radius*
0 $2 $3 $4 $5 $6 $7 $8 $9 X,Y pos of 4 corners*
0 Add a 4 corners polygon primitive as box body*
4,1,4,$2,$3,$4,$5,$6,$7,$8,$9,$2,$3,0*
0 Add four circle primitives for the rounded corners*
1,1,$1+$1,$2,$3*
1,1,$1+$1,$4,$5*
1,1,$1+$1,$6,$7*
1,1,$1+$1,$8,$9*
0 Add four rect primitives between the rounded corners*
20,1,$1+$1,$2,$3,$4,$5,0*
20,1,$1+$1,$4,$5,$6,$7,0*
20,1,$1+$1,$6,$7,$8,$9,0*
20,1,$1+$1,$8,$9,$2,$3,0*%
G04 Aperture macros list end*
%ADD10R,2.850000X6.600000*%
%ADD11RoundRect,0.135000X0.185000X-0.135000X0.185000X0.135000X-0.185000X0.135000X-0.185000X-0.135000X0*%
%ADD12RoundRect,0.250000X0.362500X1.425000X-0.362500X1.425000X-0.362500X-1.425000X0.362500X-1.425000X0*%
%ADD13RoundRect,0.140000X0.140000X0.170000X-0.140000X0.170000X-0.140000X-0.170000X0.140000X-0.170000X0*%
%ADD14RoundRect,0.140000X0.170000X-0.140000X0.170000X0.140000X-0.170000X0.140000X-0.170000X-0.140000X0*%
%ADD15RoundRect,0.150000X0.825000X0.150000X-0.825000X0.150000X-0.825000X-0.150000X0.825000X-0.150000X0*%
%ADD16RoundRect,0.250000X-0.650000X0.325000X-0.650000X-0.325000X0.650000X-0.325000X0.650000X0.325000X0*%
%ADD17RoundRect,0.250000X0.900000X-1.000000X0.900000X1.000000X-0.900000X1.000000X-0.900000X-1.000000X0*%
%ADD18RoundRect,0.250000X-0.362500X-1.425000X0.362500X-1.425000X0.362500X1.425000X-0.362500X1.425000X0*%
%ADD19RoundRect,0.150000X-0.150000X0.825000X-0.150000X-0.825000X0.150000X-0.825000X0.150000X0.825000X0*%
%ADD20RoundRect,0.250000X-0.312500X-0.625000X0.312500X-0.625000X0.312500X0.625000X-0.312500X0.625000X0*%
%ADD21RoundRect,0.135000X-0.135000X-0.185000X0.135000X-0.185000X0.135000X0.185000X-0.135000X0.185000X0*%
%ADD22RoundRect,0.250000X0.312500X0.625000X-0.312500X0.625000X-0.312500X-0.625000X0.312500X-0.625000X0*%
%ADD23RoundRect,0.140000X-0.140000X-0.170000X0.140000X-0.170000X0.140000X0.170000X-0.140000X0.170000X0*%
%ADD24RoundRect,0.218750X-0.218750X-0.256250X0.218750X-0.256250X0.218750X0.256250X-0.218750X0.256250X0*%
%ADD25RoundRect,0.250000X0.625000X-0.312500X0.625000X0.312500X-0.625000X0.312500X-0.625000X-0.312500X0*%
%ADD26RoundRect,0.250000X-2.450000X0.650000X-2.450000X-0.650000X2.450000X-0.650000X2.450000X0.650000X0*%
%ADD27RoundRect,0.135000X0.135000X0.185000X-0.135000X0.185000X-0.135000X-0.185000X0.135000X-0.185000X0*%
%ADD28RoundRect,0.250000X-0.475000X0.250000X-0.475000X-0.250000X0.475000X-0.250000X0.475000X0.250000X0*%
%ADD29RoundRect,0.250000X0.850000X0.350000X-0.850000X0.350000X-0.850000X-0.350000X0.850000X-0.350000X0*%
%ADD30RoundRect,0.250000X1.275000X1.125000X-1.275000X1.125000X-1.275000X-1.125000X1.275000X-1.125000X0*%
%ADD31RoundRect,0.150000X0.512500X0.150000X-0.512500X0.150000X-0.512500X-0.150000X0.512500X-0.150000X0*%
%ADD32RoundRect,0.250000X-1.000000X1.400000X-1.000000X-1.400000X1.000000X-1.400000X1.000000X1.400000X0*%
%ADD33RoundRect,0.150000X0.150000X-0.512500X0.150000X0.512500X-0.150000X0.512500X-0.150000X-0.512500X0*%
%ADD34RoundRect,0.225000X-0.225000X-0.250000X0.225000X-0.250000X0.225000X0.250000X-0.225000X0.250000X0*%
%ADD35RoundRect,0.250000X-2.050000X-0.300000X2.050000X-0.300000X2.050000X0.300000X-2.050000X0.300000X0*%
%ADD36RoundRect,0.250000X-2.025000X-2.375000X2.025000X-2.375000X2.025000X2.375000X-2.025000X2.375000X0*%
%ADD37RoundRect,0.250000X-0.250000X-0.475000X0.250000X-0.475000X0.250000X0.475000X-0.250000X0.475000X0*%
%ADD38RoundRect,0.150000X-0.512500X-0.150000X0.512500X-0.150000X0.512500X0.150000X-0.512500X0.150000X0*%
%ADD39R,0.950000X2.100000*%
%ADD40RoundRect,0.225000X0.375000X-0.225000X0.375000X0.225000X-0.375000X0.225000X-0.375000X-0.225000X0*%
%ADD41RoundRect,0.087500X-0.537500X-0.087500X0.537500X-0.087500X0.537500X0.087500X-0.537500X0.087500X0*%
%ADD42RoundRect,0.225000X-0.250000X0.225000X-0.250000X-0.225000X0.250000X-0.225000X0.250000X0.225000X0*%
%ADD43RoundRect,0.140000X-0.170000X0.140000X-0.170000X-0.140000X0.170000X-0.140000X0.170000X0.140000X0*%
%ADD44R,6.000000X6.000000*%
%ADD45RoundRect,0.150000X0.587500X0.150000X-0.587500X0.150000X-0.587500X-0.150000X0.587500X-0.150000X0*%
%ADD46RoundRect,0.225000X-0.375000X0.225000X-0.375000X-0.225000X0.375000X-0.225000X0.375000X0.225000X0*%
%ADD47RoundRect,0.135000X-0.185000X0.135000X-0.185000X-0.135000X0.185000X-0.135000X0.185000X0.135000X0*%
G04 APERTURE END LIST*
D10*
%TO.C,L1*%
X37675000Y61500000D03*
X43325000Y61500000D03*
%TD*%
D11*
%TO.C,R2*%
X45500000Y71490000D03*
X45500000Y72510000D03*
%TD*%
D12*
%TO.C,R17*%
X33962500Y45000000D03*
X28037500Y45000000D03*
%TD*%
D13*
%TO.C,C4*%
X34980000Y13000000D03*
X34020000Y13000000D03*
%TD*%
D14*
%TO.C,C25*%
X19000000Y7520000D03*
X19000000Y8480000D03*
%TD*%
D11*
%TO.C,R3*%
X47000000Y71490000D03*
X47000000Y72510000D03*
%TD*%
D13*
%TO.C,C14*%
X40980000Y68000000D03*
X40020000Y68000000D03*
%TD*%
D12*
%TO.C,R20*%
X25962500Y45000000D03*
X20037500Y45000000D03*
%TD*%
D15*
%TO.C,U1*%
X42975000Y70095000D03*
X42975000Y71365000D03*
X42975000Y72635000D03*
X42975000Y73905000D03*
X38025000Y73905000D03*
X38025000Y72635000D03*
X38025000Y71365000D03*
X38025000Y70095000D03*
%TD*%
D16*
%TO.C,C2*%
X26500000Y54475000D03*
X26500000Y51525000D03*
%TD*%
D17*
%TO.C,D7*%
X40500000Y50850000D03*
X40500000Y55150000D03*
%TD*%
D18*
%TO.C,R19*%
X36037500Y40000000D03*
X41962500Y40000000D03*
%TD*%
D19*
%TO.C,U5*%
X16905000Y11475000D03*
X15635000Y11475000D03*
X14365000Y11475000D03*
X13095000Y11475000D03*
X13095000Y6525000D03*
X14365000Y6525000D03*
X15635000Y6525000D03*
X16905000Y6525000D03*
%TD*%
D20*
%TO.C,R24*%
X13537500Y25000000D03*
X16462500Y25000000D03*
%TD*%
D21*
%TO.C,R28*%
X18490000Y4000000D03*
X19510000Y4000000D03*
%TD*%
D22*
%TO.C,R22*%
X48462500Y40000000D03*
X45537500Y40000000D03*
%TD*%
D18*
%TO.C,R37*%
X12037500Y35000000D03*
X17962500Y35000000D03*
%TD*%
D23*
%TO.C,C17*%
X31020000Y77000000D03*
X31980000Y77000000D03*
%TD*%
D24*
%TO.C,D8*%
X4212500Y19500000D03*
X5787500Y19500000D03*
%TD*%
D16*
%TO.C,C8*%
X48000000Y54475000D03*
X48000000Y51525000D03*
%TD*%
D25*
%TO.C,R4*%
X31000000Y56037500D03*
X31000000Y58962500D03*
%TD*%
D23*
%TO.C,C5*%
X34020000Y11500000D03*
X34980000Y11500000D03*
%TD*%
D12*
%TO.C,R18*%
X33962500Y25000000D03*
X28037500Y25000000D03*
%TD*%
D24*
%TO.C,D9*%
X4212500Y25000000D03*
X5787500Y25000000D03*
%TD*%
D22*
%TO.C,R42*%
X48462500Y35000000D03*
X45537500Y35000000D03*
%TD*%
D26*
%TO.C,C1*%
X22000000Y55550000D03*
X22000000Y50450000D03*
%TD*%
D14*
%TO.C,C18*%
X35500000Y71520000D03*
X35500000Y72480000D03*
%TD*%
D17*
%TO.C,D4*%
X26500000Y59850000D03*
X26500000Y64150000D03*
%TD*%
D13*
%TO.C,C27*%
X15480000Y18500000D03*
X14520000Y18500000D03*
%TD*%
D27*
%TO.C,R9*%
X8510000Y14000000D03*
X7490000Y14000000D03*
%TD*%
D28*
%TO.C,C9*%
X53000000Y53950000D03*
X53000000Y52050000D03*
%TD*%
D29*
%TO.C,U4*%
X32800000Y69720000D03*
D30*
X28175000Y70475000D03*
X28175000Y73525000D03*
X24825000Y70475000D03*
X24825000Y73525000D03*
D29*
X32800000Y74280000D03*
%TD*%
D31*
%TO.C,U6*%
X16137500Y20050000D03*
X16137500Y21000000D03*
X16137500Y21950000D03*
X13862500Y21950000D03*
X13862500Y21000000D03*
X13862500Y20050000D03*
%TD*%
D23*
%TO.C,C13*%
X31020000Y76000000D03*
X31980000Y76000000D03*
%TD*%
D18*
%TO.C,R41*%
X36037500Y35000000D03*
X41962500Y35000000D03*
%TD*%
%TO.C,R13*%
X20037500Y40000000D03*
X25962500Y40000000D03*
%TD*%
D32*
%TO.C,D3*%
X17400000Y73500000D03*
X10600000Y73500000D03*
%TD*%
D33*
%TO.C,U2*%
X30050000Y51862500D03*
X31950000Y51862500D03*
X31000000Y54137500D03*
%TD*%
D12*
%TO.C,R15*%
X41962500Y25000000D03*
X36037500Y25000000D03*
%TD*%
D18*
%TO.C,R10*%
X12037500Y40000000D03*
X17962500Y40000000D03*
%TD*%
D34*
%TO.C,C12*%
X30725000Y67000000D03*
X32275000Y67000000D03*
%TD*%
D18*
%TO.C,R16*%
X28037500Y40000000D03*
X33962500Y40000000D03*
%TD*%
D12*
%TO.C,R12*%
X49962500Y25000000D03*
X44037500Y25000000D03*
%TD*%
D24*
%TO.C,D10*%
X4212500Y14000000D03*
X5787500Y14000000D03*
%TD*%
D23*
%TO.C,C29*%
X15020000Y4000000D03*
X15980000Y4000000D03*
%TD*%
D22*
%TO.C,R36*%
X48462500Y30000000D03*
X45537500Y30000000D03*
%TD*%
D18*
%TO.C,R35*%
X36037500Y30000000D03*
X41962500Y30000000D03*
%TD*%
D35*
%TO.C,Q2*%
X44350000Y11540000D03*
D36*
X51075000Y11775000D03*
X51075000Y6225000D03*
X55925000Y11775000D03*
X55925000Y6225000D03*
D35*
X44350000Y6460000D03*
%TD*%
D37*
%TO.C,C28*%
X18050000Y16500000D03*
X19950000Y16500000D03*
%TD*%
D17*
%TO.C,D1*%
X16500000Y50850000D03*
X16500000Y55150000D03*
%TD*%
D14*
%TO.C,C3*%
X91000000Y71520000D03*
X91000000Y72480000D03*
%TD*%
D27*
%TO.C,R8*%
X8510000Y25000000D03*
X7490000Y25000000D03*
%TD*%
D18*
%TO.C,R38*%
X20037500Y35000000D03*
X25962500Y35000000D03*
%TD*%
D12*
%TO.C,R11*%
X49962500Y45000000D03*
X44037500Y45000000D03*
%TD*%
D27*
%TO.C,R29*%
X27010000Y14000000D03*
X25990000Y14000000D03*
%TD*%
D21*
%TO.C,R6*%
X37990000Y8050000D03*
X39010000Y8050000D03*
%TD*%
D38*
%TO.C,U3*%
X33362500Y9950000D03*
X33362500Y9000000D03*
X33362500Y8050000D03*
X35637500Y8050000D03*
X35637500Y9950000D03*
%TD*%
D14*
%TO.C,C16*%
X11000000Y7520000D03*
X11000000Y8480000D03*
%TD*%
D39*
%TO.C,L2*%
X14175000Y16500000D03*
X15825000Y16500000D03*
%TD*%
D27*
%TO.C,R30*%
X27010000Y4000000D03*
X25990000Y4000000D03*
%TD*%
D21*
%TO.C,R27*%
X18490000Y14000000D03*
X19510000Y14000000D03*
%TD*%
D28*
%TO.C,C10*%
X50500000Y53950000D03*
X50500000Y52050000D03*
%TD*%
D18*
%TO.C,R39*%
X28037500Y35000000D03*
X33962500Y35000000D03*
%TD*%
D11*
%TO.C,R25*%
X19500000Y20490000D03*
X19500000Y21510000D03*
%TD*%
D40*
%TO.C,D5*%
X34500000Y51350000D03*
X34500000Y54650000D03*
%TD*%
D23*
%TO.C,C31*%
X15020000Y14000000D03*
X15980000Y14000000D03*
%TD*%
D13*
%TO.C,C15*%
X40980000Y76000000D03*
X40020000Y76000000D03*
%TD*%
D12*
%TO.C,R21*%
X25962500Y25000000D03*
X20037500Y25000000D03*
%TD*%
D41*
%TO.C,U7*%
X25100000Y9750000D03*
X25100000Y9250000D03*
X25100000Y8750000D03*
X25100000Y8250000D03*
X27900000Y8250000D03*
X27900000Y8750000D03*
X27900000Y9250000D03*
X27900000Y9750000D03*
%TD*%
D16*
%TO.C,C7*%
X45500000Y54475000D03*
X45500000Y51525000D03*
%TD*%
D42*
%TO.C,C6*%
X34500000Y58775000D03*
X34500000Y57225000D03*
%TD*%
D43*
%TO.C,C11*%
X54750000Y53480000D03*
X54750000Y52520000D03*
%TD*%
D44*
%TO.C,F1*%
X5500000Y73450000D03*
X5500000Y58550000D03*
%TD*%
D27*
%TO.C,R7*%
X8510000Y19500000D03*
X7490000Y19500000D03*
%TD*%
D32*
%TO.C,D2*%
X17400000Y66000000D03*
X10600000Y66000000D03*
%TD*%
D12*
%TO.C,R14*%
X41962500Y45000000D03*
X36037500Y45000000D03*
%TD*%
D27*
%TO.C,R1*%
X35010000Y6500000D03*
X33990000Y6500000D03*
%TD*%
D13*
%TO.C,C30*%
X26980000Y11500000D03*
X26020000Y11500000D03*
%TD*%
D45*
%TO.C,Q1*%
X88937500Y71050000D03*
X88937500Y72950000D03*
X87062500Y72000000D03*
%TD*%
D18*
%TO.C,R32*%
X20037500Y30000000D03*
X25962500Y30000000D03*
%TD*%
%TO.C,R31*%
X12037500Y30000000D03*
X17962500Y30000000D03*
%TD*%
D46*
%TO.C,D6*%
X84000000Y73650000D03*
X84000000Y70350000D03*
%TD*%
D28*
%TO.C,C26*%
X11500000Y21450000D03*
X11500000Y19550000D03*
%TD*%
D20*
%TO.C,R23*%
X13537500Y45000000D03*
X16462500Y45000000D03*
%TD*%
D21*
%TO.C,R5*%
X37990000Y9950000D03*
X39010000Y9950000D03*
%TD*%
D47*
%TO.C,R26*%
X18500000Y21510000D03*
X18500000Y20490000D03*
%TD*%
D18*
%TO.C,R33*%
X28037500Y30000000D03*
X33962500Y30000000D03*
%TD*%
M02*
