%TF.GenerationSoftware,KiCad,Pcbnew,9.0.0*%
%TF.CreationDate,2025-08-07T11:31:07+08:00*%
%TF.ProjectId,Regen Clamp,52656765-6e20-4436-9c61-6d702e6b6963,1.1*%
%TF.SameCoordinates,PXa7d8c00PY8c30ac0*%
%TF.FileFunction,Copper,L1,Top*%
%TF.FilePolarity,Positive*%
%FSLAX46Y46*%
G04 Gerber Fmt 4.6, Leading zero omitted, Abs format (unit mm)*
G04 Created by KiCad (PCBNEW 9.0.0) date 2025-08-07 11:31:07*
%MOMM*%
%LPD*%
G01*
G04 APERTURE LIST*
G04 Aperture macros list*
%AMRoundRect*
0 Rectangle with rounded corners*
0 $1 Rounding radius*
0 $2 $3 $4 $5 $6 $7 $8 $9 X,Y pos of 4 corners*
0 Add a 4 corners polygon primitive as box body*
4,1,4,$2,$3,$4,$5,$6,$7,$8,$9,$2,$3,0*
0 Add four circle primitives for the rounded corners*
1,1,$1+$1,$2,$3*
1,1,$1+$1,$4,$5*
1,1,$1+$1,$6,$7*
1,1,$1+$1,$8,$9*
0 Add four rect primitives between the rounded corners*
20,1,$1+$1,$2,$3,$4,$5,0*
20,1,$1+$1,$4,$5,$6,$7,0*
20,1,$1+$1,$6,$7,$8,$9,0*
20,1,$1+$1,$8,$9,$2,$3,0*%
G04 Aperture macros list end*
%TA.AperFunction,SMDPad,CuDef*%
%ADD10R,2.850000X6.600000*%
%TD*%
%TA.AperFunction,ComponentPad*%
%ADD11C,2.400000*%
%TD*%
%TA.AperFunction,SMDPad,CuDef*%
%ADD12RoundRect,0.135000X0.185000X-0.135000X0.185000X0.135000X-0.185000X0.135000X-0.185000X-0.135000X0*%
%TD*%
%TA.AperFunction,SMDPad,CuDef*%
%ADD13RoundRect,0.250000X0.362500X1.425000X-0.362500X1.425000X-0.362500X-1.425000X0.362500X-1.425000X0*%
%TD*%
%TA.AperFunction,SMDPad,CuDef*%
%ADD14C,1.000000*%
%TD*%
%TA.AperFunction,SMDPad,CuDef*%
%ADD15RoundRect,0.140000X0.140000X0.170000X-0.140000X0.170000X-0.140000X-0.170000X0.140000X-0.170000X0*%
%TD*%
%TA.AperFunction,SMDPad,CuDef*%
%ADD16RoundRect,0.140000X0.170000X-0.140000X0.170000X0.140000X-0.170000X0.140000X-0.170000X-0.140000X0*%
%TD*%
%TA.AperFunction,ComponentPad*%
%ADD17C,2.900000*%
%TD*%
%TA.AperFunction,SMDPad,CuDef*%
%ADD18RoundRect,0.150000X0.825000X0.150000X-0.825000X0.150000X-0.825000X-0.150000X0.825000X-0.150000X0*%
%TD*%
%TA.AperFunction,ComponentPad*%
%ADD19C,2.000000*%
%TD*%
%TA.AperFunction,ComponentPad*%
%ADD20R,2.000000X2.000000*%
%TD*%
%TA.AperFunction,SMDPad,CuDef*%
%ADD21RoundRect,0.250000X-0.650000X0.325000X-0.650000X-0.325000X0.650000X-0.325000X0.650000X0.325000X0*%
%TD*%
%TA.AperFunction,ComponentPad*%
%ADD22R,1.218000X1.218000*%
%TD*%
%TA.AperFunction,ComponentPad*%
%ADD23C,1.218000*%
%TD*%
%TA.AperFunction,SMDPad,CuDef*%
%ADD24RoundRect,0.250000X0.900000X-1.000000X0.900000X1.000000X-0.900000X1.000000X-0.900000X-1.000000X0*%
%TD*%
%TA.AperFunction,SMDPad,CuDef*%
%ADD25RoundRect,0.250000X-0.362500X-1.425000X0.362500X-1.425000X0.362500X1.425000X-0.362500X1.425000X0*%
%TD*%
%TA.AperFunction,SMDPad,CuDef*%
%ADD26RoundRect,0.150000X-0.150000X0.825000X-0.150000X-0.825000X0.150000X-0.825000X0.150000X0.825000X0*%
%TD*%
%TA.AperFunction,SMDPad,CuDef*%
%ADD27RoundRect,0.250000X-0.312500X-0.625000X0.312500X-0.625000X0.312500X0.625000X-0.312500X0.625000X0*%
%TD*%
%TA.AperFunction,ComponentPad*%
%ADD28R,2.400000X2.400000*%
%TD*%
%TA.AperFunction,SMDPad,CuDef*%
%ADD29RoundRect,0.135000X-0.135000X-0.185000X0.135000X-0.185000X0.135000X0.185000X-0.135000X0.185000X0*%
%TD*%
%TA.AperFunction,SMDPad,CuDef*%
%ADD30RoundRect,0.250000X0.312500X0.625000X-0.312500X0.625000X-0.312500X-0.625000X0.312500X-0.625000X0*%
%TD*%
%TA.AperFunction,SMDPad,CuDef*%
%ADD31RoundRect,0.140000X-0.140000X-0.170000X0.140000X-0.170000X0.140000X0.170000X-0.140000X0.170000X0*%
%TD*%
%TA.AperFunction,SMDPad,CuDef*%
%ADD32RoundRect,0.218750X-0.218750X-0.256250X0.218750X-0.256250X0.218750X0.256250X-0.218750X0.256250X0*%
%TD*%
%TA.AperFunction,SMDPad,CuDef*%
%ADD33RoundRect,0.250000X0.625000X-0.312500X0.625000X0.312500X-0.625000X0.312500X-0.625000X-0.312500X0*%
%TD*%
%TA.AperFunction,SMDPad,CuDef*%
%ADD34RoundRect,0.250000X-2.450000X0.650000X-2.450000X-0.650000X2.450000X-0.650000X2.450000X0.650000X0*%
%TD*%
%TA.AperFunction,SMDPad,CuDef*%
%ADD35RoundRect,0.135000X0.135000X0.185000X-0.135000X0.185000X-0.135000X-0.185000X0.135000X-0.185000X0*%
%TD*%
%TA.AperFunction,SMDPad,CuDef*%
%ADD36RoundRect,0.250000X-0.475000X0.250000X-0.475000X-0.250000X0.475000X-0.250000X0.475000X0.250000X0*%
%TD*%
%TA.AperFunction,SMDPad,CuDef*%
%ADD37RoundRect,0.250000X0.850000X0.350000X-0.850000X0.350000X-0.850000X-0.350000X0.850000X-0.350000X0*%
%TD*%
%TA.AperFunction,SMDPad,CuDef*%
%ADD38RoundRect,0.250000X1.275000X1.125000X-1.275000X1.125000X-1.275000X-1.125000X1.275000X-1.125000X0*%
%TD*%
%TA.AperFunction,SMDPad,CuDef*%
%ADD39RoundRect,0.249997X2.950003X2.650003X-2.950003X2.650003X-2.950003X-2.650003X2.950003X-2.650003X0*%
%TD*%
%TA.AperFunction,SMDPad,CuDef*%
%ADD40RoundRect,0.150000X0.512500X0.150000X-0.512500X0.150000X-0.512500X-0.150000X0.512500X-0.150000X0*%
%TD*%
%TA.AperFunction,SMDPad,CuDef*%
%ADD41RoundRect,0.250000X-1.000000X1.400000X-1.000000X-1.400000X1.000000X-1.400000X1.000000X1.400000X0*%
%TD*%
%TA.AperFunction,SMDPad,CuDef*%
%ADD42RoundRect,0.150000X0.150000X-0.512500X0.150000X0.512500X-0.150000X0.512500X-0.150000X-0.512500X0*%
%TD*%
%TA.AperFunction,SMDPad,CuDef*%
%ADD43RoundRect,0.225000X-0.225000X-0.250000X0.225000X-0.250000X0.225000X0.250000X-0.225000X0.250000X0*%
%TD*%
%TA.AperFunction,SMDPad,CuDef*%
%ADD44RoundRect,0.250000X-2.050000X-0.300000X2.050000X-0.300000X2.050000X0.300000X-2.050000X0.300000X0*%
%TD*%
%TA.AperFunction,SMDPad,CuDef*%
%ADD45RoundRect,0.250000X-2.025000X-2.375000X2.025000X-2.375000X2.025000X2.375000X-2.025000X2.375000X0*%
%TD*%
%TA.AperFunction,SMDPad,CuDef*%
%ADD46RoundRect,0.250002X-4.449998X-5.149998X4.449998X-5.149998X4.449998X5.149998X-4.449998X5.149998X0*%
%TD*%
%TA.AperFunction,SMDPad,CuDef*%
%ADD47RoundRect,0.250000X-0.250000X-0.475000X0.250000X-0.475000X0.250000X0.475000X-0.250000X0.475000X0*%
%TD*%
%TA.AperFunction,SMDPad,CuDef*%
%ADD48RoundRect,0.150000X-0.512500X-0.150000X0.512500X-0.150000X0.512500X0.150000X-0.512500X0.150000X0*%
%TD*%
%TA.AperFunction,SMDPad,CuDef*%
%ADD49R,0.950000X2.100000*%
%TD*%
%TA.AperFunction,SMDPad,CuDef*%
%ADD50RoundRect,0.225000X0.375000X-0.225000X0.375000X0.225000X-0.375000X0.225000X-0.375000X-0.225000X0*%
%TD*%
%TA.AperFunction,SMDPad,CuDef*%
%ADD51RoundRect,0.087500X-0.537500X-0.087500X0.537500X-0.087500X0.537500X0.087500X-0.537500X0.087500X0*%
%TD*%
%TA.AperFunction,SMDPad,CuDef*%
%ADD52RoundRect,0.225000X-0.250000X0.225000X-0.250000X-0.225000X0.250000X-0.225000X0.250000X0.225000X0*%
%TD*%
%TA.AperFunction,SMDPad,CuDef*%
%ADD53RoundRect,0.140000X-0.170000X0.140000X-0.170000X-0.140000X0.170000X-0.140000X0.170000X0.140000X0*%
%TD*%
%TA.AperFunction,SMDPad,CuDef*%
%ADD54R,6.000000X6.000000*%
%TD*%
%TA.AperFunction,SMDPad,CuDef*%
%ADD55RoundRect,0.150000X0.587500X0.150000X-0.587500X0.150000X-0.587500X-0.150000X0.587500X-0.150000X0*%
%TD*%
%TA.AperFunction,SMDPad,CuDef*%
%ADD56RoundRect,0.225000X-0.375000X0.225000X-0.375000X-0.225000X0.375000X-0.225000X0.375000X0.225000X0*%
%TD*%
%TA.AperFunction,SMDPad,CuDef*%
%ADD57RoundRect,0.135000X-0.185000X0.135000X-0.185000X-0.135000X0.185000X-0.135000X0.185000X0.135000X0*%
%TD*%
%TA.AperFunction,ViaPad*%
%ADD58C,0.600000*%
%TD*%
%TA.AperFunction,ViaPad*%
%ADD59C,0.800000*%
%TD*%
%TA.AperFunction,Conductor*%
%ADD60C,2.000000*%
%TD*%
%TA.AperFunction,Conductor*%
%ADD61C,0.500000*%
%TD*%
%TA.AperFunction,Conductor*%
%ADD62C,0.600000*%
%TD*%
%TA.AperFunction,Conductor*%
%ADD63C,0.152400*%
%TD*%
%TA.AperFunction,Conductor*%
%ADD64C,0.254000*%
%TD*%
%TA.AperFunction,Conductor*%
%ADD65C,0.900000*%
%TD*%
%TA.AperFunction,Conductor*%
%ADD66C,3.000000*%
%TD*%
G04 APERTURE END LIST*
D10*
%TO.P,L1,1,1*%
%TO.N,Net-(D4-K)*%
X37675000Y61500000D03*
%TO.P,L1,2,2*%
%TO.N,+15V*%
X43325000Y61500000D03*
%TD*%
D11*
%TO.P,J2,1,Pin_1*%
%TO.N,SW1*%
X5500000Y36500000D03*
%TO.P,J2,2,Pin_2*%
%TO.N,VIN-*%
X5500000Y31420000D03*
%TD*%
D12*
%TO.P,R2,1*%
%TO.N,/PRE*%
X45500000Y71490000D03*
%TO.P,R2,2*%
%TO.N,Net-(Q1-G)*%
X45500000Y72510000D03*
%TD*%
D13*
%TO.P,R17,1*%
%TO.N,Net-(R14-Pad2)*%
X33962500Y45000000D03*
%TO.P,R17,2*%
%TO.N,Net-(R17-Pad2)*%
X28037500Y45000000D03*
%TD*%
D14*
%TO.P,TP4,1,1*%
%TO.N,+12V*%
X34000000Y77000000D03*
%TD*%
D15*
%TO.P,C4,1*%
%TO.N,VIN-*%
X34980000Y13000000D03*
%TO.P,C4,2*%
%TO.N,+15V*%
X34020000Y13000000D03*
%TD*%
D11*
%TO.P,J5,1,Pin_1*%
%TO.N,VOUT+*%
X94500000Y37460000D03*
%TO.P,J5,2,Pin_2*%
%TO.N,VIN-*%
X94500000Y42540000D03*
%TD*%
D14*
%TO.P,FID1,*%
%TO.N,*%
X10000000Y85000000D03*
%TD*%
D16*
%TO.P,C25,1*%
%TO.N,+15V*%
X19000000Y7520000D03*
%TO.P,C25,2*%
%TO.N,VIN-*%
X19000000Y8480000D03*
%TD*%
D12*
%TO.P,R3,1*%
%TO.N,VIN-*%
X47000000Y71490000D03*
%TO.P,R3,2*%
%TO.N,Net-(Q1-G)*%
X47000000Y72510000D03*
%TD*%
D15*
%TO.P,C14,1*%
%TO.N,/VIN_REF*%
X40980000Y68000000D03*
%TO.P,C14,2*%
%TO.N,VIN-*%
X40020000Y68000000D03*
%TD*%
D17*
%TO.P,J3,1,Pin_1*%
%TO.N,VOUT+*%
X78400000Y11500000D03*
X78400000Y6500000D03*
X85600000Y11500000D03*
X85600000Y6500000D03*
%TD*%
D13*
%TO.P,R20,1*%
%TO.N,Net-(R17-Pad2)*%
X25962500Y45000000D03*
%TO.P,R20,2*%
%TO.N,/VOUT_REF_PRE*%
X20037500Y45000000D03*
%TD*%
D18*
%TO.P,U1,1*%
%TO.N,/PRE*%
X42975000Y70095000D03*
%TO.P,U1,2,-*%
%TO.N,/VIN_REF*%
X42975000Y71365000D03*
%TO.P,U1,3,+*%
%TO.N,/VOUT_REF_PRE*%
X42975000Y72635000D03*
%TO.P,U1,4,V-*%
%TO.N,VIN-*%
X42975000Y73905000D03*
%TO.P,U1,5,+*%
%TO.N,unconnected-(U1B-+-Pad5)*%
X38025000Y73905000D03*
%TO.P,U1,6,-*%
%TO.N,unconnected-(U1B---Pad6)*%
X38025000Y72635000D03*
%TO.P,U1,7*%
%TO.N,unconnected-(U1-Pad7)*%
X38025000Y71365000D03*
%TO.P,U1,8,V+*%
%TO.N,+15V*%
X38025000Y70095000D03*
%TD*%
D11*
%TO.P,J1,1,Pin_1*%
%TO.N,SW2*%
X5500000Y48580000D03*
%TO.P,J1,2,Pin_2*%
%TO.N,SW1*%
X5500000Y43500000D03*
%TD*%
D19*
%TO.P,K1,11*%
%TO.N,VOUT+*%
X59537500Y75687500D03*
X59537500Y68187500D03*
%TO.P,K1,12*%
%TO.N,R_PRECHARGE-*%
X64537500Y75687500D03*
X64537500Y68187500D03*
%TO.P,K1,14*%
%TO.N,R_PRECHARGE+*%
X54537500Y75687500D03*
X54537500Y68187500D03*
D20*
%TO.P,K1,A1*%
%TO.N,+12V*%
X79537500Y75687500D03*
D19*
%TO.P,K1,A2*%
%TO.N,Net-(D6-A)*%
X79537500Y68187500D03*
%TD*%
D21*
%TO.P,C2,1*%
%TO.N,VIN+*%
X26500000Y54475000D03*
%TO.P,C2,2*%
%TO.N,VIN-*%
X26500000Y51525000D03*
%TD*%
D22*
%TO.P,RV2,1,1*%
%TO.N,unconnected-(RV2-Pad1)*%
X35960000Y19000000D03*
D23*
%TO.P,RV2,2,2*%
%TO.N,Net-(R42-Pad1)*%
X38500000Y19000000D03*
%TO.P,RV2,3,3*%
%TO.N,VIN-*%
X41040000Y19000000D03*
%TD*%
D14*
%TO.P,TP11,1,1*%
%TO.N,/Comparator/VIN_REF_H*%
X43750000Y30000000D03*
%TD*%
D24*
%TO.P,D7,1,K*%
%TO.N,Net-(D5-K)*%
X40500000Y50850000D03*
%TO.P,D7,2,A*%
%TO.N,+15V*%
X40500000Y55150000D03*
%TD*%
D25*
%TO.P,R19,1*%
%TO.N,Net-(R16-Pad2)*%
X36037500Y40000000D03*
%TO.P,R19,2*%
%TO.N,/VIN_REF*%
X41962500Y40000000D03*
%TD*%
D26*
%TO.P,U5,1*%
%TO.N,Net-(R27-Pad1)*%
X16905000Y11475000D03*
%TO.P,U5,2,-*%
%TO.N,VOUT_REF_DIS*%
X15635000Y11475000D03*
%TO.P,U5,3,+*%
%TO.N,/Comparator/VIN_REF_L*%
X14365000Y11475000D03*
%TO.P,U5,4,V-*%
%TO.N,VIN-*%
X13095000Y11475000D03*
%TO.P,U5,5,+*%
%TO.N,VOUT_REF_DIS*%
X13095000Y6525000D03*
%TO.P,U5,6,-*%
%TO.N,/Comparator/VIN_REF_H*%
X14365000Y6525000D03*
%TO.P,U5,7*%
%TO.N,Net-(R28-Pad1)*%
X15635000Y6525000D03*
%TO.P,U5,8,V+*%
%TO.N,+15V*%
X16905000Y6525000D03*
%TD*%
D27*
%TO.P,R24,1*%
%TO.N,VIN-*%
X13537500Y25000000D03*
%TO.P,R24,2*%
%TO.N,VOUT_REF_DIS*%
X16462500Y25000000D03*
%TD*%
D28*
%TO.P,C23,1*%
%TO.N,VOUT+*%
X63977780Y40000000D03*
D11*
%TO.P,C23,2*%
%TO.N,VIN-*%
X56477780Y40000000D03*
%TD*%
D29*
%TO.P,R28,1*%
%TO.N,Net-(R28-Pad1)*%
X18490000Y4000000D03*
%TO.P,R28,2*%
%TO.N,/Comparator/S*%
X19510000Y4000000D03*
%TD*%
D28*
%TO.P,C22,1*%
%TO.N,VOUT+*%
X73977780Y24000000D03*
D11*
%TO.P,C22,2*%
%TO.N,VIN-*%
X66477780Y24000000D03*
%TD*%
D30*
%TO.P,R22,1*%
%TO.N,VIN-*%
X48462500Y40000000D03*
%TO.P,R22,2*%
%TO.N,/VIN_REF*%
X45537500Y40000000D03*
%TD*%
D17*
%TO.P,J4,1,Pin_1*%
%TO.N,R_DISCHARGE-*%
X63400000Y11500000D03*
X63400000Y6500000D03*
X70600000Y11500000D03*
X70600000Y6500000D03*
%TD*%
D25*
%TO.P,R37,1*%
%TO.N,VIN+*%
X12037500Y35000000D03*
%TO.P,R37,2*%
%TO.N,Net-(R37-Pad2)*%
X17962500Y35000000D03*
%TD*%
D31*
%TO.P,C17,1*%
%TO.N,VIN-*%
X31020000Y77000000D03*
%TO.P,C17,2*%
%TO.N,+12V*%
X31980000Y77000000D03*
%TD*%
D32*
%TO.P,D8,1,K*%
%TO.N,VIN-*%
X4212500Y19500000D03*
%TO.P,D8,2,A*%
%TO.N,Net-(D8-A)*%
X5787500Y19500000D03*
%TD*%
D21*
%TO.P,C8,1*%
%TO.N,+15V*%
X48000000Y54475000D03*
%TO.P,C8,2*%
%TO.N,VIN-*%
X48000000Y51525000D03*
%TD*%
D33*
%TO.P,R4,1*%
%TO.N,Net-(U2-CS)*%
X31000000Y56037500D03*
%TO.P,R4,2*%
%TO.N,Net-(D4-K)*%
X31000000Y58962500D03*
%TD*%
D31*
%TO.P,C5,1*%
%TO.N,+15V*%
X34020000Y11500000D03*
%TO.P,C5,2*%
%TO.N,VIN-*%
X34980000Y11500000D03*
%TD*%
D14*
%TO.P,TP10,1,1*%
%TO.N,/Comparator/S*%
X21000000Y4000000D03*
%TD*%
D13*
%TO.P,R18,1*%
%TO.N,Net-(R15-Pad2)*%
X33962500Y25000000D03*
%TO.P,R18,2*%
%TO.N,Net-(R18-Pad2)*%
X28037500Y25000000D03*
%TD*%
D32*
%TO.P,D9,1,K*%
%TO.N,VIN-*%
X4212500Y25000000D03*
%TO.P,D9,2,A*%
%TO.N,Net-(D9-A)*%
X5787500Y25000000D03*
%TD*%
D30*
%TO.P,R42,1*%
%TO.N,Net-(R42-Pad1)*%
X48462500Y35000000D03*
%TO.P,R42,2*%
%TO.N,/Comparator/VIN_REF_L*%
X45537500Y35000000D03*
%TD*%
D14*
%TO.P,FID2,*%
%TO.N,*%
X95000000Y80000000D03*
%TD*%
D34*
%TO.P,C1,1*%
%TO.N,VIN+*%
X22000000Y55550000D03*
%TO.P,C1,2*%
%TO.N,VIN-*%
X22000000Y50450000D03*
%TD*%
D16*
%TO.P,C18,1*%
%TO.N,+15V*%
X35500000Y71520000D03*
%TO.P,C18,2*%
%TO.N,VIN-*%
X35500000Y72480000D03*
%TD*%
D22*
%TO.P,RV1,1,1*%
%TO.N,unconnected-(RV1-Pad1)*%
X48460000Y19000000D03*
D23*
%TO.P,RV1,2,2*%
%TO.N,Net-(R36-Pad1)*%
X51000000Y19000000D03*
%TO.P,RV1,3,3*%
%TO.N,VIN-*%
X53540000Y19000000D03*
%TD*%
D24*
%TO.P,D4,1,K*%
%TO.N,Net-(D4-K)*%
X26500000Y59850000D03*
%TO.P,D4,2,A*%
%TO.N,VIN-*%
X26500000Y64150000D03*
%TD*%
D14*
%TO.P,TP7,1,1*%
%TO.N,VOUT_REF_DIS*%
X18250000Y25000000D03*
%TD*%
%TO.P,TP1,1,1*%
%TO.N,+15V*%
X53000000Y55500000D03*
%TD*%
D15*
%TO.P,C27,1*%
%TO.N,Net-(U6-BS)*%
X15480000Y18500000D03*
%TO.P,C27,2*%
%TO.N,Net-(U6-SW)*%
X14520000Y18500000D03*
%TD*%
D35*
%TO.P,R9,1*%
%TO.N,/DIS*%
X8510000Y14000000D03*
%TO.P,R9,2*%
%TO.N,Net-(D10-A)*%
X7490000Y14000000D03*
%TD*%
D36*
%TO.P,C9,1*%
%TO.N,+15V*%
X53000000Y53950000D03*
%TO.P,C9,2*%
%TO.N,VIN-*%
X53000000Y52050000D03*
%TD*%
D37*
%TO.P,U4,1,IN*%
%TO.N,+15V*%
X32800000Y69720000D03*
D38*
%TO.P,U4,2,GND*%
%TO.N,VIN-*%
X28175000Y70475000D03*
X28175000Y73525000D03*
D39*
X26500000Y72000000D03*
D38*
X24825000Y70475000D03*
X24825000Y73525000D03*
D37*
%TO.P,U4,3,OUT*%
%TO.N,+12V*%
X32800000Y74280000D03*
%TD*%
D14*
%TO.P,TP3,1,1*%
%TO.N,VOUT+*%
X90000000Y9000000D03*
%TD*%
D40*
%TO.P,U6,1,BS*%
%TO.N,Net-(U6-BS)*%
X16137500Y20050000D03*
%TO.P,U6,2,GND*%
%TO.N,VIN-*%
X16137500Y21000000D03*
%TO.P,U6,3,FB*%
%TO.N,Net-(U6-FB)*%
X16137500Y21950000D03*
%TO.P,U6,4,EN*%
%TO.N,+12V*%
X13862500Y21950000D03*
%TO.P,U6,5,IN*%
X13862500Y21000000D03*
%TO.P,U6,6,SW*%
%TO.N,Net-(U6-SW)*%
X13862500Y20050000D03*
%TD*%
D31*
%TO.P,C13,1*%
%TO.N,VIN-*%
X31020000Y76000000D03*
%TO.P,C13,2*%
%TO.N,+12V*%
X31980000Y76000000D03*
%TD*%
D14*
%TO.P,FID3,*%
%TO.N,*%
X90000000Y5000000D03*
%TD*%
D25*
%TO.P,R41,1*%
%TO.N,Net-(R39-Pad2)*%
X36037500Y35000000D03*
%TO.P,R41,2*%
%TO.N,/Comparator/VIN_REF_L*%
X41962500Y35000000D03*
%TD*%
%TO.P,R13,1*%
%TO.N,Net-(R10-Pad2)*%
X20037500Y40000000D03*
%TO.P,R13,2*%
%TO.N,Net-(R13-Pad2)*%
X25962500Y40000000D03*
%TD*%
D41*
%TO.P,D3,1,K*%
%TO.N,R_PRECHARGE+*%
X17400000Y73500000D03*
%TO.P,D3,2,A*%
%TO.N,VIN+*%
X10600000Y73500000D03*
%TD*%
D42*
%TO.P,U2,1,Drain*%
%TO.N,VIN+*%
X30050000Y51862500D03*
%TO.P,U2,2,VDD*%
%TO.N,Net-(D5-A)*%
X31950000Y51862500D03*
%TO.P,U2,3,CS*%
%TO.N,Net-(U2-CS)*%
X31000000Y54137500D03*
%TD*%
D13*
%TO.P,R15,1*%
%TO.N,Net-(R12-Pad2)*%
X41962500Y25000000D03*
%TO.P,R15,2*%
%TO.N,Net-(R15-Pad2)*%
X36037500Y25000000D03*
%TD*%
D28*
%TO.P,C19,1*%
%TO.N,VOUT+*%
X83977780Y40000000D03*
D11*
%TO.P,C19,2*%
%TO.N,VIN-*%
X76477780Y40000000D03*
%TD*%
D25*
%TO.P,R10,1*%
%TO.N,VIN+*%
X12037500Y40000000D03*
%TO.P,R10,2*%
%TO.N,Net-(R10-Pad2)*%
X17962500Y40000000D03*
%TD*%
D43*
%TO.P,C12,1*%
%TO.N,VIN-*%
X30725000Y67000000D03*
%TO.P,C12,2*%
%TO.N,+15V*%
X32275000Y67000000D03*
%TD*%
D25*
%TO.P,R16,1*%
%TO.N,Net-(R13-Pad2)*%
X28037500Y40000000D03*
%TO.P,R16,2*%
%TO.N,Net-(R16-Pad2)*%
X33962500Y40000000D03*
%TD*%
D13*
%TO.P,R12,1*%
%TO.N,VOUT+*%
X49962500Y25000000D03*
%TO.P,R12,2*%
%TO.N,Net-(R12-Pad2)*%
X44037500Y25000000D03*
%TD*%
D32*
%TO.P,D10,1,K*%
%TO.N,VIN-*%
X4212500Y14000000D03*
%TO.P,D10,2,A*%
%TO.N,Net-(D10-A)*%
X5787500Y14000000D03*
%TD*%
D31*
%TO.P,C29,1*%
%TO.N,/Comparator/VIN_REF_H*%
X15020000Y4000000D03*
%TO.P,C29,2*%
%TO.N,VIN-*%
X15980000Y4000000D03*
%TD*%
D30*
%TO.P,R36,1*%
%TO.N,Net-(R36-Pad1)*%
X48462500Y30000000D03*
%TO.P,R36,2*%
%TO.N,/Comparator/VIN_REF_H*%
X45537500Y30000000D03*
%TD*%
D25*
%TO.P,R35,1*%
%TO.N,Net-(R33-Pad2)*%
X36037500Y30000000D03*
%TO.P,R35,2*%
%TO.N,/Comparator/VIN_REF_H*%
X41962500Y30000000D03*
%TD*%
D44*
%TO.P,Q2,1,G*%
%TO.N,Net-(Q2-G)*%
X44350000Y11540000D03*
D45*
%TO.P,Q2,2,D*%
%TO.N,R_DISCHARGE-*%
X51075000Y11775000D03*
X51075000Y6225000D03*
D46*
X53500000Y9000000D03*
D45*
X55925000Y11775000D03*
X55925000Y6225000D03*
D44*
%TO.P,Q2,3,S*%
%TO.N,VIN-*%
X44350000Y6460000D03*
%TD*%
D14*
%TO.P,FID4,*%
%TO.N,*%
X5000000Y10000000D03*
%TD*%
%TO.P,TP2,1,1*%
%TO.N,VIN+*%
X5500000Y80000000D03*
%TD*%
D47*
%TO.P,C28,1*%
%TO.N,+5V*%
X18050000Y16500000D03*
%TO.P,C28,2*%
%TO.N,VIN-*%
X19950000Y16500000D03*
%TD*%
D24*
%TO.P,D1,1,A1*%
%TO.N,VIN-*%
X16500000Y50850000D03*
%TO.P,D1,2,A2*%
%TO.N,VIN+*%
X16500000Y55150000D03*
%TD*%
D16*
%TO.P,C3,1*%
%TO.N,Net-(Q1-G)*%
X91000000Y71520000D03*
%TO.P,C3,2*%
%TO.N,VIN-*%
X91000000Y72480000D03*
%TD*%
D14*
%TO.P,TP9,1,1*%
%TO.N,/Comparator/R*%
X21000000Y14000000D03*
%TD*%
D28*
%TO.P,C20,1*%
%TO.N,VOUT+*%
X93977780Y56000000D03*
D11*
%TO.P,C20,2*%
%TO.N,VIN-*%
X86477780Y56000000D03*
%TD*%
D35*
%TO.P,R8,1*%
%TO.N,/PRE*%
X8510000Y25000000D03*
%TO.P,R8,2*%
%TO.N,Net-(D9-A)*%
X7490000Y25000000D03*
%TD*%
D25*
%TO.P,R38,1*%
%TO.N,Net-(R37-Pad2)*%
X20037500Y35000000D03*
%TO.P,R38,2*%
%TO.N,Net-(R38-Pad2)*%
X25962500Y35000000D03*
%TD*%
D13*
%TO.P,R11,1*%
%TO.N,VOUT+*%
X49962500Y45000000D03*
%TO.P,R11,2*%
%TO.N,Net-(R11-Pad2)*%
X44037500Y45000000D03*
%TD*%
D35*
%TO.P,R29,1*%
%TO.N,VIN-*%
X27010000Y14000000D03*
%TO.P,R29,2*%
%TO.N,/Comparator/R*%
X25990000Y14000000D03*
%TD*%
D14*
%TO.P,TP6,1,1*%
%TO.N,/VOUT_REF_PRE*%
X18250000Y45000000D03*
%TD*%
D29*
%TO.P,R6,1*%
%TO.N,VIN-*%
X37990000Y8050000D03*
%TO.P,R6,2*%
%TO.N,Net-(Q2-G)*%
X39010000Y8050000D03*
%TD*%
D48*
%TO.P,U3,1,V_{DD}*%
%TO.N,+15V*%
X33362500Y9950000D03*
%TO.P,U3,2,GND*%
%TO.N,VIN-*%
X33362500Y9000000D03*
%TO.P,U3,3,IN+*%
%TO.N,/DIS*%
X33362500Y8050000D03*
%TO.P,U3,4,IN-*%
%TO.N,VIN-*%
X35637500Y8050000D03*
%TO.P,U3,5,OUT*%
%TO.N,Net-(U3-OUT)*%
X35637500Y9950000D03*
%TD*%
D16*
%TO.P,C16,1*%
%TO.N,VOUT_REF_DIS*%
X11000000Y7520000D03*
%TO.P,C16,2*%
%TO.N,VIN-*%
X11000000Y8480000D03*
%TD*%
D49*
%TO.P,L2,1,1*%
%TO.N,Net-(U6-SW)*%
X14175000Y16500000D03*
%TO.P,L2,2,2*%
%TO.N,+5V*%
X15825000Y16500000D03*
%TD*%
D35*
%TO.P,R30,1*%
%TO.N,VIN-*%
X27010000Y4000000D03*
%TO.P,R30,2*%
%TO.N,/Comparator/S*%
X25990000Y4000000D03*
%TD*%
D29*
%TO.P,R27,1*%
%TO.N,Net-(R27-Pad1)*%
X18490000Y14000000D03*
%TO.P,R27,2*%
%TO.N,/Comparator/R*%
X19510000Y14000000D03*
%TD*%
D36*
%TO.P,C10,1*%
%TO.N,+15V*%
X50500000Y53950000D03*
%TO.P,C10,2*%
%TO.N,VIN-*%
X50500000Y52050000D03*
%TD*%
D25*
%TO.P,R39,1*%
%TO.N,Net-(R38-Pad2)*%
X28037500Y35000000D03*
%TO.P,R39,2*%
%TO.N,Net-(R39-Pad2)*%
X33962500Y35000000D03*
%TD*%
D17*
%TO.P,J7,1,Pin_1*%
%TO.N,R_PRECHARGE-*%
X70600000Y82000000D03*
X70600000Y87000000D03*
X63400000Y82000000D03*
X63400000Y87000000D03*
%TD*%
D12*
%TO.P,R25,1*%
%TO.N,+5V*%
X19500000Y20490000D03*
%TO.P,R25,2*%
%TO.N,Net-(U6-FB)*%
X19500000Y21510000D03*
%TD*%
D50*
%TO.P,D5,1,K*%
%TO.N,Net-(D5-K)*%
X34500000Y51350000D03*
%TO.P,D5,2,A*%
%TO.N,Net-(D5-A)*%
X34500000Y54650000D03*
%TD*%
D31*
%TO.P,C31,1*%
%TO.N,/Comparator/VIN_REF_L*%
X15020000Y14000000D03*
%TO.P,C31,2*%
%TO.N,VIN-*%
X15980000Y14000000D03*
%TD*%
D14*
%TO.P,TP8,1,1*%
%TO.N,+5V*%
X29000000Y11500000D03*
%TD*%
D15*
%TO.P,C15,1*%
%TO.N,/VOUT_REF_PRE*%
X40980000Y76000000D03*
%TO.P,C15,2*%
%TO.N,VIN-*%
X40020000Y76000000D03*
%TD*%
D17*
%TO.P,J6,1,Pin_1*%
%TO.N,R_PRECHARGE+*%
X55600000Y82000000D03*
X55600000Y87000000D03*
X48400000Y82000000D03*
X48400000Y87000000D03*
%TD*%
D13*
%TO.P,R21,1*%
%TO.N,Net-(R18-Pad2)*%
X25962500Y25000000D03*
%TO.P,R21,2*%
%TO.N,VOUT_REF_DIS*%
X20037500Y25000000D03*
%TD*%
D51*
%TO.P,U7,1*%
%TO.N,/Comparator/R*%
X25100000Y9750000D03*
%TO.P,U7,2*%
%TO.N,Net-(U7-Pad2)*%
X25100000Y9250000D03*
%TO.P,U7,3*%
X25100000Y8750000D03*
%TO.P,U7,4,GND*%
%TO.N,VIN-*%
X25100000Y8250000D03*
%TO.P,U7,5*%
%TO.N,/DIS*%
X27900000Y8250000D03*
%TO.P,U7,6*%
%TO.N,/Comparator/S*%
X27900000Y8750000D03*
%TO.P,U7,7*%
%TO.N,/DIS*%
X27900000Y9250000D03*
%TO.P,U7,8,VCC*%
%TO.N,+5V*%
X27900000Y9750000D03*
%TD*%
D21*
%TO.P,C7,1*%
%TO.N,+15V*%
X45500000Y54475000D03*
%TO.P,C7,2*%
%TO.N,VIN-*%
X45500000Y51525000D03*
%TD*%
D52*
%TO.P,C6,1*%
%TO.N,Net-(D4-K)*%
X34500000Y58775000D03*
%TO.P,C6,2*%
%TO.N,Net-(D5-A)*%
X34500000Y57225000D03*
%TD*%
D53*
%TO.P,C11,1*%
%TO.N,+15V*%
X54750000Y53480000D03*
%TO.P,C11,2*%
%TO.N,VIN-*%
X54750000Y52520000D03*
%TD*%
D54*
%TO.P,F1,1*%
%TO.N,VIN+*%
X5500000Y73450000D03*
%TO.P,F1,2*%
%TO.N,SW2*%
X5500000Y58550000D03*
%TD*%
D35*
%TO.P,R7,1*%
%TO.N,+12V*%
X8510000Y19500000D03*
%TO.P,R7,2*%
%TO.N,Net-(D8-A)*%
X7490000Y19500000D03*
%TD*%
D41*
%TO.P,D2,1,K*%
%TO.N,R_PRECHARGE+*%
X17400000Y66000000D03*
%TO.P,D2,2,A*%
%TO.N,VIN+*%
X10600000Y66000000D03*
%TD*%
D22*
%TO.P,RV3,1,1*%
%TO.N,unconnected-(RV3-Pad1)*%
X23960000Y19000000D03*
D23*
%TO.P,RV3,2,2*%
%TO.N,Net-(R23-Pad1)*%
X26500000Y19000000D03*
%TO.P,RV3,3,3*%
%TO.N,VIN-*%
X29040000Y19000000D03*
%TD*%
D13*
%TO.P,R14,1*%
%TO.N,Net-(R11-Pad2)*%
X41962500Y45000000D03*
%TO.P,R14,2*%
%TO.N,Net-(R14-Pad2)*%
X36037500Y45000000D03*
%TD*%
D14*
%TO.P,TP5,1,1*%
%TO.N,/VIN_REF*%
X43750000Y40000000D03*
%TD*%
D35*
%TO.P,R1,1*%
%TO.N,VIN-*%
X35010000Y6500000D03*
%TO.P,R1,2*%
%TO.N,/DIS*%
X33990000Y6500000D03*
%TD*%
D15*
%TO.P,C30,1*%
%TO.N,+5V*%
X26980000Y11500000D03*
%TO.P,C30,2*%
%TO.N,VIN-*%
X26020000Y11500000D03*
%TD*%
D55*
%TO.P,Q1,1,G*%
%TO.N,Net-(Q1-G)*%
X88937500Y71050000D03*
%TO.P,Q1,2,S*%
%TO.N,VIN-*%
X88937500Y72950000D03*
%TO.P,Q1,3,D*%
%TO.N,Net-(D6-A)*%
X87062500Y72000000D03*
%TD*%
D25*
%TO.P,R32,1*%
%TO.N,Net-(R31-Pad2)*%
X20037500Y30000000D03*
%TO.P,R32,2*%
%TO.N,Net-(R32-Pad2)*%
X25962500Y30000000D03*
%TD*%
D28*
%TO.P,C24,1*%
%TO.N,VOUT+*%
X93977780Y24000000D03*
D11*
%TO.P,C24,2*%
%TO.N,VIN-*%
X86477780Y24000000D03*
%TD*%
D25*
%TO.P,R31,1*%
%TO.N,VIN+*%
X12037500Y30000000D03*
%TO.P,R31,2*%
%TO.N,Net-(R31-Pad2)*%
X17962500Y30000000D03*
%TD*%
D56*
%TO.P,D6,1,K*%
%TO.N,+12V*%
X84000000Y73650000D03*
%TO.P,D6,2,A*%
%TO.N,Net-(D6-A)*%
X84000000Y70350000D03*
%TD*%
D14*
%TO.P,TP12,1,1*%
%TO.N,/Comparator/VIN_REF_L*%
X43750000Y35000000D03*
%TD*%
D36*
%TO.P,C26,1*%
%TO.N,+12V*%
X11500000Y21450000D03*
%TO.P,C26,2*%
%TO.N,VIN-*%
X11500000Y19550000D03*
%TD*%
D27*
%TO.P,R23,1*%
%TO.N,Net-(R23-Pad1)*%
X13537500Y45000000D03*
%TO.P,R23,2*%
%TO.N,/VOUT_REF_PRE*%
X16462500Y45000000D03*
%TD*%
D29*
%TO.P,R5,1*%
%TO.N,Net-(U3-OUT)*%
X37990000Y9950000D03*
%TO.P,R5,2*%
%TO.N,Net-(Q2-G)*%
X39010000Y9950000D03*
%TD*%
D57*
%TO.P,R26,1*%
%TO.N,Net-(U6-FB)*%
X18500000Y21510000D03*
%TO.P,R26,2*%
%TO.N,VIN-*%
X18500000Y20490000D03*
%TD*%
D28*
%TO.P,C21,1*%
%TO.N,VOUT+*%
X73977780Y56000000D03*
D11*
%TO.P,C21,2*%
%TO.N,VIN-*%
X66477780Y56000000D03*
%TD*%
D25*
%TO.P,R33,1*%
%TO.N,Net-(R32-Pad2)*%
X28037500Y30000000D03*
%TO.P,R33,2*%
%TO.N,Net-(R33-Pad2)*%
X33962500Y30000000D03*
%TD*%
D58*
%TO.N,VIN+*%
X26500000Y55500000D03*
X12037500Y42000000D03*
X18500000Y55000000D03*
X30050000Y50000000D03*
D59*
%TO.N,VIN-*%
X43000000Y8500000D03*
D58*
X3500000Y19500000D03*
X29500000Y77000000D03*
D59*
X41000000Y13000000D03*
D58*
X24000000Y8250000D03*
D59*
X3500000Y31500000D03*
D58*
X11500000Y18500000D03*
X53000000Y50500000D03*
X19000000Y9000000D03*
X35637500Y9000000D03*
X11000000Y9000000D03*
D59*
X43000000Y4500000D03*
X28175000Y73525000D03*
D58*
X15250000Y21000000D03*
D59*
X24500000Y66000000D03*
D58*
X25000000Y11500000D03*
X27500000Y14000000D03*
D59*
X7500000Y31500000D03*
X28175000Y70475000D03*
X41000000Y6460000D03*
X96500000Y42500000D03*
X96500000Y44500000D03*
X28500000Y66000000D03*
X94500000Y44500000D03*
D58*
X40020000Y75000000D03*
X45500000Y50500000D03*
D59*
X7500000Y29500000D03*
D58*
X12500000Y25000000D03*
D59*
X43000000Y13000000D03*
X45000000Y4500000D03*
D58*
X39500000Y68000000D03*
D59*
X98500000Y44500000D03*
D58*
X34500000Y9000000D03*
X37000000Y8050000D03*
X44500000Y73905000D03*
X29500000Y67000000D03*
D59*
X26500000Y50000000D03*
X41000000Y4500000D03*
X18500000Y50000000D03*
X45000000Y13000000D03*
X24825000Y70475000D03*
D58*
X29500000Y76000000D03*
X17510000Y20490000D03*
X35500000Y11500000D03*
X49500000Y40000000D03*
X50500000Y50500000D03*
X90000000Y72950000D03*
X48000000Y50500000D03*
D59*
X28500000Y64000000D03*
D58*
X27500000Y4000000D03*
D59*
X26500000Y66000000D03*
D58*
X3500000Y14000000D03*
D59*
X24825000Y73525000D03*
X41000000Y8500000D03*
X24500000Y64000000D03*
D58*
X16500000Y14000000D03*
X13095000Y10000000D03*
D59*
X5500000Y29500000D03*
D58*
X36500000Y13000000D03*
X35500000Y6500000D03*
X21000000Y16500000D03*
X16500000Y4000000D03*
D59*
X26500000Y72000000D03*
D58*
X3500000Y25000000D03*
X35500000Y73000000D03*
D59*
X3500000Y29500000D03*
X98500000Y42500000D03*
X45000000Y8500000D03*
D58*
X47000000Y69500000D03*
X54750000Y50500000D03*
%TO.N,Net-(Q1-G)*%
X90000000Y71050000D03*
X46250000Y72510000D03*
D59*
%TO.N,+15V*%
X45500000Y55500000D03*
D58*
X19000000Y6525000D03*
X34020000Y12250000D03*
X32800000Y68300000D03*
X35500000Y71000000D03*
%TO.N,+12V*%
X11500000Y22250000D03*
X33000000Y77000000D03*
%TO.N,/VIN_REF*%
X41000000Y40000000D03*
X41000000Y67000000D03*
%TO.N,/VOUT_REF_PRE*%
X41500000Y76000000D03*
X21000000Y45000000D03*
%TO.N,VOUT_REF_DIS*%
X11000000Y6525000D03*
X10000000Y23500000D03*
D59*
%TO.N,VOUT+*%
X59537500Y58000000D03*
X59537500Y56000000D03*
X59537500Y60000000D03*
X62000000Y60000000D03*
X98500000Y37500000D03*
D58*
X62000000Y25000000D03*
D59*
X96500000Y35500000D03*
X62000000Y58000000D03*
X98500000Y35500000D03*
D58*
X62000000Y45000000D03*
D59*
X62000000Y56000000D03*
D58*
%TO.N,+5V*%
X27900000Y11500000D03*
X17000000Y16500000D03*
%TO.N,/Comparator/VIN_REF_H*%
X21000000Y27500000D03*
X14365000Y4000000D03*
%TO.N,/Comparator/VIN_REF_L*%
X14365000Y14000000D03*
X19000000Y32500000D03*
D59*
%TO.N,R_PRECHARGE+*%
X15000000Y65500000D03*
X15000000Y73500000D03*
X15000000Y71500000D03*
X15000000Y75500000D03*
X17000000Y69500000D03*
X19000000Y69500000D03*
X15000000Y67500000D03*
X15000000Y69500000D03*
%TO.N,R_DISCHARGE-*%
X55925000Y6225000D03*
X51075000Y11775000D03*
X55925000Y11775000D03*
X51075000Y6225000D03*
X53500000Y9000000D03*
D58*
%TO.N,/PRE*%
X45500000Y71000000D03*
X10000000Y25000000D03*
%TO.N,/DIS*%
X33362500Y6500000D03*
X8510000Y13000000D03*
D59*
%TO.N,SW2*%
X5500000Y54500000D03*
X3500000Y54500000D03*
X7500000Y54500000D03*
D58*
%TO.N,Net-(R36-Pad1)*%
X51000000Y30000000D03*
%TO.N,Net-(R42-Pad1)*%
X47000000Y35000000D03*
%TO.N,Net-(R23-Pad1)*%
X23000000Y42500000D03*
X15000000Y45000000D03*
X23000000Y35000000D03*
%TD*%
D60*
%TO.N,VIN+*%
X10600000Y66000000D02*
X10600000Y57900000D01*
D61*
X12037500Y40000000D02*
X12037500Y35000000D01*
D60*
X10600000Y57900000D02*
X13350000Y55150000D01*
D62*
X30050000Y50000000D02*
X30050000Y51862500D01*
D60*
X13350000Y55150000D02*
X16500000Y55150000D01*
D63*
X5500000Y80000000D02*
X5500000Y73450000D01*
D61*
X12037500Y35000000D02*
X12037500Y30000000D01*
X12037500Y42000000D02*
X12037500Y40000000D01*
D64*
%TO.N,VIN-*%
X40020000Y75000000D02*
X40020000Y76000000D01*
D61*
X31020000Y77000000D02*
X29500000Y77000000D01*
X47000000Y71490000D02*
X47000000Y69500000D01*
D64*
X27010000Y14000000D02*
X27500000Y14000000D01*
D61*
X37000000Y8050000D02*
X37990000Y8050000D01*
X90000000Y72950000D02*
X90530000Y72950000D01*
X90530000Y72950000D02*
X91000000Y72480000D01*
D64*
X4212500Y14000000D02*
X3500000Y14000000D01*
D61*
X35500000Y72480000D02*
X35500000Y73000000D01*
X16137500Y21000000D02*
X15250000Y21000000D01*
X45500000Y51525000D02*
X45500000Y50500000D01*
X88937500Y72950000D02*
X90000000Y72950000D01*
X13095000Y10000000D02*
X13095000Y11475000D01*
X54750000Y52520000D02*
X54750000Y50500000D01*
D64*
X25100000Y8250000D02*
X24000000Y8250000D01*
D61*
X17510000Y20490000D02*
X18500000Y20490000D01*
X35637500Y8050000D02*
X37000000Y8050000D01*
X48000000Y51525000D02*
X48000000Y50500000D01*
D64*
X15980000Y14000000D02*
X16500000Y14000000D01*
X4212500Y25000000D02*
X3500000Y25000000D01*
D61*
X34980000Y13000000D02*
X34980000Y11500000D01*
X48462500Y40000000D02*
X49500000Y40000000D01*
X34500000Y9000000D02*
X35637500Y9000000D01*
X33362500Y9000000D02*
X34500000Y9000000D01*
X31020000Y77000000D02*
X31020000Y76000000D01*
X35637500Y9000000D02*
X35637500Y8050000D01*
D64*
X15980000Y4000000D02*
X16500000Y4000000D01*
X19000000Y8480000D02*
X19000000Y9000000D01*
D61*
X42975000Y73905000D02*
X44500000Y73905000D01*
D64*
X11000000Y8480000D02*
X11000000Y9000000D01*
D61*
X34980000Y11500000D02*
X35500000Y11500000D01*
D64*
X4212500Y19500000D02*
X3500000Y19500000D01*
X40020000Y68000000D02*
X39500000Y68000000D01*
D61*
X53000000Y52050000D02*
X53000000Y50500000D01*
X31020000Y76000000D02*
X29500000Y76000000D01*
D64*
X35010000Y6500000D02*
X35500000Y6500000D01*
D61*
X34980000Y13000000D02*
X36500000Y13000000D01*
X50500000Y52050000D02*
X50500000Y50500000D01*
X13537500Y25000000D02*
X12500000Y25000000D01*
X16137500Y21000000D02*
X17000000Y21000000D01*
X30725000Y67000000D02*
X29500000Y67000000D01*
X17000000Y21000000D02*
X17510000Y20490000D01*
D64*
X26020000Y11500000D02*
X25000000Y11500000D01*
X27010000Y4000000D02*
X27500000Y4000000D01*
D61*
%TO.N,Net-(Q1-G)*%
X90000000Y71050000D02*
X88937500Y71050000D01*
X47000000Y72510000D02*
X46250000Y72510000D01*
X90530000Y71050000D02*
X91000000Y71520000D01*
X45500000Y72510000D02*
X46250000Y72510000D01*
X90000000Y71050000D02*
X90530000Y71050000D01*
%TO.N,+15V*%
X33362500Y10842500D02*
X34020000Y11500000D01*
X32800000Y69720000D02*
X32800000Y68300000D01*
X34020000Y12250000D02*
X34020000Y11500000D01*
X32800000Y68300000D02*
X32800000Y67525000D01*
X32800000Y67525000D02*
X32275000Y67000000D01*
X35500000Y71520000D02*
X35500000Y71000000D01*
X38025000Y70095000D02*
X36405000Y70095000D01*
X36405000Y70095000D02*
X35500000Y71000000D01*
X33362500Y9950000D02*
X33362500Y10842500D01*
D64*
X19000000Y7520000D02*
X19000000Y6525000D01*
X19000000Y6525000D02*
X16905000Y6525000D01*
D61*
X34020000Y13000000D02*
X34020000Y12250000D01*
D62*
%TO.N,Net-(D5-A)*%
X31950000Y51862500D02*
X31950000Y52950000D01*
X31950000Y52950000D02*
X33650000Y54650000D01*
X33650000Y54650000D02*
X34500000Y54650000D01*
D65*
X34500000Y54650000D02*
X34500000Y57225000D01*
D61*
%TO.N,+12V*%
X11500000Y21450000D02*
X11500000Y22250000D01*
X33000000Y77000000D02*
X34000000Y77000000D01*
D64*
X11500000Y21450000D02*
X9450000Y21450000D01*
D61*
X31980000Y77000000D02*
X33000000Y77000000D01*
X32800000Y75180000D02*
X31980000Y76000000D01*
X84000000Y73650000D02*
X81575000Y73650000D01*
D64*
X9450000Y21450000D02*
X8510000Y20510000D01*
D61*
X81575000Y73650000D02*
X79537500Y75687500D01*
D64*
X8510000Y20510000D02*
X8510000Y19500000D01*
D61*
X31980000Y77000000D02*
X31980000Y76000000D01*
X32800000Y74280000D02*
X32800000Y75180000D01*
%TO.N,/VIN_REF*%
X45537500Y40000000D02*
X43750000Y40000000D01*
D64*
X41615000Y71365000D02*
X42975000Y71365000D01*
X40980000Y68000000D02*
X40980000Y67020000D01*
X40980000Y70730000D02*
X41615000Y71365000D01*
D61*
X41962500Y40000000D02*
X43750000Y40000000D01*
D64*
X40980000Y68000000D02*
X40980000Y70730000D01*
D61*
X41962500Y40000000D02*
X41000000Y40000000D01*
D64*
X40980000Y67020000D02*
X41000000Y67000000D01*
%TO.N,/VOUT_REF_PRE*%
X40980000Y73270000D02*
X41615000Y72635000D01*
D61*
X16462500Y45000000D02*
X18250000Y45000000D01*
X20037500Y45000000D02*
X21000000Y45000000D01*
D64*
X40980000Y76000000D02*
X41500000Y76000000D01*
X41615000Y72635000D02*
X42975000Y72635000D01*
D61*
X20037500Y45000000D02*
X18250000Y45000000D01*
D64*
X40980000Y76000000D02*
X40980000Y73270000D01*
%TO.N,VOUT_REF_DIS*%
X15635000Y11475000D02*
X15635000Y10260000D01*
X10000000Y23500000D02*
X17750000Y23500000D01*
D61*
X20037500Y25000000D02*
X18250000Y25000000D01*
D64*
X17750000Y23500000D02*
X18250000Y24000000D01*
X13095000Y7720000D02*
X13095000Y6525000D01*
X15635000Y10260000D02*
X13095000Y7720000D01*
X18250000Y24000000D02*
X18250000Y25000000D01*
X11000000Y7520000D02*
X11000000Y6525000D01*
D61*
X18250000Y25000000D02*
X16462500Y25000000D01*
D64*
X11000000Y6525000D02*
X13095000Y6525000D01*
D61*
%TO.N,VOUT+*%
X49962500Y45000000D02*
X62000000Y45000000D01*
X49962500Y25000000D02*
X62000000Y25000000D01*
D66*
X59537500Y56000000D02*
X59537500Y68187500D01*
D63*
X90000000Y9000000D02*
X82000000Y9000000D01*
D66*
X59537500Y75687500D02*
X59537500Y68187500D01*
D64*
%TO.N,+5V*%
X26980000Y11500000D02*
X27900000Y11500000D01*
X29000000Y11500000D02*
X27900000Y11500000D01*
X18050000Y18050000D02*
X19500000Y19500000D01*
X18050000Y16500000D02*
X18050000Y18050000D01*
X19500000Y19500000D02*
X19500000Y20490000D01*
X27900000Y11500000D02*
X27900000Y9750000D01*
%TO.N,/Comparator/VIN_REF_H*%
X21000000Y27500000D02*
X42750000Y27500000D01*
D61*
X41962500Y30000000D02*
X43750000Y30000000D01*
X45537500Y30000000D02*
X43750000Y30000000D01*
D64*
X14365000Y4000000D02*
X14365000Y6525000D01*
X42750000Y27500000D02*
X43750000Y28500000D01*
X14365000Y4000000D02*
X15020000Y4000000D01*
X43750000Y28500000D02*
X43750000Y30000000D01*
%TO.N,/Comparator/VIN_REF_L*%
X42750000Y32500000D02*
X19000000Y32500000D01*
X14365000Y14000000D02*
X15020000Y14000000D01*
X14365000Y14000000D02*
X14365000Y11475000D01*
X43750000Y35000000D02*
X43750000Y33500000D01*
X43750000Y33500000D02*
X42750000Y32500000D01*
D61*
X41962500Y35000000D02*
X43750000Y35000000D01*
X45537500Y35000000D02*
X43750000Y35000000D01*
D66*
%TO.N,R_PRECHARGE+*%
X54537500Y75687500D02*
X52000000Y78225000D01*
X54537500Y75687500D02*
X54537500Y68187500D01*
X52000000Y78225000D02*
X52000000Y84500000D01*
D61*
%TO.N,Net-(D6-A)*%
X87062500Y72000000D02*
X85650000Y72000000D01*
X84000000Y70350000D02*
X81700000Y70350000D01*
X81700000Y70350000D02*
X79537500Y68187500D01*
X85650000Y72000000D02*
X84000000Y70350000D01*
D64*
%TO.N,Net-(D8-A)*%
X5787500Y19500000D02*
X7490000Y19500000D01*
%TO.N,Net-(D9-A)*%
X5787500Y25000000D02*
X7490000Y25000000D01*
%TO.N,Net-(D10-A)*%
X5787500Y14000000D02*
X7490000Y14000000D01*
D66*
%TO.N,R_PRECHARGE-*%
X67000000Y78150000D02*
X67000000Y84500000D01*
X64537500Y75687500D02*
X64537500Y68187500D01*
X64537500Y75687500D02*
X67000000Y78150000D01*
D61*
%TO.N,Net-(Q2-G)*%
X40600000Y11540000D02*
X39010000Y9950000D01*
X39010000Y9950000D02*
X39010000Y8050000D01*
X44350000Y11540000D02*
X40600000Y11540000D01*
%TO.N,/PRE*%
X44595000Y70095000D02*
X45500000Y71000000D01*
X45500000Y71490000D02*
X45500000Y71000000D01*
X42975000Y70095000D02*
X44595000Y70095000D01*
D64*
X8510000Y25000000D02*
X10000000Y25000000D01*
D62*
%TO.N,Net-(U2-CS)*%
X31000000Y54137500D02*
X31000000Y56037500D01*
D61*
%TO.N,Net-(U3-OUT)*%
X35637500Y9950000D02*
X37990000Y9950000D01*
D64*
%TO.N,/DIS*%
X27900000Y8250000D02*
X27900000Y7100000D01*
X27900000Y8250000D02*
X28750000Y8250000D01*
X29000000Y9000000D02*
X28750000Y9250000D01*
X28500000Y6500000D02*
X33362500Y6500000D01*
X8510000Y13000000D02*
X8510000Y14000000D01*
X28750000Y8250000D02*
X29000000Y8500000D01*
X28750000Y9250000D02*
X27900000Y9250000D01*
X29000000Y8500000D02*
X29000000Y9000000D01*
X33990000Y6500000D02*
X33362500Y6500000D01*
X33362500Y6500000D02*
X33362500Y8050000D01*
X27900000Y7100000D02*
X28500000Y6500000D01*
D61*
%TO.N,Net-(R10-Pad2)*%
X17962500Y40000000D02*
X20037500Y40000000D01*
%TO.N,Net-(R11-Pad2)*%
X44037500Y45000000D02*
X41962500Y45000000D01*
%TO.N,Net-(R12-Pad2)*%
X44037500Y25000000D02*
X41962500Y25000000D01*
%TO.N,Net-(R13-Pad2)*%
X25962500Y40000000D02*
X28037500Y40000000D01*
%TO.N,Net-(R14-Pad2)*%
X36037500Y45000000D02*
X33962500Y45000000D01*
%TO.N,Net-(R15-Pad2)*%
X36037500Y25000000D02*
X33962500Y25000000D01*
%TO.N,Net-(R16-Pad2)*%
X33962500Y40000000D02*
X36037500Y40000000D01*
%TO.N,Net-(R17-Pad2)*%
X28037500Y45000000D02*
X25962500Y45000000D01*
D64*
%TO.N,Net-(U6-FB)*%
X18060000Y21950000D02*
X18500000Y21510000D01*
X16137500Y21950000D02*
X18060000Y21950000D01*
X18500000Y21510000D02*
X19500000Y21510000D01*
%TO.N,/Comparator/R*%
X25100000Y9750000D02*
X22250000Y9750000D01*
X22250000Y9750000D02*
X21000000Y11000000D01*
X21000000Y14000000D02*
X25990000Y14000000D01*
X19510000Y14000000D02*
X21000000Y14000000D01*
X21000000Y11000000D02*
X21000000Y14000000D01*
%TO.N,Net-(R27-Pad1)*%
X17975000Y11475000D02*
X18490000Y11990000D01*
X16905000Y11475000D02*
X17975000Y11475000D01*
X18490000Y11990000D02*
X18490000Y14000000D01*
%TO.N,/Comparator/S*%
X21000000Y4000000D02*
X25990000Y4000000D01*
X25990000Y7740000D02*
X25990000Y4000000D01*
X19510000Y4000000D02*
X21000000Y4000000D01*
X27000000Y8750000D02*
X25990000Y7740000D01*
X27900000Y8750000D02*
X27000000Y8750000D01*
D61*
%TO.N,Net-(R31-Pad2)*%
X20037500Y30000000D02*
X17962500Y30000000D01*
%TO.N,Net-(R32-Pad2)*%
X28037500Y30000000D02*
X25962500Y30000000D01*
%TO.N,Net-(R33-Pad2)*%
X36037500Y30000000D02*
X33962500Y30000000D01*
%TO.N,Net-(R37-Pad2)*%
X20037500Y35000000D02*
X17962500Y35000000D01*
%TO.N,Net-(R38-Pad2)*%
X25962500Y35000000D02*
X28037500Y35000000D01*
%TO.N,Net-(R39-Pad2)*%
X36037500Y35000000D02*
X33962500Y35000000D01*
D64*
%TO.N,Net-(U7-Pad2)*%
X25100000Y9250000D02*
X25100000Y8750000D01*
D61*
%TO.N,Net-(R18-Pad2)*%
X28037500Y25000000D02*
X25962500Y25000000D01*
D64*
%TO.N,Net-(R28-Pad1)*%
X16000000Y4750000D02*
X17000000Y4750000D01*
X15635000Y6525000D02*
X15635000Y5115000D01*
X17000000Y4750000D02*
X17750000Y4000000D01*
X15635000Y5115000D02*
X16000000Y4750000D01*
X17750000Y4000000D02*
X18490000Y4000000D01*
D61*
%TO.N,Net-(R36-Pad1)*%
X48462500Y30000000D02*
X51000000Y30000000D01*
%TO.N,Net-(R42-Pad1)*%
X48462500Y35000000D02*
X47000000Y35000000D01*
%TO.N,Net-(R23-Pad1)*%
X23000000Y35000000D02*
X23000000Y42500000D01*
X13537500Y45000000D02*
X15000000Y45000000D01*
%TD*%
%TA.AperFunction,Conductor*%
%TO.N,VIN-*%
G36*
X51000000Y51554973D02*
G01*
X50750000Y51050000D01*
X50250000Y51050000D01*
X50000000Y51554973D01*
X50500000Y52051000D01*
X51000000Y51554973D01*
G37*
%TD.AperFunction*%
%TD*%
%TA.AperFunction,Conductor*%
%TO.N,Net-(R42-Pad1)*%
G36*
X47583499Y35250887D02*
G01*
X47591462Y35246791D01*
X47594236Y35239227D01*
X47594236Y34760774D01*
X47590809Y34752501D01*
X47583499Y34749114D01*
X47068895Y34706621D01*
X47060368Y34709355D01*
X47056464Y34715961D01*
X46999469Y34997680D01*
X46999469Y35002320D01*
X47049578Y35250000D01*
X47056464Y35284041D01*
X47061464Y35291469D01*
X47068894Y35293380D01*
X47583499Y35250887D01*
G37*
%TD.AperFunction*%
%TD*%
%TA.AperFunction,Conductor*%
%TO.N,VIN-*%
G36*
X27437481Y14289015D02*
G01*
X27443666Y14282539D01*
X27444225Y14280631D01*
X27500530Y14002320D01*
X27500530Y13997680D01*
X27444225Y13719370D01*
X27439225Y13711941D01*
X27430437Y13710222D01*
X27428529Y13710781D01*
X27017472Y13870104D01*
X27010996Y13876289D01*
X27010000Y13881013D01*
X27010000Y14118988D01*
X27013427Y14127261D01*
X27017468Y14129895D01*
X27428531Y14289220D01*
X27437481Y14289015D01*
G37*
%TD.AperFunction*%
%TD*%
%TA.AperFunction,Conductor*%
%TO.N,/DIS*%
G36*
X27908250Y8242703D02*
G01*
X27908297Y8242656D01*
X28070220Y8079807D01*
X28073623Y8071524D01*
X28073206Y8068462D01*
X28029360Y7908605D01*
X28023867Y7901533D01*
X28018077Y7900000D01*
X27781923Y7900000D01*
X27773650Y7903427D01*
X27770640Y7908605D01*
X27726793Y8068462D01*
X27727909Y8077347D01*
X27729776Y8079805D01*
X27891703Y8242657D01*
X27899967Y8246106D01*
X27908250Y8242703D01*
G37*
%TD.AperFunction*%
%TD*%
%TA.AperFunction,Conductor*%
%TO.N,VIN+*%
G36*
X12288193Y37284073D02*
G01*
X12290598Y37280583D01*
X12628967Y36525141D01*
X12629221Y36516190D01*
X12629189Y36516107D01*
X12048400Y35026948D01*
X12042202Y35020485D01*
X12033249Y35020299D01*
X12026786Y35026497D01*
X12026600Y35026948D01*
X11445810Y36516107D01*
X11445996Y36525060D01*
X11446032Y36525141D01*
X11784402Y37280583D01*
X11790912Y37286732D01*
X11795080Y37287500D01*
X12279920Y37287500D01*
X12288193Y37284073D01*
G37*
%TD.AperFunction*%
%TD*%
%TA.AperFunction,Conductor*%
%TO.N,VIN-*%
G36*
X53500000Y51554973D02*
G01*
X53250000Y51050000D01*
X52750000Y51050000D01*
X52500000Y51554973D01*
X53000000Y52051000D01*
X53500000Y51554973D01*
G37*
%TD.AperFunction*%
%TD*%
%TA.AperFunction,Conductor*%
%TO.N,/VOUT_REF_PRE*%
G36*
X40987491Y75994754D02*
G01*
X41242885Y75781809D01*
X41247044Y75773879D01*
X41246298Y75768586D01*
X41109899Y75417463D01*
X41103709Y75410993D01*
X41098993Y75410000D01*
X40861007Y75410000D01*
X40852734Y75413427D01*
X40850101Y75417463D01*
X40832607Y75462496D01*
X40713701Y75768588D01*
X40713900Y75777539D01*
X40717111Y75781806D01*
X40972508Y75994754D01*
X40981056Y75997419D01*
X40987491Y75994754D01*
G37*
%TD.AperFunction*%
%TD*%
%TA.AperFunction,Conductor*%
%TO.N,VOUT_REF_DIS*%
G36*
X17032704Y25558220D02*
G01*
X17581482Y25253343D01*
X17587050Y25246330D01*
X17587500Y25243116D01*
X17587500Y24756885D01*
X17584073Y24748612D01*
X17581482Y24746657D01*
X17032707Y24441782D01*
X17023811Y24440760D01*
X17018759Y24443730D01*
X16705047Y24756885D01*
X16469793Y24991722D01*
X16466360Y24999990D01*
X16469779Y25008265D01*
X17018760Y25556272D01*
X17027035Y25559691D01*
X17032704Y25558220D01*
G37*
%TD.AperFunction*%
%TD*%
%TA.AperFunction,Conductor*%
%TO.N,VOUT+*%
G36*
X50582804Y45607882D02*
G01*
X51181759Y45253398D01*
X51187133Y45246235D01*
X51187500Y45243329D01*
X51187500Y44756672D01*
X51184073Y44748399D01*
X51181759Y44746603D01*
X50582805Y44392120D01*
X50573940Y44390856D01*
X50568581Y44393909D01*
X49969792Y44991721D01*
X49966359Y44999990D01*
X49969779Y45008266D01*
X50568582Y45606094D01*
X50576856Y45609512D01*
X50582804Y45607882D01*
G37*
%TD.AperFunction*%
%TD*%
%TA.AperFunction,Conductor*%
%TO.N,VIN-*%
G36*
X3846625Y25402638D02*
G01*
X3989384Y25245963D01*
X4206319Y25007880D01*
X4209358Y24999457D01*
X4206319Y24992120D01*
X3846627Y24597364D01*
X3838522Y24593557D01*
X3830467Y24596274D01*
X3504188Y24869494D01*
X3500046Y24877433D01*
X3500000Y24878464D01*
X3500000Y25121537D01*
X3503427Y25129810D01*
X3504188Y25130507D01*
X3830468Y25403728D01*
X3839010Y25406411D01*
X3846625Y25402638D01*
G37*
%TD.AperFunction*%
%TD*%
%TA.AperFunction,Conductor*%
%TO.N,Net-(D4-K)*%
G36*
X39018306Y65481694D02*
G01*
X39481694Y65018306D01*
X39500000Y64974112D01*
X39500000Y59025888D01*
X39481694Y58981694D01*
X39018306Y58518306D01*
X38974112Y58500000D01*
X24525888Y58500000D01*
X24481694Y58518306D01*
X24018306Y58981694D01*
X24000000Y59025888D01*
X24000000Y60974112D01*
X24018306Y61018306D01*
X24481694Y61481694D01*
X24525888Y61500000D01*
X35500000Y61500000D01*
X36000000Y62000000D01*
X36000000Y64974112D01*
X36018306Y65018306D01*
X36481694Y65481694D01*
X36525888Y65500000D01*
X38974112Y65500000D01*
X39018306Y65481694D01*
G37*
%TD.AperFunction*%
%TD*%
%TA.AperFunction,Conductor*%
%TO.N,/DIS*%
G36*
X33489169Y7090809D02*
G01*
X33492064Y7086023D01*
X33652870Y6570910D01*
X33652065Y6561991D01*
X33645189Y6556255D01*
X33644022Y6555955D01*
X33364820Y6499470D01*
X33360180Y6499470D01*
X33080977Y6555955D01*
X33073548Y6560955D01*
X33071829Y6569743D01*
X33072125Y6570898D01*
X33232936Y7086024D01*
X33238672Y7092899D01*
X33244104Y7094236D01*
X33480896Y7094236D01*
X33489169Y7090809D01*
G37*
%TD.AperFunction*%
%TD*%
%TA.AperFunction,Conductor*%
%TO.N,Net-(D6-A)*%
G36*
X84585585Y71275924D02*
G01*
X84926366Y70935143D01*
X84929793Y70926870D01*
X84928386Y70921308D01*
X84603544Y70320164D01*
X84596596Y70314514D01*
X84592557Y70314047D01*
X84006620Y70348858D01*
X83998565Y70352769D01*
X83996498Y70356077D01*
X83817354Y70790898D01*
X83817371Y70799852D01*
X83821930Y70805250D01*
X84571074Y71277549D01*
X84579898Y71279062D01*
X84585585Y71275924D01*
G37*
%TD.AperFunction*%
%TD*%
%TA.AperFunction,Conductor*%
%TO.N,VIN-*%
G36*
X34986098Y12997276D02*
G01*
X35253920Y12833713D01*
X35259195Y12826477D01*
X35259492Y12822894D01*
X35230776Y12420866D01*
X35226769Y12412858D01*
X35219106Y12410000D01*
X34740894Y12410000D01*
X34732621Y12413427D01*
X34729224Y12420866D01*
X34723480Y12501272D01*
X34700507Y12822896D01*
X34703335Y12831391D01*
X34706077Y12833712D01*
X34973902Y12997277D01*
X34982749Y12998664D01*
X34986098Y12997276D01*
G37*
%TD.AperFunction*%
%TD*%
%TA.AperFunction,Conductor*%
%TO.N,/VOUT_REF_PRE*%
G36*
X19431417Y45606093D02*
G01*
X19747352Y45290674D01*
X20030206Y45008280D01*
X20033640Y45000010D01*
X20030220Y44991734D01*
X20030206Y44991720D01*
X19431419Y44393909D01*
X19423143Y44390489D01*
X19417194Y44392120D01*
X18818241Y44746603D01*
X18812867Y44753766D01*
X18812500Y44756672D01*
X18812500Y45243329D01*
X18815927Y45251602D01*
X18818241Y45253398D01*
X19417195Y45607882D01*
X19426059Y45609145D01*
X19431417Y45606093D01*
G37*
%TD.AperFunction*%
%TD*%
%TA.AperFunction,Conductor*%
%TO.N,/VOUT_REF_PRE*%
G36*
X20658126Y45604081D02*
G01*
X20658257Y45603948D01*
X20996717Y45253400D01*
X21000000Y45245274D01*
X21000000Y44754727D01*
X20996717Y44746600D01*
X20658263Y44396059D01*
X20650051Y44392488D01*
X20641719Y44395769D01*
X20641580Y44395906D01*
X20641427Y44396059D01*
X20044792Y44991721D01*
X20041359Y44999990D01*
X20044779Y45008266D01*
X20641582Y45604096D01*
X20649856Y45607515D01*
X20658126Y45604081D01*
G37*
%TD.AperFunction*%
%TD*%
%TA.AperFunction,Conductor*%
%TO.N,VIN-*%
G36*
X35529336Y13250948D02*
G01*
X35537273Y13246802D01*
X35540000Y13239294D01*
X35540000Y12760707D01*
X35536573Y12752434D01*
X35529336Y12749053D01*
X35208784Y12720557D01*
X35200240Y12723238D01*
X35198604Y12724912D01*
X35145964Y12790851D01*
X34984825Y12992703D01*
X34982343Y13001304D01*
X34984825Y13007297D01*
X35198604Y13275090D01*
X35206444Y13279417D01*
X35208780Y13279444D01*
X35529336Y13250948D01*
G37*
%TD.AperFunction*%
%TD*%
%TA.AperFunction,Conductor*%
%TO.N,Net-(U6-BS)*%
G36*
X16518306Y20231694D02*
G01*
X16731694Y20018306D01*
X16750000Y19974112D01*
X16750000Y18525888D01*
X16731694Y18481694D01*
X16518306Y18268306D01*
X16474112Y18250000D01*
X15525888Y18250000D01*
X15481694Y18268306D01*
X15268306Y18481694D01*
X15250000Y18525888D01*
X15250000Y19974112D01*
X15268306Y20018306D01*
X15481694Y20231694D01*
X15525888Y20250000D01*
X16474112Y20250000D01*
X16518306Y20231694D01*
G37*
%TD.AperFunction*%
%TD*%
%TA.AperFunction,Conductor*%
%TO.N,Net-(D6-A)*%
G36*
X83541312Y70780035D02*
G01*
X83543860Y70778223D01*
X83743318Y70591382D01*
X83991884Y70358539D01*
X83995579Y70350382D01*
X83992424Y70342001D01*
X83991884Y70341461D01*
X83543864Y69921781D01*
X83535483Y69918626D01*
X83532395Y69919146D01*
X82958230Y70097445D01*
X82951346Y70103172D01*
X82950000Y70108619D01*
X82950000Y70591382D01*
X82953427Y70599655D01*
X82958228Y70602556D01*
X83532396Y70780855D01*
X83541312Y70780035D01*
G37*
%TD.AperFunction*%
%TD*%
%TA.AperFunction,Conductor*%
%TO.N,VIN-*%
G36*
X53294236Y50558527D02*
G01*
X53000000Y50499000D01*
X52705764Y50558527D01*
X52750000Y51094236D01*
X53250000Y51094236D01*
X53294236Y50558527D01*
G37*
%TD.AperFunction*%
%TD*%
%TA.AperFunction,Conductor*%
%TO.N,+12V*%
G36*
X11794236Y22191473D02*
G01*
X11750000Y21655764D01*
X11250000Y21655764D01*
X11205764Y22191473D01*
X11500000Y22251000D01*
X11794236Y22191473D01*
G37*
%TD.AperFunction*%
%TD*%
%TA.AperFunction,Conductor*%
%TO.N,/VIN_REF*%
G36*
X43649281Y40485990D02*
G01*
X43654741Y40478892D01*
X43654914Y40478155D01*
X43750536Y40002305D01*
X43750536Y39997695D01*
X43654914Y39521846D01*
X43649924Y39514410D01*
X43641138Y39512680D01*
X43640401Y39512853D01*
X42768265Y39747669D01*
X42761167Y39753129D01*
X42759607Y39758967D01*
X42759607Y40241034D01*
X42763034Y40249307D01*
X42768262Y40252331D01*
X43640402Y40487148D01*
X43649281Y40485990D01*
G37*
%TD.AperFunction*%
%TD*%
%TA.AperFunction,Conductor*%
%TO.N,VIN-*%
G36*
X16437655Y4289209D02*
G01*
X16443696Y4282598D01*
X16444164Y4280932D01*
X16500530Y4002320D01*
X16500530Y3997680D01*
X16444164Y3719069D01*
X16439164Y3711640D01*
X16430376Y3709921D01*
X16428713Y3710389D01*
X16281948Y3763576D01*
X15987714Y3870205D01*
X15981103Y3876246D01*
X15980000Y3881205D01*
X15980000Y4118796D01*
X15983427Y4127069D01*
X15987712Y4129795D01*
X16428713Y4289612D01*
X16437655Y4289209D01*
G37*
%TD.AperFunction*%
%TD*%
%TA.AperFunction,Conductor*%
%TO.N,Net-(R15-Pad2)*%
G36*
X35431417Y25606093D02*
G01*
X35747352Y25290674D01*
X36030206Y25008280D01*
X36033640Y25000010D01*
X36030220Y24991734D01*
X36030206Y24991720D01*
X35431419Y24393909D01*
X35423143Y24390489D01*
X35417194Y24392120D01*
X34818241Y24746603D01*
X34812867Y24753766D01*
X34812500Y24756672D01*
X34812500Y25243329D01*
X34815927Y25251602D01*
X34818241Y25253398D01*
X35417195Y25607882D01*
X35426059Y25609145D01*
X35431417Y25606093D01*
G37*
%TD.AperFunction*%
%TD*%
%TA.AperFunction,Conductor*%
%TO.N,Net-(R14-Pad2)*%
G36*
X35431417Y45606093D02*
G01*
X35747352Y45290674D01*
X36030206Y45008280D01*
X36033640Y45000010D01*
X36030220Y44991734D01*
X36030206Y44991720D01*
X35431419Y44393909D01*
X35423143Y44390489D01*
X35417194Y44392120D01*
X34818241Y44746603D01*
X34812867Y44753766D01*
X34812500Y44756672D01*
X34812500Y45243329D01*
X34815927Y45251602D01*
X34818241Y45253398D01*
X35417195Y45607882D01*
X35426059Y45609145D01*
X35431417Y45606093D01*
G37*
%TD.AperFunction*%
%TD*%
%TA.AperFunction,Conductor*%
%TO.N,VOUT_REF_DIS*%
G36*
X18359592Y25487150D02*
G01*
X19231736Y25252331D01*
X19238833Y25246872D01*
X19240393Y25241034D01*
X19240393Y24758967D01*
X19236966Y24750694D01*
X19231735Y24747669D01*
X18359598Y24512853D01*
X18350718Y24514011D01*
X18345258Y24521109D01*
X18345088Y24521830D01*
X18249463Y24997696D01*
X18249463Y25002305D01*
X18298609Y25246872D01*
X18345086Y25478157D01*
X18350075Y25485591D01*
X18358861Y25487321D01*
X18359592Y25487150D01*
G37*
%TD.AperFunction*%
%TD*%
%TA.AperFunction,Conductor*%
%TO.N,Net-(R12-Pad2)*%
G36*
X42582804Y25607882D02*
G01*
X43181759Y25253398D01*
X43187133Y25246235D01*
X43187500Y25243329D01*
X43187500Y24756672D01*
X43184073Y24748399D01*
X43181759Y24746603D01*
X42582805Y24392120D01*
X42573940Y24390856D01*
X42568581Y24393909D01*
X41969792Y24991721D01*
X41966359Y24999990D01*
X41969779Y25008266D01*
X42568582Y25606094D01*
X42576856Y25609512D01*
X42582804Y25607882D01*
G37*
%TD.AperFunction*%
%TD*%
%TA.AperFunction,Conductor*%
%TO.N,Net-(R11-Pad2)*%
G36*
X42582804Y45607882D02*
G01*
X43181759Y45253398D01*
X43187133Y45246235D01*
X43187500Y45243329D01*
X43187500Y44756672D01*
X43184073Y44748399D01*
X43181759Y44746603D01*
X42582805Y44392120D01*
X42573940Y44390856D01*
X42568581Y44393909D01*
X41969792Y44991721D01*
X41966359Y44999990D01*
X41969779Y45008266D01*
X42568582Y45606094D01*
X42576856Y45609512D01*
X42582804Y45607882D01*
G37*
%TD.AperFunction*%
%TD*%
%TA.AperFunction,Conductor*%
%TO.N,VIN-*%
G36*
X11128134Y8996573D02*
G01*
X11130265Y8993651D01*
X11275618Y8711044D01*
X11276355Y8702120D01*
X11272513Y8696549D01*
X11007299Y8484827D01*
X10998696Y8482344D01*
X10992701Y8484827D01*
X10727486Y8696549D01*
X10723158Y8704389D01*
X10724380Y8711043D01*
X10869735Y8993651D01*
X10876566Y8999441D01*
X10880139Y9000000D01*
X11119861Y9000000D01*
X11128134Y8996573D01*
G37*
%TD.AperFunction*%
%TD*%
%TA.AperFunction,Conductor*%
%TO.N,+15V*%
G36*
X33610862Y10546573D02*
G01*
X33614130Y10540223D01*
X33661512Y10255927D01*
X33659492Y10247203D01*
X33658258Y10245745D01*
X33370787Y9957315D01*
X33362519Y9953874D01*
X33354241Y9957287D01*
X33354213Y9957315D01*
X33066741Y10245745D01*
X33063328Y10254023D01*
X33063486Y10255917D01*
X33110870Y10540225D01*
X33115611Y10547821D01*
X33122411Y10550000D01*
X33602589Y10550000D01*
X33610862Y10546573D01*
G37*
%TD.AperFunction*%
%TD*%
%TA.AperFunction,Conductor*%
%TO.N,Net-(R37-Pad2)*%
G36*
X19431417Y35606093D02*
G01*
X19747352Y35290674D01*
X20030206Y35008280D01*
X20033640Y35000010D01*
X20030220Y34991734D01*
X20030206Y34991720D01*
X19431419Y34393909D01*
X19423143Y34390489D01*
X19417194Y34392120D01*
X18818241Y34746603D01*
X18812867Y34753766D01*
X18812500Y34756672D01*
X18812500Y35243329D01*
X18815927Y35251602D01*
X18818241Y35253398D01*
X19417195Y35607882D01*
X19426059Y35609145D01*
X19431417Y35606093D01*
G37*
%TD.AperFunction*%
%TD*%
%TA.AperFunction,Conductor*%
%TO.N,/Comparator/S*%
G36*
X26117170Y4586573D02*
G01*
X26119850Y4582414D01*
X26246942Y4244068D01*
X26246643Y4235118D01*
X26243887Y4231322D01*
X25997898Y4006228D01*
X25989482Y4003171D01*
X25982102Y4006228D01*
X25736112Y4231322D01*
X25732321Y4239436D01*
X25733056Y4244064D01*
X25860150Y4582415D01*
X25866267Y4588954D01*
X25871103Y4590000D01*
X26108897Y4590000D01*
X26117170Y4586573D01*
G37*
%TD.AperFunction*%
%TD*%
%TA.AperFunction,Conductor*%
%TO.N,VIN-*%
G36*
X48575000Y50950000D02*
G01*
X48250000Y50500000D01*
X47750000Y50500000D01*
X47425000Y50950000D01*
X48000000Y51526000D01*
X48575000Y50950000D01*
G37*
%TD.AperFunction*%
%TD*%
%TA.AperFunction,Conductor*%
%TO.N,+12V*%
G36*
X32529336Y77250948D02*
G01*
X32537273Y77246802D01*
X32540000Y77239294D01*
X32540000Y76760707D01*
X32536573Y76752434D01*
X32529336Y76749053D01*
X32208784Y76720557D01*
X32200240Y76723238D01*
X32198604Y76724912D01*
X32145964Y76790851D01*
X31984825Y76992703D01*
X31982343Y77001304D01*
X31984825Y77007297D01*
X32198604Y77275090D01*
X32206444Y77279417D01*
X32208780Y77279444D01*
X32529336Y77250948D01*
G37*
%TD.AperFunction*%
%TD*%
%TA.AperFunction,Conductor*%
%TO.N,/DIS*%
G36*
X33758372Y6763410D02*
G01*
X33984160Y6507745D01*
X33987068Y6499275D01*
X33984160Y6492255D01*
X33758372Y6236591D01*
X33750327Y6232658D01*
X33744602Y6233758D01*
X33456700Y6369834D01*
X33450685Y6376468D01*
X33450000Y6380412D01*
X33450000Y6619589D01*
X33453427Y6627862D01*
X33456698Y6630167D01*
X33744603Y6766244D01*
X33753546Y6766680D01*
X33758372Y6763410D01*
G37*
%TD.AperFunction*%
%TD*%
%TA.AperFunction,Conductor*%
%TO.N,Net-(R39-Pad2)*%
G36*
X35431417Y35606093D02*
G01*
X35747352Y35290674D01*
X36030206Y35008280D01*
X36033640Y35000010D01*
X36030220Y34991734D01*
X36030206Y34991720D01*
X35431419Y34393909D01*
X35423143Y34390489D01*
X35417194Y34392120D01*
X34818241Y34746603D01*
X34812867Y34753766D01*
X34812500Y34756672D01*
X34812500Y35243329D01*
X34815927Y35251602D01*
X34818241Y35253398D01*
X35417195Y35607882D01*
X35426059Y35609145D01*
X35431417Y35606093D01*
G37*
%TD.AperFunction*%
%TD*%
%TA.AperFunction,Conductor*%
%TO.N,Net-(R38-Pad2)*%
G36*
X26582804Y35607882D02*
G01*
X27181759Y35253398D01*
X27187133Y35246235D01*
X27187500Y35243329D01*
X27187500Y34756672D01*
X27184073Y34748399D01*
X27181759Y34746603D01*
X26582805Y34392120D01*
X26573940Y34390856D01*
X26568581Y34393909D01*
X25969792Y34991721D01*
X25966359Y34999990D01*
X25969779Y35008266D01*
X26568582Y35606094D01*
X26576856Y35609512D01*
X26582804Y35607882D01*
G37*
%TD.AperFunction*%
%TD*%
%TA.AperFunction,Conductor*%
%TO.N,VIN-*%
G36*
X34314593Y9251157D02*
G01*
X34322436Y9246838D01*
X34325000Y9239529D01*
X34325000Y8760472D01*
X34321573Y8752199D01*
X34314592Y8748844D01*
X33878849Y8700428D01*
X33871655Y8701954D01*
X33789416Y8750000D01*
X33378790Y8989899D01*
X33373376Y8997030D01*
X33374591Y9005902D01*
X33378791Y9010102D01*
X33871658Y9298048D01*
X33878846Y9299573D01*
X34314593Y9251157D01*
G37*
%TD.AperFunction*%
%TD*%
%TA.AperFunction,Conductor*%
%TO.N,VIN-*%
G36*
X25070902Y11790373D02*
G01*
X25586023Y11629564D01*
X25592899Y11623828D01*
X25594236Y11618396D01*
X25594236Y11381605D01*
X25590809Y11373332D01*
X25586023Y11370437D01*
X25070909Y11209630D01*
X25061990Y11210435D01*
X25056254Y11217311D01*
X25055957Y11218463D01*
X24999469Y11497682D01*
X24999469Y11502320D01*
X25055955Y11781526D01*
X25060954Y11788952D01*
X25069742Y11790671D01*
X25070902Y11790373D01*
G37*
%TD.AperFunction*%
%TD*%
%TA.AperFunction,Conductor*%
%TO.N,Net-(R33-Pad2)*%
G36*
X35431417Y30606093D02*
G01*
X35747352Y30290674D01*
X36030206Y30008280D01*
X36033640Y30000010D01*
X36030220Y29991734D01*
X36030206Y29991720D01*
X35431419Y29393909D01*
X35423143Y29390489D01*
X35417194Y29392120D01*
X34818241Y29746603D01*
X34812867Y29753766D01*
X34812500Y29756672D01*
X34812500Y30243329D01*
X34815927Y30251602D01*
X34818241Y30253398D01*
X35417195Y30607882D01*
X35426059Y30609145D01*
X35431417Y30606093D01*
G37*
%TD.AperFunction*%
%TD*%
%TA.AperFunction,Conductor*%
%TO.N,+15V*%
G36*
X19007296Y7515175D02*
G01*
X19272883Y7303158D01*
X19277211Y7295318D01*
X19276240Y7289183D01*
X19130114Y6966869D01*
X19123577Y6960749D01*
X19119458Y6960000D01*
X18880542Y6960000D01*
X18872269Y6963427D01*
X18869886Y6966869D01*
X18843436Y7025210D01*
X18723758Y7289185D01*
X18723464Y7298133D01*
X18727113Y7303155D01*
X18992702Y7515175D01*
X19001304Y7517657D01*
X19007296Y7515175D01*
G37*
%TD.AperFunction*%
%TD*%
%TA.AperFunction,Conductor*%
%TO.N,+12V*%
G36*
X32939631Y77290646D02*
G01*
X32943535Y77284040D01*
X33000530Y77002320D01*
X33000530Y76997680D01*
X32943535Y76715961D01*
X32938535Y76708532D01*
X32931104Y76706621D01*
X32416501Y76749114D01*
X32408538Y76753210D01*
X32405764Y76760774D01*
X32405764Y77239227D01*
X32409191Y77247500D01*
X32416499Y77250887D01*
X32931104Y77293380D01*
X32939631Y77290646D01*
G37*
%TD.AperFunction*%
%TD*%
%TA.AperFunction,Conductor*%
%TO.N,+15V*%
G36*
X33747665Y11612832D02*
G01*
X34015389Y11502891D01*
X34021741Y11496578D01*
X34022228Y11495165D01*
X34104046Y11197044D01*
X34102931Y11188158D01*
X34100500Y11185170D01*
X33756017Y10881488D01*
X33747545Y10878588D01*
X33740007Y10881992D01*
X33402031Y11219968D01*
X33398604Y11228241D01*
X33401565Y11236020D01*
X33734488Y11609792D01*
X33742548Y11613689D01*
X33747665Y11612832D01*
G37*
%TD.AperFunction*%
%TD*%
%TA.AperFunction,Conductor*%
%TO.N,Net-(R10-Pad2)*%
G36*
X18582804Y40607882D02*
G01*
X19181759Y40253398D01*
X19187133Y40246235D01*
X19187500Y40243329D01*
X19187500Y39756672D01*
X19184073Y39748399D01*
X19181759Y39746603D01*
X18582805Y39392120D01*
X18573940Y39390856D01*
X18568581Y39393909D01*
X17969792Y39991721D01*
X17966359Y39999990D01*
X17969779Y40008266D01*
X18568582Y40606094D01*
X18576856Y40609512D01*
X18582804Y40607882D01*
G37*
%TD.AperFunction*%
%TD*%
%TA.AperFunction,Conductor*%
%TO.N,VIN-*%
G36*
X39571277Y68289616D02*
G01*
X40012286Y68129796D01*
X40018897Y68123755D01*
X40020000Y68118796D01*
X40020000Y67881205D01*
X40016573Y67872932D01*
X40012286Y67870205D01*
X39571289Y67710389D01*
X39562344Y67710792D01*
X39556303Y67717403D01*
X39555835Y67719069D01*
X39499469Y67997680D01*
X39499469Y68002320D01*
X39555835Y68280933D01*
X39560835Y68288361D01*
X39569623Y68290080D01*
X39571277Y68289616D01*
G37*
%TD.AperFunction*%
%TD*%
%TA.AperFunction,Conductor*%
%TO.N,Net-(R11-Pad2)*%
G36*
X43431417Y45606093D02*
G01*
X43747352Y45290674D01*
X44030206Y45008280D01*
X44033640Y45000010D01*
X44030220Y44991734D01*
X44030206Y44991720D01*
X43431419Y44393909D01*
X43423143Y44390489D01*
X43417194Y44392120D01*
X42818241Y44746603D01*
X42812867Y44753766D01*
X42812500Y44756672D01*
X42812500Y45243329D01*
X42815927Y45251602D01*
X42818241Y45253398D01*
X43417195Y45607882D01*
X43426059Y45609145D01*
X43431417Y45606093D01*
G37*
%TD.AperFunction*%
%TD*%
%TA.AperFunction,Conductor*%
%TO.N,VIN-*%
G36*
X13083499Y25250887D02*
G01*
X13091462Y25246791D01*
X13094236Y25239227D01*
X13094236Y24760774D01*
X13090809Y24752501D01*
X13083499Y24749114D01*
X12568895Y24706621D01*
X12560368Y24709355D01*
X12556464Y24715961D01*
X12499469Y24997680D01*
X12499469Y25002320D01*
X12549578Y25250000D01*
X12556464Y25284041D01*
X12561464Y25291469D01*
X12568894Y25293380D01*
X13083499Y25250887D01*
G37*
%TD.AperFunction*%
%TD*%
%TA.AperFunction,Conductor*%
%TO.N,+15V*%
G36*
X44518306Y65481694D02*
G01*
X44981694Y65018306D01*
X45000000Y64974112D01*
X45000000Y57500000D01*
X45500000Y57000000D01*
X54974112Y57000000D01*
X55018306Y56981694D01*
X55476194Y56523806D01*
X55494500Y56479612D01*
X55494500Y54020388D01*
X55476194Y53976194D01*
X55018306Y53518306D01*
X54974112Y53500000D01*
X39525888Y53500000D01*
X39481694Y53518306D01*
X39018306Y53981694D01*
X39000000Y54025888D01*
X39000000Y56474112D01*
X39018306Y56518306D01*
X39481694Y56981694D01*
X39525888Y57000000D01*
X41000000Y57000000D01*
X41500000Y57500000D01*
X41500000Y64974112D01*
X41518306Y65018306D01*
X41981694Y65481694D01*
X42025888Y65500000D01*
X44474112Y65500000D01*
X44518306Y65481694D01*
G37*
%TD.AperFunction*%
%TD*%
%TA.AperFunction,Conductor*%
%TO.N,+15V*%
G36*
X33047500Y68890809D02*
G01*
X33050887Y68883499D01*
X33093379Y68368896D01*
X33090645Y68360369D01*
X33084039Y68356465D01*
X32802320Y68299470D01*
X32797680Y68299470D01*
X32515960Y68356465D01*
X32508531Y68361465D01*
X32506620Y68368896D01*
X32549113Y68883499D01*
X32553209Y68891462D01*
X32560773Y68894236D01*
X33039227Y68894236D01*
X33047500Y68890809D01*
G37*
%TD.AperFunction*%
%TD*%
%TA.AperFunction,Conductor*%
%TO.N,+15V*%
G36*
X34304039Y12193536D02*
G01*
X34311468Y12188536D01*
X34313379Y12181105D01*
X34270887Y11666501D01*
X34266791Y11658538D01*
X34259227Y11655764D01*
X33780773Y11655764D01*
X33772500Y11659191D01*
X33769113Y11666501D01*
X33726620Y12181105D01*
X33729354Y12189632D01*
X33735959Y12193536D01*
X34017682Y12250531D01*
X34022318Y12250531D01*
X34304039Y12193536D01*
G37*
%TD.AperFunction*%
%TD*%
%TA.AperFunction,Conductor*%
%TO.N,/Comparator/VIN_REF_H*%
G36*
X14375433Y6493616D02*
G01*
X14376122Y6491954D01*
X14652243Y5646695D01*
X14651940Y5638609D01*
X14494983Y5257247D01*
X14488666Y5250901D01*
X14484164Y5250000D01*
X14245836Y5250000D01*
X14237563Y5253427D01*
X14235017Y5257247D01*
X14078059Y5638609D01*
X14077756Y5646694D01*
X14353878Y6491955D01*
X14359705Y6498754D01*
X14368633Y6499443D01*
X14375433Y6493616D01*
G37*
%TD.AperFunction*%
%TD*%
%TA.AperFunction,Conductor*%
%TO.N,Net-(R28-Pad1)*%
G36*
X18258372Y4263410D02*
G01*
X18484160Y4007745D01*
X18487068Y3999275D01*
X18484160Y3992255D01*
X18258372Y3736591D01*
X18250327Y3732658D01*
X18244602Y3733758D01*
X17956700Y3869834D01*
X17950685Y3876468D01*
X17950000Y3880412D01*
X17950000Y4119589D01*
X17953427Y4127862D01*
X17956698Y4130167D01*
X18244603Y4266244D01*
X18253546Y4266680D01*
X18258372Y4263410D01*
G37*
%TD.AperFunction*%
%TD*%
%TA.AperFunction,Conductor*%
%TO.N,/Comparator/VIN_REF_H*%
G36*
X44981240Y30556271D02*
G01*
X45530205Y30008280D01*
X45533639Y30000010D01*
X45530219Y29991734D01*
X45530205Y29991720D01*
X44981240Y29443730D01*
X44972964Y29440310D01*
X44967292Y29441782D01*
X44418518Y29746657D01*
X44412950Y29753671D01*
X44412500Y29756885D01*
X44412500Y30243116D01*
X44415927Y30251389D01*
X44418514Y30253342D01*
X44967294Y30558220D01*
X44976188Y30559241D01*
X44981240Y30556271D01*
G37*
%TD.AperFunction*%
%TD*%
%TA.AperFunction,Conductor*%
%TO.N,Net-(Q1-G)*%
G36*
X89964593Y71301157D02*
G01*
X89972436Y71296838D01*
X89975000Y71289529D01*
X89975000Y70810472D01*
X89971573Y70802199D01*
X89964592Y70798844D01*
X89528484Y70750388D01*
X89521878Y70751592D01*
X88956948Y71039576D01*
X88951134Y71046387D01*
X88951838Y71055314D01*
X88956948Y71060424D01*
X89521879Y71348410D01*
X89528483Y71349613D01*
X89964593Y71301157D01*
G37*
%TD.AperFunction*%
%TD*%
%TA.AperFunction,Conductor*%
%TO.N,VIN-*%
G36*
X35783904Y72943564D02*
G01*
X35791332Y72938564D01*
X35793230Y72930980D01*
X35751015Y72490584D01*
X35746814Y72482675D01*
X35739368Y72480000D01*
X35260632Y72480000D01*
X35252359Y72483427D01*
X35248985Y72490584D01*
X35206769Y72930983D01*
X35209391Y72939542D01*
X35216094Y72943563D01*
X35497682Y73000531D01*
X35502318Y73000531D01*
X35783904Y72943564D01*
G37*
%TD.AperFunction*%
%TD*%
%TA.AperFunction,Conductor*%
%TO.N,+5V*%
G36*
X19507743Y20484162D02*
G01*
X19763409Y20258374D01*
X19767342Y20250329D01*
X19766242Y20244604D01*
X19630167Y19956700D01*
X19623534Y19950685D01*
X19619589Y19950000D01*
X19380411Y19950000D01*
X19372138Y19953427D01*
X19369833Y19956700D01*
X19233757Y20244604D01*
X19233320Y20253549D01*
X19236588Y20258372D01*
X19492256Y20484162D01*
X19500725Y20487069D01*
X19507743Y20484162D01*
G37*
%TD.AperFunction*%
%TD*%
%TA.AperFunction,Conductor*%
%TO.N,VIN-*%
G36*
X47247500Y70090809D02*
G01*
X47250887Y70083499D01*
X47293379Y69568896D01*
X47290645Y69560369D01*
X47284039Y69556465D01*
X47002320Y69499470D01*
X46997680Y69499470D01*
X46715960Y69556465D01*
X46708531Y69561465D01*
X46706620Y69568896D01*
X46749113Y70083499D01*
X46753209Y70091462D01*
X46760773Y70094236D01*
X47239227Y70094236D01*
X47247500Y70090809D01*
G37*
%TD.AperFunction*%
%TD*%
%TA.AperFunction,Conductor*%
%TO.N,VIN-*%
G36*
X44439631Y74195646D02*
G01*
X44443535Y74189040D01*
X44500530Y73907320D01*
X44500530Y73902680D01*
X44443535Y73620961D01*
X44438535Y73613532D01*
X44431104Y73611621D01*
X43916501Y73654114D01*
X43908538Y73658210D01*
X43905764Y73665774D01*
X43905764Y74144227D01*
X43909191Y74152500D01*
X43916499Y74155887D01*
X44431104Y74198380D01*
X44439631Y74195646D01*
G37*
%TD.AperFunction*%
%TD*%
%TA.AperFunction,Conductor*%
%TO.N,+5V*%
G36*
X27970902Y11790373D02*
G01*
X28486023Y11629564D01*
X28492899Y11623828D01*
X28494236Y11618396D01*
X28494236Y11381605D01*
X28490809Y11373332D01*
X28486023Y11370437D01*
X27970909Y11209630D01*
X27961990Y11210435D01*
X27956254Y11217311D01*
X27955957Y11218463D01*
X27899469Y11497682D01*
X27899469Y11502320D01*
X27955955Y11781526D01*
X27960954Y11788952D01*
X27969742Y11790671D01*
X27970902Y11790373D01*
G37*
%TD.AperFunction*%
%TD*%
%TA.AperFunction,Conductor*%
%TO.N,Net-(U7-Pad2)*%
G36*
X25108250Y9242703D02*
G01*
X25108297Y9242656D01*
X25270220Y9079807D01*
X25273623Y9071524D01*
X25273206Y9068462D01*
X25229360Y8908605D01*
X25223867Y8901533D01*
X25218077Y8900000D01*
X24981923Y8900000D01*
X24973650Y8903427D01*
X24970640Y8908605D01*
X24926793Y9068462D01*
X24927909Y9077347D01*
X24929776Y9079805D01*
X25091703Y9242657D01*
X25099967Y9246106D01*
X25108250Y9242703D01*
G37*
%TD.AperFunction*%
%TD*%
%TA.AperFunction,Conductor*%
%TO.N,VIN-*%
G36*
X30083499Y76250887D02*
G01*
X30091462Y76246791D01*
X30094236Y76239227D01*
X30094236Y75760774D01*
X30090809Y75752501D01*
X30083499Y75749114D01*
X30000001Y75742220D01*
X30000000Y75742219D01*
X29558527Y75705764D01*
X29499000Y76000000D01*
X29558527Y76294236D01*
X30083499Y76250887D01*
G37*
%TD.AperFunction*%
%TD*%
%TA.AperFunction,Conductor*%
%TO.N,/PRE*%
G36*
X44239593Y70346157D02*
G01*
X44247436Y70341838D01*
X44250000Y70334529D01*
X44250000Y69855472D01*
X44246573Y69847199D01*
X44239592Y69843844D01*
X43802717Y69795302D01*
X43797431Y69795933D01*
X43004278Y70084003D01*
X42997672Y70090048D01*
X42997275Y70098994D01*
X43003320Y70105600D01*
X43004278Y70105997D01*
X43797435Y70394069D01*
X43802713Y70394699D01*
X44239593Y70346157D01*
G37*
%TD.AperFunction*%
%TD*%
%TA.AperFunction,Conductor*%
%TO.N,Net-(R16-Pad2)*%
G36*
X34582804Y40607882D02*
G01*
X35181759Y40253398D01*
X35187133Y40246235D01*
X35187500Y40243329D01*
X35187500Y39756672D01*
X35184073Y39748399D01*
X35181759Y39746603D01*
X34582805Y39392120D01*
X34573940Y39390856D01*
X34568581Y39393909D01*
X33969792Y39991721D01*
X33966359Y39999990D01*
X33969779Y40008266D01*
X34568582Y40606094D01*
X34576856Y40609512D01*
X34582804Y40607882D01*
G37*
%TD.AperFunction*%
%TD*%
%TA.AperFunction,Conductor*%
%TO.N,Net-(D6-A)*%
G36*
X86478121Y72298409D02*
G01*
X87043051Y72010424D01*
X87048865Y72003613D01*
X87048161Y71994686D01*
X87043051Y71989576D01*
X86478121Y71701592D01*
X86471515Y71700388D01*
X86035408Y71748844D01*
X86027564Y71753163D01*
X86025000Y71760472D01*
X86025000Y72239529D01*
X86028427Y72247802D01*
X86035406Y72251157D01*
X86471515Y72299613D01*
X86478121Y72298409D01*
G37*
%TD.AperFunction*%
%TD*%
%TA.AperFunction,Conductor*%
%TO.N,Net-(R32-Pad2)*%
G36*
X26582804Y30607882D02*
G01*
X27181759Y30253398D01*
X27187133Y30246235D01*
X27187500Y30243329D01*
X27187500Y29756672D01*
X27184073Y29748399D01*
X27181759Y29746603D01*
X26582805Y29392120D01*
X26573940Y29390856D01*
X26568581Y29393909D01*
X25969792Y29991721D01*
X25966359Y29999990D01*
X25969779Y30008266D01*
X26568582Y30606094D01*
X26576856Y30609512D01*
X26582804Y30607882D01*
G37*
%TD.AperFunction*%
%TD*%
%TA.AperFunction,Conductor*%
%TO.N,Net-(R36-Pad1)*%
G36*
X49032704Y30558220D02*
G01*
X49581482Y30253343D01*
X49587050Y30246330D01*
X49587500Y30243116D01*
X49587500Y29756885D01*
X49584073Y29748612D01*
X49581482Y29746657D01*
X49032707Y29441782D01*
X49023811Y29440760D01*
X49018759Y29443730D01*
X48705047Y29756885D01*
X48469793Y29991722D01*
X48466360Y29999990D01*
X48469779Y30008265D01*
X49018760Y30556272D01*
X49027035Y30559691D01*
X49032704Y30558220D01*
G37*
%TD.AperFunction*%
%TD*%
%TA.AperFunction,Conductor*%
%TO.N,VIN-*%
G36*
X54757298Y52515174D02*
G01*
X54767430Y52507086D01*
X54776304Y52500001D01*
X54776306Y52500000D01*
X55030000Y52297476D01*
X55000000Y51960000D01*
X54500000Y51960000D01*
X54470000Y52297476D01*
X54742701Y52515174D01*
X54751304Y52517657D01*
X54757298Y52515174D01*
G37*
%TD.AperFunction*%
%TD*%
%TA.AperFunction,Conductor*%
%TO.N,/Comparator/VIN_REF_L*%
G36*
X14435902Y14290373D02*
G01*
X14951023Y14129564D01*
X14957899Y14123828D01*
X14959236Y14118396D01*
X14959236Y13881605D01*
X14955809Y13873332D01*
X14951023Y13870437D01*
X14435909Y13709630D01*
X14426990Y13710435D01*
X14421254Y13717311D01*
X14420957Y13718463D01*
X14364469Y13997682D01*
X14364469Y14002320D01*
X14420955Y14281526D01*
X14425954Y14288952D01*
X14434742Y14290671D01*
X14435902Y14290373D01*
G37*
%TD.AperFunction*%
%TD*%
%TA.AperFunction,Conductor*%
%TO.N,VIN-*%
G36*
X15833499Y21250887D02*
G01*
X15841462Y21246791D01*
X15844236Y21239227D01*
X15844236Y20760774D01*
X15840809Y20752501D01*
X15833499Y20749114D01*
X15318895Y20706621D01*
X15310368Y20709355D01*
X15306464Y20715961D01*
X15249469Y20997680D01*
X15249469Y21002320D01*
X15299578Y21250000D01*
X15306464Y21284041D01*
X15311464Y21291469D01*
X15318894Y21293380D01*
X15833499Y21250887D01*
G37*
%TD.AperFunction*%
%TD*%
%TA.AperFunction,Conductor*%
%TO.N,Net-(R27-Pad1)*%
G36*
X17212754Y11770529D02*
G01*
X17499147Y11605376D01*
X17504600Y11598276D01*
X17505000Y11595242D01*
X17505000Y11354759D01*
X17501573Y11346486D01*
X17499148Y11344626D01*
X17212758Y11179474D01*
X17203880Y11178310D01*
X17198657Y11181322D01*
X16912313Y11466715D01*
X16908873Y11474981D01*
X16912285Y11483259D01*
X17198658Y11768680D01*
X17206933Y11772091D01*
X17212754Y11770529D01*
G37*
%TD.AperFunction*%
%TD*%
%TA.AperFunction,Conductor*%
%TO.N,Net-(R16-Pad2)*%
G36*
X35431417Y40606093D02*
G01*
X35747352Y40290674D01*
X36030206Y40008280D01*
X36033640Y40000010D01*
X36030220Y39991734D01*
X36030206Y39991720D01*
X35431419Y39393909D01*
X35423143Y39390489D01*
X35417194Y39392120D01*
X34818241Y39746603D01*
X34812867Y39753766D01*
X34812500Y39756672D01*
X34812500Y40243329D01*
X34815927Y40251602D01*
X34818241Y40253398D01*
X35417195Y40607882D01*
X35426059Y40609145D01*
X35431417Y40606093D01*
G37*
%TD.AperFunction*%
%TD*%
%TA.AperFunction,Conductor*%
%TO.N,/Comparator/R*%
G36*
X21476530Y13905241D02*
G01*
X21483966Y13900251D01*
X21485696Y13891465D01*
X21485062Y13889359D01*
X21129967Y13016896D01*
X21123674Y13010525D01*
X21119130Y13009607D01*
X20880870Y13009607D01*
X20872597Y13013034D01*
X20870033Y13016896D01*
X20514937Y13889359D01*
X20514992Y13898314D01*
X20521363Y13904607D01*
X20523464Y13905240D01*
X20997696Y14000537D01*
X21002304Y14000537D01*
X21476530Y13905241D01*
G37*
%TD.AperFunction*%
%TD*%
%TA.AperFunction,Conductor*%
%TO.N,VIN-*%
G36*
X40027491Y75994754D02*
G01*
X40282885Y75781809D01*
X40287044Y75773879D01*
X40286298Y75768586D01*
X40149899Y75417463D01*
X40143709Y75410993D01*
X40138993Y75410000D01*
X39901007Y75410000D01*
X39892734Y75413427D01*
X39890101Y75417463D01*
X39872607Y75462496D01*
X39753701Y75768588D01*
X39753900Y75777539D01*
X39757111Y75781806D01*
X40012508Y75994754D01*
X40021056Y75997419D01*
X40027491Y75994754D01*
G37*
%TD.AperFunction*%
%TD*%
%TA.AperFunction,Conductor*%
%TO.N,/Comparator/VIN_REF_H*%
G36*
X14435902Y4290373D02*
G01*
X14951023Y4129564D01*
X14957899Y4123828D01*
X14959236Y4118396D01*
X14959236Y3881605D01*
X14955809Y3873332D01*
X14951023Y3870437D01*
X14435909Y3709630D01*
X14426990Y3710435D01*
X14421254Y3717311D01*
X14420957Y3718463D01*
X14364469Y3997682D01*
X14364469Y4002320D01*
X14420955Y4281526D01*
X14425954Y4288952D01*
X14434742Y4290671D01*
X14435902Y4290373D01*
G37*
%TD.AperFunction*%
%TD*%
%TA.AperFunction,Conductor*%
%TO.N,/Comparator/S*%
G36*
X21110639Y4485064D02*
G01*
X21983104Y4129967D01*
X21989475Y4123674D01*
X21990393Y4119130D01*
X21990393Y3880871D01*
X21986966Y3872598D01*
X21983104Y3870034D01*
X21110641Y3514938D01*
X21101686Y3514993D01*
X21095393Y3521364D01*
X21094759Y3523470D01*
X21024601Y3872598D01*
X20999463Y3997696D01*
X20999463Y4002305D01*
X21094759Y4476531D01*
X21099749Y4483967D01*
X21108535Y4485697D01*
X21110639Y4485064D01*
G37*
%TD.AperFunction*%
%TD*%
%TA.AperFunction,Conductor*%
%TO.N,/Comparator/S*%
G36*
X27365308Y8924088D02*
G01*
X27767813Y8793283D01*
X27866760Y8761127D01*
X27873569Y8755311D01*
X27874271Y8746384D01*
X27868455Y8739575D01*
X27866760Y8738873D01*
X27365312Y8575914D01*
X27359591Y8575532D01*
X27109595Y8621246D01*
X27102074Y8626105D01*
X27100000Y8632755D01*
X27100000Y8867246D01*
X27103427Y8875519D01*
X27109593Y8878755D01*
X27359594Y8924469D01*
X27365308Y8924088D01*
G37*
%TD.AperFunction*%
%TD*%
%TA.AperFunction,Conductor*%
%TO.N,/VIN_REF*%
G36*
X41107266Y68586573D02*
G01*
X41109899Y68582537D01*
X41246298Y68231415D01*
X41246099Y68222462D01*
X41242885Y68218192D01*
X40987493Y68005248D01*
X40978944Y68002582D01*
X40972507Y68005248D01*
X40717114Y68218192D01*
X40712955Y68226122D01*
X40713700Y68231411D01*
X40850101Y68582537D01*
X40856291Y68589007D01*
X40861007Y68590000D01*
X41098993Y68590000D01*
X41107266Y68586573D01*
G37*
%TD.AperFunction*%
%TD*%
%TA.AperFunction,Conductor*%
%TO.N,VIN-*%
G36*
X3570902Y14290373D02*
G01*
X4086023Y14129564D01*
X4092899Y14123828D01*
X4094236Y14118396D01*
X4094236Y13881605D01*
X4090809Y13873332D01*
X4086023Y13870437D01*
X3570909Y13709630D01*
X3561990Y13710435D01*
X3556254Y13717311D01*
X3555957Y13718463D01*
X3499469Y13997682D01*
X3499469Y14002320D01*
X3555955Y14281526D01*
X3560954Y14288952D01*
X3569742Y14290671D01*
X3570902Y14290373D01*
G37*
%TD.AperFunction*%
%TD*%
%TA.AperFunction,Conductor*%
%TO.N,VIN+*%
G36*
X12288193Y32284073D02*
G01*
X12290598Y32280583D01*
X12628967Y31525141D01*
X12629221Y31516190D01*
X12629189Y31516107D01*
X12048400Y30026948D01*
X12042202Y30020485D01*
X12033249Y30020299D01*
X12026786Y30026497D01*
X12026600Y30026948D01*
X11445810Y31516107D01*
X11445996Y31525060D01*
X11446032Y31525141D01*
X11784402Y32280583D01*
X11790912Y32286732D01*
X11795080Y32287500D01*
X12279920Y32287500D01*
X12288193Y32284073D01*
G37*
%TD.AperFunction*%
%TD*%
%TA.AperFunction,Conductor*%
%TO.N,Net-(R17-Pad2)*%
G36*
X26582804Y45607882D02*
G01*
X27181759Y45253398D01*
X27187133Y45246235D01*
X27187500Y45243329D01*
X27187500Y44756672D01*
X27184073Y44748399D01*
X27181759Y44746603D01*
X26582805Y44392120D01*
X26573940Y44390856D01*
X26568581Y44393909D01*
X25969792Y44991721D01*
X25966359Y44999990D01*
X25969779Y45008266D01*
X26568582Y45606094D01*
X26576856Y45609512D01*
X26582804Y45607882D01*
G37*
%TD.AperFunction*%
%TD*%
%TA.AperFunction,Conductor*%
%TO.N,Net-(R13-Pad2)*%
G36*
X27431417Y40606093D02*
G01*
X27747352Y40290674D01*
X28030206Y40008280D01*
X28033640Y40000010D01*
X28030220Y39991734D01*
X28030206Y39991720D01*
X27431419Y39393909D01*
X27423143Y39390489D01*
X27417194Y39392120D01*
X26818241Y39746603D01*
X26812867Y39753766D01*
X26812500Y39756672D01*
X26812500Y40243329D01*
X26815927Y40251602D01*
X26818241Y40253398D01*
X27417195Y40607882D01*
X27426059Y40609145D01*
X27431417Y40606093D01*
G37*
%TD.AperFunction*%
%TD*%
%TA.AperFunction,Conductor*%
%TO.N,Net-(R10-Pad2)*%
G36*
X19431417Y40606093D02*
G01*
X19747352Y40290674D01*
X20030206Y40008280D01*
X20033640Y40000010D01*
X20030220Y39991734D01*
X20030206Y39991720D01*
X19431419Y39393909D01*
X19423143Y39390489D01*
X19417194Y39392120D01*
X18818241Y39746603D01*
X18812867Y39753766D01*
X18812500Y39756672D01*
X18812500Y40243329D01*
X18815927Y40251602D01*
X18818241Y40253398D01*
X19417195Y40607882D01*
X19426059Y40609145D01*
X19431417Y40606093D01*
G37*
%TD.AperFunction*%
%TD*%
%TA.AperFunction,Conductor*%
%TO.N,/VIN_REF*%
G36*
X43859592Y40487150D02*
G01*
X44731736Y40252331D01*
X44738833Y40246872D01*
X44740393Y40241034D01*
X44740393Y39758967D01*
X44736966Y39750694D01*
X44731735Y39747669D01*
X43859598Y39512853D01*
X43850718Y39514011D01*
X43845258Y39521109D01*
X43845088Y39521830D01*
X43749463Y39997696D01*
X43749463Y40002305D01*
X43798609Y40246872D01*
X43845086Y40478157D01*
X43850075Y40485591D01*
X43858861Y40487321D01*
X43859592Y40487150D01*
G37*
%TD.AperFunction*%
%TD*%
%TA.AperFunction,Conductor*%
%TO.N,VIN-*%
G36*
X16437655Y14289209D02*
G01*
X16443696Y14282598D01*
X16444164Y14280932D01*
X16500530Y14002320D01*
X16500530Y13997680D01*
X16444164Y13719069D01*
X16439164Y13711640D01*
X16430376Y13709921D01*
X16428713Y13710389D01*
X16281948Y13763576D01*
X15987714Y13870205D01*
X15981103Y13876246D01*
X15980000Y13881205D01*
X15980000Y14118796D01*
X15983427Y14127069D01*
X15987712Y14129795D01*
X16428713Y14289612D01*
X16437655Y14289209D01*
G37*
%TD.AperFunction*%
%TD*%
%TA.AperFunction,Conductor*%
%TO.N,/Comparator/R*%
G36*
X25758372Y14263410D02*
G01*
X25984160Y14007745D01*
X25987068Y13999275D01*
X25984160Y13992255D01*
X25758372Y13736591D01*
X25750327Y13732658D01*
X25744602Y13733758D01*
X25456700Y13869834D01*
X25450685Y13876468D01*
X25450000Y13880412D01*
X25450000Y14119589D01*
X25453427Y14127862D01*
X25456698Y14130167D01*
X25744603Y14266244D01*
X25753546Y14266680D01*
X25758372Y14263410D01*
G37*
%TD.AperFunction*%
%TD*%
%TA.AperFunction,Conductor*%
%TO.N,+5V*%
G36*
X18518306Y17731694D02*
G01*
X18731694Y17518306D01*
X18750000Y17474112D01*
X18750000Y15525888D01*
X18731694Y15481694D01*
X18518306Y15268306D01*
X18474112Y15250000D01*
X15525888Y15250000D01*
X15481694Y15268306D01*
X15268306Y15481694D01*
X15250000Y15525888D01*
X15250000Y17474112D01*
X15268306Y17518306D01*
X15481694Y17731694D01*
X15525888Y17750000D01*
X18474112Y17750000D01*
X18518306Y17731694D01*
G37*
%TD.AperFunction*%
%TD*%
%TA.AperFunction,Conductor*%
%TO.N,Net-(R18-Pad2)*%
G36*
X26582804Y25607882D02*
G01*
X27181759Y25253398D01*
X27187133Y25246235D01*
X27187500Y25243329D01*
X27187500Y24756672D01*
X27184073Y24748399D01*
X27181759Y24746603D01*
X26582805Y24392120D01*
X26573940Y24390856D01*
X26568581Y24393909D01*
X25969792Y24991721D01*
X25966359Y24999990D01*
X25969779Y25008266D01*
X26568582Y25606094D01*
X26576856Y25609512D01*
X26582804Y25607882D01*
G37*
%TD.AperFunction*%
%TD*%
%TA.AperFunction,Conductor*%
%TO.N,VOUT_REF_DIS*%
G36*
X13070153Y7857308D02*
G01*
X13072833Y7855304D01*
X13240057Y7688080D01*
X13242211Y7685115D01*
X13360721Y7452311D01*
X13381377Y7411735D01*
X13382076Y7402807D01*
X13382069Y7402785D01*
X13106331Y6561043D01*
X13100499Y6554247D01*
X13091570Y6553566D01*
X13084774Y6559398D01*
X13083940Y6561549D01*
X12837692Y7447748D01*
X12838687Y7456471D01*
X13054285Y7852627D01*
X13061248Y7858252D01*
X13070153Y7857308D01*
G37*
%TD.AperFunction*%
%TD*%
%TA.AperFunction,Conductor*%
%TO.N,Net-(Q1-G)*%
G36*
X90697042Y71604046D02*
G01*
X90824901Y71568956D01*
X90995163Y71522229D01*
X91002235Y71516735D01*
X91002890Y71515390D01*
X91112831Y71247668D01*
X91112804Y71238714D01*
X91109790Y71234487D01*
X90736022Y70901568D01*
X90727565Y70898624D01*
X90719967Y70902032D01*
X90381991Y71240008D01*
X90378564Y71248281D01*
X90381485Y71256015D01*
X90685170Y71600501D01*
X90693211Y71604440D01*
X90697042Y71604046D01*
G37*
%TD.AperFunction*%
%TD*%
%TA.AperFunction,Conductor*%
%TO.N,Net-(R31-Pad2)*%
G36*
X19431417Y30606093D02*
G01*
X19747352Y30290674D01*
X20030206Y30008280D01*
X20033640Y30000010D01*
X20030220Y29991734D01*
X20030206Y29991720D01*
X19431419Y29393909D01*
X19423143Y29390489D01*
X19417194Y29392120D01*
X18818241Y29746603D01*
X18812867Y29753766D01*
X18812500Y29756672D01*
X18812500Y30243329D01*
X18815927Y30251602D01*
X18818241Y30253398D01*
X19417195Y30607882D01*
X19426059Y30609145D01*
X19431417Y30606093D01*
G37*
%TD.AperFunction*%
%TD*%
%TA.AperFunction,Conductor*%
%TO.N,VIN-*%
G36*
X35255702Y6765327D02*
G01*
X35494065Y6630361D01*
X35499576Y6623303D01*
X35500000Y6620180D01*
X35500000Y6379821D01*
X35496573Y6371548D01*
X35494065Y6369640D01*
X35255703Y6234675D01*
X35246815Y6233580D01*
X35241168Y6237111D01*
X35122441Y6371548D01*
X35015838Y6492257D01*
X35012931Y6500725D01*
X35015838Y6507744D01*
X35241169Y6762891D01*
X35249213Y6766823D01*
X35255702Y6765327D01*
G37*
%TD.AperFunction*%
%TD*%
%TA.AperFunction,Conductor*%
%TO.N,/PRE*%
G36*
X8755396Y25266244D02*
G01*
X9043300Y25130167D01*
X9049315Y25123533D01*
X9050000Y25119589D01*
X9050000Y24880412D01*
X9046573Y24872139D01*
X9043300Y24869834D01*
X8755397Y24733758D01*
X8746453Y24733321D01*
X8741627Y24736591D01*
X8515838Y24992257D01*
X8512931Y25000725D01*
X8515838Y25007744D01*
X8741628Y25263411D01*
X8749672Y25267343D01*
X8755396Y25266244D01*
G37*
%TD.AperFunction*%
%TD*%
%TA.AperFunction,Conductor*%
%TO.N,VIN-*%
G36*
X11280931Y8944165D02*
G01*
X11288360Y8939165D01*
X11290079Y8930377D01*
X11289611Y8928711D01*
X11129796Y8487714D01*
X11123755Y8481103D01*
X11118796Y8480000D01*
X10881204Y8480000D01*
X10872931Y8483427D01*
X10870204Y8487714D01*
X10710388Y8928714D01*
X10710791Y8937656D01*
X10717402Y8943697D01*
X10719062Y8944164D01*
X10997682Y9000531D01*
X11002318Y9000531D01*
X11280931Y8944165D01*
G37*
%TD.AperFunction*%
%TD*%
%TA.AperFunction,Conductor*%
%TO.N,VIN-*%
G36*
X36939631Y8340646D02*
G01*
X36943535Y8334040D01*
X37000530Y8052320D01*
X37000530Y8047680D01*
X36943535Y7765961D01*
X36938535Y7758532D01*
X36931104Y7756621D01*
X36416501Y7799114D01*
X36408538Y7803210D01*
X36405764Y7810774D01*
X36405764Y8289227D01*
X36409191Y8297500D01*
X36416499Y8300887D01*
X36931104Y8343380D01*
X36939631Y8340646D01*
G37*
%TD.AperFunction*%
%TD*%
%TA.AperFunction,Conductor*%
%TO.N,+15V*%
G36*
X37202565Y70394069D02*
G01*
X37806470Y70174733D01*
X37995721Y70105997D01*
X38002327Y70099952D01*
X38002724Y70091006D01*
X37996679Y70084400D01*
X37995721Y70084003D01*
X37202568Y69795933D01*
X37197282Y69795302D01*
X36760408Y69843844D01*
X36752564Y69848163D01*
X36750000Y69855472D01*
X36750000Y70334529D01*
X36753427Y70342802D01*
X36760406Y70346157D01*
X37197286Y70394699D01*
X37202565Y70394069D01*
G37*
%TD.AperFunction*%
%TD*%
%TA.AperFunction,Conductor*%
%TO.N,VIN+*%
G36*
X12048214Y39973504D02*
G01*
X12048400Y39973053D01*
X12629189Y38483894D01*
X12629003Y38474941D01*
X12628967Y38474860D01*
X12290598Y37719417D01*
X12284088Y37713268D01*
X12279920Y37712500D01*
X11795080Y37712500D01*
X11786807Y37715927D01*
X11784402Y37719417D01*
X11446032Y38474860D01*
X11445778Y38483811D01*
X11445810Y38483894D01*
X12026600Y39973053D01*
X12032798Y39979516D01*
X12041751Y39979702D01*
X12048214Y39973504D01*
G37*
%TD.AperFunction*%
%TD*%
%TA.AperFunction,Conductor*%
%TO.N,VIN-*%
G36*
X35437481Y6789015D02*
G01*
X35443666Y6782539D01*
X35444225Y6780631D01*
X35500530Y6502320D01*
X35500530Y6497680D01*
X35444225Y6219370D01*
X35439225Y6211941D01*
X35430437Y6210222D01*
X35428529Y6210781D01*
X35017472Y6370104D01*
X35010996Y6376289D01*
X35010000Y6381013D01*
X35010000Y6618988D01*
X35013427Y6627261D01*
X35017468Y6629895D01*
X35428531Y6789220D01*
X35437481Y6789015D01*
G37*
%TD.AperFunction*%
%TD*%
%TA.AperFunction,Conductor*%
%TO.N,VIN-*%
G36*
X3846625Y19902638D02*
G01*
X3989384Y19745963D01*
X4206319Y19507880D01*
X4209358Y19499457D01*
X4206319Y19492120D01*
X3846627Y19097364D01*
X3838522Y19093557D01*
X3830467Y19096274D01*
X3504188Y19369494D01*
X3500046Y19377433D01*
X3500000Y19378464D01*
X3500000Y19621537D01*
X3503427Y19629810D01*
X3504188Y19630507D01*
X3830468Y19903728D01*
X3839010Y19906411D01*
X3846625Y19902638D01*
G37*
%TD.AperFunction*%
%TD*%
%TA.AperFunction,Conductor*%
%TO.N,/Comparator/S*%
G36*
X25758372Y4263410D02*
G01*
X25984160Y4007745D01*
X25987068Y3999275D01*
X25984160Y3992255D01*
X25758372Y3736591D01*
X25750327Y3732658D01*
X25744602Y3733758D01*
X25456700Y3869834D01*
X25450685Y3876468D01*
X25450000Y3880412D01*
X25450000Y4119589D01*
X25453427Y4127862D01*
X25456698Y4130167D01*
X25744603Y4266244D01*
X25753546Y4266680D01*
X25758372Y4263410D01*
G37*
%TD.AperFunction*%
%TD*%
%TA.AperFunction,Conductor*%
%TO.N,VIN-*%
G36*
X18093499Y20740887D02*
G01*
X18101462Y20736791D01*
X18104236Y20729227D01*
X18104236Y20250774D01*
X18100809Y20242501D01*
X18093499Y20239114D01*
X17578895Y20196621D01*
X17570368Y20199355D01*
X17566464Y20205961D01*
X17509469Y20487680D01*
X17509469Y20492320D01*
X17559578Y20740000D01*
X17566464Y20774041D01*
X17571464Y20781469D01*
X17578894Y20783380D01*
X18093499Y20740887D01*
G37*
%TD.AperFunction*%
%TD*%
%TA.AperFunction,Conductor*%
%TO.N,VIN-*%
G36*
X35489475Y11751062D02*
G01*
X35497362Y11746822D01*
X35500000Y11739421D01*
X35500000Y11260580D01*
X35496573Y11252307D01*
X35489474Y11248939D01*
X35208866Y11220640D01*
X35200291Y11223219D01*
X35198548Y11224982D01*
X35165722Y11266102D01*
X34984825Y11492703D01*
X34982343Y11501304D01*
X34984825Y11507297D01*
X35198549Y11775020D01*
X35206388Y11779347D01*
X35208861Y11779361D01*
X35489475Y11751062D01*
G37*
%TD.AperFunction*%
%TD*%
%TA.AperFunction,Conductor*%
%TO.N,Net-(R12-Pad2)*%
G36*
X43431417Y25606093D02*
G01*
X43747352Y25290674D01*
X44030206Y25008280D01*
X44033640Y25000010D01*
X44030220Y24991734D01*
X44030206Y24991720D01*
X43431419Y24393909D01*
X43423143Y24390489D01*
X43417194Y24392120D01*
X42818241Y24746603D01*
X42812867Y24753766D01*
X42812500Y24756672D01*
X42812500Y25243329D01*
X42815927Y25251602D01*
X42818241Y25253398D01*
X43417195Y25607882D01*
X43426059Y25609145D01*
X43431417Y25606093D01*
G37*
%TD.AperFunction*%
%TD*%
%TA.AperFunction,Conductor*%
%TO.N,/Comparator/S*%
G36*
X20898313Y4485008D02*
G01*
X20904606Y4478637D01*
X20905240Y4476531D01*
X21000536Y4002305D01*
X21000536Y3997695D01*
X20905240Y3523470D01*
X20900250Y3516034D01*
X20891464Y3514304D01*
X20889358Y3514938D01*
X20016896Y3870034D01*
X20010525Y3876327D01*
X20009607Y3880871D01*
X20009607Y4119130D01*
X20013034Y4127403D01*
X20016894Y4129967D01*
X20889359Y4485063D01*
X20898313Y4485008D01*
G37*
%TD.AperFunction*%
%TD*%
%TA.AperFunction,Conductor*%
%TO.N,/Comparator/VIN_REF_L*%
G36*
X42582804Y35607882D02*
G01*
X43181759Y35253398D01*
X43187133Y35246235D01*
X43187500Y35243329D01*
X43187500Y34756672D01*
X43184073Y34748399D01*
X43181759Y34746603D01*
X42582805Y34392120D01*
X42573940Y34390856D01*
X42568581Y34393909D01*
X41969792Y34991721D01*
X41966359Y34999990D01*
X41969779Y35008266D01*
X42568582Y35606094D01*
X42576856Y35609512D01*
X42582804Y35607882D01*
G37*
%TD.AperFunction*%
%TD*%
%TA.AperFunction,Conductor*%
%TO.N,Net-(U3-OUT)*%
G36*
X36589593Y10201157D02*
G01*
X36597436Y10196838D01*
X36600000Y10189529D01*
X36600000Y9710472D01*
X36596573Y9702199D01*
X36589592Y9698844D01*
X36153849Y9650428D01*
X36146655Y9651954D01*
X36064416Y9700000D01*
X35653790Y9939899D01*
X35648376Y9947030D01*
X35649591Y9955902D01*
X35653791Y9960102D01*
X36146658Y10248048D01*
X36153846Y10249573D01*
X36589593Y10201157D01*
G37*
%TD.AperFunction*%
%TD*%
%TA.AperFunction,Conductor*%
%TO.N,+15V*%
G36*
X33041771Y67786471D02*
G01*
X33045198Y67778198D01*
X33044539Y67774329D01*
X32939413Y67474585D01*
X32728704Y66873800D01*
X32722732Y66867127D01*
X32714284Y66866471D01*
X32279987Y66997496D01*
X32273056Y67003166D01*
X32272781Y67003712D01*
X32055257Y67465642D01*
X32054834Y67474585D01*
X32059599Y67480519D01*
X32547139Y67788093D01*
X32553382Y67789898D01*
X33033498Y67789898D01*
X33041771Y67786471D01*
G37*
%TD.AperFunction*%
%TD*%
%TA.AperFunction,Conductor*%
%TO.N,/VIN_REF*%
G36*
X41583499Y40250887D02*
G01*
X41591462Y40246791D01*
X41594236Y40239227D01*
X41594236Y39760774D01*
X41590809Y39752501D01*
X41583499Y39749114D01*
X41068895Y39706621D01*
X41060368Y39709355D01*
X41056464Y39715961D01*
X40999469Y39997680D01*
X40999469Y40002320D01*
X41049578Y40250000D01*
X41056464Y40284041D01*
X41061464Y40291469D01*
X41068894Y40293380D01*
X41583499Y40250887D01*
G37*
%TD.AperFunction*%
%TD*%
%TA.AperFunction,Conductor*%
%TO.N,VOUT_REF_DIS*%
G36*
X11126669Y7115809D02*
G01*
X11129564Y7111023D01*
X11290370Y6595910D01*
X11289565Y6586991D01*
X11282689Y6581255D01*
X11281522Y6580955D01*
X11002320Y6524470D01*
X10997680Y6524470D01*
X10718477Y6580955D01*
X10711048Y6585955D01*
X10709329Y6594743D01*
X10709625Y6595898D01*
X10870436Y7111024D01*
X10876172Y7117899D01*
X10881604Y7119236D01*
X11118396Y7119236D01*
X11126669Y7115809D01*
G37*
%TD.AperFunction*%
%TD*%
%TA.AperFunction,Conductor*%
%TO.N,/Comparator/VIN_REF_H*%
G36*
X21070902Y27790373D02*
G01*
X21586023Y27629564D01*
X21592899Y27623828D01*
X21594236Y27618396D01*
X21594236Y27381605D01*
X21590809Y27373332D01*
X21586023Y27370437D01*
X21070909Y27209630D01*
X21061990Y27210435D01*
X21056254Y27217311D01*
X21055957Y27218463D01*
X20999469Y27497682D01*
X20999469Y27502320D01*
X21055955Y27781526D01*
X21060954Y27788952D01*
X21069742Y27790671D01*
X21070902Y27790373D01*
G37*
%TD.AperFunction*%
%TD*%
%TA.AperFunction,Conductor*%
%TO.N,VIN-*%
G36*
X17274807Y21079999D02*
G01*
X17668734Y20746167D01*
X17672830Y20738204D01*
X17670919Y20730773D01*
X17512015Y20491266D01*
X17508734Y20487985D01*
X17269227Y20329081D01*
X17260439Y20327362D01*
X17253833Y20331266D01*
X16920001Y20725193D01*
X16917267Y20733720D01*
X16920653Y20741029D01*
X17258971Y21079347D01*
X17267243Y21082773D01*
X17274807Y21079999D01*
G37*
%TD.AperFunction*%
%TD*%
%TA.AperFunction,Conductor*%
%TO.N,Net-(U7-Pad2)*%
G36*
X25226350Y9096573D02*
G01*
X25229360Y9091395D01*
X25273206Y8931539D01*
X25272090Y8922654D01*
X25270220Y8920194D01*
X25108297Y8757345D01*
X25100033Y8753895D01*
X25091750Y8757298D01*
X25091703Y8757345D01*
X24929779Y8920194D01*
X24926376Y8928477D01*
X24926792Y8931535D01*
X24970640Y9091395D01*
X24976133Y9098467D01*
X24981923Y9100000D01*
X25218077Y9100000D01*
X25226350Y9096573D01*
G37*
%TD.AperFunction*%
%TD*%
%TA.AperFunction,Conductor*%
%TO.N,VIN-*%
G36*
X16211042Y14275620D02*
G01*
X16493651Y14130266D01*
X16499441Y14123435D01*
X16500000Y14119862D01*
X16500000Y13880139D01*
X16496573Y13871866D01*
X16493651Y13869735D01*
X16211043Y13724382D01*
X16202119Y13723645D01*
X16196548Y13727487D01*
X16082991Y13869735D01*
X15984825Y13992703D01*
X15982343Y14001304D01*
X15984825Y14007297D01*
X16196549Y14272515D01*
X16204388Y14276842D01*
X16211042Y14275620D01*
G37*
%TD.AperFunction*%
%TD*%
%TA.AperFunction,Conductor*%
%TO.N,/Comparator/VIN_REF_H*%
G36*
X42582804Y30607882D02*
G01*
X43181759Y30253398D01*
X43187133Y30246235D01*
X43187500Y30243329D01*
X43187500Y29756672D01*
X43184073Y29748399D01*
X43181759Y29746603D01*
X42582805Y29392120D01*
X42573940Y29390856D01*
X42568581Y29393909D01*
X41969792Y29991721D01*
X41966359Y29999990D01*
X41969779Y30008266D01*
X42568582Y30606094D01*
X42576856Y30609512D01*
X42582804Y30607882D01*
G37*
%TD.AperFunction*%
%TD*%
%TA.AperFunction,Conductor*%
%TO.N,/VOUT_REF_PRE*%
G36*
X42611217Y72754164D02*
G01*
X42941953Y72646122D01*
X42948753Y72640295D01*
X42949442Y72631367D01*
X42943615Y72624567D01*
X42941953Y72623878D01*
X42096694Y72347757D01*
X42088608Y72348060D01*
X41707247Y72505018D01*
X41700901Y72511335D01*
X41700000Y72515837D01*
X41700000Y72754164D01*
X41703427Y72762437D01*
X41707245Y72764983D01*
X42088610Y72921942D01*
X42096692Y72922244D01*
X42611217Y72754164D01*
G37*
%TD.AperFunction*%
%TD*%
%TA.AperFunction,Conductor*%
%TO.N,+15V*%
G36*
X17212754Y6820529D02*
G01*
X17499147Y6655376D01*
X17504600Y6648276D01*
X17505000Y6645242D01*
X17505000Y6404759D01*
X17501573Y6396486D01*
X17499148Y6394626D01*
X17212758Y6229474D01*
X17203880Y6228310D01*
X17198657Y6231322D01*
X16912313Y6516715D01*
X16908873Y6524981D01*
X16912285Y6533259D01*
X17198658Y6818680D01*
X17206933Y6822091D01*
X17212754Y6820529D01*
G37*
%TD.AperFunction*%
%TD*%
%TA.AperFunction,Conductor*%
%TO.N,/Comparator/VIN_REF_L*%
G36*
X44226530Y34905241D02*
G01*
X44233966Y34900251D01*
X44235696Y34891465D01*
X44235062Y34889359D01*
X43879967Y34016896D01*
X43873674Y34010525D01*
X43869130Y34009607D01*
X43630870Y34009607D01*
X43622597Y34013034D01*
X43620033Y34016896D01*
X43264937Y34889359D01*
X43264992Y34898314D01*
X43271363Y34904607D01*
X43273464Y34905240D01*
X43747696Y35000537D01*
X43752304Y35000537D01*
X44226530Y34905241D01*
G37*
%TD.AperFunction*%
%TD*%
%TA.AperFunction,Conductor*%
%TO.N,+15V*%
G36*
X19126669Y7115809D02*
G01*
X19129564Y7111023D01*
X19290370Y6595910D01*
X19289565Y6586991D01*
X19282689Y6581255D01*
X19281522Y6580955D01*
X19002320Y6524470D01*
X18997680Y6524470D01*
X18718477Y6580955D01*
X18711048Y6585955D01*
X18709329Y6594743D01*
X18709625Y6595898D01*
X18870436Y7111024D01*
X18876172Y7117899D01*
X18881604Y7119236D01*
X19118396Y7119236D01*
X19126669Y7115809D01*
G37*
%TD.AperFunction*%
%TD*%
%TA.AperFunction,Conductor*%
%TO.N,Net-(R15-Pad2)*%
G36*
X34582804Y25607882D02*
G01*
X35181759Y25253398D01*
X35187133Y25246235D01*
X35187500Y25243329D01*
X35187500Y24756672D01*
X35184073Y24748399D01*
X35181759Y24746603D01*
X34582805Y24392120D01*
X34573940Y24390856D01*
X34568581Y24393909D01*
X33969792Y24991721D01*
X33966359Y24999990D01*
X33969779Y25008266D01*
X34568582Y25606094D01*
X34576856Y25609512D01*
X34582804Y25607882D01*
G37*
%TD.AperFunction*%
%TD*%
%TA.AperFunction,Conductor*%
%TO.N,+12V*%
G36*
X31986098Y76997276D02*
G01*
X32253920Y76833713D01*
X32259195Y76826477D01*
X32259492Y76822894D01*
X32230776Y76420866D01*
X32226769Y76412858D01*
X32219106Y76410000D01*
X31740894Y76410000D01*
X31732621Y76413427D01*
X31729224Y76420866D01*
X31723480Y76501272D01*
X31700507Y76822896D01*
X31703335Y76831391D01*
X31706077Y76833712D01*
X31973902Y76997277D01*
X31982749Y76998664D01*
X31986098Y76997276D01*
G37*
%TD.AperFunction*%
%TD*%
%TA.AperFunction,Conductor*%
%TO.N,Net-(Q1-G)*%
G36*
X46189631Y72800646D02*
G01*
X46193535Y72794040D01*
X46250530Y72512320D01*
X46250530Y72507680D01*
X46193535Y72225961D01*
X46188535Y72218532D01*
X46181104Y72216621D01*
X45666501Y72259114D01*
X45658538Y72263210D01*
X45655764Y72270774D01*
X45655764Y72749227D01*
X45659191Y72757500D01*
X45666499Y72760887D01*
X46181104Y72803380D01*
X46189631Y72800646D01*
G37*
%TD.AperFunction*%
%TD*%
%TA.AperFunction,Conductor*%
%TO.N,+12V*%
G36*
X32227379Y76586573D02*
G01*
X32230776Y76579134D01*
X32259492Y76177107D01*
X32256664Y76168610D01*
X32253920Y76166288D01*
X31986098Y76002725D01*
X31977251Y76001337D01*
X31973902Y76002725D01*
X31706079Y76166288D01*
X31700804Y76173524D01*
X31700507Y76177103D01*
X31729224Y76579134D01*
X31733231Y76587142D01*
X31740894Y76590000D01*
X32219106Y76590000D01*
X32227379Y76586573D01*
G37*
%TD.AperFunction*%
%TD*%
%TA.AperFunction,Conductor*%
%TO.N,/Comparator/R*%
G36*
X24565308Y9924088D02*
G01*
X24967813Y9793283D01*
X25066760Y9761127D01*
X25073569Y9755311D01*
X25074271Y9746384D01*
X25068455Y9739575D01*
X25066760Y9738873D01*
X24565312Y9575914D01*
X24559591Y9575532D01*
X24309595Y9621246D01*
X24302074Y9626105D01*
X24300000Y9632755D01*
X24300000Y9867246D01*
X24303427Y9875519D01*
X24309593Y9878755D01*
X24559594Y9924469D01*
X24565308Y9924088D01*
G37*
%TD.AperFunction*%
%TD*%
%TA.AperFunction,Conductor*%
%TO.N,/VIN_REF*%
G36*
X40987491Y67994754D02*
G01*
X41242885Y67781809D01*
X41247044Y67773879D01*
X41246298Y67768586D01*
X41109899Y67417463D01*
X41103709Y67410993D01*
X41098993Y67410000D01*
X40861007Y67410000D01*
X40852734Y67413427D01*
X40850101Y67417463D01*
X40832607Y67462496D01*
X40713701Y67768588D01*
X40713900Y67777539D01*
X40717111Y67781806D01*
X40972508Y67994754D01*
X40981056Y67997419D01*
X40987491Y67994754D01*
G37*
%TD.AperFunction*%
%TD*%
%TA.AperFunction,Conductor*%
%TO.N,VIN-*%
G36*
X13105600Y11446680D02*
G01*
X13105997Y11445722D01*
X13394067Y10652569D01*
X13394698Y10647283D01*
X13346156Y10210408D01*
X13341837Y10202564D01*
X13334528Y10200000D01*
X12855472Y10200000D01*
X12847199Y10203427D01*
X12843844Y10210408D01*
X12827663Y10356033D01*
X12795301Y10647287D01*
X12795931Y10652565D01*
X13084003Y11445723D01*
X13090048Y11452328D01*
X13098994Y11452725D01*
X13105600Y11446680D01*
G37*
%TD.AperFunction*%
%TD*%
%TA.AperFunction,Conductor*%
%TO.N,VIN-*%
G36*
X90736020Y73098434D02*
G01*
X91109790Y72765514D01*
X91113689Y72757452D01*
X91112831Y72752333D01*
X91002890Y72484611D01*
X90996577Y72478259D01*
X90995164Y72477772D01*
X90697043Y72395954D01*
X90688157Y72397069D01*
X90685169Y72399500D01*
X90616168Y72477772D01*
X90381486Y72743985D01*
X90378587Y72752455D01*
X90381990Y72759992D01*
X90719968Y73097970D01*
X90728240Y73101396D01*
X90736020Y73098434D01*
G37*
%TD.AperFunction*%
%TD*%
%TA.AperFunction,Conductor*%
%TO.N,VIN-*%
G36*
X39803451Y68272514D02*
G01*
X40015173Y68007299D01*
X40017656Y67998696D01*
X40015173Y67992701D01*
X39803451Y67727487D01*
X39795611Y67723159D01*
X39788956Y67724382D01*
X39506349Y67869735D01*
X39500559Y67876566D01*
X39500000Y67880139D01*
X39500000Y68119862D01*
X39503427Y68128135D01*
X39506346Y68130265D01*
X39788957Y68275620D01*
X39797880Y68276356D01*
X39803451Y68272514D01*
G37*
%TD.AperFunction*%
%TD*%
%TA.AperFunction,Conductor*%
%TO.N,VOUT_REF_DIS*%
G36*
X11007296Y7515175D02*
G01*
X11272883Y7303158D01*
X11277211Y7295318D01*
X11276240Y7289183D01*
X11130114Y6966869D01*
X11123577Y6960749D01*
X11119458Y6960000D01*
X10880542Y6960000D01*
X10872269Y6963427D01*
X10869886Y6966869D01*
X10843436Y7025210D01*
X10723758Y7289185D01*
X10723464Y7298133D01*
X10727113Y7303155D01*
X10992702Y7515175D01*
X11001304Y7517657D01*
X11007296Y7515175D01*
G37*
%TD.AperFunction*%
%TD*%
%TA.AperFunction,Conductor*%
%TO.N,Net-(U6-FB)*%
G36*
X16712352Y22236545D02*
G01*
X17092753Y22079983D01*
X17099099Y22073666D01*
X17100000Y22069164D01*
X17100000Y21830837D01*
X17096573Y21822564D01*
X17092753Y21820018D01*
X16712355Y21663457D01*
X16703400Y21663477D01*
X16702624Y21663834D01*
X16157157Y21939558D01*
X16151319Y21946349D01*
X16151993Y21955278D01*
X16157157Y21960442D01*
X16702625Y22236168D01*
X16711553Y22236841D01*
X16712352Y22236545D01*
G37*
%TD.AperFunction*%
%TD*%
%TA.AperFunction,Conductor*%
%TO.N,VIN-*%
G36*
X35227379Y12086573D02*
G01*
X35230776Y12079134D01*
X35259492Y11677107D01*
X35256664Y11668610D01*
X35253920Y11666288D01*
X34986098Y11502725D01*
X34977251Y11501337D01*
X34973902Y11502725D01*
X34706079Y11666288D01*
X34700804Y11673524D01*
X34700507Y11677103D01*
X34729224Y12079134D01*
X34733231Y12087142D01*
X34740894Y12090000D01*
X35219106Y12090000D01*
X35227379Y12086573D01*
G37*
%TD.AperFunction*%
%TD*%
%TA.AperFunction,Conductor*%
%TO.N,Net-(R33-Pad2)*%
G36*
X34582804Y30607882D02*
G01*
X35181759Y30253398D01*
X35187133Y30246235D01*
X35187500Y30243329D01*
X35187500Y29756672D01*
X35184073Y29748399D01*
X35181759Y29746603D01*
X34582805Y29392120D01*
X34573940Y29390856D01*
X34568581Y29393909D01*
X33969792Y29991721D01*
X33966359Y29999990D01*
X33969779Y30008266D01*
X34568582Y30606094D01*
X34576856Y30609512D01*
X34582804Y30607882D01*
G37*
%TD.AperFunction*%
%TD*%
%TA.AperFunction,Conductor*%
%TO.N,VIN-*%
G36*
X35442467Y11778388D02*
G01*
X35445836Y11772228D01*
X35499056Y11503762D01*
X35497303Y11494981D01*
X35497295Y11494969D01*
X35339234Y11259363D01*
X35331779Y11254402D01*
X35323987Y11255571D01*
X34771026Y11552226D01*
X34765356Y11559157D01*
X34766247Y11568067D01*
X34773178Y11573737D01*
X34776557Y11574236D01*
X35229999Y11574236D01*
X35230000Y11574236D01*
X35425925Y11778062D01*
X35434128Y11781651D01*
X35442467Y11778388D01*
G37*
%TD.AperFunction*%
%TD*%
%TA.AperFunction,Conductor*%
%TO.N,VIN-*%
G36*
X49439631Y40290646D02*
G01*
X49443535Y40284040D01*
X49500530Y40002320D01*
X49500530Y39997680D01*
X49443535Y39715961D01*
X49438535Y39708532D01*
X49431104Y39706621D01*
X48916501Y39749114D01*
X48908538Y39753210D01*
X48905764Y39760774D01*
X48905764Y40239227D01*
X48909191Y40247500D01*
X48916499Y40250887D01*
X49431104Y40293380D01*
X49439631Y40290646D01*
G37*
%TD.AperFunction*%
%TD*%
%TA.AperFunction,Conductor*%
%TO.N,/DIS*%
G36*
X28690406Y9378755D02*
G01*
X28697926Y9373896D01*
X28700000Y9367246D01*
X28700000Y9132755D01*
X28696573Y9124482D01*
X28690405Y9121246D01*
X28440408Y9075532D01*
X28434687Y9075914D01*
X28285236Y9124482D01*
X27933238Y9238874D01*
X27926430Y9244689D01*
X27925728Y9253616D01*
X27931544Y9260425D01*
X27933239Y9261127D01*
X28434691Y9424088D01*
X28440405Y9424469D01*
X28690406Y9378755D01*
G37*
%TD.AperFunction*%
%TD*%
%TA.AperFunction,Conductor*%
%TO.N,/Comparator/VIN_REF_L*%
G36*
X19070902Y32790373D02*
G01*
X19586023Y32629564D01*
X19592899Y32623828D01*
X19594236Y32618396D01*
X19594236Y32381605D01*
X19590809Y32373332D01*
X19586023Y32370437D01*
X19070909Y32209630D01*
X19061990Y32210435D01*
X19056254Y32217311D01*
X19055957Y32218463D01*
X18999469Y32497682D01*
X18999469Y32502320D01*
X19055955Y32781526D01*
X19060954Y32788952D01*
X19069742Y32790671D01*
X19070902Y32790373D01*
G37*
%TD.AperFunction*%
%TD*%
%TA.AperFunction,Conductor*%
%TO.N,+15V*%
G36*
X34026098Y12997276D02*
G01*
X34293920Y12833713D01*
X34299195Y12826477D01*
X34299492Y12822894D01*
X34270776Y12420866D01*
X34266769Y12412858D01*
X34259106Y12410000D01*
X33780894Y12410000D01*
X33772621Y12413427D01*
X33769224Y12420866D01*
X33763480Y12501272D01*
X33740507Y12822896D01*
X33743335Y12831391D01*
X33746077Y12833712D01*
X34013902Y12997277D01*
X34022749Y12998664D01*
X34026098Y12997276D01*
G37*
%TD.AperFunction*%
%TD*%
%TA.AperFunction,Conductor*%
%TO.N,Net-(U6-SW)*%
G36*
X14518306Y20231694D02*
G01*
X14731694Y20018306D01*
X14750000Y19974112D01*
X14750000Y15525888D01*
X14731694Y15481694D01*
X14518306Y15268306D01*
X14474112Y15250000D01*
X13025888Y15250000D01*
X12981694Y15268306D01*
X12768306Y15481694D01*
X12750000Y15525888D01*
X12750000Y19974112D01*
X12768306Y20018306D01*
X12981694Y20231694D01*
X13025888Y20250000D01*
X14474112Y20250000D01*
X14518306Y20231694D01*
G37*
%TD.AperFunction*%
%TD*%
%TA.AperFunction,Conductor*%
%TO.N,+15V*%
G36*
X18938009Y6814566D02*
G01*
X18943745Y6807690D01*
X18944045Y6806523D01*
X19000530Y6527320D01*
X19000530Y6522680D01*
X18944045Y6243478D01*
X18939045Y6236049D01*
X18930257Y6234330D01*
X18929090Y6234630D01*
X18413977Y6395437D01*
X18407101Y6401173D01*
X18405764Y6406605D01*
X18405764Y6643396D01*
X18409191Y6651669D01*
X18413977Y6654564D01*
X18929091Y6815371D01*
X18938009Y6814566D01*
G37*
%TD.AperFunction*%
%TD*%
%TA.AperFunction,Conductor*%
%TO.N,/VIN_REF*%
G36*
X42611217Y71484164D02*
G01*
X42941953Y71376122D01*
X42948753Y71370295D01*
X42949442Y71361367D01*
X42943615Y71354567D01*
X42941953Y71353878D01*
X42096694Y71077757D01*
X42088608Y71078060D01*
X41707247Y71235018D01*
X41700901Y71241335D01*
X41700000Y71245837D01*
X41700000Y71484164D01*
X41703427Y71492437D01*
X41707245Y71494983D01*
X42088610Y71651942D01*
X42096692Y71652244D01*
X42611217Y71484164D01*
G37*
%TD.AperFunction*%
%TD*%
%TA.AperFunction,Conductor*%
%TO.N,/Comparator/VIN_REF_H*%
G36*
X14491669Y4590809D02*
G01*
X14494564Y4586023D01*
X14655370Y4070910D01*
X14654565Y4061991D01*
X14647689Y4056255D01*
X14646522Y4055955D01*
X14367320Y3999470D01*
X14362680Y3999470D01*
X14083477Y4055955D01*
X14076048Y4060955D01*
X14074329Y4069743D01*
X14074625Y4070898D01*
X14235436Y4586024D01*
X14241172Y4592899D01*
X14246604Y4594236D01*
X14483396Y4594236D01*
X14491669Y4590809D01*
G37*
%TD.AperFunction*%
%TD*%
%TA.AperFunction,Conductor*%
%TO.N,VIN-*%
G36*
X25803156Y11772884D02*
G01*
X26015173Y11507299D01*
X26017656Y11498696D01*
X26015173Y11492701D01*
X25803156Y11227117D01*
X25795316Y11222789D01*
X25789181Y11223760D01*
X25781776Y11227117D01*
X25466869Y11369886D01*
X25460749Y11376423D01*
X25460000Y11380542D01*
X25460000Y11619459D01*
X25463427Y11627732D01*
X25466865Y11630113D01*
X25789183Y11776242D01*
X25798131Y11776536D01*
X25803156Y11772884D01*
G37*
%TD.AperFunction*%
%TD*%
%TA.AperFunction,Conductor*%
%TO.N,VIN-*%
G36*
X3570902Y19790373D02*
G01*
X4086023Y19629564D01*
X4092899Y19623828D01*
X4094236Y19618396D01*
X4094236Y19381605D01*
X4090809Y19373332D01*
X4086023Y19370437D01*
X3570909Y19209630D01*
X3561990Y19210435D01*
X3556254Y19217311D01*
X3555957Y19218463D01*
X3499469Y19497682D01*
X3499469Y19502320D01*
X3555955Y19781526D01*
X3560954Y19788952D01*
X3569742Y19790671D01*
X3570902Y19790373D01*
G37*
%TD.AperFunction*%
%TD*%
%TA.AperFunction,Conductor*%
%TO.N,Net-(R39-Pad2)*%
G36*
X34582804Y35607882D02*
G01*
X35181759Y35253398D01*
X35187133Y35246235D01*
X35187500Y35243329D01*
X35187500Y34756672D01*
X35184073Y34748399D01*
X35181759Y34746603D01*
X34582805Y34392120D01*
X34573940Y34390856D01*
X34568581Y34393909D01*
X33969792Y34991721D01*
X33966359Y34999990D01*
X33969779Y35008266D01*
X34568582Y35606094D01*
X34576856Y35609512D01*
X34582804Y35607882D01*
G37*
%TD.AperFunction*%
%TD*%
%TA.AperFunction,Conductor*%
%TO.N,/Comparator/R*%
G36*
X21110639Y14485064D02*
G01*
X21983104Y14129967D01*
X21989475Y14123674D01*
X21990393Y14119130D01*
X21990393Y13880871D01*
X21986966Y13872598D01*
X21983104Y13870034D01*
X21110641Y13514938D01*
X21101686Y13514993D01*
X21095393Y13521364D01*
X21094759Y13523470D01*
X21024601Y13872598D01*
X20999463Y13997696D01*
X20999463Y14002305D01*
X21094759Y14476531D01*
X21099749Y14483967D01*
X21108535Y14485697D01*
X21110639Y14485064D01*
G37*
%TD.AperFunction*%
%TD*%
%TA.AperFunction,Conductor*%
%TO.N,/VOUT_REF_PRE*%
G36*
X18359592Y45487150D02*
G01*
X19231736Y45252331D01*
X19238833Y45246872D01*
X19240393Y45241034D01*
X19240393Y44758967D01*
X19236966Y44750694D01*
X19231735Y44747669D01*
X18359598Y44512853D01*
X18350718Y44514011D01*
X18345258Y44521109D01*
X18345088Y44521830D01*
X18249463Y44997696D01*
X18249463Y45002305D01*
X18298609Y45246872D01*
X18345086Y45478157D01*
X18350075Y45485591D01*
X18358861Y45487321D01*
X18359592Y45487150D01*
G37*
%TD.AperFunction*%
%TD*%
%TA.AperFunction,Conductor*%
%TO.N,/VIN_REF*%
G36*
X41358280Y40604232D02*
G01*
X41358419Y40604095D01*
X41955206Y40008280D01*
X41958640Y40000010D01*
X41955220Y39991734D01*
X41955206Y39991720D01*
X41358419Y39395906D01*
X41350143Y39392486D01*
X41341873Y39395920D01*
X41341736Y39396059D01*
X41003283Y39746600D01*
X41000000Y39754727D01*
X41000000Y40245274D01*
X41003282Y40253400D01*
X41341737Y40603943D01*
X41349948Y40607513D01*
X41358280Y40604232D01*
G37*
%TD.AperFunction*%
%TD*%
%TA.AperFunction,Conductor*%
%TO.N,VOUT_REF_DIS*%
G36*
X18726530Y24905241D02*
G01*
X18733966Y24900251D01*
X18735696Y24891465D01*
X18735062Y24889359D01*
X18379967Y24016896D01*
X18373674Y24010525D01*
X18369130Y24009607D01*
X18130870Y24009607D01*
X18122597Y24013034D01*
X18120033Y24016896D01*
X17764937Y24889359D01*
X17764992Y24898314D01*
X17771363Y24904607D01*
X17773464Y24905240D01*
X18247696Y25000537D01*
X18252304Y25000537D01*
X18726530Y24905241D01*
G37*
%TD.AperFunction*%
%TD*%
%TA.AperFunction,Conductor*%
%TO.N,VIN-*%
G36*
X30799759Y76276763D02*
G01*
X30801395Y76275089D01*
X31015173Y76007299D01*
X31017656Y75998696D01*
X31015173Y75992701D01*
X30801395Y75724912D01*
X30793555Y75720584D01*
X30791215Y75720557D01*
X30470664Y75749053D01*
X30462727Y75753199D01*
X30460000Y75760707D01*
X30460000Y76239294D01*
X30463427Y76247567D01*
X30470664Y76250948D01*
X30791216Y76279444D01*
X30799759Y76276763D01*
G37*
%TD.AperFunction*%
%TD*%
%TA.AperFunction,Conductor*%
%TO.N,/Comparator/VIN_REF_L*%
G36*
X14492437Y12746573D02*
G01*
X14494983Y12742753D01*
X14651940Y12361392D01*
X14652243Y12353306D01*
X14376122Y11508047D01*
X14370295Y11501247D01*
X14361367Y11500558D01*
X14354567Y11506385D01*
X14353878Y11508047D01*
X14077756Y12353306D01*
X14078058Y12361390D01*
X14235017Y12742754D01*
X14241334Y12749099D01*
X14245836Y12750000D01*
X14484164Y12750000D01*
X14492437Y12746573D01*
G37*
%TD.AperFunction*%
%TD*%
%TA.AperFunction,Conductor*%
%TO.N,VIN-*%
G36*
X19280931Y8944165D02*
G01*
X19288360Y8939165D01*
X19290079Y8930377D01*
X19289611Y8928711D01*
X19129796Y8487714D01*
X19123755Y8481103D01*
X19118796Y8480000D01*
X18881204Y8480000D01*
X18872931Y8483427D01*
X18870204Y8487714D01*
X18710388Y8928714D01*
X18710791Y8937656D01*
X18717402Y8943697D01*
X18719062Y8944164D01*
X18997682Y9000531D01*
X19002318Y9000531D01*
X19280931Y8944165D01*
G37*
%TD.AperFunction*%
%TD*%
%TA.AperFunction,Conductor*%
%TO.N,VIN+*%
G36*
X12048214Y34973504D02*
G01*
X12048400Y34973053D01*
X12629189Y33483894D01*
X12629003Y33474941D01*
X12628967Y33474860D01*
X12290598Y32719417D01*
X12284088Y32713268D01*
X12279920Y32712500D01*
X11795080Y32712500D01*
X11786807Y32715927D01*
X11784402Y32719417D01*
X11446032Y33474860D01*
X11445778Y33483811D01*
X11445810Y33483894D01*
X12026600Y34973053D01*
X12032798Y34979516D01*
X12041751Y34979702D01*
X12048214Y34973504D01*
G37*
%TD.AperFunction*%
%TD*%
%TA.AperFunction,Conductor*%
%TO.N,+12V*%
G36*
X32771787Y75559505D02*
G01*
X32772774Y75558383D01*
X33290980Y74887395D01*
X33293325Y74878753D01*
X33290742Y74872795D01*
X32808165Y74288326D01*
X32800255Y74284128D01*
X32791694Y74286753D01*
X32791683Y74286762D01*
X32084857Y74871794D01*
X32080669Y74879709D01*
X32083304Y74888267D01*
X32084048Y74889085D01*
X32411092Y75215355D01*
X32755242Y75559506D01*
X32763514Y75562932D01*
X32771787Y75559505D01*
G37*
%TD.AperFunction*%
%TD*%
%TA.AperFunction,Conductor*%
%TO.N,VIN+*%
G36*
X5579353Y77446573D02*
G01*
X5579674Y77446239D01*
X6500000Y76450000D01*
X5500000Y73449000D01*
X4500000Y76450000D01*
X5420326Y77446239D01*
X5428457Y77449991D01*
X5428920Y77450000D01*
X5571080Y77450000D01*
X5579353Y77446573D01*
G37*
%TD.AperFunction*%
%TD*%
%TA.AperFunction,Conductor*%
%TO.N,/DIS*%
G36*
X8636669Y13590809D02*
G01*
X8639564Y13586023D01*
X8800370Y13070910D01*
X8799565Y13061991D01*
X8792689Y13056255D01*
X8791522Y13055955D01*
X8512320Y12999470D01*
X8507680Y12999470D01*
X8228477Y13055955D01*
X8221048Y13060955D01*
X8219329Y13069743D01*
X8219625Y13070898D01*
X8380436Y13586024D01*
X8386172Y13592899D01*
X8391604Y13594236D01*
X8628396Y13594236D01*
X8636669Y13590809D01*
G37*
%TD.AperFunction*%
%TD*%
%TA.AperFunction,Conductor*%
%TO.N,/VOUT_REF_PRE*%
G36*
X20939631Y45290646D02*
G01*
X20943535Y45284040D01*
X21000530Y45002320D01*
X21000530Y44997680D01*
X20943535Y44715961D01*
X20938535Y44708532D01*
X20931104Y44706621D01*
X20416501Y44749114D01*
X20408538Y44753210D01*
X20405764Y44760774D01*
X20405764Y45239227D01*
X20409191Y45247500D01*
X20416499Y45250887D01*
X20931104Y45293380D01*
X20939631Y45290646D01*
G37*
%TD.AperFunction*%
%TD*%
%TA.AperFunction,Conductor*%
%TO.N,/VIN_REF*%
G36*
X42582804Y40607882D02*
G01*
X43181759Y40253398D01*
X43187133Y40246235D01*
X43187500Y40243329D01*
X43187500Y39756672D01*
X43184073Y39748399D01*
X43181759Y39746603D01*
X42582805Y39392120D01*
X42573940Y39390856D01*
X42568581Y39393909D01*
X41969792Y39991721D01*
X41966359Y39999990D01*
X41969779Y40008266D01*
X42568582Y40606094D01*
X42576856Y40609512D01*
X42582804Y40607882D01*
G37*
%TD.AperFunction*%
%TD*%
%TA.AperFunction,Conductor*%
%TO.N,VIN-*%
G36*
X49032955Y40557267D02*
G01*
X49494731Y40253467D01*
X49499759Y40246057D01*
X49500000Y40243693D01*
X49500000Y39756308D01*
X49496573Y39748035D01*
X49494731Y39746534D01*
X49032956Y39442735D01*
X49024161Y39441050D01*
X49018259Y39444229D01*
X48469793Y39991722D01*
X48466360Y39999990D01*
X48469779Y40008265D01*
X49018260Y40555773D01*
X49026535Y40559192D01*
X49032955Y40557267D01*
G37*
%TD.AperFunction*%
%TD*%
%TA.AperFunction,Conductor*%
%TO.N,VOUT_REF_DIS*%
G36*
X11070902Y6815373D02*
G01*
X11586023Y6654564D01*
X11592899Y6648828D01*
X11594236Y6643396D01*
X11594236Y6406605D01*
X11590809Y6398332D01*
X11586023Y6395437D01*
X11070909Y6234630D01*
X11061990Y6235435D01*
X11056254Y6242311D01*
X11055957Y6243463D01*
X10999469Y6522682D01*
X10999469Y6527320D01*
X11055955Y6806526D01*
X11060954Y6813952D01*
X11069742Y6815671D01*
X11070902Y6815373D01*
G37*
%TD.AperFunction*%
%TD*%
%TA.AperFunction,Conductor*%
%TO.N,Net-(R18-Pad2)*%
G36*
X27431417Y25606093D02*
G01*
X27747352Y25290674D01*
X28030206Y25008280D01*
X28033640Y25000010D01*
X28030220Y24991734D01*
X28030206Y24991720D01*
X27431419Y24393909D01*
X27423143Y24390489D01*
X27417194Y24392120D01*
X26818241Y24746603D01*
X26812867Y24753766D01*
X26812500Y24756672D01*
X26812500Y25243329D01*
X26815927Y25251602D01*
X26818241Y25253398D01*
X27417195Y25607882D01*
X27426059Y25609145D01*
X27431417Y25606093D01*
G37*
%TD.AperFunction*%
%TD*%
%TA.AperFunction,Conductor*%
%TO.N,/Comparator/VIN_REF_H*%
G36*
X43859592Y30487150D02*
G01*
X44731736Y30252331D01*
X44738833Y30246872D01*
X44740393Y30241034D01*
X44740393Y29758967D01*
X44736966Y29750694D01*
X44731735Y29747669D01*
X43859598Y29512853D01*
X43850718Y29514011D01*
X43845258Y29521109D01*
X43845088Y29521830D01*
X43749463Y29997696D01*
X43749463Y30002305D01*
X43798609Y30246872D01*
X43845086Y30478157D01*
X43850075Y30485591D01*
X43858861Y30487321D01*
X43859592Y30487150D01*
G37*
%TD.AperFunction*%
%TD*%
%TA.AperFunction,Conductor*%
%TO.N,/PRE*%
G36*
X45259227Y71160920D02*
G01*
X45498734Y71002016D01*
X45502015Y70998735D01*
X45660919Y70759228D01*
X45662638Y70750440D01*
X45658734Y70743834D01*
X45264807Y70410002D01*
X45256280Y70407268D01*
X45248970Y70410655D01*
X44910654Y70748971D01*
X44907227Y70757244D01*
X44910001Y70764808D01*
X45109913Y71000707D01*
X45243834Y71158736D01*
X45251796Y71162831D01*
X45259227Y71160920D01*
G37*
%TD.AperFunction*%
%TD*%
%TA.AperFunction,Conductor*%
%TO.N,VIN+*%
G36*
X27018306Y56981694D02*
G01*
X27481694Y56518306D01*
X27500000Y56474112D01*
X27500000Y54525888D01*
X27481694Y54481694D01*
X27018306Y54018306D01*
X26974112Y54000000D01*
X15525888Y54000000D01*
X15481694Y54018306D01*
X15018306Y54481694D01*
X15000000Y54525888D01*
X15000000Y56474112D01*
X15018306Y56518306D01*
X15481694Y56981694D01*
X15525888Y57000000D01*
X26974112Y57000000D01*
X27018306Y56981694D01*
G37*
%TD.AperFunction*%
%TD*%
%TA.AperFunction,Conductor*%
%TO.N,VIN-*%
G36*
X46075000Y50950000D02*
G01*
X45750000Y50500000D01*
X45250000Y50500000D01*
X44925000Y50950000D01*
X45500000Y51526000D01*
X46075000Y50950000D01*
G37*
%TD.AperFunction*%
%TD*%
%TA.AperFunction,Conductor*%
%TO.N,/VIN_REF*%
G36*
X41106968Y67590809D02*
G01*
X41109740Y67586396D01*
X41289808Y67071195D01*
X41289303Y67062255D01*
X41282623Y67056290D01*
X41281083Y67055867D01*
X41002320Y66999470D01*
X40997680Y66999470D01*
X40718047Y67056042D01*
X40710618Y67061042D01*
X40708899Y67069830D01*
X40709085Y67070611D01*
X40850637Y67585637D01*
X40856134Y67592706D01*
X40861919Y67594236D01*
X41098695Y67594236D01*
X41106968Y67590809D01*
G37*
%TD.AperFunction*%
%TD*%
%TA.AperFunction,Conductor*%
%TO.N,/DIS*%
G36*
X33300509Y6789566D02*
G01*
X33306245Y6782690D01*
X33306545Y6781523D01*
X33363030Y6502320D01*
X33363030Y6497680D01*
X33306545Y6218478D01*
X33301545Y6211049D01*
X33292757Y6209330D01*
X33291590Y6209630D01*
X32776477Y6370437D01*
X32769601Y6376173D01*
X32768264Y6381605D01*
X32768264Y6618396D01*
X32771691Y6626669D01*
X32776477Y6629564D01*
X33291591Y6790371D01*
X33300509Y6789566D01*
G37*
%TD.AperFunction*%
%TD*%
%TA.AperFunction,Conductor*%
%TO.N,VIN-*%
G36*
X24070902Y8540373D02*
G01*
X24586023Y8379564D01*
X24592899Y8373828D01*
X24594236Y8368396D01*
X24594236Y8131605D01*
X24590809Y8123332D01*
X24586023Y8120437D01*
X24070909Y7959630D01*
X24061990Y7960435D01*
X24056254Y7967311D01*
X24055957Y7968463D01*
X23999469Y8247682D01*
X23999469Y8252320D01*
X24055955Y8531526D01*
X24060954Y8538952D01*
X24069742Y8540671D01*
X24070902Y8540373D01*
G37*
%TD.AperFunction*%
%TD*%
%TA.AperFunction,Conductor*%
%TO.N,VIN-*%
G36*
X3846625Y14402638D02*
G01*
X3989384Y14245963D01*
X4206319Y14007880D01*
X4209358Y13999457D01*
X4206319Y13992120D01*
X3846627Y13597364D01*
X3838522Y13593557D01*
X3830467Y13596274D01*
X3504188Y13869494D01*
X3500046Y13877433D01*
X3500000Y13878464D01*
X3500000Y14121537D01*
X3503427Y14129810D01*
X3504188Y14130507D01*
X3830468Y14403728D01*
X3839010Y14406411D01*
X3846625Y14402638D01*
G37*
%TD.AperFunction*%
%TD*%
%TA.AperFunction,Conductor*%
%TO.N,VIN-*%
G36*
X19128134Y8996573D02*
G01*
X19130265Y8993651D01*
X19275618Y8711044D01*
X19276355Y8702120D01*
X19272513Y8696549D01*
X19007299Y8484827D01*
X18998696Y8482344D01*
X18992701Y8484827D01*
X18727486Y8696549D01*
X18723158Y8704389D01*
X18724380Y8711043D01*
X18869735Y8993651D01*
X18876566Y8999441D01*
X18880139Y9000000D01*
X19119861Y9000000D01*
X19128134Y8996573D01*
G37*
%TD.AperFunction*%
%TD*%
%TA.AperFunction,Conductor*%
%TO.N,VIN-*%
G36*
X90070268Y73241479D02*
G01*
X90731740Y73086158D01*
X90739010Y73080931D01*
X90740455Y73072093D01*
X90737338Y73066495D01*
X90401099Y72730256D01*
X90395250Y72727083D01*
X90070093Y72658214D01*
X90061290Y72659852D01*
X90056223Y72667236D01*
X89999756Y72948402D01*
X89999757Y72953012D01*
X90056138Y73232402D01*
X90061134Y73239832D01*
X90069921Y73241555D01*
X90070268Y73241479D01*
G37*
%TD.AperFunction*%
%TD*%
%TA.AperFunction,Conductor*%
%TO.N,Net-(U2-CS)*%
G36*
X31008264Y56030221D02*
G01*
X31556716Y55480794D01*
X31560135Y55472519D01*
X31559037Y55467581D01*
X31303151Y54919252D01*
X31296547Y54913204D01*
X31292549Y54912500D01*
X30707451Y54912500D01*
X30699178Y54915927D01*
X30696849Y54919252D01*
X30440962Y55467581D01*
X30440568Y55476527D01*
X30443282Y55480794D01*
X30991721Y56030207D01*
X30999990Y56033640D01*
X31008264Y56030221D01*
G37*
%TD.AperFunction*%
%TD*%
%TA.AperFunction,Conductor*%
%TO.N,+15V*%
G36*
X34267500Y12840809D02*
G01*
X34270887Y12833499D01*
X34313379Y12318896D01*
X34310645Y12310369D01*
X34304039Y12306465D01*
X34022320Y12249470D01*
X34017680Y12249470D01*
X33735960Y12306465D01*
X33728531Y12311465D01*
X33726620Y12318896D01*
X33769113Y12833499D01*
X33773209Y12841462D01*
X33780773Y12844236D01*
X34259227Y12844236D01*
X34267500Y12840809D01*
G37*
%TD.AperFunction*%
%TD*%
%TA.AperFunction,Conductor*%
%TO.N,/PRE*%
G36*
X45747711Y71486573D02*
G01*
X45751077Y71479493D01*
X45793153Y71069084D01*
X45790588Y71060505D01*
X45783834Y71056423D01*
X45502320Y70999470D01*
X45497680Y70999470D01*
X45216165Y71056423D01*
X45208736Y71061423D01*
X45206846Y71069084D01*
X45248923Y71479493D01*
X45253176Y71487374D01*
X45260562Y71490000D01*
X45739438Y71490000D01*
X45747711Y71486573D01*
G37*
%TD.AperFunction*%
%TD*%
%TA.AperFunction,Conductor*%
%TO.N,Net-(R17-Pad2)*%
G36*
X27431417Y45606093D02*
G01*
X27747352Y45290674D01*
X28030206Y45008280D01*
X28033640Y45000010D01*
X28030220Y44991734D01*
X28030206Y44991720D01*
X27431419Y44393909D01*
X27423143Y44390489D01*
X27417194Y44392120D01*
X26818241Y44746603D01*
X26812867Y44753766D01*
X26812500Y44756672D01*
X26812500Y45243329D01*
X26815927Y45251602D01*
X26818241Y45253398D01*
X27417195Y45607882D01*
X27426059Y45609145D01*
X27431417Y45606093D01*
G37*
%TD.AperFunction*%
%TD*%
%TA.AperFunction,Conductor*%
%TO.N,Net-(D8-A)*%
G36*
X6130053Y19932402D02*
G01*
X6656622Y19630372D01*
X6662093Y19623284D01*
X6662500Y19620224D01*
X6662500Y19379777D01*
X6659073Y19371504D01*
X6656621Y19369628D01*
X6130053Y19067599D01*
X6121172Y19066455D01*
X6114939Y19070639D01*
X5791938Y19492891D01*
X5789633Y19501545D01*
X5791938Y19507109D01*
X5883648Y19627000D01*
X6114940Y19929363D01*
X6122687Y19933851D01*
X6130053Y19932402D01*
G37*
%TD.AperFunction*%
%TD*%
%TA.AperFunction,Conductor*%
%TO.N,VIN-*%
G36*
X12018306Y20231694D02*
G01*
X12231694Y20018306D01*
X12250000Y19974112D01*
X12250000Y18275888D01*
X12231694Y18231694D01*
X12018306Y18018306D01*
X11974112Y18000000D01*
X10775888Y18000000D01*
X10731694Y18018306D01*
X10518306Y18231694D01*
X10500000Y18275888D01*
X10500000Y19974112D01*
X10518306Y20018306D01*
X10731694Y20231694D01*
X10775888Y20250000D01*
X11974112Y20250000D01*
X12018306Y20231694D01*
G37*
%TD.AperFunction*%
%TD*%
%TA.AperFunction,Conductor*%
%TO.N,VIN-*%
G36*
X36439631Y13290646D02*
G01*
X36443535Y13284040D01*
X36500530Y13002320D01*
X36500530Y12997680D01*
X36443535Y12715961D01*
X36438535Y12708532D01*
X36431104Y12706621D01*
X35916501Y12749114D01*
X35908538Y12753210D01*
X35905764Y12760774D01*
X35905764Y13239227D01*
X35909191Y13247500D01*
X35916499Y13250887D01*
X36431104Y13293380D01*
X36439631Y13290646D01*
G37*
%TD.AperFunction*%
%TD*%
%TA.AperFunction,Conductor*%
%TO.N,VOUT_REF_DIS*%
G36*
X10070902Y23790373D02*
G01*
X10586023Y23629564D01*
X10592899Y23623828D01*
X10594236Y23618396D01*
X10594236Y23381605D01*
X10590809Y23373332D01*
X10586023Y23370437D01*
X10070909Y23209630D01*
X10061990Y23210435D01*
X10056254Y23217311D01*
X10055957Y23218463D01*
X9999469Y23497682D01*
X9999469Y23502320D01*
X10055955Y23781526D01*
X10060954Y23788952D01*
X10069742Y23790671D01*
X10070902Y23790373D01*
G37*
%TD.AperFunction*%
%TD*%
%TA.AperFunction,Conductor*%
%TO.N,Net-(R37-Pad2)*%
G36*
X18582804Y35607882D02*
G01*
X19181759Y35253398D01*
X19187133Y35246235D01*
X19187500Y35243329D01*
X19187500Y34756672D01*
X19184073Y34748399D01*
X19181759Y34746603D01*
X18582805Y34392120D01*
X18573940Y34390856D01*
X18568581Y34393909D01*
X17969792Y34991721D01*
X17966359Y34999990D01*
X17969779Y35008266D01*
X18568582Y35606094D01*
X18576856Y35609512D01*
X18582804Y35607882D01*
G37*
%TD.AperFunction*%
%TD*%
%TA.AperFunction,Conductor*%
%TO.N,VIN-*%
G36*
X35577131Y9290646D02*
G01*
X35581035Y9284040D01*
X35638030Y9002320D01*
X35638030Y8997680D01*
X35581035Y8715961D01*
X35576035Y8708532D01*
X35568604Y8706621D01*
X35054001Y8749114D01*
X35046038Y8753210D01*
X35043264Y8760774D01*
X35043264Y9239227D01*
X35046691Y9247500D01*
X35053999Y9250887D01*
X35568604Y9293380D01*
X35577131Y9290646D01*
G37*
%TD.AperFunction*%
%TD*%
%TA.AperFunction,Conductor*%
%TO.N,VOUT_REF_DIS*%
G36*
X19431417Y25606093D02*
G01*
X19747352Y25290674D01*
X20030206Y25008280D01*
X20033640Y25000010D01*
X20030220Y24991734D01*
X20030206Y24991720D01*
X19431419Y24393909D01*
X19423143Y24390489D01*
X19417194Y24392120D01*
X18818241Y24746603D01*
X18812867Y24753766D01*
X18812500Y24756672D01*
X18812500Y25243329D01*
X18815927Y25251602D01*
X18818241Y25253398D01*
X19417195Y25607882D01*
X19426059Y25609145D01*
X19431417Y25606093D01*
G37*
%TD.AperFunction*%
%TD*%
%TA.AperFunction,Conductor*%
%TO.N,+5V*%
G36*
X28026350Y10096573D02*
G01*
X28029360Y10091395D01*
X28073206Y9931539D01*
X28072090Y9922654D01*
X28070220Y9920194D01*
X27908297Y9757345D01*
X27900033Y9753895D01*
X27891750Y9757298D01*
X27891703Y9757345D01*
X27729779Y9920194D01*
X27726376Y9928477D01*
X27726792Y9931535D01*
X27770640Y10091395D01*
X27776133Y10098467D01*
X27781923Y10100000D01*
X28018077Y10100000D01*
X28026350Y10096573D01*
G37*
%TD.AperFunction*%
%TD*%
%TA.AperFunction,Conductor*%
%TO.N,+15V*%
G36*
X35506919Y71515280D02*
G01*
X35782344Y71319282D01*
X35787097Y71311693D01*
X35785945Y71304360D01*
X35705892Y71150097D01*
X35703780Y71147213D01*
X35366169Y70809602D01*
X35357896Y70806175D01*
X35349623Y70809602D01*
X35346537Y70815070D01*
X35233265Y71273799D01*
X35234609Y71282651D01*
X35236809Y71285309D01*
X35492324Y71514458D01*
X35500771Y71517430D01*
X35506919Y71515280D01*
G37*
%TD.AperFunction*%
%TD*%
%TA.AperFunction,Conductor*%
%TO.N,VIN-*%
G36*
X15628465Y21297976D02*
G01*
X15728116Y21239757D01*
X16121208Y21010102D01*
X16126623Y21002970D01*
X16125408Y20994098D01*
X16121208Y20989898D01*
X15628467Y20702026D01*
X15621019Y20700531D01*
X15260154Y20748647D01*
X15252406Y20753137D01*
X15250000Y20760244D01*
X15250000Y21239757D01*
X15253427Y21248030D01*
X15260153Y21251354D01*
X15621021Y21299470D01*
X15628465Y21297976D01*
G37*
%TD.AperFunction*%
%TD*%
%TA.AperFunction,Conductor*%
%TO.N,VIN+*%
G36*
X12289811Y41996573D02*
G01*
X12291004Y41995176D01*
X12573228Y41606662D01*
X12575318Y41597955D01*
X12574851Y41596055D01*
X12048589Y40031958D01*
X12042703Y40025210D01*
X12033769Y40024600D01*
X12027021Y40030486D01*
X12026411Y40031958D01*
X11500148Y41596055D01*
X11500758Y41604989D01*
X11501768Y41606658D01*
X11783996Y41995176D01*
X11791631Y41999856D01*
X11793462Y42000000D01*
X12281538Y42000000D01*
X12289811Y41996573D01*
G37*
%TD.AperFunction*%
%TD*%
%TA.AperFunction,Conductor*%
%TO.N,Net-(R27-Pad1)*%
G36*
X18497898Y13993773D02*
G01*
X18743887Y13768679D01*
X18747678Y13760565D01*
X18746942Y13755933D01*
X18619850Y13417586D01*
X18613733Y13411046D01*
X18608897Y13410000D01*
X18371103Y13410000D01*
X18362830Y13413427D01*
X18360150Y13417586D01*
X18233057Y13755935D01*
X18233356Y13764883D01*
X18236110Y13768677D01*
X18482102Y13993774D01*
X18490518Y13996830D01*
X18497898Y13993773D01*
G37*
%TD.AperFunction*%
%TD*%
%TA.AperFunction,Conductor*%
%TO.N,VIN-*%
G36*
X50794236Y50558527D02*
G01*
X50500000Y50499000D01*
X50205764Y50558527D01*
X50250000Y51094236D01*
X50750000Y51094236D01*
X50794236Y50558527D01*
G37*
%TD.AperFunction*%
%TD*%
%TA.AperFunction,Conductor*%
%TO.N,VOUT_REF_DIS*%
G36*
X15645561Y11441628D02*
G01*
X15646345Y11439652D01*
X15903316Y10568710D01*
X15902520Y10560090D01*
X15689685Y10142126D01*
X15682877Y10136309D01*
X15673950Y10137009D01*
X15670986Y10139162D01*
X15503955Y10306193D01*
X15501968Y10308842D01*
X15359512Y10568710D01*
X15348854Y10588152D01*
X15347884Y10597053D01*
X15347981Y10597371D01*
X15624004Y11439985D01*
X15629836Y11446779D01*
X15638765Y11447460D01*
X15645561Y11441628D01*
G37*
%TD.AperFunction*%
%TD*%
%TA.AperFunction,Conductor*%
%TO.N,VOUT+*%
G36*
X50582804Y25607882D02*
G01*
X51181759Y25253398D01*
X51187133Y25246235D01*
X51187500Y25243329D01*
X51187500Y24756672D01*
X51184073Y24748399D01*
X51181759Y24746603D01*
X50582805Y24392120D01*
X50573940Y24390856D01*
X50568581Y24393909D01*
X49969792Y24991721D01*
X49966359Y24999990D01*
X49969779Y25008266D01*
X50568582Y25606094D01*
X50576856Y25609512D01*
X50582804Y25607882D01*
G37*
%TD.AperFunction*%
%TD*%
%TA.AperFunction,Conductor*%
%TO.N,VIN+*%
G36*
X11518306Y76981694D02*
G01*
X11981694Y76518306D01*
X12000000Y76474112D01*
X12000000Y64525888D01*
X11981694Y64481694D01*
X11518306Y64018306D01*
X11474112Y64000000D01*
X2525888Y64000000D01*
X2481694Y64018306D01*
X2018306Y64481694D01*
X2000000Y64525888D01*
X2000000Y76474112D01*
X2018306Y76518306D01*
X2481694Y76981694D01*
X2525888Y77000000D01*
X11474112Y77000000D01*
X11518306Y76981694D01*
G37*
%TD.AperFunction*%
%TD*%
%TA.AperFunction,Conductor*%
%TO.N,VIN-*%
G36*
X30799759Y77276763D02*
G01*
X30801395Y77275089D01*
X31015173Y77007299D01*
X31017656Y76998696D01*
X31015173Y76992701D01*
X30801395Y76724912D01*
X30793555Y76720584D01*
X30791215Y76720557D01*
X30470664Y76749053D01*
X30462727Y76753199D01*
X30460000Y76760707D01*
X30460000Y77239294D01*
X30463427Y77247567D01*
X30470664Y77250948D01*
X30791216Y77279444D01*
X30799759Y77276763D01*
G37*
%TD.AperFunction*%
%TD*%
%TA.AperFunction,Conductor*%
%TO.N,+12V*%
G36*
X33583499Y77250887D02*
G01*
X33591462Y77246791D01*
X33594236Y77239227D01*
X33594236Y76760774D01*
X33590809Y76752501D01*
X33583499Y76749114D01*
X33068895Y76706621D01*
X33060368Y76709355D01*
X33056464Y76715961D01*
X32999469Y76997680D01*
X32999469Y77002320D01*
X33049578Y77250000D01*
X33056464Y77284041D01*
X33061464Y77291469D01*
X33068894Y77293380D01*
X33583499Y77250887D01*
G37*
%TD.AperFunction*%
%TD*%
%TA.AperFunction,Conductor*%
%TO.N,/VOUT_REF_PRE*%
G36*
X41339847Y76239725D02*
G01*
X41339860Y76239705D01*
X41497295Y76005032D01*
X41499058Y75996253D01*
X41499056Y75996239D01*
X41444853Y75722819D01*
X41439882Y75715370D01*
X41431101Y75713617D01*
X41426946Y75715319D01*
X41426868Y75715370D01*
X41107000Y75925764D01*
X40891300Y75925764D01*
X40883027Y75929191D01*
X40879600Y75937464D01*
X40883027Y75945737D01*
X40884762Y75947167D01*
X40988431Y76017027D01*
X41323608Y76242891D01*
X41332382Y76244671D01*
X41339847Y76239725D01*
G37*
%TD.AperFunction*%
%TD*%
%TA.AperFunction,Conductor*%
%TO.N,/Comparator/VIN_REF_L*%
G36*
X14646523Y13944045D02*
G01*
X14653951Y13939046D01*
X14655670Y13930258D01*
X14655370Y13929091D01*
X14494564Y13413977D01*
X14488828Y13407101D01*
X14483396Y13405764D01*
X14246604Y13405764D01*
X14238331Y13409191D01*
X14235436Y13413977D01*
X14074629Y13929091D01*
X14075434Y13938010D01*
X14082310Y13943746D01*
X14083458Y13944042D01*
X14362682Y14000531D01*
X14367318Y14000531D01*
X14646523Y13944045D01*
G37*
%TD.AperFunction*%
%TD*%
%TA.AperFunction,Conductor*%
%TO.N,VOUT_REF_DIS*%
G36*
X18149281Y25485990D02*
G01*
X18154741Y25478892D01*
X18154914Y25478155D01*
X18250536Y25002305D01*
X18250536Y24997695D01*
X18154914Y24521846D01*
X18149924Y24514410D01*
X18141138Y24512680D01*
X18140401Y24512853D01*
X17268265Y24747669D01*
X17261167Y24753129D01*
X17259607Y24758967D01*
X17259607Y25241034D01*
X17263034Y25249307D01*
X17268262Y25252331D01*
X18140402Y25487148D01*
X18149281Y25485990D01*
G37*
%TD.AperFunction*%
%TD*%
%TA.AperFunction,Conductor*%
%TO.N,Net-(D10-A)*%
G36*
X6130053Y14432402D02*
G01*
X6656622Y14130372D01*
X6662093Y14123284D01*
X6662500Y14120224D01*
X6662500Y13879777D01*
X6659073Y13871504D01*
X6656621Y13869628D01*
X6130053Y13567599D01*
X6121172Y13566455D01*
X6114939Y13570639D01*
X5791938Y13992891D01*
X5789633Y14001545D01*
X5791938Y14007109D01*
X5883648Y14127000D01*
X6114940Y14429363D01*
X6122687Y14433851D01*
X6130053Y14432402D01*
G37*
%TD.AperFunction*%
%TD*%
%TA.AperFunction,Conductor*%
%TO.N,VIN-*%
G36*
X31026098Y76997276D02*
G01*
X31293920Y76833713D01*
X31299195Y76826477D01*
X31299492Y76822894D01*
X31270776Y76420866D01*
X31266769Y76412858D01*
X31259106Y76410000D01*
X30780894Y76410000D01*
X30772621Y76413427D01*
X30769224Y76420866D01*
X30763480Y76501272D01*
X30740507Y76822896D01*
X30743335Y76831391D01*
X30746077Y76833712D01*
X31013902Y76997277D01*
X31022749Y76998664D01*
X31026098Y76997276D01*
G37*
%TD.AperFunction*%
%TD*%
%TA.AperFunction,Conductor*%
%TO.N,Net-(Q2-G)*%
G36*
X44039132Y11617140D02*
G01*
X44305080Y11551358D01*
X44312289Y11546045D01*
X44313629Y11537191D01*
X44308316Y11529982D01*
X44305080Y11528642D01*
X42207979Y11009933D01*
X42200835Y11010424D01*
X41507365Y11287062D01*
X41500950Y11293310D01*
X41500000Y11297929D01*
X41500000Y11782072D01*
X41503427Y11790345D01*
X41507361Y11792937D01*
X42200837Y12069578D01*
X42207976Y12070068D01*
X44039132Y11617140D01*
G37*
%TD.AperFunction*%
%TD*%
%TA.AperFunction,Conductor*%
%TO.N,VIN-*%
G36*
X13342500Y10590809D02*
G01*
X13345887Y10583499D01*
X13388379Y10068896D01*
X13385645Y10060369D01*
X13379039Y10056465D01*
X13097320Y9999470D01*
X13092680Y9999470D01*
X12810960Y10056465D01*
X12803531Y10061465D01*
X12801620Y10068896D01*
X12844113Y10583499D01*
X12848209Y10591462D01*
X12855773Y10594236D01*
X13334227Y10594236D01*
X13342500Y10590809D01*
G37*
%TD.AperFunction*%
%TD*%
%TA.AperFunction,Conductor*%
%TO.N,VIN-*%
G36*
X30083499Y77250887D02*
G01*
X30091462Y77246791D01*
X30094236Y77239227D01*
X30094236Y76760774D01*
X30090809Y76752501D01*
X30083499Y76749114D01*
X30000001Y76742220D01*
X30000000Y76742219D01*
X29558527Y76705764D01*
X29499000Y77000000D01*
X29558527Y77294236D01*
X30083499Y77250887D01*
G37*
%TD.AperFunction*%
%TD*%
%TA.AperFunction,Conductor*%
%TO.N,/Comparator/S*%
G36*
X19755396Y4266244D02*
G01*
X20043300Y4130167D01*
X20049315Y4123533D01*
X20050000Y4119589D01*
X20050000Y3880412D01*
X20046573Y3872139D01*
X20043300Y3869834D01*
X19755397Y3733758D01*
X19746453Y3733321D01*
X19741627Y3736591D01*
X19515838Y3992257D01*
X19512931Y4000725D01*
X19515838Y4007744D01*
X19741628Y4263411D01*
X19749672Y4267343D01*
X19755396Y4266244D01*
G37*
%TD.AperFunction*%
%TD*%
%TA.AperFunction,Conductor*%
%TO.N,VOUT+*%
G36*
X62001000Y45000000D02*
G01*
X61941473Y44705764D01*
X61405764Y44750000D01*
X61405764Y45250000D01*
X61941473Y45294236D01*
X62001000Y45000000D01*
G37*
%TD.AperFunction*%
%TD*%
%TA.AperFunction,Conductor*%
%TO.N,/Comparator/VIN_REF_H*%
G36*
X43649281Y30485990D02*
G01*
X43654741Y30478892D01*
X43654914Y30478155D01*
X43750536Y30002305D01*
X43750536Y29997695D01*
X43654914Y29521846D01*
X43649924Y29514410D01*
X43641138Y29512680D01*
X43640401Y29512853D01*
X42768265Y29747669D01*
X42761167Y29753129D01*
X42759607Y29758967D01*
X42759607Y30241034D01*
X42763034Y30249307D01*
X42768262Y30252331D01*
X43640402Y30487148D01*
X43649281Y30485990D01*
G37*
%TD.AperFunction*%
%TD*%
%TA.AperFunction,Conductor*%
%TO.N,Net-(D6-A)*%
G36*
X80766903Y69759350D02*
G01*
X81109349Y69416904D01*
X81112776Y69408631D01*
X81111866Y69404108D01*
X80374452Y67645009D01*
X80368093Y67638704D01*
X80359139Y67638742D01*
X80357171Y67639797D01*
X79538739Y68185496D01*
X79535495Y68188740D01*
X78989796Y69007172D01*
X78988058Y69015957D01*
X78993040Y69023398D01*
X78995001Y69024450D01*
X80754107Y69761868D01*
X80763061Y69761905D01*
X80766903Y69759350D01*
G37*
%TD.AperFunction*%
%TD*%
%TA.AperFunction,Conductor*%
%TO.N,VIN-*%
G36*
X27437481Y4289015D02*
G01*
X27443666Y4282539D01*
X27444225Y4280631D01*
X27500530Y4002320D01*
X27500530Y3997680D01*
X27444225Y3719370D01*
X27439225Y3711941D01*
X27430437Y3710222D01*
X27428529Y3710781D01*
X27017472Y3870104D01*
X27010996Y3876289D01*
X27010000Y3881013D01*
X27010000Y4118988D01*
X27013427Y4127261D01*
X27017468Y4129895D01*
X27428531Y4289220D01*
X27437481Y4289015D01*
G37*
%TD.AperFunction*%
%TD*%
%TA.AperFunction,Conductor*%
%TO.N,VIN-*%
G36*
X12981740Y25555772D02*
G01*
X13530205Y25008280D01*
X13533639Y25000010D01*
X13530219Y24991734D01*
X13530205Y24991720D01*
X12981740Y24444229D01*
X12973464Y24440809D01*
X12967043Y24442735D01*
X12505269Y24746534D01*
X12500241Y24753944D01*
X12500000Y24756308D01*
X12500000Y25243693D01*
X12503427Y25251966D01*
X12505265Y25253465D01*
X12967044Y25557267D01*
X12975838Y25558951D01*
X12981740Y25555772D01*
G37*
%TD.AperFunction*%
%TD*%
%TA.AperFunction,Conductor*%
%TO.N,VIN-*%
G36*
X35083499Y9250887D02*
G01*
X35091462Y9246791D01*
X35094236Y9239227D01*
X35094236Y8760774D01*
X35090809Y8752501D01*
X35083499Y8749114D01*
X34568895Y8706621D01*
X34560368Y8709355D01*
X34556464Y8715961D01*
X34499469Y8997680D01*
X34499469Y9002320D01*
X34549578Y9250000D01*
X34556464Y9284041D01*
X34561464Y9291469D01*
X34568894Y9293380D01*
X35083499Y9250887D01*
G37*
%TD.AperFunction*%
%TD*%
%TA.AperFunction,Conductor*%
%TO.N,Net-(U6-FB)*%
G36*
X18075238Y22067770D02*
G01*
X18602981Y21784995D01*
X18608655Y21778067D01*
X18608272Y21770223D01*
X18503406Y21515839D01*
X18497085Y21509496D01*
X18494798Y21508808D01*
X18190138Y21450233D01*
X18181367Y21452037D01*
X18176804Y21458101D01*
X18058587Y21821234D01*
X18058012Y21824856D01*
X18058012Y22057457D01*
X18061439Y22065730D01*
X18069712Y22069157D01*
X18075238Y22067770D01*
G37*
%TD.AperFunction*%
%TD*%
%TA.AperFunction,Conductor*%
%TO.N,Net-(D9-A)*%
G36*
X6130053Y25432402D02*
G01*
X6656622Y25130372D01*
X6662093Y25123284D01*
X6662500Y25120224D01*
X6662500Y24879777D01*
X6659073Y24871504D01*
X6656621Y24869628D01*
X6130053Y24567599D01*
X6121172Y24566455D01*
X6114939Y24570639D01*
X5791938Y24992891D01*
X5789633Y25001545D01*
X5791938Y25007109D01*
X5883648Y25127000D01*
X6114940Y25429363D01*
X6122687Y25433851D01*
X6130053Y25432402D01*
G37*
%TD.AperFunction*%
%TD*%
%TA.AperFunction,Conductor*%
%TO.N,Net-(U6-FB)*%
G36*
X19264882Y21766644D02*
G01*
X19268678Y21763888D01*
X19493772Y21517898D01*
X19496829Y21509482D01*
X19493772Y21502102D01*
X19268678Y21256113D01*
X19260564Y21252322D01*
X19255932Y21253058D01*
X18917586Y21380151D01*
X18911046Y21386268D01*
X18910000Y21391104D01*
X18910000Y21628897D01*
X18913427Y21637170D01*
X18917584Y21639849D01*
X19255934Y21766943D01*
X19264882Y21766644D01*
G37*
%TD.AperFunction*%
%TD*%
%TA.AperFunction,Conductor*%
%TO.N,VIN-*%
G36*
X30083499Y67250887D02*
G01*
X30091462Y67246791D01*
X30094236Y67239227D01*
X30094236Y66760774D01*
X30090809Y66752501D01*
X30083499Y66749114D01*
X30000001Y66742220D01*
X30000000Y66742219D01*
X29558527Y66705764D01*
X29499000Y67000000D01*
X29558527Y67294236D01*
X30083499Y67250887D01*
G37*
%TD.AperFunction*%
%TD*%
%TA.AperFunction,Conductor*%
%TO.N,/VOUT_REF_PRE*%
G36*
X18149281Y45485990D02*
G01*
X18154741Y45478892D01*
X18154914Y45478155D01*
X18250536Y45002305D01*
X18250536Y44997695D01*
X18154914Y44521846D01*
X18149924Y44514410D01*
X18141138Y44512680D01*
X18140401Y44512853D01*
X17268265Y44747669D01*
X17261167Y44753129D01*
X17259607Y44758967D01*
X17259607Y45241034D01*
X17263034Y45249307D01*
X17268262Y45252331D01*
X18140402Y45487148D01*
X18149281Y45485990D01*
G37*
%TD.AperFunction*%
%TD*%
%TA.AperFunction,Conductor*%
%TO.N,/Comparator/VIN_REF_L*%
G36*
X14803156Y14272884D02*
G01*
X15015173Y14007299D01*
X15017656Y13998696D01*
X15015173Y13992701D01*
X14803156Y13727117D01*
X14795316Y13722789D01*
X14789181Y13723760D01*
X14781776Y13727117D01*
X14466869Y13869886D01*
X14460749Y13876423D01*
X14460000Y13880542D01*
X14460000Y14119459D01*
X14463427Y14127732D01*
X14466865Y14130113D01*
X14789183Y14276242D01*
X14798131Y14276536D01*
X14803156Y14272884D01*
G37*
%TD.AperFunction*%
%TD*%
%TA.AperFunction,Conductor*%
%TO.N,VIN-*%
G36*
X45794236Y50558527D02*
G01*
X45500000Y50499000D01*
X45205764Y50558527D01*
X45250000Y51094236D01*
X45750000Y51094236D01*
X45794236Y50558527D01*
G37*
%TD.AperFunction*%
%TD*%
%TA.AperFunction,Conductor*%
%TO.N,VIN-*%
G36*
X48294236Y50558527D02*
G01*
X48000000Y50499000D01*
X47705764Y50558527D01*
X47750000Y51094236D01*
X48250000Y51094236D01*
X48294236Y50558527D01*
G37*
%TD.AperFunction*%
%TD*%
%TA.AperFunction,Conductor*%
%TO.N,+5V*%
G36*
X18530970Y17070671D02*
G01*
X18050000Y16499000D01*
X17569030Y17070671D01*
X17923000Y17725000D01*
X18177000Y17725000D01*
X18530970Y17070671D01*
G37*
%TD.AperFunction*%
%TD*%
%TA.AperFunction,Conductor*%
%TO.N,+5V*%
G36*
X27210815Y11776242D02*
G01*
X27533132Y11630114D01*
X27539251Y11623578D01*
X27540000Y11619459D01*
X27540000Y11380542D01*
X27536573Y11372269D01*
X27533131Y11369886D01*
X27210818Y11223760D01*
X27201868Y11223465D01*
X27196843Y11227117D01*
X27082870Y11369886D01*
X26984825Y11492703D01*
X26982343Y11501304D01*
X26984825Y11507297D01*
X27196845Y11772886D01*
X27204683Y11777212D01*
X27210815Y11776242D01*
G37*
%TD.AperFunction*%
%TD*%
%TA.AperFunction,Conductor*%
%TO.N,VIN-*%
G36*
X30402816Y67446617D02*
G01*
X30407204Y67442926D01*
X30721080Y67006835D01*
X30723132Y66998118D01*
X30721080Y66993165D01*
X30407204Y66557075D01*
X30399590Y66552362D01*
X30393877Y66552855D01*
X30000000Y66689355D01*
X30000000Y66689354D01*
X29825000Y66750000D01*
X29825000Y67250000D01*
X30393877Y67447146D01*
X30402816Y67446617D01*
G37*
%TD.AperFunction*%
%TD*%
%TA.AperFunction,Conductor*%
%TO.N,+15V*%
G36*
X35747641Y71516573D02*
G01*
X35751015Y71509416D01*
X35793230Y71069021D01*
X35790608Y71060459D01*
X35783903Y71056437D01*
X35502320Y70999470D01*
X35497680Y70999470D01*
X35216096Y71056437D01*
X35208667Y71061437D01*
X35206769Y71069019D01*
X35248985Y71509418D01*
X35253186Y71517325D01*
X35260632Y71520000D01*
X35739368Y71520000D01*
X35747641Y71516573D01*
G37*
%TD.AperFunction*%
%TD*%
%TA.AperFunction,Conductor*%
%TO.N,Net-(R42-Pad1)*%
G36*
X47906240Y35556271D02*
G01*
X48455205Y35008280D01*
X48458639Y35000010D01*
X48455219Y34991734D01*
X48455205Y34991720D01*
X47906240Y34443730D01*
X47897964Y34440310D01*
X47892292Y34441782D01*
X47343518Y34746657D01*
X47337950Y34753671D01*
X47337500Y34756885D01*
X47337500Y35243116D01*
X47340927Y35251389D01*
X47343514Y35253342D01*
X47892294Y35558220D01*
X47901188Y35559241D01*
X47906240Y35556271D01*
G37*
%TD.AperFunction*%
%TD*%
%TA.AperFunction,Conductor*%
%TO.N,VIN-*%
G36*
X44239593Y74156157D02*
G01*
X44247436Y74151838D01*
X44250000Y74144529D01*
X44250000Y73665472D01*
X44246573Y73657199D01*
X44239592Y73653844D01*
X43802717Y73605302D01*
X43797431Y73605933D01*
X43004278Y73894003D01*
X42997672Y73900048D01*
X42997275Y73908994D01*
X43003320Y73915600D01*
X43004278Y73915997D01*
X43797435Y74204069D01*
X43802713Y74204699D01*
X44239593Y74156157D01*
G37*
%TD.AperFunction*%
%TD*%
%TA.AperFunction,Conductor*%
%TO.N,Net-(R36-Pad1)*%
G36*
X50939631Y30290646D02*
G01*
X50943535Y30284040D01*
X51000530Y30002320D01*
X51000530Y29997680D01*
X50943535Y29715961D01*
X50938535Y29708532D01*
X50931104Y29706621D01*
X50416501Y29749114D01*
X50408538Y29753210D01*
X50405764Y29760774D01*
X50405764Y30239227D01*
X50409191Y30247500D01*
X50416499Y30250887D01*
X50931104Y30293380D01*
X50939631Y30290646D01*
G37*
%TD.AperFunction*%
%TD*%
%TA.AperFunction,Conductor*%
%TO.N,/VOUT_REF_PRE*%
G36*
X17032704Y45558220D02*
G01*
X17581482Y45253343D01*
X17587050Y45246330D01*
X17587500Y45243116D01*
X17587500Y44756885D01*
X17584073Y44748612D01*
X17581482Y44746657D01*
X17032707Y44441782D01*
X17023811Y44440760D01*
X17018759Y44443730D01*
X16705047Y44756885D01*
X16469793Y44991722D01*
X16466360Y44999990D01*
X16469779Y45008265D01*
X17018760Y45556272D01*
X17027035Y45559691D01*
X17032704Y45558220D01*
G37*
%TD.AperFunction*%
%TD*%
%TA.AperFunction,Conductor*%
%TO.N,+12V*%
G36*
X83541312Y74080035D02*
G01*
X83543860Y74078223D01*
X83743318Y73891382D01*
X83991884Y73658539D01*
X83995579Y73650382D01*
X83992424Y73642001D01*
X83991884Y73641461D01*
X83543864Y73221781D01*
X83535483Y73218626D01*
X83532395Y73219146D01*
X82958230Y73397445D01*
X82951346Y73403172D01*
X82950000Y73408619D01*
X82950000Y73891382D01*
X82953427Y73899655D01*
X82958228Y73902556D01*
X83532396Y74080855D01*
X83541312Y74080035D01*
G37*
%TD.AperFunction*%
%TD*%
%TA.AperFunction,Conductor*%
%TO.N,+5V*%
G36*
X27838009Y11789566D02*
G01*
X27843745Y11782690D01*
X27844045Y11781523D01*
X27900530Y11502320D01*
X27900530Y11497680D01*
X27844045Y11218478D01*
X27839045Y11211049D01*
X27830257Y11209330D01*
X27829090Y11209630D01*
X27313977Y11370437D01*
X27307101Y11376173D01*
X27305764Y11381605D01*
X27305764Y11618396D01*
X27309191Y11626669D01*
X27313977Y11629564D01*
X27829091Y11790371D01*
X27838009Y11789566D01*
G37*
%TD.AperFunction*%
%TD*%
%TA.AperFunction,Conductor*%
%TO.N,VIN-*%
G36*
X17228777Y21111719D02*
G01*
X17235705Y21106046D01*
X17236593Y21097136D01*
X17233666Y21092246D01*
X16896351Y20754931D01*
X16890595Y20751778D01*
X16711483Y20712317D01*
X16703675Y20713308D01*
X16159639Y20989125D01*
X16153810Y20995922D01*
X16154495Y21004851D01*
X16160505Y21010391D01*
X16753526Y21252563D01*
X16761327Y21252930D01*
X17228777Y21111719D01*
G37*
%TD.AperFunction*%
%TD*%
%TA.AperFunction,Conductor*%
%TO.N,Net-(R23-Pad1)*%
G36*
X23284039Y42443536D02*
G01*
X23291468Y42438536D01*
X23293379Y42431105D01*
X23250887Y41916501D01*
X23246791Y41908538D01*
X23239227Y41905764D01*
X22760773Y41905764D01*
X22752500Y41909191D01*
X22749113Y41916501D01*
X22706620Y42431105D01*
X22709354Y42439632D01*
X22715959Y42443536D01*
X22997682Y42500531D01*
X23002318Y42500531D01*
X23284039Y42443536D01*
G37*
%TD.AperFunction*%
%TD*%
%TA.AperFunction,Conductor*%
%TO.N,+12V*%
G36*
X11501000Y21450000D02*
G01*
X10929329Y20969030D01*
X10500000Y21201283D01*
X10500000Y21201284D01*
X10281133Y21319683D01*
X10275487Y21326634D01*
X10275000Y21329974D01*
X10275000Y21570027D01*
X10278427Y21578300D01*
X10281133Y21580318D01*
X10929329Y21930970D01*
X11501000Y21450000D01*
G37*
%TD.AperFunction*%
%TD*%
%TA.AperFunction,Conductor*%
%TO.N,VOUT+*%
G36*
X62001000Y25000000D02*
G01*
X61941473Y24705764D01*
X61405764Y24750000D01*
X61405764Y25250000D01*
X61941473Y25294236D01*
X62001000Y25000000D01*
G37*
%TD.AperFunction*%
%TD*%
%TA.AperFunction,Conductor*%
%TO.N,VIN-*%
G36*
X27255702Y14265327D02*
G01*
X27494065Y14130361D01*
X27499576Y14123303D01*
X27500000Y14120180D01*
X27500000Y13879821D01*
X27496573Y13871548D01*
X27494065Y13869640D01*
X27255703Y13734675D01*
X27246815Y13733580D01*
X27241168Y13737111D01*
X27122441Y13871548D01*
X27015838Y13992257D01*
X27012931Y14000725D01*
X27015838Y14007744D01*
X27241169Y14262891D01*
X27249213Y14266823D01*
X27255702Y14265327D01*
G37*
%TD.AperFunction*%
%TD*%
%TA.AperFunction,Conductor*%
%TO.N,/Comparator/VIN_REF_L*%
G36*
X43649281Y35485990D02*
G01*
X43654741Y35478892D01*
X43654914Y35478155D01*
X43750536Y35002305D01*
X43750536Y34997695D01*
X43654914Y34521846D01*
X43649924Y34514410D01*
X43641138Y34512680D01*
X43640401Y34512853D01*
X42768265Y34747669D01*
X42761167Y34753129D01*
X42759607Y34758967D01*
X42759607Y35241034D01*
X42763034Y35249307D01*
X42768262Y35252331D01*
X43640402Y35487148D01*
X43649281Y35485990D01*
G37*
%TD.AperFunction*%
%TD*%
%TA.AperFunction,Conductor*%
%TO.N,+5V*%
G36*
X28181523Y11444045D02*
G01*
X28188951Y11439046D01*
X28190670Y11430258D01*
X28190370Y11429091D01*
X28029564Y10913977D01*
X28023828Y10907101D01*
X28018396Y10905764D01*
X27781604Y10905764D01*
X27773331Y10909191D01*
X27770436Y10913977D01*
X27609629Y11429091D01*
X27610434Y11438010D01*
X27617310Y11443746D01*
X27618458Y11444042D01*
X27897682Y11500531D01*
X27902318Y11500531D01*
X28181523Y11444045D01*
G37*
%TD.AperFunction*%
%TD*%
%TA.AperFunction,Conductor*%
%TO.N,Net-(R23-Pad1)*%
G36*
X14939631Y45290646D02*
G01*
X14943535Y45284040D01*
X15000530Y45002320D01*
X15000530Y44997680D01*
X14943535Y44715961D01*
X14938535Y44708532D01*
X14931104Y44706621D01*
X14416501Y44749114D01*
X14408538Y44753210D01*
X14405764Y44760774D01*
X14405764Y45239227D01*
X14409191Y45247500D01*
X14416499Y45250887D01*
X14931104Y45293380D01*
X14939631Y45290646D01*
G37*
%TD.AperFunction*%
%TD*%
%TA.AperFunction,Conductor*%
%TO.N,+15V*%
G36*
X33084039Y68243536D02*
G01*
X33091468Y68238536D01*
X33093379Y68231105D01*
X33050887Y67716501D01*
X33046791Y67708538D01*
X33039227Y67705764D01*
X32560773Y67705764D01*
X32552500Y67709191D01*
X32549113Y67716501D01*
X32506620Y68231105D01*
X32509354Y68239632D01*
X32515959Y68243536D01*
X32797682Y68300531D01*
X32802318Y68300531D01*
X33084039Y68243536D01*
G37*
%TD.AperFunction*%
%TD*%
%TA.AperFunction,Conductor*%
%TO.N,VIN+*%
G36*
X12321539Y41943536D02*
G01*
X12328968Y41938536D01*
X12330879Y41931105D01*
X12288387Y41416501D01*
X12284291Y41408538D01*
X12276727Y41405764D01*
X11798273Y41405764D01*
X11790000Y41409191D01*
X11786613Y41416501D01*
X11744120Y41931105D01*
X11746854Y41939632D01*
X11753459Y41943536D01*
X12035182Y42000531D01*
X12039818Y42000531D01*
X12321539Y41943536D01*
G37*
%TD.AperFunction*%
%TD*%
%TA.AperFunction,Conductor*%
%TO.N,VOUT+*%
G36*
X89727842Y9407343D02*
G01*
X89996630Y9006516D01*
X89998392Y8997737D01*
X89996630Y8993484D01*
X89727842Y8592658D01*
X89720388Y8587695D01*
X89713092Y8588612D01*
X89016274Y8920624D01*
X89010280Y8927276D01*
X89009607Y8931186D01*
X89009607Y9068815D01*
X89013034Y9077088D01*
X89016272Y9079376D01*
X89713093Y9411390D01*
X89722035Y9411854D01*
X89727842Y9407343D01*
G37*
%TD.AperFunction*%
%TD*%
%TA.AperFunction,Conductor*%
%TO.N,VIN-*%
G36*
X31267379Y76586573D02*
G01*
X31270776Y76579134D01*
X31299492Y76177107D01*
X31296664Y76168610D01*
X31293920Y76166288D01*
X31026098Y76002725D01*
X31017251Y76001337D01*
X31013902Y76002725D01*
X30746079Y76166288D01*
X30740804Y76173524D01*
X30740507Y76177103D01*
X30769224Y76579134D01*
X30773231Y76587142D01*
X30780894Y76590000D01*
X31259106Y76590000D01*
X31267379Y76586573D01*
G37*
%TD.AperFunction*%
%TD*%
%TA.AperFunction,Conductor*%
%TO.N,VIN-*%
G36*
X35921539Y8943536D02*
G01*
X35928968Y8938536D01*
X35930879Y8931105D01*
X35888387Y8416501D01*
X35884291Y8408538D01*
X35876727Y8405764D01*
X35398273Y8405764D01*
X35390000Y8409191D01*
X35386613Y8416501D01*
X35344120Y8931105D01*
X35346854Y8939632D01*
X35353459Y8943536D01*
X35635182Y9000531D01*
X35639818Y9000531D01*
X35921539Y8943536D01*
G37*
%TD.AperFunction*%
%TD*%
%TA.AperFunction,Conductor*%
%TO.N,VIN-*%
G36*
X36589593Y8301157D02*
G01*
X36597436Y8296838D01*
X36600000Y8289529D01*
X36600000Y7810472D01*
X36596573Y7802199D01*
X36589592Y7798844D01*
X36153849Y7750428D01*
X36146655Y7751954D01*
X36064416Y7800000D01*
X35653790Y8039899D01*
X35648376Y8047030D01*
X35649591Y8055902D01*
X35653791Y8060102D01*
X36146658Y8348048D01*
X36153846Y8349573D01*
X36589593Y8301157D01*
G37*
%TD.AperFunction*%
%TD*%
%TA.AperFunction,Conductor*%
%TO.N,VIN-*%
G36*
X27255702Y4265327D02*
G01*
X27494065Y4130361D01*
X27499576Y4123303D01*
X27500000Y4120180D01*
X27500000Y3879821D01*
X27496573Y3871548D01*
X27494065Y3869640D01*
X27255703Y3734675D01*
X27246815Y3733580D01*
X27241168Y3737111D01*
X27122441Y3871548D01*
X27015838Y3992257D01*
X27012931Y4000725D01*
X27015838Y4007744D01*
X27241169Y4262891D01*
X27249213Y4266823D01*
X27255702Y4265327D01*
G37*
%TD.AperFunction*%
%TD*%
%TA.AperFunction,Conductor*%
%TO.N,+12V*%
G36*
X33899281Y77485990D02*
G01*
X33904741Y77478892D01*
X33904914Y77478155D01*
X34000536Y77002305D01*
X34000536Y76997695D01*
X33904914Y76521846D01*
X33899924Y76514410D01*
X33891138Y76512680D01*
X33890401Y76512853D01*
X33018265Y76747669D01*
X33011167Y76753129D01*
X33009607Y76758967D01*
X33009607Y77241034D01*
X33013034Y77249307D01*
X33018262Y77252331D01*
X33890402Y77487148D01*
X33899281Y77485990D01*
G37*
%TD.AperFunction*%
%TD*%
%TA.AperFunction,Conductor*%
%TO.N,VOUT_REF_DIS*%
G36*
X12801341Y6818680D02*
G01*
X12967057Y6653515D01*
X13087685Y6533287D01*
X13091126Y6525019D01*
X13087713Y6516741D01*
X13087685Y6516713D01*
X12801344Y6231323D01*
X12793066Y6227910D01*
X12787240Y6229475D01*
X12500855Y6394624D01*
X12495400Y6401725D01*
X12495000Y6404759D01*
X12495000Y6645242D01*
X12498427Y6653515D01*
X12500851Y6655375D01*
X12787242Y6820527D01*
X12796119Y6821691D01*
X12801341Y6818680D01*
G37*
%TD.AperFunction*%
%TD*%
%TA.AperFunction,Conductor*%
%TO.N,VIN-*%
G36*
X89964593Y73201157D02*
G01*
X89972436Y73196838D01*
X89975000Y73189529D01*
X89975000Y72710472D01*
X89971573Y72702199D01*
X89964592Y72698844D01*
X89528484Y72650388D01*
X89521878Y72651592D01*
X88956948Y72939576D01*
X88951134Y72946387D01*
X88951838Y72955314D01*
X88956948Y72960424D01*
X89521879Y73248410D01*
X89528483Y73249613D01*
X89964593Y73201157D01*
G37*
%TD.AperFunction*%
%TD*%
%TA.AperFunction,Conductor*%
%TO.N,/VOUT_REF_PRE*%
G36*
X41211042Y76275620D02*
G01*
X41493651Y76130266D01*
X41499441Y76123435D01*
X41500000Y76119862D01*
X41500000Y75880139D01*
X41496573Y75871866D01*
X41493651Y75869735D01*
X41211043Y75724382D01*
X41202119Y75723645D01*
X41196548Y75727487D01*
X41082991Y75869735D01*
X40984825Y75992703D01*
X40982343Y76001304D01*
X40984825Y76007297D01*
X41196549Y76272515D01*
X41204388Y76276842D01*
X41211042Y76275620D01*
G37*
%TD.AperFunction*%
%TD*%
%TA.AperFunction,Conductor*%
%TO.N,/Comparator/VIN_REF_H*%
G36*
X14803156Y4272884D02*
G01*
X15015173Y4007299D01*
X15017656Y3998696D01*
X15015173Y3992701D01*
X14803156Y3727117D01*
X14795316Y3722789D01*
X14789181Y3723760D01*
X14781776Y3727117D01*
X14466869Y3869886D01*
X14460749Y3876423D01*
X14460000Y3880542D01*
X14460000Y4119459D01*
X14463427Y4127732D01*
X14466865Y4130113D01*
X14789183Y4276242D01*
X14798131Y4276536D01*
X14803156Y4272884D01*
G37*
%TD.AperFunction*%
%TD*%
%TA.AperFunction,Conductor*%
%TO.N,Net-(D5-K)*%
G36*
X41518306Y51981694D02*
G01*
X41981694Y51518306D01*
X42000000Y51474112D01*
X42000000Y50025888D01*
X41981694Y49981694D01*
X41518306Y49518306D01*
X41474112Y49500000D01*
X34025888Y49500000D01*
X33981694Y49518306D01*
X33518306Y49981694D01*
X33500000Y50025888D01*
X33500000Y51474112D01*
X33518306Y51518306D01*
X33981694Y51981694D01*
X34025888Y52000000D01*
X41474112Y52000000D01*
X41518306Y51981694D01*
G37*
%TD.AperFunction*%
%TD*%
%TA.AperFunction,Conductor*%
%TO.N,/Comparator/R*%
G36*
X20898313Y14485008D02*
G01*
X20904606Y14478637D01*
X20905240Y14476531D01*
X21000536Y14002305D01*
X21000536Y13997695D01*
X20905240Y13523470D01*
X20900250Y13516034D01*
X20891464Y13514304D01*
X20889358Y13514938D01*
X20016896Y13870034D01*
X20010525Y13876327D01*
X20009607Y13880871D01*
X20009607Y14119130D01*
X20013034Y14127403D01*
X20016894Y14129967D01*
X20889359Y14485063D01*
X20898313Y14485008D01*
G37*
%TD.AperFunction*%
%TD*%
%TA.AperFunction,Conductor*%
%TO.N,+15V*%
G36*
X32808264Y69712722D02*
G01*
X33393633Y69126378D01*
X33397053Y69118102D01*
X33395459Y69112217D01*
X33053386Y68525805D01*
X33046258Y68520385D01*
X33043280Y68520000D01*
X32556720Y68520000D01*
X32548447Y68523427D01*
X32546614Y68525805D01*
X32204540Y69112217D01*
X32203331Y69121090D01*
X32206364Y69126375D01*
X32791721Y69712708D01*
X32799990Y69716141D01*
X32808264Y69712722D01*
G37*
%TD.AperFunction*%
%TD*%
%TA.AperFunction,Conductor*%
%TO.N,+12V*%
G36*
X32261286Y76112805D02*
G01*
X32265511Y76109792D01*
X32598432Y75736022D01*
X32601376Y75727566D01*
X32597968Y75719968D01*
X32259992Y75381992D01*
X32251719Y75378565D01*
X32243983Y75381488D01*
X31899499Y75685170D01*
X31895559Y75693212D01*
X31895953Y75697044D01*
X31977772Y75995168D01*
X31983265Y76002236D01*
X31984602Y76002888D01*
X32252334Y76112832D01*
X32261286Y76112805D01*
G37*
%TD.AperFunction*%
%TD*%
%TA.AperFunction,Conductor*%
%TO.N,VIN-*%
G36*
X55044236Y50558527D02*
G01*
X54750000Y50499000D01*
X54455764Y50558527D01*
X54500000Y51094236D01*
X55000000Y51094236D01*
X55044236Y50558527D01*
G37*
%TD.AperFunction*%
%TD*%
%TA.AperFunction,Conductor*%
%TO.N,VIN-*%
G36*
X3570902Y25290373D02*
G01*
X4086023Y25129564D01*
X4092899Y25123828D01*
X4094236Y25118396D01*
X4094236Y24881605D01*
X4090809Y24873332D01*
X4086023Y24870437D01*
X3570909Y24709630D01*
X3561990Y24710435D01*
X3556254Y24717311D01*
X3555957Y24718463D01*
X3499469Y24997682D01*
X3499469Y25002320D01*
X3555955Y25281526D01*
X3560954Y25288952D01*
X3569742Y25290671D01*
X3570902Y25290373D01*
G37*
%TD.AperFunction*%
%TD*%
%TA.AperFunction,Conductor*%
%TO.N,+12V*%
G36*
X14268306Y22731694D02*
G01*
X14481694Y22518306D01*
X14500000Y22474112D01*
X14500000Y21025888D01*
X14481694Y20981694D01*
X14268306Y20768306D01*
X14224112Y20750000D01*
X10775888Y20750000D01*
X10731694Y20768306D01*
X10518306Y20981694D01*
X10500000Y21025888D01*
X10500000Y22474112D01*
X10518306Y22518306D01*
X10731694Y22731694D01*
X10775888Y22750000D01*
X14224112Y22750000D01*
X14268306Y22731694D01*
G37*
%TD.AperFunction*%
%TD*%
%TA.AperFunction,Conductor*%
%TO.N,Net-(D10-A)*%
G36*
X7258372Y14263410D02*
G01*
X7484160Y14007745D01*
X7487068Y13999275D01*
X7484160Y13992255D01*
X7258372Y13736591D01*
X7250327Y13732658D01*
X7244602Y13733758D01*
X6956700Y13869834D01*
X6950685Y13876468D01*
X6950000Y13880412D01*
X6950000Y14119589D01*
X6953427Y14127862D01*
X6956698Y14130167D01*
X7244603Y14266244D01*
X7253546Y14266680D01*
X7258372Y14263410D01*
G37*
%TD.AperFunction*%
%TD*%
%TA.AperFunction,Conductor*%
%TO.N,/Comparator/VIN_REF_L*%
G36*
X43859592Y35487150D02*
G01*
X44731736Y35252331D01*
X44738833Y35246872D01*
X44740393Y35241034D01*
X44740393Y34758967D01*
X44736966Y34750694D01*
X44731735Y34747669D01*
X43859598Y34512853D01*
X43850718Y34514011D01*
X43845258Y34521109D01*
X43845088Y34521830D01*
X43749463Y34997696D01*
X43749463Y35002305D01*
X43798609Y35246872D01*
X43845086Y35478157D01*
X43850075Y35485591D01*
X43858861Y35487321D01*
X43859592Y35487150D01*
G37*
%TD.AperFunction*%
%TD*%
%TA.AperFunction,Conductor*%
%TO.N,/DIS*%
G36*
X33370758Y8042715D02*
G01*
X33656177Y7756344D01*
X33659590Y7748067D01*
X33658026Y7742243D01*
X33492875Y7455855D01*
X33485775Y7450400D01*
X33482741Y7450000D01*
X33242259Y7450000D01*
X33233986Y7453427D01*
X33232124Y7455855D01*
X33066974Y7742241D01*
X33065809Y7751120D01*
X33068819Y7756341D01*
X33354214Y8042687D01*
X33362481Y8046127D01*
X33370758Y8042715D01*
G37*
%TD.AperFunction*%
%TD*%
%TA.AperFunction,Conductor*%
%TO.N,Net-(R13-Pad2)*%
G36*
X26582804Y40607882D02*
G01*
X27181759Y40253398D01*
X27187133Y40246235D01*
X27187500Y40243329D01*
X27187500Y39756672D01*
X27184073Y39748399D01*
X27181759Y39746603D01*
X26582805Y39392120D01*
X26573940Y39390856D01*
X26568581Y39393909D01*
X25969792Y39991721D01*
X25966359Y39999990D01*
X25969779Y40008266D01*
X26568582Y40606094D01*
X26576856Y40609512D01*
X26582804Y40607882D01*
G37*
%TD.AperFunction*%
%TD*%
%TA.AperFunction,Conductor*%
%TO.N,VIN-*%
G36*
X21518306Y17731694D02*
G01*
X21731694Y17518306D01*
X21750000Y17474112D01*
X21750000Y15525888D01*
X21731694Y15481694D01*
X21518306Y15268306D01*
X21474112Y15250000D01*
X19525888Y15250000D01*
X19481694Y15268306D01*
X19268306Y15481694D01*
X19250000Y15525888D01*
X19250000Y17474112D01*
X19268306Y17518306D01*
X19481694Y17731694D01*
X19525888Y17750000D01*
X21474112Y17750000D01*
X21518306Y17731694D01*
G37*
%TD.AperFunction*%
%TD*%
%TA.AperFunction,Conductor*%
%TO.N,VIN-*%
G36*
X16211042Y4275620D02*
G01*
X16493651Y4130266D01*
X16499441Y4123435D01*
X16500000Y4119862D01*
X16500000Y3880139D01*
X16496573Y3871866D01*
X16493651Y3869735D01*
X16211043Y3724382D01*
X16202119Y3723645D01*
X16196548Y3727487D01*
X16082991Y3869735D01*
X15984825Y3992703D01*
X15982343Y4001304D01*
X15984825Y4007297D01*
X16196549Y4272515D01*
X16204388Y4276842D01*
X16211042Y4275620D01*
G37*
%TD.AperFunction*%
%TD*%
%TA.AperFunction,Conductor*%
%TO.N,VIN-*%
G36*
X35885862Y8646573D02*
G01*
X35889130Y8640223D01*
X35936512Y8355927D01*
X35934492Y8347203D01*
X35933258Y8345745D01*
X35645787Y8057315D01*
X35637519Y8053874D01*
X35629241Y8057287D01*
X35629213Y8057315D01*
X35341741Y8345745D01*
X35338328Y8354023D01*
X35338486Y8355917D01*
X35385870Y8640225D01*
X35390611Y8647821D01*
X35397411Y8650000D01*
X35877589Y8650000D01*
X35885862Y8646573D01*
G37*
%TD.AperFunction*%
%TD*%
%TA.AperFunction,Conductor*%
%TO.N,VIN-*%
G36*
X37583499Y8300887D02*
G01*
X37591462Y8296791D01*
X37594236Y8289227D01*
X37594236Y7810774D01*
X37590809Y7802501D01*
X37583499Y7799114D01*
X37068895Y7756621D01*
X37060368Y7759355D01*
X37056464Y7765961D01*
X36999469Y8047680D01*
X36999469Y8052320D01*
X37049578Y8300000D01*
X37056464Y8334041D01*
X37061464Y8341469D01*
X37068894Y8343380D01*
X37583499Y8300887D01*
G37*
%TD.AperFunction*%
%TD*%
%TA.AperFunction,Conductor*%
%TO.N,VIN-*%
G36*
X40146669Y75590809D02*
G01*
X40149564Y75586023D01*
X40310370Y75070910D01*
X40309565Y75061991D01*
X40302689Y75056255D01*
X40301522Y75055955D01*
X40022320Y74999470D01*
X40017680Y74999470D01*
X39738477Y75055955D01*
X39731048Y75060955D01*
X39729329Y75069743D01*
X39729625Y75070898D01*
X39890436Y75586024D01*
X39896172Y75592899D01*
X39901604Y75594236D01*
X40138396Y75594236D01*
X40146669Y75590809D01*
G37*
%TD.AperFunction*%
%TD*%
%TA.AperFunction,Conductor*%
%TO.N,/DIS*%
G36*
X8517898Y13993773D02*
G01*
X8763887Y13768679D01*
X8767678Y13760565D01*
X8766942Y13755933D01*
X8639850Y13417586D01*
X8633733Y13411046D01*
X8628897Y13410000D01*
X8391103Y13410000D01*
X8382830Y13413427D01*
X8380150Y13417586D01*
X8253057Y13755935D01*
X8253356Y13764883D01*
X8256110Y13768677D01*
X8502102Y13993774D01*
X8510518Y13996830D01*
X8517898Y13993773D01*
G37*
%TD.AperFunction*%
%TD*%
%TA.AperFunction,Conductor*%
%TO.N,Net-(D8-A)*%
G36*
X7258372Y19763410D02*
G01*
X7484160Y19507745D01*
X7487068Y19499275D01*
X7484160Y19492255D01*
X7258372Y19236591D01*
X7250327Y19232658D01*
X7244602Y19233758D01*
X6956700Y19369834D01*
X6950685Y19376468D01*
X6950000Y19380412D01*
X6950000Y19619589D01*
X6953427Y19627862D01*
X6956698Y19630167D01*
X7244603Y19766244D01*
X7253546Y19766680D01*
X7258372Y19763410D01*
G37*
%TD.AperFunction*%
%TD*%
%TA.AperFunction,Conductor*%
%TO.N,+15V*%
G36*
X34267379Y12086573D02*
G01*
X34270776Y12079134D01*
X34299492Y11677107D01*
X34296664Y11668610D01*
X34293920Y11666288D01*
X34026098Y11502725D01*
X34017251Y11501337D01*
X34013902Y11502725D01*
X33746079Y11666288D01*
X33740804Y11673524D01*
X33740507Y11677103D01*
X33769224Y12079134D01*
X33773231Y12087142D01*
X33780894Y12090000D01*
X34259106Y12090000D01*
X34267379Y12086573D01*
G37*
%TD.AperFunction*%
%TD*%
%TA.AperFunction,Conductor*%
%TO.N,Net-(R23-Pad1)*%
G36*
X14107704Y45558220D02*
G01*
X14656482Y45253343D01*
X14662050Y45246330D01*
X14662500Y45243116D01*
X14662500Y44756885D01*
X14659073Y44748612D01*
X14656482Y44746657D01*
X14107707Y44441782D01*
X14098811Y44440760D01*
X14093759Y44443730D01*
X13780047Y44756885D01*
X13544793Y44991722D01*
X13541360Y44999990D01*
X13544779Y45008265D01*
X14093760Y45556272D01*
X14102035Y45559691D01*
X14107704Y45558220D01*
G37*
%TD.AperFunction*%
%TD*%
%TA.AperFunction,Conductor*%
%TO.N,+15V*%
G36*
X35756166Y71158735D02*
G01*
X36089998Y70764808D01*
X36092732Y70756281D01*
X36089345Y70748971D01*
X35751029Y70410655D01*
X35742756Y70407228D01*
X35735192Y70410002D01*
X35341265Y70743834D01*
X35337169Y70751797D01*
X35339079Y70759227D01*
X35497985Y70998737D01*
X35501263Y71002015D01*
X35740773Y71160921D01*
X35749560Y71162639D01*
X35756166Y71158735D01*
G37*
%TD.AperFunction*%
%TD*%
%TA.AperFunction,Conductor*%
%TO.N,/Comparator/VIN_REF_L*%
G36*
X44981240Y35556271D02*
G01*
X45530205Y35008280D01*
X45533639Y35000010D01*
X45530219Y34991734D01*
X45530205Y34991720D01*
X44981240Y34443730D01*
X44972964Y34440310D01*
X44967292Y34441782D01*
X44418518Y34746657D01*
X44412950Y34753671D01*
X44412500Y34756885D01*
X44412500Y35243116D01*
X44415927Y35251389D01*
X44418514Y35253342D01*
X44967294Y35558220D01*
X44976188Y35559241D01*
X44981240Y35556271D01*
G37*
%TD.AperFunction*%
%TD*%
%TA.AperFunction,Conductor*%
%TO.N,+12V*%
G36*
X12000000Y21945028D02*
G01*
X11500000Y21449000D01*
X11000000Y21945028D01*
X11250000Y22250000D01*
X11750000Y22250000D01*
X12000000Y21945028D01*
G37*
%TD.AperFunction*%
%TD*%
%TA.AperFunction,Conductor*%
%TO.N,Net-(R28-Pad1)*%
G36*
X15645433Y6493616D02*
G01*
X15646122Y6491954D01*
X15922243Y5646695D01*
X15921940Y5638609D01*
X15764983Y5257247D01*
X15758666Y5250901D01*
X15754164Y5250000D01*
X15515836Y5250000D01*
X15507563Y5253427D01*
X15505017Y5257247D01*
X15348059Y5638609D01*
X15347756Y5646694D01*
X15623878Y6491955D01*
X15629705Y6498754D01*
X15638633Y6499443D01*
X15645433Y6493616D01*
G37*
%TD.AperFunction*%
%TD*%
%TA.AperFunction,Conductor*%
%TO.N,VIN-*%
G36*
X55018306Y52481694D02*
G01*
X55481694Y52018306D01*
X55500000Y51974112D01*
X55500000Y50025888D01*
X55481694Y49981694D01*
X55018306Y49518306D01*
X54974112Y49500000D01*
X44525888Y49500000D01*
X44481694Y49518306D01*
X44018306Y49981694D01*
X44000000Y50025888D01*
X44000000Y51974112D01*
X44018306Y52018306D01*
X44481694Y52481694D01*
X44525888Y52500000D01*
X54974112Y52500000D01*
X55018306Y52481694D01*
G37*
%TD.AperFunction*%
%TD*%
%TA.AperFunction,Conductor*%
%TO.N,Net-(R38-Pad2)*%
G36*
X27431417Y35606093D02*
G01*
X27747352Y35290674D01*
X28030206Y35008280D01*
X28033640Y35000010D01*
X28030220Y34991734D01*
X28030206Y34991720D01*
X27431419Y34393909D01*
X27423143Y34390489D01*
X27417194Y34392120D01*
X26818241Y34746603D01*
X26812867Y34753766D01*
X26812500Y34756672D01*
X26812500Y35243329D01*
X26815927Y35251602D01*
X26818241Y35253398D01*
X27417195Y35607882D01*
X27426059Y35609145D01*
X27431417Y35606093D01*
G37*
%TD.AperFunction*%
%TD*%
%TA.AperFunction,Conductor*%
%TO.N,+12V*%
G36*
X80536011Y76097392D02*
G01*
X80542175Y76091427D01*
X81418028Y74164552D01*
X81418332Y74155603D01*
X81415650Y74151438D01*
X81073562Y73809350D01*
X81065289Y73805923D01*
X81060449Y73806972D01*
X80290013Y74157170D01*
X79133573Y74682825D01*
X79127459Y74689368D01*
X79127600Y74697943D01*
X79534938Y75683720D01*
X79541259Y75690053D01*
X80527057Y76097399D01*
X80536011Y76097392D01*
G37*
%TD.AperFunction*%
%TD*%
%TA.AperFunction,Conductor*%
%TO.N,/Comparator/R*%
G36*
X19755396Y14266244D02*
G01*
X20043300Y14130167D01*
X20049315Y14123533D01*
X20050000Y14119589D01*
X20050000Y13880412D01*
X20046573Y13872139D01*
X20043300Y13869834D01*
X19755397Y13733758D01*
X19746453Y13733321D01*
X19741627Y13736591D01*
X19515838Y13992257D01*
X19512931Y14000725D01*
X19515838Y14007744D01*
X19741628Y14263411D01*
X19749672Y14267343D01*
X19755396Y14266244D01*
G37*
%TD.AperFunction*%
%TD*%
%TA.AperFunction,Conductor*%
%TO.N,VIN-*%
G36*
X35747694Y72996573D02*
G01*
X35751062Y72989474D01*
X35779360Y72708867D01*
X35776781Y72700292D01*
X35775018Y72698549D01*
X35507299Y72484827D01*
X35498696Y72482344D01*
X35492701Y72484827D01*
X35224981Y72698549D01*
X35220653Y72706389D01*
X35220639Y72708862D01*
X35248938Y72989476D01*
X35253178Y72997362D01*
X35260579Y73000000D01*
X35739421Y73000000D01*
X35747694Y72996573D01*
G37*
%TD.AperFunction*%
%TD*%
%TA.AperFunction,Conductor*%
%TO.N,Net-(R23-Pad1)*%
G36*
X23247500Y35590809D02*
G01*
X23250887Y35583499D01*
X23293379Y35068896D01*
X23290645Y35060369D01*
X23284039Y35056465D01*
X23002320Y34999470D01*
X22997680Y34999470D01*
X22715960Y35056465D01*
X22708531Y35061465D01*
X22706620Y35068896D01*
X22749113Y35583499D01*
X22753209Y35591462D01*
X22760773Y35594236D01*
X23239227Y35594236D01*
X23247500Y35590809D01*
G37*
%TD.AperFunction*%
%TD*%
%TA.AperFunction,Conductor*%
%TO.N,Net-(R31-Pad2)*%
G36*
X18582804Y30607882D02*
G01*
X19181759Y30253398D01*
X19187133Y30246235D01*
X19187500Y30243329D01*
X19187500Y29756672D01*
X19184073Y29748399D01*
X19181759Y29746603D01*
X18582805Y29392120D01*
X18573940Y29390856D01*
X18568581Y29393909D01*
X17969792Y29991721D01*
X17966359Y29999990D01*
X17969779Y30008266D01*
X18568582Y30606094D01*
X18576856Y30609512D01*
X18582804Y30607882D01*
G37*
%TD.AperFunction*%
%TD*%
%TA.AperFunction,Conductor*%
%TO.N,VIN-*%
G36*
X24565308Y8424088D02*
G01*
X24967813Y8293283D01*
X25066760Y8261127D01*
X25073569Y8255311D01*
X25074271Y8246384D01*
X25068455Y8239575D01*
X25066760Y8238873D01*
X24565312Y8075914D01*
X24559591Y8075532D01*
X24309595Y8121246D01*
X24302074Y8126105D01*
X24300000Y8132755D01*
X24300000Y8367246D01*
X24303427Y8375519D01*
X24309593Y8378755D01*
X24559594Y8424469D01*
X24565308Y8424088D01*
G37*
%TD.AperFunction*%
%TD*%
%TA.AperFunction,Conductor*%
%TO.N,+5V*%
G36*
X28898313Y11985008D02*
G01*
X28904606Y11978637D01*
X28905240Y11976531D01*
X29000536Y11502305D01*
X29000536Y11497695D01*
X28905240Y11023470D01*
X28900250Y11016034D01*
X28891464Y11014304D01*
X28889358Y11014938D01*
X28016896Y11370034D01*
X28010525Y11376327D01*
X28009607Y11380871D01*
X28009607Y11619130D01*
X28013034Y11627403D01*
X28016894Y11629967D01*
X28889359Y11985063D01*
X28898313Y11985008D01*
G37*
%TD.AperFunction*%
%TD*%
%TA.AperFunction,Conductor*%
%TO.N,Net-(U6-FB)*%
G36*
X18744064Y21766944D02*
G01*
X19082414Y21639850D01*
X19088954Y21633733D01*
X19090000Y21628897D01*
X19090000Y21391104D01*
X19086573Y21382831D01*
X19082414Y21380151D01*
X18744067Y21253058D01*
X18735117Y21253357D01*
X18731321Y21256113D01*
X18506227Y21502102D01*
X18503170Y21510518D01*
X18506227Y21517898D01*
X18607797Y21628897D01*
X18731322Y21763889D01*
X18739435Y21767679D01*
X18744064Y21766944D01*
G37*
%TD.AperFunction*%
%TD*%
%TA.AperFunction,Conductor*%
%TO.N,VIN-*%
G36*
X89939631Y73240646D02*
G01*
X89943535Y73234040D01*
X90000530Y72952320D01*
X90000530Y72947680D01*
X89943535Y72665961D01*
X89938535Y72658532D01*
X89931104Y72656621D01*
X89416501Y72699114D01*
X89408538Y72703210D01*
X89405764Y72710774D01*
X89405764Y73189227D01*
X89409191Y73197500D01*
X89416499Y73200887D01*
X89931104Y73243380D01*
X89939631Y73240646D01*
G37*
%TD.AperFunction*%
%TD*%
%TA.AperFunction,Conductor*%
%TO.N,/DIS*%
G36*
X33433402Y6790373D02*
G01*
X33948523Y6629564D01*
X33955399Y6623828D01*
X33956736Y6618396D01*
X33956736Y6381605D01*
X33953309Y6373332D01*
X33948523Y6370437D01*
X33433409Y6209630D01*
X33424490Y6210435D01*
X33418754Y6217311D01*
X33418457Y6218463D01*
X33361969Y6497682D01*
X33361969Y6502320D01*
X33418455Y6781526D01*
X33423454Y6788952D01*
X33432242Y6790671D01*
X33433402Y6790373D01*
G37*
%TD.AperFunction*%
%TD*%
%TA.AperFunction,Conductor*%
%TO.N,VIN+*%
G36*
X5506513Y79996632D02*
G01*
X5793589Y79804125D01*
X5907342Y79727843D01*
X5912305Y79720389D01*
X5911388Y79713093D01*
X5579377Y79016274D01*
X5572725Y79010280D01*
X5568815Y79009607D01*
X5431185Y79009607D01*
X5422912Y79013034D01*
X5420623Y79016274D01*
X5088611Y79713093D01*
X5088146Y79722036D01*
X5092656Y79727843D01*
X5493485Y79996632D01*
X5502263Y79998393D01*
X5506513Y79996632D01*
G37*
%TD.AperFunction*%
%TD*%
%TA.AperFunction,Conductor*%
%TO.N,Net-(Q1-G)*%
G36*
X89939631Y71340646D02*
G01*
X89943535Y71334040D01*
X90000530Y71052320D01*
X90000530Y71047680D01*
X89943535Y70765961D01*
X89938535Y70758532D01*
X89931104Y70756621D01*
X89416501Y70799114D01*
X89408538Y70803210D01*
X89405764Y70810774D01*
X89405764Y71289227D01*
X89409191Y71297500D01*
X89416499Y71300887D01*
X89931104Y71343380D01*
X89939631Y71340646D01*
G37*
%TD.AperFunction*%
%TD*%
%TA.AperFunction,Conductor*%
%TO.N,+12V*%
G36*
X8637170Y20086573D02*
G01*
X8639850Y20082414D01*
X8766942Y19744068D01*
X8766643Y19735118D01*
X8763887Y19731322D01*
X8517898Y19506228D01*
X8509482Y19503171D01*
X8502102Y19506228D01*
X8256112Y19731322D01*
X8252321Y19739436D01*
X8253056Y19744064D01*
X8380150Y20082415D01*
X8386267Y20088954D01*
X8391103Y20090000D01*
X8628897Y20090000D01*
X8637170Y20086573D01*
G37*
%TD.AperFunction*%
%TD*%
%TA.AperFunction,Conductor*%
%TO.N,/VIN_REF*%
G36*
X44981240Y40556271D02*
G01*
X45530205Y40008280D01*
X45533639Y40000010D01*
X45530219Y39991734D01*
X45530205Y39991720D01*
X44981240Y39443730D01*
X44972964Y39440310D01*
X44967292Y39441782D01*
X44418518Y39746657D01*
X44412950Y39753671D01*
X44412500Y39756885D01*
X44412500Y40243116D01*
X44415927Y40251389D01*
X44418514Y40253342D01*
X44967294Y40558220D01*
X44976188Y40559241D01*
X44981240Y40556271D01*
G37*
%TD.AperFunction*%
%TD*%
%TA.AperFunction,Conductor*%
%TO.N,Net-(D9-A)*%
G36*
X7258372Y25263410D02*
G01*
X7484160Y25007745D01*
X7487068Y24999275D01*
X7484160Y24992255D01*
X7258372Y24736591D01*
X7250327Y24732658D01*
X7244602Y24733758D01*
X6956700Y24869834D01*
X6950685Y24876468D01*
X6950000Y24880412D01*
X6950000Y25119589D01*
X6953427Y25127862D01*
X6956698Y25130167D01*
X7244603Y25266244D01*
X7253546Y25266680D01*
X7258372Y25263410D01*
G37*
%TD.AperFunction*%
%TD*%
%TA.AperFunction,Conductor*%
%TO.N,/PRE*%
G36*
X9938009Y25289566D02*
G01*
X9943745Y25282690D01*
X9944045Y25281523D01*
X10000530Y25002320D01*
X10000530Y24997680D01*
X9944045Y24718478D01*
X9939045Y24711049D01*
X9930257Y24709330D01*
X9929090Y24709630D01*
X9413977Y24870437D01*
X9407101Y24876173D01*
X9405764Y24881605D01*
X9405764Y25118396D01*
X9409191Y25126669D01*
X9413977Y25129564D01*
X9929091Y25290371D01*
X9938009Y25289566D01*
G37*
%TD.AperFunction*%
%TD*%
%TA.AperFunction,Conductor*%
%TO.N,Net-(R14-Pad2)*%
G36*
X34582804Y45607882D02*
G01*
X35181759Y45253398D01*
X35187133Y45246235D01*
X35187500Y45243329D01*
X35187500Y44756672D01*
X35184073Y44748399D01*
X35181759Y44746603D01*
X34582805Y44392120D01*
X34573940Y44390856D01*
X34568581Y44393909D01*
X33969792Y44991721D01*
X33966359Y44999990D01*
X33969779Y45008266D01*
X34568582Y45606094D01*
X34576856Y45609512D01*
X34582804Y45607882D01*
G37*
%TD.AperFunction*%
%TD*%
%TA.AperFunction,Conductor*%
%TO.N,Net-(D5-A)*%
G36*
X33967408Y55024257D02*
G01*
X34405888Y54717123D01*
X34488915Y54658967D01*
X34493726Y54651414D01*
X34491786Y54642672D01*
X34490211Y54640854D01*
X34043545Y54221493D01*
X34035168Y54218329D01*
X34032707Y54218670D01*
X33723857Y54295663D01*
X33718414Y54298743D01*
X33308307Y54708850D01*
X33304880Y54717123D01*
X33308307Y54725396D01*
X33311671Y54727743D01*
X33955794Y55025294D01*
X33964740Y55025652D01*
X33967408Y55024257D01*
G37*
%TD.AperFunction*%
%TD*%
%TA.AperFunction,Conductor*%
%TO.N,/DIS*%
G36*
X28690406Y8378755D02*
G01*
X28697926Y8373896D01*
X28700000Y8367246D01*
X28700000Y8132755D01*
X28696573Y8124482D01*
X28690405Y8121246D01*
X28440408Y8075532D01*
X28434687Y8075914D01*
X28285236Y8124482D01*
X27933238Y8238874D01*
X27926430Y8244689D01*
X27925728Y8253616D01*
X27931544Y8260425D01*
X27933239Y8261127D01*
X28434691Y8424088D01*
X28440405Y8424469D01*
X28690406Y8378755D01*
G37*
%TD.AperFunction*%
%TD*%
%TA.AperFunction,Conductor*%
%TO.N,Net-(R32-Pad2)*%
G36*
X27431417Y30606093D02*
G01*
X27747352Y30290674D01*
X28030206Y30008280D01*
X28033640Y30000010D01*
X28030220Y29991734D01*
X28030206Y29991720D01*
X27431419Y29393909D01*
X27423143Y29390489D01*
X27417194Y29392120D01*
X26818241Y29746603D01*
X26812867Y29753766D01*
X26812500Y29756672D01*
X26812500Y30243329D01*
X26815927Y30251602D01*
X26818241Y30253398D01*
X27417195Y30607882D01*
X27426059Y30609145D01*
X27431417Y30606093D01*
G37*
%TD.AperFunction*%
%TD*%
%TA.AperFunction,Conductor*%
%TO.N,Net-(Q1-G)*%
G36*
X90395252Y71272917D02*
G01*
X90401099Y71269745D01*
X90737338Y70933506D01*
X90740765Y70925233D01*
X90737338Y70916960D01*
X90731740Y70913843D01*
X90070282Y70758525D01*
X90061444Y70759970D01*
X90056217Y70767240D01*
X90056138Y70767601D01*
X89999757Y71046989D01*
X89999756Y71051599D01*
X90056199Y71332648D01*
X90061187Y71340081D01*
X90069972Y71341812D01*
X90395252Y71272917D01*
G37*
%TD.AperFunction*%
%TD*%
%TA.AperFunction,Conductor*%
%TO.N,Net-(Q1-G)*%
G36*
X46833499Y72760887D02*
G01*
X46841462Y72756791D01*
X46844236Y72749227D01*
X46844236Y72270774D01*
X46840809Y72262501D01*
X46833499Y72259114D01*
X46318895Y72216621D01*
X46310368Y72219355D01*
X46306464Y72225961D01*
X46249469Y72507680D01*
X46249469Y72512320D01*
X46299578Y72760000D01*
X46306464Y72794041D01*
X46311464Y72801469D01*
X46318894Y72803380D01*
X46833499Y72760887D01*
G37*
%TD.AperFunction*%
%TD*%
%TA.AperFunction,Conductor*%
%TO.N,/Comparator/VIN_REF_H*%
G36*
X44226530Y29905241D02*
G01*
X44233966Y29900251D01*
X44235696Y29891465D01*
X44235062Y29889359D01*
X43879967Y29016896D01*
X43873674Y29010525D01*
X43869130Y29009607D01*
X43630870Y29009607D01*
X43622597Y29013034D01*
X43620033Y29016896D01*
X43264937Y29889359D01*
X43264992Y29898314D01*
X43271363Y29904607D01*
X43273464Y29905240D01*
X43747696Y30000537D01*
X43752304Y30000537D01*
X44226530Y29905241D01*
G37*
%TD.AperFunction*%
%TD*%
%TA.AperFunction,Conductor*%
%TO.N,VIN-*%
G36*
X46518306Y7481694D02*
G01*
X46981694Y7018306D01*
X47000000Y6974112D01*
X47000000Y4025888D01*
X46981694Y3981694D01*
X46518306Y3518306D01*
X46474112Y3500000D01*
X40525888Y3500000D01*
X40481694Y3518306D01*
X40018306Y3981694D01*
X40000000Y4025888D01*
X40000000Y6974112D01*
X40018306Y7018306D01*
X40481694Y7481694D01*
X40525888Y7500000D01*
X46474112Y7500000D01*
X46518306Y7481694D01*
G37*
%TD.AperFunction*%
%TD*%
%TA.AperFunction,Conductor*%
%TO.N,VIN-*%
G36*
X34439631Y9290646D02*
G01*
X34443535Y9284040D01*
X34500530Y9002320D01*
X34500530Y8997680D01*
X34443535Y8715961D01*
X34438535Y8708532D01*
X34431104Y8706621D01*
X33916501Y8749114D01*
X33908538Y8753210D01*
X33905764Y8760774D01*
X33905764Y9239227D01*
X33909191Y9247500D01*
X33916499Y9250887D01*
X34431104Y9293380D01*
X34439631Y9290646D01*
G37*
%TD.AperFunction*%
%TD*%
%TA.AperFunction,Conductor*%
%TO.N,R_PRECHARGE-*%
G36*
X72018306Y88981694D02*
G01*
X72481694Y88518306D01*
X72500000Y88474112D01*
X72500000Y80525888D01*
X72481694Y80481694D01*
X72018306Y80018306D01*
X71974112Y80000000D01*
X62025888Y80000000D01*
X61981694Y80018306D01*
X61518306Y80481694D01*
X61500000Y80525888D01*
X61500000Y88474112D01*
X61518306Y88518306D01*
X61981694Y88981694D01*
X62025888Y89000000D01*
X71974112Y89000000D01*
X72018306Y88981694D01*
G37*
%TD.AperFunction*%
%TD*%
%TA.AperFunction,Conductor*%
%TO.N,R_PRECHARGE+*%
G36*
X46500000Y81500000D02*
G01*
X45500000Y81500000D01*
X21000000Y81500000D01*
X20000000Y80500000D01*
X20000000Y65025888D01*
X19981694Y64981694D01*
X19018306Y64018306D01*
X18974112Y64000000D01*
X15025888Y64000000D01*
X14981694Y64018306D01*
X14018306Y64981694D01*
X14000000Y65025888D01*
X14000000Y86474112D01*
X14018306Y86518306D01*
X14981694Y87481694D01*
X15025888Y87500000D01*
X45750000Y87500000D01*
X46500000Y87500000D01*
X46500000Y81500000D01*
G37*
%TD.AperFunction*%
%TD*%
%TA.AperFunction,Conductor*%
%TO.N,SW1*%
G36*
X8518306Y44981694D02*
G01*
X8981694Y44518306D01*
X9000000Y44474112D01*
X9000000Y35525888D01*
X8981694Y35481694D01*
X8518306Y35018306D01*
X8474112Y35000000D01*
X2525888Y35000000D01*
X2481694Y35018306D01*
X2018306Y35481694D01*
X2000000Y35525888D01*
X2000000Y44474112D01*
X2018306Y44518306D01*
X2481694Y44981694D01*
X2525888Y45000000D01*
X8474112Y45000000D01*
X8518306Y44981694D01*
G37*
%TD.AperFunction*%
%TD*%
%TA.AperFunction,Conductor*%
%TO.N,VIN-*%
G36*
X29018306Y78481694D02*
G01*
X29981694Y77518306D01*
X30000000Y77474112D01*
X30000000Y63525888D01*
X29981694Y63481694D01*
X29018306Y62518306D01*
X28974112Y62500000D01*
X24025888Y62500000D01*
X23981694Y62518306D01*
X23018306Y63481694D01*
X23000000Y63525888D01*
X23000000Y77474112D01*
X23018306Y77518306D01*
X23981694Y78481694D01*
X24025888Y78500000D01*
X28974112Y78500000D01*
X29018306Y78481694D01*
G37*
%TD.AperFunction*%
%TD*%
%TA.AperFunction,Conductor*%
%TO.N,VOUT+*%
G36*
X87500000Y17000000D02*
G01*
X87500000Y4025888D01*
X87481694Y3981694D01*
X87018306Y3518306D01*
X86974112Y3500000D01*
X77025888Y3500000D01*
X76981694Y3518306D01*
X76518306Y3981694D01*
X76500000Y4025888D01*
X76500000Y17000000D01*
X76500000Y17500000D01*
X87500000Y17500000D01*
X87500000Y17000000D01*
G37*
%TD.AperFunction*%
%TD*%
%TA.AperFunction,Conductor*%
%TO.N,VOUT+*%
G36*
X98018306Y63481694D02*
G01*
X99731194Y61768806D01*
X99749500Y61724612D01*
X99749500Y48068000D01*
X99731194Y48023806D01*
X99687000Y48005500D01*
X92062492Y48005500D01*
X92023123Y48005191D01*
X91709468Y47980504D01*
X91709444Y47980501D01*
X91401362Y47916697D01*
X91401352Y47916695D01*
X91103686Y47814780D01*
X91059417Y47796443D01*
X90987284Y47765228D01*
X90987246Y47765210D01*
X90709196Y47617990D01*
X90451767Y47437068D01*
X90219053Y47225317D01*
X90219044Y47225307D01*
X90014706Y46986060D01*
X90014703Y46986057D01*
X89841960Y46723084D01*
X89841954Y46723073D01*
X89703534Y46440529D01*
X89685199Y46396264D01*
X89670445Y46359837D01*
X89573214Y46060593D01*
X89514258Y45751530D01*
X89514257Y45751525D01*
X89514257Y45751522D01*
X89494500Y45437500D01*
X89494500Y45437491D01*
X89494500Y41062492D01*
X89494809Y41023124D01*
X89519496Y40709469D01*
X89519499Y40709445D01*
X89583303Y40401363D01*
X89583305Y40401353D01*
X89658478Y40181794D01*
X89685224Y40103676D01*
X89703530Y40059482D01*
X89703557Y40059418D01*
X89734772Y39987285D01*
X89734790Y39987247D01*
X89824291Y39818210D01*
X89882010Y39709196D01*
X90062930Y39451770D01*
X90274688Y39219049D01*
X90513944Y39014703D01*
X90776924Y38841956D01*
X90931489Y38766235D01*
X91059471Y38703535D01*
X91059476Y38703533D01*
X91059482Y38703530D01*
X91103676Y38685224D01*
X91140164Y38670445D01*
X91439407Y38573215D01*
X91748478Y38514257D01*
X92062500Y38494500D01*
X92062509Y38494500D01*
X93412744Y38494500D01*
X93440622Y38494802D01*
X93466788Y38495084D01*
X93659021Y38511351D01*
X93780303Y38521612D01*
X93780317Y38521614D01*
X93781395Y38521775D01*
X93798453Y38524304D01*
X93851937Y38532829D01*
X94158173Y38605080D01*
X94206371Y38619702D01*
X94212304Y38621187D01*
X94321438Y38642895D01*
X94327497Y38643794D01*
X94382866Y38649247D01*
X94438233Y38654699D01*
X94444358Y38655000D01*
X94555642Y38655000D01*
X94561768Y38654699D01*
X94672500Y38643794D01*
X94678562Y38642895D01*
X94787690Y38621188D01*
X94793640Y38619698D01*
X94841894Y38605060D01*
X94887695Y38591706D01*
X94893821Y38589919D01*
X95201547Y38524304D01*
X95219690Y38521613D01*
X95231881Y38519940D01*
X95273249Y38514259D01*
X95273253Y38514259D01*
X95273266Y38514257D01*
X95587288Y38494500D01*
X95587298Y38494500D01*
X99687000Y38494500D01*
X99731194Y38476194D01*
X99749500Y38432000D01*
X99749500Y19275388D01*
X99731194Y19231194D01*
X98018306Y17518306D01*
X97974112Y17500000D01*
X60025888Y17500000D01*
X59981694Y17518306D01*
X58018306Y19481694D01*
X58000000Y19525888D01*
X58000000Y24181791D01*
X62777280Y24181791D01*
X62777280Y23818210D01*
X62812916Y23456377D01*
X62883846Y23099782D01*
X62883850Y23099767D01*
X62989394Y22751836D01*
X62989396Y22751831D01*
X62989398Y22751825D01*
X63128532Y22415926D01*
X63299923Y22095274D01*
X63501929Y21792951D01*
X63501932Y21792948D01*
X63732578Y21511905D01*
X63732584Y21511898D01*
X63989677Y21254805D01*
X63989684Y21254799D01*
X64270727Y21024153D01*
X64270730Y21024150D01*
X64270736Y21024146D01*
X64573048Y20822147D01*
X64573050Y20822146D01*
X64573053Y20822144D01*
X64694864Y20757035D01*
X64893704Y20650753D01*
X65229604Y20511619D01*
X65229603Y20511619D01*
X65229606Y20511618D01*
X65229616Y20511614D01*
X65577547Y20406070D01*
X65577556Y20406069D01*
X65577561Y20406067D01*
X65672729Y20387138D01*
X65934149Y20335138D01*
X65934154Y20335138D01*
X65934157Y20335137D01*
X65934155Y20335137D01*
X66118470Y20316984D01*
X66295986Y20299500D01*
X66295990Y20299500D01*
X66659570Y20299500D01*
X66659574Y20299500D01*
X66894789Y20322667D01*
X67021403Y20335137D01*
X67021405Y20335138D01*
X67021411Y20335138D01*
X67378013Y20406070D01*
X67725944Y20511614D01*
X68061856Y20650753D01*
X68382512Y20822147D01*
X68684824Y21024146D01*
X68965881Y21254803D01*
X69222977Y21511899D01*
X69453634Y21792956D01*
X69655633Y22095268D01*
X69827027Y22415924D01*
X69966166Y22751836D01*
X70071710Y23099767D01*
X70142642Y23456369D01*
X70178280Y23818206D01*
X70178280Y24181791D01*
X82777280Y24181791D01*
X82777280Y23818210D01*
X82812916Y23456377D01*
X82883846Y23099782D01*
X82883850Y23099767D01*
X82989394Y22751836D01*
X82989396Y22751831D01*
X82989398Y22751825D01*
X83128532Y22415926D01*
X83299923Y22095274D01*
X83501929Y21792951D01*
X83501932Y21792948D01*
X83732578Y21511905D01*
X83732584Y21511898D01*
X83989677Y21254805D01*
X83989684Y21254799D01*
X84270727Y21024153D01*
X84270730Y21024150D01*
X84270736Y21024146D01*
X84573048Y20822147D01*
X84573050Y20822146D01*
X84573053Y20822144D01*
X84694864Y20757035D01*
X84893704Y20650753D01*
X85229604Y20511619D01*
X85229603Y20511619D01*
X85229606Y20511618D01*
X85229616Y20511614D01*
X85577547Y20406070D01*
X85577556Y20406069D01*
X85577561Y20406067D01*
X85672729Y20387138D01*
X85934149Y20335138D01*
X85934154Y20335138D01*
X85934157Y20335137D01*
X85934155Y20335137D01*
X86118470Y20316984D01*
X86295986Y20299500D01*
X86295990Y20299500D01*
X86659570Y20299500D01*
X86659574Y20299500D01*
X86894789Y20322667D01*
X87021403Y20335137D01*
X87021405Y20335138D01*
X87021411Y20335138D01*
X87378013Y20406070D01*
X87725944Y20511614D01*
X88061856Y20650753D01*
X88382512Y20822147D01*
X88684824Y21024146D01*
X88965881Y21254803D01*
X89222977Y21511899D01*
X89453634Y21792956D01*
X89655633Y22095268D01*
X89827027Y22415924D01*
X89966166Y22751836D01*
X90071710Y23099767D01*
X90142642Y23456369D01*
X90178280Y23818206D01*
X90178280Y24181794D01*
X90142642Y24543631D01*
X90071710Y24900233D01*
X89966166Y25248164D01*
X89827027Y25584076D01*
X89655633Y25904732D01*
X89453634Y26207044D01*
X89453630Y26207050D01*
X89453627Y26207053D01*
X89222981Y26488096D01*
X89222975Y26488103D01*
X88965882Y26745196D01*
X88965875Y26745202D01*
X88684832Y26975848D01*
X88684829Y26975851D01*
X88382506Y27177857D01*
X88061854Y27349248D01*
X87725955Y27488382D01*
X87725956Y27488382D01*
X87725947Y27488385D01*
X87725944Y27488386D01*
X87537167Y27545651D01*
X87378014Y27593930D01*
X87377998Y27593934D01*
X87021402Y27664864D01*
X87021404Y27664864D01*
X86743200Y27692264D01*
X86659574Y27700500D01*
X86295986Y27700500D01*
X86212359Y27692264D01*
X85934156Y27664864D01*
X85577561Y27593934D01*
X85577545Y27593930D01*
X85359139Y27527677D01*
X85229616Y27488386D01*
X85229612Y27488385D01*
X85229604Y27488382D01*
X84893705Y27349248D01*
X84573053Y27177857D01*
X84270730Y26975851D01*
X84270727Y26975848D01*
X83989684Y26745202D01*
X83989677Y26745196D01*
X83732584Y26488103D01*
X83732578Y26488096D01*
X83501932Y26207053D01*
X83501929Y26207050D01*
X83299923Y25904727D01*
X83128532Y25584075D01*
X82989398Y25248176D01*
X82883850Y24900235D01*
X82883846Y24900219D01*
X82812916Y24543624D01*
X82777280Y24181791D01*
X70178280Y24181791D01*
X70178280Y24181794D01*
X70142642Y24543631D01*
X70071710Y24900233D01*
X69966166Y25248164D01*
X69827027Y25584076D01*
X69655633Y25904732D01*
X69453634Y26207044D01*
X69453630Y26207050D01*
X69453627Y26207053D01*
X69222981Y26488096D01*
X69222975Y26488103D01*
X68965882Y26745196D01*
X68965875Y26745202D01*
X68684832Y26975848D01*
X68684829Y26975851D01*
X68382506Y27177857D01*
X68061854Y27349248D01*
X67725955Y27488382D01*
X67725956Y27488382D01*
X67725947Y27488385D01*
X67725944Y27488386D01*
X67537167Y27545651D01*
X67378014Y27593930D01*
X67377998Y27593934D01*
X67021402Y27664864D01*
X67021404Y27664864D01*
X66743200Y27692264D01*
X66659574Y27700500D01*
X66295986Y27700500D01*
X66212359Y27692264D01*
X65934156Y27664864D01*
X65577561Y27593934D01*
X65577545Y27593930D01*
X65359139Y27527677D01*
X65229616Y27488386D01*
X65229612Y27488385D01*
X65229604Y27488382D01*
X64893705Y27349248D01*
X64573053Y27177857D01*
X64270730Y26975851D01*
X64270727Y26975848D01*
X63989684Y26745202D01*
X63989677Y26745196D01*
X63732584Y26488103D01*
X63732578Y26488096D01*
X63501932Y26207053D01*
X63501929Y26207050D01*
X63299923Y25904727D01*
X63128532Y25584075D01*
X62989398Y25248176D01*
X62883850Y24900235D01*
X62883846Y24900219D01*
X62812916Y24543624D01*
X62777280Y24181791D01*
X58000000Y24181791D01*
X58000000Y36583371D01*
X58018306Y36627565D01*
X58038579Y36641112D01*
X58061856Y36650753D01*
X58382512Y36822147D01*
X58684824Y37024146D01*
X58965881Y37254803D01*
X59222977Y37511899D01*
X59453634Y37792956D01*
X59655633Y38095268D01*
X59827027Y38415924D01*
X59966166Y38751836D01*
X60071710Y39099767D01*
X60142642Y39456369D01*
X60178280Y39818206D01*
X60178280Y40181791D01*
X72777280Y40181791D01*
X72777280Y39818210D01*
X72812916Y39456377D01*
X72883846Y39099782D01*
X72883850Y39099767D01*
X72989394Y38751836D01*
X72989396Y38751831D01*
X72989398Y38751825D01*
X73128532Y38415926D01*
X73299923Y38095274D01*
X73501929Y37792951D01*
X73501932Y37792948D01*
X73732578Y37511905D01*
X73732584Y37511898D01*
X73989677Y37254805D01*
X73989684Y37254799D01*
X74270727Y37024153D01*
X74270730Y37024150D01*
X74270736Y37024146D01*
X74573048Y36822147D01*
X74573050Y36822146D01*
X74573053Y36822144D01*
X74694864Y36757035D01*
X74893704Y36650753D01*
X75229604Y36511619D01*
X75229603Y36511619D01*
X75229606Y36511618D01*
X75229616Y36511614D01*
X75577547Y36406070D01*
X75577556Y36406069D01*
X75577561Y36406067D01*
X75672729Y36387138D01*
X75934149Y36335138D01*
X75934154Y36335138D01*
X75934157Y36335137D01*
X75934155Y36335137D01*
X76118470Y36316984D01*
X76295986Y36299500D01*
X76295990Y36299500D01*
X76659570Y36299500D01*
X76659574Y36299500D01*
X76894789Y36322667D01*
X77021403Y36335137D01*
X77021405Y36335138D01*
X77021411Y36335138D01*
X77378013Y36406070D01*
X77725944Y36511614D01*
X78061856Y36650753D01*
X78382512Y36822147D01*
X78684824Y37024146D01*
X78965881Y37254803D01*
X79222977Y37511899D01*
X79453634Y37792956D01*
X79655633Y38095268D01*
X79827027Y38415924D01*
X79966166Y38751836D01*
X80071710Y39099767D01*
X80142642Y39456369D01*
X80178280Y39818206D01*
X80178280Y40181794D01*
X80142642Y40543631D01*
X80071710Y40900233D01*
X79966166Y41248164D01*
X79827027Y41584076D01*
X79655633Y41904732D01*
X79453634Y42207044D01*
X79453630Y42207050D01*
X79453627Y42207053D01*
X79222981Y42488096D01*
X79222975Y42488103D01*
X78965882Y42745196D01*
X78965875Y42745202D01*
X78684832Y42975848D01*
X78684829Y42975851D01*
X78382506Y43177857D01*
X78061854Y43349248D01*
X77725955Y43488382D01*
X77725956Y43488382D01*
X77725947Y43488385D01*
X77725944Y43488386D01*
X77537167Y43545651D01*
X77378014Y43593930D01*
X77377998Y43593934D01*
X77021402Y43664864D01*
X77021404Y43664864D01*
X76743200Y43692264D01*
X76659574Y43700500D01*
X76295986Y43700500D01*
X76212359Y43692264D01*
X75934156Y43664864D01*
X75577561Y43593934D01*
X75577545Y43593930D01*
X75359139Y43527677D01*
X75229616Y43488386D01*
X75229612Y43488385D01*
X75229604Y43488382D01*
X74893705Y43349248D01*
X74573053Y43177857D01*
X74270730Y42975851D01*
X74270727Y42975848D01*
X73989684Y42745202D01*
X73989677Y42745196D01*
X73732584Y42488103D01*
X73732578Y42488096D01*
X73501932Y42207053D01*
X73501929Y42207050D01*
X73299923Y41904727D01*
X73128532Y41584075D01*
X72989398Y41248176D01*
X72883850Y40900235D01*
X72883846Y40900219D01*
X72812916Y40543624D01*
X72777280Y40181791D01*
X60178280Y40181791D01*
X60178280Y40181794D01*
X60142642Y40543631D01*
X60071710Y40900233D01*
X59966166Y41248164D01*
X59827027Y41584076D01*
X59655633Y41904732D01*
X59453634Y42207044D01*
X59453630Y42207050D01*
X59453627Y42207053D01*
X59222981Y42488096D01*
X59222975Y42488103D01*
X58965882Y42745196D01*
X58965875Y42745202D01*
X58684832Y42975848D01*
X58684829Y42975851D01*
X58382506Y43177857D01*
X58061858Y43349246D01*
X58061853Y43349248D01*
X58038581Y43358888D01*
X58004757Y43392714D01*
X58000000Y43416630D01*
X58000000Y49936502D01*
X58000123Y49940426D01*
X58005500Y50025888D01*
X58005500Y51974112D01*
X58005191Y52013479D01*
X58000193Y52076982D01*
X58000000Y52081886D01*
X58000000Y56181791D01*
X62777280Y56181791D01*
X62777280Y55818210D01*
X62812916Y55456377D01*
X62883846Y55099782D01*
X62883850Y55099767D01*
X62989394Y54751836D01*
X62989396Y54751831D01*
X62989398Y54751825D01*
X63128532Y54415926D01*
X63299923Y54095274D01*
X63501929Y53792951D01*
X63501932Y53792948D01*
X63732578Y53511905D01*
X63732584Y53511898D01*
X63989677Y53254805D01*
X63989684Y53254799D01*
X64270727Y53024153D01*
X64270730Y53024150D01*
X64270736Y53024146D01*
X64573048Y52822147D01*
X64573050Y52822146D01*
X64573053Y52822144D01*
X64694864Y52757035D01*
X64893704Y52650753D01*
X65229604Y52511619D01*
X65229603Y52511619D01*
X65229606Y52511618D01*
X65229616Y52511614D01*
X65577547Y52406070D01*
X65577556Y52406069D01*
X65577561Y52406067D01*
X65672729Y52387138D01*
X65934149Y52335138D01*
X65934154Y52335138D01*
X65934157Y52335137D01*
X65934155Y52335137D01*
X66118470Y52316984D01*
X66295986Y52299500D01*
X66295990Y52299500D01*
X66659570Y52299500D01*
X66659574Y52299500D01*
X66894789Y52322667D01*
X67021403Y52335137D01*
X67021405Y52335138D01*
X67021411Y52335138D01*
X67378013Y52406070D01*
X67725944Y52511614D01*
X68061856Y52650753D01*
X68382512Y52822147D01*
X68684824Y53024146D01*
X68965881Y53254803D01*
X69222977Y53511899D01*
X69453634Y53792956D01*
X69655633Y54095268D01*
X69827027Y54415924D01*
X69966166Y54751836D01*
X70071710Y55099767D01*
X70142642Y55456369D01*
X70178280Y55818206D01*
X70178280Y56181791D01*
X82777280Y56181791D01*
X82777280Y55818210D01*
X82812916Y55456377D01*
X82883846Y55099782D01*
X82883850Y55099767D01*
X82989394Y54751836D01*
X82989396Y54751831D01*
X82989398Y54751825D01*
X83128532Y54415926D01*
X83299923Y54095274D01*
X83501929Y53792951D01*
X83501932Y53792948D01*
X83732578Y53511905D01*
X83732584Y53511898D01*
X83989677Y53254805D01*
X83989684Y53254799D01*
X84270727Y53024153D01*
X84270730Y53024150D01*
X84270736Y53024146D01*
X84573048Y52822147D01*
X84573050Y52822146D01*
X84573053Y52822144D01*
X84694864Y52757035D01*
X84893704Y52650753D01*
X85229604Y52511619D01*
X85229603Y52511619D01*
X85229606Y52511618D01*
X85229616Y52511614D01*
X85577547Y52406070D01*
X85577556Y52406069D01*
X85577561Y52406067D01*
X85672729Y52387138D01*
X85934149Y52335138D01*
X85934154Y52335138D01*
X85934157Y52335137D01*
X85934155Y52335137D01*
X86118470Y52316984D01*
X86295986Y52299500D01*
X86295990Y52299500D01*
X86659570Y52299500D01*
X86659574Y52299500D01*
X86894789Y52322667D01*
X87021403Y52335137D01*
X87021405Y52335138D01*
X87021411Y52335138D01*
X87378013Y52406070D01*
X87725944Y52511614D01*
X88061856Y52650753D01*
X88382512Y52822147D01*
X88684824Y53024146D01*
X88965881Y53254803D01*
X89222977Y53511899D01*
X89453634Y53792956D01*
X89655633Y54095268D01*
X89827027Y54415924D01*
X89966166Y54751836D01*
X90071710Y55099767D01*
X90142642Y55456369D01*
X90178280Y55818206D01*
X90178280Y56181794D01*
X90142642Y56543631D01*
X90071710Y56900233D01*
X89966166Y57248164D01*
X89827027Y57584076D01*
X89655633Y57904732D01*
X89453634Y58207044D01*
X89453630Y58207050D01*
X89453627Y58207053D01*
X89222981Y58488096D01*
X89222975Y58488103D01*
X88965882Y58745196D01*
X88965875Y58745202D01*
X88684832Y58975848D01*
X88684829Y58975851D01*
X88382506Y59177857D01*
X88061854Y59349248D01*
X87725955Y59488382D01*
X87725956Y59488382D01*
X87725947Y59488385D01*
X87725944Y59488386D01*
X87537167Y59545651D01*
X87378014Y59593930D01*
X87377998Y59593934D01*
X87021402Y59664864D01*
X87021404Y59664864D01*
X86743200Y59692264D01*
X86659574Y59700500D01*
X86295986Y59700500D01*
X86212359Y59692264D01*
X85934156Y59664864D01*
X85577561Y59593934D01*
X85577545Y59593930D01*
X85359139Y59527677D01*
X85229616Y59488386D01*
X85229612Y59488385D01*
X85229604Y59488382D01*
X84893705Y59349248D01*
X84573053Y59177857D01*
X84270730Y58975851D01*
X84270727Y58975848D01*
X83989684Y58745202D01*
X83989677Y58745196D01*
X83732584Y58488103D01*
X83732578Y58488096D01*
X83501932Y58207053D01*
X83501929Y58207050D01*
X83299923Y57904727D01*
X83128532Y57584075D01*
X82989398Y57248176D01*
X82883850Y56900235D01*
X82883846Y56900219D01*
X82812916Y56543624D01*
X82777280Y56181791D01*
X70178280Y56181791D01*
X70178280Y56181794D01*
X70142642Y56543631D01*
X70071710Y56900233D01*
X69966166Y57248164D01*
X69827027Y57584076D01*
X69655633Y57904732D01*
X69453634Y58207044D01*
X69453630Y58207050D01*
X69453627Y58207053D01*
X69222981Y58488096D01*
X69222975Y58488103D01*
X68965882Y58745196D01*
X68965875Y58745202D01*
X68684832Y58975848D01*
X68684829Y58975851D01*
X68382506Y59177857D01*
X68061854Y59349248D01*
X67725955Y59488382D01*
X67725956Y59488382D01*
X67725947Y59488385D01*
X67725944Y59488386D01*
X67537167Y59545651D01*
X67378014Y59593930D01*
X67377998Y59593934D01*
X67021402Y59664864D01*
X67021404Y59664864D01*
X66743200Y59692264D01*
X66659574Y59700500D01*
X66295986Y59700500D01*
X66212359Y59692264D01*
X65934156Y59664864D01*
X65577561Y59593934D01*
X65577545Y59593930D01*
X65359139Y59527677D01*
X65229616Y59488386D01*
X65229612Y59488385D01*
X65229604Y59488382D01*
X64893705Y59349248D01*
X64573053Y59177857D01*
X64270730Y58975851D01*
X64270727Y58975848D01*
X63989684Y58745202D01*
X63989677Y58745196D01*
X63732584Y58488103D01*
X63732578Y58488096D01*
X63501932Y58207053D01*
X63501929Y58207050D01*
X63299923Y57904727D01*
X63128532Y57584075D01*
X62989398Y57248176D01*
X62883850Y56900235D01*
X62883846Y56900219D01*
X62812916Y56543624D01*
X62777280Y56181791D01*
X58000000Y56181791D01*
X58000000Y61474112D01*
X58018306Y61518306D01*
X59981694Y63481694D01*
X60025888Y63500000D01*
X97974112Y63500000D01*
X98018306Y63481694D01*
G37*
%TD.AperFunction*%
%TD*%
%TA.AperFunction,Conductor*%
%TO.N,VIN-*%
G36*
X8518306Y32981694D02*
G01*
X8981694Y32518306D01*
X9000000Y32474112D01*
X9000000Y29025888D01*
X8981694Y28981694D01*
X8518306Y28518306D01*
X8474112Y28500000D01*
X2525888Y28500000D01*
X2481694Y28518306D01*
X2018306Y28981694D01*
X2000000Y29025888D01*
X2000000Y32474112D01*
X2018306Y32518306D01*
X2481694Y32981694D01*
X2525888Y33000000D01*
X8474112Y33000000D01*
X8518306Y32981694D01*
G37*
%TD.AperFunction*%
%TD*%
%TA.AperFunction,Conductor*%
%TO.N,R_PRECHARGE+*%
G36*
X57018306Y88981694D02*
G01*
X57481694Y88518306D01*
X57500000Y88474112D01*
X57500000Y80525888D01*
X57481694Y80481694D01*
X57018306Y80018306D01*
X56974112Y80000000D01*
X47025888Y80000000D01*
X46981694Y80018306D01*
X46518306Y80481694D01*
X46500000Y80525888D01*
X46500000Y81000000D01*
X46500000Y88474112D01*
X46518306Y88518306D01*
X46981694Y88981694D01*
X47025888Y89000000D01*
X56974112Y89000000D01*
X57018306Y88981694D01*
G37*
%TD.AperFunction*%
%TD*%
%TA.AperFunction,Conductor*%
%TO.N,R_DISCHARGE-*%
G36*
X72018306Y14481694D02*
G01*
X72481694Y14018306D01*
X72500000Y13974112D01*
X72500000Y4025888D01*
X72481694Y3981694D01*
X72018306Y3518306D01*
X71974112Y3500000D01*
X49025888Y3500000D01*
X48981694Y3518306D01*
X48518306Y3981694D01*
X48500000Y4025888D01*
X48500000Y13974112D01*
X48518306Y14018306D01*
X48981694Y14481694D01*
X49025888Y14500000D01*
X71974112Y14500000D01*
X72018306Y14481694D01*
G37*
%TD.AperFunction*%
%TD*%
%TA.AperFunction,Conductor*%
%TO.N,SW2*%
G36*
X8518306Y61981694D02*
G01*
X8981694Y61518306D01*
X9000000Y61474112D01*
X9000000Y47525888D01*
X8981694Y47481694D01*
X8518306Y47018306D01*
X8474112Y47000000D01*
X2525888Y47000000D01*
X2481694Y47018306D01*
X2018306Y47481694D01*
X2000000Y47525888D01*
X2000000Y61474112D01*
X2018306Y61518306D01*
X2481694Y61981694D01*
X2525888Y62000000D01*
X8474112Y62000000D01*
X8518306Y61981694D01*
G37*
%TD.AperFunction*%
%TD*%
%TA.AperFunction,Conductor*%
%TO.N,VIN-*%
G36*
X99731194Y45481694D02*
G01*
X99749500Y45437500D01*
X99749500Y41062500D01*
X99731194Y41018306D01*
X99687000Y41000000D01*
X95587288Y41000000D01*
X95569145Y41002691D01*
X95400234Y41053930D01*
X95400218Y41053934D01*
X95043622Y41124864D01*
X95043624Y41124864D01*
X94765420Y41152264D01*
X94681794Y41160500D01*
X94318206Y41160500D01*
X94234579Y41152264D01*
X93956376Y41124864D01*
X93599781Y41053934D01*
X93599765Y41053930D01*
X93430855Y41002691D01*
X93412712Y41000000D01*
X92062500Y41000000D01*
X92018306Y41018306D01*
X92000000Y41062500D01*
X92000000Y45437500D01*
X92018306Y45481694D01*
X92062500Y45500000D01*
X99687000Y45500000D01*
X99731194Y45481694D01*
G37*
%TD.AperFunction*%
%TD*%
%TA.AperFunction,Conductor*%
%TO.N,VIN-*%
G36*
X27018306Y51981694D02*
G01*
X27481694Y51518306D01*
X27500000Y51474112D01*
X27500000Y49525888D01*
X27481694Y49481694D01*
X27018306Y49018306D01*
X26974112Y49000000D01*
X15525888Y49000000D01*
X15481694Y49018306D01*
X15018306Y49481694D01*
X15000000Y49525888D01*
X15000000Y51474112D01*
X15018306Y51518306D01*
X15481694Y51981694D01*
X15525888Y52000000D01*
X26974112Y52000000D01*
X27018306Y51981694D01*
G37*
%TD.AperFunction*%
%TD*%
M02*
