%TF.GenerationSoftware,KiCad,Pcbnew,9.0.0*%
%TF.CreationDate,2025-08-07T11:31:08+08:00*%
%TF.ProjectId,Regen Clamp,52656765-6e20-4436-9c61-6d702e6b6963,1.1*%
%TF.SameCoordinates,PXa7d8c00PY8c30ac0*%
%TF.FileFunction,Soldermask,Bot*%
%TF.FilePolarity,Negative*%
%FSLAX46Y46*%
G04 Gerber Fmt 4.6, Leading zero omitted, Abs format (unit mm)*
G04 Created by KiCad (PCBNEW 9.0.0) date 2025-08-07 11:31:08*
%MOMM*%
%LPD*%
G01*
G04 APERTURE LIST*
%ADD10C,2.400000*%
%ADD11C,2.900000*%
%ADD12C,2.000000*%
%ADD13R,2.000000X2.000000*%
%ADD14R,1.218000X1.218000*%
%ADD15C,1.218000*%
%ADD16C,3.200000*%
%ADD17R,2.400000X2.400000*%
G04 APERTURE END LIST*
D10*
%TO.C,J2*%
X5500000Y36500000D03*
X5500000Y31420000D03*
%TD*%
%TO.C,J5*%
X94500000Y37460000D03*
X94500000Y42540000D03*
%TD*%
D11*
%TO.C,J3*%
X78400000Y11500000D03*
X78400000Y6500000D03*
X85600000Y11500000D03*
X85600000Y6500000D03*
%TD*%
D10*
%TO.C,J1*%
X5500000Y48580000D03*
X5500000Y43500000D03*
%TD*%
D12*
%TO.C,K1*%
X59537500Y75687500D03*
X59537500Y68187500D03*
X64537500Y75687500D03*
X64537500Y68187500D03*
X54537500Y75687500D03*
X54537500Y68187500D03*
D13*
X79537500Y75687500D03*
D12*
X79537500Y68187500D03*
%TD*%
D14*
%TO.C,RV2*%
X35960000Y19000000D03*
D15*
X38500000Y19000000D03*
X41040000Y19000000D03*
%TD*%
D16*
%TO.C,H2*%
X5000000Y5000000D03*
%TD*%
D17*
%TO.C,C23*%
X63977780Y40000000D03*
D10*
X56477780Y40000000D03*
%TD*%
D17*
%TO.C,C22*%
X73977780Y24000000D03*
D10*
X66477780Y24000000D03*
%TD*%
D11*
%TO.C,J4*%
X63400000Y11500000D03*
X63400000Y6500000D03*
X70600000Y11500000D03*
X70600000Y6500000D03*
%TD*%
D14*
%TO.C,RV1*%
X48460000Y19000000D03*
D15*
X51000000Y19000000D03*
X53540000Y19000000D03*
%TD*%
D16*
%TO.C,H1*%
X5000000Y85000000D03*
%TD*%
D17*
%TO.C,C19*%
X83977780Y40000000D03*
D10*
X76477780Y40000000D03*
%TD*%
D17*
%TO.C,C20*%
X93977780Y56000000D03*
D10*
X86477780Y56000000D03*
%TD*%
D16*
%TO.C,H3*%
X95000000Y5000000D03*
%TD*%
%TO.C,H4*%
X95000000Y85000000D03*
%TD*%
D11*
%TO.C,J7*%
X70600000Y82000000D03*
X70600000Y87000000D03*
X63400000Y82000000D03*
X63400000Y87000000D03*
%TD*%
%TO.C,J6*%
X55600000Y82000000D03*
X55600000Y87000000D03*
X48400000Y82000000D03*
X48400000Y87000000D03*
%TD*%
D14*
%TO.C,RV3*%
X23960000Y19000000D03*
D15*
X26500000Y19000000D03*
X29040000Y19000000D03*
%TD*%
D17*
%TO.C,C24*%
X93977780Y24000000D03*
D10*
X86477780Y24000000D03*
%TD*%
D17*
%TO.C,C21*%
X73977780Y56000000D03*
D10*
X66477780Y56000000D03*
%TD*%
G36*
X46481694Y87481694D02*
G01*
X46500000Y87437500D01*
X46500000Y81562500D01*
X46481694Y81518306D01*
X46437500Y81500000D01*
X21000000Y81500000D01*
X20000000Y80500000D01*
X20000000Y77062500D01*
X19981694Y77018306D01*
X19937500Y77000000D01*
X14062500Y77000000D01*
X14018306Y77018306D01*
X14000000Y77062500D01*
X14000000Y86474112D01*
X14018306Y86518306D01*
X14981694Y87481694D01*
X15025888Y87500000D01*
X46437500Y87500000D01*
X46481694Y87481694D01*
G37*
M02*
