%TF.GenerationSoftware,KiCad,Pcbnew,9.0.0*%
%TF.CreationDate,2025-06-01T03:36:43+08:00*%
%TF.ProjectId,CAPSTONE_MC,43415053-544f-44e4-955f-4d432e6b6963,Ver. 1.0.0*%
%TF.SameCoordinates,Original*%
%TF.FileFunction,Legend,Top*%
%TF.FilePolarity,Positive*%
%FSLAX46Y46*%
G04 Gerber Fmt 4.6, Leading zero omitted, Abs format (unit mm)*
G04 Created by KiCad (PCBNEW 9.0.0) date 2025-06-01 03:36:43*
%MOMM*%
%LPD*%
G01*
G04 APERTURE LIST*
G04 Aperture macros list*
%AMRoundRect*
0 Rectangle with rounded corners*
0 $1 Rounding radius*
0 $2 $3 $4 $5 $6 $7 $8 $9 X,Y pos of 4 corners*
0 Add a 4 corners polygon primitive as box body*
4,1,4,$2,$3,$4,$5,$6,$7,$8,$9,$2,$3,0*
0 Add four circle primitives for the rounded corners*
1,1,$1+$1,$2,$3*
1,1,$1+$1,$4,$5*
1,1,$1+$1,$6,$7*
1,1,$1+$1,$8,$9*
0 Add four rect primitives between the rounded corners*
20,1,$1+$1,$2,$3,$4,$5,0*
20,1,$1+$1,$4,$5,$6,$7,0*
20,1,$1+$1,$6,$7,$8,$9,0*
20,1,$1+$1,$8,$9,$2,$3,0*%
%AMRotRect*
0 Rectangle, with rotation*
0 The origin of the aperture is its center*
0 $1 length*
0 $2 width*
0 $3 Rotation angle, in degrees counterclockwise*
0 Add horizontal line*
21,1,$1,$2,0,0,$3*%
G04 Aperture macros list end*
%ADD10C,0.150000*%
%ADD11C,0.300000*%
%ADD12C,0.200000*%
%ADD13C,0.120000*%
%ADD14C,0.100000*%
%ADD15C,0.010000*%
%ADD16C,1.000000*%
%ADD17RoundRect,0.140000X0.170000X-0.140000X0.170000X0.140000X-0.170000X0.140000X-0.170000X-0.140000X0*%
%ADD18RoundRect,0.147500X-0.147500X-0.172500X0.147500X-0.172500X0.147500X0.172500X-0.147500X0.172500X0*%
%ADD19RoundRect,0.140000X-0.170000X0.140000X-0.170000X-0.140000X0.170000X-0.140000X0.170000X0.140000X0*%
%ADD20RoundRect,0.225000X-0.250000X0.225000X-0.250000X-0.225000X0.250000X-0.225000X0.250000X0.225000X0*%
%ADD21R,3.600000X1.500000*%
%ADD22RoundRect,0.140000X-0.219203X-0.021213X-0.021213X-0.219203X0.219203X0.021213X0.021213X0.219203X0*%
%ADD23RoundRect,0.150000X-0.150000X0.512500X-0.150000X-0.512500X0.150000X-0.512500X0.150000X0.512500X0*%
%ADD24RoundRect,0.150000X0.150000X-0.650000X0.150000X0.650000X-0.150000X0.650000X-0.150000X-0.650000X0*%
%ADD25RoundRect,0.400000X1.170000X-0.400000X1.170000X0.400000X-1.170000X0.400000X-1.170000X-0.400000X0*%
%ADD26RoundRect,0.400000X0.535000X-0.400000X0.535000X0.400000X-0.535000X0.400000X-0.535000X-0.400000X0*%
%ADD27C,1.500000*%
%ADD28RoundRect,0.135000X-0.185000X0.135000X-0.185000X-0.135000X0.185000X-0.135000X0.185000X0.135000X0*%
%ADD29RoundRect,0.225000X0.250000X-0.225000X0.250000X0.225000X-0.250000X0.225000X-0.250000X-0.225000X0*%
%ADD30R,2.850000X6.600000*%
%ADD31RoundRect,0.140000X-0.140000X-0.170000X0.140000X-0.170000X0.140000X0.170000X-0.140000X0.170000X0*%
%ADD32RoundRect,0.150000X-0.587500X-0.150000X0.587500X-0.150000X0.587500X0.150000X-0.587500X0.150000X0*%
%ADD33RoundRect,0.140000X0.219203X0.021213X0.021213X0.219203X-0.219203X-0.021213X-0.021213X-0.219203X0*%
%ADD34RoundRect,0.250000X0.262500X0.450000X-0.262500X0.450000X-0.262500X-0.450000X0.262500X-0.450000X0*%
%ADD35RoundRect,0.250000X0.450000X-0.262500X0.450000X0.262500X-0.450000X0.262500X-0.450000X-0.262500X0*%
%ADD36RoundRect,0.250000X-0.650000X0.325000X-0.650000X-0.325000X0.650000X-0.325000X0.650000X0.325000X0*%
%ADD37RoundRect,0.140000X0.140000X0.170000X-0.140000X0.170000X-0.140000X-0.170000X0.140000X-0.170000X0*%
%ADD38RoundRect,0.135000X0.185000X-0.135000X0.185000X0.135000X-0.185000X0.135000X-0.185000X-0.135000X0*%
%ADD39RoundRect,0.250000X0.300000X0.300000X-0.300000X0.300000X-0.300000X-0.300000X0.300000X-0.300000X0*%
%ADD40RoundRect,0.250000X-0.312500X-0.625000X0.312500X-0.625000X0.312500X0.625000X-0.312500X0.625000X0*%
%ADD41C,2.200000*%
%ADD42RoundRect,0.135000X0.135000X0.185000X-0.135000X0.185000X-0.135000X-0.185000X0.135000X-0.185000X0*%
%ADD43RoundRect,0.250000X-0.475000X0.250000X-0.475000X-0.250000X0.475000X-0.250000X0.475000X0.250000X0*%
%ADD44RoundRect,0.150000X-0.512500X-0.150000X0.512500X-0.150000X0.512500X0.150000X-0.512500X0.150000X0*%
%ADD45RoundRect,0.250000X0.300000X-0.300000X0.300000X0.300000X-0.300000X0.300000X-0.300000X-0.300000X0*%
%ADD46RoundRect,0.250000X0.900000X-1.000000X0.900000X1.000000X-0.900000X1.000000X-0.900000X-1.000000X0*%
%ADD47RoundRect,0.150000X-0.826549X0.141213X0.723943X-0.423121X0.826549X-0.141213X-0.723943X0.423121X0*%
%ADD48RoundRect,0.075000X-0.700000X-0.075000X0.700000X-0.075000X0.700000X0.075000X-0.700000X0.075000X0*%
%ADD49RoundRect,0.075000X-0.075000X-0.700000X0.075000X-0.700000X0.075000X0.700000X-0.075000X0.700000X0*%
%ADD50RoundRect,0.135000X-0.135000X-0.185000X0.135000X-0.185000X0.135000X0.185000X-0.135000X0.185000X0*%
%ADD51RoundRect,0.150000X0.512500X0.150000X-0.512500X0.150000X-0.512500X-0.150000X0.512500X-0.150000X0*%
%ADD52RoundRect,0.225000X0.225000X0.250000X-0.225000X0.250000X-0.225000X-0.250000X0.225000X-0.250000X0*%
%ADD53RoundRect,0.225000X-0.225000X-0.375000X0.225000X-0.375000X0.225000X0.375000X-0.225000X0.375000X0*%
%ADD54RoundRect,0.250000X1.000000X0.900000X-1.000000X0.900000X-1.000000X-0.900000X1.000000X-0.900000X0*%
%ADD55RoundRect,0.147500X0.172500X-0.147500X0.172500X0.147500X-0.172500X0.147500X-0.172500X-0.147500X0*%
%ADD56RotRect,1.400000X1.200000X315.000000*%
%ADD57RoundRect,0.150000X0.150000X-0.512500X0.150000X0.512500X-0.150000X0.512500X-0.150000X-0.512500X0*%
%ADD58RoundRect,0.140000X0.111865X-0.189700X0.207631X0.073414X-0.111865X0.189700X-0.207631X-0.073414X0*%
G04 APERTURE END LIST*
D10*
X77241541Y-49269819D02*
X77860588Y-49269819D01*
X77860588Y-49269819D02*
X77527255Y-49650771D01*
X77527255Y-49650771D02*
X77670112Y-49650771D01*
X77670112Y-49650771D02*
X77765350Y-49698390D01*
X77765350Y-49698390D02*
X77812969Y-49746009D01*
X77812969Y-49746009D02*
X77860588Y-49841247D01*
X77860588Y-49841247D02*
X77860588Y-50079342D01*
X77860588Y-50079342D02*
X77812969Y-50174580D01*
X77812969Y-50174580D02*
X77765350Y-50222200D01*
X77765350Y-50222200D02*
X77670112Y-50269819D01*
X77670112Y-50269819D02*
X77384398Y-50269819D01*
X77384398Y-50269819D02*
X77289160Y-50222200D01*
X77289160Y-50222200D02*
X77241541Y-50174580D01*
X78146303Y-49269819D02*
X78479636Y-50269819D01*
X78479636Y-50269819D02*
X78812969Y-49269819D01*
X84160588Y-46817438D02*
X84065350Y-46769819D01*
X84065350Y-46769819D02*
X83922493Y-46769819D01*
X83922493Y-46769819D02*
X83779636Y-46817438D01*
X83779636Y-46817438D02*
X83684398Y-46912676D01*
X83684398Y-46912676D02*
X83636779Y-47007914D01*
X83636779Y-47007914D02*
X83589160Y-47198390D01*
X83589160Y-47198390D02*
X83589160Y-47341247D01*
X83589160Y-47341247D02*
X83636779Y-47531723D01*
X83636779Y-47531723D02*
X83684398Y-47626961D01*
X83684398Y-47626961D02*
X83779636Y-47722200D01*
X83779636Y-47722200D02*
X83922493Y-47769819D01*
X83922493Y-47769819D02*
X84017731Y-47769819D01*
X84017731Y-47769819D02*
X84160588Y-47722200D01*
X84160588Y-47722200D02*
X84208207Y-47674580D01*
X84208207Y-47674580D02*
X84208207Y-47341247D01*
X84208207Y-47341247D02*
X84017731Y-47341247D01*
D11*
X105000000Y-58200000D02*
X120300000Y-58200000D01*
X121300000Y-59200000D02*
X126800000Y-59200000D01*
D12*
X91900000Y-51900000D02*
X91900000Y-58000000D01*
D11*
X102000000Y-55200000D02*
X105000000Y-58200000D01*
X120300000Y-58200000D02*
X121300000Y-59200000D01*
D12*
X90800000Y-54000000D02*
X101100000Y-54000000D01*
D11*
X100200000Y-55200000D02*
X102000000Y-55200000D01*
D12*
X91500000Y-56100000D02*
X96300000Y-56100000D01*
D11*
X95800000Y-59600000D02*
X100200000Y-55200000D01*
X81200000Y-59600000D02*
X95800000Y-59600000D01*
X75300000Y-61400000D02*
X79400000Y-61400000D01*
X79400000Y-61400000D02*
X81200000Y-59600000D01*
D12*
X92895863Y-57667219D02*
X92419673Y-57667219D01*
X92419673Y-57667219D02*
X92419673Y-56667219D01*
X93657768Y-57000552D02*
X93657768Y-57667219D01*
X93229197Y-57000552D02*
X93229197Y-57524361D01*
X93229197Y-57524361D02*
X93276816Y-57619600D01*
X93276816Y-57619600D02*
X93372054Y-57667219D01*
X93372054Y-57667219D02*
X93514911Y-57667219D01*
X93514911Y-57667219D02*
X93610149Y-57619600D01*
X93610149Y-57619600D02*
X93657768Y-57571980D01*
X94133959Y-57667219D02*
X94133959Y-56667219D01*
X94133959Y-57048171D02*
X94229197Y-57000552D01*
X94229197Y-57000552D02*
X94419673Y-57000552D01*
X94419673Y-57000552D02*
X94514911Y-57048171D01*
X94514911Y-57048171D02*
X94562530Y-57095790D01*
X94562530Y-57095790D02*
X94610149Y-57191028D01*
X94610149Y-57191028D02*
X94610149Y-57476742D01*
X94610149Y-57476742D02*
X94562530Y-57571980D01*
X94562530Y-57571980D02*
X94514911Y-57619600D01*
X94514911Y-57619600D02*
X94419673Y-57667219D01*
X94419673Y-57667219D02*
X94229197Y-57667219D01*
X94229197Y-57667219D02*
X94133959Y-57619600D01*
X95038721Y-57571980D02*
X95086340Y-57619600D01*
X95086340Y-57619600D02*
X95038721Y-57667219D01*
X95038721Y-57667219D02*
X94991102Y-57619600D01*
X94991102Y-57619600D02*
X95038721Y-57571980D01*
X95038721Y-57571980D02*
X95038721Y-57667219D01*
X81793482Y-62514838D02*
X81698244Y-62467219D01*
X81698244Y-62467219D02*
X81555387Y-62467219D01*
X81555387Y-62467219D02*
X81412530Y-62514838D01*
X81412530Y-62514838D02*
X81317292Y-62610076D01*
X81317292Y-62610076D02*
X81269673Y-62705314D01*
X81269673Y-62705314D02*
X81222054Y-62895790D01*
X81222054Y-62895790D02*
X81222054Y-63038647D01*
X81222054Y-63038647D02*
X81269673Y-63229123D01*
X81269673Y-63229123D02*
X81317292Y-63324361D01*
X81317292Y-63324361D02*
X81412530Y-63419600D01*
X81412530Y-63419600D02*
X81555387Y-63467219D01*
X81555387Y-63467219D02*
X81650625Y-63467219D01*
X81650625Y-63467219D02*
X81793482Y-63419600D01*
X81793482Y-63419600D02*
X81841101Y-63371980D01*
X81841101Y-63371980D02*
X81841101Y-63038647D01*
X81841101Y-63038647D02*
X81650625Y-63038647D01*
X82269673Y-63467219D02*
X82269673Y-62467219D01*
X82269673Y-62467219D02*
X82841101Y-63467219D01*
X82841101Y-63467219D02*
X82841101Y-62467219D01*
X83317292Y-63467219D02*
X83317292Y-62467219D01*
X83317292Y-62467219D02*
X83555387Y-62467219D01*
X83555387Y-62467219D02*
X83698244Y-62514838D01*
X83698244Y-62514838D02*
X83793482Y-62610076D01*
X83793482Y-62610076D02*
X83841101Y-62705314D01*
X83841101Y-62705314D02*
X83888720Y-62895790D01*
X83888720Y-62895790D02*
X83888720Y-63038647D01*
X83888720Y-63038647D02*
X83841101Y-63229123D01*
X83841101Y-63229123D02*
X83793482Y-63324361D01*
X83793482Y-63324361D02*
X83698244Y-63419600D01*
X83698244Y-63419600D02*
X83555387Y-63467219D01*
X83555387Y-63467219D02*
X83317292Y-63467219D01*
D10*
X101936779Y-36469819D02*
X101936779Y-35469819D01*
X101936779Y-35469819D02*
X102174874Y-35469819D01*
X102174874Y-35469819D02*
X102317731Y-35517438D01*
X102317731Y-35517438D02*
X102412969Y-35612676D01*
X102412969Y-35612676D02*
X102460588Y-35707914D01*
X102460588Y-35707914D02*
X102508207Y-35898390D01*
X102508207Y-35898390D02*
X102508207Y-36041247D01*
X102508207Y-36041247D02*
X102460588Y-36231723D01*
X102460588Y-36231723D02*
X102412969Y-36326961D01*
X102412969Y-36326961D02*
X102317731Y-36422200D01*
X102317731Y-36422200D02*
X102174874Y-36469819D01*
X102174874Y-36469819D02*
X101936779Y-36469819D01*
X75936779Y-56269819D02*
X75936779Y-55269819D01*
X75936779Y-55269819D02*
X76174874Y-55269819D01*
X76174874Y-55269819D02*
X76317731Y-55317438D01*
X76317731Y-55317438D02*
X76412969Y-55412676D01*
X76412969Y-55412676D02*
X76460588Y-55507914D01*
X76460588Y-55507914D02*
X76508207Y-55698390D01*
X76508207Y-55698390D02*
X76508207Y-55841247D01*
X76508207Y-55841247D02*
X76460588Y-56031723D01*
X76460588Y-56031723D02*
X76412969Y-56126961D01*
X76412969Y-56126961D02*
X76317731Y-56222200D01*
X76317731Y-56222200D02*
X76174874Y-56269819D01*
X76174874Y-56269819D02*
X75936779Y-56269819D01*
X76936779Y-55888866D02*
X77698684Y-55888866D01*
X82693922Y-50369819D02*
X83265350Y-50369819D01*
X82979636Y-51369819D02*
X82979636Y-50369819D01*
X83503446Y-50369819D02*
X84170112Y-51369819D01*
X84170112Y-50369819D02*
X83503446Y-51369819D01*
X78636779Y-53069819D02*
X78636779Y-52069819D01*
X78636779Y-52069819D02*
X78874874Y-52069819D01*
X78874874Y-52069819D02*
X79017731Y-52117438D01*
X79017731Y-52117438D02*
X79112969Y-52212676D01*
X79112969Y-52212676D02*
X79160588Y-52307914D01*
X79160588Y-52307914D02*
X79208207Y-52498390D01*
X79208207Y-52498390D02*
X79208207Y-52641247D01*
X79208207Y-52641247D02*
X79160588Y-52831723D01*
X79160588Y-52831723D02*
X79112969Y-52926961D01*
X79112969Y-52926961D02*
X79017731Y-53022200D01*
X79017731Y-53022200D02*
X78874874Y-53069819D01*
X78874874Y-53069819D02*
X78636779Y-53069819D01*
X79636779Y-52688866D02*
X80398684Y-52688866D01*
X80017731Y-53069819D02*
X80017731Y-52307914D01*
X83836779Y-55369819D02*
X83836779Y-54369819D01*
X83836779Y-54846009D02*
X84408207Y-54846009D01*
X84408207Y-55369819D02*
X84408207Y-54369819D01*
X81608207Y-49969819D02*
X81274874Y-49493628D01*
X81036779Y-49969819D02*
X81036779Y-48969819D01*
X81036779Y-48969819D02*
X81417731Y-48969819D01*
X81417731Y-48969819D02*
X81512969Y-49017438D01*
X81512969Y-49017438D02*
X81560588Y-49065057D01*
X81560588Y-49065057D02*
X81608207Y-49160295D01*
X81608207Y-49160295D02*
X81608207Y-49303152D01*
X81608207Y-49303152D02*
X81560588Y-49398390D01*
X81560588Y-49398390D02*
X81512969Y-49446009D01*
X81512969Y-49446009D02*
X81417731Y-49493628D01*
X81417731Y-49493628D02*
X81036779Y-49493628D01*
X81941541Y-48969819D02*
X82608207Y-49969819D01*
X82608207Y-48969819D02*
X81941541Y-49969819D01*
X87512969Y-59069819D02*
X87036779Y-59069819D01*
X87036779Y-59069819D02*
X87036779Y-58069819D01*
X104160588Y-35817438D02*
X104065350Y-35769819D01*
X104065350Y-35769819D02*
X103922493Y-35769819D01*
X103922493Y-35769819D02*
X103779636Y-35817438D01*
X103779636Y-35817438D02*
X103684398Y-35912676D01*
X103684398Y-35912676D02*
X103636779Y-36007914D01*
X103636779Y-36007914D02*
X103589160Y-36198390D01*
X103589160Y-36198390D02*
X103589160Y-36341247D01*
X103589160Y-36341247D02*
X103636779Y-36531723D01*
X103636779Y-36531723D02*
X103684398Y-36626961D01*
X103684398Y-36626961D02*
X103779636Y-36722200D01*
X103779636Y-36722200D02*
X103922493Y-36769819D01*
X103922493Y-36769819D02*
X104017731Y-36769819D01*
X104017731Y-36769819D02*
X104160588Y-36722200D01*
X104160588Y-36722200D02*
X104208207Y-36674580D01*
X104208207Y-36674580D02*
X104208207Y-36341247D01*
X104208207Y-36341247D02*
X104017731Y-36341247D01*
X102470112Y-84146009D02*
X102612969Y-84193628D01*
X102612969Y-84193628D02*
X102660588Y-84241247D01*
X102660588Y-84241247D02*
X102708207Y-84336485D01*
X102708207Y-84336485D02*
X102708207Y-84479342D01*
X102708207Y-84479342D02*
X102660588Y-84574580D01*
X102660588Y-84574580D02*
X102612969Y-84622200D01*
X102612969Y-84622200D02*
X102517731Y-84669819D01*
X102517731Y-84669819D02*
X102136779Y-84669819D01*
X102136779Y-84669819D02*
X102136779Y-83669819D01*
X102136779Y-83669819D02*
X102470112Y-83669819D01*
X102470112Y-83669819D02*
X102565350Y-83717438D01*
X102565350Y-83717438D02*
X102612969Y-83765057D01*
X102612969Y-83765057D02*
X102660588Y-83860295D01*
X102660588Y-83860295D02*
X102660588Y-83955533D01*
X102660588Y-83955533D02*
X102612969Y-84050771D01*
X102612969Y-84050771D02*
X102565350Y-84098390D01*
X102565350Y-84098390D02*
X102470112Y-84146009D01*
X102470112Y-84146009D02*
X102136779Y-84146009D01*
X101008207Y-36274580D02*
X100960588Y-36322200D01*
X100960588Y-36322200D02*
X100817731Y-36369819D01*
X100817731Y-36369819D02*
X100722493Y-36369819D01*
X100722493Y-36369819D02*
X100579636Y-36322200D01*
X100579636Y-36322200D02*
X100484398Y-36226961D01*
X100484398Y-36226961D02*
X100436779Y-36131723D01*
X100436779Y-36131723D02*
X100389160Y-35941247D01*
X100389160Y-35941247D02*
X100389160Y-35798390D01*
X100389160Y-35798390D02*
X100436779Y-35607914D01*
X100436779Y-35607914D02*
X100484398Y-35512676D01*
X100484398Y-35512676D02*
X100579636Y-35417438D01*
X100579636Y-35417438D02*
X100722493Y-35369819D01*
X100722493Y-35369819D02*
X100817731Y-35369819D01*
X100817731Y-35369819D02*
X100960588Y-35417438D01*
X100960588Y-35417438D02*
X101008207Y-35465057D01*
X85612969Y-56869819D02*
X85136779Y-56869819D01*
X85136779Y-56869819D02*
X85136779Y-55869819D01*
D12*
X93041101Y-53171980D02*
X92993482Y-53219600D01*
X92993482Y-53219600D02*
X92850625Y-53267219D01*
X92850625Y-53267219D02*
X92755387Y-53267219D01*
X92755387Y-53267219D02*
X92612530Y-53219600D01*
X92612530Y-53219600D02*
X92517292Y-53124361D01*
X92517292Y-53124361D02*
X92469673Y-53029123D01*
X92469673Y-53029123D02*
X92422054Y-52838647D01*
X92422054Y-52838647D02*
X92422054Y-52695790D01*
X92422054Y-52695790D02*
X92469673Y-52505314D01*
X92469673Y-52505314D02*
X92517292Y-52410076D01*
X92517292Y-52410076D02*
X92612530Y-52314838D01*
X92612530Y-52314838D02*
X92755387Y-52267219D01*
X92755387Y-52267219D02*
X92850625Y-52267219D01*
X92850625Y-52267219D02*
X92993482Y-52314838D01*
X92993482Y-52314838D02*
X93041101Y-52362457D01*
X93422054Y-52981504D02*
X93898244Y-52981504D01*
X93326816Y-53267219D02*
X93660149Y-52267219D01*
X93660149Y-52267219D02*
X93993482Y-53267219D01*
X94326816Y-53267219D02*
X94326816Y-52267219D01*
X94326816Y-52267219D02*
X94707768Y-52267219D01*
X94707768Y-52267219D02*
X94803006Y-52314838D01*
X94803006Y-52314838D02*
X94850625Y-52362457D01*
X94850625Y-52362457D02*
X94898244Y-52457695D01*
X94898244Y-52457695D02*
X94898244Y-52600552D01*
X94898244Y-52600552D02*
X94850625Y-52695790D01*
X94850625Y-52695790D02*
X94803006Y-52743409D01*
X94803006Y-52743409D02*
X94707768Y-52791028D01*
X94707768Y-52791028D02*
X94326816Y-52791028D01*
X95279197Y-53219600D02*
X95422054Y-53267219D01*
X95422054Y-53267219D02*
X95660149Y-53267219D01*
X95660149Y-53267219D02*
X95755387Y-53219600D01*
X95755387Y-53219600D02*
X95803006Y-53171980D01*
X95803006Y-53171980D02*
X95850625Y-53076742D01*
X95850625Y-53076742D02*
X95850625Y-52981504D01*
X95850625Y-52981504D02*
X95803006Y-52886266D01*
X95803006Y-52886266D02*
X95755387Y-52838647D01*
X95755387Y-52838647D02*
X95660149Y-52791028D01*
X95660149Y-52791028D02*
X95469673Y-52743409D01*
X95469673Y-52743409D02*
X95374435Y-52695790D01*
X95374435Y-52695790D02*
X95326816Y-52648171D01*
X95326816Y-52648171D02*
X95279197Y-52552933D01*
X95279197Y-52552933D02*
X95279197Y-52457695D01*
X95279197Y-52457695D02*
X95326816Y-52362457D01*
X95326816Y-52362457D02*
X95374435Y-52314838D01*
X95374435Y-52314838D02*
X95469673Y-52267219D01*
X95469673Y-52267219D02*
X95707768Y-52267219D01*
X95707768Y-52267219D02*
X95850625Y-52314838D01*
X96136340Y-52267219D02*
X96707768Y-52267219D01*
X96422054Y-53267219D02*
X96422054Y-52267219D01*
X97231578Y-52267219D02*
X97422054Y-52267219D01*
X97422054Y-52267219D02*
X97517292Y-52314838D01*
X97517292Y-52314838D02*
X97612530Y-52410076D01*
X97612530Y-52410076D02*
X97660149Y-52600552D01*
X97660149Y-52600552D02*
X97660149Y-52933885D01*
X97660149Y-52933885D02*
X97612530Y-53124361D01*
X97612530Y-53124361D02*
X97517292Y-53219600D01*
X97517292Y-53219600D02*
X97422054Y-53267219D01*
X97422054Y-53267219D02*
X97231578Y-53267219D01*
X97231578Y-53267219D02*
X97136340Y-53219600D01*
X97136340Y-53219600D02*
X97041102Y-53124361D01*
X97041102Y-53124361D02*
X96993483Y-52933885D01*
X96993483Y-52933885D02*
X96993483Y-52600552D01*
X96993483Y-52600552D02*
X97041102Y-52410076D01*
X97041102Y-52410076D02*
X97136340Y-52314838D01*
X97136340Y-52314838D02*
X97231578Y-52267219D01*
X98088721Y-53267219D02*
X98088721Y-52267219D01*
X98088721Y-52267219D02*
X98660149Y-53267219D01*
X98660149Y-53267219D02*
X98660149Y-52267219D01*
X99136340Y-52743409D02*
X99469673Y-52743409D01*
X99612530Y-53267219D02*
X99136340Y-53267219D01*
X99136340Y-53267219D02*
X99136340Y-52267219D01*
X99136340Y-52267219D02*
X99612530Y-52267219D01*
X99803007Y-53362457D02*
X100564911Y-53362457D01*
X100803007Y-53267219D02*
X100803007Y-52267219D01*
X100803007Y-52267219D02*
X101136340Y-52981504D01*
X101136340Y-52981504D02*
X101469673Y-52267219D01*
X101469673Y-52267219D02*
X101469673Y-53267219D01*
X102517292Y-53171980D02*
X102469673Y-53219600D01*
X102469673Y-53219600D02*
X102326816Y-53267219D01*
X102326816Y-53267219D02*
X102231578Y-53267219D01*
X102231578Y-53267219D02*
X102088721Y-53219600D01*
X102088721Y-53219600D02*
X101993483Y-53124361D01*
X101993483Y-53124361D02*
X101945864Y-53029123D01*
X101945864Y-53029123D02*
X101898245Y-52838647D01*
X101898245Y-52838647D02*
X101898245Y-52695790D01*
X101898245Y-52695790D02*
X101945864Y-52505314D01*
X101945864Y-52505314D02*
X101993483Y-52410076D01*
X101993483Y-52410076D02*
X102088721Y-52314838D01*
X102088721Y-52314838D02*
X102231578Y-52267219D01*
X102231578Y-52267219D02*
X102326816Y-52267219D01*
X102326816Y-52267219D02*
X102469673Y-52314838D01*
X102469673Y-52314838D02*
X102517292Y-52362457D01*
X92426816Y-54517219D02*
X92760149Y-55517219D01*
X92760149Y-55517219D02*
X93093482Y-54517219D01*
X93807768Y-55469600D02*
X93712530Y-55517219D01*
X93712530Y-55517219D02*
X93522054Y-55517219D01*
X93522054Y-55517219D02*
X93426816Y-55469600D01*
X93426816Y-55469600D02*
X93379197Y-55374361D01*
X93379197Y-55374361D02*
X93379197Y-54993409D01*
X93379197Y-54993409D02*
X93426816Y-54898171D01*
X93426816Y-54898171D02*
X93522054Y-54850552D01*
X93522054Y-54850552D02*
X93712530Y-54850552D01*
X93712530Y-54850552D02*
X93807768Y-54898171D01*
X93807768Y-54898171D02*
X93855387Y-54993409D01*
X93855387Y-54993409D02*
X93855387Y-55088647D01*
X93855387Y-55088647D02*
X93379197Y-55183885D01*
X94283959Y-55517219D02*
X94283959Y-54850552D01*
X94283959Y-55041028D02*
X94331578Y-54945790D01*
X94331578Y-54945790D02*
X94379197Y-54898171D01*
X94379197Y-54898171D02*
X94474435Y-54850552D01*
X94474435Y-54850552D02*
X94569673Y-54850552D01*
X94903007Y-55421980D02*
X94950626Y-55469600D01*
X94950626Y-55469600D02*
X94903007Y-55517219D01*
X94903007Y-55517219D02*
X94855388Y-55469600D01*
X94855388Y-55469600D02*
X94903007Y-55421980D01*
X94903007Y-55421980D02*
X94903007Y-55517219D01*
X96664911Y-55517219D02*
X96093483Y-55517219D01*
X96379197Y-55517219D02*
X96379197Y-54517219D01*
X96379197Y-54517219D02*
X96283959Y-54660076D01*
X96283959Y-54660076D02*
X96188721Y-54755314D01*
X96188721Y-54755314D02*
X96093483Y-54802933D01*
X97093483Y-55421980D02*
X97141102Y-55469600D01*
X97141102Y-55469600D02*
X97093483Y-55517219D01*
X97093483Y-55517219D02*
X97045864Y-55469600D01*
X97045864Y-55469600D02*
X97093483Y-55421980D01*
X97093483Y-55421980D02*
X97093483Y-55517219D01*
X97760149Y-54517219D02*
X97855387Y-54517219D01*
X97855387Y-54517219D02*
X97950625Y-54564838D01*
X97950625Y-54564838D02*
X97998244Y-54612457D01*
X97998244Y-54612457D02*
X98045863Y-54707695D01*
X98045863Y-54707695D02*
X98093482Y-54898171D01*
X98093482Y-54898171D02*
X98093482Y-55136266D01*
X98093482Y-55136266D02*
X98045863Y-55326742D01*
X98045863Y-55326742D02*
X97998244Y-55421980D01*
X97998244Y-55421980D02*
X97950625Y-55469600D01*
X97950625Y-55469600D02*
X97855387Y-55517219D01*
X97855387Y-55517219D02*
X97760149Y-55517219D01*
X97760149Y-55517219D02*
X97664911Y-55469600D01*
X97664911Y-55469600D02*
X97617292Y-55421980D01*
X97617292Y-55421980D02*
X97569673Y-55326742D01*
X97569673Y-55326742D02*
X97522054Y-55136266D01*
X97522054Y-55136266D02*
X97522054Y-54898171D01*
X97522054Y-54898171D02*
X97569673Y-54707695D01*
X97569673Y-54707695D02*
X97617292Y-54612457D01*
X97617292Y-54612457D02*
X97664911Y-54564838D01*
X97664911Y-54564838D02*
X97760149Y-54517219D01*
X98522054Y-55421980D02*
X98569673Y-55469600D01*
X98569673Y-55469600D02*
X98522054Y-55517219D01*
X98522054Y-55517219D02*
X98474435Y-55469600D01*
X98474435Y-55469600D02*
X98522054Y-55421980D01*
X98522054Y-55421980D02*
X98522054Y-55517219D01*
X99188720Y-54517219D02*
X99283958Y-54517219D01*
X99283958Y-54517219D02*
X99379196Y-54564838D01*
X99379196Y-54564838D02*
X99426815Y-54612457D01*
X99426815Y-54612457D02*
X99474434Y-54707695D01*
X99474434Y-54707695D02*
X99522053Y-54898171D01*
X99522053Y-54898171D02*
X99522053Y-55136266D01*
X99522053Y-55136266D02*
X99474434Y-55326742D01*
X99474434Y-55326742D02*
X99426815Y-55421980D01*
X99426815Y-55421980D02*
X99379196Y-55469600D01*
X99379196Y-55469600D02*
X99283958Y-55517219D01*
X99283958Y-55517219D02*
X99188720Y-55517219D01*
X99188720Y-55517219D02*
X99093482Y-55469600D01*
X99093482Y-55469600D02*
X99045863Y-55421980D01*
X99045863Y-55421980D02*
X98998244Y-55326742D01*
X98998244Y-55326742D02*
X98950625Y-55136266D01*
X98950625Y-55136266D02*
X98950625Y-54898171D01*
X98950625Y-54898171D02*
X98998244Y-54707695D01*
X98998244Y-54707695D02*
X99045863Y-54612457D01*
X99045863Y-54612457D02*
X99093482Y-54564838D01*
X99093482Y-54564838D02*
X99188720Y-54517219D01*
D10*
X113008207Y-81674580D02*
X112960588Y-81722200D01*
X112960588Y-81722200D02*
X112817731Y-81769819D01*
X112817731Y-81769819D02*
X112722493Y-81769819D01*
X112722493Y-81769819D02*
X112579636Y-81722200D01*
X112579636Y-81722200D02*
X112484398Y-81626961D01*
X112484398Y-81626961D02*
X112436779Y-81531723D01*
X112436779Y-81531723D02*
X112389160Y-81341247D01*
X112389160Y-81341247D02*
X112389160Y-81198390D01*
X112389160Y-81198390D02*
X112436779Y-81007914D01*
X112436779Y-81007914D02*
X112484398Y-80912676D01*
X112484398Y-80912676D02*
X112579636Y-80817438D01*
X112579636Y-80817438D02*
X112722493Y-80769819D01*
X112722493Y-80769819D02*
X112817731Y-80769819D01*
X112817731Y-80769819D02*
X112960588Y-80817438D01*
X112960588Y-80817438D02*
X113008207Y-80865057D01*
X81336779Y-55969819D02*
X81336779Y-54969819D01*
X81336779Y-55446009D02*
X81908207Y-55446009D01*
X81908207Y-55969819D02*
X81908207Y-54969819D01*
X92289160Y-82784104D02*
X92765350Y-82784104D01*
X92193922Y-83069819D02*
X92527255Y-82069819D01*
X92527255Y-82069819D02*
X92860588Y-83069819D01*
D12*
X78769673Y-64567219D02*
X78769673Y-63567219D01*
X78769673Y-64043409D02*
X79341101Y-64043409D01*
X79341101Y-64567219D02*
X79341101Y-63567219D01*
X79674435Y-63567219D02*
X80007768Y-64567219D01*
X80007768Y-64567219D02*
X80341101Y-63567219D01*
D11*
X94454510Y-62157971D02*
X94525939Y-62229400D01*
X94525939Y-62229400D02*
X94454510Y-62300828D01*
X94454510Y-62300828D02*
X94383082Y-62229400D01*
X94383082Y-62229400D02*
X94454510Y-62157971D01*
X94454510Y-62157971D02*
X94454510Y-62300828D01*
X94454510Y-61729400D02*
X94383082Y-60872257D01*
X94383082Y-60872257D02*
X94454510Y-60800828D01*
X94454510Y-60800828D02*
X94525939Y-60872257D01*
X94525939Y-60872257D02*
X94454510Y-61729400D01*
X94454510Y-61729400D02*
X94454510Y-60800828D01*
X95168796Y-62300828D02*
X95168796Y-60800828D01*
X95168796Y-61515114D02*
X96025939Y-61515114D01*
X96025939Y-62300828D02*
X96025939Y-60800828D01*
X96525940Y-60800828D02*
X97025940Y-62300828D01*
X97025940Y-62300828D02*
X97525940Y-60800828D01*
X99168796Y-62300828D02*
X99168796Y-60800828D01*
X99168796Y-60800828D02*
X99525939Y-60800828D01*
X99525939Y-60800828D02*
X99740225Y-60872257D01*
X99740225Y-60872257D02*
X99883082Y-61015114D01*
X99883082Y-61015114D02*
X99954511Y-61157971D01*
X99954511Y-61157971D02*
X100025939Y-61443685D01*
X100025939Y-61443685D02*
X100025939Y-61657971D01*
X100025939Y-61657971D02*
X99954511Y-61943685D01*
X99954511Y-61943685D02*
X99883082Y-62086542D01*
X99883082Y-62086542D02*
X99740225Y-62229400D01*
X99740225Y-62229400D02*
X99525939Y-62300828D01*
X99525939Y-62300828D02*
X99168796Y-62300828D01*
X101311654Y-62300828D02*
X101311654Y-61515114D01*
X101311654Y-61515114D02*
X101240225Y-61372257D01*
X101240225Y-61372257D02*
X101097368Y-61300828D01*
X101097368Y-61300828D02*
X100811654Y-61300828D01*
X100811654Y-61300828D02*
X100668796Y-61372257D01*
X101311654Y-62229400D02*
X101168796Y-62300828D01*
X101168796Y-62300828D02*
X100811654Y-62300828D01*
X100811654Y-62300828D02*
X100668796Y-62229400D01*
X100668796Y-62229400D02*
X100597368Y-62086542D01*
X100597368Y-62086542D02*
X100597368Y-61943685D01*
X100597368Y-61943685D02*
X100668796Y-61800828D01*
X100668796Y-61800828D02*
X100811654Y-61729400D01*
X100811654Y-61729400D02*
X101168796Y-61729400D01*
X101168796Y-61729400D02*
X101311654Y-61657971D01*
X102025939Y-61300828D02*
X102025939Y-62300828D01*
X102025939Y-61443685D02*
X102097368Y-61372257D01*
X102097368Y-61372257D02*
X102240225Y-61300828D01*
X102240225Y-61300828D02*
X102454511Y-61300828D01*
X102454511Y-61300828D02*
X102597368Y-61372257D01*
X102597368Y-61372257D02*
X102668797Y-61515114D01*
X102668797Y-61515114D02*
X102668797Y-62300828D01*
X104025940Y-61300828D02*
X104025940Y-62515114D01*
X104025940Y-62515114D02*
X103954511Y-62657971D01*
X103954511Y-62657971D02*
X103883082Y-62729400D01*
X103883082Y-62729400D02*
X103740225Y-62800828D01*
X103740225Y-62800828D02*
X103525940Y-62800828D01*
X103525940Y-62800828D02*
X103383082Y-62729400D01*
X104025940Y-62229400D02*
X103883082Y-62300828D01*
X103883082Y-62300828D02*
X103597368Y-62300828D01*
X103597368Y-62300828D02*
X103454511Y-62229400D01*
X103454511Y-62229400D02*
X103383082Y-62157971D01*
X103383082Y-62157971D02*
X103311654Y-62015114D01*
X103311654Y-62015114D02*
X103311654Y-61586542D01*
X103311654Y-61586542D02*
X103383082Y-61443685D01*
X103383082Y-61443685D02*
X103454511Y-61372257D01*
X103454511Y-61372257D02*
X103597368Y-61300828D01*
X103597368Y-61300828D02*
X103883082Y-61300828D01*
X103883082Y-61300828D02*
X104025940Y-61372257D01*
X105311654Y-62229400D02*
X105168797Y-62300828D01*
X105168797Y-62300828D02*
X104883083Y-62300828D01*
X104883083Y-62300828D02*
X104740225Y-62229400D01*
X104740225Y-62229400D02*
X104668797Y-62086542D01*
X104668797Y-62086542D02*
X104668797Y-61515114D01*
X104668797Y-61515114D02*
X104740225Y-61372257D01*
X104740225Y-61372257D02*
X104883083Y-61300828D01*
X104883083Y-61300828D02*
X105168797Y-61300828D01*
X105168797Y-61300828D02*
X105311654Y-61372257D01*
X105311654Y-61372257D02*
X105383083Y-61515114D01*
X105383083Y-61515114D02*
X105383083Y-61657971D01*
X105383083Y-61657971D02*
X104668797Y-61800828D01*
X106025939Y-62300828D02*
X106025939Y-61300828D01*
X106025939Y-61586542D02*
X106097368Y-61443685D01*
X106097368Y-61443685D02*
X106168797Y-61372257D01*
X106168797Y-61372257D02*
X106311654Y-61300828D01*
X106311654Y-61300828D02*
X106454511Y-61300828D01*
X106954510Y-62157971D02*
X107025939Y-62229400D01*
X107025939Y-62229400D02*
X106954510Y-62300828D01*
X106954510Y-62300828D02*
X106883082Y-62229400D01*
X106883082Y-62229400D02*
X106954510Y-62157971D01*
X106954510Y-62157971D02*
X106954510Y-62300828D01*
X106954510Y-61729400D02*
X106883082Y-60872257D01*
X106883082Y-60872257D02*
X106954510Y-60800828D01*
X106954510Y-60800828D02*
X107025939Y-60872257D01*
X107025939Y-60872257D02*
X106954510Y-61729400D01*
X106954510Y-61729400D02*
X106954510Y-60800828D01*
D12*
X77274435Y-65257275D02*
X77893482Y-65257275D01*
X77893482Y-65257275D02*
X77560149Y-65638227D01*
X77560149Y-65638227D02*
X77703006Y-65638227D01*
X77703006Y-65638227D02*
X77798244Y-65685846D01*
X77798244Y-65685846D02*
X77845863Y-65733465D01*
X77845863Y-65733465D02*
X77893482Y-65828703D01*
X77893482Y-65828703D02*
X77893482Y-66066798D01*
X77893482Y-66066798D02*
X77845863Y-66162036D01*
X77845863Y-66162036D02*
X77798244Y-66209656D01*
X77798244Y-66209656D02*
X77703006Y-66257275D01*
X77703006Y-66257275D02*
X77417292Y-66257275D01*
X77417292Y-66257275D02*
X77322054Y-66209656D01*
X77322054Y-66209656D02*
X77274435Y-66162036D01*
X78845863Y-66257275D02*
X78274435Y-66257275D01*
X78560149Y-66257275D02*
X78560149Y-65257275D01*
X78560149Y-65257275D02*
X78464911Y-65400132D01*
X78464911Y-65400132D02*
X78369673Y-65495370D01*
X78369673Y-65495370D02*
X78274435Y-65542989D01*
X79464911Y-65257275D02*
X79560149Y-65257275D01*
X79560149Y-65257275D02*
X79655387Y-65304894D01*
X79655387Y-65304894D02*
X79703006Y-65352513D01*
X79703006Y-65352513D02*
X79750625Y-65447751D01*
X79750625Y-65447751D02*
X79798244Y-65638227D01*
X79798244Y-65638227D02*
X79798244Y-65876322D01*
X79798244Y-65876322D02*
X79750625Y-66066798D01*
X79750625Y-66066798D02*
X79703006Y-66162036D01*
X79703006Y-66162036D02*
X79655387Y-66209656D01*
X79655387Y-66209656D02*
X79560149Y-66257275D01*
X79560149Y-66257275D02*
X79464911Y-66257275D01*
X79464911Y-66257275D02*
X79369673Y-66209656D01*
X79369673Y-66209656D02*
X79322054Y-66162036D01*
X79322054Y-66162036D02*
X79274435Y-66066798D01*
X79274435Y-66066798D02*
X79226816Y-65876322D01*
X79226816Y-65876322D02*
X79226816Y-65638227D01*
X79226816Y-65638227D02*
X79274435Y-65447751D01*
X79274435Y-65447751D02*
X79322054Y-65352513D01*
X79322054Y-65352513D02*
X79369673Y-65304894D01*
X79369673Y-65304894D02*
X79464911Y-65257275D01*
X80083959Y-65257275D02*
X80417292Y-66257275D01*
X80417292Y-66257275D02*
X80750625Y-65257275D01*
X77369673Y-67867219D02*
X77369673Y-66867219D01*
X77369673Y-66867219D02*
X77703006Y-67581504D01*
X77703006Y-67581504D02*
X78036339Y-66867219D01*
X78036339Y-66867219D02*
X78036339Y-67867219D01*
X78464911Y-67581504D02*
X78941101Y-67581504D01*
X78369673Y-67867219D02*
X78703006Y-66867219D01*
X78703006Y-66867219D02*
X79036339Y-67867219D01*
X79274435Y-66867219D02*
X79941101Y-67867219D01*
X79941101Y-66867219D02*
X79274435Y-67867219D01*
X80322054Y-67771980D02*
X80369673Y-67819600D01*
X80369673Y-67819600D02*
X80322054Y-67867219D01*
X80322054Y-67867219D02*
X80274435Y-67819600D01*
X80274435Y-67819600D02*
X80322054Y-67771980D01*
X80322054Y-67771980D02*
X80322054Y-67867219D01*
X85932899Y-51617912D02*
X86161471Y-51617912D01*
X86161471Y-51617912D02*
X86275756Y-51665531D01*
X86275756Y-51665531D02*
X86390042Y-51760769D01*
X86390042Y-51760769D02*
X86447185Y-51951245D01*
X86447185Y-51951245D02*
X86447185Y-52284578D01*
X86447185Y-52284578D02*
X86390042Y-52475054D01*
X86390042Y-52475054D02*
X86275756Y-52570293D01*
X86275756Y-52570293D02*
X86161471Y-52617912D01*
X86161471Y-52617912D02*
X85932899Y-52617912D01*
X85932899Y-52617912D02*
X85818614Y-52570293D01*
X85818614Y-52570293D02*
X85704328Y-52475054D01*
X85704328Y-52475054D02*
X85647185Y-52284578D01*
X85647185Y-52284578D02*
X85647185Y-51951245D01*
X85647185Y-51951245D02*
X85704328Y-51760769D01*
X85704328Y-51760769D02*
X85818614Y-51665531D01*
X85818614Y-51665531D02*
X85932899Y-51617912D01*
X86904328Y-52570293D02*
X87075757Y-52617912D01*
X87075757Y-52617912D02*
X87361471Y-52617912D01*
X87361471Y-52617912D02*
X87475757Y-52570293D01*
X87475757Y-52570293D02*
X87532899Y-52522673D01*
X87532899Y-52522673D02*
X87590042Y-52427435D01*
X87590042Y-52427435D02*
X87590042Y-52332197D01*
X87590042Y-52332197D02*
X87532899Y-52236959D01*
X87532899Y-52236959D02*
X87475757Y-52189340D01*
X87475757Y-52189340D02*
X87361471Y-52141721D01*
X87361471Y-52141721D02*
X87132899Y-52094102D01*
X87132899Y-52094102D02*
X87018614Y-52046483D01*
X87018614Y-52046483D02*
X86961471Y-51998864D01*
X86961471Y-51998864D02*
X86904328Y-51903626D01*
X86904328Y-51903626D02*
X86904328Y-51808388D01*
X86904328Y-51808388D02*
X86961471Y-51713150D01*
X86961471Y-51713150D02*
X87018614Y-51665531D01*
X87018614Y-51665531D02*
X87132899Y-51617912D01*
X87132899Y-51617912D02*
X87418614Y-51617912D01*
X87418614Y-51617912D02*
X87590042Y-51665531D01*
X88104328Y-52617912D02*
X88104328Y-51617912D01*
X88104328Y-52094102D02*
X88790042Y-52094102D01*
X88790042Y-52617912D02*
X88790042Y-51617912D01*
X89247185Y-51617912D02*
X89532899Y-52617912D01*
X89532899Y-52617912D02*
X89761471Y-51903626D01*
X89761471Y-51903626D02*
X89990042Y-52617912D01*
X89990042Y-52617912D02*
X90275757Y-51617912D01*
D13*
%TO.C,TP21*%
X80025000Y-48575000D02*
G75*
G02*
X78625000Y-48575000I-700000J0D01*
G01*
X78625000Y-48575000D02*
G75*
G02*
X80025000Y-48575000I700000J0D01*
G01*
%TO.C,TP20*%
X83025000Y-47725000D02*
G75*
G02*
X81625000Y-47725000I-700000J0D01*
G01*
X81625000Y-47725000D02*
G75*
G02*
X83025000Y-47725000I700000J0D01*
G01*
%TO.C,C55*%
X80395000Y-46322836D02*
X80395000Y-46107164D01*
X81115000Y-46322836D02*
X81115000Y-46107164D01*
%TO.C,C54*%
X79425000Y-46322836D02*
X79425000Y-46107164D01*
X80145000Y-46322836D02*
X80145000Y-46107164D01*
D14*
%TO.C,D6*%
X75440000Y-59985000D02*
G75*
G02*
X75340000Y-59985000I-50000J0D01*
G01*
X75340000Y-59985000D02*
G75*
G02*
X75440000Y-59985000I50000J0D01*
G01*
D13*
%TO.C,C24*%
X117145000Y-70877164D02*
X117145000Y-71092836D01*
X117865000Y-70877164D02*
X117865000Y-71092836D01*
%TO.C,C14*%
X124435000Y-65114420D02*
X124435000Y-65395580D01*
X125455000Y-65114420D02*
X125455000Y-65395580D01*
%TO.C,L3*%
X108380000Y-46515000D02*
X108580000Y-46515000D01*
X108380000Y-51035000D02*
X108380000Y-46515000D01*
X108380000Y-51035000D02*
X108580000Y-51035000D01*
X112900000Y-46515000D02*
X112700000Y-46515000D01*
X112900000Y-51035000D02*
X112700000Y-51035000D01*
X112900000Y-51035000D02*
X112900000Y-46515000D01*
%TO.C,TP14*%
X86695000Y-58445000D02*
G75*
G02*
X85295000Y-58445000I-700000J0D01*
G01*
X85295000Y-58445000D02*
G75*
G02*
X86695000Y-58445000I700000J0D01*
G01*
D14*
%TO.C,D7*%
X75450000Y-58995000D02*
G75*
G02*
X75350000Y-58995000I-50000J0D01*
G01*
X75350000Y-58995000D02*
G75*
G02*
X75450000Y-58995000I50000J0D01*
G01*
D13*
%TO.C,C11*%
X86114190Y-41253307D02*
X86266693Y-41405810D01*
X86623307Y-40744190D02*
X86775810Y-40896693D01*
%TO.C,U13*%
X107475000Y-60440000D02*
X107475000Y-59640000D01*
X107475000Y-60440000D02*
X107475000Y-61240000D01*
X110595000Y-60440000D02*
X110595000Y-59640000D01*
X110595000Y-60440000D02*
X110595000Y-61240000D01*
X110875000Y-59380000D02*
X110545000Y-59140000D01*
X110875000Y-58900000D01*
X110875000Y-59380000D01*
G36*
X110875000Y-59380000D02*
G01*
X110545000Y-59140000D01*
X110875000Y-58900000D01*
X110875000Y-59380000D01*
G37*
%TO.C,U4*%
X106300000Y-78115000D02*
X116600000Y-78115000D01*
X116600000Y-70615000D01*
X106300000Y-70615000D01*
X106300000Y-78115000D01*
%TO.C,TP4*%
X101365000Y-83865000D02*
G75*
G02*
X99465000Y-83865000I-950000J0D01*
G01*
X99465000Y-83865000D02*
G75*
G02*
X101365000Y-83865000I950000J0D01*
G01*
%TO.C,C46*%
X110855000Y-59712836D02*
X110855000Y-59497164D01*
X111575000Y-59712836D02*
X111575000Y-59497164D01*
%TO.C,TP5*%
X111725000Y-81855000D02*
G75*
G02*
X109825000Y-81855000I-950000J0D01*
G01*
X109825000Y-81855000D02*
G75*
G02*
X111725000Y-81855000I950000J0D01*
G01*
%TO.C,C22*%
X106255000Y-53987164D02*
X106255000Y-54202836D01*
X106975000Y-53987164D02*
X106975000Y-54202836D01*
%TO.C,R13*%
X106970000Y-63471359D02*
X106970000Y-63778641D01*
X107730000Y-63471359D02*
X107730000Y-63778641D01*
%TO.C,C27*%
X102035000Y-69240580D02*
X102035000Y-68959420D01*
X103055000Y-69240580D02*
X103055000Y-68959420D01*
%TO.C,C2*%
X98985000Y-50017164D02*
X98985000Y-50232836D01*
X99705000Y-50017164D02*
X99705000Y-50232836D01*
%TO.C,C9*%
X98035000Y-50017164D02*
X98035000Y-50232836D01*
X98755000Y-50017164D02*
X98755000Y-50232836D01*
%TO.C,L2*%
X115465000Y-49635000D02*
X119465000Y-49635000D01*
X115465000Y-57835000D02*
X119465000Y-57835000D01*
%TO.C,C43*%
X87897164Y-53275000D02*
X88112836Y-53275000D01*
X87897164Y-53995000D02*
X88112836Y-53995000D01*
%TO.C,D11*%
X88714999Y-54330001D02*
X88064999Y-54330000D01*
X88714999Y-54330001D02*
X89365001Y-54330000D01*
X88715001Y-57449999D02*
X88064999Y-57450000D01*
X88715001Y-57449999D02*
X89365001Y-57450000D01*
X87552501Y-54380000D02*
X87312500Y-54050000D01*
X87792500Y-54050000D01*
X87552501Y-54380000D01*
G36*
X87552501Y-54380000D02*
G01*
X87312500Y-54050000D01*
X87792500Y-54050000D01*
X87552501Y-54380000D01*
G37*
%TO.C,C10*%
X84951693Y-40090810D02*
X84799190Y-39938307D01*
X85460810Y-39581693D02*
X85308307Y-39429190D01*
%TO.C,C1*%
X103397164Y-36875000D02*
X103612836Y-36875000D01*
X103397164Y-37595000D02*
X103612836Y-37595000D01*
%TO.C,TP12*%
X104695000Y-34825000D02*
G75*
G02*
X103295000Y-34825000I-700000J0D01*
G01*
X103295000Y-34825000D02*
G75*
G02*
X104695000Y-34825000I700000J0D01*
G01*
%TO.C,R8*%
X118432064Y-63600000D02*
X117977936Y-63600000D01*
X118432064Y-65070000D02*
X117977936Y-65070000D01*
%TO.C,C36*%
X98650000Y-65940414D02*
X98650000Y-66156086D01*
X99370000Y-65940414D02*
X99370000Y-66156086D01*
%TO.C,C3*%
X101905000Y-46817164D02*
X101905000Y-47032836D01*
X102625000Y-46817164D02*
X102625000Y-47032836D01*
%TO.C,C29*%
X113065000Y-46837164D02*
X113065000Y-47052836D01*
X113785000Y-46837164D02*
X113785000Y-47052836D01*
%TO.C,R9*%
X91800000Y-63767064D02*
X91800000Y-63312936D01*
X93270000Y-63767064D02*
X93270000Y-63312936D01*
%TO.C,C17*%
X121665000Y-68863748D02*
X121665000Y-70286252D01*
X123485000Y-68863748D02*
X123485000Y-70286252D01*
%TO.C,R21*%
X85815000Y-56111359D02*
X85815000Y-56418641D01*
X86575000Y-56111359D02*
X86575000Y-56418641D01*
%TO.C,TP9*%
X82825000Y-51695000D02*
G75*
G02*
X81425000Y-51695000I-700000J0D01*
G01*
X81425000Y-51695000D02*
G75*
G02*
X82825000Y-51695000I700000J0D01*
G01*
%TO.C,TP13*%
X83575000Y-55655000D02*
G75*
G02*
X82175000Y-55655000I-700000J0D01*
G01*
X82175000Y-55655000D02*
G75*
G02*
X83575000Y-55655000I700000J0D01*
G01*
%TO.C,C15*%
X108092836Y-54920000D02*
X107877164Y-54920000D01*
X108092836Y-55640000D02*
X107877164Y-55640000D01*
%TO.C,R31*%
X111815000Y-59768641D02*
X111815000Y-59461359D01*
X112575000Y-59768641D02*
X112575000Y-59461359D01*
%TO.C,D4*%
X108320000Y-49155000D02*
X104460000Y-49155000D01*
X108320000Y-51155000D02*
X104460000Y-51155000D01*
X108320000Y-51155000D02*
X108320000Y-49155000D01*
%TO.C,R1*%
X123377936Y-59375000D02*
X124832064Y-59375000D01*
X123377936Y-61195000D02*
X124832064Y-61195000D01*
%TO.C,R4*%
X78538641Y-57645000D02*
X78231359Y-57645000D01*
X78538641Y-58405000D02*
X78231359Y-58405000D01*
%TO.C,C16*%
X111140000Y-56258748D02*
X111140000Y-56781252D01*
X112610000Y-56258748D02*
X112610000Y-56781252D01*
%TO.C,C37*%
X80630000Y-68007836D02*
X80630000Y-67792164D01*
X81350000Y-68007836D02*
X81350000Y-67792164D01*
%TO.C,TP3*%
X91685000Y-81565000D02*
G75*
G02*
X89785000Y-81565000I-950000J0D01*
G01*
X89785000Y-81565000D02*
G75*
G02*
X91685000Y-81565000I950000J0D01*
G01*
%TO.C,U2*%
X85425000Y-78040000D02*
X95725000Y-78040000D01*
X95725000Y-70540000D01*
X85425000Y-70540000D01*
X85425000Y-78040000D01*
%TO.C,U11*%
X109355000Y-51480000D02*
X108555000Y-51480000D01*
X109355000Y-51480000D02*
X110155000Y-51480000D01*
X109355000Y-54600000D02*
X108555000Y-54600000D01*
X109355000Y-54600000D02*
X110155000Y-54600000D01*
X108055000Y-51530000D02*
X107815000Y-51200000D01*
X108295000Y-51200000D01*
X108055000Y-51530000D01*
G36*
X108055000Y-51530000D02*
G01*
X107815000Y-51200000D01*
X108295000Y-51200000D01*
X108055000Y-51530000D01*
G37*
%TO.C,C44*%
X88072836Y-57705000D02*
X87857164Y-57705000D01*
X88072836Y-58425000D02*
X87857164Y-58425000D01*
%TO.C,C19*%
X113065000Y-45212836D02*
X113065000Y-44997164D01*
X113785000Y-45212836D02*
X113785000Y-44997164D01*
%TO.C,U5*%
X106880000Y-64755000D02*
X107680000Y-64755000D01*
X106880000Y-67875000D02*
X107680000Y-67875000D01*
X108480000Y-64755000D02*
X107680000Y-64755000D01*
X108480000Y-67875000D02*
X107680000Y-67875000D01*
X106380000Y-64805000D02*
X106140000Y-64475000D01*
X106620000Y-64475000D01*
X106380000Y-64805000D01*
G36*
X106380000Y-64805000D02*
G01*
X106140000Y-64475000D01*
X106620000Y-64475000D01*
X106380000Y-64805000D01*
G37*
%TO.C,R5*%
X78548641Y-59595000D02*
X78241359Y-59595000D01*
X78548641Y-60355000D02*
X78241359Y-60355000D01*
%TO.C,D10*%
X93640000Y-67165000D02*
X93640000Y-63305000D01*
X93640000Y-67165000D02*
X95640000Y-67165000D01*
X95640000Y-67165000D02*
X95640000Y-63305000D01*
%TO.C,C18*%
X111695000Y-53405580D02*
X111695000Y-53124420D01*
X112715000Y-53405580D02*
X112715000Y-53124420D01*
%TO.C,D1*%
X122115000Y-59025000D02*
X122115000Y-53215000D01*
X122115000Y-59025000D02*
X126415000Y-59025000D01*
X126415000Y-59025000D02*
X126415000Y-53215000D01*
%TO.C,U9*%
X107979428Y-39880613D02*
X106147027Y-39213673D01*
X107979428Y-39880613D02*
X109811828Y-40547552D01*
X109730572Y-35069387D02*
X107898172Y-34402448D01*
X109730572Y-35069387D02*
X111562973Y-35736327D01*
X107499303Y-34007189D02*
X107160909Y-34235203D01*
X107048251Y-33843020D01*
X107499303Y-34007189D01*
G36*
X107499303Y-34007189D02*
G01*
X107160909Y-34235203D01*
X107048251Y-33843020D01*
X107499303Y-34007189D01*
G37*
%TO.C,C6*%
X107415000Y-48122836D02*
X107415000Y-47907164D01*
X108135000Y-48122836D02*
X108135000Y-47907164D01*
%TO.C,R30*%
X110845000Y-61638641D02*
X110845000Y-61331359D01*
X111605000Y-61638641D02*
X111605000Y-61331359D01*
%TO.C,R2*%
X105275000Y-53946359D02*
X105275000Y-54253641D01*
X106035000Y-53946359D02*
X106035000Y-54253641D01*
%TO.C,C7*%
X106465000Y-47917164D02*
X106465000Y-48132836D01*
X107185000Y-47917164D02*
X107185000Y-48132836D01*
D12*
%TO.C,REF\u002A\u002A*%
X82510000Y-73350000D02*
X82710000Y-73600000D01*
X82620000Y-75230000D02*
X83130000Y-75320000D01*
X82830000Y-73595000D02*
X83030000Y-73845000D01*
D14*
X82461573Y-73625740D02*
X83625740Y-73000000D01*
X82970896Y-75386542D01*
X83305594Y-75182813D01*
X82708958Y-76070490D01*
X82490677Y-75022740D01*
X82723511Y-75342886D01*
X83000000Y-73611188D01*
X81879490Y-74207823D01*
X82607094Y-71632104D01*
X83320146Y-71632104D01*
X82461573Y-73625740D01*
G36*
X82461573Y-73625740D02*
G01*
X83625740Y-73000000D01*
X82970896Y-75386542D01*
X83305594Y-75182813D01*
X82708958Y-76070490D01*
X82490677Y-75022740D01*
X82723511Y-75342886D01*
X83000000Y-73611188D01*
X81879490Y-74207823D01*
X82607094Y-71632104D01*
X83320146Y-71632104D01*
X82461573Y-73625740D01*
G37*
D13*
%TO.C,C5*%
X86605000Y-45087164D02*
X86605000Y-45302836D01*
X87325000Y-45087164D02*
X87325000Y-45302836D01*
%TO.C,U1*%
X90055000Y-36505000D02*
X90055000Y-37455000D01*
X90055000Y-46725000D02*
X90055000Y-45775000D01*
X91005000Y-36505000D02*
X90055000Y-36505000D01*
X91005000Y-46725000D02*
X90055000Y-46725000D01*
X99325000Y-36505000D02*
X100275000Y-36505000D01*
X99325000Y-46725000D02*
X100275000Y-46725000D01*
X100275000Y-36505000D02*
X100275000Y-37455000D01*
X100275000Y-46725000D02*
X100275000Y-45775000D01*
X89440000Y-37455000D02*
X89100000Y-36985000D01*
X89780000Y-36985000D01*
X89440000Y-37455000D01*
G36*
X89440000Y-37455000D02*
G01*
X89100000Y-36985000D01*
X89780000Y-36985000D01*
X89440000Y-37455000D01*
G37*
%TO.C,TP16*%
X84995000Y-57385000D02*
G75*
G02*
X83595000Y-57385000I-700000J0D01*
G01*
X83595000Y-57385000D02*
G75*
G02*
X84995000Y-57385000I700000J0D01*
G01*
%TO.C,C25*%
X94532836Y-67350000D02*
X94317164Y-67350000D01*
X94532836Y-68070000D02*
X94317164Y-68070000D01*
%TO.C,U3*%
X95855000Y-80630000D02*
X106155000Y-80630000D01*
X106155000Y-73130000D01*
X95855000Y-73130000D01*
X95855000Y-80630000D01*
%TO.C,C13*%
X107727164Y-41325000D02*
X107942836Y-41325000D01*
X107727164Y-42045000D02*
X107942836Y-42045000D01*
%TO.C,U6*%
X97445000Y-67188250D02*
X98245000Y-67188250D01*
X97445000Y-70308250D02*
X98245000Y-70308250D01*
X99045000Y-67188250D02*
X98245000Y-67188250D01*
X99045000Y-70308250D02*
X98245000Y-70308250D01*
X96945000Y-67238250D02*
X96705000Y-66908250D01*
X97185000Y-66908250D01*
X96945000Y-67238250D01*
G36*
X96945000Y-67238250D02*
G01*
X96705000Y-66908250D01*
X97185000Y-66908250D01*
X96945000Y-67238250D01*
G37*
%TO.C,TP11*%
X100940000Y-34435000D02*
G75*
G02*
X99540000Y-34435000I-700000J0D01*
G01*
X99540000Y-34435000D02*
G75*
G02*
X100940000Y-34435000I700000J0D01*
G01*
%TO.C,R6*%
X78548641Y-58625000D02*
X78241359Y-58625000D01*
X78548641Y-59385000D02*
X78241359Y-59385000D01*
%TO.C,R32*%
X80266359Y-54205000D02*
X80573641Y-54205000D01*
X80266359Y-54965000D02*
X80573641Y-54965000D01*
D15*
%TO.C,SYM5*%
X117881191Y-40438441D02*
X117966414Y-40459416D01*
X118044162Y-40498695D01*
X118106323Y-40546325D01*
X118176956Y-40622607D01*
X118227894Y-40707824D01*
X118258830Y-40799335D01*
X118269461Y-40894503D01*
X118259476Y-40990690D01*
X118228571Y-41085263D01*
X118179040Y-41171935D01*
X118114399Y-41244849D01*
X118037528Y-41300714D01*
X117951575Y-41339007D01*
X117859687Y-41359210D01*
X117765019Y-41360801D01*
X117670715Y-41343257D01*
X117579930Y-41306055D01*
X117534894Y-41278590D01*
X117498111Y-41252443D01*
X117471755Y-41230290D01*
X117449739Y-41205693D01*
X117425976Y-41172216D01*
X117407505Y-41143881D01*
X117363731Y-41055546D01*
X117340716Y-40960230D01*
X117338695Y-40860363D01*
X117357904Y-40758373D01*
X117367302Y-40729249D01*
X117381395Y-40691909D01*
X117395700Y-40663026D01*
X117414485Y-40636370D01*
X117442016Y-40605715D01*
X117474406Y-40572931D01*
X117536945Y-40516172D01*
X117595418Y-40476670D01*
X117656099Y-40451613D01*
X117725257Y-40438190D01*
X117783814Y-40434148D01*
X117881191Y-40438441D01*
G36*
X117881191Y-40438441D02*
G01*
X117966414Y-40459416D01*
X118044162Y-40498695D01*
X118106323Y-40546325D01*
X118176956Y-40622607D01*
X118227894Y-40707824D01*
X118258830Y-40799335D01*
X118269461Y-40894503D01*
X118259476Y-40990690D01*
X118228571Y-41085263D01*
X118179040Y-41171935D01*
X118114399Y-41244849D01*
X118037528Y-41300714D01*
X117951575Y-41339007D01*
X117859687Y-41359210D01*
X117765019Y-41360801D01*
X117670715Y-41343257D01*
X117579930Y-41306055D01*
X117534894Y-41278590D01*
X117498111Y-41252443D01*
X117471755Y-41230290D01*
X117449739Y-41205693D01*
X117425976Y-41172216D01*
X117407505Y-41143881D01*
X117363731Y-41055546D01*
X117340716Y-40960230D01*
X117338695Y-40860363D01*
X117357904Y-40758373D01*
X117367302Y-40729249D01*
X117381395Y-40691909D01*
X117395700Y-40663026D01*
X117414485Y-40636370D01*
X117442016Y-40605715D01*
X117474406Y-40572931D01*
X117536945Y-40516172D01*
X117595418Y-40476670D01*
X117656099Y-40451613D01*
X117725257Y-40438190D01*
X117783814Y-40434148D01*
X117881191Y-40438441D01*
G37*
X118416446Y-42624048D02*
X118587919Y-42650504D01*
X118749266Y-42695519D01*
X118902794Y-42759823D01*
X119050815Y-42844145D01*
X119130751Y-42899346D01*
X119254000Y-43000581D01*
X119364168Y-43114433D01*
X119462433Y-43242642D01*
X119549973Y-43386948D01*
X119627966Y-43549093D01*
X119697592Y-43730815D01*
X119701638Y-43742703D01*
X119722616Y-43803317D01*
X119742040Y-43856791D01*
X119758440Y-43899279D01*
X119770342Y-43926931D01*
X119775310Y-43935501D01*
X119785356Y-43952631D01*
X119785643Y-43958864D01*
X119774658Y-43962634D01*
X119744727Y-43969880D01*
X119699106Y-43979963D01*
X119641046Y-43992238D01*
X119573803Y-44006065D01*
X119500631Y-44020801D01*
X119424783Y-44035804D01*
X119349513Y-44050431D01*
X119278074Y-44064042D01*
X119213719Y-44075992D01*
X119159705Y-44085642D01*
X119119283Y-44092347D01*
X119095707Y-44095466D01*
X119092755Y-44095611D01*
X119088888Y-44085169D01*
X119085236Y-44057227D01*
X119082373Y-44016856D01*
X119081477Y-43995488D01*
X119066481Y-43874027D01*
X119030228Y-43759368D01*
X118973374Y-43652875D01*
X118896575Y-43555909D01*
X118846673Y-43507663D01*
X118748881Y-43434140D01*
X118646280Y-43382284D01*
X118538455Y-43352049D01*
X118424989Y-43343392D01*
X118305465Y-43356265D01*
X118179469Y-43390624D01*
X118091783Y-43425396D01*
X117964822Y-43490340D01*
X117837680Y-43571774D01*
X117712993Y-43666945D01*
X117593388Y-43773107D01*
X117481494Y-43887512D01*
X117379945Y-44007412D01*
X117291369Y-44130059D01*
X117218397Y-44252703D01*
X117163659Y-44372599D01*
X117150950Y-44408333D01*
X117118538Y-44537262D01*
X117107199Y-44662385D01*
X117116660Y-44782314D01*
X117146637Y-44895654D01*
X117196851Y-45001016D01*
X117267024Y-45097007D01*
X117295396Y-45127278D01*
X117389073Y-45205511D01*
X117497440Y-45267467D01*
X117618936Y-45312548D01*
X117752004Y-45340152D01*
X117872023Y-45349402D01*
X117936413Y-45350815D01*
X117854392Y-45689188D01*
X117833840Y-45773517D01*
X117814766Y-45850911D01*
X117797869Y-45918602D01*
X117783847Y-45973820D01*
X117773399Y-46013803D01*
X117767225Y-46035779D01*
X117766063Y-46038994D01*
X117753428Y-46039991D01*
X117723122Y-46034123D01*
X117678590Y-46022520D01*
X117623275Y-46006309D01*
X117560622Y-45986622D01*
X117494074Y-45964586D01*
X117427078Y-45941334D01*
X117363076Y-45917993D01*
X117305513Y-45895693D01*
X117257832Y-45875562D01*
X117235289Y-45864939D01*
X117113963Y-45797092D01*
X116998778Y-45717266D01*
X116885139Y-45622018D01*
X116793840Y-45534011D01*
X116746563Y-45485186D01*
X116701659Y-45437314D01*
X116663059Y-45394697D01*
X116634694Y-45361624D01*
X116625911Y-45350460D01*
X116548002Y-45231773D01*
X116479831Y-45099794D01*
X116424136Y-44961060D01*
X116383654Y-44822105D01*
X116366099Y-44730051D01*
X116352518Y-44563451D01*
X116358363Y-44390300D01*
X116382969Y-44214363D01*
X116425675Y-44039401D01*
X116485819Y-43869172D01*
X116537751Y-43755221D01*
X116632065Y-43589846D01*
X116745943Y-43428593D01*
X116876401Y-43274432D01*
X117020456Y-43130331D01*
X117175123Y-42999260D01*
X117337418Y-42884187D01*
X117504358Y-42788082D01*
X117515251Y-42782587D01*
X117674305Y-42712464D01*
X117833167Y-42662139D01*
X117996637Y-42630494D01*
X118169517Y-42616409D01*
X118232539Y-42615421D01*
X118416446Y-42624048D01*
G36*
X118416446Y-42624048D02*
G01*
X118587919Y-42650504D01*
X118749266Y-42695519D01*
X118902794Y-42759823D01*
X119050815Y-42844145D01*
X119130751Y-42899346D01*
X119254000Y-43000581D01*
X119364168Y-43114433D01*
X119462433Y-43242642D01*
X119549973Y-43386948D01*
X119627966Y-43549093D01*
X119697592Y-43730815D01*
X119701638Y-43742703D01*
X119722616Y-43803317D01*
X119742040Y-43856791D01*
X119758440Y-43899279D01*
X119770342Y-43926931D01*
X119775310Y-43935501D01*
X119785356Y-43952631D01*
X119785643Y-43958864D01*
X119774658Y-43962634D01*
X119744727Y-43969880D01*
X119699106Y-43979963D01*
X119641046Y-43992238D01*
X119573803Y-44006065D01*
X119500631Y-44020801D01*
X119424783Y-44035804D01*
X119349513Y-44050431D01*
X119278074Y-44064042D01*
X119213719Y-44075992D01*
X119159705Y-44085642D01*
X119119283Y-44092347D01*
X119095707Y-44095466D01*
X119092755Y-44095611D01*
X119088888Y-44085169D01*
X119085236Y-44057227D01*
X119082373Y-44016856D01*
X119081477Y-43995488D01*
X119066481Y-43874027D01*
X119030228Y-43759368D01*
X118973374Y-43652875D01*
X118896575Y-43555909D01*
X118846673Y-43507663D01*
X118748881Y-43434140D01*
X118646280Y-43382284D01*
X118538455Y-43352049D01*
X118424989Y-43343392D01*
X118305465Y-43356265D01*
X118179469Y-43390624D01*
X118091783Y-43425396D01*
X117964822Y-43490340D01*
X117837680Y-43571774D01*
X117712993Y-43666945D01*
X117593388Y-43773107D01*
X117481494Y-43887512D01*
X117379945Y-44007412D01*
X117291369Y-44130059D01*
X117218397Y-44252703D01*
X117163659Y-44372599D01*
X117150950Y-44408333D01*
X117118538Y-44537262D01*
X117107199Y-44662385D01*
X117116660Y-44782314D01*
X117146637Y-44895654D01*
X117196851Y-45001016D01*
X117267024Y-45097007D01*
X117295396Y-45127278D01*
X117389073Y-45205511D01*
X117497440Y-45267467D01*
X117618936Y-45312548D01*
X117752004Y-45340152D01*
X117872023Y-45349402D01*
X117936413Y-45350815D01*
X117854392Y-45689188D01*
X117833840Y-45773517D01*
X117814766Y-45850911D01*
X117797869Y-45918602D01*
X117783847Y-45973820D01*
X117773399Y-46013803D01*
X117767225Y-46035779D01*
X117766063Y-46038994D01*
X117753428Y-46039991D01*
X117723122Y-46034123D01*
X117678590Y-46022520D01*
X117623275Y-46006309D01*
X117560622Y-45986622D01*
X117494074Y-45964586D01*
X117427078Y-45941334D01*
X117363076Y-45917993D01*
X117305513Y-45895693D01*
X117257832Y-45875562D01*
X117235289Y-45864939D01*
X117113963Y-45797092D01*
X116998778Y-45717266D01*
X116885139Y-45622018D01*
X116793840Y-45534011D01*
X116746563Y-45485186D01*
X116701659Y-45437314D01*
X116663059Y-45394697D01*
X116634694Y-45361624D01*
X116625911Y-45350460D01*
X116548002Y-45231773D01*
X116479831Y-45099794D01*
X116424136Y-44961060D01*
X116383654Y-44822105D01*
X116366099Y-44730051D01*
X116352518Y-44563451D01*
X116358363Y-44390300D01*
X116382969Y-44214363D01*
X116425675Y-44039401D01*
X116485819Y-43869172D01*
X116537751Y-43755221D01*
X116632065Y-43589846D01*
X116745943Y-43428593D01*
X116876401Y-43274432D01*
X117020456Y-43130331D01*
X117175123Y-42999260D01*
X117337418Y-42884187D01*
X117504358Y-42788082D01*
X117515251Y-42782587D01*
X117674305Y-42712464D01*
X117833167Y-42662139D01*
X117996637Y-42630494D01*
X118169517Y-42616409D01*
X118232539Y-42615421D01*
X118416446Y-42624048D01*
G37*
X123620650Y-47142246D02*
X122429408Y-48333766D01*
X122263664Y-48499537D01*
X122113110Y-48650129D01*
X121976998Y-48786344D01*
X121854574Y-48908990D01*
X121745089Y-49018873D01*
X121647791Y-49116800D01*
X121561931Y-49203575D01*
X121486756Y-49280007D01*
X121421517Y-49346899D01*
X121365459Y-49405060D01*
X121317834Y-49455295D01*
X121277893Y-49498408D01*
X121244883Y-49535208D01*
X121218052Y-49566501D01*
X121196650Y-49593090D01*
X121179926Y-49615784D01*
X121167129Y-49635389D01*
X121157508Y-49652711D01*
X121150313Y-49668554D01*
X121144791Y-49683727D01*
X121140193Y-49699035D01*
X121135767Y-49715284D01*
X121133001Y-49725396D01*
X121114298Y-49792556D01*
X120507495Y-49185753D01*
X120575346Y-49117902D01*
X120605491Y-49086723D01*
X120627563Y-49061891D01*
X120638149Y-49047332D01*
X120638435Y-49045290D01*
X120625490Y-49042080D01*
X120596812Y-49038635D01*
X120567061Y-49036286D01*
X120499661Y-49026492D01*
X120421537Y-49006357D01*
X120340533Y-48978393D01*
X120264487Y-48945114D01*
X120235848Y-48930121D01*
X120177115Y-48891986D01*
X120111486Y-48840444D01*
X120044709Y-48780800D01*
X119982529Y-48718356D01*
X119930689Y-48658413D01*
X119908142Y-48627652D01*
X119837406Y-48503088D01*
X119788207Y-48372257D01*
X119767594Y-48270305D01*
X120518423Y-48270305D01*
X120529210Y-48347791D01*
X120561567Y-48419124D01*
X120615585Y-48484704D01*
X120691355Y-48544932D01*
X120747357Y-48578699D01*
X120794968Y-48600586D01*
X120851521Y-48620585D01*
X120897032Y-48632576D01*
X120979711Y-48649679D01*
X121793018Y-47836371D01*
X121776160Y-47757900D01*
X121749571Y-47673438D01*
X121708888Y-47595063D01*
X121657127Y-47526440D01*
X121597308Y-47471227D01*
X121532445Y-47433084D01*
X121498842Y-47421498D01*
X121427479Y-47410942D01*
X121352717Y-47416468D01*
X121272265Y-47438719D01*
X121183833Y-47478339D01*
X121085131Y-47535971D01*
X121080077Y-47539213D01*
X121028864Y-47576043D01*
X120968443Y-47625656D01*
X120902544Y-47684386D01*
X120834897Y-47748564D01*
X120769235Y-47814520D01*
X120709288Y-47878585D01*
X120658789Y-47937093D01*
X120621466Y-47986373D01*
X120614566Y-47996926D01*
X120561193Y-48095274D01*
X120529114Y-48186266D01*
X120518423Y-48270305D01*
X119767594Y-48270305D01*
X119760660Y-48236008D01*
X119754873Y-48095205D01*
X119770965Y-47950699D01*
X119802074Y-47825116D01*
X119845836Y-47703760D01*
X119900528Y-47589668D01*
X119968409Y-47479367D01*
X120051731Y-47369380D01*
X120152745Y-47256233D01*
X120206995Y-47200956D01*
X120248622Y-47162289D01*
X120363030Y-47056024D01*
X120517024Y-46933064D01*
X120668848Y-46832130D01*
X120818374Y-46753278D01*
X120965470Y-46696561D01*
X121110013Y-46662035D01*
X121251872Y-46649756D01*
X121390917Y-46659781D01*
X121444739Y-46669832D01*
X121555823Y-46701513D01*
X121656869Y-46746540D01*
X121751797Y-46807300D01*
X121844524Y-46886175D01*
X121909195Y-46952327D01*
X121993121Y-47051759D01*
X122057312Y-47146801D01*
X122103361Y-47240464D01*
X122132864Y-47335759D01*
X122143225Y-47394503D01*
X122148494Y-47430764D01*
X122153246Y-47456688D01*
X122155940Y-47465604D01*
X122164740Y-47459088D01*
X122187327Y-47438327D01*
X122221766Y-47405272D01*
X122266120Y-47361879D01*
X122318453Y-47310102D01*
X122376828Y-47251896D01*
X122439308Y-47189215D01*
X122503958Y-47124014D01*
X122568840Y-47058246D01*
X122632015Y-46993866D01*
X122691552Y-46932830D01*
X122745510Y-46877092D01*
X122791955Y-46828603D01*
X122828948Y-46789322D01*
X122854555Y-46761202D01*
X122859145Y-46755917D01*
X122903578Y-46700766D01*
X122934401Y-46653596D01*
X122955177Y-46607733D01*
X122969477Y-46556507D01*
X122971820Y-46545302D01*
X122980488Y-46502084D01*
X123620650Y-47142246D01*
G36*
X123620650Y-47142246D02*
G01*
X122429408Y-48333766D01*
X122263664Y-48499537D01*
X122113110Y-48650129D01*
X121976998Y-48786344D01*
X121854574Y-48908990D01*
X121745089Y-49018873D01*
X121647791Y-49116800D01*
X121561931Y-49203575D01*
X121486756Y-49280007D01*
X121421517Y-49346899D01*
X121365459Y-49405060D01*
X121317834Y-49455295D01*
X121277893Y-49498408D01*
X121244883Y-49535208D01*
X121218052Y-49566501D01*
X121196650Y-49593090D01*
X121179926Y-49615784D01*
X121167129Y-49635389D01*
X121157508Y-49652711D01*
X121150313Y-49668554D01*
X121144791Y-49683727D01*
X121140193Y-49699035D01*
X121135767Y-49715284D01*
X121133001Y-49725396D01*
X121114298Y-49792556D01*
X120507495Y-49185753D01*
X120575346Y-49117902D01*
X120605491Y-49086723D01*
X120627563Y-49061891D01*
X120638149Y-49047332D01*
X120638435Y-49045290D01*
X120625490Y-49042080D01*
X120596812Y-49038635D01*
X120567061Y-49036286D01*
X120499661Y-49026492D01*
X120421537Y-49006357D01*
X120340533Y-48978393D01*
X120264487Y-48945114D01*
X120235848Y-48930121D01*
X120177115Y-48891986D01*
X120111486Y-48840444D01*
X120044709Y-48780800D01*
X119982529Y-48718356D01*
X119930689Y-48658413D01*
X119908142Y-48627652D01*
X119837406Y-48503088D01*
X119788207Y-48372257D01*
X119767594Y-48270305D01*
X120518423Y-48270305D01*
X120529210Y-48347791D01*
X120561567Y-48419124D01*
X120615585Y-48484704D01*
X120691355Y-48544932D01*
X120747357Y-48578699D01*
X120794968Y-48600586D01*
X120851521Y-48620585D01*
X120897032Y-48632576D01*
X120979711Y-48649679D01*
X121793018Y-47836371D01*
X121776160Y-47757900D01*
X121749571Y-47673438D01*
X121708888Y-47595063D01*
X121657127Y-47526440D01*
X121597308Y-47471227D01*
X121532445Y-47433084D01*
X121498842Y-47421498D01*
X121427479Y-47410942D01*
X121352717Y-47416468D01*
X121272265Y-47438719D01*
X121183833Y-47478339D01*
X121085131Y-47535971D01*
X121080077Y-47539213D01*
X121028864Y-47576043D01*
X120968443Y-47625656D01*
X120902544Y-47684386D01*
X120834897Y-47748564D01*
X120769235Y-47814520D01*
X120709288Y-47878585D01*
X120658789Y-47937093D01*
X120621466Y-47986373D01*
X120614566Y-47996926D01*
X120561193Y-48095274D01*
X120529114Y-48186266D01*
X120518423Y-48270305D01*
X119767594Y-48270305D01*
X119760660Y-48236008D01*
X119754873Y-48095205D01*
X119770965Y-47950699D01*
X119802074Y-47825116D01*
X119845836Y-47703760D01*
X119900528Y-47589668D01*
X119968409Y-47479367D01*
X120051731Y-47369380D01*
X120152745Y-47256233D01*
X120206995Y-47200956D01*
X120248622Y-47162289D01*
X120363030Y-47056024D01*
X120517024Y-46933064D01*
X120668848Y-46832130D01*
X120818374Y-46753278D01*
X120965470Y-46696561D01*
X121110013Y-46662035D01*
X121251872Y-46649756D01*
X121390917Y-46659781D01*
X121444739Y-46669832D01*
X121555823Y-46701513D01*
X121656869Y-46746540D01*
X121751797Y-46807300D01*
X121844524Y-46886175D01*
X121909195Y-46952327D01*
X121993121Y-47051759D01*
X122057312Y-47146801D01*
X122103361Y-47240464D01*
X122132864Y-47335759D01*
X122143225Y-47394503D01*
X122148494Y-47430764D01*
X122153246Y-47456688D01*
X122155940Y-47465604D01*
X122164740Y-47459088D01*
X122187327Y-47438327D01*
X122221766Y-47405272D01*
X122266120Y-47361879D01*
X122318453Y-47310102D01*
X122376828Y-47251896D01*
X122439308Y-47189215D01*
X122503958Y-47124014D01*
X122568840Y-47058246D01*
X122632015Y-46993866D01*
X122691552Y-46932830D01*
X122745510Y-46877092D01*
X122791955Y-46828603D01*
X122828948Y-46789322D01*
X122854555Y-46761202D01*
X122859145Y-46755917D01*
X122903578Y-46700766D01*
X122934401Y-46653596D01*
X122955177Y-46607733D01*
X122969477Y-46556507D01*
X122971820Y-46545302D01*
X122980488Y-46502084D01*
X123620650Y-47142246D01*
G37*
X119473342Y-44742636D02*
X119495654Y-44757485D01*
X119518247Y-44774875D01*
X119542935Y-44792835D01*
X119583404Y-44819947D01*
X119636003Y-44853866D01*
X119697083Y-44892257D01*
X119762988Y-44932768D01*
X119788149Y-44947997D01*
X119880533Y-45004192D01*
X119956706Y-45051995D01*
X120020180Y-45094004D01*
X120074464Y-45132825D01*
X120123067Y-45171060D01*
X120169498Y-45211313D01*
X120217268Y-45256185D01*
X120258574Y-45296930D01*
X120373678Y-45421458D01*
X120466949Y-45543033D01*
X120538811Y-45662462D01*
X120589695Y-45780553D01*
X120620027Y-45898113D01*
X120629961Y-45997936D01*
X120626218Y-46099034D01*
X120607811Y-46193441D01*
X120572940Y-46288989D01*
X120553426Y-46330386D01*
X120534956Y-46367043D01*
X120517317Y-46400524D01*
X120499306Y-46432216D01*
X120479720Y-46463507D01*
X120457352Y-46495784D01*
X120431001Y-46530435D01*
X120399460Y-46568847D01*
X120361527Y-46612406D01*
X120315998Y-46662504D01*
X120261668Y-46720524D01*
X120197333Y-46787854D01*
X120121790Y-46865882D01*
X120033833Y-46955996D01*
X119932259Y-47059582D01*
X119832194Y-47161420D01*
X119722690Y-47272800D01*
X119627891Y-47369303D01*
X119546716Y-47452188D01*
X119478085Y-47522714D01*
X119420912Y-47582140D01*
X119374118Y-47631728D01*
X119336618Y-47672737D01*
X119307330Y-47706427D01*
X119285172Y-47734057D01*
X119269060Y-47756888D01*
X119257914Y-47776178D01*
X119250649Y-47793188D01*
X119246184Y-47809180D01*
X119243436Y-47825411D01*
X119241323Y-47843141D01*
X119240521Y-47850024D01*
X119235558Y-47877360D01*
X119229536Y-47893332D01*
X119229227Y-47893673D01*
X119219981Y-47887536D01*
X119196638Y-47867059D01*
X119160985Y-47833945D01*
X119114811Y-47789903D01*
X119059897Y-47736638D01*
X118998033Y-47675853D01*
X118931004Y-47609258D01*
X118923289Y-47601548D01*
X118624259Y-47302516D01*
X118689882Y-47232282D01*
X118755503Y-47162045D01*
X118675547Y-47154195D01*
X118558985Y-47133112D01*
X118442600Y-47094073D01*
X118360086Y-47054310D01*
X118300859Y-47015855D01*
X118234854Y-46963981D01*
X118167852Y-46904033D01*
X118105641Y-46841351D01*
X118054000Y-46781278D01*
X118032422Y-46751619D01*
X117960186Y-46625839D01*
X117909570Y-46497663D01*
X117892315Y-46420507D01*
X118589208Y-46420507D01*
X118589664Y-46427203D01*
X118599187Y-46485978D01*
X118619782Y-46538510D01*
X118654297Y-46589882D01*
X118705577Y-46645184D01*
X118718667Y-46657699D01*
X118758598Y-46693880D01*
X118790734Y-46718356D01*
X118822681Y-46735929D01*
X118862048Y-46751403D01*
X118873235Y-46755267D01*
X118941456Y-46772819D01*
X119004707Y-46775780D01*
X119024488Y-46774011D01*
X119096035Y-46765638D01*
X119234540Y-46627133D01*
X119289773Y-46571142D01*
X119329555Y-46528969D01*
X119355114Y-46499213D01*
X119367674Y-46480472D01*
X119369358Y-46473009D01*
X119360334Y-46459514D01*
X119338301Y-46433770D01*
X119306418Y-46399294D01*
X119267845Y-46359592D01*
X119261571Y-46353298D01*
X119172455Y-46271612D01*
X119088424Y-46210445D01*
X119007635Y-46168828D01*
X118928247Y-46145792D01*
X118856207Y-46140150D01*
X118783776Y-46149582D01*
X118721711Y-46176681D01*
X118665977Y-46222187D01*
X118619479Y-46281828D01*
X118594277Y-46346892D01*
X118589208Y-46420507D01*
X117892315Y-46420507D01*
X117880643Y-46368315D01*
X117873470Y-46239018D01*
X117888127Y-46110994D01*
X117924678Y-45985471D01*
X117982460Y-45864934D01*
X118013749Y-45816202D01*
X118052349Y-45766840D01*
X118102702Y-45711354D01*
X118126321Y-45687037D01*
X118128619Y-45684831D01*
X118193984Y-45622110D01*
X118255674Y-45572218D01*
X118317523Y-45533344D01*
X118385662Y-45501462D01*
X118439661Y-45481398D01*
X118548496Y-45455462D01*
X118665963Y-45448441D01*
X118789249Y-45459788D01*
X118915537Y-45488952D01*
X119042018Y-45535390D01*
X119165878Y-45598552D01*
X119222168Y-45633715D01*
X119334094Y-45714380D01*
X119449372Y-45809035D01*
X119560980Y-45911618D01*
X119649317Y-46002263D01*
X119758994Y-46121527D01*
X119795452Y-46074575D01*
X119851922Y-45990823D01*
X119886985Y-45911730D01*
X119900470Y-45836253D01*
X119892204Y-45763344D01*
X119862019Y-45691957D01*
X119809742Y-45621047D01*
X119735199Y-45549565D01*
X119705518Y-45525542D01*
X119587884Y-45443501D01*
X119462127Y-45375775D01*
X119368414Y-45335804D01*
X119322781Y-45317571D01*
X119284595Y-45301404D01*
X119259142Y-45289591D01*
X119252259Y-45285603D01*
X119251788Y-45272293D01*
X119260450Y-45239987D01*
X119278366Y-45188341D01*
X119305657Y-45117013D01*
X119342439Y-45025662D01*
X119348940Y-45009832D01*
X119378822Y-44937442D01*
X119405952Y-44872158D01*
X119429130Y-44816822D01*
X119447166Y-44774279D01*
X119458856Y-44747375D01*
X119462909Y-44738928D01*
X119473342Y-44742636D01*
G36*
X119473342Y-44742636D02*
G01*
X119495654Y-44757485D01*
X119518247Y-44774875D01*
X119542935Y-44792835D01*
X119583404Y-44819947D01*
X119636003Y-44853866D01*
X119697083Y-44892257D01*
X119762988Y-44932768D01*
X119788149Y-44947997D01*
X119880533Y-45004192D01*
X119956706Y-45051995D01*
X120020180Y-45094004D01*
X120074464Y-45132825D01*
X120123067Y-45171060D01*
X120169498Y-45211313D01*
X120217268Y-45256185D01*
X120258574Y-45296930D01*
X120373678Y-45421458D01*
X120466949Y-45543033D01*
X120538811Y-45662462D01*
X120589695Y-45780553D01*
X120620027Y-45898113D01*
X120629961Y-45997936D01*
X120626218Y-46099034D01*
X120607811Y-46193441D01*
X120572940Y-46288989D01*
X120553426Y-46330386D01*
X120534956Y-46367043D01*
X120517317Y-46400524D01*
X120499306Y-46432216D01*
X120479720Y-46463507D01*
X120457352Y-46495784D01*
X120431001Y-46530435D01*
X120399460Y-46568847D01*
X120361527Y-46612406D01*
X120315998Y-46662504D01*
X120261668Y-46720524D01*
X120197333Y-46787854D01*
X120121790Y-46865882D01*
X120033833Y-46955996D01*
X119932259Y-47059582D01*
X119832194Y-47161420D01*
X119722690Y-47272800D01*
X119627891Y-47369303D01*
X119546716Y-47452188D01*
X119478085Y-47522714D01*
X119420912Y-47582140D01*
X119374118Y-47631728D01*
X119336618Y-47672737D01*
X119307330Y-47706427D01*
X119285172Y-47734057D01*
X119269060Y-47756888D01*
X119257914Y-47776178D01*
X119250649Y-47793188D01*
X119246184Y-47809180D01*
X119243436Y-47825411D01*
X119241323Y-47843141D01*
X119240521Y-47850024D01*
X119235558Y-47877360D01*
X119229536Y-47893332D01*
X119229227Y-47893673D01*
X119219981Y-47887536D01*
X119196638Y-47867059D01*
X119160985Y-47833945D01*
X119114811Y-47789903D01*
X119059897Y-47736638D01*
X118998033Y-47675853D01*
X118931004Y-47609258D01*
X118923289Y-47601548D01*
X118624259Y-47302516D01*
X118689882Y-47232282D01*
X118755503Y-47162045D01*
X118675547Y-47154195D01*
X118558985Y-47133112D01*
X118442600Y-47094073D01*
X118360086Y-47054310D01*
X118300859Y-47015855D01*
X118234854Y-46963981D01*
X118167852Y-46904033D01*
X118105641Y-46841351D01*
X118054000Y-46781278D01*
X118032422Y-46751619D01*
X117960186Y-46625839D01*
X117909570Y-46497663D01*
X117892315Y-46420507D01*
X118589208Y-46420507D01*
X118589664Y-46427203D01*
X118599187Y-46485978D01*
X118619782Y-46538510D01*
X118654297Y-46589882D01*
X118705577Y-46645184D01*
X118718667Y-46657699D01*
X118758598Y-46693880D01*
X118790734Y-46718356D01*
X118822681Y-46735929D01*
X118862048Y-46751403D01*
X118873235Y-46755267D01*
X118941456Y-46772819D01*
X119004707Y-46775780D01*
X119024488Y-46774011D01*
X119096035Y-46765638D01*
X119234540Y-46627133D01*
X119289773Y-46571142D01*
X119329555Y-46528969D01*
X119355114Y-46499213D01*
X119367674Y-46480472D01*
X119369358Y-46473009D01*
X119360334Y-46459514D01*
X119338301Y-46433770D01*
X119306418Y-46399294D01*
X119267845Y-46359592D01*
X119261571Y-46353298D01*
X119172455Y-46271612D01*
X119088424Y-46210445D01*
X119007635Y-46168828D01*
X118928247Y-46145792D01*
X118856207Y-46140150D01*
X118783776Y-46149582D01*
X118721711Y-46176681D01*
X118665977Y-46222187D01*
X118619479Y-46281828D01*
X118594277Y-46346892D01*
X118589208Y-46420507D01*
X117892315Y-46420507D01*
X117880643Y-46368315D01*
X117873470Y-46239018D01*
X117888127Y-46110994D01*
X117924678Y-45985471D01*
X117982460Y-45864934D01*
X118013749Y-45816202D01*
X118052349Y-45766840D01*
X118102702Y-45711354D01*
X118126321Y-45687037D01*
X118128619Y-45684831D01*
X118193984Y-45622110D01*
X118255674Y-45572218D01*
X118317523Y-45533344D01*
X118385662Y-45501462D01*
X118439661Y-45481398D01*
X118548496Y-45455462D01*
X118665963Y-45448441D01*
X118789249Y-45459788D01*
X118915537Y-45488952D01*
X119042018Y-45535390D01*
X119165878Y-45598552D01*
X119222168Y-45633715D01*
X119334094Y-45714380D01*
X119449372Y-45809035D01*
X119560980Y-45911618D01*
X119649317Y-46002263D01*
X119758994Y-46121527D01*
X119795452Y-46074575D01*
X119851922Y-45990823D01*
X119886985Y-45911730D01*
X119900470Y-45836253D01*
X119892204Y-45763344D01*
X119862019Y-45691957D01*
X119809742Y-45621047D01*
X119735199Y-45549565D01*
X119705518Y-45525542D01*
X119587884Y-45443501D01*
X119462127Y-45375775D01*
X119368414Y-45335804D01*
X119322781Y-45317571D01*
X119284595Y-45301404D01*
X119259142Y-45289591D01*
X119252259Y-45285603D01*
X119251788Y-45272293D01*
X119260450Y-45239987D01*
X119278366Y-45188341D01*
X119305657Y-45117013D01*
X119342439Y-45025662D01*
X119348940Y-45009832D01*
X119378822Y-44937442D01*
X119405952Y-44872158D01*
X119429130Y-44816822D01*
X119447166Y-44774279D01*
X119458856Y-44747375D01*
X119462909Y-44738928D01*
X119473342Y-44742636D01*
G37*
X115096550Y-38100699D02*
X115103415Y-38102599D01*
X115110704Y-38104893D01*
X115117467Y-38106609D01*
X115122988Y-38108488D01*
X115130417Y-38112623D01*
X115140532Y-38119777D01*
X115154121Y-38130720D01*
X115171963Y-38146215D01*
X115194841Y-38167024D01*
X115223540Y-38193918D01*
X115258838Y-38227656D01*
X115301524Y-38269007D01*
X115352377Y-38318739D01*
X115412180Y-38377610D01*
X115481716Y-38446391D01*
X115561769Y-38525846D01*
X115653119Y-38616738D01*
X115756551Y-38719835D01*
X115872847Y-38835902D01*
X116002789Y-38965703D01*
X116147161Y-39110004D01*
X116296472Y-39259296D01*
X117442234Y-40405059D01*
X117373796Y-40473498D01*
X117300910Y-40561747D01*
X117247167Y-40660205D01*
X117213158Y-40766202D01*
X117199477Y-40877070D01*
X117206720Y-40990140D01*
X117234381Y-41099639D01*
X117281507Y-41202798D01*
X117344049Y-41291598D01*
X117419559Y-41365499D01*
X117505600Y-41423957D01*
X117599727Y-41466430D01*
X117699498Y-41492377D01*
X117802468Y-41501258D01*
X117906200Y-41492530D01*
X118008248Y-41465650D01*
X118106169Y-41420080D01*
X118197522Y-41355275D01*
X118234174Y-41321363D01*
X118296356Y-41259181D01*
X118333076Y-41295900D01*
X118356738Y-41323584D01*
X118367413Y-41350949D01*
X118369795Y-41386900D01*
X118369795Y-41441180D01*
X116820120Y-42990854D01*
X116634755Y-43176208D01*
X116464672Y-43346246D01*
X116309200Y-43501627D01*
X116167667Y-43643013D01*
X116039402Y-43771064D01*
X115923734Y-43886440D01*
X115819991Y-43989798D01*
X115727500Y-44081802D01*
X115645593Y-44163112D01*
X115573593Y-44234384D01*
X115510834Y-44296282D01*
X115456641Y-44349464D01*
X115410342Y-44394591D01*
X115371268Y-44432323D01*
X115338748Y-44463319D01*
X115312105Y-44488241D01*
X115290675Y-44507745D01*
X115273780Y-44522496D01*
X115260753Y-44533151D01*
X115250920Y-44540371D01*
X115243609Y-44544816D01*
X115238151Y-44547145D01*
X115236077Y-44547688D01*
X115228175Y-44549702D01*
X115221116Y-44551761D01*
X115214234Y-44553230D01*
X115206857Y-44553468D01*
X115198314Y-44551844D01*
X115187940Y-44547720D01*
X115175060Y-44540460D01*
X115159010Y-44529430D01*
X115139115Y-44513989D01*
X115114711Y-44493504D01*
X115085125Y-44467339D01*
X115049689Y-44434859D01*
X115007734Y-44395427D01*
X114958587Y-44348405D01*
X114901583Y-44293158D01*
X114836050Y-44229052D01*
X114761321Y-44155449D01*
X114676723Y-44071712D01*
X114581590Y-43977208D01*
X114475250Y-43871298D01*
X114357035Y-43753348D01*
X114226275Y-43622721D01*
X114082300Y-43478780D01*
X113934532Y-43330981D01*
X114675961Y-43330981D01*
X114682912Y-43339455D01*
X114704261Y-43362220D01*
X114738406Y-43397637D01*
X114783742Y-43444069D01*
X114838666Y-43499881D01*
X114901578Y-43563434D01*
X114970869Y-43633090D01*
X115019561Y-43681855D01*
X115093957Y-43755939D01*
X115162881Y-43823970D01*
X115224755Y-43884431D01*
X115277999Y-43935804D01*
X115321032Y-43976574D01*
X115352278Y-44005225D01*
X115370158Y-44020241D01*
X115373803Y-44022084D01*
X115378897Y-44006104D01*
X115378921Y-43994771D01*
X115381716Y-43973347D01*
X115390917Y-43939766D01*
X115399854Y-43913969D01*
X115422674Y-43853477D01*
X116252670Y-43019132D01*
X117082667Y-42184787D01*
X116767538Y-41869659D01*
X116698255Y-41800608D01*
X116634006Y-41737022D01*
X116576516Y-41680573D01*
X116527513Y-41632941D01*
X116488723Y-41595797D01*
X116461872Y-41570816D01*
X116448688Y-41559678D01*
X116447656Y-41559286D01*
X116442672Y-41572627D01*
X116437073Y-41598492D01*
X116436764Y-41600281D01*
X116428728Y-41634887D01*
X116416577Y-41674823D01*
X116413581Y-41683333D01*
X116410121Y-41691792D01*
X116405176Y-41701159D01*
X116397782Y-41712434D01*
X116386974Y-41726627D01*
X116371791Y-41744743D01*
X116351267Y-41767789D01*
X116324438Y-41796772D01*
X116290342Y-41832695D01*
X116248014Y-41876569D01*
X116196492Y-41929399D01*
X116134808Y-41992190D01*
X116062002Y-42065949D01*
X115977110Y-42151683D01*
X115879166Y-42250398D01*
X115767209Y-42363098D01*
X115641115Y-42489946D01*
X115510597Y-42621226D01*
X115394983Y-42737455D01*
X115293234Y-42839576D01*
X115204315Y-42928531D01*
X115127189Y-43005260D01*
X115060820Y-43070704D01*
X115004170Y-43125804D01*
X114956203Y-43171503D01*
X114915882Y-43208742D01*
X114882173Y-43238461D01*
X114854038Y-43261601D01*
X114830440Y-43279104D01*
X114810341Y-43291911D01*
X114792707Y-43300963D01*
X114776500Y-43307203D01*
X114760685Y-43311568D01*
X114744223Y-43315004D01*
X114729397Y-43317809D01*
X114698688Y-43324285D01*
X114679079Y-43329545D01*
X114675961Y-43330981D01*
X113934532Y-43330981D01*
X113924443Y-43320890D01*
X113752031Y-43148414D01*
X113564396Y-42960719D01*
X113537259Y-42933574D01*
X113348507Y-42744761D01*
X113175090Y-42571244D01*
X113016362Y-42412367D01*
X112871677Y-42267475D01*
X112740393Y-42135912D01*
X112621861Y-42017023D01*
X112515439Y-41910153D01*
X112420479Y-41814647D01*
X112336341Y-41729848D01*
X112262374Y-41655103D01*
X112197937Y-41589756D01*
X112142382Y-41533152D01*
X112095067Y-41484635D01*
X112055345Y-41443550D01*
X112022571Y-41409240D01*
X111996101Y-41381053D01*
X111975288Y-41358331D01*
X111959489Y-41340422D01*
X111948058Y-41326667D01*
X111940350Y-41316413D01*
X111935722Y-41309002D01*
X111933819Y-41304742D01*
X111930360Y-41296233D01*
X111926731Y-41288876D01*
X111923571Y-41281989D01*
X111921521Y-41274886D01*
X111921220Y-41266891D01*
X111923310Y-41257321D01*
X111928430Y-41245490D01*
X111937221Y-41230721D01*
X111950320Y-41212329D01*
X111968371Y-41189634D01*
X111992011Y-41161955D01*
X112021884Y-41128609D01*
X112033021Y-41116576D01*
X112454283Y-41116576D01*
X112830156Y-41492448D01*
X112917330Y-41579574D01*
X112989912Y-41651943D01*
X113049241Y-41710796D01*
X113096657Y-41757374D01*
X113133500Y-41792917D01*
X113161109Y-41818666D01*
X113180826Y-41835863D01*
X113193988Y-41845747D01*
X113201936Y-41849559D01*
X113206011Y-41848539D01*
X113207551Y-41843929D01*
X113207716Y-41842072D01*
X113216146Y-41798073D01*
X113235170Y-41742426D01*
X113262317Y-41681889D01*
X113275147Y-41657366D01*
X113284569Y-41641415D01*
X113296703Y-41623765D01*
X113312964Y-41602879D01*
X113334770Y-41577228D01*
X113363538Y-41545281D01*
X113400685Y-41505501D01*
X113447625Y-41456356D01*
X113505776Y-41396316D01*
X113576554Y-41323844D01*
X113661375Y-41237411D01*
X113692717Y-41205538D01*
X113780492Y-41116323D01*
X113853756Y-41041989D01*
X113913812Y-40981306D01*
X113961971Y-40933053D01*
X113999541Y-40895997D01*
X114027831Y-40868920D01*
X114048151Y-40850591D01*
X114061807Y-40839784D01*
X114070111Y-40835275D01*
X114074369Y-40835835D01*
X114075891Y-40840241D01*
X114076002Y-40846455D01*
X114074178Y-40862924D01*
X114069218Y-40899080D01*
X114061521Y-40952314D01*
X114051497Y-41020013D01*
X114039547Y-41099569D01*
X114026073Y-41188371D01*
X114011482Y-41283806D01*
X113996172Y-41383266D01*
X113980551Y-41484139D01*
X113965020Y-41583816D01*
X113949984Y-41679684D01*
X113935847Y-41769132D01*
X113923008Y-41849554D01*
X113911876Y-41918333D01*
X113902852Y-41972863D01*
X113896340Y-42010532D01*
X113894880Y-42018452D01*
X113884994Y-42060754D01*
X113870016Y-42113645D01*
X113852947Y-42166632D01*
X113850502Y-42173633D01*
X113831751Y-42223042D01*
X113814090Y-42258501D01*
X113792810Y-42287886D01*
X113763873Y-42318402D01*
X113709543Y-42371835D01*
X114525854Y-43188148D01*
X114527670Y-43057407D01*
X114529859Y-42989036D01*
X114534239Y-42913541D01*
X114540055Y-42842608D01*
X114543538Y-42810238D01*
X114549979Y-42760753D01*
X114559281Y-42694803D01*
X114571125Y-42614371D01*
X114585184Y-42521436D01*
X114601135Y-42417979D01*
X114618654Y-42305980D01*
X114637416Y-42187419D01*
X114657096Y-42064276D01*
X114677373Y-41938534D01*
X114697922Y-41812170D01*
X114718417Y-41687167D01*
X114738534Y-41565505D01*
X114757949Y-41449161D01*
X114776340Y-41340120D01*
X114793380Y-41240361D01*
X114808749Y-41151863D01*
X114822118Y-41076605D01*
X114833167Y-41016572D01*
X114841568Y-40973740D01*
X114847000Y-40950093D01*
X114848659Y-40945947D01*
X114862295Y-40943567D01*
X114896219Y-40939052D01*
X114948262Y-40932642D01*
X115016259Y-40924575D01*
X115098044Y-40915089D01*
X115191448Y-40904425D01*
X115294309Y-40892819D01*
X115404456Y-40880510D01*
X115519728Y-40867739D01*
X115637953Y-40854741D01*
X115732767Y-40844397D01*
X115756969Y-40841757D01*
X115874607Y-40829026D01*
X115988701Y-40816785D01*
X116097087Y-40805274D01*
X116197595Y-40794728D01*
X116288061Y-40785391D01*
X116366318Y-40777498D01*
X116430200Y-40771289D01*
X116456952Y-40768811D01*
X116589149Y-40758650D01*
X116702184Y-40753942D01*
X116798800Y-40754643D01*
X116881732Y-40760715D01*
X116893575Y-40762139D01*
X116943154Y-40768437D01*
X116143056Y-39967985D01*
X116112871Y-40005650D01*
X116069987Y-40043862D01*
X116006484Y-40076915D01*
X115921827Y-40105041D01*
X115838678Y-40124115D01*
X115811198Y-40128659D01*
X115764805Y-40135379D01*
X115702197Y-40143941D01*
X115626071Y-40154014D01*
X115539124Y-40165267D01*
X115444051Y-40177368D01*
X115343550Y-40189984D01*
X115240316Y-40202785D01*
X115137049Y-40215437D01*
X115036443Y-40227610D01*
X114941195Y-40238972D01*
X114854004Y-40249191D01*
X114777563Y-40257935D01*
X114714572Y-40264873D01*
X114667727Y-40269673D01*
X114639720Y-40272003D01*
X114635226Y-40272172D01*
X114638866Y-40264488D01*
X114658722Y-40241502D01*
X114694597Y-40203415D01*
X114746297Y-40150428D01*
X114813624Y-40082743D01*
X114896380Y-40000561D01*
X114981869Y-39916359D01*
X115076220Y-39823877D01*
X115156311Y-39745942D01*
X115223871Y-39681177D01*
X115280639Y-39628192D01*
X115328346Y-39585611D01*
X115368731Y-39552044D01*
X115403525Y-39526113D01*
X115434464Y-39506434D01*
X115463284Y-39491623D01*
X115491716Y-39480296D01*
X115521497Y-39471073D01*
X115549585Y-39463750D01*
X115621071Y-39446000D01*
X114871620Y-38696550D01*
X114858854Y-38765587D01*
X114855604Y-38784636D01*
X114852852Y-38801629D01*
X114849800Y-38817448D01*
X114845651Y-38832969D01*
X114839604Y-38849073D01*
X114830862Y-38866638D01*
X114818625Y-38886543D01*
X114802094Y-38909668D01*
X114780472Y-38936892D01*
X114752959Y-38969095D01*
X114718755Y-39007153D01*
X114677064Y-39051949D01*
X114627084Y-39104359D01*
X114568021Y-39165262D01*
X114499072Y-39235540D01*
X114419440Y-39316070D01*
X114328325Y-39407731D01*
X114224931Y-39511402D01*
X114108455Y-39627964D01*
X113978102Y-39758293D01*
X113833072Y-39903272D01*
X113746360Y-39989972D01*
X113592971Y-40143394D01*
X113454713Y-40281700D01*
X113330710Y-40405688D01*
X113220077Y-40516157D01*
X113121939Y-40613910D01*
X113035414Y-40699745D01*
X112959623Y-40774463D01*
X112893687Y-40838864D01*
X112836725Y-40893748D01*
X112787859Y-40939914D01*
X112746208Y-40978166D01*
X112710892Y-41009299D01*
X112681033Y-41034117D01*
X112655751Y-41053419D01*
X112634167Y-41068001D01*
X112615399Y-41078670D01*
X112598568Y-41086223D01*
X112582798Y-41091458D01*
X112567205Y-41095179D01*
X112550909Y-41098183D01*
X112533034Y-41101272D01*
X112522441Y-41103251D01*
X112454283Y-41116576D01*
X112033021Y-41116576D01*
X112058624Y-41088912D01*
X112102878Y-41042186D01*
X112155282Y-40987746D01*
X112216475Y-40924915D01*
X112287101Y-40853005D01*
X112367797Y-40771339D01*
X112459207Y-40679232D01*
X112561965Y-40576004D01*
X112676716Y-40460973D01*
X112804098Y-40333458D01*
X112944752Y-40192776D01*
X113099316Y-40038243D01*
X113268433Y-39869182D01*
X113452741Y-39684908D01*
X113482547Y-39655101D01*
X113668433Y-39469195D01*
X113839012Y-39298581D01*
X113994969Y-39142610D01*
X114136987Y-39000635D01*
X114265749Y-38872005D01*
X114381939Y-38756077D01*
X114486243Y-38652201D01*
X114579342Y-38559730D01*
X114657482Y-38482412D01*
X114661925Y-38478015D01*
X114734671Y-38406408D01*
X114798266Y-38344264D01*
X114853393Y-38290934D01*
X114900737Y-38245767D01*
X114940981Y-38208119D01*
X114974810Y-38177341D01*
X115002907Y-38152785D01*
X115025956Y-38133802D01*
X115044642Y-38119748D01*
X115059646Y-38109971D01*
X115071658Y-38103826D01*
X115081355Y-38100664D01*
X115089423Y-38099838D01*
X115096550Y-38100699D01*
G36*
X115096550Y-38100699D02*
G01*
X115103415Y-38102599D01*
X115110704Y-38104893D01*
X115117467Y-38106609D01*
X115122988Y-38108488D01*
X115130417Y-38112623D01*
X115140532Y-38119777D01*
X115154121Y-38130720D01*
X115171963Y-38146215D01*
X115194841Y-38167024D01*
X115223540Y-38193918D01*
X115258838Y-38227656D01*
X115301524Y-38269007D01*
X115352377Y-38318739D01*
X115412180Y-38377610D01*
X115481716Y-38446391D01*
X115561769Y-38525846D01*
X115653119Y-38616738D01*
X115756551Y-38719835D01*
X115872847Y-38835902D01*
X116002789Y-38965703D01*
X116147161Y-39110004D01*
X116296472Y-39259296D01*
X117442234Y-40405059D01*
X117373796Y-40473498D01*
X117300910Y-40561747D01*
X117247167Y-40660205D01*
X117213158Y-40766202D01*
X117199477Y-40877070D01*
X117206720Y-40990140D01*
X117234381Y-41099639D01*
X117281507Y-41202798D01*
X117344049Y-41291598D01*
X117419559Y-41365499D01*
X117505600Y-41423957D01*
X117599727Y-41466430D01*
X117699498Y-41492377D01*
X117802468Y-41501258D01*
X117906200Y-41492530D01*
X118008248Y-41465650D01*
X118106169Y-41420080D01*
X118197522Y-41355275D01*
X118234174Y-41321363D01*
X118296356Y-41259181D01*
X118333076Y-41295900D01*
X118356738Y-41323584D01*
X118367413Y-41350949D01*
X118369795Y-41386900D01*
X118369795Y-41441180D01*
X116820120Y-42990854D01*
X116634755Y-43176208D01*
X116464672Y-43346246D01*
X116309200Y-43501627D01*
X116167667Y-43643013D01*
X116039402Y-43771064D01*
X115923734Y-43886440D01*
X115819991Y-43989798D01*
X115727500Y-44081802D01*
X115645593Y-44163112D01*
X115573593Y-44234384D01*
X115510834Y-44296282D01*
X115456641Y-44349464D01*
X115410342Y-44394591D01*
X115371268Y-44432323D01*
X115338748Y-44463319D01*
X115312105Y-44488241D01*
X115290675Y-44507745D01*
X115273780Y-44522496D01*
X115260753Y-44533151D01*
X115250920Y-44540371D01*
X115243609Y-44544816D01*
X115238151Y-44547145D01*
X115236077Y-44547688D01*
X115228175Y-44549702D01*
X115221116Y-44551761D01*
X115214234Y-44553230D01*
X115206857Y-44553468D01*
X115198314Y-44551844D01*
X115187940Y-44547720D01*
X115175060Y-44540460D01*
X115159010Y-44529430D01*
X115139115Y-44513989D01*
X115114711Y-44493504D01*
X115085125Y-44467339D01*
X115049689Y-44434859D01*
X115007734Y-44395427D01*
X114958587Y-44348405D01*
X114901583Y-44293158D01*
X114836050Y-44229052D01*
X114761321Y-44155449D01*
X114676723Y-44071712D01*
X114581590Y-43977208D01*
X114475250Y-43871298D01*
X114357035Y-43753348D01*
X114226275Y-43622721D01*
X114082300Y-43478780D01*
X113934532Y-43330981D01*
X114675961Y-43330981D01*
X114682912Y-43339455D01*
X114704261Y-43362220D01*
X114738406Y-43397637D01*
X114783742Y-43444069D01*
X114838666Y-43499881D01*
X114901578Y-43563434D01*
X114970869Y-43633090D01*
X115019561Y-43681855D01*
X115093957Y-43755939D01*
X115162881Y-43823970D01*
X115224755Y-43884431D01*
X115277999Y-43935804D01*
X115321032Y-43976574D01*
X115352278Y-44005225D01*
X115370158Y-44020241D01*
X115373803Y-44022084D01*
X115378897Y-44006104D01*
X115378921Y-43994771D01*
X115381716Y-43973347D01*
X115390917Y-43939766D01*
X115399854Y-43913969D01*
X115422674Y-43853477D01*
X116252670Y-43019132D01*
X117082667Y-42184787D01*
X116767538Y-41869659D01*
X116698255Y-41800608D01*
X116634006Y-41737022D01*
X116576516Y-41680573D01*
X116527513Y-41632941D01*
X116488723Y-41595797D01*
X116461872Y-41570816D01*
X116448688Y-41559678D01*
X116447656Y-41559286D01*
X116442672Y-41572627D01*
X116437073Y-41598492D01*
X116436764Y-41600281D01*
X116428728Y-41634887D01*
X116416577Y-41674823D01*
X116413581Y-41683333D01*
X116410121Y-41691792D01*
X116405176Y-41701159D01*
X116397782Y-41712434D01*
X116386974Y-41726627D01*
X116371791Y-41744743D01*
X116351267Y-41767789D01*
X116324438Y-41796772D01*
X116290342Y-41832695D01*
X116248014Y-41876569D01*
X116196492Y-41929399D01*
X116134808Y-41992190D01*
X116062002Y-42065949D01*
X115977110Y-42151683D01*
X115879166Y-42250398D01*
X115767209Y-42363098D01*
X115641115Y-42489946D01*
X115510597Y-42621226D01*
X115394983Y-42737455D01*
X115293234Y-42839576D01*
X115204315Y-42928531D01*
X115127189Y-43005260D01*
X115060820Y-43070704D01*
X115004170Y-43125804D01*
X114956203Y-43171503D01*
X114915882Y-43208742D01*
X114882173Y-43238461D01*
X114854038Y-43261601D01*
X114830440Y-43279104D01*
X114810341Y-43291911D01*
X114792707Y-43300963D01*
X114776500Y-43307203D01*
X114760685Y-43311568D01*
X114744223Y-43315004D01*
X114729397Y-43317809D01*
X114698688Y-43324285D01*
X114679079Y-43329545D01*
X114675961Y-43330981D01*
X113934532Y-43330981D01*
X113924443Y-43320890D01*
X113752031Y-43148414D01*
X113564396Y-42960719D01*
X113537259Y-42933574D01*
X113348507Y-42744761D01*
X113175090Y-42571244D01*
X113016362Y-42412367D01*
X112871677Y-42267475D01*
X112740393Y-42135912D01*
X112621861Y-42017023D01*
X112515439Y-41910153D01*
X112420479Y-41814647D01*
X112336341Y-41729848D01*
X112262374Y-41655103D01*
X112197937Y-41589756D01*
X112142382Y-41533152D01*
X112095067Y-41484635D01*
X112055345Y-41443550D01*
X112022571Y-41409240D01*
X111996101Y-41381053D01*
X111975288Y-41358331D01*
X111959489Y-41340422D01*
X111948058Y-41326667D01*
X111940350Y-41316413D01*
X111935722Y-41309002D01*
X111933819Y-41304742D01*
X111930360Y-41296233D01*
X111926731Y-41288876D01*
X111923571Y-41281989D01*
X111921521Y-41274886D01*
X111921220Y-41266891D01*
X111923310Y-41257321D01*
X111928430Y-41245490D01*
X111937221Y-41230721D01*
X111950320Y-41212329D01*
X111968371Y-41189634D01*
X111992011Y-41161955D01*
X112021884Y-41128609D01*
X112033021Y-41116576D01*
X112454283Y-41116576D01*
X112830156Y-41492448D01*
X112917330Y-41579574D01*
X112989912Y-41651943D01*
X113049241Y-41710796D01*
X113096657Y-41757374D01*
X113133500Y-41792917D01*
X113161109Y-41818666D01*
X113180826Y-41835863D01*
X113193988Y-41845747D01*
X113201936Y-41849559D01*
X113206011Y-41848539D01*
X113207551Y-41843929D01*
X113207716Y-41842072D01*
X113216146Y-41798073D01*
X113235170Y-41742426D01*
X113262317Y-41681889D01*
X113275147Y-41657366D01*
X113284569Y-41641415D01*
X113296703Y-41623765D01*
X113312964Y-41602879D01*
X113334770Y-41577228D01*
X113363538Y-41545281D01*
X113400685Y-41505501D01*
X113447625Y-41456356D01*
X113505776Y-41396316D01*
X113576554Y-41323844D01*
X113661375Y-41237411D01*
X113692717Y-41205538D01*
X113780492Y-41116323D01*
X113853756Y-41041989D01*
X113913812Y-40981306D01*
X113961971Y-40933053D01*
X113999541Y-40895997D01*
X114027831Y-40868920D01*
X114048151Y-40850591D01*
X114061807Y-40839784D01*
X114070111Y-40835275D01*
X114074369Y-40835835D01*
X114075891Y-40840241D01*
X114076002Y-40846455D01*
X114074178Y-40862924D01*
X114069218Y-40899080D01*
X114061521Y-40952314D01*
X114051497Y-41020013D01*
X114039547Y-41099569D01*
X114026073Y-41188371D01*
X114011482Y-41283806D01*
X113996172Y-41383266D01*
X113980551Y-41484139D01*
X113965020Y-41583816D01*
X113949984Y-41679684D01*
X113935847Y-41769132D01*
X113923008Y-41849554D01*
X113911876Y-41918333D01*
X113902852Y-41972863D01*
X113896340Y-42010532D01*
X113894880Y-42018452D01*
X113884994Y-42060754D01*
X113870016Y-42113645D01*
X113852947Y-42166632D01*
X113850502Y-42173633D01*
X113831751Y-42223042D01*
X113814090Y-42258501D01*
X113792810Y-42287886D01*
X113763873Y-42318402D01*
X113709543Y-42371835D01*
X114525854Y-43188148D01*
X114527670Y-43057407D01*
X114529859Y-42989036D01*
X114534239Y-42913541D01*
X114540055Y-42842608D01*
X114543538Y-42810238D01*
X114549979Y-42760753D01*
X114559281Y-42694803D01*
X114571125Y-42614371D01*
X114585184Y-42521436D01*
X114601135Y-42417979D01*
X114618654Y-42305980D01*
X114637416Y-42187419D01*
X114657096Y-42064276D01*
X114677373Y-41938534D01*
X114697922Y-41812170D01*
X114718417Y-41687167D01*
X114738534Y-41565505D01*
X114757949Y-41449161D01*
X114776340Y-41340120D01*
X114793380Y-41240361D01*
X114808749Y-41151863D01*
X114822118Y-41076605D01*
X114833167Y-41016572D01*
X114841568Y-40973740D01*
X114847000Y-40950093D01*
X114848659Y-40945947D01*
X114862295Y-40943567D01*
X114896219Y-40939052D01*
X114948262Y-40932642D01*
X115016259Y-40924575D01*
X115098044Y-40915089D01*
X115191448Y-40904425D01*
X115294309Y-40892819D01*
X115404456Y-40880510D01*
X115519728Y-40867739D01*
X115637953Y-40854741D01*
X115732767Y-40844397D01*
X115756969Y-40841757D01*
X115874607Y-40829026D01*
X115988701Y-40816785D01*
X116097087Y-40805274D01*
X116197595Y-40794728D01*
X116288061Y-40785391D01*
X116366318Y-40777498D01*
X116430200Y-40771289D01*
X116456952Y-40768811D01*
X116589149Y-40758650D01*
X116702184Y-40753942D01*
X116798800Y-40754643D01*
X116881732Y-40760715D01*
X116893575Y-40762139D01*
X116943154Y-40768437D01*
X116143056Y-39967985D01*
X116112871Y-40005650D01*
X116069987Y-40043862D01*
X116006484Y-40076915D01*
X115921827Y-40105041D01*
X115838678Y-40124115D01*
X115811198Y-40128659D01*
X115764805Y-40135379D01*
X115702197Y-40143941D01*
X115626071Y-40154014D01*
X115539124Y-40165267D01*
X115444051Y-40177368D01*
X115343550Y-40189984D01*
X115240316Y-40202785D01*
X115137049Y-40215437D01*
X115036443Y-40227610D01*
X114941195Y-40238972D01*
X114854004Y-40249191D01*
X114777563Y-40257935D01*
X114714572Y-40264873D01*
X114667727Y-40269673D01*
X114639720Y-40272003D01*
X114635226Y-40272172D01*
X114638866Y-40264488D01*
X114658722Y-40241502D01*
X114694597Y-40203415D01*
X114746297Y-40150428D01*
X114813624Y-40082743D01*
X114896380Y-40000561D01*
X114981869Y-39916359D01*
X115076220Y-39823877D01*
X115156311Y-39745942D01*
X115223871Y-39681177D01*
X115280639Y-39628192D01*
X115328346Y-39585611D01*
X115368731Y-39552044D01*
X115403525Y-39526113D01*
X115434464Y-39506434D01*
X115463284Y-39491623D01*
X115491716Y-39480296D01*
X115521497Y-39471073D01*
X115549585Y-39463750D01*
X115621071Y-39446000D01*
X114871620Y-38696550D01*
X114858854Y-38765587D01*
X114855604Y-38784636D01*
X114852852Y-38801629D01*
X114849800Y-38817448D01*
X114845651Y-38832969D01*
X114839604Y-38849073D01*
X114830862Y-38866638D01*
X114818625Y-38886543D01*
X114802094Y-38909668D01*
X114780472Y-38936892D01*
X114752959Y-38969095D01*
X114718755Y-39007153D01*
X114677064Y-39051949D01*
X114627084Y-39104359D01*
X114568021Y-39165262D01*
X114499072Y-39235540D01*
X114419440Y-39316070D01*
X114328325Y-39407731D01*
X114224931Y-39511402D01*
X114108455Y-39627964D01*
X113978102Y-39758293D01*
X113833072Y-39903272D01*
X113746360Y-39989972D01*
X113592971Y-40143394D01*
X113454713Y-40281700D01*
X113330710Y-40405688D01*
X113220077Y-40516157D01*
X113121939Y-40613910D01*
X113035414Y-40699745D01*
X112959623Y-40774463D01*
X112893687Y-40838864D01*
X112836725Y-40893748D01*
X112787859Y-40939914D01*
X112746208Y-40978166D01*
X112710892Y-41009299D01*
X112681033Y-41034117D01*
X112655751Y-41053419D01*
X112634167Y-41068001D01*
X112615399Y-41078670D01*
X112598568Y-41086223D01*
X112582798Y-41091458D01*
X112567205Y-41095179D01*
X112550909Y-41098183D01*
X112533034Y-41101272D01*
X112522441Y-41103251D01*
X112454283Y-41116576D01*
X112033021Y-41116576D01*
X112058624Y-41088912D01*
X112102878Y-41042186D01*
X112155282Y-40987746D01*
X112216475Y-40924915D01*
X112287101Y-40853005D01*
X112367797Y-40771339D01*
X112459207Y-40679232D01*
X112561965Y-40576004D01*
X112676716Y-40460973D01*
X112804098Y-40333458D01*
X112944752Y-40192776D01*
X113099316Y-40038243D01*
X113268433Y-39869182D01*
X113452741Y-39684908D01*
X113482547Y-39655101D01*
X113668433Y-39469195D01*
X113839012Y-39298581D01*
X113994969Y-39142610D01*
X114136987Y-39000635D01*
X114265749Y-38872005D01*
X114381939Y-38756077D01*
X114486243Y-38652201D01*
X114579342Y-38559730D01*
X114657482Y-38482412D01*
X114661925Y-38478015D01*
X114734671Y-38406408D01*
X114798266Y-38344264D01*
X114853393Y-38290934D01*
X114900737Y-38245767D01*
X114940981Y-38208119D01*
X114974810Y-38177341D01*
X115002907Y-38152785D01*
X115025956Y-38133802D01*
X115044642Y-38119748D01*
X115059646Y-38109971D01*
X115071658Y-38103826D01*
X115081355Y-38100664D01*
X115089423Y-38099838D01*
X115096550Y-38100699D01*
G37*
D13*
%TO.C,U12*%
X110885000Y-42965000D02*
X110085000Y-42965000D01*
X110885000Y-42965000D02*
X111685000Y-42965000D01*
X110885000Y-46085000D02*
X110085000Y-46085000D01*
X110885000Y-46085000D02*
X111685000Y-46085000D01*
X112425000Y-46365000D02*
X111945000Y-46365000D01*
X112185000Y-46035000D01*
X112425000Y-46365000D01*
G36*
X112425000Y-46365000D02*
G01*
X111945000Y-46365000D01*
X112185000Y-46035000D01*
X112425000Y-46365000D01*
G37*
%TO.C,TP2*%
X82915000Y-61025000D02*
G75*
G02*
X81015000Y-61025000I-950000J0D01*
G01*
X81015000Y-61025000D02*
G75*
G02*
X82915000Y-61025000I950000J0D01*
G01*
%TO.C,C47*%
X110822836Y-62605000D02*
X110607164Y-62605000D01*
X110822836Y-63325000D02*
X110607164Y-63325000D01*
%TO.C,TP6*%
X79171019Y-55143750D02*
G75*
G02*
X77771019Y-55143750I-700000J0D01*
G01*
X77771019Y-55143750D02*
G75*
G02*
X79171019Y-55143750I700000J0D01*
G01*
%TO.C,C26*%
X92195000Y-66925580D02*
X92195000Y-66644420D01*
X93215000Y-66925580D02*
X93215000Y-66644420D01*
%TO.C,R20*%
X85805000Y-54121359D02*
X85805000Y-54428641D01*
X86565000Y-54121359D02*
X86565000Y-54428641D01*
%TO.C,D8*%
X103478250Y-69605000D02*
X103478250Y-65745000D01*
X103478250Y-69605000D02*
X105478250Y-69605000D01*
X105478250Y-69605000D02*
X105478250Y-65745000D01*
%TO.C,R3*%
X105941359Y-55195000D02*
X106248641Y-55195000D01*
X105941359Y-55955000D02*
X106248641Y-55955000D01*
%TO.C,C12*%
X86605000Y-42897164D02*
X86605001Y-43112837D01*
X87324999Y-42897163D02*
X87325000Y-43112836D01*
%TO.C,D9*%
X117245000Y-69990000D02*
X117245000Y-66130000D01*
X117245000Y-69990000D02*
X119245000Y-69990000D01*
X119245000Y-69990000D02*
X119245000Y-66130000D01*
%TO.C,R33*%
X80271359Y-53215000D02*
X80578641Y-53215000D01*
X80271359Y-53975000D02*
X80578641Y-53975000D01*
%TO.C,C28*%
X114245580Y-62845000D02*
X113964420Y-62845000D01*
X114245580Y-63865000D02*
X113964420Y-63865000D01*
%TO.C,TP10*%
X102820000Y-34525000D02*
G75*
G02*
X101420000Y-34525000I-700000J0D01*
G01*
X101420000Y-34525000D02*
G75*
G02*
X102820000Y-34525000I700000J0D01*
G01*
%TO.C,U10*%
X122145000Y-63965000D02*
X121345000Y-63965000D01*
X122145000Y-63965000D02*
X122945000Y-63965000D01*
X122145000Y-67085000D02*
X121345000Y-67085000D01*
X122145000Y-67085000D02*
X122945000Y-67085000D01*
X123685000Y-67365000D02*
X123205000Y-67365000D01*
X123445000Y-67035000D01*
X123685000Y-67365000D01*
G36*
X123685000Y-67365000D02*
G01*
X123205000Y-67365000D01*
X123445000Y-67035000D01*
X123685000Y-67365000D01*
G37*
D14*
%TO.C,D5*%
X75460000Y-58025000D02*
G75*
G02*
X75360000Y-58025000I-50000J0D01*
G01*
X75360000Y-58025000D02*
G75*
G02*
X75460000Y-58025000I50000J0D01*
G01*
D13*
%TO.C,R15*%
X80650000Y-69656359D02*
X80650000Y-69963641D01*
X81410000Y-69656359D02*
X81410000Y-69963641D01*
%TO.C,C35*%
X108672164Y-62815000D02*
X108887836Y-62815000D01*
X108672164Y-63535000D02*
X108887836Y-63535000D01*
%TO.C,R7*%
X101626750Y-66157064D02*
X101626750Y-65702936D01*
X103096750Y-66157064D02*
X103096750Y-65702936D01*
%TO.C,C23*%
X104774586Y-69725000D02*
X104558914Y-69725000D01*
X104774586Y-70445000D02*
X104558914Y-70445000D01*
%TO.C,D2*%
X120165000Y-61595000D02*
X120165000Y-63595000D01*
X120165000Y-61595000D02*
X124175000Y-61595000D01*
X120165000Y-63595000D02*
X124175000Y-63595000D01*
%TO.C,D3*%
X120045000Y-58165000D02*
X114235000Y-58165000D01*
X120045000Y-62465000D02*
X114235000Y-62465000D01*
X120045000Y-62465000D02*
X120045000Y-58165000D01*
%TO.C,C8*%
X103407164Y-37855000D02*
X103622836Y-37855000D01*
X103407164Y-38575000D02*
X103622836Y-38575000D01*
%TO.C,TP15*%
X81695000Y-56615000D02*
G75*
G02*
X80295000Y-56615000I-700000J0D01*
G01*
X80295000Y-56615000D02*
G75*
G02*
X81695000Y-56615000I700000J0D01*
G01*
%TO.C,Y1*%
X81204060Y-42647513D02*
X84032488Y-45475940D01*
X83537512Y-40314060D02*
X81204060Y-42647513D01*
%TO.C,TP7*%
X78281019Y-53293750D02*
G75*
G02*
X76881019Y-53293750I-700000J0D01*
G01*
X76881019Y-53293750D02*
G75*
G02*
X78281019Y-53293750I700000J0D01*
G01*
%TO.C,R14*%
X97615000Y-65899609D02*
X97615000Y-66206891D01*
X98375000Y-65899609D02*
X98375000Y-66206891D01*
%TO.C,C34*%
X109110000Y-56253748D02*
X109110000Y-56776252D01*
X110580000Y-56253748D02*
X110580000Y-56776252D01*
%TO.C,TP8*%
X81135000Y-50605000D02*
G75*
G02*
X79735000Y-50605000I-700000J0D01*
G01*
X79735000Y-50605000D02*
G75*
G02*
X81135000Y-50605000I700000J0D01*
G01*
%TO.C,TP1*%
X78255000Y-63925000D02*
G75*
G02*
X76355000Y-63925000I-950000J0D01*
G01*
X76355000Y-63925000D02*
G75*
G02*
X78255000Y-63925000I950000J0D01*
G01*
%TO.C,C4*%
X86695000Y-38347164D02*
X86695000Y-38562836D01*
X87415000Y-38347164D02*
X87415000Y-38562836D01*
%TO.C,C39*%
X83567164Y-65645000D02*
X83782836Y-65645000D01*
X83567164Y-66365000D02*
X83782836Y-66365000D01*
%TO.C,C51*%
X107727164Y-42295000D02*
X107942836Y-42295000D01*
X107727164Y-43015000D02*
X107942836Y-43015000D01*
%TO.C,U7*%
X81655000Y-68205000D02*
X81655000Y-69005000D01*
X81655000Y-69805000D02*
X81655000Y-69005000D01*
X84775000Y-68205000D02*
X84775000Y-69005000D01*
X84775000Y-69805000D02*
X84775000Y-69005000D01*
X81705000Y-70305000D02*
X81375000Y-70545000D01*
X81375000Y-70065000D01*
X81705000Y-70305000D01*
G36*
X81705000Y-70305000D02*
G01*
X81375000Y-70545000D01*
X81375000Y-70065000D01*
X81705000Y-70305000D01*
G37*
%TO.C,C21*%
X108882836Y-63785000D02*
X108667164Y-63785000D01*
X108882836Y-64505000D02*
X108667164Y-64505000D01*
%TO.C,C42*%
X104589830Y-35933206D02*
X104663593Y-35730539D01*
X105266407Y-36179461D02*
X105340170Y-35976794D01*
D15*
%TO.C,SYM1*%
X88264000Y-47440711D02*
X88320848Y-47742263D01*
X88740374Y-47915205D01*
X88992020Y-47744088D01*
X89062494Y-47696443D01*
X89126199Y-47653903D01*
X89180162Y-47618408D01*
X89221409Y-47591903D01*
X89246970Y-47576329D01*
X89253931Y-47572971D01*
X89266471Y-47581607D01*
X89293267Y-47605485D01*
X89331316Y-47641552D01*
X89377615Y-47686760D01*
X89429159Y-47738057D01*
X89482945Y-47792394D01*
X89535971Y-47846721D01*
X89585231Y-47897988D01*
X89627723Y-47943144D01*
X89660443Y-47979139D01*
X89680387Y-48002923D01*
X89685155Y-48010883D01*
X89678293Y-48025558D01*
X89659056Y-48057707D01*
X89629466Y-48104185D01*
X89591546Y-48161849D01*
X89547318Y-48227553D01*
X89521690Y-48265029D01*
X89474977Y-48333461D01*
X89433468Y-48395213D01*
X89399176Y-48447212D01*
X89374116Y-48486385D01*
X89360300Y-48509658D01*
X89358224Y-48514548D01*
X89362931Y-48528448D01*
X89375759Y-48560843D01*
X89394774Y-48607178D01*
X89418039Y-48662899D01*
X89443620Y-48723451D01*
X89469581Y-48784279D01*
X89493986Y-48840829D01*
X89514899Y-48888545D01*
X89530385Y-48922874D01*
X89538508Y-48939261D01*
X89538988Y-48939905D01*
X89551743Y-48943034D01*
X89585713Y-48950014D01*
X89637376Y-48960160D01*
X89703212Y-48972785D01*
X89779700Y-48987202D01*
X89824326Y-48995516D01*
X89906057Y-49011077D01*
X89979879Y-49025885D01*
X90042057Y-49039129D01*
X90088858Y-49049998D01*
X90116545Y-49057682D01*
X90122110Y-49060120D01*
X90127562Y-49076623D01*
X90131960Y-49113893D01*
X90135308Y-49167573D01*
X90137610Y-49233305D01*
X90138868Y-49306730D01*
X90139084Y-49383489D01*
X90138263Y-49459225D01*
X90136407Y-49529579D01*
X90133518Y-49590193D01*
X90129601Y-49636709D01*
X90124658Y-49664768D01*
X90121693Y-49670609D01*
X90103970Y-49677610D01*
X90066417Y-49687620D01*
X90014000Y-49699462D01*
X89951688Y-49711960D01*
X89929936Y-49716003D01*
X89825060Y-49735213D01*
X89742216Y-49750684D01*
X89678666Y-49763030D01*
X89631673Y-49772866D01*
X89598499Y-49780807D01*
X89576407Y-49787469D01*
X89562660Y-49793466D01*
X89554520Y-49799412D01*
X89553381Y-49800587D01*
X89542013Y-49819519D01*
X89524671Y-49856362D01*
X89503086Y-49906606D01*
X89478990Y-49965739D01*
X89454115Y-50029249D01*
X89430193Y-50092625D01*
X89408955Y-50151355D01*
X89392133Y-50200928D01*
X89381458Y-50236832D01*
X89378663Y-50254555D01*
X89378896Y-50255176D01*
X89388367Y-50269663D01*
X89409854Y-50301537D01*
X89441099Y-50347482D01*
X89479843Y-50404178D01*
X89523829Y-50468310D01*
X89536355Y-50486535D01*
X89581020Y-50552607D01*
X89620324Y-50612893D01*
X89652124Y-50663928D01*
X89674281Y-50702253D01*
X89684653Y-50724404D01*
X89685155Y-50727125D01*
X89676441Y-50741429D01*
X89652361Y-50769765D01*
X89616012Y-50809089D01*
X89570489Y-50856354D01*
X89518888Y-50908516D01*
X89464303Y-50962528D01*
X89409830Y-51015346D01*
X89358565Y-51063924D01*
X89313603Y-51105216D01*
X89278040Y-51136178D01*
X89254971Y-51153763D01*
X89248590Y-51156634D01*
X89233735Y-51149871D01*
X89203322Y-51131632D01*
X89162304Y-51104990D01*
X89130745Y-51083545D01*
X89073561Y-51044196D01*
X89005842Y-50997864D01*
X88937916Y-50951606D01*
X88901397Y-50926848D01*
X88777788Y-50843240D01*
X88674027Y-50899343D01*
X88626756Y-50923921D01*
X88586559Y-50943024D01*
X88559362Y-50953920D01*
X88552438Y-50955436D01*
X88544113Y-50944242D01*
X88527690Y-50912610D01*
X88504393Y-50863458D01*
X88475450Y-50799703D01*
X88442086Y-50724264D01*
X88405527Y-50640057D01*
X88367000Y-50550001D01*
X88327730Y-50457014D01*
X88288944Y-50364013D01*
X88251866Y-50273916D01*
X88217725Y-50189641D01*
X88187744Y-50114106D01*
X88163152Y-50050227D01*
X88145172Y-50000924D01*
X88135033Y-49969114D01*
X88133402Y-49958189D01*
X88146327Y-49944254D01*
X88174625Y-49921633D01*
X88212382Y-49895026D01*
X88215551Y-49892921D01*
X88313136Y-49814807D01*
X88391822Y-49723675D01*
X88450927Y-49622438D01*
X88489768Y-49514011D01*
X88507664Y-49401307D01*
X88503933Y-49287241D01*
X88477893Y-49174727D01*
X88428861Y-49066678D01*
X88414436Y-49043038D01*
X88339405Y-48947580D01*
X88250766Y-48870925D01*
X88151585Y-48813473D01*
X88044931Y-48775622D01*
X87933872Y-48757771D01*
X87821475Y-48760318D01*
X87710809Y-48783663D01*
X87604942Y-48828203D01*
X87506941Y-48894338D01*
X87476626Y-48921180D01*
X87399474Y-49005205D01*
X87343254Y-49093659D01*
X87304689Y-49192808D01*
X87283210Y-49290996D01*
X87277908Y-49401390D01*
X87295588Y-49512333D01*
X87334455Y-49620074D01*
X87392713Y-49720862D01*
X87468567Y-49810949D01*
X87560219Y-49886585D01*
X87572264Y-49894557D01*
X87610425Y-49920667D01*
X87639435Y-49943288D01*
X87653304Y-49957732D01*
X87653505Y-49958189D01*
X87650528Y-49973814D01*
X87638725Y-50009275D01*
X87619322Y-50061655D01*
X87593548Y-50128038D01*
X87562627Y-50205507D01*
X87527787Y-50291143D01*
X87490253Y-50382030D01*
X87451253Y-50475252D01*
X87412013Y-50567890D01*
X87373760Y-50657028D01*
X87337719Y-50739748D01*
X87305119Y-50813134D01*
X87277184Y-50874268D01*
X87255141Y-50920234D01*
X87240218Y-50948114D01*
X87234208Y-50955436D01*
X87215845Y-50949734D01*
X87181484Y-50934442D01*
X87137052Y-50912292D01*
X87112619Y-50899343D01*
X87008858Y-50843240D01*
X86885249Y-50926848D01*
X86822150Y-50969680D01*
X86753066Y-51016815D01*
X86688329Y-51061196D01*
X86655902Y-51083545D01*
X86610295Y-51114170D01*
X86571676Y-51138440D01*
X86545084Y-51153280D01*
X86536446Y-51156417D01*
X86523875Y-51147954D01*
X86496052Y-51124329D01*
X86455675Y-51087995D01*
X86405441Y-51041404D01*
X86348048Y-50987010D01*
X86311750Y-50952085D01*
X86248246Y-50889689D01*
X86193363Y-50833881D01*
X86149322Y-50787047D01*
X86118341Y-50751575D01*
X86102638Y-50729854D01*
X86101131Y-50725445D01*
X86108122Y-50708678D01*
X86127442Y-50674775D01*
X86156945Y-50627169D01*
X86194491Y-50569292D01*
X86237936Y-50504577D01*
X86250291Y-50486535D01*
X86295309Y-50420960D01*
X86335696Y-50361921D01*
X86369196Y-50312735D01*
X86393550Y-50276721D01*
X86406500Y-50257195D01*
X86407751Y-50255176D01*
X86405880Y-50239615D01*
X86395949Y-50205402D01*
X86379689Y-50157048D01*
X86358831Y-50099064D01*
X86335109Y-50035963D01*
X86310252Y-49972256D01*
X86285994Y-49912454D01*
X86264065Y-49861069D01*
X86246198Y-49822612D01*
X86234123Y-49801595D01*
X86233265Y-49800587D01*
X86225882Y-49794581D01*
X86213411Y-49788641D01*
X86193116Y-49782153D01*
X86162258Y-49774502D01*
X86118102Y-49765073D01*
X86057910Y-49753252D01*
X85978943Y-49738422D01*
X85878466Y-49719970D01*
X85856711Y-49716003D01*
X85792234Y-49703546D01*
X85736025Y-49691359D01*
X85693049Y-49680619D01*
X85668276Y-49672502D01*
X85664954Y-49670609D01*
X85659480Y-49653831D01*
X85655030Y-49616338D01*
X85651608Y-49562487D01*
X85649217Y-49496637D01*
X85647859Y-49423146D01*
X85647537Y-49346373D01*
X85648255Y-49270676D01*
X85650015Y-49200413D01*
X85652820Y-49139943D01*
X85656674Y-49093623D01*
X85661579Y-49065812D01*
X85664536Y-49060120D01*
X85680999Y-49054379D01*
X85718485Y-49045038D01*
X85773261Y-49032908D01*
X85841591Y-49018800D01*
X85919742Y-49003523D01*
X85962320Y-48995516D01*
X86043107Y-48980414D01*
X86115149Y-48966733D01*
X86174925Y-48955160D01*
X86218915Y-48946380D01*
X86243597Y-48941080D01*
X86247659Y-48939905D01*
X86254525Y-48926658D01*
X86269038Y-48894750D01*
X86289265Y-48848740D01*
X86313270Y-48793185D01*
X86339118Y-48732646D01*
X86364876Y-48671679D01*
X86388609Y-48614844D01*
X86408382Y-48566699D01*
X86422260Y-48531803D01*
X86428310Y-48514714D01*
X86428422Y-48513967D01*
X86421564Y-48500486D01*
X86402338Y-48469463D01*
X86372764Y-48423982D01*
X86334863Y-48367125D01*
X86290656Y-48301976D01*
X86264957Y-48264555D01*
X86218129Y-48195940D01*
X86176537Y-48133645D01*
X86142211Y-48080822D01*
X86117179Y-48040620D01*
X86103471Y-48016193D01*
X86101492Y-48010717D01*
X86110002Y-47997971D01*
X86133529Y-47970756D01*
X86169068Y-47932121D01*
X86213613Y-47885116D01*
X86264159Y-47832788D01*
X86317700Y-47778188D01*
X86371231Y-47724363D01*
X86421747Y-47674363D01*
X86466242Y-47631236D01*
X86501711Y-47598032D01*
X86525149Y-47577799D01*
X86532990Y-47572971D01*
X86545756Y-47579760D01*
X86576292Y-47598835D01*
X86621626Y-47628254D01*
X86678792Y-47666074D01*
X86744820Y-47710354D01*
X86794626Y-47744088D01*
X87046272Y-47915205D01*
X87256035Y-47828734D01*
X87465799Y-47742263D01*
X87522647Y-47440711D01*
X87579496Y-47139159D01*
X88207151Y-47139159D01*
X88264000Y-47440711D01*
G36*
X88264000Y-47440711D02*
G01*
X88320848Y-47742263D01*
X88740374Y-47915205D01*
X88992020Y-47744088D01*
X89062494Y-47696443D01*
X89126199Y-47653903D01*
X89180162Y-47618408D01*
X89221409Y-47591903D01*
X89246970Y-47576329D01*
X89253931Y-47572971D01*
X89266471Y-47581607D01*
X89293267Y-47605485D01*
X89331316Y-47641552D01*
X89377615Y-47686760D01*
X89429159Y-47738057D01*
X89482945Y-47792394D01*
X89535971Y-47846721D01*
X89585231Y-47897988D01*
X89627723Y-47943144D01*
X89660443Y-47979139D01*
X89680387Y-48002923D01*
X89685155Y-48010883D01*
X89678293Y-48025558D01*
X89659056Y-48057707D01*
X89629466Y-48104185D01*
X89591546Y-48161849D01*
X89547318Y-48227553D01*
X89521690Y-48265029D01*
X89474977Y-48333461D01*
X89433468Y-48395213D01*
X89399176Y-48447212D01*
X89374116Y-48486385D01*
X89360300Y-48509658D01*
X89358224Y-48514548D01*
X89362931Y-48528448D01*
X89375759Y-48560843D01*
X89394774Y-48607178D01*
X89418039Y-48662899D01*
X89443620Y-48723451D01*
X89469581Y-48784279D01*
X89493986Y-48840829D01*
X89514899Y-48888545D01*
X89530385Y-48922874D01*
X89538508Y-48939261D01*
X89538988Y-48939905D01*
X89551743Y-48943034D01*
X89585713Y-48950014D01*
X89637376Y-48960160D01*
X89703212Y-48972785D01*
X89779700Y-48987202D01*
X89824326Y-48995516D01*
X89906057Y-49011077D01*
X89979879Y-49025885D01*
X90042057Y-49039129D01*
X90088858Y-49049998D01*
X90116545Y-49057682D01*
X90122110Y-49060120D01*
X90127562Y-49076623D01*
X90131960Y-49113893D01*
X90135308Y-49167573D01*
X90137610Y-49233305D01*
X90138868Y-49306730D01*
X90139084Y-49383489D01*
X90138263Y-49459225D01*
X90136407Y-49529579D01*
X90133518Y-49590193D01*
X90129601Y-49636709D01*
X90124658Y-49664768D01*
X90121693Y-49670609D01*
X90103970Y-49677610D01*
X90066417Y-49687620D01*
X90014000Y-49699462D01*
X89951688Y-49711960D01*
X89929936Y-49716003D01*
X89825060Y-49735213D01*
X89742216Y-49750684D01*
X89678666Y-49763030D01*
X89631673Y-49772866D01*
X89598499Y-49780807D01*
X89576407Y-49787469D01*
X89562660Y-49793466D01*
X89554520Y-49799412D01*
X89553381Y-49800587D01*
X89542013Y-49819519D01*
X89524671Y-49856362D01*
X89503086Y-49906606D01*
X89478990Y-49965739D01*
X89454115Y-50029249D01*
X89430193Y-50092625D01*
X89408955Y-50151355D01*
X89392133Y-50200928D01*
X89381458Y-50236832D01*
X89378663Y-50254555D01*
X89378896Y-50255176D01*
X89388367Y-50269663D01*
X89409854Y-50301537D01*
X89441099Y-50347482D01*
X89479843Y-50404178D01*
X89523829Y-50468310D01*
X89536355Y-50486535D01*
X89581020Y-50552607D01*
X89620324Y-50612893D01*
X89652124Y-50663928D01*
X89674281Y-50702253D01*
X89684653Y-50724404D01*
X89685155Y-50727125D01*
X89676441Y-50741429D01*
X89652361Y-50769765D01*
X89616012Y-50809089D01*
X89570489Y-50856354D01*
X89518888Y-50908516D01*
X89464303Y-50962528D01*
X89409830Y-51015346D01*
X89358565Y-51063924D01*
X89313603Y-51105216D01*
X89278040Y-51136178D01*
X89254971Y-51153763D01*
X89248590Y-51156634D01*
X89233735Y-51149871D01*
X89203322Y-51131632D01*
X89162304Y-51104990D01*
X89130745Y-51083545D01*
X89073561Y-51044196D01*
X89005842Y-50997864D01*
X88937916Y-50951606D01*
X88901397Y-50926848D01*
X88777788Y-50843240D01*
X88674027Y-50899343D01*
X88626756Y-50923921D01*
X88586559Y-50943024D01*
X88559362Y-50953920D01*
X88552438Y-50955436D01*
X88544113Y-50944242D01*
X88527690Y-50912610D01*
X88504393Y-50863458D01*
X88475450Y-50799703D01*
X88442086Y-50724264D01*
X88405527Y-50640057D01*
X88367000Y-50550001D01*
X88327730Y-50457014D01*
X88288944Y-50364013D01*
X88251866Y-50273916D01*
X88217725Y-50189641D01*
X88187744Y-50114106D01*
X88163152Y-50050227D01*
X88145172Y-50000924D01*
X88135033Y-49969114D01*
X88133402Y-49958189D01*
X88146327Y-49944254D01*
X88174625Y-49921633D01*
X88212382Y-49895026D01*
X88215551Y-49892921D01*
X88313136Y-49814807D01*
X88391822Y-49723675D01*
X88450927Y-49622438D01*
X88489768Y-49514011D01*
X88507664Y-49401307D01*
X88503933Y-49287241D01*
X88477893Y-49174727D01*
X88428861Y-49066678D01*
X88414436Y-49043038D01*
X88339405Y-48947580D01*
X88250766Y-48870925D01*
X88151585Y-48813473D01*
X88044931Y-48775622D01*
X87933872Y-48757771D01*
X87821475Y-48760318D01*
X87710809Y-48783663D01*
X87604942Y-48828203D01*
X87506941Y-48894338D01*
X87476626Y-48921180D01*
X87399474Y-49005205D01*
X87343254Y-49093659D01*
X87304689Y-49192808D01*
X87283210Y-49290996D01*
X87277908Y-49401390D01*
X87295588Y-49512333D01*
X87334455Y-49620074D01*
X87392713Y-49720862D01*
X87468567Y-49810949D01*
X87560219Y-49886585D01*
X87572264Y-49894557D01*
X87610425Y-49920667D01*
X87639435Y-49943288D01*
X87653304Y-49957732D01*
X87653505Y-49958189D01*
X87650528Y-49973814D01*
X87638725Y-50009275D01*
X87619322Y-50061655D01*
X87593548Y-50128038D01*
X87562627Y-50205507D01*
X87527787Y-50291143D01*
X87490253Y-50382030D01*
X87451253Y-50475252D01*
X87412013Y-50567890D01*
X87373760Y-50657028D01*
X87337719Y-50739748D01*
X87305119Y-50813134D01*
X87277184Y-50874268D01*
X87255141Y-50920234D01*
X87240218Y-50948114D01*
X87234208Y-50955436D01*
X87215845Y-50949734D01*
X87181484Y-50934442D01*
X87137052Y-50912292D01*
X87112619Y-50899343D01*
X87008858Y-50843240D01*
X86885249Y-50926848D01*
X86822150Y-50969680D01*
X86753066Y-51016815D01*
X86688329Y-51061196D01*
X86655902Y-51083545D01*
X86610295Y-51114170D01*
X86571676Y-51138440D01*
X86545084Y-51153280D01*
X86536446Y-51156417D01*
X86523875Y-51147954D01*
X86496052Y-51124329D01*
X86455675Y-51087995D01*
X86405441Y-51041404D01*
X86348048Y-50987010D01*
X86311750Y-50952085D01*
X86248246Y-50889689D01*
X86193363Y-50833881D01*
X86149322Y-50787047D01*
X86118341Y-50751575D01*
X86102638Y-50729854D01*
X86101131Y-50725445D01*
X86108122Y-50708678D01*
X86127442Y-50674775D01*
X86156945Y-50627169D01*
X86194491Y-50569292D01*
X86237936Y-50504577D01*
X86250291Y-50486535D01*
X86295309Y-50420960D01*
X86335696Y-50361921D01*
X86369196Y-50312735D01*
X86393550Y-50276721D01*
X86406500Y-50257195D01*
X86407751Y-50255176D01*
X86405880Y-50239615D01*
X86395949Y-50205402D01*
X86379689Y-50157048D01*
X86358831Y-50099064D01*
X86335109Y-50035963D01*
X86310252Y-49972256D01*
X86285994Y-49912454D01*
X86264065Y-49861069D01*
X86246198Y-49822612D01*
X86234123Y-49801595D01*
X86233265Y-49800587D01*
X86225882Y-49794581D01*
X86213411Y-49788641D01*
X86193116Y-49782153D01*
X86162258Y-49774502D01*
X86118102Y-49765073D01*
X86057910Y-49753252D01*
X85978943Y-49738422D01*
X85878466Y-49719970D01*
X85856711Y-49716003D01*
X85792234Y-49703546D01*
X85736025Y-49691359D01*
X85693049Y-49680619D01*
X85668276Y-49672502D01*
X85664954Y-49670609D01*
X85659480Y-49653831D01*
X85655030Y-49616338D01*
X85651608Y-49562487D01*
X85649217Y-49496637D01*
X85647859Y-49423146D01*
X85647537Y-49346373D01*
X85648255Y-49270676D01*
X85650015Y-49200413D01*
X85652820Y-49139943D01*
X85656674Y-49093623D01*
X85661579Y-49065812D01*
X85664536Y-49060120D01*
X85680999Y-49054379D01*
X85718485Y-49045038D01*
X85773261Y-49032908D01*
X85841591Y-49018800D01*
X85919742Y-49003523D01*
X85962320Y-48995516D01*
X86043107Y-48980414D01*
X86115149Y-48966733D01*
X86174925Y-48955160D01*
X86218915Y-48946380D01*
X86243597Y-48941080D01*
X86247659Y-48939905D01*
X86254525Y-48926658D01*
X86269038Y-48894750D01*
X86289265Y-48848740D01*
X86313270Y-48793185D01*
X86339118Y-48732646D01*
X86364876Y-48671679D01*
X86388609Y-48614844D01*
X86408382Y-48566699D01*
X86422260Y-48531803D01*
X86428310Y-48514714D01*
X86428422Y-48513967D01*
X86421564Y-48500486D01*
X86402338Y-48469463D01*
X86372764Y-48423982D01*
X86334863Y-48367125D01*
X86290656Y-48301976D01*
X86264957Y-48264555D01*
X86218129Y-48195940D01*
X86176537Y-48133645D01*
X86142211Y-48080822D01*
X86117179Y-48040620D01*
X86103471Y-48016193D01*
X86101492Y-48010717D01*
X86110002Y-47997971D01*
X86133529Y-47970756D01*
X86169068Y-47932121D01*
X86213613Y-47885116D01*
X86264159Y-47832788D01*
X86317700Y-47778188D01*
X86371231Y-47724363D01*
X86421747Y-47674363D01*
X86466242Y-47631236D01*
X86501711Y-47598032D01*
X86525149Y-47577799D01*
X86532990Y-47572971D01*
X86545756Y-47579760D01*
X86576292Y-47598835D01*
X86621626Y-47628254D01*
X86678792Y-47666074D01*
X86744820Y-47710354D01*
X86794626Y-47744088D01*
X87046272Y-47915205D01*
X87256035Y-47828734D01*
X87465799Y-47742263D01*
X87522647Y-47440711D01*
X87579496Y-47139159D01*
X88207151Y-47139159D01*
X88264000Y-47440711D01*
G37*
D13*
%TO.C,C33*%
X107975000Y-44132836D02*
X107975000Y-43917164D01*
X108695000Y-44132836D02*
X108695000Y-43917164D01*
D12*
%TO.C,REF\u002A\u002A*%
X119110000Y-72850000D02*
X119310000Y-73100000D01*
X119220000Y-74730000D02*
X119730000Y-74820000D01*
X119430000Y-73095000D02*
X119630000Y-73345000D01*
D14*
X119061573Y-73125740D02*
X120225740Y-72500000D01*
X119570896Y-74886542D01*
X119905594Y-74682813D01*
X119308958Y-75570490D01*
X119090677Y-74522740D01*
X119323511Y-74842886D01*
X119600000Y-73111188D01*
X118479490Y-73707823D01*
X119207094Y-71132104D01*
X119920146Y-71132104D01*
X119061573Y-73125740D01*
G36*
X119061573Y-73125740D02*
G01*
X120225740Y-72500000D01*
X119570896Y-74886542D01*
X119905594Y-74682813D01*
X119308958Y-75570490D01*
X119090677Y-74522740D01*
X119323511Y-74842886D01*
X119600000Y-73111188D01*
X118479490Y-73707823D01*
X119207094Y-71132104D01*
X119920146Y-71132104D01*
X119061573Y-73125740D01*
G37*
D13*
%TO.C,C38*%
X99705000Y-66156086D02*
X99705000Y-65940414D01*
X100425000Y-66156086D02*
X100425000Y-65940414D01*
%TO.C,C20*%
X106285000Y-52332836D02*
X106285000Y-52117164D01*
X107005000Y-52332836D02*
X107005000Y-52117164D01*
%TD*%
%LPC*%
D10*
X101000000Y-57400000D02*
X102000000Y-56900000D01*
X102100000Y-57000000D01*
X101500000Y-59100000D01*
X101800000Y-59300000D01*
X101000000Y-60400000D01*
X100900000Y-60400000D01*
X100600000Y-58950000D01*
X100900000Y-59000000D01*
X101000000Y-58100000D01*
X100100000Y-58500000D01*
X100000000Y-58500000D01*
X100000000Y-58300000D01*
X100800000Y-55600000D01*
X101800000Y-55600000D01*
X101000000Y-57400000D01*
G36*
X101000000Y-57400000D02*
G01*
X102000000Y-56900000D01*
X102100000Y-57000000D01*
X101500000Y-59100000D01*
X101800000Y-59300000D01*
X101000000Y-60400000D01*
X100900000Y-60400000D01*
X100600000Y-58950000D01*
X100900000Y-59000000D01*
X101000000Y-58100000D01*
X100100000Y-58500000D01*
X100000000Y-58500000D01*
X100000000Y-58300000D01*
X100800000Y-55600000D01*
X101800000Y-55600000D01*
X101000000Y-57400000D01*
G37*
D16*
%TO.C,TP21*%
X79325000Y-48575000D03*
%TD*%
%TO.C,TP20*%
X82325000Y-47725000D03*
%TD*%
D17*
%TO.C,C55*%
X80755000Y-46695000D03*
X80755000Y-45735000D03*
%TD*%
%TO.C,C54*%
X79785000Y-46695000D03*
X79785000Y-45735000D03*
%TD*%
D18*
%TO.C,D6*%
X75995000Y-59985000D03*
X76965000Y-59985000D03*
%TD*%
D19*
%TO.C,C24*%
X117505000Y-70505000D03*
X117505000Y-71465000D03*
%TD*%
D20*
%TO.C,C14*%
X124945000Y-64480000D03*
X124945000Y-66030000D03*
%TD*%
D21*
%TO.C,L3*%
X110640000Y-50300000D03*
X110640000Y-47250000D03*
%TD*%
D16*
%TO.C,TP14*%
X85995000Y-58445000D03*
%TD*%
D18*
%TO.C,D7*%
X76005000Y-58995000D03*
X76975000Y-58995000D03*
%TD*%
D22*
%TO.C,C11*%
X86105589Y-40735589D03*
X86784411Y-41414411D03*
%TD*%
D23*
%TO.C,U13*%
X109985000Y-59302500D03*
X109035000Y-59302500D03*
X108085000Y-59302500D03*
X108085000Y-61577500D03*
X109985000Y-61577500D03*
%TD*%
D24*
%TO.C,U4*%
X107005000Y-79315000D03*
D25*
X110815000Y-79315000D03*
D26*
X115250000Y-79315000D03*
D24*
X115895000Y-69415000D03*
X113350000Y-69415000D03*
X112085000Y-69415000D03*
X110815000Y-69415000D03*
X109545000Y-69415000D03*
X108250000Y-69415000D03*
X107005000Y-69415000D03*
%TD*%
D27*
%TO.C,TP4*%
X100415000Y-83865000D03*
%TD*%
D17*
%TO.C,C46*%
X111215000Y-60085000D03*
X111215000Y-59125000D03*
%TD*%
D27*
%TO.C,TP5*%
X110775000Y-81855000D03*
%TD*%
D19*
%TO.C,C22*%
X106615000Y-53615000D03*
X106615000Y-54575000D03*
%TD*%
D28*
%TO.C,R13*%
X107350000Y-63115000D03*
X107350000Y-64135000D03*
%TD*%
D29*
%TO.C,C27*%
X102545000Y-69875000D03*
X102545000Y-68325000D03*
%TD*%
D19*
%TO.C,C2*%
X99345000Y-49645000D03*
X99345000Y-50605000D03*
%TD*%
%TO.C,C9*%
X98395000Y-49645000D03*
X98395000Y-50605000D03*
%TD*%
D30*
%TO.C,L2*%
X120290000Y-53735000D03*
X114640000Y-53735000D03*
%TD*%
D31*
%TO.C,C43*%
X87525000Y-53635000D03*
X88485000Y-53635000D03*
%TD*%
D32*
%TO.C,D11*%
X87777500Y-54940000D03*
X87777500Y-56840000D03*
X89652500Y-55890000D03*
%TD*%
D33*
%TO.C,C10*%
X85469411Y-40099411D03*
X84790589Y-39420589D03*
%TD*%
D31*
%TO.C,C1*%
X103025000Y-37235000D03*
X103985000Y-37235000D03*
%TD*%
D16*
%TO.C,TP12*%
X103995000Y-34825000D03*
%TD*%
D34*
%TO.C,R8*%
X119117500Y-64335000D03*
X117292500Y-64335000D03*
%TD*%
D19*
%TO.C,C36*%
X99010000Y-65568250D03*
X99010000Y-66528250D03*
%TD*%
%TO.C,C3*%
X102265000Y-46445000D03*
X102265000Y-47405000D03*
%TD*%
%TO.C,C29*%
X113425000Y-46465000D03*
X113425000Y-47425000D03*
%TD*%
D35*
%TO.C,R9*%
X92535000Y-64452500D03*
X92535000Y-62627500D03*
%TD*%
D36*
%TO.C,C17*%
X122575000Y-68100000D03*
X122575000Y-71050000D03*
%TD*%
D28*
%TO.C,R21*%
X86195000Y-55755000D03*
X86195000Y-56775000D03*
%TD*%
D16*
%TO.C,TP9*%
X82125000Y-51695000D03*
%TD*%
%TO.C,TP13*%
X82875000Y-55655000D03*
%TD*%
D37*
%TO.C,C15*%
X108465000Y-55280000D03*
X107505000Y-55280000D03*
%TD*%
D38*
%TO.C,R31*%
X112195000Y-60125000D03*
X112195000Y-59105000D03*
%TD*%
D39*
%TO.C,D4*%
X107510000Y-50155000D03*
X104710000Y-50155000D03*
%TD*%
D40*
%TO.C,R1*%
X122642500Y-60285000D03*
X125567500Y-60285000D03*
%TD*%
D41*
%TO.C,H2*%
X87810000Y-66140000D03*
%TD*%
D42*
%TO.C,R4*%
X78895000Y-58025000D03*
X77875000Y-58025000D03*
%TD*%
D43*
%TO.C,C16*%
X111875000Y-55570000D03*
X111875000Y-57470000D03*
%TD*%
D17*
%TO.C,C37*%
X80990000Y-68380000D03*
X80990000Y-67420000D03*
%TD*%
D27*
%TO.C,TP3*%
X90735000Y-81565000D03*
%TD*%
D24*
%TO.C,U2*%
X86130000Y-79240000D03*
D25*
X89940000Y-79240000D03*
D26*
X94375000Y-79240000D03*
D24*
X95020000Y-69340000D03*
X92475000Y-69340000D03*
X91210000Y-69340000D03*
X89940000Y-69340000D03*
X88670000Y-69340000D03*
X87375000Y-69340000D03*
X86130000Y-69340000D03*
%TD*%
D44*
%TO.C,U11*%
X108217500Y-52090000D03*
X108217500Y-53040000D03*
X108217500Y-53990000D03*
X110492500Y-53990000D03*
X110492500Y-53040000D03*
X110492500Y-52090000D03*
%TD*%
D37*
%TO.C,C44*%
X88445000Y-58065000D03*
X87485000Y-58065000D03*
%TD*%
D17*
%TO.C,C19*%
X113425000Y-45585000D03*
X113425000Y-44625000D03*
%TD*%
D44*
%TO.C,U5*%
X106542500Y-65365000D03*
X106542500Y-66315000D03*
X106542500Y-67265000D03*
X108817500Y-67265000D03*
X108817500Y-66315000D03*
X108817500Y-65365000D03*
%TD*%
D42*
%TO.C,R5*%
X78905000Y-59975000D03*
X77885000Y-59975000D03*
%TD*%
D41*
%TO.C,H1*%
X104850000Y-44510000D03*
%TD*%
D45*
%TO.C,D10*%
X94640000Y-66355000D03*
X94640000Y-63555000D03*
%TD*%
D29*
%TO.C,C18*%
X112205000Y-54040000D03*
X112205000Y-52490000D03*
%TD*%
D46*
%TO.C,D1*%
X124265000Y-57515000D03*
X124265000Y-53215000D03*
%TD*%
D47*
%TO.C,U9*%
X107180809Y-34838386D03*
X106746443Y-36031794D03*
X106312079Y-37225204D03*
X105877712Y-38418616D03*
X110529191Y-40111614D03*
X110963557Y-38918206D03*
X111397921Y-37724796D03*
X111832288Y-36531384D03*
%TD*%
D17*
%TO.C,C6*%
X107775000Y-48495000D03*
X107775000Y-47535000D03*
%TD*%
D38*
%TO.C,R30*%
X111225000Y-61995000D03*
X111225000Y-60975000D03*
%TD*%
D28*
%TO.C,R2*%
X105655000Y-53590000D03*
X105655000Y-54610000D03*
%TD*%
D19*
%TO.C,C7*%
X106825000Y-47545000D03*
X106825000Y-48505000D03*
%TD*%
%TO.C,C5*%
X86965000Y-44715000D03*
X86965000Y-45675000D03*
%TD*%
D48*
%TO.C,U1*%
X89490000Y-37865000D03*
X89490000Y-38365000D03*
X89490000Y-38865000D03*
X89490000Y-39365000D03*
X89490000Y-39865000D03*
X89490000Y-40365000D03*
X89490000Y-40865000D03*
X89490000Y-41365000D03*
X89490000Y-41865000D03*
X89490000Y-42365000D03*
X89490000Y-42865000D03*
X89490000Y-43365000D03*
X89490000Y-43865000D03*
X89490000Y-44365000D03*
X89490000Y-44865000D03*
X89490000Y-45365000D03*
D49*
X91415000Y-47290000D03*
X91915000Y-47290000D03*
X92415000Y-47290000D03*
X92915000Y-47290000D03*
X93415000Y-47290000D03*
X93915000Y-47290000D03*
X94415000Y-47290000D03*
X94915000Y-47290000D03*
X95415000Y-47290000D03*
X95915000Y-47290000D03*
X96415000Y-47290000D03*
X96915000Y-47290000D03*
X97415000Y-47290000D03*
X97915000Y-47290000D03*
X98415000Y-47290000D03*
X98915000Y-47290000D03*
D48*
X100840000Y-45365000D03*
X100840000Y-44865000D03*
X100840000Y-44365000D03*
X100840000Y-43865000D03*
X100840000Y-43365000D03*
X100840000Y-42865000D03*
X100840000Y-42365000D03*
X100840000Y-41865000D03*
X100840000Y-41365000D03*
X100840000Y-40865000D03*
X100840000Y-40365000D03*
X100840000Y-39865000D03*
X100840000Y-39365000D03*
X100840000Y-38865000D03*
X100840000Y-38365000D03*
X100840000Y-37865000D03*
D49*
X98915000Y-35940000D03*
X98415000Y-35940000D03*
X97915000Y-35940000D03*
X97415000Y-35940000D03*
X96915000Y-35940000D03*
X96415000Y-35940000D03*
X95915000Y-35940000D03*
X95415000Y-35940000D03*
X94915000Y-35940000D03*
X94415000Y-35940000D03*
X93915000Y-35940000D03*
X93415000Y-35940000D03*
X92915000Y-35940000D03*
X92415000Y-35940000D03*
X91915000Y-35940000D03*
X91415000Y-35940000D03*
%TD*%
D16*
%TO.C,TP16*%
X84295000Y-57385000D03*
%TD*%
D37*
%TO.C,C25*%
X94905000Y-67710000D03*
X93945000Y-67710000D03*
%TD*%
D24*
%TO.C,U3*%
X96560000Y-81830000D03*
D25*
X100370000Y-81830000D03*
D26*
X104805000Y-81830000D03*
D24*
X105450000Y-71930000D03*
X102905000Y-71930000D03*
X101640000Y-71930000D03*
X100370000Y-71930000D03*
X99100000Y-71930000D03*
X97805000Y-71930000D03*
X96560000Y-71930000D03*
%TD*%
D31*
%TO.C,C13*%
X107355000Y-41685000D03*
X108315000Y-41685000D03*
%TD*%
D44*
%TO.C,U6*%
X97107500Y-67798250D03*
X97107500Y-68748250D03*
X97107500Y-69698250D03*
X99382500Y-69698250D03*
X99382500Y-68748250D03*
X99382500Y-67798250D03*
%TD*%
D16*
%TO.C,TP11*%
X100240000Y-34435000D03*
%TD*%
D42*
%TO.C,R6*%
X78905000Y-59005000D03*
X77885000Y-59005000D03*
%TD*%
D50*
%TO.C,R32*%
X79910000Y-54585000D03*
X80930000Y-54585000D03*
%TD*%
D51*
%TO.C,U12*%
X112022500Y-45475000D03*
X112022500Y-44525000D03*
X112022500Y-43575000D03*
X109747500Y-43575000D03*
X109747500Y-45475000D03*
%TD*%
D27*
%TO.C,TP2*%
X81965000Y-61025000D03*
%TD*%
D37*
%TO.C,C47*%
X111195000Y-62965000D03*
X110235000Y-62965000D03*
%TD*%
D16*
%TO.C,TP6*%
X78471019Y-55143750D03*
%TD*%
D29*
%TO.C,C26*%
X92705000Y-67560000D03*
X92705000Y-66010000D03*
%TD*%
D28*
%TO.C,R20*%
X86185000Y-53765000D03*
X86185000Y-54785000D03*
%TD*%
D45*
%TO.C,D8*%
X104478250Y-68795000D03*
X104478250Y-65995000D03*
%TD*%
D50*
%TO.C,R3*%
X105585000Y-55575000D03*
X106605000Y-55575000D03*
%TD*%
D19*
%TO.C,C12*%
X86965001Y-42525001D03*
X86964999Y-43484999D03*
%TD*%
D41*
%TO.C,H3*%
X113960000Y-66550000D03*
%TD*%
D45*
%TO.C,D9*%
X118245000Y-69180000D03*
X118245000Y-66380000D03*
%TD*%
D50*
%TO.C,R33*%
X79915000Y-53595000D03*
X80935000Y-53595000D03*
%TD*%
D52*
%TO.C,C28*%
X114880000Y-63355000D03*
X113330000Y-63355000D03*
%TD*%
D16*
%TO.C,TP10*%
X102120000Y-34525000D03*
%TD*%
D51*
%TO.C,U10*%
X123282500Y-66475000D03*
X123282500Y-64575000D03*
X121007500Y-65525000D03*
%TD*%
D18*
%TO.C,D5*%
X76015000Y-58025000D03*
X76985000Y-58025000D03*
%TD*%
D28*
%TO.C,R15*%
X81030000Y-69300000D03*
X81030000Y-70320000D03*
%TD*%
D31*
%TO.C,C35*%
X108300000Y-63175000D03*
X109260000Y-63175000D03*
%TD*%
D35*
%TO.C,R7*%
X102361750Y-66842500D03*
X102361750Y-65017500D03*
%TD*%
D37*
%TO.C,C23*%
X105146750Y-70085000D03*
X104186750Y-70085000D03*
%TD*%
D53*
%TO.C,D2*%
X120875000Y-62595000D03*
X124175000Y-62595000D03*
%TD*%
D54*
%TO.C,D3*%
X118535000Y-60315000D03*
X114235000Y-60315000D03*
%TD*%
D55*
%TO.C,L1*%
X107875000Y-46610000D03*
X107875000Y-45640000D03*
%TD*%
D31*
%TO.C,C8*%
X103035000Y-38215000D03*
X103995000Y-38215000D03*
%TD*%
D16*
%TO.C,TP15*%
X80995000Y-56615000D03*
%TD*%
D56*
%TO.C,Y1*%
X82406142Y-42718224D03*
X83961777Y-44273859D03*
X85163858Y-43071776D03*
X83608223Y-41516141D03*
%TD*%
D16*
%TO.C,TP7*%
X77581019Y-53293750D03*
%TD*%
D28*
%TO.C,R14*%
X97995000Y-65543250D03*
X97995000Y-66563250D03*
%TD*%
D43*
%TO.C,C34*%
X109845000Y-55565000D03*
X109845000Y-57465000D03*
%TD*%
D16*
%TO.C,TP8*%
X80435000Y-50605000D03*
%TD*%
D27*
%TO.C,TP1*%
X77305000Y-63925000D03*
%TD*%
D19*
%TO.C,C4*%
X87055000Y-37975000D03*
X87055000Y-38935000D03*
%TD*%
D31*
%TO.C,C39*%
X83195000Y-66005000D03*
X84155000Y-66005000D03*
%TD*%
%TO.C,C51*%
X107355000Y-42655000D03*
X108315000Y-42655000D03*
%TD*%
D57*
%TO.C,U7*%
X82265000Y-70142500D03*
X83215000Y-70142500D03*
X84165000Y-70142500D03*
X84165000Y-67867500D03*
X83215000Y-67867500D03*
X82265000Y-67867500D03*
%TD*%
D37*
%TO.C,C21*%
X109255000Y-64145000D03*
X108295000Y-64145000D03*
%TD*%
D58*
%TO.C,C42*%
X104800831Y-36406052D03*
X105129169Y-35503948D03*
%TD*%
D17*
%TO.C,C33*%
X108335000Y-44505000D03*
X108335000Y-43545000D03*
%TD*%
%TO.C,C38*%
X100065000Y-66528250D03*
X100065000Y-65568250D03*
%TD*%
%TO.C,C20*%
X106645000Y-52705000D03*
X106645000Y-51745000D03*
%TD*%
%LPD*%
M02*
