M48
; DRILL file {KiCad 9.0.0} date 2025-06-01T03:36:47+0800
; FORMAT={-:-/ absolute / metric / decimal}
; #@! TF.CreationDate,2025-06-01T03:36:47+08:00
; #@! TF.GenerationSoftware,Kicad,Pcbnew,9.0.0
; #@! TF.FileFunction,Plated,1,6,PTH
FMAT,2
METRIC
; #@! TA.AperFunction,Plated,PTH,ViaDrill
T1C0.300
; #@! TA.AperFunction,Plated,PTH,ViaDrill
T2C0.400
%
G90
G05
T1
X76.65Y-55.4
X78.9Y-59.95
X78.95Y-59.0
X79.785Y-45.735
X80.435Y-50.605
X80.755Y-45.735
X80.9Y-65.0
X80.93Y-54.585
X80.935Y-53.595
X82.125Y-51.695
X82.9Y-55.7
X83.259Y-70.128
X84.3Y-57.4
X84.3Y-64.85
X84.4Y-62.9
X84.4Y-70.36
X84.47Y-68.27
X85.3Y-61.2
X86.1Y-42.2
X86.65Y-63.8
X86.95Y-44.7
X87.05Y-38.0
X87.8Y-55.025
X87.8Y-56.8
X87.9Y-45.7
X87.95Y-43.5
X88.3Y-61.1
X88.66Y-72.96
X89.89Y-68.86
X90.285Y-71.005
X90.78Y-41.238
X90.9Y-37.45
X91.15Y-43.1
X91.162Y-43.925
X91.215Y-68.81
X91.302Y-44.713
X92.112Y-41.881
X92.29Y-37.737
X92.733Y-44.85
X92.758Y-60.242
X93.293Y-38.41
X93.36Y-42.99
X93.801Y-39.13
X94.361Y-39.702
X95.15Y-51.55
X95.15Y-55.0
X95.691Y-55.625
X95.931Y-52.1
X95.931Y-53.5
X96.0Y-68.4
X96.208Y-60.46
X96.241Y-59.609
X96.258Y-58.742
X96.306Y-57.906
X96.556Y-44.85
X96.8Y-57.2
X97.2Y-68.7
X97.54Y-69.69
X97.875Y-43.225
X97.875Y-44.23
X98.2Y-70.4
X98.383Y-41.883
X98.846Y-69.664
X98.846Y-70.4
X98.88Y-39.2
X98.88Y-40.0
X99.15Y-54.0
X99.255Y-65.55
X99.35Y-49.6
X99.5Y-70.4
X99.855Y-76.627
X100.1Y-54.15
X100.1Y-66.5
X100.385Y-70.509
X100.6Y-68.4
X100.7Y-73.65
X100.9Y-65.2
X101.25Y-36.4
X101.635Y-71.43
X101.715Y-73.686
X102.215Y-44.396
X102.29Y-40.53
X103.2Y-55.6
X103.351Y-70.699
X105.122Y-63.878
X105.655Y-52.745
X105.87Y-38.41
X106.1Y-60.7
X106.445Y-58.145
X106.61Y-70.92
X106.61Y-71.64
X106.75Y-67.29
X106.8Y-46.8
X106.8Y-60.1
X107.18Y-34.84
X107.31Y-70.93
X107.31Y-71.64
X107.4Y-66.1
X107.775Y-47.535
X108.02Y-70.94
X108.03Y-71.65
X108.05Y-59.15
X108.3Y-63.15
X108.67Y-67.31
X109.013Y-61.587
X109.035Y-60.1
X109.7Y-75.7
X110.0Y-61.65
X110.206Y-66.994
X110.475Y-71.395
X110.85Y-64.85
X111.042Y-38.942
X111.398Y-37.725
X111.7Y-59.105
X112.09Y-68.93
X112.7Y-46.7
T2
X76.0Y-56.8
X76.895Y-65.7
X76.9Y-56.8
X76.9Y-62.7
X76.9Y-63.7
X76.9Y-64.7
X77.895Y-65.7
X77.9Y-62.7
X77.9Y-63.7
X77.9Y-64.7
X77.9Y-68.75
X77.905Y-66.75
X77.905Y-67.75
X78.895Y-65.7
X78.9Y-62.7
X78.9Y-63.7
X78.9Y-64.7
X78.9Y-68.75
X78.905Y-66.75
X78.905Y-67.75
X78.905Y-69.75
X78.905Y-70.75
X79.785Y-46.695
X79.895Y-65.7
X79.9Y-62.7
X79.9Y-63.7
X79.9Y-64.7
X79.9Y-66.75
X79.9Y-68.75
X79.9Y-69.75
X79.9Y-71.75
X79.905Y-67.75
X79.905Y-70.75
X80.5Y-60.2
X80.7Y-58.0
X80.755Y-46.695
X81.5Y-60.2
X81.5Y-61.2
X81.5Y-62.2
X81.5Y-63.2
X81.7Y-58.0
X82.5Y-60.2
X82.5Y-61.2
X82.5Y-62.2
X82.7Y-58.0
X83.0Y-45.3
X83.3Y-73.2
X83.3Y-74.3
X83.3Y-75.4
X83.3Y-76.5
X83.5Y-60.2
X83.5Y-61.2
X83.9Y-48.6
X83.9Y-49.6
X83.9Y-50.6
X83.9Y-51.6
X83.9Y-52.6
X84.2Y-40.2
X84.4Y-73.2
X84.4Y-74.3
X84.4Y-75.4
X84.4Y-76.5
X84.4Y-77.6
X84.8Y-65.7
X84.9Y-48.6
X84.9Y-49.6
X84.9Y-50.6
X84.9Y-51.6
X84.9Y-52.6
X85.3Y-68.0
X85.38Y-72.42
X85.39Y-71.71
X85.5Y-64.8
X85.8Y-38.9
X85.9Y-48.6
X85.9Y-49.6
X85.9Y-50.6
X85.9Y-51.6
X85.9Y-52.6
X86.2Y-67.1
X86.2Y-68.0
X86.2Y-71.71
X86.2Y-72.43
X86.4Y-70.2
X87.02Y-71.71
X87.02Y-72.43
X87.1Y-67.9
X87.9Y-39.0
X88.0Y-68.0
X88.5Y-71.3
X88.7Y-64.3
X88.9Y-67.9
X89.2Y-79.3
X89.2Y-80.4
X89.8Y-63.2
X89.8Y-64.3
X89.8Y-67.7
X90.1Y-80.4
X90.1Y-81.465
X90.765Y-72.925
X90.8Y-74.0
X90.935Y-81.465
X91.0Y-80.4
X91.5Y-38.6
X91.8Y-72.9
X91.835Y-73.975
X92.1Y-70.8
X92.4Y-39.0
X92.8Y-72.9
X92.8Y-75.9
X92.8Y-76.9
X92.8Y-80.8
X92.8Y-81.8
X92.835Y-73.975
X93.8Y-75.9
X93.8Y-76.9
X93.8Y-80.8
X93.8Y-81.7
X93.9Y-71.8
X93.9Y-72.9
X93.935Y-73.975
X94.8Y-75.9
X94.8Y-76.9
X94.8Y-80.8
X94.8Y-81.7
X94.9Y-34.4
X94.9Y-70.9
X94.9Y-72.9
X94.905Y-71.765
X94.935Y-73.975
X95.8Y-34.4
X96.14Y-73.67
X96.14Y-74.43
X96.3Y-63.7
X96.7Y-34.4
X96.86Y-73.67
X96.86Y-74.43
X97.1Y-63.7
X97.6Y-73.67
X97.62Y-74.42
X98.8Y-75.1
X99.225Y-51.913
X99.3Y-82.0
X99.7Y-75.1
X99.8Y-83.0
X99.907Y-51.218
X100.0Y-83.9
X100.22Y-81.98
X100.815Y-83.865
X101.0Y-83.0
X102.3Y-75.9
X103.113Y-48.013
X103.3Y-74.9
X103.3Y-75.9
X103.5Y-78.1
X103.5Y-79.1
X103.5Y-82.3
X103.5Y-83.4
X104.2Y-42.0
X104.3Y-67.5
X104.4Y-73.9
X104.4Y-74.9
X104.4Y-75.9
X104.5Y-78.1
X104.5Y-79.1
X104.5Y-83.4
X105.285Y-50.155
X105.3Y-42.0
X105.3Y-49.2
X105.3Y-51.1
X105.4Y-34.6
X105.5Y-73.9
X105.5Y-74.9
X105.5Y-75.9
X105.5Y-78.1
X105.5Y-79.1
X105.5Y-83.4
X105.83Y-48.505
X106.0Y-68.2
X106.0Y-69.2
X106.4Y-56.7
X106.6Y-81.2
X106.6Y-82.3
X106.6Y-83.4
X107.3Y-48.5
X107.4Y-56.7
X107.6Y-81.2
X107.6Y-82.3
X107.6Y-83.4
X108.6Y-36.7
X108.7Y-82.3
X109.2Y-53.0
X109.2Y-70.9
X109.5Y-41.3
X109.5Y-42.3
X109.5Y-71.58
X110.0Y-68.0
X110.0Y-80.2
X110.4Y-81.0
X110.5Y-42.3
X110.775Y-81.755
X110.8Y-80.2
X110.9Y-57.2
X110.9Y-57.9
X111.2Y-81.0
X111.6Y-80.2
X111.9Y-76.8
X112.3Y-52.5
X112.3Y-62.2
X112.3Y-63.3
X112.5Y-71.0
X112.5Y-72.0
X112.5Y-73.0
X113.0Y-75.7
X113.0Y-76.8
X113.5Y-43.6
X113.5Y-71.0
X113.5Y-72.0
X113.5Y-73.0
X113.5Y-79.1
X113.5Y-80.3
X114.1Y-75.7
X114.1Y-76.8
X114.5Y-71.0
X114.5Y-72.0
X114.5Y-73.0
X114.6Y-44.6
X114.6Y-46.0
X114.6Y-47.4
X115.1Y-75.7
X115.1Y-76.8
X115.5Y-71.0
X116.1Y-75.7
X116.1Y-76.8
X116.135Y-79.095
X116.15Y-77.915
X117.1Y-67.8
X117.1Y-73.5
X117.2Y-75.7
X117.2Y-76.8
X117.2Y-77.9
X117.8Y-72.6
X118.2Y-67.8
X118.6Y-71.7
X119.2Y-67.8
X119.7Y-70.7
X120.9Y-68.1
X120.9Y-69.4
X120.9Y-70.7
X122.0Y-66.8
X122.0Y-68.1
X122.0Y-69.4
X122.8Y-51.0
X123.1Y-66.8
X123.1Y-68.1
X123.9Y-51.0
X125.0Y-51.0
M30
