%TF.GenerationSoftware,KiCad,Pcbnew,9.0.0*%
%TF.CreationDate,2025-06-01T03:36:43+08:00*%
%TF.ProjectId,CAPSTONE_MC,43415053-544f-44e4-955f-4d432e6b6963,Ver. 1.0.0*%
%TF.SameCoordinates,Original*%
%TF.FileFunction,Soldermask,Bot*%
%TF.FilePolarity,Negative*%
%FSLAX46Y46*%
G04 Gerber Fmt 4.6, Leading zero omitted, Abs format (unit mm)*
G04 Created by KiCad (PCBNEW 9.0.0) date 2025-06-01 03:36:43*
%MOMM*%
%LPD*%
G01*
G04 APERTURE LIST*
G04 Aperture macros list*
%AMRoundRect*
0 Rectangle with rounded corners*
0 $1 Rounding radius*
0 $2 $3 $4 $5 $6 $7 $8 $9 X,Y pos of 4 corners*
0 Add a 4 corners polygon primitive as box body*
4,1,4,$2,$3,$4,$5,$6,$7,$8,$9,$2,$3,0*
0 Add four circle primitives for the rounded corners*
1,1,$1+$1,$2,$3*
1,1,$1+$1,$4,$5*
1,1,$1+$1,$6,$7*
1,1,$1+$1,$8,$9*
0 Add four rect primitives between the rounded corners*
20,1,$1+$1,$2,$3,$4,$5,0*
20,1,$1+$1,$4,$5,$6,$7,0*
20,1,$1+$1,$6,$7,$8,$9,0*
20,1,$1+$1,$8,$9,$2,$3,0*%
G04 Aperture macros list end*
%ADD10C,2.200000*%
%ADD11RoundRect,0.250000X0.625000X-0.312500X0.625000X0.312500X-0.625000X0.312500X-0.625000X-0.312500X0*%
%ADD12RoundRect,0.250000X-0.625000X0.312500X-0.625000X-0.312500X0.625000X-0.312500X0.625000X0.312500X0*%
%ADD13RoundRect,0.250000X2.450000X-0.650000X2.450000X0.650000X-2.450000X0.650000X-2.450000X-0.650000X0*%
%ADD14RoundRect,0.250000X0.650000X2.450000X-0.650000X2.450000X-0.650000X-2.450000X0.650000X-2.450000X0*%
%ADD15RoundRect,0.135000X-0.135000X-0.185000X0.135000X-0.185000X0.135000X0.185000X-0.135000X0.185000X0*%
%ADD16RoundRect,0.250000X0.006255X-2.534751X1.261958X-2.198286X-0.006255X2.534751X-1.261958X2.198286X0*%
%ADD17RoundRect,0.140000X0.140000X0.170000X-0.140000X0.170000X-0.140000X-0.170000X0.140000X-0.170000X0*%
%ADD18RoundRect,0.135000X0.135000X0.185000X-0.135000X0.185000X-0.135000X-0.185000X0.135000X-0.185000X0*%
%ADD19RoundRect,0.140000X-0.140000X-0.170000X0.140000X-0.170000X0.140000X0.170000X-0.140000X0.170000X0*%
%ADD20C,1.500000*%
%ADD21RoundRect,0.250000X0.312500X0.625000X-0.312500X0.625000X-0.312500X-0.625000X0.312500X-0.625000X0*%
%ADD22RoundRect,0.250000X-0.312500X-0.625000X0.312500X-0.625000X0.312500X0.625000X-0.312500X0.625000X0*%
%ADD23RoundRect,0.140000X-0.170000X0.140000X-0.170000X-0.140000X0.170000X-0.140000X0.170000X0.140000X0*%
%ADD24RoundRect,0.135000X-0.185000X0.135000X-0.185000X-0.135000X0.185000X-0.135000X0.185000X0.135000X0*%
%ADD25RoundRect,0.250000X0.227149X-2.524560X1.448750X-2.079934X-0.227149X2.524560X-1.448750X2.079934X0*%
%ADD26RoundRect,0.100000X-0.637500X-0.100000X0.637500X-0.100000X0.637500X0.100000X-0.637500X0.100000X0*%
G04 APERTURE END LIST*
D10*
%TO.C,H2*%
X87810000Y-66140000D03*
%TD*%
%TO.C,H1*%
X104850000Y-44510000D03*
%TD*%
%TO.C,H3*%
X113960000Y-66550000D03*
%TD*%
D11*
%TO.C,R12*%
X86365000Y-72117500D03*
X86365000Y-69192500D03*
%TD*%
D12*
%TO.C,R24*%
X88645000Y-69952500D03*
X88645000Y-72877500D03*
%TD*%
D13*
%TO.C,C30*%
X103265000Y-80485000D03*
X103265000Y-75385000D03*
%TD*%
D14*
%TO.C,C48*%
X123835000Y-65915000D03*
X118735000Y-65915000D03*
%TD*%
D15*
%TO.C,R27*%
X100695000Y-73685750D03*
X101715000Y-73685750D03*
%TD*%
D13*
%TO.C,C32*%
X113835000Y-78195000D03*
X113835000Y-73095000D03*
%TD*%
D16*
%TO.C,C49*%
X76881890Y-62674988D03*
X81808110Y-61355012D03*
%TD*%
D17*
%TO.C,C40*%
X103795000Y-71485000D03*
X102835000Y-71485000D03*
%TD*%
D18*
%TO.C,R23*%
X88220000Y-59520000D03*
X87200000Y-59520000D03*
%TD*%
D19*
%TO.C,C41*%
X95160000Y-51595000D03*
X96120000Y-51595000D03*
%TD*%
D20*
%TO.C,TP19*%
X110825000Y-81875000D03*
%TD*%
D18*
%TO.C,R16*%
X103805000Y-72445000D03*
X102785000Y-72445000D03*
%TD*%
D21*
%TO.C,R22*%
X88257501Y-61205000D03*
X85332499Y-61205000D03*
%TD*%
D22*
%TO.C,R10*%
X107162500Y-69185000D03*
X110087500Y-69185000D03*
%TD*%
%TO.C,R11*%
X96682500Y-71725000D03*
X99607500Y-71725000D03*
%TD*%
D15*
%TO.C,R25*%
X90285000Y-71005000D03*
X91305000Y-71005000D03*
%TD*%
D12*
%TO.C,R28*%
X109715000Y-72742500D03*
X109715000Y-75667500D03*
%TD*%
D23*
%TO.C,C45*%
X105455000Y-58985000D03*
X105455000Y-59945000D03*
%TD*%
D12*
%TO.C,R26*%
X99155000Y-73702500D03*
X99155000Y-76627500D03*
%TD*%
D15*
%TO.C,R17*%
X95135000Y-52555000D03*
X96155000Y-52555000D03*
%TD*%
D18*
%TO.C,TH2*%
X96175000Y-53915000D03*
X95155000Y-53915000D03*
%TD*%
D13*
%TO.C,C31*%
X92765000Y-78325000D03*
X92765000Y-73225000D03*
%TD*%
D24*
%TO.C,TH1*%
X105095000Y-71475000D03*
X105095000Y-72495000D03*
%TD*%
D25*
%TO.C,C50*%
X78828784Y-68877152D03*
X83621216Y-67132848D03*
%TD*%
D20*
%TO.C,TP18*%
X100425000Y-83875000D03*
%TD*%
%TO.C,TP17*%
X90752999Y-81525000D03*
%TD*%
D26*
%TO.C,U8*%
X98137500Y-60950000D03*
X98137500Y-60300000D03*
X98137500Y-59650000D03*
X98137500Y-59000000D03*
X98137500Y-58350000D03*
X98137500Y-57700000D03*
X98137500Y-57050000D03*
X103862500Y-57050000D03*
X103862500Y-57700000D03*
X103862500Y-58350000D03*
X103862500Y-59000000D03*
X103862500Y-59650000D03*
X103862500Y-60300000D03*
X103862500Y-60950000D03*
%TD*%
D15*
%TO.C,R29*%
X110475000Y-71395000D03*
X111495000Y-71395000D03*
%TD*%
M02*
