%TF.GenerationSoftware,KiCad,Pcbnew,9.0.0*%
%TF.CreationDate,2025-06-25T03:54:54+08:00*%
%TF.ProjectId,CAPSTONE_MC,43415053-544f-44e4-955f-4d432e6b6963,Ver. 1.0.0*%
%TF.SameCoordinates,Original*%
%TF.FileFunction,Legend,Bot*%
%TF.FilePolarity,Positive*%
%FSLAX46Y46*%
G04 Gerber Fmt 4.6, Leading zero omitted, Abs format (unit mm)*
G04 Created by KiCad (PCBNEW 9.0.0) date 2025-06-25 03:54:54*
%MOMM*%
%LPD*%
G01*
G04 APERTURE LIST*
G04 Aperture macros list*
%AMRoundRect*
0 Rectangle with rounded corners*
0 $1 Rounding radius*
0 $2 $3 $4 $5 $6 $7 $8 $9 X,Y pos of 4 corners*
0 Add a 4 corners polygon primitive as box body*
4,1,4,$2,$3,$4,$5,$6,$7,$8,$9,$2,$3,0*
0 Add four circle primitives for the rounded corners*
1,1,$1+$1,$2,$3*
1,1,$1+$1,$4,$5*
1,1,$1+$1,$6,$7*
1,1,$1+$1,$8,$9*
0 Add four rect primitives between the rounded corners*
20,1,$1+$1,$2,$3,$4,$5,0*
20,1,$1+$1,$4,$5,$6,$7,0*
20,1,$1+$1,$6,$7,$8,$9,0*
20,1,$1+$1,$8,$9,$2,$3,0*%
G04 Aperture macros list end*
%ADD10C,0.150000*%
%ADD11C,0.300000*%
%ADD12C,0.400000*%
%ADD13C,0.200000*%
%ADD14C,0.100000*%
%ADD15C,0.120000*%
%ADD16C,2.000000*%
%ADD17C,3.000000*%
%ADD18C,2.200000*%
%ADD19RoundRect,0.250000X0.625000X-0.312500X0.625000X0.312500X-0.625000X0.312500X-0.625000X-0.312500X0*%
%ADD20RoundRect,0.250000X-0.362500X-1.075000X0.362500X-1.075000X0.362500X1.075000X-0.362500X1.075000X0*%
%ADD21RoundRect,0.140000X0.140000X0.170000X-0.140000X0.170000X-0.140000X-0.170000X0.140000X-0.170000X0*%
%ADD22RoundRect,0.250000X2.450000X-0.650000X2.450000X0.650000X-2.450000X0.650000X-2.450000X-0.650000X0*%
%ADD23RoundRect,0.250000X0.650000X2.450000X-0.650000X2.450000X-0.650000X-2.450000X0.650000X-2.450000X0*%
%ADD24RoundRect,0.135000X0.135000X0.185000X-0.135000X0.185000X-0.135000X-0.185000X0.135000X-0.185000X0*%
%ADD25RoundRect,0.140000X-0.170000X0.140000X-0.170000X-0.140000X0.170000X-0.140000X0.170000X0.140000X0*%
%ADD26RoundRect,0.140000X-0.140000X-0.170000X0.140000X-0.170000X0.140000X0.170000X-0.140000X0.170000X0*%
%ADD27RoundRect,0.135000X-0.185000X0.135000X-0.185000X-0.135000X0.185000X-0.135000X0.185000X0.135000X0*%
%ADD28RoundRect,0.250000X0.362500X1.075000X-0.362500X1.075000X-0.362500X-1.075000X0.362500X-1.075000X0*%
%ADD29RoundRect,0.250000X-0.312500X-0.625000X0.312500X-0.625000X0.312500X0.625000X-0.312500X0.625000X0*%
%ADD30RoundRect,0.135000X-0.135000X-0.185000X0.135000X-0.185000X0.135000X0.185000X-0.135000X0.185000X0*%
%ADD31RoundRect,0.250000X0.262500X0.450000X-0.262500X0.450000X-0.262500X-0.450000X0.262500X-0.450000X0*%
%ADD32RoundRect,0.250000X0.227149X-2.524560X1.448750X-2.079934X-0.227149X2.524560X-1.448750X2.079934X0*%
%ADD33RoundRect,0.250000X-0.900000X1.000000X-0.900000X-1.000000X0.900000X-1.000000X0.900000X1.000000X0*%
%ADD34RoundRect,0.100000X-0.637500X-0.100000X0.637500X-0.100000X0.637500X0.100000X-0.637500X0.100000X0*%
G04 APERTURE END LIST*
D10*
X112391792Y-81674580D02*
X112439411Y-81722200D01*
X112439411Y-81722200D02*
X112582268Y-81769819D01*
X112582268Y-81769819D02*
X112677506Y-81769819D01*
X112677506Y-81769819D02*
X112820363Y-81722200D01*
X112820363Y-81722200D02*
X112915601Y-81626961D01*
X112915601Y-81626961D02*
X112963220Y-81531723D01*
X112963220Y-81531723D02*
X113010839Y-81341247D01*
X113010839Y-81341247D02*
X113010839Y-81198390D01*
X113010839Y-81198390D02*
X112963220Y-81007914D01*
X112963220Y-81007914D02*
X112915601Y-80912676D01*
X112915601Y-80912676D02*
X112820363Y-80817438D01*
X112820363Y-80817438D02*
X112677506Y-80769819D01*
X112677506Y-80769819D02*
X112582268Y-80769819D01*
X112582268Y-80769819D02*
X112439411Y-80817438D01*
X112439411Y-80817438D02*
X112391792Y-80865057D01*
X102229887Y-84146009D02*
X102087030Y-84193628D01*
X102087030Y-84193628D02*
X102039411Y-84241247D01*
X102039411Y-84241247D02*
X101991792Y-84336485D01*
X101991792Y-84336485D02*
X101991792Y-84479342D01*
X101991792Y-84479342D02*
X102039411Y-84574580D01*
X102039411Y-84574580D02*
X102087030Y-84622200D01*
X102087030Y-84622200D02*
X102182268Y-84669819D01*
X102182268Y-84669819D02*
X102563220Y-84669819D01*
X102563220Y-84669819D02*
X102563220Y-83669819D01*
X102563220Y-83669819D02*
X102229887Y-83669819D01*
X102229887Y-83669819D02*
X102134649Y-83717438D01*
X102134649Y-83717438D02*
X102087030Y-83765057D01*
X102087030Y-83765057D02*
X102039411Y-83860295D01*
X102039411Y-83860295D02*
X102039411Y-83955533D01*
X102039411Y-83955533D02*
X102087030Y-84050771D01*
X102087030Y-84050771D02*
X102134649Y-84098390D01*
X102134649Y-84098390D02*
X102229887Y-84146009D01*
X102229887Y-84146009D02*
X102563220Y-84146009D01*
D11*
X106845489Y-66357971D02*
X106774060Y-66429400D01*
X106774060Y-66429400D02*
X106845489Y-66500828D01*
X106845489Y-66500828D02*
X106916917Y-66429400D01*
X106916917Y-66429400D02*
X106845489Y-66357971D01*
X106845489Y-66357971D02*
X106845489Y-66500828D01*
X106845489Y-65929400D02*
X106916917Y-65072257D01*
X106916917Y-65072257D02*
X106845489Y-65000828D01*
X106845489Y-65000828D02*
X106774060Y-65072257D01*
X106774060Y-65072257D02*
X106845489Y-65929400D01*
X106845489Y-65929400D02*
X106845489Y-65000828D01*
X106131203Y-66500828D02*
X106131203Y-65000828D01*
X106131203Y-65715114D02*
X105274060Y-65715114D01*
X105274060Y-66500828D02*
X105274060Y-65000828D01*
X104774059Y-65000828D02*
X104274059Y-66500828D01*
X104274059Y-66500828D02*
X103774059Y-65000828D01*
X102131203Y-66500828D02*
X102131203Y-65000828D01*
X102131203Y-65000828D02*
X101774060Y-65000828D01*
X101774060Y-65000828D02*
X101559774Y-65072257D01*
X101559774Y-65072257D02*
X101416917Y-65215114D01*
X101416917Y-65215114D02*
X101345488Y-65357971D01*
X101345488Y-65357971D02*
X101274060Y-65643685D01*
X101274060Y-65643685D02*
X101274060Y-65857971D01*
X101274060Y-65857971D02*
X101345488Y-66143685D01*
X101345488Y-66143685D02*
X101416917Y-66286542D01*
X101416917Y-66286542D02*
X101559774Y-66429400D01*
X101559774Y-66429400D02*
X101774060Y-66500828D01*
X101774060Y-66500828D02*
X102131203Y-66500828D01*
X99988346Y-66500828D02*
X99988346Y-65715114D01*
X99988346Y-65715114D02*
X100059774Y-65572257D01*
X100059774Y-65572257D02*
X100202631Y-65500828D01*
X100202631Y-65500828D02*
X100488346Y-65500828D01*
X100488346Y-65500828D02*
X100631203Y-65572257D01*
X99988346Y-66429400D02*
X100131203Y-66500828D01*
X100131203Y-66500828D02*
X100488346Y-66500828D01*
X100488346Y-66500828D02*
X100631203Y-66429400D01*
X100631203Y-66429400D02*
X100702631Y-66286542D01*
X100702631Y-66286542D02*
X100702631Y-66143685D01*
X100702631Y-66143685D02*
X100631203Y-66000828D01*
X100631203Y-66000828D02*
X100488346Y-65929400D01*
X100488346Y-65929400D02*
X100131203Y-65929400D01*
X100131203Y-65929400D02*
X99988346Y-65857971D01*
X99274060Y-65500828D02*
X99274060Y-66500828D01*
X99274060Y-65643685D02*
X99202631Y-65572257D01*
X99202631Y-65572257D02*
X99059774Y-65500828D01*
X99059774Y-65500828D02*
X98845488Y-65500828D01*
X98845488Y-65500828D02*
X98702631Y-65572257D01*
X98702631Y-65572257D02*
X98631203Y-65715114D01*
X98631203Y-65715114D02*
X98631203Y-66500828D01*
X97274060Y-65500828D02*
X97274060Y-66715114D01*
X97274060Y-66715114D02*
X97345488Y-66857971D01*
X97345488Y-66857971D02*
X97416917Y-66929400D01*
X97416917Y-66929400D02*
X97559774Y-67000828D01*
X97559774Y-67000828D02*
X97774060Y-67000828D01*
X97774060Y-67000828D02*
X97916917Y-66929400D01*
X97274060Y-66429400D02*
X97416917Y-66500828D01*
X97416917Y-66500828D02*
X97702631Y-66500828D01*
X97702631Y-66500828D02*
X97845488Y-66429400D01*
X97845488Y-66429400D02*
X97916917Y-66357971D01*
X97916917Y-66357971D02*
X97988345Y-66215114D01*
X97988345Y-66215114D02*
X97988345Y-65786542D01*
X97988345Y-65786542D02*
X97916917Y-65643685D01*
X97916917Y-65643685D02*
X97845488Y-65572257D01*
X97845488Y-65572257D02*
X97702631Y-65500828D01*
X97702631Y-65500828D02*
X97416917Y-65500828D01*
X97416917Y-65500828D02*
X97274060Y-65572257D01*
X95988345Y-66429400D02*
X96131202Y-66500828D01*
X96131202Y-66500828D02*
X96416917Y-66500828D01*
X96416917Y-66500828D02*
X96559774Y-66429400D01*
X96559774Y-66429400D02*
X96631202Y-66286542D01*
X96631202Y-66286542D02*
X96631202Y-65715114D01*
X96631202Y-65715114D02*
X96559774Y-65572257D01*
X96559774Y-65572257D02*
X96416917Y-65500828D01*
X96416917Y-65500828D02*
X96131202Y-65500828D01*
X96131202Y-65500828D02*
X95988345Y-65572257D01*
X95988345Y-65572257D02*
X95916917Y-65715114D01*
X95916917Y-65715114D02*
X95916917Y-65857971D01*
X95916917Y-65857971D02*
X96631202Y-66000828D01*
X95274060Y-66500828D02*
X95274060Y-65500828D01*
X95274060Y-65786542D02*
X95202631Y-65643685D01*
X95202631Y-65643685D02*
X95131203Y-65572257D01*
X95131203Y-65572257D02*
X94988345Y-65500828D01*
X94988345Y-65500828D02*
X94845488Y-65500828D01*
X94345489Y-66357971D02*
X94274060Y-66429400D01*
X94274060Y-66429400D02*
X94345489Y-66500828D01*
X94345489Y-66500828D02*
X94416917Y-66429400D01*
X94416917Y-66429400D02*
X94345489Y-66357971D01*
X94345489Y-66357971D02*
X94345489Y-66500828D01*
X94345489Y-65929400D02*
X94416917Y-65072257D01*
X94416917Y-65072257D02*
X94345489Y-65000828D01*
X94345489Y-65000828D02*
X94274060Y-65072257D01*
X94274060Y-65072257D02*
X94345489Y-65929400D01*
X94345489Y-65929400D02*
X94345489Y-65000828D01*
D12*
X117260652Y-48443961D02*
X117165414Y-48539200D01*
X117165414Y-48539200D02*
X117260652Y-48634438D01*
X117260652Y-48634438D02*
X117355890Y-48539200D01*
X117355890Y-48539200D02*
X117260652Y-48443961D01*
X117260652Y-48443961D02*
X117260652Y-48634438D01*
X117260652Y-47872533D02*
X117355890Y-46729676D01*
X117355890Y-46729676D02*
X117260652Y-46634438D01*
X117260652Y-46634438D02*
X117165414Y-46729676D01*
X117165414Y-46729676D02*
X117260652Y-47872533D01*
X117260652Y-47872533D02*
X117260652Y-46634438D01*
X114117794Y-47586819D02*
X113832080Y-47682057D01*
X113832080Y-47682057D02*
X113736842Y-47777295D01*
X113736842Y-47777295D02*
X113641604Y-47967771D01*
X113641604Y-47967771D02*
X113641604Y-48253485D01*
X113641604Y-48253485D02*
X113736842Y-48443961D01*
X113736842Y-48443961D02*
X113832080Y-48539200D01*
X113832080Y-48539200D02*
X114022556Y-48634438D01*
X114022556Y-48634438D02*
X114784461Y-48634438D01*
X114784461Y-48634438D02*
X114784461Y-46634438D01*
X114784461Y-46634438D02*
X114117794Y-46634438D01*
X114117794Y-46634438D02*
X113927318Y-46729676D01*
X113927318Y-46729676D02*
X113832080Y-46824914D01*
X113832080Y-46824914D02*
X113736842Y-47015390D01*
X113736842Y-47015390D02*
X113736842Y-47205866D01*
X113736842Y-47205866D02*
X113832080Y-47396342D01*
X113832080Y-47396342D02*
X113927318Y-47491580D01*
X113927318Y-47491580D02*
X114117794Y-47586819D01*
X114117794Y-47586819D02*
X114784461Y-47586819D01*
X112784461Y-47586819D02*
X112117794Y-47586819D01*
X111832080Y-48634438D02*
X112784461Y-48634438D01*
X112784461Y-48634438D02*
X112784461Y-46634438D01*
X112784461Y-46634438D02*
X111832080Y-46634438D01*
X110308270Y-47586819D02*
X110974937Y-47586819D01*
X110974937Y-48634438D02*
X110974937Y-46634438D01*
X110974937Y-46634438D02*
X110022556Y-46634438D01*
X108879699Y-46634438D02*
X108498746Y-46634438D01*
X108498746Y-46634438D02*
X108308270Y-46729676D01*
X108308270Y-46729676D02*
X108117794Y-46920152D01*
X108117794Y-46920152D02*
X108022556Y-47301104D01*
X108022556Y-47301104D02*
X108022556Y-47967771D01*
X108022556Y-47967771D02*
X108117794Y-48348723D01*
X108117794Y-48348723D02*
X108308270Y-48539200D01*
X108308270Y-48539200D02*
X108498746Y-48634438D01*
X108498746Y-48634438D02*
X108879699Y-48634438D01*
X108879699Y-48634438D02*
X109070175Y-48539200D01*
X109070175Y-48539200D02*
X109260651Y-48348723D01*
X109260651Y-48348723D02*
X109355889Y-47967771D01*
X109355889Y-47967771D02*
X109355889Y-47301104D01*
X109355889Y-47301104D02*
X109260651Y-46920152D01*
X109260651Y-46920152D02*
X109070175Y-46729676D01*
X109070175Y-46729676D02*
X108879699Y-46634438D01*
X106022556Y-48634438D02*
X106689223Y-47682057D01*
X107165413Y-48634438D02*
X107165413Y-46634438D01*
X107165413Y-46634438D02*
X106403508Y-46634438D01*
X106403508Y-46634438D02*
X106213032Y-46729676D01*
X106213032Y-46729676D02*
X106117794Y-46824914D01*
X106117794Y-46824914D02*
X106022556Y-47015390D01*
X106022556Y-47015390D02*
X106022556Y-47301104D01*
X106022556Y-47301104D02*
X106117794Y-47491580D01*
X106117794Y-47491580D02*
X106213032Y-47586819D01*
X106213032Y-47586819D02*
X106403508Y-47682057D01*
X106403508Y-47682057D02*
X107165413Y-47682057D01*
X105165413Y-47586819D02*
X104498746Y-47586819D01*
X104213032Y-48634438D02*
X105165413Y-48634438D01*
X105165413Y-48634438D02*
X105165413Y-46634438D01*
X105165413Y-46634438D02*
X104213032Y-46634438D01*
X101832079Y-48634438D02*
X101832079Y-46634438D01*
X101832079Y-46634438D02*
X101355889Y-46634438D01*
X101355889Y-46634438D02*
X101070174Y-46729676D01*
X101070174Y-46729676D02*
X100879698Y-46920152D01*
X100879698Y-46920152D02*
X100784460Y-47110628D01*
X100784460Y-47110628D02*
X100689222Y-47491580D01*
X100689222Y-47491580D02*
X100689222Y-47777295D01*
X100689222Y-47777295D02*
X100784460Y-48158247D01*
X100784460Y-48158247D02*
X100879698Y-48348723D01*
X100879698Y-48348723D02*
X101070174Y-48539200D01*
X101070174Y-48539200D02*
X101355889Y-48634438D01*
X101355889Y-48634438D02*
X101832079Y-48634438D01*
X99832079Y-48634438D02*
X99832079Y-46634438D01*
X98974936Y-48539200D02*
X98689222Y-48634438D01*
X98689222Y-48634438D02*
X98213031Y-48634438D01*
X98213031Y-48634438D02*
X98022555Y-48539200D01*
X98022555Y-48539200D02*
X97927317Y-48443961D01*
X97927317Y-48443961D02*
X97832079Y-48253485D01*
X97832079Y-48253485D02*
X97832079Y-48063009D01*
X97832079Y-48063009D02*
X97927317Y-47872533D01*
X97927317Y-47872533D02*
X98022555Y-47777295D01*
X98022555Y-47777295D02*
X98213031Y-47682057D01*
X98213031Y-47682057D02*
X98593984Y-47586819D01*
X98593984Y-47586819D02*
X98784460Y-47491580D01*
X98784460Y-47491580D02*
X98879698Y-47396342D01*
X98879698Y-47396342D02*
X98974936Y-47205866D01*
X98974936Y-47205866D02*
X98974936Y-47015390D01*
X98974936Y-47015390D02*
X98879698Y-46824914D01*
X98879698Y-46824914D02*
X98784460Y-46729676D01*
X98784460Y-46729676D02*
X98593984Y-46634438D01*
X98593984Y-46634438D02*
X98117793Y-46634438D01*
X98117793Y-46634438D02*
X97832079Y-46729676D01*
X95832079Y-48443961D02*
X95927317Y-48539200D01*
X95927317Y-48539200D02*
X96213031Y-48634438D01*
X96213031Y-48634438D02*
X96403507Y-48634438D01*
X96403507Y-48634438D02*
X96689222Y-48539200D01*
X96689222Y-48539200D02*
X96879698Y-48348723D01*
X96879698Y-48348723D02*
X96974936Y-48158247D01*
X96974936Y-48158247D02*
X97070174Y-47777295D01*
X97070174Y-47777295D02*
X97070174Y-47491580D01*
X97070174Y-47491580D02*
X96974936Y-47110628D01*
X96974936Y-47110628D02*
X96879698Y-46920152D01*
X96879698Y-46920152D02*
X96689222Y-46729676D01*
X96689222Y-46729676D02*
X96403507Y-46634438D01*
X96403507Y-46634438D02*
X96213031Y-46634438D01*
X96213031Y-46634438D02*
X95927317Y-46729676D01*
X95927317Y-46729676D02*
X95832079Y-46824914D01*
X94974936Y-48634438D02*
X94974936Y-46634438D01*
X94974936Y-47586819D02*
X93832079Y-47586819D01*
X93832079Y-48634438D02*
X93832079Y-46634438D01*
X92974936Y-48063009D02*
X92022555Y-48063009D01*
X93165412Y-48634438D02*
X92498746Y-46634438D01*
X92498746Y-46634438D02*
X91832079Y-48634438D01*
X90022555Y-48634438D02*
X90689222Y-47682057D01*
X91165412Y-48634438D02*
X91165412Y-46634438D01*
X91165412Y-46634438D02*
X90403507Y-46634438D01*
X90403507Y-46634438D02*
X90213031Y-46729676D01*
X90213031Y-46729676D02*
X90117793Y-46824914D01*
X90117793Y-46824914D02*
X90022555Y-47015390D01*
X90022555Y-47015390D02*
X90022555Y-47301104D01*
X90022555Y-47301104D02*
X90117793Y-47491580D01*
X90117793Y-47491580D02*
X90213031Y-47586819D01*
X90213031Y-47586819D02*
X90403507Y-47682057D01*
X90403507Y-47682057D02*
X91165412Y-47682057D01*
X88117793Y-46729676D02*
X88308269Y-46634438D01*
X88308269Y-46634438D02*
X88593983Y-46634438D01*
X88593983Y-46634438D02*
X88879698Y-46729676D01*
X88879698Y-46729676D02*
X89070174Y-46920152D01*
X89070174Y-46920152D02*
X89165412Y-47110628D01*
X89165412Y-47110628D02*
X89260650Y-47491580D01*
X89260650Y-47491580D02*
X89260650Y-47777295D01*
X89260650Y-47777295D02*
X89165412Y-48158247D01*
X89165412Y-48158247D02*
X89070174Y-48348723D01*
X89070174Y-48348723D02*
X88879698Y-48539200D01*
X88879698Y-48539200D02*
X88593983Y-48634438D01*
X88593983Y-48634438D02*
X88403507Y-48634438D01*
X88403507Y-48634438D02*
X88117793Y-48539200D01*
X88117793Y-48539200D02*
X88022555Y-48443961D01*
X88022555Y-48443961D02*
X88022555Y-47777295D01*
X88022555Y-47777295D02*
X88403507Y-47777295D01*
X87165412Y-47586819D02*
X86498745Y-47586819D01*
X86213031Y-48634438D02*
X87165412Y-48634438D01*
X87165412Y-48634438D02*
X87165412Y-46634438D01*
X87165412Y-46634438D02*
X86213031Y-46634438D01*
X83832078Y-48443961D02*
X83736840Y-48539200D01*
X83736840Y-48539200D02*
X83832078Y-48634438D01*
X83832078Y-48634438D02*
X83927316Y-48539200D01*
X83927316Y-48539200D02*
X83832078Y-48443961D01*
X83832078Y-48443961D02*
X83832078Y-48634438D01*
X83832078Y-47872533D02*
X83927316Y-46729676D01*
X83927316Y-46729676D02*
X83832078Y-46634438D01*
X83832078Y-46634438D02*
X83736840Y-46729676D01*
X83736840Y-46729676D02*
X83832078Y-47872533D01*
X83832078Y-47872533D02*
X83832078Y-46634438D01*
X115160652Y-42243961D02*
X115065414Y-42339200D01*
X115065414Y-42339200D02*
X115160652Y-42434438D01*
X115160652Y-42434438D02*
X115255890Y-42339200D01*
X115255890Y-42339200D02*
X115160652Y-42243961D01*
X115160652Y-42243961D02*
X115160652Y-42434438D01*
X115160652Y-41672533D02*
X115255890Y-40529676D01*
X115255890Y-40529676D02*
X115160652Y-40434438D01*
X115160652Y-40434438D02*
X115065414Y-40529676D01*
X115065414Y-40529676D02*
X115160652Y-41672533D01*
X115160652Y-41672533D02*
X115160652Y-40434438D01*
X114208271Y-42243961D02*
X114113033Y-42339200D01*
X114113033Y-42339200D02*
X114208271Y-42434438D01*
X114208271Y-42434438D02*
X114303509Y-42339200D01*
X114303509Y-42339200D02*
X114208271Y-42243961D01*
X114208271Y-42243961D02*
X114208271Y-42434438D01*
X114208271Y-41672533D02*
X114303509Y-40529676D01*
X114303509Y-40529676D02*
X114208271Y-40434438D01*
X114208271Y-40434438D02*
X114113033Y-40529676D01*
X114113033Y-40529676D02*
X114208271Y-41672533D01*
X114208271Y-41672533D02*
X114208271Y-40434438D01*
X111732080Y-42434438D02*
X111732080Y-40434438D01*
X111732080Y-40434438D02*
X111255890Y-40434438D01*
X111255890Y-40434438D02*
X110970175Y-40529676D01*
X110970175Y-40529676D02*
X110779699Y-40720152D01*
X110779699Y-40720152D02*
X110684461Y-40910628D01*
X110684461Y-40910628D02*
X110589223Y-41291580D01*
X110589223Y-41291580D02*
X110589223Y-41577295D01*
X110589223Y-41577295D02*
X110684461Y-41958247D01*
X110684461Y-41958247D02*
X110779699Y-42148723D01*
X110779699Y-42148723D02*
X110970175Y-42339200D01*
X110970175Y-42339200D02*
X111255890Y-42434438D01*
X111255890Y-42434438D02*
X111732080Y-42434438D01*
X109351128Y-40434438D02*
X108970175Y-40434438D01*
X108970175Y-40434438D02*
X108779699Y-40529676D01*
X108779699Y-40529676D02*
X108589223Y-40720152D01*
X108589223Y-40720152D02*
X108493985Y-41101104D01*
X108493985Y-41101104D02*
X108493985Y-41767771D01*
X108493985Y-41767771D02*
X108589223Y-42148723D01*
X108589223Y-42148723D02*
X108779699Y-42339200D01*
X108779699Y-42339200D02*
X108970175Y-42434438D01*
X108970175Y-42434438D02*
X109351128Y-42434438D01*
X109351128Y-42434438D02*
X109541604Y-42339200D01*
X109541604Y-42339200D02*
X109732080Y-42148723D01*
X109732080Y-42148723D02*
X109827318Y-41767771D01*
X109827318Y-41767771D02*
X109827318Y-41101104D01*
X109827318Y-41101104D02*
X109732080Y-40720152D01*
X109732080Y-40720152D02*
X109541604Y-40529676D01*
X109541604Y-40529676D02*
X109351128Y-40434438D01*
X106113032Y-42434438D02*
X106113032Y-40434438D01*
X106113032Y-40434438D02*
X104970175Y-42434438D01*
X104970175Y-42434438D02*
X104970175Y-40434438D01*
X103636842Y-40434438D02*
X103255889Y-40434438D01*
X103255889Y-40434438D02*
X103065413Y-40529676D01*
X103065413Y-40529676D02*
X102874937Y-40720152D01*
X102874937Y-40720152D02*
X102779699Y-41101104D01*
X102779699Y-41101104D02*
X102779699Y-41767771D01*
X102779699Y-41767771D02*
X102874937Y-42148723D01*
X102874937Y-42148723D02*
X103065413Y-42339200D01*
X103065413Y-42339200D02*
X103255889Y-42434438D01*
X103255889Y-42434438D02*
X103636842Y-42434438D01*
X103636842Y-42434438D02*
X103827318Y-42339200D01*
X103827318Y-42339200D02*
X104017794Y-42148723D01*
X104017794Y-42148723D02*
X104113032Y-41767771D01*
X104113032Y-41767771D02*
X104113032Y-41101104D01*
X104113032Y-41101104D02*
X104017794Y-40720152D01*
X104017794Y-40720152D02*
X103827318Y-40529676D01*
X103827318Y-40529676D02*
X103636842Y-40434438D01*
X102208270Y-40434438D02*
X101065413Y-40434438D01*
X101636842Y-42434438D02*
X101636842Y-40434438D01*
X99160650Y-40434438D02*
X98017793Y-40434438D01*
X98589222Y-42434438D02*
X98589222Y-40434438D01*
X96970174Y-40434438D02*
X96589221Y-40434438D01*
X96589221Y-40434438D02*
X96398745Y-40529676D01*
X96398745Y-40529676D02*
X96208269Y-40720152D01*
X96208269Y-40720152D02*
X96113031Y-41101104D01*
X96113031Y-41101104D02*
X96113031Y-41767771D01*
X96113031Y-41767771D02*
X96208269Y-42148723D01*
X96208269Y-42148723D02*
X96398745Y-42339200D01*
X96398745Y-42339200D02*
X96589221Y-42434438D01*
X96589221Y-42434438D02*
X96970174Y-42434438D01*
X96970174Y-42434438D02*
X97160650Y-42339200D01*
X97160650Y-42339200D02*
X97351126Y-42148723D01*
X97351126Y-42148723D02*
X97446364Y-41767771D01*
X97446364Y-41767771D02*
X97446364Y-41101104D01*
X97446364Y-41101104D02*
X97351126Y-40720152D01*
X97351126Y-40720152D02*
X97160650Y-40529676D01*
X97160650Y-40529676D02*
X96970174Y-40434438D01*
X95255888Y-40434438D02*
X95255888Y-42053485D01*
X95255888Y-42053485D02*
X95160650Y-42243961D01*
X95160650Y-42243961D02*
X95065412Y-42339200D01*
X95065412Y-42339200D02*
X94874936Y-42434438D01*
X94874936Y-42434438D02*
X94493983Y-42434438D01*
X94493983Y-42434438D02*
X94303507Y-42339200D01*
X94303507Y-42339200D02*
X94208269Y-42243961D01*
X94208269Y-42243961D02*
X94113031Y-42053485D01*
X94113031Y-42053485D02*
X94113031Y-40434438D01*
X92017793Y-42243961D02*
X92113031Y-42339200D01*
X92113031Y-42339200D02*
X92398745Y-42434438D01*
X92398745Y-42434438D02*
X92589221Y-42434438D01*
X92589221Y-42434438D02*
X92874936Y-42339200D01*
X92874936Y-42339200D02*
X93065412Y-42148723D01*
X93065412Y-42148723D02*
X93160650Y-41958247D01*
X93160650Y-41958247D02*
X93255888Y-41577295D01*
X93255888Y-41577295D02*
X93255888Y-41291580D01*
X93255888Y-41291580D02*
X93160650Y-40910628D01*
X93160650Y-40910628D02*
X93065412Y-40720152D01*
X93065412Y-40720152D02*
X92874936Y-40529676D01*
X92874936Y-40529676D02*
X92589221Y-40434438D01*
X92589221Y-40434438D02*
X92398745Y-40434438D01*
X92398745Y-40434438D02*
X92113031Y-40529676D01*
X92113031Y-40529676D02*
X92017793Y-40624914D01*
X91160650Y-42434438D02*
X91160650Y-40434438D01*
X91160650Y-41386819D02*
X90017793Y-41386819D01*
X90017793Y-42434438D02*
X90017793Y-40434438D01*
X87541602Y-42243961D02*
X87446364Y-42339200D01*
X87446364Y-42339200D02*
X87541602Y-42434438D01*
X87541602Y-42434438D02*
X87636840Y-42339200D01*
X87636840Y-42339200D02*
X87541602Y-42243961D01*
X87541602Y-42243961D02*
X87541602Y-42434438D01*
X87541602Y-41672533D02*
X87636840Y-40529676D01*
X87636840Y-40529676D02*
X87541602Y-40434438D01*
X87541602Y-40434438D02*
X87446364Y-40529676D01*
X87446364Y-40529676D02*
X87541602Y-41672533D01*
X87541602Y-41672533D02*
X87541602Y-40434438D01*
X86589221Y-42243961D02*
X86493983Y-42339200D01*
X86493983Y-42339200D02*
X86589221Y-42434438D01*
X86589221Y-42434438D02*
X86684459Y-42339200D01*
X86684459Y-42339200D02*
X86589221Y-42243961D01*
X86589221Y-42243961D02*
X86589221Y-42434438D01*
X86589221Y-41672533D02*
X86684459Y-40529676D01*
X86684459Y-40529676D02*
X86589221Y-40434438D01*
X86589221Y-40434438D02*
X86493983Y-40529676D01*
X86493983Y-40529676D02*
X86589221Y-41672533D01*
X86589221Y-41672533D02*
X86589221Y-40434438D01*
D10*
X88300839Y-80754104D02*
X87824649Y-80754104D01*
X88396077Y-81039819D02*
X88062744Y-80039819D01*
X88062744Y-80039819D02*
X87729411Y-81039819D01*
D13*
%TO.C,REF\u002A\u002A*%
X76670000Y-57980000D02*
X76580000Y-57470000D01*
X78305000Y-57770000D02*
X78055000Y-57570000D01*
X78550000Y-58090000D02*
X78300000Y-57890000D01*
D14*
X78274260Y-58138427D02*
X80267896Y-57279854D01*
X80267896Y-57992906D01*
X77692177Y-58720510D01*
X78288812Y-57600000D01*
X76557114Y-57876489D01*
X76877260Y-58109323D01*
X75829510Y-57891042D01*
X76717187Y-57294406D01*
X76513458Y-57629104D01*
X78900000Y-56974260D01*
X78274260Y-58138427D01*
G36*
X78274260Y-58138427D02*
G01*
X80267896Y-57279854D01*
X80267896Y-57992906D01*
X77692177Y-58720510D01*
X78288812Y-57600000D01*
X76557114Y-57876489D01*
X76877260Y-58109323D01*
X75829510Y-57891042D01*
X76717187Y-57294406D01*
X76513458Y-57629104D01*
X78900000Y-56974260D01*
X78274260Y-58138427D01*
G37*
D15*
%TO.C,R12*%
X85455000Y-69927936D02*
X85455000Y-71382064D01*
X87275000Y-69927936D02*
X87275000Y-71382064D01*
%TO.C,R24*%
X89343936Y-69090000D02*
X92398064Y-69090000D01*
X89343936Y-71810000D02*
X92398064Y-71810000D01*
%TO.C,C58*%
X110022836Y-70455000D02*
X109807164Y-70455000D01*
X110022836Y-71175000D02*
X109807164Y-71175000D01*
D13*
%TO.C,REF\u002A\u002A*%
X107722615Y-77643703D02*
X107522615Y-77893703D01*
X107932615Y-79278703D02*
X107422615Y-79368703D01*
X108042615Y-77398703D02*
X107842615Y-77648703D01*
D14*
X108673125Y-78256526D02*
X107552615Y-77659891D01*
X107829104Y-79391589D01*
X108061938Y-79071443D01*
X107843657Y-80119193D01*
X107247021Y-79231516D01*
X107581719Y-79435245D01*
X106926875Y-77048703D01*
X108091042Y-77674443D01*
X107232469Y-75680807D01*
X107945521Y-75680807D01*
X108673125Y-78256526D01*
G36*
X108673125Y-78256526D02*
G01*
X107552615Y-77659891D01*
X107829104Y-79391589D01*
X108061938Y-79071443D01*
X107843657Y-80119193D01*
X107247021Y-79231516D01*
X107581719Y-79435245D01*
X106926875Y-77048703D01*
X108091042Y-77674443D01*
X107232469Y-75680807D01*
X107945521Y-75680807D01*
X108673125Y-78256526D01*
G37*
D15*
%TO.C,C30*%
X100655000Y-76519252D02*
X100655000Y-79350748D01*
X105875000Y-76519252D02*
X105875000Y-79350748D01*
%TO.C,C48*%
X119869252Y-63305000D02*
X122700748Y-63305000D01*
X119869252Y-68525000D02*
X122700748Y-68525000D01*
%TO.C,R27*%
X99468641Y-73984250D02*
X99161359Y-73984250D01*
X99468641Y-74744250D02*
X99161359Y-74744250D01*
%TO.C,C32*%
X111225000Y-74229252D02*
X111225000Y-77060748D01*
X116445000Y-74229252D02*
X116445000Y-77060748D01*
%TO.C,C40*%
X99255000Y-68097164D02*
X99255000Y-68312836D01*
X99975000Y-68097164D02*
X99975000Y-68312836D01*
%TO.C,R23*%
X90163641Y-58440000D02*
X89856359Y-58440000D01*
X90163641Y-59200000D02*
X89856359Y-59200000D01*
%TO.C,C41*%
X95532164Y-50935000D02*
X95747836Y-50935000D01*
X95532164Y-51655000D02*
X95747836Y-51655000D01*
D13*
%TO.C,REF\u002A\u002A*%
X121298703Y-61357385D02*
X121548703Y-61557385D01*
X121543703Y-61677385D02*
X121793703Y-61877385D01*
X123178703Y-61467385D02*
X123268703Y-61977385D01*
D14*
X121559891Y-61847385D02*
X123291589Y-61570896D01*
X122971443Y-61338062D01*
X124019193Y-61556343D01*
X123131516Y-62152979D01*
X123335245Y-61818281D01*
X120948703Y-62473125D01*
X121574443Y-61308958D01*
X119580807Y-62167531D01*
X119580807Y-61454479D01*
X122156526Y-60726875D01*
X121559891Y-61847385D01*
G36*
X121559891Y-61847385D02*
G01*
X123291589Y-61570896D01*
X122971443Y-61338062D01*
X124019193Y-61556343D01*
X123131516Y-62152979D01*
X123335245Y-61818281D01*
X120948703Y-62473125D01*
X121574443Y-61308958D01*
X119580807Y-62167531D01*
X119580807Y-61454479D01*
X122156526Y-60726875D01*
X121559891Y-61847385D01*
G37*
D13*
X96822615Y-75843703D02*
X96622615Y-76093703D01*
X97032615Y-77478703D02*
X96522615Y-77568703D01*
X97142615Y-75598703D02*
X96942615Y-75848703D01*
D14*
X97773125Y-76456526D02*
X96652615Y-75859891D01*
X96929104Y-77591589D01*
X97161938Y-77271443D01*
X96943657Y-78319193D01*
X96347021Y-77431516D01*
X96681719Y-77635245D01*
X96026875Y-75248703D01*
X97191042Y-75874443D01*
X96332469Y-73880807D01*
X97045521Y-73880807D01*
X97773125Y-76456526D01*
G36*
X97773125Y-76456526D02*
G01*
X96652615Y-75859891D01*
X96929104Y-77591589D01*
X97161938Y-77271443D01*
X96943657Y-78319193D01*
X96347021Y-77431516D01*
X96681719Y-77635245D01*
X96026875Y-75248703D01*
X97191042Y-75874443D01*
X96332469Y-73880807D01*
X97045521Y-73880807D01*
X97773125Y-76456526D01*
G37*
D15*
%TO.C,R16*%
X101115000Y-68791359D02*
X101115000Y-69098641D01*
X101875000Y-68791359D02*
X101875000Y-69098641D01*
%TO.C,R22*%
X89422064Y-59645000D02*
X86367936Y-59645000D01*
X89422064Y-62365000D02*
X86367936Y-62365000D01*
%TO.C,R10*%
X109352064Y-68275000D02*
X107897936Y-68275000D01*
X109352064Y-70095000D02*
X107897936Y-70095000D01*
%TO.C,R11*%
X98872064Y-70815000D02*
X97417936Y-70815000D01*
X98872064Y-72635000D02*
X97417936Y-72635000D01*
%TO.C,R25*%
X90268641Y-66655000D02*
X89961359Y-66655000D01*
X90268641Y-67415000D02*
X89961359Y-67415000D01*
%TO.C,R28*%
X112677936Y-68925000D02*
X115732064Y-68925000D01*
X112677936Y-71645000D02*
X115732064Y-71645000D01*
%TO.C,C45*%
X105095000Y-59357164D02*
X105095000Y-59572836D01*
X105815000Y-59357164D02*
X105815000Y-59572836D01*
%TO.C,R26*%
X102137936Y-71185000D02*
X105192064Y-71185000D01*
X102137936Y-73905000D02*
X105192064Y-73905000D01*
%TO.C,R17*%
X95491359Y-51875000D02*
X95798641Y-51875000D01*
X95491359Y-52635000D02*
X95798641Y-52635000D01*
%TO.C,C53*%
X90072836Y-57445000D02*
X89857164Y-57445000D01*
X90072836Y-58165000D02*
X89857164Y-58165000D01*
%TO.C,C56*%
X90202836Y-67655000D02*
X89987164Y-67655000D01*
X90202836Y-68375000D02*
X89987164Y-68375000D01*
%TO.C,TH2*%
X95892064Y-52980000D02*
X95437936Y-52980000D01*
X95892064Y-54450000D02*
X95437936Y-54450000D01*
%TO.C,C57*%
X99422836Y-73005000D02*
X99207164Y-73005000D01*
X99422836Y-73725000D02*
X99207164Y-73725000D01*
D13*
%TO.C,REF\u002A\u002A*%
X80870000Y-72580000D02*
X80780000Y-72070000D01*
X82505000Y-72370000D02*
X82255000Y-72170000D01*
X82750000Y-72690000D02*
X82500000Y-72490000D01*
D14*
X82474260Y-72738427D02*
X84467896Y-71879854D01*
X84467896Y-72592906D01*
X81892177Y-73320510D01*
X82488812Y-72200000D01*
X80757114Y-72476489D01*
X81077260Y-72709323D01*
X80029510Y-72491042D01*
X80917187Y-71894406D01*
X80713458Y-72229104D01*
X83100000Y-71574260D01*
X82474260Y-72738427D01*
G36*
X82474260Y-72738427D02*
G01*
X84467896Y-71879854D01*
X84467896Y-72592906D01*
X81892177Y-73320510D01*
X82488812Y-72200000D01*
X80757114Y-72476489D01*
X81077260Y-72709323D01*
X80029510Y-72491042D01*
X80917187Y-71894406D01*
X80713458Y-72229104D01*
X83100000Y-71574260D01*
X82474260Y-72738427D01*
G37*
D15*
%TO.C,C31*%
X90155000Y-74359252D02*
X90155000Y-77190748D01*
X95375000Y-74359252D02*
X95375000Y-77190748D01*
D13*
%TO.C,REF\u002A\u002A*%
X118122615Y-74743703D02*
X117922615Y-74993703D01*
X118332615Y-76378703D02*
X117822615Y-76468703D01*
X118442615Y-74498703D02*
X118242615Y-74748703D01*
D14*
X119073125Y-75356526D02*
X117952615Y-74759891D01*
X118229104Y-76491589D01*
X118461938Y-76171443D01*
X118243657Y-77219193D01*
X117647021Y-76331516D01*
X117981719Y-76535245D01*
X117326875Y-74148703D01*
X118491042Y-74774443D01*
X117632469Y-72780807D01*
X118345521Y-72780807D01*
X119073125Y-75356526D01*
G36*
X119073125Y-75356526D02*
G01*
X117952615Y-74759891D01*
X118229104Y-76491589D01*
X118461938Y-76171443D01*
X118243657Y-77219193D01*
X117647021Y-76331516D01*
X117981719Y-76535245D01*
X117326875Y-74148703D01*
X118491042Y-74774443D01*
X117632469Y-72780807D01*
X118345521Y-72780807D01*
X119073125Y-75356526D01*
G37*
D15*
%TO.C,TH1*%
X103922064Y-68250000D02*
X103467936Y-68250000D01*
X103922064Y-69720000D02*
X103467936Y-69720000D01*
%TO.C,C50*%
X79001960Y-66036616D02*
X81662696Y-65068188D01*
X80787304Y-70941812D02*
X83448040Y-69973384D01*
%TO.C,D12*%
X76475000Y-55930000D02*
X76475000Y-61740000D01*
X76475000Y-55930000D02*
X80775000Y-55930000D01*
X80775000Y-55930000D02*
X80775000Y-61740000D01*
%TO.C,U8*%
X98800000Y-56390000D02*
X101000000Y-56390000D01*
X98800000Y-61610000D02*
X101000000Y-61610000D01*
X103200000Y-56390000D02*
X101000000Y-56390000D01*
X103200000Y-61610000D02*
X101000000Y-61610000D01*
X98340000Y-61740000D02*
X97860000Y-61740000D01*
X98100000Y-61410000D01*
X98340000Y-61740000D01*
G36*
X98340000Y-61740000D02*
G01*
X97860000Y-61740000D01*
X98100000Y-61410000D01*
X98340000Y-61740000D01*
G37*
%TO.C,R29*%
X110078641Y-71395000D02*
X109771359Y-71395000D01*
X110078641Y-72155000D02*
X109771359Y-72155000D01*
%TD*%
%LPC*%
D16*
%TO.C,TP16*%
X84295000Y-57885000D03*
%TD*%
%TO.C,TP13*%
X82575000Y-55955000D03*
%TD*%
D17*
%TO.C,TP2*%
X82245000Y-61265000D03*
%TD*%
%TO.C,TP1*%
X77505000Y-63925000D03*
%TD*%
D16*
%TO.C,TP4*%
X100415000Y-83665000D03*
%TD*%
%TO.C,TP5*%
X110775000Y-81655000D03*
%TD*%
D18*
%TO.C,H2*%
X87810000Y-66140000D03*
%TD*%
D16*
%TO.C,TP3*%
X90235000Y-81165000D03*
%TD*%
D18*
%TO.C,H1*%
X104850000Y-44510000D03*
%TD*%
%TO.C,H3*%
X113960000Y-66550000D03*
%TD*%
D19*
%TO.C,R12*%
X86365000Y-72117500D03*
X86365000Y-69192500D03*
%TD*%
D20*
%TO.C,R24*%
X88558500Y-70450000D03*
X93183500Y-70450000D03*
%TD*%
D21*
%TO.C,C58*%
X110395000Y-70815000D03*
X109435000Y-70815000D03*
%TD*%
D22*
%TO.C,C30*%
X103265000Y-80485000D03*
X103265000Y-75385000D03*
%TD*%
D23*
%TO.C,C48*%
X123835000Y-65915000D03*
X118735000Y-65915000D03*
%TD*%
D24*
%TO.C,R27*%
X99825000Y-74364250D03*
X98805000Y-74364250D03*
%TD*%
D22*
%TO.C,C32*%
X113835000Y-78195000D03*
X113835000Y-73095000D03*
%TD*%
D25*
%TO.C,C40*%
X99615000Y-67725000D03*
X99615000Y-68685000D03*
%TD*%
D24*
%TO.C,R23*%
X90520000Y-58820000D03*
X89500000Y-58820000D03*
%TD*%
D26*
%TO.C,C41*%
X95160000Y-51295000D03*
X96120000Y-51295000D03*
%TD*%
D27*
%TO.C,R16*%
X101495000Y-68435000D03*
X101495000Y-69455000D03*
%TD*%
D28*
%TO.C,R22*%
X90207500Y-61005000D03*
X85582500Y-61005000D03*
%TD*%
D29*
%TO.C,R10*%
X107162500Y-69185000D03*
X110087500Y-69185000D03*
%TD*%
%TO.C,R11*%
X96682500Y-71725000D03*
X99607500Y-71725000D03*
%TD*%
D24*
%TO.C,R25*%
X90625000Y-67035000D03*
X89605000Y-67035000D03*
%TD*%
D20*
%TO.C,R28*%
X111892500Y-70285000D03*
X116517500Y-70285000D03*
%TD*%
D25*
%TO.C,C45*%
X105455000Y-58985000D03*
X105455000Y-59945000D03*
%TD*%
D20*
%TO.C,R26*%
X101352500Y-72545000D03*
X105977500Y-72545000D03*
%TD*%
D30*
%TO.C,R17*%
X95135000Y-52255000D03*
X96155000Y-52255000D03*
%TD*%
D21*
%TO.C,C53*%
X90445000Y-57805000D03*
X89485000Y-57805000D03*
%TD*%
%TO.C,C56*%
X90575000Y-68015000D03*
X89615000Y-68015000D03*
%TD*%
D31*
%TO.C,TH2*%
X96577500Y-53715000D03*
X94752500Y-53715000D03*
%TD*%
D21*
%TO.C,C57*%
X99795000Y-73365000D03*
X98835000Y-73365000D03*
%TD*%
D22*
%TO.C,C31*%
X92765000Y-78325000D03*
X92765000Y-73225000D03*
%TD*%
D31*
%TO.C,TH1*%
X104607500Y-68985000D03*
X102782500Y-68985000D03*
%TD*%
D32*
%TO.C,C50*%
X78828784Y-68877152D03*
X83621216Y-67132848D03*
%TD*%
D33*
%TO.C,D12*%
X78625000Y-57439999D03*
X78625000Y-61740001D03*
%TD*%
D34*
%TO.C,U8*%
X98137500Y-60950000D03*
X98137500Y-60300000D03*
X98137500Y-59650000D03*
X98137500Y-59000000D03*
X98137500Y-58350000D03*
X98137500Y-57700000D03*
X98137500Y-57050000D03*
X103862500Y-57050000D03*
X103862500Y-57700000D03*
X103862500Y-58350000D03*
X103862500Y-59000000D03*
X103862500Y-59650000D03*
X103862500Y-60300000D03*
X103862500Y-60950000D03*
%TD*%
D24*
%TO.C,R29*%
X110435000Y-71775000D03*
X109415000Y-71775000D03*
%TD*%
%LPD*%
M02*
