%TF.GenerationSoftware,KiCad,Pcbnew,9.0.0*%
%TF.CreationDate,2025-06-25T03:54:54+08:00*%
%TF.ProjectId,CAPSTONE_MC,43415053-544f-44e4-955f-4d432e6b6963,Ver. 1.0.0*%
%TF.SameCoordinates,Original*%
%TF.FileFunction,Copper,L2,Inr*%
%TF.FilePolarity,Positive*%
%FSLAX46Y46*%
G04 Gerber Fmt 4.6, Leading zero omitted, Abs format (unit mm)*
G04 Created by KiCad (PCBNEW 9.0.0) date 2025-06-25 03:54:54*
%MOMM*%
%LPD*%
G01*
G04 APERTURE LIST*
%TA.AperFunction,ComponentPad*%
%ADD10C,2.000000*%
%TD*%
%TA.AperFunction,ComponentPad*%
%ADD11C,3.000000*%
%TD*%
%TA.AperFunction,ViaPad*%
%ADD12C,0.800000*%
%TD*%
%TA.AperFunction,ViaPad*%
%ADD13C,0.600000*%
%TD*%
%TA.AperFunction,Conductor*%
%ADD14C,0.254000*%
%TD*%
G04 APERTURE END LIST*
D10*
%TO.N,/CANL*%
%TO.C,TP16*%
X84295000Y-57885000D03*
%TD*%
%TO.N,/CANH*%
%TO.C,TP13*%
X82575000Y-55955000D03*
%TD*%
D11*
%TO.N,GND*%
%TO.C,TP2*%
X82245000Y-61265000D03*
%TD*%
%TO.N,/HVBUS*%
%TO.C,TP1*%
X77505000Y-63925000D03*
%TD*%
D10*
%TO.N,/HS2*%
%TO.C,TP4*%
X100415000Y-83665000D03*
%TD*%
%TO.N,/HS3*%
%TO.C,TP5*%
X110775000Y-81655000D03*
%TD*%
%TO.N,/HS1*%
%TO.C,TP3*%
X90235000Y-81165000D03*
%TD*%
D12*
%TO.N,GND*%
X80540000Y-57000000D03*
D13*
%TO.N,/LED_GREEN*%
X79900000Y-59330000D03*
D12*
%TO.N,GND*%
X112300000Y-52500000D03*
X93900000Y-72900000D03*
X91500000Y-38600000D03*
X92400000Y-39000000D03*
X115120000Y-73580000D03*
D13*
X98200000Y-70400000D03*
D12*
X92800000Y-72900000D03*
X102300000Y-75900000D03*
D13*
X103200000Y-55600000D03*
D12*
X105830000Y-48505000D03*
X85800000Y-38900000D03*
X104370001Y-67305331D03*
X91785000Y-73805000D03*
X103112653Y-48012653D03*
D13*
X109400000Y-67470000D03*
D12*
X116120000Y-73580000D03*
X96700000Y-34400000D03*
X114120000Y-73580000D03*
X89800000Y-64300000D03*
X116710000Y-47710000D03*
D13*
X106100000Y-60700000D03*
D12*
X99225000Y-51912653D03*
X117800000Y-72600000D03*
X85900000Y-51600000D03*
X103300000Y-75900000D03*
X116720000Y-48730000D03*
D13*
X98845558Y-69664442D03*
D12*
X99690000Y-75440000D03*
D13*
X109580000Y-71330000D03*
X98775000Y-73295000D03*
D12*
X93885000Y-73805000D03*
X96300000Y-63700000D03*
X88900000Y-67900000D03*
X113110000Y-73580000D03*
X81100000Y-58000000D03*
X84900000Y-48600000D03*
X87100000Y-67900000D03*
D13*
X84470000Y-68270000D03*
X86100000Y-42200000D03*
X108970000Y-70700000D03*
X98775000Y-74434250D03*
D12*
X103300000Y-74900000D03*
D13*
X108980000Y-71940000D03*
D12*
X89800000Y-63200000D03*
X83900000Y-52600000D03*
X112300000Y-63300000D03*
X109500000Y-41300000D03*
X104200000Y-42000000D03*
X110900000Y-57900000D03*
X114120000Y-72580000D03*
X105500000Y-75900000D03*
X125000000Y-51000000D03*
X90750000Y-73830000D03*
X92785000Y-73805000D03*
X116120000Y-72580000D03*
X110500000Y-42300000D03*
X90750000Y-70980000D03*
X83393674Y-45481021D03*
X117100000Y-73500000D03*
X85900000Y-52600000D03*
X97100000Y-63700000D03*
X86400000Y-70200000D03*
X105285000Y-50155000D03*
X114540000Y-45580000D03*
D13*
X109595000Y-71947000D03*
X98845558Y-70400000D03*
D12*
X82000000Y-58000000D03*
D13*
X106200000Y-56500000D03*
X106800000Y-60100000D03*
D12*
X110000000Y-68000000D03*
X119200000Y-67800000D03*
X106000000Y-69200000D03*
X105300000Y-42000000D03*
X85900000Y-49600000D03*
X112110000Y-73580000D03*
X85900000Y-48600000D03*
X88000000Y-67900000D03*
X94900000Y-72900000D03*
X83900000Y-49600000D03*
X110900000Y-57200000D03*
X91600000Y-70970000D03*
X112300000Y-62200000D03*
X104400000Y-74900000D03*
X94900000Y-34400000D03*
X114600000Y-44600000D03*
X105400000Y-34600000D03*
X99907322Y-51217984D03*
X112110000Y-72580000D03*
D13*
X108970000Y-71320000D03*
D12*
X86200000Y-67900000D03*
X106000000Y-68200000D03*
X76900000Y-56800000D03*
X94900000Y-70900000D03*
X118600000Y-71700000D03*
X113500000Y-43600000D03*
X109500000Y-42300000D03*
X84900000Y-49600000D03*
X104400000Y-75900000D03*
X83900000Y-48600000D03*
X118200000Y-67800000D03*
D13*
X108670000Y-67310000D03*
D12*
X85300000Y-67900000D03*
X109200000Y-53000000D03*
X122800000Y-51000000D03*
X94905000Y-71765000D03*
D13*
X107500000Y-55700000D03*
D12*
X104400000Y-73900000D03*
X98790000Y-75440000D03*
X83900000Y-51600000D03*
D13*
X106200000Y-57200000D03*
X98780000Y-73850000D03*
X96800000Y-57200000D03*
D12*
X90765000Y-72925000D03*
X105300000Y-51100000D03*
X123900000Y-51000000D03*
X113110000Y-72580000D03*
X84900000Y-51600000D03*
X76000000Y-56800000D03*
X94885000Y-73805000D03*
X88700000Y-64300000D03*
X85900000Y-50600000D03*
X105300000Y-49200000D03*
X85500000Y-64800000D03*
X95800000Y-34400000D03*
D13*
X99500000Y-70400000D03*
D12*
X108600000Y-36700000D03*
X87900000Y-39000000D03*
X117100000Y-67800000D03*
D13*
X81965000Y-46255000D03*
D12*
X84900000Y-50600000D03*
X105500000Y-74900000D03*
X91800000Y-72900000D03*
D13*
X81965000Y-45285000D03*
D12*
X84200000Y-40200000D03*
X83900000Y-50600000D03*
X84900000Y-52600000D03*
X86200000Y-67000000D03*
X115120000Y-72580000D03*
D13*
%TO.N,+3V3*%
X87050000Y-38000000D03*
X90900000Y-37450000D03*
X101250000Y-36400000D03*
X99350000Y-49600000D03*
X76650000Y-55400000D03*
%TO.N,+3.3VA*%
X86950000Y-44700000D03*
X95931147Y-53500000D03*
X106800000Y-46800000D03*
X100100000Y-66500000D03*
X84300000Y-64850000D03*
X107775000Y-47535000D03*
X110000000Y-61650000D03*
%TO.N,GNDA*%
X87900000Y-45700000D03*
X107400000Y-66100000D03*
D12*
X84800000Y-65700000D03*
D13*
X96000000Y-68400000D03*
X95877210Y-51846955D03*
X91150000Y-43100000D03*
D12*
X107300000Y-48500000D03*
D13*
X97200000Y-68700000D03*
X100900000Y-65200000D03*
X83259054Y-70127764D03*
X109035000Y-60100000D03*
X109013370Y-61586630D03*
X111700000Y-59105000D03*
X84800000Y-63175000D03*
D12*
%TO.N,/HVBUS*%
X79900000Y-68750000D03*
X79900000Y-66750000D03*
X84400000Y-74300000D03*
X114100000Y-75700000D03*
X94800000Y-75900000D03*
X106600000Y-83400000D03*
X83300000Y-76500000D03*
X104500000Y-78100000D03*
X104500000Y-83400000D03*
X113500000Y-79100000D03*
X84400000Y-76500000D03*
X79900000Y-64700000D03*
X83300000Y-75400000D03*
X94800000Y-80800000D03*
X92800000Y-75900000D03*
X92800000Y-81800000D03*
X117200000Y-76800000D03*
X83300000Y-74300000D03*
X113500000Y-80300000D03*
X111900000Y-76800000D03*
X123100000Y-68100000D03*
X116135000Y-79095000D03*
X78895000Y-65700000D03*
X105500000Y-78100000D03*
X116150000Y-77915000D03*
X106600000Y-81200000D03*
X116100000Y-76800000D03*
X120900000Y-69400000D03*
X92800000Y-76900000D03*
X105500000Y-79100000D03*
X122000000Y-69400000D03*
X116100000Y-75700000D03*
X122000000Y-66800000D03*
X105500000Y-83400000D03*
X120900000Y-70700000D03*
X103500000Y-79100000D03*
X104500000Y-79100000D03*
X113000000Y-75700000D03*
X119700000Y-70700000D03*
X84400000Y-75400000D03*
X78905000Y-69750000D03*
X77905000Y-67750000D03*
X79900000Y-62700000D03*
X79905000Y-70750000D03*
X115100000Y-75700000D03*
X114100000Y-76800000D03*
X94800000Y-81700000D03*
X92800000Y-80800000D03*
X84400000Y-73200000D03*
X79900000Y-69750000D03*
X107600000Y-83400000D03*
X93800000Y-81700000D03*
X117200000Y-77900000D03*
X78900000Y-68750000D03*
X79895000Y-65700000D03*
X103500000Y-83400000D03*
X113000000Y-76800000D03*
X94800000Y-76900000D03*
X106600000Y-82300000D03*
X93800000Y-80800000D03*
X93800000Y-75900000D03*
X84400000Y-77600000D03*
X122000000Y-68100000D03*
X93800000Y-76900000D03*
X78905000Y-70750000D03*
X79900000Y-63700000D03*
X107600000Y-81200000D03*
X117200000Y-75700000D03*
X120900000Y-68100000D03*
X103500000Y-82300000D03*
D13*
X80900000Y-65000000D03*
D12*
X79900000Y-71750000D03*
X79905000Y-67750000D03*
X115100000Y-76800000D03*
X77900000Y-68750000D03*
X77905000Y-66750000D03*
X83300000Y-73200000D03*
D13*
X85300000Y-61200000D03*
D12*
X123100000Y-66800000D03*
X78905000Y-66750000D03*
X107600000Y-82300000D03*
X103500000Y-78100000D03*
X78905000Y-67750000D03*
X108700000Y-82300000D03*
D13*
%TO.N,+3V8*%
X109200000Y-47500000D03*
X112700000Y-46700000D03*
D12*
X81005000Y-45285000D03*
D13*
X109900000Y-47500000D03*
X105655000Y-52745000D03*
X110600000Y-46800000D03*
X109200000Y-46800000D03*
D12*
X81005000Y-46255000D03*
D13*
X109900000Y-46800000D03*
%TO.N,/HS2*%
X104186750Y-72490000D03*
%TO.N,/HS3*%
X115080000Y-71410000D03*
%TO.N,/HS1*%
X93245000Y-71055000D03*
%TO.N,/CURRENT_3*%
X108300000Y-63150000D03*
X93360000Y-42990000D03*
%TO.N,/CURRENT_2*%
X92112064Y-41880692D03*
X99150000Y-65580000D03*
%TO.N,/CURRENT_1*%
X86650000Y-63800000D03*
X90780000Y-41238000D03*
%TO.N,/ADC_TEMP*%
X92758058Y-60241942D03*
X99820000Y-63490000D03*
%TO.N,/TEMP_MOTOR*%
X95160000Y-51295000D03*
%TO.N,/CANH*%
X111397921Y-37724796D03*
X87800000Y-55025000D03*
%TO.N,/CANL*%
X87800000Y-56800000D03*
X111041942Y-38941942D03*
%TO.N,/U1_RX_FAULT*%
X80435000Y-50605000D03*
X93801000Y-39130000D03*
%TO.N,/U1_TX_SERVO*%
X94595342Y-39035000D03*
X82125000Y-51695000D03*
%TO.N,/LED_RED*%
X95691117Y-55625000D03*
X100100000Y-54150000D03*
X78990000Y-59990001D03*
%TO.N,/LED_GREEN*%
X99150000Y-54000000D03*
X95150000Y-55000000D03*
%TO.N,Net-(U4-VS)*%
X107330000Y-71550000D03*
X108100000Y-72190000D03*
X107330000Y-72190000D03*
X108110000Y-71550000D03*
X107340000Y-70900000D03*
X108100000Y-70900000D03*
X106750000Y-67290000D03*
D12*
%TO.N,Net-(U3-VS)*%
X97620000Y-74420000D03*
X96140000Y-74430000D03*
X96860000Y-74430000D03*
X96140000Y-73670000D03*
D13*
X97540000Y-69690000D03*
D12*
X97600000Y-73670000D03*
X96860000Y-73670000D03*
%TO.N,Net-(U2-VS)*%
X86200000Y-72430000D03*
X87020000Y-72430000D03*
X87020000Y-71710000D03*
D13*
X84400000Y-70360000D03*
D12*
X86200000Y-71710000D03*
X85380000Y-72420000D03*
X85390000Y-71710000D03*
D13*
%TO.N,/AN_IN*%
X87950000Y-43500000D03*
X89150000Y-56800000D03*
%TO.N,/VOLTAGE_1*%
X90590000Y-67040000D03*
X91161930Y-43925300D03*
%TO.N,/VOLTAGE_2*%
X91302298Y-44712892D03*
X99795000Y-73365000D03*
%TO.N,/VOLTAGE_3*%
X110395000Y-70815000D03*
X92733000Y-44850000D03*
%TO.N,/USB_DM*%
X98880000Y-40000003D03*
X80930000Y-54585000D03*
%TO.N,/USB_DP*%
X98880000Y-39200000D03*
X80935000Y-53595000D03*
%TO.N,/L1*%
X89890000Y-68860000D03*
X96556147Y-44850000D03*
%TO.N,/TX_SCL_MOSI*%
X96306149Y-57906149D03*
%TO.N,/H1*%
X91215000Y-68810000D03*
X97875000Y-43225000D03*
%TO.N,/L3*%
X102215000Y-44395822D03*
X110826707Y-67615293D03*
%TO.N,/L2*%
X100385001Y-70508771D03*
X97875000Y-44230000D03*
%TO.N,/H3*%
X111623799Y-67547109D03*
X102290000Y-40530000D03*
%TO.N,/MISO_ADC_EXT2*%
X96258058Y-58741942D03*
%TO.N,/H2*%
X98383058Y-41883058D03*
X101370000Y-70440000D03*
%TO.N,/SCK_ADC_EXT*%
X96240750Y-59608519D03*
%TO.N,/CAN_RX*%
X105870000Y-38410000D03*
X93293161Y-38410000D03*
%TO.N,/CAN_TX*%
X92290000Y-37736902D03*
X107180000Y-34840000D03*
%TO.N,/RX_SDA_NSS*%
X96208242Y-60459895D03*
%TO.N,/Vref*%
X108050000Y-59150000D03*
X100600000Y-68400000D03*
X106444669Y-58144669D03*
X105121942Y-63878058D03*
X110850000Y-64850000D03*
%TD*%
D14*
%TO.N,+3V8*%
X111700000Y-46700000D02*
X112700000Y-46700000D01*
X105655000Y-52745000D02*
X111700000Y-46700000D01*
%TD*%
%TA.AperFunction,Conductor*%
%TO.N,GND*%
G36*
X101807327Y-33266949D02*
G01*
X101810179Y-33267039D01*
X102814422Y-33318300D01*
X102817277Y-33318502D01*
X103818758Y-33409052D01*
X103821586Y-33409363D01*
X104818794Y-33539068D01*
X104821613Y-33539491D01*
X105812931Y-33708142D01*
X105815797Y-33708689D01*
X106799711Y-33916023D01*
X106802514Y-33916672D01*
X107491894Y-34090394D01*
X107777543Y-34162377D01*
X107780377Y-34163150D01*
X107904195Y-34199564D01*
X108745056Y-34446856D01*
X108747823Y-34447729D01*
X109700641Y-34768992D01*
X109703379Y-34769975D01*
X110076990Y-34912472D01*
X110642862Y-35128298D01*
X110645586Y-35129398D01*
X111570339Y-35524245D01*
X111573018Y-35525452D01*
X112481599Y-35956212D01*
X112484153Y-35957485D01*
X113375216Y-36423522D01*
X113377718Y-36424894D01*
X114249831Y-36925459D01*
X114252316Y-36926951D01*
X115047619Y-37425821D01*
X115104140Y-37461275D01*
X115106595Y-37462884D01*
X115885658Y-37995186D01*
X115936780Y-38030115D01*
X115939163Y-38031811D01*
X116746547Y-38631156D01*
X116748862Y-38632946D01*
X117512323Y-39247486D01*
X117532128Y-39263428D01*
X117534378Y-39265312D01*
X118010711Y-39680498D01*
X118292381Y-39926009D01*
X118294557Y-39927983D01*
X119026071Y-40617826D01*
X119028168Y-40619883D01*
X119732092Y-41337829D01*
X119734105Y-41339963D01*
X119761398Y-41370073D01*
X120409415Y-42084973D01*
X120411345Y-42087188D01*
X120798533Y-42549501D01*
X120989495Y-42777515D01*
X121056953Y-42858061D01*
X121058787Y-42860342D01*
X121673704Y-43655898D01*
X121675429Y-43658221D01*
X121931309Y-44017516D01*
X122258725Y-44477258D01*
X122260382Y-44479683D01*
X122811151Y-45320927D01*
X122812712Y-45323416D01*
X123330113Y-46185579D01*
X123331572Y-46188122D01*
X123428297Y-46364616D01*
X123814817Y-47069897D01*
X123816178Y-47072501D01*
X124264508Y-47972496D01*
X124265765Y-47975148D01*
X124307553Y-48067976D01*
X124678516Y-48892036D01*
X124679669Y-48894738D01*
X125056185Y-49827057D01*
X125057232Y-49829802D01*
X125396960Y-50776186D01*
X125397898Y-50778970D01*
X125700300Y-51737916D01*
X125701128Y-51740734D01*
X125965738Y-52710767D01*
X125966456Y-52713616D01*
X126192884Y-53693307D01*
X126193489Y-53696182D01*
X126381372Y-54683964D01*
X126381864Y-54686860D01*
X126530918Y-55681226D01*
X126531297Y-55684139D01*
X126641299Y-56683616D01*
X126641563Y-56686542D01*
X126712340Y-57689548D01*
X126712489Y-57692482D01*
X126743930Y-58697459D01*
X126743965Y-58700396D01*
X126736025Y-59705884D01*
X126735944Y-59708821D01*
X126688635Y-60713205D01*
X126688439Y-60716136D01*
X126601836Y-61717879D01*
X126601526Y-61720800D01*
X126475756Y-62718393D01*
X126475332Y-62721300D01*
X126310589Y-63713221D01*
X126310051Y-63716109D01*
X126106591Y-64700809D01*
X126105940Y-64703674D01*
X125864079Y-65679632D01*
X125863317Y-65682469D01*
X125583413Y-66648233D01*
X125582540Y-66651038D01*
X125265034Y-67605088D01*
X125264052Y-67607857D01*
X124909429Y-68548735D01*
X124908339Y-68551463D01*
X124517136Y-69477747D01*
X124515940Y-69480430D01*
X124088767Y-70390673D01*
X124087467Y-70393307D01*
X123624983Y-71286109D01*
X123623581Y-71288691D01*
X123126471Y-72162723D01*
X123124969Y-72165247D01*
X122594024Y-73019127D01*
X122592424Y-73021591D01*
X122028451Y-73854014D01*
X122026756Y-73856414D01*
X121430610Y-74666121D01*
X121428823Y-74668452D01*
X120801409Y-75454214D01*
X120799531Y-75456473D01*
X120141845Y-76217038D01*
X120139880Y-76219222D01*
X119452919Y-76953444D01*
X119450872Y-76955548D01*
X119427804Y-76978345D01*
X119381180Y-76999752D01*
X119375085Y-77000000D01*
X117914849Y-77000000D01*
X117866640Y-76982453D01*
X117840988Y-76938024D01*
X117841289Y-76910369D01*
X117850500Y-76864069D01*
X117850500Y-76735931D01*
X117825501Y-76610256D01*
X117776465Y-76491873D01*
X117705276Y-76385331D01*
X117622978Y-76303033D01*
X117601296Y-76256537D01*
X117614575Y-76206982D01*
X117622978Y-76196967D01*
X117645446Y-76174499D01*
X117705276Y-76114669D01*
X117776465Y-76008127D01*
X117825501Y-75889744D01*
X117850500Y-75764069D01*
X117850500Y-75635931D01*
X117825501Y-75510256D01*
X117776465Y-75391873D01*
X117705276Y-75285331D01*
X117614669Y-75194724D01*
X117508127Y-75123535D01*
X117431688Y-75091873D01*
X117389744Y-75074499D01*
X117264070Y-75049500D01*
X117264069Y-75049500D01*
X117135931Y-75049500D01*
X117135930Y-75049500D01*
X117010255Y-75074499D01*
X116891874Y-75123534D01*
X116785331Y-75194724D01*
X116785328Y-75194726D01*
X116703033Y-75277022D01*
X116656537Y-75298704D01*
X116606982Y-75285425D01*
X116596967Y-75277022D01*
X116514671Y-75194726D01*
X116514669Y-75194724D01*
X116408127Y-75123535D01*
X116331688Y-75091873D01*
X116289744Y-75074499D01*
X116164070Y-75049500D01*
X116164069Y-75049500D01*
X116035931Y-75049500D01*
X116035930Y-75049500D01*
X115910255Y-75074499D01*
X115791874Y-75123534D01*
X115685331Y-75194724D01*
X115685328Y-75194726D01*
X115653033Y-75227022D01*
X115606537Y-75248704D01*
X115556982Y-75235425D01*
X115546967Y-75227022D01*
X115514671Y-75194726D01*
X115514669Y-75194724D01*
X115408127Y-75123535D01*
X115331688Y-75091873D01*
X115289744Y-75074499D01*
X115164070Y-75049500D01*
X115164069Y-75049500D01*
X115035931Y-75049500D01*
X115035930Y-75049500D01*
X114910255Y-75074499D01*
X114791874Y-75123534D01*
X114685331Y-75194724D01*
X114685328Y-75194726D01*
X114653033Y-75227022D01*
X114606537Y-75248704D01*
X114556982Y-75235425D01*
X114546967Y-75227022D01*
X114514671Y-75194726D01*
X114514669Y-75194724D01*
X114408127Y-75123535D01*
X114331688Y-75091873D01*
X114289744Y-75074499D01*
X114164070Y-75049500D01*
X114164069Y-75049500D01*
X114035931Y-75049500D01*
X114035930Y-75049500D01*
X113910255Y-75074499D01*
X113791874Y-75123534D01*
X113685331Y-75194724D01*
X113685328Y-75194726D01*
X113603033Y-75277022D01*
X113556537Y-75298704D01*
X113506982Y-75285425D01*
X113496967Y-75277022D01*
X113414671Y-75194726D01*
X113414669Y-75194724D01*
X113308127Y-75123535D01*
X113231688Y-75091873D01*
X113189744Y-75074499D01*
X113064070Y-75049500D01*
X113064069Y-75049500D01*
X112935931Y-75049500D01*
X112935930Y-75049500D01*
X112810255Y-75074499D01*
X112691874Y-75123534D01*
X112585331Y-75194724D01*
X112585328Y-75194726D01*
X112494726Y-75285328D01*
X112494724Y-75285331D01*
X112423534Y-75391874D01*
X112374499Y-75510255D01*
X112349500Y-75635930D01*
X112349500Y-75764069D01*
X112374499Y-75889744D01*
X112417276Y-75993018D01*
X112423535Y-76008127D01*
X112494724Y-76114669D01*
X112494726Y-76114671D01*
X112577022Y-76196967D01*
X112585258Y-76214630D01*
X112596433Y-76230589D01*
X112595843Y-76237328D01*
X112598704Y-76243463D01*
X112593660Y-76262286D01*
X112591962Y-76281696D01*
X112586287Y-76289800D01*
X112585425Y-76293018D01*
X112577022Y-76303033D01*
X112503033Y-76377022D01*
X112456537Y-76398704D01*
X112406982Y-76385425D01*
X112396967Y-76377022D01*
X112314671Y-76294726D01*
X112314669Y-76294724D01*
X112208127Y-76223535D01*
X112195114Y-76218145D01*
X112089744Y-76174499D01*
X111964070Y-76149500D01*
X111964069Y-76149500D01*
X111835931Y-76149500D01*
X111835930Y-76149500D01*
X111710255Y-76174499D01*
X111591874Y-76223534D01*
X111485331Y-76294724D01*
X111485328Y-76294726D01*
X111394726Y-76385328D01*
X111394724Y-76385331D01*
X111323534Y-76491874D01*
X111282113Y-76591874D01*
X111274499Y-76610256D01*
X111249500Y-76735931D01*
X111249500Y-76864069D01*
X111258709Y-76910368D01*
X111250906Y-76961073D01*
X111212335Y-76994900D01*
X111185151Y-77000000D01*
X95525500Y-77000000D01*
X95477291Y-76982453D01*
X95451639Y-76938024D01*
X95450500Y-76925000D01*
X95450500Y-76835930D01*
X95430608Y-76735931D01*
X95425501Y-76710256D01*
X95376465Y-76591873D01*
X95305276Y-76485331D01*
X95272978Y-76453033D01*
X95251296Y-76406537D01*
X95264575Y-76356982D01*
X95272978Y-76346967D01*
X95305276Y-76314669D01*
X95376465Y-76208127D01*
X95425501Y-76089744D01*
X95450500Y-75964069D01*
X95450500Y-75835931D01*
X95425501Y-75710256D01*
X95376465Y-75591873D01*
X95305276Y-75485331D01*
X95214669Y-75394724D01*
X95108127Y-75323535D01*
X95015887Y-75285328D01*
X94989744Y-75274499D01*
X94864070Y-75249500D01*
X94864069Y-75249500D01*
X94735931Y-75249500D01*
X94735930Y-75249500D01*
X94610255Y-75274499D01*
X94491874Y-75323534D01*
X94385331Y-75394724D01*
X94385328Y-75394726D01*
X94353033Y-75427022D01*
X94306537Y-75448704D01*
X94256982Y-75435425D01*
X94246967Y-75427022D01*
X94214671Y-75394726D01*
X94214669Y-75394724D01*
X94108127Y-75323535D01*
X94015887Y-75285328D01*
X93989744Y-75274499D01*
X93864070Y-75249500D01*
X93864069Y-75249500D01*
X93735931Y-75249500D01*
X93735930Y-75249500D01*
X93610255Y-75274499D01*
X93491874Y-75323534D01*
X93385331Y-75394724D01*
X93385328Y-75394726D01*
X93353033Y-75427022D01*
X93306537Y-75448704D01*
X93256982Y-75435425D01*
X93246967Y-75427022D01*
X93214671Y-75394726D01*
X93214669Y-75394724D01*
X93108127Y-75323535D01*
X93015887Y-75285328D01*
X92989744Y-75274499D01*
X92864070Y-75249500D01*
X92864069Y-75249500D01*
X92735931Y-75249500D01*
X92735930Y-75249500D01*
X92610255Y-75274499D01*
X92491874Y-75323534D01*
X92385331Y-75394724D01*
X92385328Y-75394726D01*
X92294726Y-75485328D01*
X92294724Y-75485331D01*
X92223534Y-75591874D01*
X92174499Y-75710255D01*
X92153730Y-75814668D01*
X92149500Y-75835931D01*
X92149500Y-75964069D01*
X92174499Y-76089744D01*
X92223535Y-76208127D01*
X92294724Y-76314669D01*
X92294726Y-76314671D01*
X92327022Y-76346967D01*
X92348704Y-76393463D01*
X92335425Y-76443018D01*
X92327022Y-76453033D01*
X92294726Y-76485328D01*
X92294724Y-76485331D01*
X92223534Y-76591874D01*
X92174499Y-76710255D01*
X92149500Y-76835930D01*
X92149500Y-76925000D01*
X92131953Y-76973209D01*
X92087524Y-76998861D01*
X92074500Y-77000000D01*
X84988574Y-77000000D01*
X84940365Y-76982453D01*
X84914713Y-76938024D01*
X84923622Y-76887500D01*
X84926204Y-76883346D01*
X84976465Y-76808127D01*
X85025501Y-76689744D01*
X85050500Y-76564069D01*
X85050500Y-76435931D01*
X85025501Y-76310256D01*
X84976465Y-76191873D01*
X84905276Y-76085331D01*
X84822978Y-76003033D01*
X84801296Y-75956537D01*
X84814575Y-75906982D01*
X84822978Y-75896967D01*
X84830201Y-75889744D01*
X84905276Y-75814669D01*
X84976465Y-75708127D01*
X85025501Y-75589744D01*
X85050500Y-75464069D01*
X85050500Y-75335931D01*
X85025501Y-75210256D01*
X84976465Y-75091873D01*
X84905276Y-74985331D01*
X84822978Y-74903033D01*
X84801296Y-74856537D01*
X84814575Y-74806982D01*
X84822978Y-74796967D01*
X84835077Y-74784868D01*
X84905276Y-74714669D01*
X84976465Y-74608127D01*
X85025501Y-74489744D01*
X85050500Y-74364069D01*
X85050500Y-74235931D01*
X85025501Y-74110256D01*
X84976465Y-73991873D01*
X84905276Y-73885331D01*
X84822978Y-73803033D01*
X84801296Y-73756537D01*
X84814575Y-73706982D01*
X84822978Y-73696967D01*
X84905276Y-73614669D01*
X84911115Y-73605930D01*
X95489500Y-73605930D01*
X95489500Y-73734069D01*
X95514499Y-73859744D01*
X95556969Y-73962277D01*
X95563535Y-73978127D01*
X95578241Y-74000136D01*
X95583718Y-74008334D01*
X95595910Y-74058168D01*
X95583718Y-74091666D01*
X95563533Y-74121876D01*
X95514499Y-74240255D01*
X95514499Y-74240256D01*
X95489500Y-74365931D01*
X95489500Y-74494069D01*
X95514499Y-74619744D01*
X95563535Y-74738127D01*
X95634724Y-74844669D01*
X95725331Y-74935276D01*
X95831873Y-75006465D01*
X95950256Y-75055501D01*
X96045763Y-75074499D01*
X96075930Y-75080500D01*
X96075931Y-75080500D01*
X96204070Y-75080500D01*
X96234237Y-75074499D01*
X96329744Y-75055501D01*
X96448127Y-75006465D01*
X96458331Y-74999646D01*
X96508163Y-74987452D01*
X96541668Y-74999646D01*
X96551873Y-75006465D01*
X96670256Y-75055501D01*
X96765763Y-75074499D01*
X96795930Y-75080500D01*
X96795931Y-75080500D01*
X96924070Y-75080500D01*
X96954237Y-75074499D01*
X97049744Y-75055501D01*
X97168127Y-75006465D01*
X97205816Y-74981281D01*
X97255648Y-74969088D01*
X97289148Y-74981281D01*
X97311873Y-74996465D01*
X97430256Y-75045501D01*
X97530931Y-75065527D01*
X97555930Y-75070500D01*
X97555931Y-75070500D01*
X97684070Y-75070500D01*
X97704921Y-75066352D01*
X97809744Y-75045501D01*
X97928127Y-74996465D01*
X98034669Y-74925276D01*
X98125276Y-74834669D01*
X98196465Y-74728127D01*
X98245501Y-74609744D01*
X98270500Y-74484069D01*
X98270500Y-74355931D01*
X98245501Y-74230256D01*
X98196465Y-74111873D01*
X98169622Y-74071700D01*
X98157429Y-74021869D01*
X98169625Y-73988363D01*
X98176465Y-73978127D01*
X98225501Y-73859744D01*
X98250500Y-73734069D01*
X98250500Y-73605931D01*
X98225501Y-73480256D01*
X98176465Y-73361873D01*
X98176464Y-73361871D01*
X98154687Y-73329279D01*
X98154685Y-73329277D01*
X98130130Y-73292527D01*
X99244500Y-73292527D01*
X99244500Y-73437472D01*
X99244501Y-73437480D01*
X99282015Y-73577483D01*
X99282016Y-73577486D01*
X99303484Y-73614669D01*
X99354491Y-73703015D01*
X99456985Y-73805509D01*
X99582515Y-73877984D01*
X99722525Y-73915500D01*
X99722527Y-73915500D01*
X99867473Y-73915500D01*
X99867475Y-73915500D01*
X100007485Y-73877984D01*
X100133015Y-73805509D01*
X100235509Y-73703015D01*
X100307984Y-73577485D01*
X100345500Y-73437475D01*
X100345500Y-73292525D01*
X100307984Y-73152515D01*
X100235509Y-73026985D01*
X100133015Y-72924491D01*
X100076521Y-72891874D01*
X100007486Y-72852016D01*
X100007483Y-72852015D01*
X99867480Y-72814501D01*
X99867477Y-72814500D01*
X99867475Y-72814500D01*
X99722525Y-72814500D01*
X99722523Y-72814500D01*
X99722519Y-72814501D01*
X99582516Y-72852015D01*
X99582513Y-72852016D01*
X99456984Y-72924491D01*
X99354491Y-73026984D01*
X99282016Y-73152513D01*
X99282015Y-73152516D01*
X99244501Y-73292519D01*
X99244500Y-73292527D01*
X98130130Y-73292527D01*
X98105276Y-73255331D01*
X98014671Y-73164726D01*
X98014669Y-73164724D01*
X97908127Y-73093535D01*
X97789744Y-73044499D01*
X97769630Y-73040498D01*
X97664070Y-73019500D01*
X97664069Y-73019500D01*
X97535931Y-73019500D01*
X97535930Y-73019500D01*
X97410255Y-73044499D01*
X97291872Y-73093535D01*
X97271666Y-73107036D01*
X97221833Y-73119229D01*
X97188334Y-73107036D01*
X97168127Y-73093535D01*
X97049744Y-73044499D01*
X96924070Y-73019500D01*
X96924069Y-73019500D01*
X96795931Y-73019500D01*
X96795930Y-73019500D01*
X96670255Y-73044499D01*
X96551874Y-73093534D01*
X96541668Y-73100354D01*
X96491835Y-73112548D01*
X96458332Y-73100354D01*
X96448127Y-73093535D01*
X96329744Y-73044499D01*
X96309630Y-73040498D01*
X96204070Y-73019500D01*
X96204069Y-73019500D01*
X96075931Y-73019500D01*
X96075930Y-73019500D01*
X95950255Y-73044499D01*
X95831874Y-73093534D01*
X95725331Y-73164724D01*
X95725328Y-73164726D01*
X95634726Y-73255328D01*
X95634724Y-73255331D01*
X95563534Y-73361874D01*
X95514499Y-73480255D01*
X95489500Y-73605930D01*
X84911115Y-73605930D01*
X84976465Y-73508127D01*
X85025501Y-73389744D01*
X85050500Y-73264069D01*
X85050500Y-73135931D01*
X85045722Y-73111912D01*
X85053526Y-73061208D01*
X85092097Y-73027381D01*
X85143387Y-73026261D01*
X85147959Y-73027981D01*
X85190256Y-73045501D01*
X85240523Y-73055500D01*
X85315930Y-73070500D01*
X85315931Y-73070500D01*
X85444070Y-73070500D01*
X85464921Y-73066352D01*
X85569744Y-73045501D01*
X85688127Y-72996465D01*
X85740849Y-72961236D01*
X85790679Y-72949042D01*
X85824181Y-72961235D01*
X85891873Y-73006465D01*
X86010256Y-73055501D01*
X86110931Y-73075527D01*
X86135930Y-73080500D01*
X86135931Y-73080500D01*
X86264070Y-73080500D01*
X86284921Y-73076352D01*
X86389744Y-73055501D01*
X86508127Y-73006465D01*
X86568334Y-72966235D01*
X86618164Y-72954042D01*
X86651664Y-72966234D01*
X86711873Y-73006465D01*
X86830256Y-73055501D01*
X86930931Y-73075527D01*
X86955930Y-73080500D01*
X86955931Y-73080500D01*
X87084070Y-73080500D01*
X87104921Y-73076352D01*
X87209744Y-73055501D01*
X87328127Y-73006465D01*
X87434669Y-72935276D01*
X87525276Y-72844669D01*
X87596465Y-72738127D01*
X87645501Y-72619744D01*
X87670500Y-72494069D01*
X87670500Y-72417527D01*
X103636250Y-72417527D01*
X103636250Y-72562472D01*
X103636251Y-72562480D01*
X103673765Y-72702483D01*
X103673766Y-72702486D01*
X103729318Y-72798704D01*
X103746241Y-72828015D01*
X103848735Y-72930509D01*
X103910616Y-72966236D01*
X103962975Y-72996466D01*
X103974265Y-73002984D01*
X104114275Y-73040500D01*
X104114277Y-73040500D01*
X104259223Y-73040500D01*
X104259225Y-73040500D01*
X104399235Y-73002984D01*
X104524765Y-72930509D01*
X104627259Y-72828015D01*
X104699734Y-72702485D01*
X104737250Y-72562475D01*
X104737250Y-72417525D01*
X104699734Y-72277515D01*
X104627259Y-72151985D01*
X104524765Y-72049491D01*
X104488113Y-72028330D01*
X104399236Y-71977016D01*
X104399233Y-71977015D01*
X104259230Y-71939501D01*
X104259227Y-71939500D01*
X104259225Y-71939500D01*
X104114275Y-71939500D01*
X104114273Y-71939500D01*
X104114269Y-71939501D01*
X103974266Y-71977015D01*
X103974263Y-71977016D01*
X103848734Y-72049491D01*
X103746241Y-72151984D01*
X103673766Y-72277513D01*
X103673765Y-72277516D01*
X103636251Y-72417519D01*
X103636250Y-72417527D01*
X87670500Y-72417527D01*
X87670500Y-72365931D01*
X87645501Y-72240256D01*
X87596465Y-72121873D01*
X87589646Y-72111668D01*
X87577452Y-72061837D01*
X87589647Y-72028330D01*
X87593695Y-72022272D01*
X87596465Y-72018127D01*
X87645501Y-71899744D01*
X87670500Y-71774069D01*
X87670500Y-71645931D01*
X87645501Y-71520256D01*
X87596465Y-71401873D01*
X87525276Y-71295331D01*
X87434669Y-71204724D01*
X87328127Y-71133535D01*
X87282585Y-71114671D01*
X87209744Y-71084499D01*
X87084070Y-71059500D01*
X87084069Y-71059500D01*
X86955931Y-71059500D01*
X86955930Y-71059500D01*
X86830255Y-71084499D01*
X86726510Y-71127472D01*
X86711873Y-71133535D01*
X86682719Y-71153015D01*
X86651667Y-71173763D01*
X86601834Y-71185956D01*
X86568333Y-71173763D01*
X86560559Y-71168569D01*
X86508127Y-71133535D01*
X86389744Y-71084499D01*
X86326829Y-71071984D01*
X86264070Y-71059500D01*
X86264069Y-71059500D01*
X86135931Y-71059500D01*
X86135930Y-71059500D01*
X86010255Y-71084499D01*
X85906510Y-71127472D01*
X85891873Y-71133535D01*
X85862719Y-71153015D01*
X85836667Y-71170422D01*
X85786834Y-71182615D01*
X85753333Y-71170422D01*
X85727281Y-71153015D01*
X85698127Y-71133535D01*
X85579744Y-71084499D01*
X85516829Y-71071984D01*
X85454070Y-71059500D01*
X85454069Y-71059500D01*
X85325931Y-71059500D01*
X85325930Y-71059500D01*
X85200255Y-71084499D01*
X85081874Y-71133534D01*
X84975331Y-71204724D01*
X84975328Y-71204726D01*
X84884726Y-71295328D01*
X84884724Y-71295331D01*
X84813534Y-71401874D01*
X84764499Y-71520255D01*
X84739500Y-71645930D01*
X84739500Y-71774069D01*
X84764499Y-71899744D01*
X84813535Y-72018128D01*
X84815271Y-72021375D01*
X84813592Y-72022272D01*
X84824202Y-72065715D01*
X84812015Y-72099180D01*
X84803535Y-72111872D01*
X84754499Y-72230255D01*
X84729500Y-72355930D01*
X84729500Y-72484070D01*
X84734277Y-72508087D01*
X84726472Y-72558792D01*
X84687900Y-72592619D01*
X84636610Y-72593738D01*
X84632017Y-72592009D01*
X84589744Y-72574499D01*
X84464070Y-72549500D01*
X84464069Y-72549500D01*
X84335931Y-72549500D01*
X84335930Y-72549500D01*
X84210255Y-72574499D01*
X84091874Y-72623534D01*
X83985331Y-72694724D01*
X83985328Y-72694726D01*
X83903033Y-72777022D01*
X83856537Y-72798704D01*
X83806982Y-72785425D01*
X83796967Y-72777022D01*
X83714671Y-72694726D01*
X83714669Y-72694724D01*
X83608127Y-72623535D01*
X83585257Y-72614062D01*
X83489744Y-72574499D01*
X83364070Y-72549500D01*
X83364069Y-72549500D01*
X83235931Y-72549500D01*
X83235930Y-72549500D01*
X83110255Y-72574499D01*
X82991874Y-72623534D01*
X82885331Y-72694724D01*
X82885328Y-72694726D01*
X82794726Y-72785328D01*
X82794724Y-72785331D01*
X82723534Y-72891874D01*
X82674499Y-73010255D01*
X82649710Y-73134877D01*
X82649500Y-73135931D01*
X82649500Y-73264069D01*
X82674499Y-73389744D01*
X82723535Y-73508127D01*
X82794724Y-73614669D01*
X82794726Y-73614671D01*
X82877022Y-73696967D01*
X82898704Y-73743463D01*
X82885425Y-73793018D01*
X82877022Y-73803033D01*
X82794726Y-73885328D01*
X82794724Y-73885331D01*
X82723534Y-73991874D01*
X82674499Y-74110255D01*
X82672188Y-74121876D01*
X82649500Y-74235931D01*
X82649500Y-74364069D01*
X82674499Y-74489744D01*
X82723535Y-74608127D01*
X82794724Y-74714669D01*
X82794726Y-74714671D01*
X82877022Y-74796967D01*
X82898704Y-74843463D01*
X82885425Y-74893018D01*
X82877022Y-74903033D01*
X82794726Y-74985328D01*
X82794724Y-74985331D01*
X82723534Y-75091874D01*
X82674499Y-75210255D01*
X82659547Y-75285425D01*
X82649500Y-75335931D01*
X82649500Y-75464069D01*
X82674499Y-75589744D01*
X82723535Y-75708127D01*
X82794724Y-75814669D01*
X82794726Y-75814671D01*
X82877022Y-75896967D01*
X82898704Y-75943463D01*
X82885425Y-75993018D01*
X82877022Y-76003033D01*
X82794726Y-76085328D01*
X82794724Y-76085331D01*
X82723534Y-76191874D01*
X82674499Y-76310255D01*
X82657948Y-76393463D01*
X82649500Y-76435931D01*
X82649500Y-76564069D01*
X82674499Y-76689744D01*
X82723535Y-76808127D01*
X82773786Y-76883333D01*
X82777491Y-76898473D01*
X82785287Y-76911976D01*
X82783405Y-76922644D01*
X82785980Y-76933165D01*
X82779085Y-76947146D01*
X82776378Y-76962500D01*
X82768080Y-76969462D01*
X82763290Y-76979177D01*
X82749021Y-76985455D01*
X82737078Y-76995477D01*
X82719000Y-76998664D01*
X82716331Y-76999839D01*
X82711426Y-77000000D01*
X82630598Y-77000000D01*
X82582389Y-76982453D01*
X82576633Y-76977085D01*
X82343879Y-76735930D01*
X82129746Y-76514068D01*
X82127780Y-76511948D01*
X81458340Y-75761641D01*
X81456490Y-75759485D01*
X80816925Y-74983509D01*
X80815121Y-74981230D01*
X80339610Y-74355931D01*
X80206475Y-74180858D01*
X80204751Y-74178496D01*
X80156956Y-74110255D01*
X79627904Y-73354884D01*
X79626294Y-73352486D01*
X79082145Y-72506918D01*
X79080607Y-72504422D01*
X79068610Y-72484070D01*
X78569996Y-71638203D01*
X78568561Y-71635656D01*
X78561477Y-71622486D01*
X78506492Y-71520255D01*
X78435699Y-71388633D01*
X78428316Y-71337864D01*
X78455295Y-71294227D01*
X78504010Y-71278141D01*
X78543415Y-71290745D01*
X78596873Y-71326465D01*
X78715256Y-71375501D01*
X78815931Y-71395527D01*
X78840930Y-71400500D01*
X78840931Y-71400500D01*
X78969070Y-71400500D01*
X78989921Y-71396352D01*
X79094744Y-71375501D01*
X79213127Y-71326465D01*
X79238392Y-71309583D01*
X79288222Y-71297390D01*
X79334235Y-71320080D01*
X79354897Y-71367038D01*
X79342419Y-71413611D01*
X79323534Y-71441875D01*
X79274499Y-71560255D01*
X79254059Y-71663014D01*
X79249500Y-71685931D01*
X79249500Y-71814069D01*
X79274499Y-71939744D01*
X79323535Y-72058127D01*
X79394724Y-72164669D01*
X79485331Y-72255276D01*
X79591873Y-72326465D01*
X79710256Y-72375501D01*
X79810931Y-72395527D01*
X79835930Y-72400500D01*
X79835931Y-72400500D01*
X79964070Y-72400500D01*
X79984921Y-72396352D01*
X80089744Y-72375501D01*
X80208127Y-72326465D01*
X80314669Y-72255276D01*
X80405276Y-72164669D01*
X80476465Y-72058127D01*
X80525501Y-71939744D01*
X80550500Y-71814069D01*
X80550500Y-71685931D01*
X80525501Y-71560256D01*
X80476465Y-71441873D01*
X80405276Y-71335331D01*
X80375478Y-71305533D01*
X80353796Y-71259037D01*
X80367075Y-71209482D01*
X80375478Y-71199467D01*
X80392330Y-71182615D01*
X80410276Y-71164669D01*
X80481465Y-71058127D01*
X80512780Y-70982527D01*
X92694500Y-70982527D01*
X92694500Y-71127472D01*
X92694501Y-71127480D01*
X92732015Y-71267483D01*
X92732016Y-71267486D01*
X92772455Y-71337527D01*
X92804491Y-71393015D01*
X92906985Y-71495509D01*
X93032515Y-71567984D01*
X93172525Y-71605500D01*
X93172527Y-71605500D01*
X93317473Y-71605500D01*
X93317475Y-71605500D01*
X93457485Y-71567984D01*
X93583015Y-71495509D01*
X93600997Y-71477527D01*
X106779500Y-71477527D01*
X106779500Y-71622472D01*
X106779501Y-71622480D01*
X106817015Y-71762483D01*
X106817016Y-71762486D01*
X106857439Y-71832500D01*
X106866348Y-71883024D01*
X106857439Y-71907500D01*
X106817016Y-71977513D01*
X106817015Y-71977516D01*
X106779501Y-72117519D01*
X106779500Y-72117527D01*
X106779500Y-72262472D01*
X106779501Y-72262480D01*
X106817015Y-72402483D01*
X106817016Y-72402486D01*
X106889491Y-72528015D01*
X106991985Y-72630509D01*
X107063250Y-72671654D01*
X107116650Y-72702485D01*
X107117515Y-72702984D01*
X107257525Y-72740500D01*
X107257527Y-72740500D01*
X107402473Y-72740500D01*
X107402475Y-72740500D01*
X107542485Y-72702984D01*
X107668015Y-72630509D01*
X107668019Y-72630504D01*
X107669340Y-72629492D01*
X107670301Y-72629188D01*
X107672272Y-72628051D01*
X107672524Y-72628487D01*
X107718268Y-72614062D01*
X107757549Y-72628359D01*
X107757728Y-72628051D01*
X107759479Y-72629062D01*
X107760660Y-72629492D01*
X107761984Y-72630508D01*
X107761985Y-72630509D01*
X107833250Y-72671654D01*
X107886650Y-72702485D01*
X107887515Y-72702984D01*
X108027525Y-72740500D01*
X108027527Y-72740500D01*
X108172473Y-72740500D01*
X108172475Y-72740500D01*
X108312485Y-72702984D01*
X108438015Y-72630509D01*
X108540509Y-72528015D01*
X108612984Y-72402485D01*
X108650500Y-72262475D01*
X108650500Y-72117525D01*
X108612984Y-71977515D01*
X108577559Y-71916159D01*
X108568651Y-71865637D01*
X108577558Y-71841162D01*
X108622984Y-71762485D01*
X108660500Y-71622475D01*
X108660500Y-71477525D01*
X108622984Y-71337515D01*
X108574672Y-71253837D01*
X108565764Y-71203316D01*
X108574674Y-71178839D01*
X108612984Y-71112485D01*
X108650500Y-70972475D01*
X108650500Y-70827525D01*
X108648194Y-70818919D01*
X108631609Y-70757020D01*
X108627725Y-70742527D01*
X109844500Y-70742527D01*
X109844500Y-70887472D01*
X109844501Y-70887480D01*
X109882015Y-71027483D01*
X109882016Y-71027486D01*
X109932351Y-71114668D01*
X109954491Y-71153015D01*
X110056985Y-71255509D01*
X110125959Y-71295331D01*
X110178212Y-71325500D01*
X110182515Y-71327984D01*
X110322525Y-71365500D01*
X110322527Y-71365500D01*
X110467473Y-71365500D01*
X110467475Y-71365500D01*
X110571870Y-71337527D01*
X114529500Y-71337527D01*
X114529500Y-71482472D01*
X114529501Y-71482480D01*
X114567015Y-71622483D01*
X114567016Y-71622486D01*
X114639491Y-71748015D01*
X114741985Y-71850509D01*
X114867515Y-71922984D01*
X115007525Y-71960500D01*
X115007527Y-71960500D01*
X115152473Y-71960500D01*
X115152475Y-71960500D01*
X115292485Y-71922984D01*
X115418015Y-71850509D01*
X115520509Y-71748015D01*
X115592984Y-71622485D01*
X115630500Y-71482475D01*
X115630500Y-71337525D01*
X115592984Y-71197515D01*
X115584381Y-71182615D01*
X115552546Y-71127475D01*
X115520509Y-71071985D01*
X115418015Y-70969491D01*
X115389424Y-70952984D01*
X115292486Y-70897016D01*
X115292483Y-70897015D01*
X115152480Y-70859501D01*
X115152477Y-70859500D01*
X115152475Y-70859500D01*
X115007525Y-70859500D01*
X115007523Y-70859500D01*
X115007519Y-70859501D01*
X114867516Y-70897015D01*
X114867513Y-70897016D01*
X114741984Y-70969491D01*
X114639491Y-71071984D01*
X114567016Y-71197513D01*
X114567015Y-71197516D01*
X114529501Y-71337519D01*
X114529500Y-71337527D01*
X110571870Y-71337527D01*
X110607485Y-71327984D01*
X110733015Y-71255509D01*
X110835509Y-71153015D01*
X110907984Y-71027485D01*
X110945500Y-70887475D01*
X110945500Y-70742525D01*
X110918228Y-70640747D01*
X110916937Y-70635930D01*
X119049500Y-70635930D01*
X119049500Y-70764069D01*
X119074499Y-70889744D01*
X119116233Y-70990500D01*
X119123535Y-71008127D01*
X119194724Y-71114669D01*
X119285331Y-71205276D01*
X119391873Y-71276465D01*
X119510256Y-71325501D01*
X119610931Y-71345527D01*
X119635930Y-71350500D01*
X119635931Y-71350500D01*
X119764070Y-71350500D01*
X119784921Y-71346352D01*
X119889744Y-71325501D01*
X120008127Y-71276465D01*
X120114669Y-71205276D01*
X120205276Y-71114669D01*
X120237641Y-71066231D01*
X120279013Y-71035896D01*
X120330206Y-71039252D01*
X120362358Y-71066230D01*
X120394724Y-71114669D01*
X120485331Y-71205276D01*
X120591873Y-71276465D01*
X120710256Y-71325501D01*
X120810931Y-71345527D01*
X120835930Y-71350500D01*
X120835931Y-71350500D01*
X120964070Y-71350500D01*
X120984921Y-71346352D01*
X121089744Y-71325501D01*
X121208127Y-71276465D01*
X121314669Y-71205276D01*
X121405276Y-71114669D01*
X121476465Y-71008127D01*
X121525501Y-70889744D01*
X121550500Y-70764069D01*
X121550500Y-70635931D01*
X121525501Y-70510256D01*
X121476465Y-70391873D01*
X121405276Y-70285331D01*
X121314669Y-70194724D01*
X121208127Y-70123535D01*
X121208122Y-70123533D01*
X121197881Y-70119291D01*
X121160056Y-70084631D01*
X121153360Y-70033767D01*
X121180925Y-69990499D01*
X121197881Y-69980709D01*
X121208127Y-69976465D01*
X121314669Y-69905276D01*
X121396967Y-69822978D01*
X121443463Y-69801296D01*
X121493018Y-69814575D01*
X121503033Y-69822978D01*
X121585331Y-69905276D01*
X121691873Y-69976465D01*
X121810256Y-70025501D01*
X121910931Y-70045527D01*
X121935930Y-70050500D01*
X121935931Y-70050500D01*
X122064070Y-70050500D01*
X122084921Y-70046352D01*
X122189744Y-70025501D01*
X122308127Y-69976465D01*
X122414669Y-69905276D01*
X122505276Y-69814669D01*
X122576465Y-69708127D01*
X122625501Y-69589744D01*
X122650500Y-69464069D01*
X122650500Y-69335931D01*
X122647924Y-69322983D01*
X122633508Y-69250509D01*
X122625501Y-69210256D01*
X122576465Y-69091873D01*
X122505276Y-68985331D01*
X122414669Y-68894724D01*
X122308127Y-68823535D01*
X122308122Y-68823533D01*
X122297881Y-68819291D01*
X122260056Y-68784631D01*
X122253360Y-68733767D01*
X122280925Y-68690499D01*
X122297881Y-68680709D01*
X122308127Y-68676465D01*
X122414669Y-68605276D01*
X122496967Y-68522978D01*
X122543463Y-68501296D01*
X122593018Y-68514575D01*
X122603033Y-68522978D01*
X122685331Y-68605276D01*
X122791873Y-68676465D01*
X122910256Y-68725501D01*
X123010931Y-68745527D01*
X123035930Y-68750500D01*
X123035931Y-68750500D01*
X123164070Y-68750500D01*
X123184921Y-68746352D01*
X123289744Y-68725501D01*
X123408127Y-68676465D01*
X123514669Y-68605276D01*
X123605276Y-68514669D01*
X123676465Y-68408127D01*
X123725501Y-68289744D01*
X123750500Y-68164069D01*
X123750500Y-68035931D01*
X123725501Y-67910256D01*
X123676465Y-67791873D01*
X123605276Y-67685331D01*
X123514669Y-67594724D01*
X123408127Y-67523535D01*
X123408122Y-67523533D01*
X123397881Y-67519291D01*
X123360056Y-67484631D01*
X123353360Y-67433767D01*
X123380925Y-67390499D01*
X123397881Y-67380709D01*
X123408127Y-67376465D01*
X123514669Y-67305276D01*
X123605276Y-67214669D01*
X123676465Y-67108127D01*
X123725501Y-66989744D01*
X123750500Y-66864069D01*
X123750500Y-66735931D01*
X123725501Y-66610256D01*
X123676465Y-66491873D01*
X123605276Y-66385331D01*
X123514669Y-66294724D01*
X123408127Y-66223535D01*
X123289744Y-66174499D01*
X123226829Y-66161984D01*
X123164070Y-66149500D01*
X123164069Y-66149500D01*
X123035931Y-66149500D01*
X123035930Y-66149500D01*
X122910255Y-66174499D01*
X122791874Y-66223534D01*
X122685331Y-66294724D01*
X122685328Y-66294726D01*
X122603033Y-66377022D01*
X122556537Y-66398704D01*
X122506982Y-66385425D01*
X122496967Y-66377022D01*
X122414671Y-66294726D01*
X122414669Y-66294724D01*
X122308127Y-66223535D01*
X122189744Y-66174499D01*
X122126829Y-66161984D01*
X122064070Y-66149500D01*
X122064069Y-66149500D01*
X121935931Y-66149500D01*
X121935930Y-66149500D01*
X121810255Y-66174499D01*
X121691874Y-66223534D01*
X121585331Y-66294724D01*
X121585328Y-66294726D01*
X121494726Y-66385328D01*
X121494724Y-66385331D01*
X121423534Y-66491874D01*
X121374499Y-66610255D01*
X121349500Y-66735930D01*
X121349500Y-66864069D01*
X121374499Y-66989744D01*
X121407081Y-67068405D01*
X121423535Y-67108127D01*
X121494724Y-67214669D01*
X121585331Y-67305276D01*
X121691873Y-67376465D01*
X121691874Y-67376465D01*
X121691875Y-67376466D01*
X121702120Y-67380710D01*
X121739944Y-67415371D01*
X121746639Y-67466235D01*
X121719073Y-67509503D01*
X121702120Y-67519290D01*
X121691875Y-67523533D01*
X121585331Y-67594724D01*
X121585328Y-67594726D01*
X121503033Y-67677022D01*
X121456537Y-67698704D01*
X121406982Y-67685425D01*
X121396967Y-67677022D01*
X121314671Y-67594726D01*
X121314669Y-67594724D01*
X121208127Y-67523535D01*
X121208122Y-67523533D01*
X121089744Y-67474499D01*
X120964070Y-67449500D01*
X120964069Y-67449500D01*
X120835931Y-67449500D01*
X120835930Y-67449500D01*
X120710255Y-67474499D01*
X120591874Y-67523534D01*
X120485331Y-67594724D01*
X120485328Y-67594726D01*
X120394726Y-67685328D01*
X120394724Y-67685331D01*
X120323534Y-67791874D01*
X120274499Y-67910255D01*
X120249500Y-68035930D01*
X120249500Y-68164069D01*
X120274499Y-68289744D01*
X120298221Y-68347015D01*
X120323535Y-68408127D01*
X120394724Y-68514669D01*
X120485331Y-68605276D01*
X120591873Y-68676465D01*
X120591874Y-68676465D01*
X120591875Y-68676466D01*
X120602120Y-68680710D01*
X120639944Y-68715371D01*
X120646639Y-68766235D01*
X120619073Y-68809503D01*
X120602120Y-68819290D01*
X120591875Y-68823533D01*
X120485331Y-68894724D01*
X120485328Y-68894726D01*
X120394726Y-68985328D01*
X120394724Y-68985331D01*
X120323534Y-69091874D01*
X120274499Y-69210255D01*
X120249500Y-69335930D01*
X120249500Y-69464069D01*
X120274499Y-69589744D01*
X120314889Y-69687255D01*
X120323535Y-69708127D01*
X120394724Y-69814669D01*
X120485331Y-69905276D01*
X120591873Y-69976465D01*
X120591874Y-69976465D01*
X120591875Y-69976466D01*
X120602120Y-69980710D01*
X120639944Y-70015371D01*
X120646639Y-70066235D01*
X120619073Y-70109503D01*
X120602120Y-70119290D01*
X120591875Y-70123533D01*
X120485331Y-70194724D01*
X120485328Y-70194726D01*
X120394723Y-70285331D01*
X120362360Y-70333767D01*
X120320987Y-70364103D01*
X120269794Y-70360747D01*
X120237640Y-70333767D01*
X120205276Y-70285331D01*
X120114671Y-70194726D01*
X120114669Y-70194724D01*
X120008127Y-70123535D01*
X120008122Y-70123533D01*
X119889744Y-70074499D01*
X119764070Y-70049500D01*
X119764069Y-70049500D01*
X119635931Y-70049500D01*
X119635930Y-70049500D01*
X119510255Y-70074499D01*
X119391874Y-70123534D01*
X119285331Y-70194724D01*
X119285328Y-70194726D01*
X119194726Y-70285328D01*
X119194724Y-70285331D01*
X119123534Y-70391874D01*
X119074499Y-70510255D01*
X119049500Y-70635930D01*
X110916937Y-70635930D01*
X110907985Y-70602518D01*
X110907983Y-70602513D01*
X110854718Y-70510256D01*
X110835509Y-70476985D01*
X110733015Y-70374491D01*
X110709210Y-70360747D01*
X110607486Y-70302016D01*
X110607483Y-70302015D01*
X110467480Y-70264501D01*
X110467477Y-70264500D01*
X110467475Y-70264500D01*
X110322525Y-70264500D01*
X110322523Y-70264500D01*
X110322519Y-70264501D01*
X110182516Y-70302015D01*
X110182513Y-70302016D01*
X110056984Y-70374491D01*
X109954491Y-70476984D01*
X109882016Y-70602513D01*
X109882015Y-70602516D01*
X109844501Y-70742519D01*
X109844500Y-70742527D01*
X108627725Y-70742527D01*
X108612984Y-70687516D01*
X108612983Y-70687513D01*
X108563911Y-70602518D01*
X108540509Y-70561985D01*
X108438015Y-70459491D01*
X108397844Y-70436298D01*
X108312486Y-70387016D01*
X108312483Y-70387015D01*
X108172480Y-70349501D01*
X108172477Y-70349500D01*
X108172475Y-70349500D01*
X108027525Y-70349500D01*
X108027523Y-70349500D01*
X108027519Y-70349501D01*
X107887516Y-70387015D01*
X107887513Y-70387016D01*
X107757728Y-70461949D01*
X107756393Y-70459637D01*
X107716532Y-70472091D01*
X107683382Y-70460025D01*
X107682272Y-70461949D01*
X107552486Y-70387016D01*
X107552483Y-70387015D01*
X107412480Y-70349501D01*
X107412477Y-70349500D01*
X107412475Y-70349500D01*
X107267525Y-70349500D01*
X107267523Y-70349500D01*
X107267519Y-70349501D01*
X107127516Y-70387015D01*
X107127513Y-70387016D01*
X107001984Y-70459491D01*
X106899491Y-70561984D01*
X106827016Y-70687513D01*
X106827015Y-70687516D01*
X106789501Y-70827519D01*
X106789500Y-70827527D01*
X106789500Y-70972472D01*
X106789501Y-70972480D01*
X106827015Y-71112483D01*
X106827016Y-71112486D01*
X106865325Y-71178839D01*
X106874234Y-71229363D01*
X106865325Y-71253838D01*
X106817018Y-71337509D01*
X106817015Y-71337516D01*
X106779501Y-71477519D01*
X106779500Y-71477527D01*
X93600997Y-71477527D01*
X93685509Y-71393015D01*
X93757984Y-71267485D01*
X93795500Y-71127475D01*
X93795500Y-70982525D01*
X93757984Y-70842515D01*
X93749504Y-70827828D01*
X93708623Y-70757020D01*
X93685509Y-70716985D01*
X93583015Y-70614491D01*
X93525442Y-70581251D01*
X93457486Y-70542016D01*
X93457483Y-70542015D01*
X93317480Y-70504501D01*
X93317477Y-70504500D01*
X93317475Y-70504500D01*
X93172525Y-70504500D01*
X93172523Y-70504500D01*
X93172519Y-70504501D01*
X93032516Y-70542015D01*
X93032513Y-70542016D01*
X92906984Y-70614491D01*
X92804491Y-70716984D01*
X92732016Y-70842513D01*
X92732015Y-70842516D01*
X92694501Y-70982519D01*
X92694500Y-70982527D01*
X80512780Y-70982527D01*
X80530501Y-70939744D01*
X80555500Y-70814069D01*
X80555500Y-70685931D01*
X80553974Y-70678262D01*
X80541289Y-70614491D01*
X80530501Y-70560256D01*
X80481465Y-70441873D01*
X80410276Y-70335331D01*
X80375478Y-70300533D01*
X80353796Y-70254037D01*
X80367075Y-70204482D01*
X80375478Y-70194467D01*
X80405276Y-70164669D01*
X80476465Y-70058127D01*
X80477640Y-70055291D01*
X82708554Y-70055291D01*
X82708554Y-70200236D01*
X82708555Y-70200244D01*
X82746069Y-70340247D01*
X82746070Y-70340250D01*
X82775946Y-70391996D01*
X82818545Y-70465779D01*
X82921039Y-70568273D01*
X83046569Y-70640748D01*
X83186579Y-70678264D01*
X83186581Y-70678264D01*
X83331527Y-70678264D01*
X83331529Y-70678264D01*
X83471539Y-70640748D01*
X83597069Y-70568273D01*
X83699563Y-70465779D01*
X83717535Y-70434650D01*
X83756832Y-70401676D01*
X83808135Y-70401675D01*
X83847436Y-70434651D01*
X83854929Y-70452740D01*
X83887015Y-70572483D01*
X83887016Y-70572486D01*
X83948088Y-70678264D01*
X83959491Y-70698015D01*
X84061985Y-70800509D01*
X84187515Y-70872984D01*
X84327525Y-70910500D01*
X84327527Y-70910500D01*
X84472473Y-70910500D01*
X84472475Y-70910500D01*
X84484150Y-70907371D01*
X84492387Y-70905165D01*
X84548244Y-70890197D01*
X84612485Y-70872984D01*
X84738015Y-70800509D01*
X84840509Y-70698015D01*
X84912984Y-70572485D01*
X84949476Y-70436298D01*
X99834501Y-70436298D01*
X99834501Y-70581243D01*
X99834502Y-70581251D01*
X99872016Y-70721254D01*
X99872017Y-70721257D01*
X99942025Y-70842513D01*
X99944492Y-70846786D01*
X100046986Y-70949280D01*
X100172516Y-71021755D01*
X100312526Y-71059271D01*
X100312528Y-71059271D01*
X100457474Y-71059271D01*
X100457476Y-71059271D01*
X100597486Y-71021755D01*
X100723016Y-70949280D01*
X100825510Y-70846786D01*
X100839871Y-70821910D01*
X100879169Y-70788936D01*
X100930472Y-70788935D01*
X100957855Y-70806379D01*
X101031985Y-70880509D01*
X101083931Y-70910500D01*
X101151099Y-70949280D01*
X101157515Y-70952984D01*
X101297525Y-70990500D01*
X101297527Y-70990500D01*
X101442473Y-70990500D01*
X101442475Y-70990500D01*
X101582485Y-70952984D01*
X101708015Y-70880509D01*
X101810509Y-70778015D01*
X101882984Y-70652485D01*
X101920500Y-70512475D01*
X101920500Y-70367525D01*
X101882984Y-70227515D01*
X101810509Y-70101985D01*
X101708015Y-69999491D01*
X101701598Y-69995786D01*
X101582486Y-69927016D01*
X101582483Y-69927015D01*
X101442480Y-69889501D01*
X101442477Y-69889500D01*
X101442475Y-69889500D01*
X101297525Y-69889500D01*
X101297523Y-69889500D01*
X101297519Y-69889501D01*
X101157516Y-69927015D01*
X101157513Y-69927016D01*
X101031984Y-69999491D01*
X100929488Y-70101987D01*
X100915127Y-70126860D01*
X100875825Y-70159835D01*
X100824522Y-70159833D01*
X100797144Y-70142390D01*
X100723016Y-70068262D01*
X100597487Y-69995787D01*
X100597484Y-69995786D01*
X100457481Y-69958272D01*
X100457478Y-69958271D01*
X100457476Y-69958271D01*
X100312526Y-69958271D01*
X100312524Y-69958271D01*
X100312520Y-69958272D01*
X100172517Y-69995786D01*
X100172514Y-69995787D01*
X100046985Y-70068262D01*
X99944492Y-70170755D01*
X99872017Y-70296284D01*
X99872016Y-70296287D01*
X99834502Y-70436290D01*
X99834501Y-70436298D01*
X84949476Y-70436298D01*
X84950500Y-70432475D01*
X84950500Y-70287525D01*
X84912984Y-70147515D01*
X84840509Y-70021985D01*
X84738015Y-69919491D01*
X84708560Y-69902485D01*
X84612486Y-69847016D01*
X84612483Y-69847015D01*
X84472480Y-69809501D01*
X84472477Y-69809500D01*
X84472475Y-69809500D01*
X84327525Y-69809500D01*
X84327523Y-69809500D01*
X84327519Y-69809501D01*
X84187516Y-69847015D01*
X84187513Y-69847016D01*
X84061984Y-69919491D01*
X83959490Y-70021985D01*
X83941519Y-70053112D01*
X83902219Y-70086088D01*
X83850916Y-70086088D01*
X83811616Y-70053110D01*
X83804124Y-70035023D01*
X83775183Y-69927016D01*
X83772038Y-69915279D01*
X83699563Y-69789749D01*
X83597069Y-69687255D01*
X83594774Y-69685930D01*
X83471540Y-69614780D01*
X83471537Y-69614779D01*
X83331534Y-69577265D01*
X83331531Y-69577264D01*
X83331529Y-69577264D01*
X83186579Y-69577264D01*
X83186577Y-69577264D01*
X83186573Y-69577265D01*
X83046570Y-69614779D01*
X83046567Y-69614780D01*
X82921038Y-69687255D01*
X82818545Y-69789748D01*
X82746070Y-69915277D01*
X82746069Y-69915280D01*
X82708555Y-70055283D01*
X82708554Y-70055291D01*
X80477640Y-70055291D01*
X80525501Y-69939744D01*
X80550500Y-69814069D01*
X80550500Y-69685931D01*
X80525501Y-69560256D01*
X80476465Y-69441873D01*
X80405276Y-69335331D01*
X80372978Y-69303033D01*
X80351296Y-69256537D01*
X80364575Y-69206982D01*
X80372978Y-69196967D01*
X80405276Y-69164669D01*
X80476465Y-69058127D01*
X80525501Y-68939744D01*
X80550500Y-68814069D01*
X80550500Y-68787527D01*
X89339500Y-68787527D01*
X89339500Y-68932472D01*
X89339501Y-68932480D01*
X89377015Y-69072483D01*
X89377016Y-69072486D01*
X89430240Y-69164671D01*
X89449491Y-69198015D01*
X89551985Y-69300509D01*
X89677515Y-69372984D01*
X89817525Y-69410500D01*
X89817527Y-69410500D01*
X89962473Y-69410500D01*
X89962475Y-69410500D01*
X90102485Y-69372984D01*
X90228015Y-69300509D01*
X90330509Y-69198015D01*
X90402984Y-69072485D01*
X90440500Y-68932475D01*
X90440500Y-68787525D01*
X90427103Y-68737527D01*
X90664500Y-68737527D01*
X90664500Y-68882472D01*
X90664501Y-68882480D01*
X90702015Y-69022483D01*
X90702016Y-69022486D01*
X90730884Y-69072486D01*
X90774491Y-69148015D01*
X90876985Y-69250509D01*
X91002515Y-69322984D01*
X91142525Y-69360500D01*
X91142527Y-69360500D01*
X91287473Y-69360500D01*
X91287475Y-69360500D01*
X91427485Y-69322984D01*
X91553015Y-69250509D01*
X91655509Y-69148015D01*
X91727984Y-69022485D01*
X91765500Y-68882475D01*
X91765500Y-68737525D01*
X91727984Y-68597515D01*
X91721023Y-68585459D01*
X91684950Y-68522978D01*
X91655509Y-68471985D01*
X91553015Y-68369491D01*
X91540013Y-68361984D01*
X91480332Y-68327527D01*
X95449500Y-68327527D01*
X95449500Y-68472472D01*
X95449501Y-68472480D01*
X95487015Y-68612483D01*
X95487016Y-68612486D01*
X95546417Y-68715371D01*
X95559491Y-68738015D01*
X95661985Y-68840509D01*
X95734667Y-68882472D01*
X95786650Y-68912485D01*
X95787515Y-68912984D01*
X95927525Y-68950500D01*
X95927527Y-68950500D01*
X96072473Y-68950500D01*
X96072475Y-68950500D01*
X96212485Y-68912984D01*
X96338015Y-68840509D01*
X96440509Y-68738015D01*
X96509548Y-68618435D01*
X96548849Y-68585459D01*
X96600152Y-68585459D01*
X96639452Y-68618436D01*
X96649500Y-68655936D01*
X96649500Y-68772472D01*
X96649501Y-68772480D01*
X96687015Y-68912483D01*
X96687016Y-68912486D01*
X96750525Y-69022485D01*
X96759491Y-69038015D01*
X96861985Y-69140509D01*
X96987515Y-69212984D01*
X96987516Y-69212984D01*
X96987518Y-69212985D01*
X97060442Y-69232525D01*
X97102467Y-69261951D01*
X97115746Y-69311505D01*
X97101715Y-69347593D01*
X97101949Y-69347728D01*
X97101072Y-69349245D01*
X97100540Y-69350616D01*
X97099495Y-69351978D01*
X97027016Y-69477513D01*
X97027015Y-69477516D01*
X96989501Y-69617519D01*
X96989500Y-69617527D01*
X96989500Y-69762472D01*
X96989501Y-69762480D01*
X97027015Y-69902483D01*
X97027016Y-69902486D01*
X97092191Y-70015371D01*
X97099491Y-70028015D01*
X97201985Y-70130509D01*
X97231442Y-70147516D01*
X97322760Y-70200239D01*
X97327515Y-70202984D01*
X97467525Y-70240500D01*
X97467527Y-70240500D01*
X97612473Y-70240500D01*
X97612475Y-70240500D01*
X97752485Y-70202984D01*
X97878015Y-70130509D01*
X97980509Y-70028015D01*
X98052984Y-69902485D01*
X98090500Y-69762475D01*
X98090500Y-69617525D01*
X98052984Y-69477515D01*
X97980509Y-69351985D01*
X97878015Y-69249491D01*
X97752486Y-69177016D01*
X97752483Y-69177015D01*
X97679556Y-69157474D01*
X97637531Y-69128048D01*
X97624253Y-69078493D01*
X97638287Y-69042408D01*
X97638051Y-69042272D01*
X97638937Y-69040736D01*
X97639469Y-69039370D01*
X97640504Y-69038019D01*
X97640509Y-69038015D01*
X97712984Y-68912485D01*
X97750500Y-68772475D01*
X97750500Y-68627525D01*
X97712984Y-68487515D01*
X97686632Y-68441873D01*
X97640509Y-68361985D01*
X97606051Y-68327527D01*
X100049500Y-68327527D01*
X100049500Y-68472472D01*
X100049501Y-68472480D01*
X100087015Y-68612483D01*
X100087016Y-68612486D01*
X100146417Y-68715371D01*
X100159491Y-68738015D01*
X100261985Y-68840509D01*
X100334667Y-68882472D01*
X100386650Y-68912485D01*
X100387515Y-68912984D01*
X100527525Y-68950500D01*
X100527527Y-68950500D01*
X100672473Y-68950500D01*
X100672475Y-68950500D01*
X100812485Y-68912984D01*
X100938015Y-68840509D01*
X101040509Y-68738015D01*
X101112984Y-68612485D01*
X101150500Y-68472475D01*
X101150500Y-68327525D01*
X101112984Y-68187515D01*
X101040509Y-68061985D01*
X100938015Y-67959491D01*
X100927306Y-67953308D01*
X100812486Y-67887016D01*
X100812483Y-67887015D01*
X100672480Y-67849501D01*
X100672477Y-67849500D01*
X100672475Y-67849500D01*
X100527525Y-67849500D01*
X100527523Y-67849500D01*
X100527519Y-67849501D01*
X100387516Y-67887015D01*
X100387513Y-67887016D01*
X100261984Y-67959491D01*
X100159491Y-68061984D01*
X100087016Y-68187513D01*
X100087015Y-68187516D01*
X100049501Y-68327519D01*
X100049500Y-68327527D01*
X97606051Y-68327527D01*
X97538015Y-68259491D01*
X97412486Y-68187016D01*
X97412483Y-68187015D01*
X97272480Y-68149501D01*
X97272477Y-68149500D01*
X97272475Y-68149500D01*
X97127525Y-68149500D01*
X97127523Y-68149500D01*
X97127519Y-68149501D01*
X96987516Y-68187015D01*
X96987513Y-68187016D01*
X96861984Y-68259491D01*
X96759491Y-68361984D01*
X96690452Y-68481563D01*
X96651151Y-68514540D01*
X96599848Y-68514540D01*
X96560548Y-68481563D01*
X96550500Y-68444063D01*
X96550500Y-68327527D01*
X96550498Y-68327519D01*
X96542324Y-68297015D01*
X96512984Y-68187515D01*
X96440509Y-68061985D01*
X96338015Y-67959491D01*
X96327306Y-67953308D01*
X96212486Y-67887016D01*
X96212483Y-67887015D01*
X96072480Y-67849501D01*
X96072477Y-67849500D01*
X96072475Y-67849500D01*
X95927525Y-67849500D01*
X95927523Y-67849500D01*
X95927519Y-67849501D01*
X95787516Y-67887015D01*
X95787513Y-67887016D01*
X95661984Y-67959491D01*
X95559491Y-68061984D01*
X95487016Y-68187513D01*
X95487015Y-68187516D01*
X95449501Y-68327519D01*
X95449500Y-68327527D01*
X91480332Y-68327527D01*
X91427486Y-68297016D01*
X91427483Y-68297015D01*
X91287480Y-68259501D01*
X91287477Y-68259500D01*
X91287475Y-68259500D01*
X91142525Y-68259500D01*
X91142523Y-68259500D01*
X91142519Y-68259501D01*
X91002516Y-68297015D01*
X91002513Y-68297016D01*
X90876984Y-68369491D01*
X90774491Y-68471984D01*
X90702016Y-68597513D01*
X90702015Y-68597516D01*
X90664501Y-68737519D01*
X90664500Y-68737527D01*
X90427103Y-68737527D01*
X90427102Y-68737525D01*
X90402984Y-68647516D01*
X90402983Y-68647513D01*
X90347528Y-68551463D01*
X90330509Y-68521985D01*
X90228015Y-68419491D01*
X90141413Y-68369491D01*
X90102486Y-68347016D01*
X90102483Y-68347015D01*
X89962480Y-68309501D01*
X89962477Y-68309500D01*
X89962475Y-68309500D01*
X89817525Y-68309500D01*
X89817523Y-68309500D01*
X89817519Y-68309501D01*
X89677516Y-68347015D01*
X89677513Y-68347016D01*
X89551984Y-68419491D01*
X89449491Y-68521984D01*
X89377016Y-68647513D01*
X89377015Y-68647516D01*
X89339501Y-68787519D01*
X89339500Y-68787527D01*
X80550500Y-68787527D01*
X80550500Y-68685931D01*
X80549461Y-68680710D01*
X80544533Y-68655936D01*
X80525501Y-68560256D01*
X80476465Y-68441873D01*
X80405276Y-68335331D01*
X80375478Y-68305533D01*
X80353796Y-68259037D01*
X80367075Y-68209482D01*
X80375478Y-68199467D01*
X80387930Y-68187015D01*
X80410276Y-68164669D01*
X80481465Y-68058127D01*
X80530501Y-67939744D01*
X80555500Y-67814069D01*
X80555500Y-67685931D01*
X80555399Y-67685425D01*
X80542302Y-67619584D01*
X80530501Y-67560256D01*
X80481465Y-67441873D01*
X80410276Y-67335331D01*
X80375478Y-67300533D01*
X80353796Y-67254037D01*
X80367075Y-67204482D01*
X80375478Y-67194467D01*
X80376748Y-67193197D01*
X80405276Y-67164669D01*
X80476465Y-67058127D01*
X80525501Y-66939744D01*
X80550500Y-66814069D01*
X80550500Y-66685931D01*
X80525501Y-66560256D01*
X80476465Y-66441873D01*
X80405276Y-66335331D01*
X80345478Y-66275533D01*
X80323796Y-66229037D01*
X80337075Y-66179482D01*
X80345478Y-66169467D01*
X80365445Y-66149500D01*
X80400276Y-66114669D01*
X80471465Y-66008127D01*
X80520501Y-65889744D01*
X80545500Y-65764069D01*
X80545500Y-65635931D01*
X80531738Y-65566748D01*
X80539542Y-65516045D01*
X80578113Y-65482218D01*
X80629404Y-65481098D01*
X80642797Y-65487166D01*
X80687515Y-65512984D01*
X80827525Y-65550500D01*
X80827527Y-65550500D01*
X80972473Y-65550500D01*
X80972475Y-65550500D01*
X81112485Y-65512984D01*
X81238015Y-65440509D01*
X81340509Y-65338015D01*
X81412984Y-65212485D01*
X81450500Y-65072475D01*
X81450500Y-64927525D01*
X81412984Y-64787515D01*
X81407217Y-64777527D01*
X83749500Y-64777527D01*
X83749500Y-64922472D01*
X83749501Y-64922480D01*
X83787015Y-65062483D01*
X83787016Y-65062486D01*
X83834254Y-65144303D01*
X83859491Y-65188015D01*
X83961985Y-65290509D01*
X84087515Y-65362984D01*
X84138110Y-65376540D01*
X84180134Y-65405965D01*
X84193413Y-65455519D01*
X84187990Y-65477683D01*
X84174499Y-65510255D01*
X84149500Y-65635930D01*
X84149500Y-65764069D01*
X84174499Y-65889744D01*
X84221023Y-66002064D01*
X84223535Y-66008127D01*
X84294724Y-66114669D01*
X84385331Y-66205276D01*
X84491873Y-66276465D01*
X84610256Y-66325501D01*
X84710931Y-66345527D01*
X84735930Y-66350500D01*
X84735931Y-66350500D01*
X84864070Y-66350500D01*
X84884921Y-66346352D01*
X84989744Y-66325501D01*
X85108127Y-66276465D01*
X85214669Y-66205276D01*
X85305276Y-66114669D01*
X85359369Y-66033713D01*
X86459500Y-66033713D01*
X86459500Y-66246286D01*
X86492754Y-66456247D01*
X86558440Y-66658405D01*
X86558442Y-66658408D01*
X86558443Y-66658412D01*
X86580644Y-66701984D01*
X86644605Y-66827516D01*
X86654949Y-66847816D01*
X86779896Y-67019792D01*
X86930208Y-67170104D01*
X87102184Y-67295051D01*
X87291588Y-67391557D01*
X87291593Y-67391558D01*
X87291594Y-67391559D01*
X87493752Y-67457245D01*
X87493755Y-67457245D01*
X87493757Y-67457246D01*
X87703713Y-67490500D01*
X87916287Y-67490500D01*
X88126243Y-67457246D01*
X88126245Y-67457245D01*
X88126247Y-67457245D01*
X88293791Y-67402806D01*
X88328412Y-67391557D01*
X88517816Y-67295051D01*
X88689792Y-67170104D01*
X88840104Y-67019792D01*
X88878076Y-66967527D01*
X90039500Y-66967527D01*
X90039500Y-67112472D01*
X90039501Y-67112480D01*
X90077015Y-67252483D01*
X90077016Y-67252486D01*
X90124847Y-67335331D01*
X90149491Y-67378015D01*
X90251985Y-67480509D01*
X90377515Y-67552984D01*
X90517525Y-67590500D01*
X90517527Y-67590500D01*
X90662473Y-67590500D01*
X90662475Y-67590500D01*
X90802485Y-67552984D01*
X90928015Y-67480509D01*
X91030509Y-67378015D01*
X91102984Y-67252485D01*
X91110195Y-67225571D01*
X91112351Y-67217527D01*
X106199500Y-67217527D01*
X106199500Y-67362472D01*
X106199501Y-67362480D01*
X106237015Y-67502483D01*
X106237016Y-67502486D01*
X106297853Y-67607857D01*
X106309491Y-67628015D01*
X106411985Y-67730509D01*
X106537515Y-67802984D01*
X106677525Y-67840500D01*
X106677527Y-67840500D01*
X106822473Y-67840500D01*
X106822475Y-67840500D01*
X106962485Y-67802984D01*
X107088015Y-67730509D01*
X107190509Y-67628015D01*
X107239697Y-67542820D01*
X110276207Y-67542820D01*
X110276207Y-67687765D01*
X110276208Y-67687773D01*
X110313722Y-67827776D01*
X110313723Y-67827779D01*
X110347924Y-67887016D01*
X110386198Y-67953308D01*
X110488692Y-68055802D01*
X110614222Y-68128277D01*
X110754232Y-68165793D01*
X110754234Y-68165793D01*
X110899180Y-68165793D01*
X110899182Y-68165793D01*
X111039192Y-68128277D01*
X111164722Y-68055802D01*
X111211567Y-68008956D01*
X111258063Y-67987274D01*
X111302096Y-67997035D01*
X111411314Y-68060093D01*
X111551324Y-68097609D01*
X111551326Y-68097609D01*
X111696272Y-68097609D01*
X111696274Y-68097609D01*
X111836284Y-68060093D01*
X111961814Y-67987618D01*
X112064308Y-67885124D01*
X112136783Y-67759594D01*
X112174299Y-67619584D01*
X112174299Y-67474634D01*
X112136783Y-67334624D01*
X112064308Y-67209094D01*
X111961814Y-67106600D01*
X111954380Y-67102308D01*
X111836285Y-67034125D01*
X111836282Y-67034124D01*
X111696279Y-66996610D01*
X111696276Y-66996609D01*
X111696274Y-66996609D01*
X111551324Y-66996609D01*
X111551322Y-66996609D01*
X111551318Y-66996610D01*
X111411315Y-67034124D01*
X111411312Y-67034125D01*
X111285783Y-67106600D01*
X111238937Y-67153446D01*
X111192441Y-67175127D01*
X111148406Y-67165364D01*
X111039192Y-67102309D01*
X111039190Y-67102308D01*
X110899187Y-67064794D01*
X110899184Y-67064793D01*
X110899182Y-67064793D01*
X110754232Y-67064793D01*
X110754230Y-67064793D01*
X110754226Y-67064794D01*
X110614223Y-67102308D01*
X110614220Y-67102309D01*
X110488691Y-67174784D01*
X110386198Y-67277277D01*
X110313723Y-67402806D01*
X110313722Y-67402809D01*
X110276208Y-67542812D01*
X110276207Y-67542820D01*
X107239697Y-67542820D01*
X107262984Y-67502485D01*
X107300500Y-67362475D01*
X107300500Y-67217525D01*
X107262984Y-67077515D01*
X107190509Y-66951985D01*
X107088015Y-66849491D01*
X107068138Y-66838015D01*
X106962486Y-66777016D01*
X106962483Y-66777015D01*
X106822480Y-66739501D01*
X106822477Y-66739500D01*
X106822475Y-66739500D01*
X106677525Y-66739500D01*
X106677523Y-66739500D01*
X106677519Y-66739501D01*
X106537516Y-66777015D01*
X106537513Y-66777016D01*
X106411984Y-66849491D01*
X106309491Y-66951984D01*
X106237016Y-67077513D01*
X106237015Y-67077516D01*
X106199501Y-67217519D01*
X106199500Y-67217527D01*
X91112351Y-67217527D01*
X91118871Y-67193197D01*
X91131052Y-67147734D01*
X91140500Y-67112475D01*
X91140500Y-66967525D01*
X91102984Y-66827515D01*
X91030509Y-66701985D01*
X90928015Y-66599491D01*
X90881217Y-66572472D01*
X90802486Y-66527016D01*
X90802483Y-66527015D01*
X90683201Y-66495053D01*
X90683200Y-66495052D01*
X90662482Y-66489501D01*
X90662476Y-66489500D01*
X90662475Y-66489500D01*
X90517525Y-66489500D01*
X90517523Y-66489500D01*
X90517519Y-66489501D01*
X90377516Y-66527015D01*
X90377513Y-66527016D01*
X90251984Y-66599491D01*
X90149491Y-66701984D01*
X90077016Y-66827513D01*
X90077015Y-66827516D01*
X90039501Y-66967519D01*
X90039500Y-66967527D01*
X88878076Y-66967527D01*
X88965051Y-66847816D01*
X89061557Y-66658412D01*
X89127246Y-66456243D01*
X89131794Y-66427527D01*
X99549500Y-66427527D01*
X99549500Y-66572472D01*
X99549501Y-66572480D01*
X99587015Y-66712483D01*
X99587016Y-66712486D01*
X99624273Y-66777016D01*
X99659491Y-66838015D01*
X99761985Y-66940509D01*
X99887515Y-67012984D01*
X100027525Y-67050500D01*
X100027527Y-67050500D01*
X100172473Y-67050500D01*
X100172475Y-67050500D01*
X100312485Y-67012984D01*
X100438015Y-66940509D01*
X100540509Y-66838015D01*
X100612984Y-66712485D01*
X100650500Y-66572475D01*
X100650500Y-66427525D01*
X100612984Y-66287515D01*
X100540509Y-66161985D01*
X100438015Y-66059491D01*
X100382652Y-66027527D01*
X106849500Y-66027527D01*
X106849500Y-66172472D01*
X106849501Y-66172480D01*
X106887015Y-66312483D01*
X106887016Y-66312486D01*
X106953431Y-66427519D01*
X106959491Y-66438015D01*
X107061985Y-66540509D01*
X107153876Y-66593563D01*
X107164144Y-66599491D01*
X107187515Y-66612984D01*
X107327525Y-66650500D01*
X107327527Y-66650500D01*
X107472473Y-66650500D01*
X107472475Y-66650500D01*
X107612485Y-66612984D01*
X107738015Y-66540509D01*
X107834811Y-66443713D01*
X112609500Y-66443713D01*
X112609500Y-66656287D01*
X112609837Y-66658412D01*
X112642754Y-66866247D01*
X112708440Y-67068405D01*
X112708442Y-67068408D01*
X112708443Y-67068412D01*
X112730897Y-67112480D01*
X112804948Y-67257815D01*
X112832002Y-67295051D01*
X112929896Y-67429792D01*
X113080208Y-67580104D01*
X113252184Y-67705051D01*
X113441588Y-67801557D01*
X113441593Y-67801558D01*
X113441594Y-67801559D01*
X113643752Y-67867245D01*
X113643755Y-67867245D01*
X113643757Y-67867246D01*
X113853713Y-67900500D01*
X114066287Y-67900500D01*
X114276243Y-67867246D01*
X114276245Y-67867245D01*
X114276247Y-67867245D01*
X114397712Y-67827778D01*
X114478412Y-67801557D01*
X114667816Y-67705051D01*
X114839792Y-67580104D01*
X114990104Y-67429792D01*
X115115051Y-67257816D01*
X115211557Y-67068412D01*
X115253364Y-66939744D01*
X115277245Y-66866247D01*
X115280165Y-66847816D01*
X115310500Y-66656287D01*
X115310500Y-66443713D01*
X115277246Y-66233757D01*
X115277245Y-66233755D01*
X115277245Y-66233752D01*
X115211559Y-66031594D01*
X115211558Y-66031593D01*
X115211557Y-66031588D01*
X115115051Y-65842184D01*
X114990104Y-65670208D01*
X114839792Y-65519896D01*
X114691954Y-65412486D01*
X114667815Y-65394948D01*
X114579936Y-65350172D01*
X114478412Y-65298443D01*
X114478408Y-65298442D01*
X114478405Y-65298440D01*
X114276247Y-65232754D01*
X114066287Y-65199500D01*
X113853713Y-65199500D01*
X113643752Y-65232754D01*
X113441594Y-65298440D01*
X113252184Y-65394948D01*
X113080209Y-65519895D01*
X113080207Y-65519896D01*
X112929896Y-65670207D01*
X112929895Y-65670209D01*
X112804948Y-65842184D01*
X112708440Y-66031594D01*
X112642754Y-66233752D01*
X112620063Y-66377022D01*
X112609500Y-66443713D01*
X107834811Y-66443713D01*
X107840509Y-66438015D01*
X107912984Y-66312485D01*
X107950500Y-66172475D01*
X107950500Y-66027525D01*
X107912984Y-65887515D01*
X107840509Y-65761985D01*
X107738015Y-65659491D01*
X107713860Y-65645545D01*
X107612486Y-65587016D01*
X107612483Y-65587015D01*
X107472480Y-65549501D01*
X107472477Y-65549500D01*
X107472475Y-65549500D01*
X107327525Y-65549500D01*
X107327523Y-65549500D01*
X107327519Y-65549501D01*
X107187516Y-65587015D01*
X107187513Y-65587016D01*
X107061984Y-65659491D01*
X106959491Y-65761984D01*
X106887016Y-65887513D01*
X106887015Y-65887516D01*
X106849501Y-66027519D01*
X106849500Y-66027527D01*
X100382652Y-66027527D01*
X100312486Y-65987016D01*
X100312483Y-65987015D01*
X100172480Y-65949501D01*
X100172477Y-65949500D01*
X100172475Y-65949500D01*
X100027525Y-65949500D01*
X100027523Y-65949500D01*
X100027519Y-65949501D01*
X99887516Y-65987015D01*
X99887513Y-65987016D01*
X99761984Y-66059491D01*
X99659491Y-66161984D01*
X99587016Y-66287513D01*
X99587015Y-66287516D01*
X99549501Y-66427519D01*
X99549500Y-66427527D01*
X89131794Y-66427527D01*
X89160500Y-66246287D01*
X89160500Y-66033713D01*
X89127246Y-65823757D01*
X89127245Y-65823755D01*
X89127245Y-65823752D01*
X89061559Y-65621594D01*
X89061558Y-65621593D01*
X89061557Y-65621588D01*
X89003440Y-65507527D01*
X98599500Y-65507527D01*
X98599500Y-65652472D01*
X98599501Y-65652480D01*
X98637015Y-65792483D01*
X98637016Y-65792486D01*
X98691882Y-65887515D01*
X98709491Y-65918015D01*
X98811985Y-66020509D01*
X98937515Y-66092984D01*
X99077525Y-66130500D01*
X99077527Y-66130500D01*
X99222473Y-66130500D01*
X99222475Y-66130500D01*
X99362485Y-66092984D01*
X99488015Y-66020509D01*
X99590509Y-65918015D01*
X99662984Y-65792485D01*
X99700500Y-65652475D01*
X99700500Y-65507525D01*
X99662984Y-65367515D01*
X99660367Y-65362983D01*
X99608112Y-65272475D01*
X99590509Y-65241985D01*
X99488015Y-65139491D01*
X99467293Y-65127527D01*
X100349500Y-65127527D01*
X100349500Y-65272472D01*
X100349501Y-65272480D01*
X100387015Y-65412483D01*
X100387016Y-65412486D01*
X100449029Y-65519895D01*
X100459491Y-65538015D01*
X100561985Y-65640509D01*
X100613425Y-65670208D01*
X100684123Y-65711026D01*
X100687515Y-65712984D01*
X100827525Y-65750500D01*
X100827527Y-65750500D01*
X100972473Y-65750500D01*
X100972475Y-65750500D01*
X101112485Y-65712984D01*
X101238015Y-65640509D01*
X101340509Y-65538015D01*
X101412984Y-65412485D01*
X101450500Y-65272475D01*
X101450500Y-65127525D01*
X101412984Y-64987515D01*
X101407934Y-64978769D01*
X101362232Y-64899611D01*
X101340509Y-64861985D01*
X101256051Y-64777527D01*
X110299500Y-64777527D01*
X110299500Y-64922472D01*
X110299501Y-64922480D01*
X110337015Y-65062483D01*
X110337016Y-65062486D01*
X110384254Y-65144303D01*
X110409491Y-65188015D01*
X110511985Y-65290509D01*
X110637515Y-65362984D01*
X110777525Y-65400500D01*
X110777527Y-65400500D01*
X110922473Y-65400500D01*
X110922475Y-65400500D01*
X111062485Y-65362984D01*
X111188015Y-65290509D01*
X111290509Y-65188015D01*
X111362984Y-65062485D01*
X111400500Y-64922475D01*
X111400500Y-64777525D01*
X111362984Y-64637515D01*
X111362069Y-64635931D01*
X111330789Y-64581752D01*
X111290509Y-64511985D01*
X111188015Y-64409491D01*
X111157500Y-64391873D01*
X111062486Y-64337016D01*
X111062483Y-64337015D01*
X110922480Y-64299501D01*
X110922477Y-64299500D01*
X110922475Y-64299500D01*
X110777525Y-64299500D01*
X110777523Y-64299500D01*
X110777519Y-64299501D01*
X110637516Y-64337015D01*
X110637513Y-64337016D01*
X110511984Y-64409491D01*
X110409491Y-64511984D01*
X110337016Y-64637513D01*
X110337015Y-64637516D01*
X110299501Y-64777519D01*
X110299500Y-64777527D01*
X101256051Y-64777527D01*
X101238015Y-64759491D01*
X101178518Y-64725140D01*
X101112486Y-64687016D01*
X101112483Y-64687015D01*
X100972480Y-64649501D01*
X100972477Y-64649500D01*
X100972475Y-64649500D01*
X100827525Y-64649500D01*
X100827523Y-64649500D01*
X100827519Y-64649501D01*
X100687516Y-64687015D01*
X100687513Y-64687016D01*
X100561984Y-64759491D01*
X100459491Y-64861984D01*
X100387016Y-64987513D01*
X100387015Y-64987516D01*
X100349501Y-65127519D01*
X100349500Y-65127527D01*
X99467293Y-65127527D01*
X99362486Y-65067016D01*
X99362483Y-65067015D01*
X99222480Y-65029501D01*
X99222477Y-65029500D01*
X99222475Y-65029500D01*
X99077525Y-65029500D01*
X99077523Y-65029500D01*
X99077519Y-65029501D01*
X98937516Y-65067015D01*
X98937513Y-65067016D01*
X98811984Y-65139491D01*
X98709491Y-65241984D01*
X98637016Y-65367513D01*
X98637015Y-65367516D01*
X98599501Y-65507519D01*
X98599500Y-65507527D01*
X89003440Y-65507527D01*
X88965051Y-65432184D01*
X88840104Y-65260208D01*
X88689792Y-65109896D01*
X88549715Y-65008125D01*
X88517815Y-64984948D01*
X88395213Y-64922480D01*
X88328412Y-64888443D01*
X88328408Y-64888442D01*
X88328405Y-64888440D01*
X88126247Y-64822754D01*
X87916287Y-64789500D01*
X87703713Y-64789500D01*
X87493752Y-64822754D01*
X87291594Y-64888440D01*
X87102184Y-64984948D01*
X86930209Y-65109895D01*
X86930207Y-65109896D01*
X86779896Y-65260207D01*
X86779895Y-65260209D01*
X86654948Y-65432184D01*
X86558440Y-65621594D01*
X86492754Y-65823752D01*
X86459500Y-66033713D01*
X85359369Y-66033713D01*
X85376465Y-66008127D01*
X85425501Y-65889744D01*
X85450500Y-65764069D01*
X85450500Y-65635931D01*
X85450498Y-65635923D01*
X85440600Y-65586161D01*
X85425501Y-65510256D01*
X85376465Y-65391873D01*
X85305276Y-65285331D01*
X85214669Y-65194724D01*
X85108127Y-65123535D01*
X85075197Y-65109895D01*
X84989744Y-65074499D01*
X84897410Y-65056132D01*
X84853550Y-65029517D01*
X84837060Y-64980936D01*
X84839598Y-64963160D01*
X84850499Y-64922480D01*
X84850500Y-64922475D01*
X84850500Y-64777525D01*
X84812984Y-64637515D01*
X84812069Y-64635931D01*
X84780789Y-64581752D01*
X84740509Y-64511985D01*
X84638015Y-64409491D01*
X84607500Y-64391873D01*
X84512486Y-64337016D01*
X84512483Y-64337015D01*
X84372480Y-64299501D01*
X84372477Y-64299500D01*
X84372475Y-64299500D01*
X84227525Y-64299500D01*
X84227523Y-64299500D01*
X84227519Y-64299501D01*
X84087516Y-64337015D01*
X84087513Y-64337016D01*
X83961984Y-64409491D01*
X83859491Y-64511984D01*
X83787016Y-64637513D01*
X83787015Y-64637516D01*
X83749501Y-64777519D01*
X83749500Y-64777527D01*
X81407217Y-64777527D01*
X81362972Y-64700892D01*
X81340509Y-64661985D01*
X81238015Y-64559491D01*
X81182304Y-64527326D01*
X81112486Y-64487016D01*
X81112483Y-64487015D01*
X80972480Y-64449501D01*
X80972477Y-64449500D01*
X80972475Y-64449500D01*
X80827525Y-64449500D01*
X80827523Y-64449500D01*
X80827519Y-64449501D01*
X80687516Y-64487015D01*
X80687513Y-64487016D01*
X80623063Y-64524227D01*
X80572539Y-64533136D01*
X80528110Y-64507484D01*
X80516272Y-64487976D01*
X80476465Y-64391873D01*
X80405276Y-64285331D01*
X80372978Y-64253033D01*
X80351296Y-64206537D01*
X80364575Y-64156982D01*
X80372978Y-64146967D01*
X80381930Y-64138015D01*
X80405276Y-64114669D01*
X80476465Y-64008127D01*
X80525501Y-63889744D01*
X80550500Y-63764069D01*
X80550500Y-63727527D01*
X86099500Y-63727527D01*
X86099500Y-63872472D01*
X86099501Y-63872480D01*
X86137015Y-64012483D01*
X86137016Y-64012486D01*
X86196012Y-64114669D01*
X86209491Y-64138015D01*
X86311985Y-64240509D01*
X86437515Y-64312984D01*
X86577525Y-64350500D01*
X86577527Y-64350500D01*
X86722473Y-64350500D01*
X86722475Y-64350500D01*
X86862485Y-64312984D01*
X86988015Y-64240509D01*
X87090509Y-64138015D01*
X87162984Y-64012485D01*
X87200500Y-63872475D01*
X87200500Y-63727525D01*
X87162984Y-63587515D01*
X87090509Y-63461985D01*
X87046051Y-63417527D01*
X99269500Y-63417527D01*
X99269500Y-63562472D01*
X99269501Y-63562480D01*
X99307015Y-63702483D01*
X99307016Y-63702486D01*
X99379491Y-63828015D01*
X99481985Y-63930509D01*
X99607515Y-64002984D01*
X99747525Y-64040500D01*
X99747527Y-64040500D01*
X99892473Y-64040500D01*
X99892475Y-64040500D01*
X100032485Y-64002984D01*
X100158015Y-63930509D01*
X100260509Y-63828015D01*
X100273459Y-63805585D01*
X104571442Y-63805585D01*
X104571442Y-63950530D01*
X104571443Y-63950538D01*
X104608957Y-64090541D01*
X104608958Y-64090544D01*
X104672153Y-64200000D01*
X104681433Y-64216073D01*
X104783927Y-64318567D01*
X104909457Y-64391042D01*
X105049467Y-64428558D01*
X105049469Y-64428558D01*
X105194415Y-64428558D01*
X105194417Y-64428558D01*
X105334427Y-64391042D01*
X105459957Y-64318567D01*
X105562451Y-64216073D01*
X105634926Y-64090543D01*
X105672442Y-63950533D01*
X105672442Y-63805583D01*
X105634926Y-63665573D01*
X105562451Y-63540043D01*
X105459957Y-63437549D01*
X105425264Y-63417519D01*
X105334428Y-63365074D01*
X105334425Y-63365073D01*
X105194422Y-63327559D01*
X105194419Y-63327558D01*
X105194417Y-63327558D01*
X105049467Y-63327558D01*
X105049465Y-63327558D01*
X105049461Y-63327559D01*
X104909458Y-63365073D01*
X104909455Y-63365074D01*
X104783926Y-63437549D01*
X104681433Y-63540042D01*
X104608958Y-63665571D01*
X104608957Y-63665574D01*
X104571443Y-63805577D01*
X104571442Y-63805585D01*
X100273459Y-63805585D01*
X100332984Y-63702485D01*
X100370500Y-63562475D01*
X100370500Y-63417525D01*
X100332984Y-63277515D01*
X100316809Y-63249500D01*
X100310838Y-63239157D01*
X100260509Y-63151985D01*
X100186051Y-63077527D01*
X107749500Y-63077527D01*
X107749500Y-63222472D01*
X107749501Y-63222480D01*
X107787015Y-63362483D01*
X107787016Y-63362486D01*
X107859491Y-63488015D01*
X107961985Y-63590509D01*
X108087515Y-63662984D01*
X108227525Y-63700500D01*
X108227527Y-63700500D01*
X108372473Y-63700500D01*
X108372475Y-63700500D01*
X108512485Y-63662984D01*
X108638015Y-63590509D01*
X108740509Y-63488015D01*
X108812984Y-63362485D01*
X108850500Y-63222475D01*
X108850500Y-63077525D01*
X108812984Y-62937515D01*
X108740509Y-62811985D01*
X108638015Y-62709491D01*
X108512486Y-62637016D01*
X108512483Y-62637015D01*
X108372480Y-62599501D01*
X108372477Y-62599500D01*
X108372475Y-62599500D01*
X108227525Y-62599500D01*
X108227523Y-62599500D01*
X108227519Y-62599501D01*
X108087516Y-62637015D01*
X108087513Y-62637016D01*
X107961984Y-62709491D01*
X107859491Y-62811984D01*
X107787016Y-62937513D01*
X107787015Y-62937516D01*
X107749501Y-63077519D01*
X107749500Y-63077527D01*
X100186051Y-63077527D01*
X100158015Y-63049491D01*
X100086371Y-63008127D01*
X100032486Y-62977016D01*
X100032483Y-62977015D01*
X99892480Y-62939501D01*
X99892477Y-62939500D01*
X99892475Y-62939500D01*
X99747525Y-62939500D01*
X99747523Y-62939500D01*
X99747519Y-62939501D01*
X99607516Y-62977015D01*
X99607513Y-62977016D01*
X99481984Y-63049491D01*
X99379491Y-63151984D01*
X99307016Y-63277513D01*
X99307015Y-63277516D01*
X99269501Y-63417519D01*
X99269500Y-63417527D01*
X87046051Y-63417527D01*
X86988015Y-63359491D01*
X86862486Y-63287016D01*
X86862483Y-63287015D01*
X86722480Y-63249501D01*
X86722477Y-63249500D01*
X86722475Y-63249500D01*
X86577525Y-63249500D01*
X86577523Y-63249500D01*
X86577519Y-63249501D01*
X86437516Y-63287015D01*
X86437513Y-63287016D01*
X86311984Y-63359491D01*
X86209491Y-63461984D01*
X86137016Y-63587513D01*
X86137015Y-63587516D01*
X86099501Y-63727519D01*
X86099500Y-63727527D01*
X80550500Y-63727527D01*
X80550500Y-63635931D01*
X80525501Y-63510256D01*
X80476465Y-63391873D01*
X80405276Y-63285331D01*
X80372978Y-63253033D01*
X80366507Y-63239157D01*
X80356326Y-63227730D01*
X80355996Y-63216616D01*
X80351296Y-63206537D01*
X80355258Y-63191750D01*
X80354804Y-63176450D01*
X80362860Y-63163380D01*
X80364575Y-63156982D01*
X80367153Y-63153516D01*
X80369872Y-63150072D01*
X80405276Y-63114669D01*
X80413389Y-63102527D01*
X84249500Y-63102527D01*
X84249500Y-63247472D01*
X84249501Y-63247480D01*
X84287015Y-63387483D01*
X84287016Y-63387486D01*
X84357898Y-63510256D01*
X84359491Y-63513015D01*
X84461985Y-63615509D01*
X84587515Y-63687984D01*
X84727525Y-63725500D01*
X84727527Y-63725500D01*
X84872473Y-63725500D01*
X84872475Y-63725500D01*
X85012485Y-63687984D01*
X85138015Y-63615509D01*
X85240509Y-63513015D01*
X85312984Y-63387485D01*
X85350500Y-63247475D01*
X85350500Y-63102525D01*
X85312984Y-62962515D01*
X85305982Y-62950388D01*
X85293563Y-62928876D01*
X85240509Y-62836985D01*
X85138015Y-62734491D01*
X85094714Y-62709491D01*
X85012486Y-62662016D01*
X85012483Y-62662015D01*
X84872480Y-62624501D01*
X84872477Y-62624500D01*
X84872475Y-62624500D01*
X84727525Y-62624500D01*
X84727523Y-62624500D01*
X84727519Y-62624501D01*
X84587516Y-62662015D01*
X84587513Y-62662016D01*
X84461984Y-62734491D01*
X84359491Y-62836984D01*
X84287016Y-62962513D01*
X84287015Y-62962516D01*
X84249501Y-63102519D01*
X84249500Y-63102527D01*
X80413389Y-63102527D01*
X80476465Y-63008127D01*
X80525501Y-62889744D01*
X80550500Y-62764069D01*
X80550500Y-62635931D01*
X80525501Y-62510256D01*
X80476465Y-62391873D01*
X80405276Y-62285331D01*
X80314669Y-62194724D01*
X80208127Y-62123535D01*
X80190491Y-62116230D01*
X80089744Y-62074499D01*
X79964070Y-62049500D01*
X79964069Y-62049500D01*
X79835931Y-62049500D01*
X79835930Y-62049500D01*
X79710255Y-62074499D01*
X79591874Y-62123534D01*
X79485331Y-62194724D01*
X79485328Y-62194726D01*
X79394726Y-62285328D01*
X79394724Y-62285331D01*
X79323534Y-62391874D01*
X79274499Y-62510255D01*
X79249500Y-62635930D01*
X79249500Y-62764069D01*
X79274499Y-62889744D01*
X79299616Y-62950383D01*
X79323535Y-63008127D01*
X79394724Y-63114669D01*
X79394726Y-63114671D01*
X79427022Y-63146967D01*
X79448704Y-63193463D01*
X79435425Y-63243018D01*
X79427022Y-63253033D01*
X79394726Y-63285328D01*
X79394724Y-63285331D01*
X79323533Y-63391875D01*
X79317529Y-63406371D01*
X79282868Y-63444195D01*
X79232004Y-63450890D01*
X79188736Y-63423323D01*
X79175795Y-63397081D01*
X79166158Y-63361113D01*
X79078344Y-63149112D01*
X78963611Y-62950388D01*
X78963610Y-62950387D01*
X78963608Y-62950383D01*
X78823923Y-62768343D01*
X78661656Y-62606076D01*
X78479616Y-62466391D01*
X78280894Y-62351659D01*
X78280891Y-62351657D01*
X78280888Y-62351656D01*
X78120759Y-62285328D01*
X78068888Y-62263842D01*
X78068879Y-62263839D01*
X77847248Y-62204454D01*
X77847231Y-62204450D01*
X77619745Y-62174501D01*
X77619738Y-62174500D01*
X77619734Y-62174500D01*
X77390266Y-62174500D01*
X77390261Y-62174500D01*
X77390254Y-62174501D01*
X77162768Y-62204450D01*
X77162751Y-62204454D01*
X76941120Y-62263839D01*
X76941111Y-62263842D01*
X76729105Y-62351659D01*
X76530383Y-62466391D01*
X76348343Y-62606076D01*
X76348341Y-62606079D01*
X76186079Y-62768341D01*
X76186076Y-62768343D01*
X76046391Y-62950383D01*
X75931659Y-63149105D01*
X75843842Y-63361111D01*
X75843839Y-63361120D01*
X75803104Y-63513148D01*
X75773678Y-63555173D01*
X75724123Y-63568452D01*
X75677627Y-63546770D01*
X75656873Y-63507171D01*
X75640550Y-63417519D01*
X75585668Y-63116087D01*
X75585202Y-63113202D01*
X75583688Y-63102527D01*
X75443969Y-62117671D01*
X75443616Y-62114775D01*
X75441138Y-62090509D01*
X75357471Y-61271097D01*
X75343087Y-61130228D01*
X75342811Y-61127527D01*
X84749500Y-61127527D01*
X84749500Y-61272472D01*
X84749501Y-61272480D01*
X84787015Y-61412483D01*
X84787016Y-61412486D01*
X84859491Y-61538015D01*
X84961985Y-61640509D01*
X85087515Y-61712984D01*
X85227525Y-61750500D01*
X85227527Y-61750500D01*
X85372473Y-61750500D01*
X85372475Y-61750500D01*
X85512485Y-61712984D01*
X85638015Y-61640509D01*
X85740509Y-61538015D01*
X85754283Y-61514157D01*
X108462870Y-61514157D01*
X108462870Y-61659102D01*
X108462871Y-61659110D01*
X108500385Y-61799113D01*
X108500386Y-61799116D01*
X108536973Y-61862485D01*
X108572861Y-61924645D01*
X108675355Y-62027139D01*
X108800885Y-62099614D01*
X108940895Y-62137130D01*
X108940897Y-62137130D01*
X109085843Y-62137130D01*
X109085845Y-62137130D01*
X109225855Y-62099614D01*
X109351385Y-62027139D01*
X109428526Y-61949997D01*
X109475021Y-61928316D01*
X109524576Y-61941594D01*
X109546509Y-61965530D01*
X109559491Y-61988015D01*
X109661985Y-62090509D01*
X109787515Y-62162984D01*
X109927525Y-62200500D01*
X109927527Y-62200500D01*
X110072473Y-62200500D01*
X110072475Y-62200500D01*
X110212485Y-62162984D01*
X110338015Y-62090509D01*
X110440509Y-61988015D01*
X110512984Y-61862485D01*
X110550500Y-61722475D01*
X110550500Y-61577525D01*
X110512984Y-61437515D01*
X110440509Y-61311985D01*
X110338015Y-61209491D01*
X110212486Y-61137016D01*
X110212483Y-61137015D01*
X110072480Y-61099501D01*
X110072477Y-61099500D01*
X110072475Y-61099500D01*
X109927525Y-61099500D01*
X109927523Y-61099500D01*
X109927519Y-61099501D01*
X109787516Y-61137015D01*
X109787513Y-61137016D01*
X109661984Y-61209491D01*
X109584844Y-61286631D01*
X109538347Y-61308313D01*
X109488792Y-61295034D01*
X109466859Y-61271097D01*
X109453879Y-61248615D01*
X109351385Y-61146121D01*
X109225856Y-61073646D01*
X109225853Y-61073645D01*
X109085850Y-61036131D01*
X109085847Y-61036130D01*
X109085845Y-61036130D01*
X108940895Y-61036130D01*
X108940893Y-61036130D01*
X108940889Y-61036131D01*
X108800886Y-61073645D01*
X108800883Y-61073646D01*
X108675354Y-61146121D01*
X108572861Y-61248614D01*
X108500386Y-61374143D01*
X108500385Y-61374146D01*
X108462871Y-61514149D01*
X108462870Y-61514157D01*
X85754283Y-61514157D01*
X85812984Y-61412485D01*
X85850500Y-61272475D01*
X85850500Y-61127525D01*
X85812984Y-60987515D01*
X85740509Y-60861985D01*
X85638015Y-60759491D01*
X85630108Y-60754926D01*
X85512486Y-60687016D01*
X85512483Y-60687015D01*
X85372480Y-60649501D01*
X85372477Y-60649500D01*
X85372475Y-60649500D01*
X85227525Y-60649500D01*
X85227523Y-60649500D01*
X85227519Y-60649501D01*
X85087516Y-60687015D01*
X85087513Y-60687016D01*
X84961984Y-60759491D01*
X84859491Y-60861984D01*
X84787016Y-60987513D01*
X84787015Y-60987516D01*
X84749501Y-61127519D01*
X84749500Y-61127527D01*
X75342811Y-61127527D01*
X75341478Y-61114472D01*
X75341237Y-61111544D01*
X75333465Y-60987513D01*
X75278349Y-60107990D01*
X75278224Y-60105077D01*
X75277227Y-60062481D01*
X75273833Y-59917528D01*
X78439500Y-59917528D01*
X78439500Y-60062473D01*
X78439501Y-60062481D01*
X78477015Y-60202484D01*
X78477016Y-60202487D01*
X78540523Y-60312483D01*
X78549491Y-60328016D01*
X78651985Y-60430510D01*
X78777515Y-60502985D01*
X78917525Y-60540501D01*
X78917527Y-60540501D01*
X79062473Y-60540501D01*
X79062475Y-60540501D01*
X79202485Y-60502985D01*
X79328015Y-60430510D01*
X79430509Y-60328016D01*
X79502984Y-60202486D01*
X79511831Y-60169469D01*
X92207558Y-60169469D01*
X92207558Y-60314414D01*
X92207559Y-60314422D01*
X92245073Y-60454425D01*
X92245074Y-60454428D01*
X92317549Y-60579957D01*
X92420043Y-60682451D01*
X92545573Y-60754926D01*
X92685583Y-60792442D01*
X92685585Y-60792442D01*
X92830531Y-60792442D01*
X92830533Y-60792442D01*
X92970543Y-60754926D01*
X93096073Y-60682451D01*
X93198567Y-60579957D01*
X93271042Y-60454427D01*
X93288996Y-60387422D01*
X95657742Y-60387422D01*
X95657742Y-60532367D01*
X95657743Y-60532375D01*
X95695257Y-60672378D01*
X95695258Y-60672381D01*
X95742916Y-60754926D01*
X95767733Y-60797910D01*
X95870227Y-60900404D01*
X95995757Y-60972879D01*
X96135767Y-61010395D01*
X96135769Y-61010395D01*
X96280715Y-61010395D01*
X96280717Y-61010395D01*
X96420727Y-60972879D01*
X96546257Y-60900404D01*
X96648751Y-60797910D01*
X96721226Y-60672380D01*
X96758742Y-60532370D01*
X96758742Y-60387420D01*
X96721226Y-60247410D01*
X96648751Y-60121880D01*
X96630365Y-60103494D01*
X96608683Y-60056998D01*
X96621962Y-60007443D01*
X96630365Y-59997428D01*
X96681259Y-59946534D01*
X96753734Y-59821004D01*
X96791250Y-59680994D01*
X96791250Y-59536044D01*
X96753734Y-59396034D01*
X96681259Y-59270504D01*
X96647672Y-59236917D01*
X96625990Y-59190421D01*
X96639269Y-59140866D01*
X96647666Y-59130857D01*
X96698567Y-59079957D01*
X96771042Y-58954427D01*
X96808558Y-58814417D01*
X96808558Y-58669467D01*
X96771042Y-58529457D01*
X96698567Y-58403927D01*
X96695764Y-58401124D01*
X96674082Y-58354628D01*
X96687361Y-58305073D01*
X96695764Y-58295058D01*
X96697359Y-58293463D01*
X96746658Y-58244164D01*
X96819133Y-58118634D01*
X96856649Y-57978624D01*
X96856649Y-57833674D01*
X96819133Y-57693664D01*
X96746658Y-57568134D01*
X96644164Y-57465640D01*
X96518635Y-57393165D01*
X96518632Y-57393164D01*
X96378629Y-57355650D01*
X96378626Y-57355649D01*
X96378624Y-57355649D01*
X96233674Y-57355649D01*
X96233672Y-57355649D01*
X96233668Y-57355650D01*
X96093665Y-57393164D01*
X96093662Y-57393165D01*
X95968133Y-57465640D01*
X95865640Y-57568133D01*
X95793165Y-57693662D01*
X95793164Y-57693665D01*
X95755650Y-57833668D01*
X95755649Y-57833676D01*
X95755649Y-57978621D01*
X95755650Y-57978629D01*
X95793164Y-58118632D01*
X95793165Y-58118635D01*
X95865640Y-58244164D01*
X95868443Y-58246967D01*
X95890125Y-58293463D01*
X95876846Y-58343018D01*
X95868443Y-58353033D01*
X95817549Y-58403926D01*
X95745074Y-58529455D01*
X95745073Y-58529458D01*
X95707559Y-58669461D01*
X95707558Y-58669469D01*
X95707558Y-58814414D01*
X95707559Y-58814422D01*
X95745073Y-58954425D01*
X95745074Y-58954428D01*
X95817549Y-59079957D01*
X95851135Y-59113543D01*
X95872817Y-59160039D01*
X95859538Y-59209594D01*
X95851135Y-59219609D01*
X95800241Y-59270503D01*
X95727766Y-59396032D01*
X95727765Y-59396035D01*
X95690251Y-59536038D01*
X95690250Y-59536046D01*
X95690250Y-59680991D01*
X95690251Y-59680999D01*
X95727765Y-59821002D01*
X95727766Y-59821005D01*
X95800241Y-59946534D01*
X95818627Y-59964920D01*
X95840309Y-60011416D01*
X95827030Y-60060971D01*
X95818627Y-60070986D01*
X95767733Y-60121879D01*
X95695258Y-60247408D01*
X95695257Y-60247411D01*
X95657743Y-60387414D01*
X95657742Y-60387422D01*
X93288996Y-60387422D01*
X93288997Y-60387420D01*
X93295516Y-60363092D01*
X93304914Y-60328016D01*
X93308558Y-60314417D01*
X93308558Y-60169467D01*
X93271042Y-60029457D01*
X93265227Y-60019386D01*
X93223166Y-59946534D01*
X93198567Y-59903927D01*
X93096073Y-59801433D01*
X92970544Y-59728958D01*
X92970541Y-59728957D01*
X92830538Y-59691443D01*
X92830535Y-59691442D01*
X92830533Y-59691442D01*
X92685583Y-59691442D01*
X92685581Y-59691442D01*
X92685577Y-59691443D01*
X92545574Y-59728957D01*
X92545571Y-59728958D01*
X92420042Y-59801433D01*
X92317549Y-59903926D01*
X92245074Y-60029455D01*
X92245073Y-60029458D01*
X92207559Y-60169461D01*
X92207558Y-60169469D01*
X79511831Y-60169469D01*
X79511833Y-60169461D01*
X79518351Y-60145139D01*
X79518351Y-60145138D01*
X79540498Y-60062483D01*
X79540500Y-60062476D01*
X79540500Y-59917526D01*
X79536829Y-59903825D01*
X79541299Y-59852718D01*
X79577575Y-59816440D01*
X79628683Y-59811968D01*
X79646774Y-59819462D01*
X79687511Y-59842982D01*
X79687512Y-59842982D01*
X79687515Y-59842984D01*
X79827525Y-59880500D01*
X79827527Y-59880500D01*
X79972473Y-59880500D01*
X79972475Y-59880500D01*
X80112485Y-59842984D01*
X80238015Y-59770509D01*
X80340509Y-59668015D01*
X80412984Y-59542485D01*
X80450500Y-59402475D01*
X80450500Y-59257525D01*
X80412984Y-59117515D01*
X80405590Y-59104709D01*
X80389891Y-59077517D01*
X80340509Y-58991985D01*
X80238015Y-58889491D01*
X80112486Y-58817016D01*
X80112483Y-58817015D01*
X79972480Y-58779501D01*
X79972477Y-58779500D01*
X79972475Y-58779500D01*
X79827525Y-58779500D01*
X79827523Y-58779500D01*
X79827519Y-58779501D01*
X79687516Y-58817015D01*
X79687513Y-58817016D01*
X79561984Y-58889491D01*
X79459491Y-58991984D01*
X79387016Y-59117513D01*
X79387015Y-59117516D01*
X79349501Y-59257519D01*
X79349500Y-59257527D01*
X79349500Y-59402478D01*
X79353171Y-59416177D01*
X79348698Y-59467285D01*
X79312421Y-59503561D01*
X79261313Y-59508031D01*
X79243226Y-59500539D01*
X79202485Y-59477017D01*
X79202483Y-59477016D01*
X79062480Y-59439502D01*
X79062477Y-59439501D01*
X79062475Y-59439501D01*
X78917525Y-59439501D01*
X78917523Y-59439501D01*
X78917519Y-59439502D01*
X78777516Y-59477016D01*
X78777513Y-59477017D01*
X78651984Y-59549492D01*
X78549491Y-59651985D01*
X78477016Y-59777514D01*
X78477015Y-59777517D01*
X78439501Y-59917520D01*
X78439500Y-59917528D01*
X75273833Y-59917528D01*
X75254685Y-59099840D01*
X75254674Y-59096989D01*
X75270522Y-58091504D01*
X75270623Y-58088664D01*
X75325834Y-57084591D01*
X75326046Y-57081746D01*
X75420531Y-56080660D01*
X75420863Y-56077755D01*
X75437924Y-55950500D01*
X75521445Y-55327527D01*
X76099500Y-55327527D01*
X76099500Y-55472472D01*
X76099501Y-55472480D01*
X76137015Y-55612483D01*
X76137016Y-55612486D01*
X76186083Y-55697472D01*
X76209491Y-55738015D01*
X76311985Y-55840509D01*
X76437515Y-55912984D01*
X76577525Y-55950500D01*
X76577527Y-55950500D01*
X76722473Y-55950500D01*
X76722475Y-55950500D01*
X76862485Y-55912984D01*
X76960176Y-55856582D01*
X81324500Y-55856582D01*
X81324500Y-56053417D01*
X81355291Y-56247829D01*
X81416113Y-56435018D01*
X81416115Y-56435021D01*
X81416116Y-56435025D01*
X81464013Y-56529030D01*
X81505473Y-56610401D01*
X81505476Y-56610405D01*
X81621172Y-56769646D01*
X81760354Y-56908828D01*
X81919595Y-57024524D01*
X82094975Y-57113884D01*
X82094980Y-57113885D01*
X82094981Y-57113886D01*
X82282170Y-57174708D01*
X82282171Y-57174708D01*
X82282174Y-57174709D01*
X82417915Y-57196208D01*
X82476582Y-57205500D01*
X82476583Y-57205500D01*
X82673418Y-57205500D01*
X82718484Y-57198362D01*
X82867826Y-57174709D01*
X83055025Y-57113884D01*
X83180802Y-57049797D01*
X83231720Y-57043546D01*
X83274747Y-57071488D01*
X83289746Y-57120549D01*
X83275525Y-57160708D01*
X83225475Y-57229595D01*
X83136113Y-57404981D01*
X83075291Y-57592170D01*
X83044500Y-57786582D01*
X83044500Y-57983417D01*
X83075291Y-58177829D01*
X83136113Y-58365018D01*
X83136115Y-58365021D01*
X83136116Y-58365025D01*
X83184013Y-58459030D01*
X83225475Y-58540404D01*
X83235717Y-58554501D01*
X83341172Y-58699646D01*
X83480354Y-58838828D01*
X83639595Y-58954524D01*
X83814975Y-59043884D01*
X83814980Y-59043885D01*
X83814981Y-59043886D01*
X84002170Y-59104708D01*
X84002171Y-59104708D01*
X84002174Y-59104709D01*
X84137915Y-59126208D01*
X84196582Y-59135500D01*
X84196583Y-59135500D01*
X84393418Y-59135500D01*
X84438484Y-59128362D01*
X84587826Y-59104709D01*
X84775025Y-59043884D01*
X84950405Y-58954524D01*
X85109646Y-58838828D01*
X85248828Y-58699646D01*
X85364524Y-58540405D01*
X85453884Y-58365025D01*
X85514709Y-58177826D01*
X85545500Y-57983417D01*
X85545500Y-57786583D01*
X85514709Y-57592174D01*
X85473595Y-57465640D01*
X85453886Y-57404981D01*
X85453885Y-57404980D01*
X85453884Y-57404975D01*
X85364524Y-57229595D01*
X85248828Y-57070354D01*
X85109646Y-56931172D01*
X84950405Y-56815476D01*
X84950406Y-56815476D01*
X84950404Y-56815475D01*
X84912399Y-56796111D01*
X84777794Y-56727527D01*
X87249500Y-56727527D01*
X87249500Y-56872472D01*
X87249501Y-56872480D01*
X87287015Y-57012483D01*
X87287016Y-57012486D01*
X87327829Y-57083175D01*
X87359491Y-57138015D01*
X87461985Y-57240509D01*
X87587515Y-57312984D01*
X87727525Y-57350500D01*
X87727527Y-57350500D01*
X87872473Y-57350500D01*
X87872475Y-57350500D01*
X88012485Y-57312984D01*
X88138015Y-57240509D01*
X88240509Y-57138015D01*
X88312984Y-57012485D01*
X88350500Y-56872475D01*
X88350500Y-56727527D01*
X88599500Y-56727527D01*
X88599500Y-56872472D01*
X88599501Y-56872480D01*
X88637015Y-57012483D01*
X88637016Y-57012486D01*
X88677829Y-57083175D01*
X88709491Y-57138015D01*
X88811985Y-57240509D01*
X88937515Y-57312984D01*
X89077525Y-57350500D01*
X89077527Y-57350500D01*
X89222473Y-57350500D01*
X89222475Y-57350500D01*
X89362485Y-57312984D01*
X89488015Y-57240509D01*
X89590509Y-57138015D01*
X89662984Y-57012485D01*
X89693123Y-56900005D01*
X99000000Y-56900005D01*
X99000000Y-60999994D01*
X99000001Y-61000014D01*
X99017035Y-61129405D01*
X99017036Y-61129409D01*
X99066986Y-61249999D01*
X99066987Y-61250000D01*
X99146444Y-61353550D01*
X99146449Y-61353555D01*
X99249999Y-61433012D01*
X99250000Y-61433013D01*
X99370590Y-61482963D01*
X99370594Y-61482964D01*
X99493437Y-61499136D01*
X99500000Y-61500000D01*
X102499994Y-61500000D01*
X102500000Y-61500000D01*
X102540724Y-61494638D01*
X102629405Y-61482964D01*
X102629407Y-61482963D01*
X102629410Y-61482963D01*
X102695320Y-61455661D01*
X102733258Y-61439948D01*
X102739373Y-61437414D01*
X102750000Y-61433013D01*
X102853553Y-61353553D01*
X102933013Y-61250000D01*
X102982963Y-61129410D01*
X102990305Y-61073646D01*
X102999998Y-61000014D01*
X103000000Y-61000000D01*
X103000000Y-60027527D01*
X108484500Y-60027527D01*
X108484500Y-60172472D01*
X108484501Y-60172480D01*
X108522015Y-60312483D01*
X108522016Y-60312486D01*
X108551234Y-60363092D01*
X108594491Y-60438015D01*
X108696985Y-60540509D01*
X108822515Y-60612984D01*
X108962525Y-60650500D01*
X108962527Y-60650500D01*
X109107473Y-60650500D01*
X109107475Y-60650500D01*
X109247485Y-60612984D01*
X109373015Y-60540509D01*
X109475509Y-60438015D01*
X109547984Y-60312485D01*
X109585500Y-60172475D01*
X109585500Y-60027525D01*
X109547984Y-59887515D01*
X109475509Y-59761985D01*
X109373015Y-59659491D01*
X109360014Y-59651985D01*
X109247486Y-59587016D01*
X109247483Y-59587015D01*
X109107480Y-59549501D01*
X109107477Y-59549500D01*
X109107475Y-59549500D01*
X108962525Y-59549500D01*
X108962523Y-59549500D01*
X108962519Y-59549501D01*
X108822516Y-59587015D01*
X108822513Y-59587016D01*
X108696984Y-59659491D01*
X108594491Y-59761984D01*
X108522016Y-59887513D01*
X108522015Y-59887516D01*
X108484501Y-60027519D01*
X108484500Y-60027527D01*
X103000000Y-60027527D01*
X103000000Y-59077527D01*
X107499500Y-59077527D01*
X107499500Y-59222472D01*
X107499501Y-59222480D01*
X107537015Y-59362483D01*
X107537016Y-59362486D01*
X107560104Y-59402475D01*
X107609491Y-59488015D01*
X107711985Y-59590509D01*
X107837515Y-59662984D01*
X107977525Y-59700500D01*
X107977527Y-59700500D01*
X108122473Y-59700500D01*
X108122475Y-59700500D01*
X108262485Y-59662984D01*
X108388015Y-59590509D01*
X108490509Y-59488015D01*
X108562984Y-59362485D01*
X108600500Y-59222475D01*
X108600500Y-59077525D01*
X108600498Y-59077517D01*
X108592327Y-59047020D01*
X108588443Y-59032527D01*
X111149500Y-59032527D01*
X111149500Y-59177472D01*
X111149501Y-59177480D01*
X111187015Y-59317483D01*
X111187016Y-59317486D01*
X111212997Y-59362486D01*
X111259491Y-59443015D01*
X111361985Y-59545509D01*
X111487515Y-59617984D01*
X111627525Y-59655500D01*
X111627527Y-59655500D01*
X111772473Y-59655500D01*
X111772475Y-59655500D01*
X111912485Y-59617984D01*
X112038015Y-59545509D01*
X112140509Y-59443015D01*
X112212984Y-59317485D01*
X112250500Y-59177475D01*
X112250500Y-59032525D01*
X112212984Y-58892515D01*
X112140509Y-58766985D01*
X112038015Y-58664491D01*
X111990427Y-58637016D01*
X111912486Y-58592016D01*
X111912483Y-58592015D01*
X111772480Y-58554501D01*
X111772477Y-58554500D01*
X111772475Y-58554500D01*
X111627525Y-58554500D01*
X111627523Y-58554500D01*
X111627519Y-58554501D01*
X111487516Y-58592015D01*
X111487513Y-58592016D01*
X111361984Y-58664491D01*
X111259491Y-58766984D01*
X111187016Y-58892513D01*
X111187015Y-58892516D01*
X111149501Y-59032519D01*
X111149500Y-59032527D01*
X108588443Y-59032527D01*
X108562984Y-58937516D01*
X108562983Y-58937513D01*
X108506006Y-58838827D01*
X108490509Y-58811985D01*
X108388015Y-58709491D01*
X108341411Y-58682584D01*
X108262486Y-58637016D01*
X108262483Y-58637015D01*
X108122480Y-58599501D01*
X108122477Y-58599500D01*
X108122475Y-58599500D01*
X107977525Y-58599500D01*
X107977523Y-58599500D01*
X107977519Y-58599501D01*
X107837516Y-58637015D01*
X107837513Y-58637016D01*
X107711984Y-58709491D01*
X107609491Y-58811984D01*
X107537016Y-58937513D01*
X107537015Y-58937516D01*
X107499501Y-59077519D01*
X107499500Y-59077527D01*
X103000000Y-59077527D01*
X103000000Y-58072196D01*
X105894169Y-58072196D01*
X105894169Y-58217141D01*
X105894170Y-58217149D01*
X105931684Y-58357152D01*
X105931685Y-58357155D01*
X105936225Y-58365018D01*
X106004160Y-58482684D01*
X106106654Y-58585178D01*
X106232184Y-58657653D01*
X106372194Y-58695169D01*
X106372196Y-58695169D01*
X106517142Y-58695169D01*
X106517144Y-58695169D01*
X106657154Y-58657653D01*
X106782684Y-58585178D01*
X106885178Y-58482684D01*
X106957653Y-58357154D01*
X106995169Y-58217144D01*
X106995169Y-58072194D01*
X106957653Y-57932184D01*
X106885178Y-57806654D01*
X106782684Y-57704160D01*
X106764506Y-57693665D01*
X106657155Y-57631685D01*
X106657152Y-57631684D01*
X106517149Y-57594170D01*
X106517146Y-57594169D01*
X106517144Y-57594169D01*
X106372194Y-57594169D01*
X106372192Y-57594169D01*
X106372188Y-57594170D01*
X106232185Y-57631684D01*
X106232182Y-57631685D01*
X106106653Y-57704160D01*
X106004160Y-57806653D01*
X105931685Y-57932182D01*
X105931684Y-57932185D01*
X105894170Y-58072188D01*
X105894169Y-58072196D01*
X103000000Y-58072196D01*
X103000000Y-56900000D01*
X102982963Y-56770590D01*
X102933013Y-56650000D01*
X102885067Y-56587516D01*
X102853555Y-56546449D01*
X102853550Y-56546444D01*
X102750000Y-56466987D01*
X102749999Y-56466986D01*
X102629409Y-56417036D01*
X102629405Y-56417035D01*
X102500014Y-56400001D01*
X102500003Y-56400000D01*
X102500000Y-56400000D01*
X102499994Y-56400000D01*
X99500006Y-56400000D01*
X99500000Y-56400000D01*
X99499996Y-56400000D01*
X99499985Y-56400001D01*
X99370594Y-56417035D01*
X99370590Y-56417036D01*
X99250000Y-56466986D01*
X99249999Y-56466987D01*
X99146449Y-56546444D01*
X99146444Y-56546449D01*
X99066987Y-56649999D01*
X99066986Y-56650000D01*
X99017036Y-56770590D01*
X99017035Y-56770594D01*
X99000001Y-56899985D01*
X99000000Y-56900005D01*
X89693123Y-56900005D01*
X89700500Y-56872475D01*
X89700500Y-56727525D01*
X89662984Y-56587515D01*
X89590509Y-56461985D01*
X89488015Y-56359491D01*
X89362486Y-56287016D01*
X89362483Y-56287015D01*
X89222480Y-56249501D01*
X89222477Y-56249500D01*
X89222475Y-56249500D01*
X89077525Y-56249500D01*
X89077523Y-56249500D01*
X89077519Y-56249501D01*
X88937516Y-56287015D01*
X88937513Y-56287016D01*
X88811984Y-56359491D01*
X88709491Y-56461984D01*
X88637016Y-56587513D01*
X88637015Y-56587516D01*
X88599501Y-56727519D01*
X88599500Y-56727527D01*
X88350500Y-56727527D01*
X88350500Y-56727525D01*
X88312984Y-56587515D01*
X88240509Y-56461985D01*
X88138015Y-56359491D01*
X88012486Y-56287016D01*
X88012483Y-56287015D01*
X87872480Y-56249501D01*
X87872477Y-56249500D01*
X87872475Y-56249500D01*
X87727525Y-56249500D01*
X87727523Y-56249500D01*
X87727519Y-56249501D01*
X87587516Y-56287015D01*
X87587513Y-56287016D01*
X87461984Y-56359491D01*
X87359491Y-56461984D01*
X87287016Y-56587513D01*
X87287015Y-56587516D01*
X87249501Y-56727519D01*
X87249500Y-56727527D01*
X84777794Y-56727527D01*
X84775025Y-56726116D01*
X84775021Y-56726115D01*
X84775018Y-56726113D01*
X84587829Y-56665291D01*
X84393418Y-56634500D01*
X84393417Y-56634500D01*
X84196583Y-56634500D01*
X84196582Y-56634500D01*
X84002170Y-56665291D01*
X83814981Y-56726113D01*
X83814975Y-56726115D01*
X83814975Y-56726116D01*
X83812210Y-56727525D01*
X83689199Y-56790201D01*
X83638278Y-56796453D01*
X83595252Y-56768511D01*
X83580253Y-56719449D01*
X83594472Y-56679294D01*
X83644524Y-56610405D01*
X83733884Y-56435025D01*
X83794709Y-56247826D01*
X83825500Y-56053417D01*
X83825500Y-55856583D01*
X83794709Y-55662174D01*
X83778564Y-55612486D01*
X83733886Y-55474981D01*
X83733885Y-55474980D01*
X83733884Y-55474975D01*
X83644524Y-55299595D01*
X83528828Y-55140354D01*
X83389646Y-55001172D01*
X83322692Y-54952527D01*
X87249500Y-54952527D01*
X87249500Y-55097472D01*
X87249501Y-55097480D01*
X87287015Y-55237483D01*
X87287016Y-55237486D01*
X87338997Y-55327519D01*
X87359491Y-55363015D01*
X87461985Y-55465509D01*
X87587515Y-55537984D01*
X87727525Y-55575500D01*
X87727527Y-55575500D01*
X87872473Y-55575500D01*
X87872475Y-55575500D01*
X88012485Y-55537984D01*
X88138015Y-55465509D01*
X88240509Y-55363015D01*
X88312984Y-55237485D01*
X88350500Y-55097475D01*
X88350500Y-54952525D01*
X88350498Y-54952517D01*
X88347686Y-54942020D01*
X88343802Y-54927527D01*
X94599500Y-54927527D01*
X94599500Y-55072472D01*
X94599501Y-55072480D01*
X94637015Y-55212483D01*
X94637016Y-55212486D01*
X94687309Y-55299595D01*
X94709491Y-55338015D01*
X94811985Y-55440509D01*
X94937515Y-55512984D01*
X94988383Y-55526614D01*
X95082274Y-55551773D01*
X95081797Y-55553552D01*
X95120900Y-55573896D01*
X95140545Y-55621289D01*
X95140617Y-55624579D01*
X95140617Y-55697472D01*
X95140618Y-55697480D01*
X95178132Y-55837483D01*
X95178133Y-55837486D01*
X95243381Y-55950498D01*
X95250608Y-55963015D01*
X95353102Y-56065509D01*
X95478632Y-56137984D01*
X95618642Y-56175500D01*
X95618644Y-56175500D01*
X95763590Y-56175500D01*
X95763592Y-56175500D01*
X95903602Y-56137984D01*
X96029132Y-56065509D01*
X96131626Y-55963015D01*
X96204101Y-55837485D01*
X96241617Y-55697475D01*
X96241617Y-55552525D01*
X96204101Y-55412515D01*
X96131626Y-55286985D01*
X96029132Y-55184491D01*
X95903603Y-55112016D01*
X95903600Y-55112015D01*
X95758843Y-55073227D01*
X95759318Y-55071452D01*
X95720199Y-55051083D01*
X95700571Y-55003684D01*
X95700500Y-55000420D01*
X95700500Y-54927527D01*
X95700498Y-54927519D01*
X95699291Y-54923015D01*
X95662984Y-54787515D01*
X95590509Y-54661985D01*
X95488015Y-54559491D01*
X95407463Y-54512984D01*
X95362486Y-54487016D01*
X95362483Y-54487015D01*
X95222480Y-54449501D01*
X95222477Y-54449500D01*
X95222475Y-54449500D01*
X95077525Y-54449500D01*
X95077523Y-54449500D01*
X95077519Y-54449501D01*
X94937516Y-54487015D01*
X94937513Y-54487016D01*
X94811984Y-54559491D01*
X94709491Y-54661984D01*
X94637016Y-54787513D01*
X94637015Y-54787516D01*
X94599501Y-54927519D01*
X94599500Y-54927527D01*
X88343802Y-54927527D01*
X88312984Y-54812516D01*
X88312983Y-54812513D01*
X88293563Y-54778876D01*
X88240509Y-54686985D01*
X88138015Y-54584491D01*
X88094714Y-54559491D01*
X88012486Y-54512016D01*
X88012483Y-54512015D01*
X87872480Y-54474501D01*
X87872477Y-54474500D01*
X87872475Y-54474500D01*
X87727525Y-54474500D01*
X87727523Y-54474500D01*
X87727519Y-54474501D01*
X87587516Y-54512015D01*
X87587513Y-54512016D01*
X87461984Y-54584491D01*
X87359491Y-54686984D01*
X87287016Y-54812513D01*
X87287015Y-54812516D01*
X87249501Y-54952519D01*
X87249500Y-54952527D01*
X83322692Y-54952527D01*
X83232525Y-54887016D01*
X83230404Y-54885475D01*
X83149030Y-54844013D01*
X83055025Y-54796116D01*
X83055021Y-54796115D01*
X83055018Y-54796113D01*
X82867829Y-54735291D01*
X82673418Y-54704500D01*
X82673417Y-54704500D01*
X82476583Y-54704500D01*
X82476582Y-54704500D01*
X82282170Y-54735291D01*
X82094981Y-54796113D01*
X81919595Y-54885475D01*
X81760355Y-55001171D01*
X81760353Y-55001172D01*
X81621172Y-55140353D01*
X81621171Y-55140355D01*
X81505475Y-55299595D01*
X81416113Y-55474981D01*
X81355291Y-55662170D01*
X81324500Y-55856582D01*
X76960176Y-55856582D01*
X76988015Y-55840509D01*
X77090509Y-55738015D01*
X77162984Y-55612485D01*
X77200500Y-55472475D01*
X77200500Y-55327525D01*
X77162984Y-55187515D01*
X77090509Y-55061985D01*
X76988015Y-54959491D01*
X76975936Y-54952517D01*
X76862486Y-54887016D01*
X76862483Y-54887015D01*
X76722480Y-54849501D01*
X76722477Y-54849500D01*
X76722475Y-54849500D01*
X76577525Y-54849500D01*
X76577523Y-54849500D01*
X76577519Y-54849501D01*
X76437516Y-54887015D01*
X76437513Y-54887016D01*
X76311984Y-54959491D01*
X76209491Y-55061984D01*
X76137016Y-55187513D01*
X76137015Y-55187516D01*
X76099501Y-55327519D01*
X76099500Y-55327527D01*
X75521445Y-55327527D01*
X75554481Y-55081117D01*
X75554909Y-55078335D01*
X75653460Y-54512527D01*
X80379500Y-54512527D01*
X80379500Y-54657472D01*
X80379501Y-54657480D01*
X80417015Y-54797483D01*
X80417016Y-54797486D01*
X80467817Y-54885475D01*
X80489491Y-54923015D01*
X80591985Y-55025509D01*
X80717515Y-55097984D01*
X80857525Y-55135500D01*
X80857527Y-55135500D01*
X81002473Y-55135500D01*
X81002475Y-55135500D01*
X81142485Y-55097984D01*
X81268015Y-55025509D01*
X81370509Y-54923015D01*
X81442984Y-54797485D01*
X81480500Y-54657475D01*
X81480500Y-54512525D01*
X81442984Y-54372515D01*
X81370509Y-54246985D01*
X81268993Y-54145469D01*
X81247311Y-54098973D01*
X81260590Y-54049418D01*
X81270074Y-54039520D01*
X81269539Y-54038985D01*
X81295541Y-54012983D01*
X81375509Y-53933015D01*
X81447984Y-53807485D01*
X81485500Y-53667475D01*
X81485500Y-53522525D01*
X81460045Y-53427527D01*
X95380647Y-53427527D01*
X95380647Y-53572472D01*
X95380648Y-53572480D01*
X95418162Y-53712483D01*
X95418163Y-53712486D01*
X95490638Y-53838015D01*
X95593132Y-53940509D01*
X95718662Y-54012984D01*
X95858672Y-54050500D01*
X95858674Y-54050500D01*
X96003620Y-54050500D01*
X96003622Y-54050500D01*
X96143632Y-54012984D01*
X96269162Y-53940509D01*
X96282144Y-53927527D01*
X98599500Y-53927527D01*
X98599500Y-54072472D01*
X98599501Y-54072480D01*
X98637015Y-54212483D01*
X98637016Y-54212486D01*
X98709491Y-54338015D01*
X98811985Y-54440509D01*
X98827558Y-54449500D01*
X98936709Y-54512519D01*
X98937515Y-54512984D01*
X99077525Y-54550500D01*
X99077527Y-54550500D01*
X99222473Y-54550500D01*
X99222475Y-54550500D01*
X99362485Y-54512984D01*
X99488015Y-54440509D01*
X99510224Y-54418299D01*
X99556716Y-54396618D01*
X99606272Y-54409894D01*
X99628207Y-54433830D01*
X99659491Y-54488015D01*
X99761985Y-54590509D01*
X99853818Y-54643529D01*
X99885784Y-54661985D01*
X99887515Y-54662984D01*
X100027525Y-54700500D01*
X100027527Y-54700500D01*
X100172473Y-54700500D01*
X100172475Y-54700500D01*
X100312485Y-54662984D01*
X100438015Y-54590509D01*
X100540509Y-54488015D01*
X100612984Y-54362485D01*
X100650500Y-54222475D01*
X100650500Y-54077525D01*
X100612984Y-53937515D01*
X100607217Y-53927527D01*
X100540508Y-53811984D01*
X100438015Y-53709491D01*
X100312486Y-53637016D01*
X100312483Y-53637015D01*
X100172480Y-53599501D01*
X100172477Y-53599500D01*
X100172475Y-53599500D01*
X100027525Y-53599500D01*
X100027523Y-53599500D01*
X100027519Y-53599501D01*
X99887516Y-53637015D01*
X99887513Y-53637016D01*
X99761983Y-53709491D01*
X99739773Y-53731701D01*
X99693276Y-53753381D01*
X99643721Y-53740101D01*
X99621791Y-53716167D01*
X99590509Y-53661985D01*
X99488015Y-53559491D01*
X99423992Y-53522527D01*
X99362486Y-53487016D01*
X99362483Y-53487015D01*
X99222480Y-53449501D01*
X99222477Y-53449500D01*
X99222475Y-53449500D01*
X99077525Y-53449500D01*
X99077523Y-53449500D01*
X99077519Y-53449501D01*
X98937516Y-53487015D01*
X98937513Y-53487016D01*
X98811984Y-53559491D01*
X98709491Y-53661984D01*
X98637016Y-53787513D01*
X98637015Y-53787516D01*
X98599501Y-53927519D01*
X98599500Y-53927527D01*
X96282144Y-53927527D01*
X96371656Y-53838015D01*
X96444131Y-53712485D01*
X96481647Y-53572475D01*
X96481647Y-53427525D01*
X96444131Y-53287515D01*
X96371656Y-53161985D01*
X96269162Y-53059491D01*
X96243197Y-53044500D01*
X96143633Y-52987016D01*
X96143630Y-52987015D01*
X96003627Y-52949501D01*
X96003624Y-52949500D01*
X96003622Y-52949500D01*
X95858672Y-52949500D01*
X95858670Y-52949500D01*
X95858666Y-52949501D01*
X95718663Y-52987015D01*
X95718660Y-52987016D01*
X95593131Y-53059491D01*
X95490638Y-53161984D01*
X95418163Y-53287513D01*
X95418162Y-53287516D01*
X95380648Y-53427519D01*
X95380647Y-53427527D01*
X81460045Y-53427527D01*
X81447984Y-53382515D01*
X81375509Y-53256985D01*
X81273015Y-53154491D01*
X81147486Y-53082016D01*
X81147483Y-53082015D01*
X81007480Y-53044501D01*
X81007477Y-53044500D01*
X81007475Y-53044500D01*
X80862525Y-53044500D01*
X80862523Y-53044500D01*
X80862519Y-53044501D01*
X80722516Y-53082015D01*
X80722513Y-53082016D01*
X80596984Y-53154491D01*
X80494491Y-53256984D01*
X80422016Y-53382513D01*
X80422015Y-53382516D01*
X80384501Y-53522519D01*
X80384500Y-53522527D01*
X80384500Y-53667472D01*
X80384501Y-53667480D01*
X80422015Y-53807483D01*
X80422016Y-53807486D01*
X80494491Y-53933015D01*
X80596006Y-54034530D01*
X80617688Y-54081026D01*
X80604409Y-54130581D01*
X80594934Y-54140488D01*
X80595461Y-54141015D01*
X80489491Y-54246984D01*
X80417016Y-54372513D01*
X80417015Y-54372516D01*
X80379501Y-54512519D01*
X80379500Y-54512527D01*
X75653460Y-54512527D01*
X75727462Y-54087658D01*
X75728020Y-54084793D01*
X75939224Y-53101693D01*
X75939874Y-53098930D01*
X76049111Y-52672527D01*
X105104500Y-52672527D01*
X105104500Y-52817472D01*
X105104501Y-52817480D01*
X105142015Y-52957483D01*
X105142016Y-52957486D01*
X105187902Y-53036962D01*
X105214491Y-53083015D01*
X105316985Y-53185509D01*
X105408876Y-53238563D01*
X105440784Y-53256985D01*
X105442515Y-53257984D01*
X105582525Y-53295500D01*
X105582527Y-53295500D01*
X105727473Y-53295500D01*
X105727475Y-53295500D01*
X105867485Y-53257984D01*
X105993015Y-53185509D01*
X106095509Y-53083015D01*
X106119178Y-53042016D01*
X106125761Y-53032423D01*
X106136758Y-53018802D01*
X106375681Y-52563000D01*
X106389070Y-52544793D01*
X111834398Y-47099467D01*
X111849236Y-47092547D01*
X111861779Y-47082023D01*
X111877902Y-47079180D01*
X111880894Y-47077785D01*
X111887431Y-47077500D01*
X112039360Y-47077500D01*
X112061709Y-47080906D01*
X112552952Y-47234262D01*
X112552977Y-47234269D01*
X112565478Y-47237825D01*
X112566360Y-47238051D01*
X112566644Y-47238124D01*
X112579615Y-47241101D01*
X112582852Y-47241111D01*
X112602017Y-47243665D01*
X112627525Y-47250500D01*
X112627527Y-47250500D01*
X112772473Y-47250500D01*
X112772475Y-47250500D01*
X112912485Y-47212984D01*
X113038015Y-47140509D01*
X113140509Y-47038015D01*
X113212984Y-46912485D01*
X113250500Y-46772475D01*
X113250500Y-46627525D01*
X113212984Y-46487515D01*
X113140509Y-46361985D01*
X113038015Y-46259491D01*
X112957463Y-46212984D01*
X112912486Y-46187016D01*
X112912483Y-46187015D01*
X112772480Y-46149501D01*
X112772477Y-46149500D01*
X112772475Y-46149500D01*
X112627525Y-46149500D01*
X112627524Y-46149500D01*
X112581816Y-46161746D01*
X112570369Y-46163877D01*
X112552959Y-46165735D01*
X112401606Y-46212984D01*
X112164463Y-46287015D01*
X112061707Y-46319093D01*
X112039357Y-46322500D01*
X111749699Y-46322500D01*
X111650301Y-46322500D01*
X111650299Y-46322500D01*
X111650295Y-46322501D01*
X111554292Y-46348225D01*
X111554290Y-46348225D01*
X111554290Y-46348226D01*
X111534779Y-46359491D01*
X111468208Y-46397926D01*
X111239842Y-46626291D01*
X111193345Y-46647973D01*
X111143791Y-46634694D01*
X111114365Y-46592671D01*
X111112984Y-46587515D01*
X111040509Y-46461985D01*
X110938015Y-46359491D01*
X110868044Y-46319093D01*
X110812486Y-46287016D01*
X110812483Y-46287015D01*
X110672480Y-46249501D01*
X110672477Y-46249500D01*
X110672475Y-46249500D01*
X110527525Y-46249500D01*
X110527523Y-46249500D01*
X110527519Y-46249501D01*
X110387516Y-46287015D01*
X110387513Y-46287016D01*
X110287500Y-46344759D01*
X110236976Y-46353668D01*
X110212500Y-46344759D01*
X110112486Y-46287016D01*
X110112483Y-46287015D01*
X109972480Y-46249501D01*
X109972477Y-46249500D01*
X109972475Y-46249500D01*
X109827525Y-46249500D01*
X109827523Y-46249500D01*
X109827519Y-46249501D01*
X109687516Y-46287015D01*
X109687513Y-46287016D01*
X109587500Y-46344759D01*
X109536976Y-46353668D01*
X109512500Y-46344759D01*
X109412486Y-46287016D01*
X109412483Y-46287015D01*
X109272480Y-46249501D01*
X109272477Y-46249500D01*
X109272475Y-46249500D01*
X109127525Y-46249500D01*
X109127523Y-46249500D01*
X109127519Y-46249501D01*
X108987516Y-46287015D01*
X108987513Y-46287016D01*
X108861984Y-46359491D01*
X108759491Y-46461984D01*
X108687016Y-46587513D01*
X108687015Y-46587516D01*
X108649501Y-46727519D01*
X108649500Y-46727527D01*
X108649500Y-46872472D01*
X108649501Y-46872480D01*
X108687015Y-47012483D01*
X108687016Y-47012486D01*
X108744759Y-47112500D01*
X108753668Y-47163024D01*
X108744759Y-47187500D01*
X108687016Y-47287513D01*
X108687015Y-47287516D01*
X108649501Y-47427519D01*
X108649500Y-47427527D01*
X108649500Y-47572472D01*
X108649501Y-47572480D01*
X108687015Y-47712483D01*
X108687016Y-47712486D01*
X108734219Y-47794243D01*
X108759491Y-47838015D01*
X108861985Y-47940509D01*
X108987515Y-48012984D01*
X109127525Y-48050500D01*
X109127527Y-48050500D01*
X109272473Y-48050500D01*
X109272475Y-48050500D01*
X109412485Y-48012984D01*
X109512500Y-47955239D01*
X109536796Y-47950955D01*
X109560943Y-47945995D01*
X109562283Y-47946461D01*
X109563023Y-47946331D01*
X109585660Y-47954212D01*
X109586586Y-47954713D01*
X109687515Y-48012984D01*
X109701175Y-48016644D01*
X109708918Y-48020829D01*
X109720458Y-48033822D01*
X109734692Y-48043788D01*
X109737018Y-48052467D01*
X109742986Y-48059187D01*
X109743474Y-48076556D01*
X109747973Y-48093342D01*
X109744175Y-48101487D01*
X109744428Y-48110470D01*
X109733637Y-48124088D01*
X109726294Y-48139840D01*
X109726291Y-48139842D01*
X105855213Y-52010920D01*
X105837000Y-52024314D01*
X105381194Y-52263242D01*
X105369418Y-52269816D01*
X105368419Y-52270409D01*
X105357546Y-52277235D01*
X105355226Y-52279539D01*
X105339882Y-52291270D01*
X105316985Y-52304490D01*
X105214491Y-52406984D01*
X105142016Y-52532513D01*
X105142015Y-52532516D01*
X105104501Y-52672519D01*
X105104500Y-52672527D01*
X76049111Y-52672527D01*
X76189432Y-52124791D01*
X76190197Y-52122033D01*
X76339235Y-51622527D01*
X81574500Y-51622527D01*
X81574500Y-51767472D01*
X81574501Y-51767480D01*
X81612015Y-51907483D01*
X81612016Y-51907486D01*
X81618912Y-51919430D01*
X81684491Y-52033015D01*
X81786985Y-52135509D01*
X81912515Y-52207984D01*
X82052525Y-52245500D01*
X82052527Y-52245500D01*
X82197473Y-52245500D01*
X82197475Y-52245500D01*
X82337485Y-52207984D01*
X82463015Y-52135509D01*
X82565509Y-52033015D01*
X82637984Y-51907485D01*
X82675500Y-51767475D01*
X82675500Y-51622525D01*
X82637984Y-51482515D01*
X82565509Y-51356985D01*
X82463015Y-51254491D01*
X82416087Y-51227397D01*
X82407652Y-51222527D01*
X94609500Y-51222527D01*
X94609500Y-51367472D01*
X94609501Y-51367480D01*
X94647015Y-51507483D01*
X94647016Y-51507486D01*
X94713431Y-51622519D01*
X94719491Y-51633015D01*
X94821985Y-51735509D01*
X94947515Y-51807984D01*
X95087525Y-51845500D01*
X95087527Y-51845500D01*
X95232474Y-51845500D01*
X95232475Y-51845500D01*
X95232475Y-51845499D01*
X95237352Y-51844858D01*
X95237502Y-51846003D01*
X95283404Y-51850018D01*
X95319682Y-51886293D01*
X95325952Y-51914573D01*
X95326069Y-51914558D01*
X95326244Y-51915894D01*
X95326710Y-51917992D01*
X95326710Y-51919427D01*
X95326711Y-51919435D01*
X95364225Y-52059438D01*
X95364226Y-52059441D01*
X95436701Y-52184970D01*
X95539195Y-52287464D01*
X95664725Y-52359939D01*
X95804735Y-52397455D01*
X95804737Y-52397455D01*
X95949683Y-52397455D01*
X95949685Y-52397455D01*
X96089695Y-52359939D01*
X96215225Y-52287464D01*
X96317719Y-52184970D01*
X96390194Y-52059440D01*
X96427710Y-51919430D01*
X96427710Y-51774480D01*
X96390194Y-51634470D01*
X96317719Y-51508940D01*
X96215225Y-51406446D01*
X96089696Y-51333971D01*
X96089693Y-51333970D01*
X95949690Y-51296456D01*
X95949687Y-51296455D01*
X95949685Y-51296455D01*
X95804735Y-51296455D01*
X95804733Y-51296455D01*
X95799860Y-51297097D01*
X95799709Y-51295952D01*
X95753803Y-51291936D01*
X95717527Y-51255658D01*
X95711257Y-51227381D01*
X95711141Y-51227397D01*
X95710965Y-51226061D01*
X95710500Y-51223963D01*
X95710500Y-51222527D01*
X95710498Y-51222519D01*
X95699645Y-51182016D01*
X95672984Y-51082515D01*
X95600509Y-50956985D01*
X95498015Y-50854491D01*
X95433919Y-50817485D01*
X95372486Y-50782016D01*
X95372483Y-50782015D01*
X95232480Y-50744501D01*
X95232477Y-50744500D01*
X95232475Y-50744500D01*
X95087525Y-50744500D01*
X95087523Y-50744500D01*
X95087519Y-50744501D01*
X94947516Y-50782015D01*
X94947513Y-50782016D01*
X94821984Y-50854491D01*
X94719491Y-50956984D01*
X94647016Y-51082513D01*
X94647015Y-51082516D01*
X94609501Y-51222519D01*
X94609500Y-51222527D01*
X82407652Y-51222527D01*
X82337486Y-51182016D01*
X82337483Y-51182015D01*
X82197480Y-51144501D01*
X82197477Y-51144500D01*
X82197475Y-51144500D01*
X82052525Y-51144500D01*
X82052523Y-51144500D01*
X82052519Y-51144501D01*
X81912516Y-51182015D01*
X81912513Y-51182016D01*
X81786984Y-51254491D01*
X81684491Y-51356984D01*
X81612016Y-51482513D01*
X81612015Y-51482516D01*
X81574501Y-51622519D01*
X81574500Y-51622527D01*
X76339235Y-51622527D01*
X76477708Y-51158429D01*
X76478570Y-51155734D01*
X76691430Y-50532527D01*
X79884500Y-50532527D01*
X79884500Y-50677472D01*
X79884501Y-50677480D01*
X79922015Y-50817483D01*
X79922016Y-50817486D01*
X79943381Y-50854491D01*
X79994491Y-50943015D01*
X80096985Y-51045509D01*
X80222515Y-51117984D01*
X80362525Y-51155500D01*
X80362527Y-51155500D01*
X80507473Y-51155500D01*
X80507475Y-51155500D01*
X80647485Y-51117984D01*
X80773015Y-51045509D01*
X80875509Y-50943015D01*
X80947984Y-50817485D01*
X80985500Y-50677475D01*
X80985500Y-50532525D01*
X80947984Y-50392515D01*
X80875509Y-50266985D01*
X80773015Y-50164491D01*
X80748782Y-50150500D01*
X80647486Y-50092016D01*
X80647483Y-50092015D01*
X80507480Y-50054501D01*
X80507477Y-50054500D01*
X80507475Y-50054500D01*
X80362525Y-50054500D01*
X80362523Y-50054500D01*
X80362519Y-50054501D01*
X80222516Y-50092015D01*
X80222513Y-50092016D01*
X80096984Y-50164491D01*
X79994491Y-50266984D01*
X79922016Y-50392513D01*
X79922015Y-50392516D01*
X79884501Y-50532519D01*
X79884500Y-50532527D01*
X76691430Y-50532527D01*
X76803596Y-50204130D01*
X76804580Y-50201425D01*
X77064646Y-49527527D01*
X98799500Y-49527527D01*
X98799500Y-49672472D01*
X98799501Y-49672480D01*
X98837015Y-49812483D01*
X98837016Y-49812486D01*
X98845429Y-49827057D01*
X98909491Y-49938015D01*
X99011985Y-50040509D01*
X99137515Y-50112984D01*
X99277525Y-50150500D01*
X99277527Y-50150500D01*
X99422473Y-50150500D01*
X99422475Y-50150500D01*
X99562485Y-50112984D01*
X99688015Y-50040509D01*
X99790509Y-49938015D01*
X99862984Y-49812485D01*
X99900500Y-49672475D01*
X99900500Y-49527525D01*
X99862984Y-49387515D01*
X99790509Y-49261985D01*
X99688015Y-49159491D01*
X99629143Y-49125501D01*
X99562486Y-49087016D01*
X99562483Y-49087015D01*
X99422480Y-49049501D01*
X99422477Y-49049500D01*
X99422475Y-49049500D01*
X99277525Y-49049500D01*
X99277523Y-49049500D01*
X99277519Y-49049501D01*
X99137516Y-49087015D01*
X99137513Y-49087016D01*
X99011984Y-49159491D01*
X98909491Y-49261984D01*
X98837016Y-49387513D01*
X98837015Y-49387516D01*
X98799501Y-49527519D01*
X98799500Y-49527527D01*
X77064646Y-49527527D01*
X77166614Y-49263303D01*
X77167700Y-49260645D01*
X77566194Y-48337423D01*
X77567373Y-48334830D01*
X78001738Y-47427877D01*
X78003030Y-47425311D01*
X78472550Y-46536119D01*
X78473947Y-46533594D01*
X78977925Y-45663478D01*
X78979442Y-45660975D01*
X79000612Y-45627519D01*
X79257885Y-45220931D01*
X80354500Y-45220931D01*
X80354500Y-45349069D01*
X80379499Y-45474744D01*
X80428535Y-45593127D01*
X80499724Y-45699669D01*
X80499726Y-45699671D01*
X80517022Y-45716967D01*
X80538704Y-45763463D01*
X80525425Y-45813018D01*
X80517022Y-45823033D01*
X80499726Y-45840328D01*
X80499724Y-45840331D01*
X80428534Y-45946874D01*
X80379499Y-46065255D01*
X80354500Y-46190930D01*
X80354500Y-46319069D01*
X80379499Y-46444744D01*
X80397214Y-46487513D01*
X80428535Y-46563127D01*
X80499724Y-46669669D01*
X80590331Y-46760276D01*
X80696873Y-46831465D01*
X80815256Y-46880501D01*
X80915931Y-46900527D01*
X80940930Y-46905500D01*
X80940931Y-46905500D01*
X81069070Y-46905500D01*
X81089921Y-46901352D01*
X81194744Y-46880501D01*
X81313127Y-46831465D01*
X81419669Y-46760276D01*
X81452418Y-46727527D01*
X106249500Y-46727527D01*
X106249500Y-46872472D01*
X106249501Y-46872480D01*
X106287015Y-47012483D01*
X106287016Y-47012486D01*
X106327164Y-47082023D01*
X106359491Y-47138015D01*
X106461985Y-47240509D01*
X106587515Y-47312984D01*
X106727525Y-47350500D01*
X106727527Y-47350500D01*
X106872473Y-47350500D01*
X106872475Y-47350500D01*
X107012485Y-47312984D01*
X107138015Y-47240509D01*
X107141066Y-47237457D01*
X107187560Y-47215773D01*
X107237116Y-47229047D01*
X107266545Y-47271070D01*
X107263396Y-47319180D01*
X107262017Y-47322510D01*
X107224501Y-47462519D01*
X107224500Y-47462527D01*
X107224500Y-47607472D01*
X107224501Y-47607480D01*
X107262015Y-47747483D01*
X107263898Y-47752029D01*
X107261479Y-47753030D01*
X107268732Y-47794243D01*
X107243067Y-47838665D01*
X107209509Y-47854755D01*
X107110254Y-47874499D01*
X106991874Y-47923534D01*
X106885331Y-47994724D01*
X106885328Y-47994726D01*
X106794726Y-48085328D01*
X106794724Y-48085331D01*
X106723534Y-48191874D01*
X106674499Y-48310255D01*
X106669087Y-48337465D01*
X106649500Y-48435931D01*
X106649500Y-48564069D01*
X106674499Y-48689744D01*
X106723535Y-48808127D01*
X106794724Y-48914669D01*
X106885331Y-49005276D01*
X106991873Y-49076465D01*
X107110256Y-49125501D01*
X107210931Y-49145527D01*
X107235930Y-49150500D01*
X107235931Y-49150500D01*
X107364070Y-49150500D01*
X107384921Y-49146352D01*
X107489744Y-49125501D01*
X107608127Y-49076465D01*
X107714669Y-49005276D01*
X107805276Y-48914669D01*
X107876465Y-48808127D01*
X107925501Y-48689744D01*
X107950500Y-48564069D01*
X107950500Y-48435931D01*
X107925501Y-48310256D01*
X107876465Y-48191873D01*
X107869926Y-48182087D01*
X107857732Y-48132257D01*
X107880421Y-48086244D01*
X107912875Y-48067976D01*
X107987481Y-48047985D01*
X107987480Y-48047985D01*
X107987485Y-48047984D01*
X108113015Y-47975509D01*
X108215509Y-47873015D01*
X108287984Y-47747485D01*
X108325500Y-47607475D01*
X108325500Y-47462525D01*
X108287984Y-47322515D01*
X108215509Y-47196985D01*
X108113015Y-47094491D01*
X108086496Y-47079180D01*
X107987486Y-47022016D01*
X107987483Y-47022015D01*
X107847480Y-46984501D01*
X107847477Y-46984500D01*
X107847475Y-46984500D01*
X107702525Y-46984500D01*
X107702523Y-46984500D01*
X107702519Y-46984501D01*
X107562516Y-47022015D01*
X107562513Y-47022016D01*
X107436983Y-47094492D01*
X107433926Y-47097549D01*
X107387428Y-47119227D01*
X107337874Y-47105945D01*
X107308451Y-47063918D01*
X107311607Y-47015808D01*
X107312983Y-47012486D01*
X107312984Y-47012485D01*
X107350500Y-46872475D01*
X107350500Y-46727525D01*
X107312984Y-46587515D01*
X107240509Y-46461985D01*
X107138015Y-46359491D01*
X107068044Y-46319093D01*
X107012486Y-46287016D01*
X107012483Y-46287015D01*
X106872480Y-46249501D01*
X106872477Y-46249500D01*
X106872475Y-46249500D01*
X106727525Y-46249500D01*
X106727523Y-46249500D01*
X106727519Y-46249501D01*
X106587516Y-46287015D01*
X106587513Y-46287016D01*
X106461984Y-46359491D01*
X106359491Y-46461984D01*
X106287016Y-46587513D01*
X106287015Y-46587516D01*
X106249501Y-46727519D01*
X106249500Y-46727527D01*
X81452418Y-46727527D01*
X81510276Y-46669669D01*
X81581465Y-46563127D01*
X81630501Y-46444744D01*
X81655500Y-46319069D01*
X81655500Y-46190931D01*
X81654435Y-46185579D01*
X81645470Y-46140508D01*
X81630501Y-46065256D01*
X81581465Y-45946873D01*
X81510276Y-45840331D01*
X81492978Y-45823033D01*
X81471296Y-45776537D01*
X81484575Y-45726982D01*
X81492978Y-45716967D01*
X81510276Y-45699669D01*
X81558480Y-45627527D01*
X87349500Y-45627527D01*
X87349500Y-45772472D01*
X87349501Y-45772480D01*
X87387015Y-45912483D01*
X87387016Y-45912486D01*
X87459491Y-46038015D01*
X87561985Y-46140509D01*
X87687515Y-46212984D01*
X87827525Y-46250500D01*
X87827527Y-46250500D01*
X87972473Y-46250500D01*
X87972475Y-46250500D01*
X88112485Y-46212984D01*
X88238015Y-46140509D01*
X88340509Y-46038015D01*
X88412984Y-45912485D01*
X88450500Y-45772475D01*
X88450500Y-45627525D01*
X88412984Y-45487515D01*
X88405609Y-45474742D01*
X88393563Y-45453876D01*
X88340509Y-45361985D01*
X88238015Y-45259491D01*
X88222439Y-45250498D01*
X88112486Y-45187016D01*
X88112483Y-45187015D01*
X87972480Y-45149501D01*
X87972477Y-45149500D01*
X87972475Y-45149500D01*
X87827525Y-45149500D01*
X87827523Y-45149500D01*
X87827519Y-45149501D01*
X87687516Y-45187015D01*
X87687513Y-45187016D01*
X87561984Y-45259491D01*
X87459491Y-45361984D01*
X87387016Y-45487513D01*
X87387015Y-45487516D01*
X87349501Y-45627519D01*
X87349500Y-45627527D01*
X81558480Y-45627527D01*
X81581465Y-45593127D01*
X81630501Y-45474744D01*
X81655500Y-45349069D01*
X81655500Y-45220931D01*
X81654880Y-45217816D01*
X81648754Y-45187016D01*
X81630501Y-45095256D01*
X81581465Y-44976873D01*
X81510276Y-44870331D01*
X81419669Y-44779724D01*
X81313127Y-44708535D01*
X81272965Y-44691899D01*
X81194744Y-44659499D01*
X81069070Y-44634500D01*
X81069069Y-44634500D01*
X80940931Y-44634500D01*
X80940930Y-44634500D01*
X80815255Y-44659499D01*
X80696874Y-44708534D01*
X80590331Y-44779724D01*
X80590328Y-44779726D01*
X80499726Y-44870328D01*
X80499724Y-44870331D01*
X80428534Y-44976874D01*
X80379499Y-45095255D01*
X80355120Y-45217816D01*
X80354500Y-45220931D01*
X79257885Y-45220931D01*
X79517106Y-44811266D01*
X79518690Y-44808868D01*
X79643642Y-44627527D01*
X86399500Y-44627527D01*
X86399500Y-44772472D01*
X86399501Y-44772480D01*
X86437015Y-44912483D01*
X86437016Y-44912486D01*
X86474191Y-44976874D01*
X86509491Y-45038015D01*
X86611985Y-45140509D01*
X86627558Y-45149500D01*
X86722792Y-45204484D01*
X86737515Y-45212984D01*
X86877525Y-45250500D01*
X86877527Y-45250500D01*
X87022473Y-45250500D01*
X87022475Y-45250500D01*
X87162485Y-45212984D01*
X87288015Y-45140509D01*
X87390509Y-45038015D01*
X87462984Y-44912485D01*
X87500500Y-44772475D01*
X87500500Y-44627525D01*
X87462984Y-44487515D01*
X87451888Y-44468297D01*
X87436985Y-44442483D01*
X87390509Y-44361985D01*
X87288015Y-44259491D01*
X87162486Y-44187016D01*
X87162483Y-44187015D01*
X87022480Y-44149501D01*
X87022477Y-44149500D01*
X87022475Y-44149500D01*
X86877525Y-44149500D01*
X86877523Y-44149500D01*
X86877519Y-44149501D01*
X86737516Y-44187015D01*
X86737513Y-44187016D01*
X86611984Y-44259491D01*
X86509491Y-44361984D01*
X86437016Y-44487513D01*
X86437015Y-44487516D01*
X86399501Y-44627519D01*
X86399500Y-44627527D01*
X79643642Y-44627527D01*
X80089233Y-43980845D01*
X80090915Y-43978503D01*
X80503291Y-43427527D01*
X87399500Y-43427527D01*
X87399500Y-43572472D01*
X87399501Y-43572480D01*
X87437015Y-43712483D01*
X87437016Y-43712486D01*
X87481476Y-43789492D01*
X87509491Y-43838015D01*
X87611985Y-43940509D01*
X87737515Y-44012984D01*
X87877525Y-44050500D01*
X87877527Y-44050500D01*
X88022473Y-44050500D01*
X88022475Y-44050500D01*
X88162485Y-44012984D01*
X88288015Y-43940509D01*
X88390509Y-43838015D01*
X88462984Y-43712485D01*
X88500500Y-43572475D01*
X88500500Y-43427525D01*
X88462984Y-43287515D01*
X88446197Y-43258440D01*
X88413892Y-43202485D01*
X88390509Y-43161985D01*
X88288015Y-43059491D01*
X88232652Y-43027527D01*
X90599500Y-43027527D01*
X90599500Y-43172472D01*
X90599501Y-43172480D01*
X90637015Y-43312483D01*
X90637016Y-43312486D01*
X90709491Y-43438015D01*
X90737058Y-43465582D01*
X90758740Y-43512078D01*
X90745461Y-43561633D01*
X90737058Y-43571648D01*
X90721421Y-43587284D01*
X90648946Y-43712813D01*
X90648945Y-43712816D01*
X90611431Y-43852819D01*
X90611430Y-43852827D01*
X90611430Y-43997772D01*
X90611431Y-43997780D01*
X90648945Y-44137783D01*
X90648946Y-44137786D01*
X90721421Y-44263315D01*
X90810551Y-44352445D01*
X90832233Y-44398941D01*
X90822470Y-44442978D01*
X90789314Y-44500405D01*
X90789313Y-44500408D01*
X90751799Y-44640411D01*
X90751798Y-44640419D01*
X90751798Y-44785364D01*
X90751799Y-44785372D01*
X90789313Y-44925375D01*
X90789314Y-44925378D01*
X90819045Y-44976873D01*
X90861789Y-45050907D01*
X90964283Y-45153401D01*
X91089813Y-45225876D01*
X91229823Y-45263392D01*
X91229825Y-45263392D01*
X91374771Y-45263392D01*
X91374773Y-45263392D01*
X91514783Y-45225876D01*
X91640313Y-45153401D01*
X91742807Y-45050907D01*
X91815282Y-44925377D01*
X91852798Y-44785367D01*
X91852798Y-44777527D01*
X92182500Y-44777527D01*
X92182500Y-44922472D01*
X92182501Y-44922480D01*
X92220015Y-45062483D01*
X92220016Y-45062486D01*
X92286214Y-45177143D01*
X92292491Y-45188015D01*
X92394985Y-45290509D01*
X92486876Y-45343563D01*
X92518784Y-45361985D01*
X92520515Y-45362984D01*
X92660525Y-45400500D01*
X92660527Y-45400500D01*
X92805473Y-45400500D01*
X92805475Y-45400500D01*
X92945485Y-45362984D01*
X93071015Y-45290509D01*
X93173509Y-45188015D01*
X93245984Y-45062485D01*
X93283500Y-44922475D01*
X93283500Y-44777527D01*
X96005647Y-44777527D01*
X96005647Y-44922472D01*
X96005648Y-44922480D01*
X96043162Y-45062483D01*
X96043163Y-45062486D01*
X96109361Y-45177143D01*
X96115638Y-45188015D01*
X96218132Y-45290509D01*
X96310023Y-45343563D01*
X96341931Y-45361985D01*
X96343662Y-45362984D01*
X96483672Y-45400500D01*
X96483674Y-45400500D01*
X96628620Y-45400500D01*
X96628622Y-45400500D01*
X96768632Y-45362984D01*
X96894162Y-45290509D01*
X96996656Y-45188015D01*
X97069131Y-45062485D01*
X97106647Y-44922475D01*
X97106647Y-44777525D01*
X97069131Y-44637515D01*
X97063364Y-44627527D01*
X96996655Y-44511984D01*
X96894162Y-44409491D01*
X96768633Y-44337016D01*
X96768630Y-44337015D01*
X96628627Y-44299501D01*
X96628624Y-44299500D01*
X96628622Y-44299500D01*
X96483672Y-44299500D01*
X96483670Y-44299500D01*
X96483666Y-44299501D01*
X96343663Y-44337015D01*
X96343660Y-44337016D01*
X96218131Y-44409491D01*
X96115638Y-44511984D01*
X96043163Y-44637513D01*
X96043162Y-44637516D01*
X96005648Y-44777519D01*
X96005647Y-44777527D01*
X93283500Y-44777527D01*
X93283500Y-44777525D01*
X93245984Y-44637515D01*
X93240217Y-44627527D01*
X93173508Y-44511984D01*
X93071015Y-44409491D01*
X92945486Y-44337016D01*
X92945483Y-44337015D01*
X92805480Y-44299501D01*
X92805477Y-44299500D01*
X92805475Y-44299500D01*
X92660525Y-44299500D01*
X92660523Y-44299500D01*
X92660519Y-44299501D01*
X92520516Y-44337015D01*
X92520513Y-44337016D01*
X92394984Y-44409491D01*
X92292491Y-44511984D01*
X92220016Y-44637513D01*
X92220015Y-44637516D01*
X92182501Y-44777519D01*
X92182500Y-44777527D01*
X91852798Y-44777527D01*
X91852798Y-44640417D01*
X91815282Y-44500407D01*
X91796741Y-44468294D01*
X91762791Y-44409491D01*
X91742807Y-44374877D01*
X91653676Y-44285746D01*
X91631994Y-44239250D01*
X91641758Y-44195212D01*
X91663520Y-44157519D01*
X91674914Y-44137785D01*
X91712430Y-43997775D01*
X91712430Y-43852825D01*
X91674914Y-43712815D01*
X91674723Y-43712485D01*
X91627221Y-43630209D01*
X91602439Y-43587285D01*
X91574872Y-43559718D01*
X91553190Y-43513222D01*
X91566469Y-43463667D01*
X91574872Y-43453652D01*
X91590509Y-43438015D01*
X91662984Y-43312485D01*
X91700500Y-43172475D01*
X91700500Y-43027525D01*
X91687548Y-42979187D01*
X91674910Y-42932021D01*
X91671026Y-42917527D01*
X92809500Y-42917527D01*
X92809500Y-43062472D01*
X92809501Y-43062480D01*
X92847015Y-43202483D01*
X92847016Y-43202486D01*
X92910525Y-43312485D01*
X92919491Y-43328015D01*
X93021985Y-43430509D01*
X93147515Y-43502984D01*
X93287525Y-43540500D01*
X93287527Y-43540500D01*
X93432473Y-43540500D01*
X93432475Y-43540500D01*
X93572485Y-43502984D01*
X93698015Y-43430509D01*
X93800509Y-43328015D01*
X93872984Y-43202485D01*
X93886370Y-43152527D01*
X97324500Y-43152527D01*
X97324500Y-43297472D01*
X97324501Y-43297480D01*
X97362015Y-43437483D01*
X97362016Y-43437486D01*
X97434491Y-43563015D01*
X97536984Y-43665508D01*
X97540230Y-43667999D01*
X97567795Y-43711268D01*
X97561097Y-43762132D01*
X97540230Y-43787001D01*
X97536984Y-43789491D01*
X97434491Y-43891984D01*
X97362016Y-44017513D01*
X97362015Y-44017516D01*
X97324501Y-44157519D01*
X97324500Y-44157527D01*
X97324500Y-44302472D01*
X97324501Y-44302480D01*
X97362015Y-44442483D01*
X97362016Y-44442486D01*
X97395456Y-44500405D01*
X97434491Y-44568015D01*
X97536985Y-44670509D01*
X97662515Y-44742984D01*
X97802525Y-44780500D01*
X97802527Y-44780500D01*
X97947473Y-44780500D01*
X97947475Y-44780500D01*
X98087485Y-44742984D01*
X98213015Y-44670509D01*
X98315509Y-44568015D01*
X98387984Y-44442485D01*
X98419907Y-44323349D01*
X101664500Y-44323349D01*
X101664500Y-44468294D01*
X101664501Y-44468302D01*
X101702015Y-44608305D01*
X101702016Y-44608308D01*
X101759882Y-44708534D01*
X101774491Y-44733837D01*
X101876985Y-44836331D01*
X102002515Y-44908806D01*
X102142525Y-44946322D01*
X102142527Y-44946322D01*
X102287473Y-44946322D01*
X102287475Y-44946322D01*
X102427485Y-44908806D01*
X102553015Y-44836331D01*
X102655509Y-44733837D01*
X102727984Y-44608307D01*
X102765500Y-44468297D01*
X102765500Y-44403713D01*
X103499500Y-44403713D01*
X103499500Y-44616286D01*
X103532754Y-44826247D01*
X103598440Y-45028405D01*
X103598442Y-45028408D01*
X103598443Y-45028412D01*
X103603336Y-45038015D01*
X103679764Y-45188015D01*
X103694949Y-45217816D01*
X103819896Y-45389792D01*
X103970208Y-45540104D01*
X104142184Y-45665051D01*
X104331588Y-45761557D01*
X104331593Y-45761558D01*
X104331594Y-45761559D01*
X104533752Y-45827245D01*
X104533755Y-45827245D01*
X104533757Y-45827246D01*
X104743713Y-45860500D01*
X104956287Y-45860500D01*
X105166243Y-45827246D01*
X105166245Y-45827245D01*
X105166247Y-45827245D01*
X105271768Y-45792958D01*
X105368412Y-45761557D01*
X105557816Y-45665051D01*
X105729792Y-45540104D01*
X105880104Y-45389792D01*
X106005051Y-45217816D01*
X106101557Y-45028412D01*
X106167246Y-44826243D01*
X106200500Y-44616287D01*
X106200500Y-44403713D01*
X106167246Y-44193757D01*
X106167245Y-44193755D01*
X106167245Y-44193752D01*
X106101559Y-43991594D01*
X106101558Y-43991593D01*
X106101557Y-43991588D01*
X106005051Y-43802184D01*
X105880104Y-43630208D01*
X105729792Y-43479896D01*
X105557816Y-43354949D01*
X105557817Y-43354949D01*
X105557815Y-43354948D01*
X105469936Y-43310172D01*
X105368412Y-43258443D01*
X105368408Y-43258442D01*
X105368405Y-43258440D01*
X105166247Y-43192754D01*
X104956287Y-43159500D01*
X104743713Y-43159500D01*
X104533752Y-43192754D01*
X104331594Y-43258440D01*
X104142184Y-43354948D01*
X103970209Y-43479895D01*
X103970207Y-43479896D01*
X103819896Y-43630207D01*
X103819895Y-43630209D01*
X103694948Y-43802184D01*
X103598440Y-43991594D01*
X103532754Y-44193752D01*
X103499500Y-44403713D01*
X102765500Y-44403713D01*
X102765500Y-44323347D01*
X102727984Y-44183337D01*
X102655509Y-44057807D01*
X102553015Y-43955313D01*
X102527372Y-43940508D01*
X102427486Y-43882838D01*
X102427483Y-43882837D01*
X102287480Y-43845323D01*
X102287477Y-43845322D01*
X102287475Y-43845322D01*
X102142525Y-43845322D01*
X102142523Y-43845322D01*
X102142519Y-43845323D01*
X102002516Y-43882837D01*
X102002513Y-43882838D01*
X101876984Y-43955313D01*
X101774491Y-44057806D01*
X101702016Y-44183335D01*
X101702015Y-44183338D01*
X101664501Y-44323341D01*
X101664500Y-44323349D01*
X98419907Y-44323349D01*
X98425498Y-44302484D01*
X98425500Y-44302472D01*
X98425500Y-44157527D01*
X98425498Y-44157519D01*
X98423349Y-44149500D01*
X98387984Y-44017515D01*
X98385367Y-44012983D01*
X98365448Y-43978481D01*
X98315509Y-43891985D01*
X98213015Y-43789491D01*
X98213013Y-43789490D01*
X98209773Y-43787004D01*
X98182206Y-43743737D01*
X98188900Y-43692872D01*
X98209773Y-43667996D01*
X98213008Y-43665512D01*
X98213015Y-43665509D01*
X98315509Y-43563015D01*
X98387984Y-43437485D01*
X98425500Y-43297475D01*
X98425500Y-43152525D01*
X98387984Y-43012515D01*
X98315509Y-42886985D01*
X98213015Y-42784491D01*
X98174032Y-42761984D01*
X98087486Y-42712016D01*
X98087483Y-42712015D01*
X97947480Y-42674501D01*
X97947477Y-42674500D01*
X97947475Y-42674500D01*
X97802525Y-42674500D01*
X97802523Y-42674500D01*
X97802519Y-42674501D01*
X97662516Y-42712015D01*
X97662513Y-42712016D01*
X97536984Y-42784491D01*
X97434491Y-42886984D01*
X97362016Y-43012513D01*
X97362015Y-43012516D01*
X97324501Y-43152519D01*
X97324500Y-43152527D01*
X93886370Y-43152527D01*
X93910500Y-43062475D01*
X93910500Y-42917525D01*
X93872984Y-42777515D01*
X93800509Y-42651985D01*
X93698015Y-42549491D01*
X93572486Y-42477016D01*
X93572483Y-42477015D01*
X93432480Y-42439501D01*
X93432477Y-42439500D01*
X93432475Y-42439500D01*
X93287525Y-42439500D01*
X93287523Y-42439500D01*
X93287519Y-42439501D01*
X93147516Y-42477015D01*
X93147513Y-42477016D01*
X93021984Y-42549491D01*
X92919491Y-42651984D01*
X92847016Y-42777513D01*
X92847015Y-42777516D01*
X92809501Y-42917519D01*
X92809500Y-42917527D01*
X91671026Y-42917527D01*
X91662984Y-42887516D01*
X91662983Y-42887513D01*
X91590508Y-42761984D01*
X91488015Y-42659491D01*
X91362486Y-42587016D01*
X91362483Y-42587015D01*
X91222480Y-42549501D01*
X91222477Y-42549500D01*
X91222475Y-42549500D01*
X91077525Y-42549500D01*
X91077523Y-42549500D01*
X91077519Y-42549501D01*
X90937516Y-42587015D01*
X90937513Y-42587016D01*
X90811984Y-42659491D01*
X90709491Y-42761984D01*
X90637016Y-42887513D01*
X90637015Y-42887516D01*
X90599501Y-43027519D01*
X90599500Y-43027527D01*
X88232652Y-43027527D01*
X88162486Y-42987016D01*
X88162483Y-42987015D01*
X88022480Y-42949501D01*
X88022477Y-42949500D01*
X88022475Y-42949500D01*
X87877525Y-42949500D01*
X87877523Y-42949500D01*
X87877519Y-42949501D01*
X87737516Y-42987015D01*
X87737513Y-42987016D01*
X87611984Y-43059491D01*
X87509491Y-43161984D01*
X87437016Y-43287513D01*
X87437015Y-43287516D01*
X87399501Y-43427519D01*
X87399500Y-43427527D01*
X80503291Y-43427527D01*
X80693447Y-43173460D01*
X80695212Y-43171196D01*
X81328829Y-42390339D01*
X81330653Y-42388179D01*
X81840189Y-41808219D01*
X91561564Y-41808219D01*
X91561564Y-41953164D01*
X91561565Y-41953172D01*
X91599079Y-42093175D01*
X91599080Y-42093178D01*
X91653408Y-42187276D01*
X91671555Y-42218707D01*
X91774049Y-42321201D01*
X91865940Y-42374255D01*
X91893873Y-42390382D01*
X91899579Y-42393676D01*
X92039589Y-42431192D01*
X92039591Y-42431192D01*
X92184537Y-42431192D01*
X92184539Y-42431192D01*
X92324549Y-42393676D01*
X92450079Y-42321201D01*
X92552573Y-42218707D01*
X92625048Y-42093177D01*
X92662564Y-41953167D01*
X92662564Y-41810585D01*
X97832558Y-41810585D01*
X97832558Y-41955530D01*
X97832559Y-41955538D01*
X97870073Y-42095541D01*
X97870074Y-42095544D01*
X97923036Y-42187276D01*
X97942549Y-42221073D01*
X98045043Y-42323567D01*
X98136934Y-42376621D01*
X98160769Y-42390382D01*
X98170573Y-42396042D01*
X98310583Y-42433558D01*
X98310585Y-42433558D01*
X98455531Y-42433558D01*
X98455533Y-42433558D01*
X98595543Y-42396042D01*
X98721073Y-42323567D01*
X98823567Y-42221073D01*
X98896042Y-42095543D01*
X98933558Y-41955533D01*
X98933558Y-41810583D01*
X98896042Y-41670573D01*
X98823567Y-41545043D01*
X98721073Y-41442549D01*
X98682833Y-41420471D01*
X98595544Y-41370074D01*
X98595541Y-41370073D01*
X98455538Y-41332559D01*
X98455535Y-41332558D01*
X98455533Y-41332558D01*
X98310583Y-41332558D01*
X98310581Y-41332558D01*
X98310577Y-41332559D01*
X98170574Y-41370073D01*
X98170571Y-41370074D01*
X98045042Y-41442549D01*
X97942549Y-41545042D01*
X97870074Y-41670571D01*
X97870073Y-41670574D01*
X97832559Y-41810577D01*
X97832558Y-41810585D01*
X92662564Y-41810585D01*
X92662564Y-41808217D01*
X92625048Y-41668207D01*
X92552573Y-41542677D01*
X92450079Y-41440183D01*
X92415937Y-41420471D01*
X92324550Y-41367708D01*
X92324547Y-41367707D01*
X92184544Y-41330193D01*
X92184541Y-41330192D01*
X92184539Y-41330192D01*
X92039589Y-41330192D01*
X92039587Y-41330192D01*
X92039583Y-41330193D01*
X91899580Y-41367707D01*
X91899577Y-41367708D01*
X91774048Y-41440183D01*
X91671555Y-41542676D01*
X91599080Y-41668205D01*
X91599079Y-41668208D01*
X91561565Y-41808211D01*
X91561564Y-41808219D01*
X81840189Y-41808219D01*
X81994369Y-41632730D01*
X81996277Y-41630643D01*
X82438365Y-41165527D01*
X90229500Y-41165527D01*
X90229500Y-41310472D01*
X90229501Y-41310480D01*
X90267015Y-41450483D01*
X90267016Y-41450486D01*
X90320243Y-41542676D01*
X90339491Y-41576015D01*
X90441985Y-41678509D01*
X90567515Y-41750984D01*
X90707525Y-41788500D01*
X90707527Y-41788500D01*
X90852473Y-41788500D01*
X90852475Y-41788500D01*
X90992485Y-41750984D01*
X91004470Y-41744064D01*
X91014370Y-41738349D01*
X91041190Y-41722863D01*
X91118015Y-41678509D01*
X91220509Y-41576015D01*
X91292984Y-41450485D01*
X91330500Y-41310475D01*
X91330500Y-41165525D01*
X91292984Y-41025515D01*
X91220509Y-40899985D01*
X91118015Y-40797491D01*
X90992486Y-40725016D01*
X90992483Y-40725015D01*
X90852480Y-40687501D01*
X90852477Y-40687500D01*
X90852475Y-40687500D01*
X90707525Y-40687500D01*
X90707523Y-40687500D01*
X90707519Y-40687501D01*
X90567516Y-40725015D01*
X90567513Y-40725016D01*
X90441984Y-40797491D01*
X90339491Y-40899984D01*
X90267016Y-41025513D01*
X90267015Y-41025516D01*
X90229501Y-41165519D01*
X90229500Y-41165527D01*
X82438365Y-41165527D01*
X82689080Y-40901753D01*
X82691093Y-40899717D01*
X83411859Y-40198567D01*
X83413946Y-40196615D01*
X84161643Y-39524205D01*
X84163816Y-39522326D01*
X84937266Y-38879717D01*
X84939491Y-38877941D01*
X85737513Y-38266116D01*
X85739824Y-38264415D01*
X86396098Y-37800912D01*
X86445598Y-37787435D01*
X86492182Y-37808928D01*
X86514052Y-37855336D01*
X86511809Y-37881586D01*
X86499500Y-37927524D01*
X86499500Y-38072472D01*
X86499501Y-38072480D01*
X86537015Y-38212483D01*
X86537016Y-38212486D01*
X86566986Y-38264395D01*
X86609491Y-38338015D01*
X86711985Y-38440509D01*
X86837515Y-38512984D01*
X86977525Y-38550500D01*
X86977527Y-38550500D01*
X87122473Y-38550500D01*
X87122475Y-38550500D01*
X87262485Y-38512984D01*
X87388015Y-38440509D01*
X87490509Y-38338015D01*
X87562984Y-38212485D01*
X87600500Y-38072475D01*
X87600500Y-37927525D01*
X87562984Y-37787515D01*
X87490509Y-37661985D01*
X87388015Y-37559491D01*
X87327267Y-37524418D01*
X87262486Y-37487016D01*
X87262483Y-37487015D01*
X87143926Y-37455247D01*
X87126945Y-37443357D01*
X87108475Y-37433941D01*
X87106352Y-37428938D01*
X87101901Y-37425821D01*
X87096535Y-37405794D01*
X87088440Y-37386712D01*
X87090029Y-37381516D01*
X87088961Y-37377527D01*
X90349500Y-37377527D01*
X90349500Y-37522472D01*
X90349501Y-37522480D01*
X90387015Y-37662483D01*
X90387016Y-37662486D01*
X90388137Y-37664427D01*
X90459491Y-37788015D01*
X90561985Y-37890509D01*
X90687515Y-37962984D01*
X90827525Y-38000500D01*
X90827527Y-38000500D01*
X90972473Y-38000500D01*
X90972475Y-38000500D01*
X91112485Y-37962984D01*
X91238015Y-37890509D01*
X91340509Y-37788015D01*
X91411862Y-37664429D01*
X91739500Y-37664429D01*
X91739500Y-37809374D01*
X91739501Y-37809382D01*
X91777015Y-37949385D01*
X91777016Y-37949388D01*
X91811125Y-38008466D01*
X91849491Y-38074917D01*
X91951985Y-38177411D01*
X92077515Y-38249886D01*
X92217525Y-38287402D01*
X92217527Y-38287402D01*
X92362473Y-38287402D01*
X92362475Y-38287402D01*
X92502485Y-38249886D01*
X92628015Y-38177411D01*
X92645308Y-38160117D01*
X92691803Y-38138436D01*
X92741358Y-38151713D01*
X92770785Y-38193737D01*
X92770785Y-38232561D01*
X92742662Y-38337517D01*
X92742661Y-38337527D01*
X92742661Y-38482472D01*
X92742662Y-38482480D01*
X92780176Y-38622483D01*
X92780177Y-38622486D01*
X92841938Y-38729458D01*
X92852652Y-38748015D01*
X92955146Y-38850509D01*
X93080676Y-38922984D01*
X93124952Y-38934848D01*
X93200315Y-38955042D01*
X93242340Y-38984468D01*
X93255618Y-39034023D01*
X93253347Y-39046897D01*
X93250501Y-39057517D01*
X93250500Y-39057527D01*
X93250500Y-39202472D01*
X93250501Y-39202480D01*
X93288015Y-39342483D01*
X93288016Y-39342486D01*
X93328431Y-39412486D01*
X93360491Y-39468015D01*
X93462985Y-39570509D01*
X93588515Y-39642984D01*
X93728525Y-39680500D01*
X93728527Y-39680500D01*
X93873473Y-39680500D01*
X93873475Y-39680500D01*
X94013485Y-39642984D01*
X94139015Y-39570509D01*
X94201855Y-39507668D01*
X94248350Y-39485987D01*
X94292383Y-39495749D01*
X94382857Y-39547984D01*
X94522867Y-39585500D01*
X94522869Y-39585500D01*
X94667815Y-39585500D01*
X94667817Y-39585500D01*
X94807827Y-39547984D01*
X94933357Y-39475509D01*
X95035851Y-39373015D01*
X95108326Y-39247485D01*
X95140469Y-39127527D01*
X98329500Y-39127527D01*
X98329500Y-39272472D01*
X98329501Y-39272480D01*
X98367015Y-39412483D01*
X98367016Y-39412486D01*
X98439491Y-39538015D01*
X98448444Y-39546968D01*
X98470126Y-39593464D01*
X98456847Y-39643019D01*
X98448446Y-39653032D01*
X98439491Y-39661986D01*
X98367016Y-39787516D01*
X98367015Y-39787519D01*
X98329501Y-39927522D01*
X98329500Y-39927530D01*
X98329500Y-40072475D01*
X98329501Y-40072483D01*
X98367015Y-40212486D01*
X98367016Y-40212489D01*
X98427654Y-40317516D01*
X98439491Y-40338018D01*
X98541985Y-40440512D01*
X98667515Y-40512987D01*
X98807525Y-40550503D01*
X98807527Y-40550503D01*
X98952473Y-40550503D01*
X98952475Y-40550503D01*
X99092485Y-40512987D01*
X99188544Y-40457527D01*
X101739500Y-40457527D01*
X101739500Y-40602472D01*
X101739501Y-40602480D01*
X101777015Y-40742483D01*
X101777016Y-40742486D01*
X101808774Y-40797491D01*
X101849491Y-40868015D01*
X101951985Y-40970509D01*
X102077515Y-41042984D01*
X102217525Y-41080500D01*
X102217527Y-41080500D01*
X102362473Y-41080500D01*
X102362475Y-41080500D01*
X102502485Y-41042984D01*
X102628015Y-40970509D01*
X102730509Y-40868015D01*
X102802984Y-40742485D01*
X102840500Y-40602475D01*
X102840500Y-40457525D01*
X102802984Y-40317515D01*
X102730509Y-40191985D01*
X102628015Y-40089491D01*
X102502486Y-40017016D01*
X102502483Y-40017015D01*
X102362480Y-39979501D01*
X102362477Y-39979500D01*
X102362475Y-39979500D01*
X102217525Y-39979500D01*
X102217523Y-39979500D01*
X102217519Y-39979501D01*
X102077516Y-40017015D01*
X102077513Y-40017016D01*
X101951984Y-40089491D01*
X101849491Y-40191984D01*
X101777016Y-40317513D01*
X101777015Y-40317516D01*
X101739501Y-40457519D01*
X101739500Y-40457527D01*
X99188544Y-40457527D01*
X99218015Y-40440512D01*
X99320509Y-40338018D01*
X99392984Y-40212488D01*
X99430500Y-40072478D01*
X99430500Y-39927528D01*
X99392984Y-39787518D01*
X99320509Y-39661988D01*
X99311555Y-39653034D01*
X99289873Y-39606538D01*
X99303152Y-39556983D01*
X99311552Y-39546971D01*
X99320509Y-39538015D01*
X99392984Y-39412485D01*
X99430500Y-39272475D01*
X99430500Y-39127525D01*
X99392984Y-38987515D01*
X99320509Y-38861985D01*
X99218015Y-38759491D01*
X99198138Y-38748015D01*
X99092486Y-38687016D01*
X99092483Y-38687015D01*
X98952480Y-38649501D01*
X98952477Y-38649500D01*
X98952475Y-38649500D01*
X98807525Y-38649500D01*
X98807523Y-38649500D01*
X98807519Y-38649501D01*
X98667516Y-38687015D01*
X98667513Y-38687016D01*
X98541984Y-38759491D01*
X98439491Y-38861984D01*
X98367016Y-38987513D01*
X98367015Y-38987516D01*
X98329501Y-39127519D01*
X98329500Y-39127527D01*
X95140469Y-39127527D01*
X95145842Y-39107475D01*
X95145842Y-38962525D01*
X95108326Y-38822515D01*
X95035851Y-38696985D01*
X94933357Y-38594491D01*
X94857163Y-38550500D01*
X94807828Y-38522016D01*
X94807825Y-38522015D01*
X94667822Y-38484501D01*
X94667819Y-38484500D01*
X94667817Y-38484500D01*
X94522867Y-38484500D01*
X94522865Y-38484500D01*
X94522861Y-38484501D01*
X94382858Y-38522015D01*
X94382855Y-38522016D01*
X94257326Y-38594491D01*
X94194487Y-38657330D01*
X94147990Y-38679012D01*
X94103955Y-38669249D01*
X94013485Y-38617016D01*
X94013483Y-38617015D01*
X93893845Y-38584957D01*
X93851820Y-38555531D01*
X93838542Y-38505976D01*
X93840811Y-38493107D01*
X93843661Y-38482475D01*
X93843661Y-38337527D01*
X105319500Y-38337527D01*
X105319500Y-38482472D01*
X105319501Y-38482480D01*
X105357015Y-38622483D01*
X105357016Y-38622486D01*
X105418777Y-38729458D01*
X105429491Y-38748015D01*
X105531985Y-38850509D01*
X105657515Y-38922984D01*
X105797525Y-38960500D01*
X105797527Y-38960500D01*
X105942473Y-38960500D01*
X105942475Y-38960500D01*
X106082485Y-38922984D01*
X106175175Y-38869469D01*
X110491442Y-38869469D01*
X110491442Y-39014414D01*
X110491443Y-39014422D01*
X110528957Y-39154425D01*
X110528958Y-39154428D01*
X110597113Y-39272475D01*
X110601433Y-39279957D01*
X110703927Y-39382451D01*
X110829457Y-39454926D01*
X110969467Y-39492442D01*
X110969469Y-39492442D01*
X111114415Y-39492442D01*
X111114417Y-39492442D01*
X111254427Y-39454926D01*
X111379957Y-39382451D01*
X111482451Y-39279957D01*
X111554926Y-39154427D01*
X111592442Y-39014417D01*
X111592442Y-38869467D01*
X111554926Y-38729457D01*
X111482451Y-38603927D01*
X111379957Y-38501433D01*
X111350630Y-38484501D01*
X111254428Y-38428958D01*
X111254425Y-38428957D01*
X111114422Y-38391443D01*
X111114419Y-38391442D01*
X111114417Y-38391442D01*
X110969467Y-38391442D01*
X110969465Y-38391442D01*
X110969461Y-38391443D01*
X110829458Y-38428957D01*
X110829455Y-38428958D01*
X110703926Y-38501433D01*
X110601433Y-38603926D01*
X110528958Y-38729455D01*
X110528957Y-38729458D01*
X110491443Y-38869461D01*
X110491442Y-38869469D01*
X106175175Y-38869469D01*
X106208015Y-38850509D01*
X106310509Y-38748015D01*
X106382984Y-38622485D01*
X106420500Y-38482475D01*
X106420500Y-38337525D01*
X106382984Y-38197515D01*
X106310509Y-38071985D01*
X106208015Y-37969491D01*
X106173194Y-37949387D01*
X106082486Y-37897016D01*
X106082483Y-37897015D01*
X105942480Y-37859501D01*
X105942477Y-37859500D01*
X105942475Y-37859500D01*
X105797525Y-37859500D01*
X105797523Y-37859500D01*
X105797519Y-37859501D01*
X105657516Y-37897015D01*
X105657513Y-37897016D01*
X105531984Y-37969491D01*
X105429491Y-38071984D01*
X105357016Y-38197513D01*
X105357015Y-38197516D01*
X105319501Y-38337519D01*
X105319500Y-38337527D01*
X93843661Y-38337527D01*
X93843661Y-38337525D01*
X93806145Y-38197515D01*
X93733670Y-38071985D01*
X93631176Y-37969491D01*
X93596355Y-37949387D01*
X93505647Y-37897016D01*
X93505644Y-37897015D01*
X93365641Y-37859501D01*
X93365638Y-37859500D01*
X93365636Y-37859500D01*
X93220686Y-37859500D01*
X93220684Y-37859500D01*
X93220680Y-37859501D01*
X93080677Y-37897015D01*
X93080674Y-37897016D01*
X92955145Y-37969491D01*
X92937851Y-37986785D01*
X92891354Y-38008466D01*
X92841799Y-37995186D01*
X92812374Y-37953161D01*
X92812375Y-37914339D01*
X92818760Y-37890509D01*
X92840500Y-37809377D01*
X92840500Y-37664427D01*
X92837257Y-37652323D01*
X110847421Y-37652323D01*
X110847421Y-37797268D01*
X110847422Y-37797276D01*
X110884936Y-37937279D01*
X110884937Y-37937282D01*
X110922139Y-38001717D01*
X110957412Y-38062811D01*
X111059906Y-38165305D01*
X111185436Y-38237780D01*
X111325446Y-38275296D01*
X111325448Y-38275296D01*
X111470394Y-38275296D01*
X111470396Y-38275296D01*
X111610406Y-38237780D01*
X111735936Y-38165305D01*
X111838430Y-38062811D01*
X111910905Y-37937281D01*
X111948421Y-37797271D01*
X111948421Y-37652321D01*
X111910905Y-37512311D01*
X111838430Y-37386781D01*
X111735936Y-37284287D01*
X111610407Y-37211812D01*
X111610404Y-37211811D01*
X111470401Y-37174297D01*
X111470398Y-37174296D01*
X111470396Y-37174296D01*
X111325446Y-37174296D01*
X111325444Y-37174296D01*
X111325440Y-37174297D01*
X111185437Y-37211811D01*
X111185434Y-37211812D01*
X111059905Y-37284287D01*
X110957412Y-37386780D01*
X110884937Y-37512309D01*
X110884936Y-37512312D01*
X110847422Y-37652315D01*
X110847421Y-37652323D01*
X92837257Y-37652323D01*
X92802984Y-37524417D01*
X92795993Y-37512309D01*
X92766529Y-37461275D01*
X92730509Y-37398887D01*
X92628015Y-37296393D01*
X92607047Y-37284287D01*
X92502486Y-37223918D01*
X92502483Y-37223917D01*
X92362480Y-37186403D01*
X92362477Y-37186402D01*
X92362475Y-37186402D01*
X92217525Y-37186402D01*
X92217523Y-37186402D01*
X92217519Y-37186403D01*
X92077516Y-37223917D01*
X92077513Y-37223918D01*
X91951984Y-37296393D01*
X91849491Y-37398886D01*
X91777016Y-37524415D01*
X91777015Y-37524418D01*
X91739501Y-37664421D01*
X91739500Y-37664429D01*
X91411862Y-37664429D01*
X91412984Y-37662485D01*
X91450500Y-37522475D01*
X91450500Y-37377525D01*
X91412984Y-37237515D01*
X91340509Y-37111985D01*
X91238015Y-37009491D01*
X91112486Y-36937016D01*
X91112483Y-36937015D01*
X90972480Y-36899501D01*
X90972477Y-36899500D01*
X90972475Y-36899500D01*
X90827525Y-36899500D01*
X90827523Y-36899500D01*
X90827519Y-36899501D01*
X90687516Y-36937015D01*
X90687513Y-36937016D01*
X90561984Y-37009491D01*
X90459491Y-37111984D01*
X90387016Y-37237513D01*
X90387015Y-37237516D01*
X90349501Y-37377519D01*
X90349500Y-37377527D01*
X87088961Y-37377527D01*
X87088623Y-37376266D01*
X87097385Y-37357475D01*
X87103450Y-37337654D01*
X87109072Y-37332413D01*
X87110305Y-37329770D01*
X87122504Y-37319894D01*
X87407032Y-37135205D01*
X87409454Y-37133699D01*
X88273721Y-36619648D01*
X88276198Y-36618240D01*
X88811646Y-36327527D01*
X100699500Y-36327527D01*
X100699500Y-36472472D01*
X100699501Y-36472480D01*
X100737015Y-36612483D01*
X100737016Y-36612486D01*
X100809491Y-36738015D01*
X100911985Y-36840509D01*
X101037515Y-36912984D01*
X101177525Y-36950500D01*
X101177527Y-36950500D01*
X101322473Y-36950500D01*
X101322475Y-36950500D01*
X101462485Y-36912984D01*
X101588015Y-36840509D01*
X101690509Y-36738015D01*
X101762984Y-36612485D01*
X101800500Y-36472475D01*
X101800500Y-36327525D01*
X101762984Y-36187515D01*
X101690509Y-36061985D01*
X101588015Y-35959491D01*
X101582304Y-35956194D01*
X101462486Y-35887016D01*
X101462483Y-35887015D01*
X101322480Y-35849501D01*
X101322477Y-35849500D01*
X101322475Y-35849500D01*
X101177525Y-35849500D01*
X101177523Y-35849500D01*
X101177519Y-35849501D01*
X101037516Y-35887015D01*
X101037513Y-35887016D01*
X100911984Y-35959491D01*
X100809491Y-36061984D01*
X100737016Y-36187513D01*
X100737015Y-36187516D01*
X100699501Y-36327519D01*
X100699500Y-36327527D01*
X88811646Y-36327527D01*
X89159925Y-36138434D01*
X89162461Y-36137121D01*
X90064298Y-35692292D01*
X90066902Y-35691070D01*
X90985451Y-35281907D01*
X90988072Y-35280800D01*
X91921958Y-34907916D01*
X91924635Y-34906907D01*
X92317761Y-34767527D01*
X106629500Y-34767527D01*
X106629500Y-34912472D01*
X106629501Y-34912480D01*
X106667015Y-35052483D01*
X106667016Y-35052486D01*
X106711422Y-35129398D01*
X106739491Y-35178015D01*
X106841985Y-35280509D01*
X106967515Y-35352984D01*
X107107525Y-35390500D01*
X107107527Y-35390500D01*
X107252473Y-35390500D01*
X107252475Y-35390500D01*
X107392485Y-35352984D01*
X107518015Y-35280509D01*
X107620509Y-35178015D01*
X107692984Y-35052485D01*
X107730500Y-34912475D01*
X107730500Y-34767525D01*
X107692984Y-34627515D01*
X107620509Y-34501985D01*
X107518015Y-34399491D01*
X107392486Y-34327016D01*
X107392483Y-34327015D01*
X107252480Y-34289501D01*
X107252477Y-34289500D01*
X107252475Y-34289500D01*
X107107525Y-34289500D01*
X107107523Y-34289500D01*
X107107519Y-34289501D01*
X106967516Y-34327015D01*
X106967513Y-34327016D01*
X106841984Y-34399491D01*
X106739491Y-34501984D01*
X106667016Y-34627513D01*
X106667015Y-34627516D01*
X106629501Y-34767519D01*
X106629500Y-34767527D01*
X92317761Y-34767527D01*
X92872390Y-34570887D01*
X92875147Y-34569970D01*
X93835342Y-34271321D01*
X93838074Y-34270530D01*
X94809195Y-34009722D01*
X94812011Y-34009024D01*
X95792599Y-33786446D01*
X95795463Y-33785855D01*
X96784054Y-33601842D01*
X96786876Y-33601375D01*
X97781872Y-33456225D01*
X97784696Y-33455868D01*
X98784682Y-33349787D01*
X98787580Y-33349538D01*
X99790896Y-33282703D01*
X99793732Y-33282570D01*
X100798915Y-33255078D01*
X100801820Y-33255056D01*
X101807327Y-33266949D01*
G37*
%TD.AperFunction*%
%TD*%
%TA.AperFunction,Conductor*%
%TO.N,+3V8*%
G36*
X112638009Y-46410434D02*
G01*
X112643745Y-46417310D01*
X112644045Y-46418477D01*
X112700530Y-46697680D01*
X112700530Y-46702320D01*
X112644045Y-46981522D01*
X112639045Y-46988951D01*
X112630257Y-46990670D01*
X112629090Y-46990370D01*
X112113977Y-46829563D01*
X112107101Y-46823827D01*
X112105764Y-46818395D01*
X112105764Y-46581604D01*
X112109191Y-46573331D01*
X112113977Y-46570436D01*
X112629091Y-46409629D01*
X112638009Y-46410434D01*
G37*
%TD.AperFunction*%
%TD*%
%TA.AperFunction,Conductor*%
%TO.N,+3V8*%
G36*
X105991469Y-52241094D02*
G01*
X106158905Y-52408530D01*
X106162332Y-52416803D01*
X106160995Y-52422235D01*
X105910463Y-52900182D01*
X105903587Y-52905918D01*
X105894668Y-52905113D01*
X105893632Y-52904499D01*
X105656265Y-52747015D01*
X105652984Y-52743734D01*
X105495500Y-52506367D01*
X105493781Y-52497579D01*
X105498781Y-52490150D01*
X105499799Y-52489546D01*
X105977765Y-52239003D01*
X105986683Y-52238199D01*
X105991469Y-52241094D01*
G37*
%TD.AperFunction*%
%TD*%
M02*
