%TF.GenerationSoftware,KiCad,Pcbnew,9.0.0*%
%TF.CreationDate,2025-06-25T03:54:54+08:00*%
%TF.ProjectId,CAPSTONE_MC,43415053-544f-44e4-955f-4d432e6b6963,Ver. 1.0.0*%
%TF.SameCoordinates,Original*%
%TF.FileFunction,Copper,L5,Inr*%
%TF.FilePolarity,Positive*%
%FSLAX46Y46*%
G04 Gerber Fmt 4.6, Leading zero omitted, Abs format (unit mm)*
G04 Created by KiCad (PCBNEW 9.0.0) date 2025-06-25 03:54:54*
%MOMM*%
%LPD*%
G01*
G04 APERTURE LIST*
%TA.AperFunction,ComponentPad*%
%ADD10C,2.000000*%
%TD*%
%TA.AperFunction,ComponentPad*%
%ADD11C,3.000000*%
%TD*%
%TA.AperFunction,ViaPad*%
%ADD12C,0.800000*%
%TD*%
%TA.AperFunction,ViaPad*%
%ADD13C,0.600000*%
%TD*%
%TA.AperFunction,Conductor*%
%ADD14C,0.250000*%
%TD*%
%TA.AperFunction,Conductor*%
%ADD15C,0.300000*%
%TD*%
G04 APERTURE END LIST*
D10*
%TO.N,/CANL*%
%TO.C,TP16*%
X84295000Y-57885000D03*
%TD*%
%TO.N,/CANH*%
%TO.C,TP13*%
X82575000Y-55955000D03*
%TD*%
D11*
%TO.N,GND*%
%TO.C,TP2*%
X82245000Y-61265000D03*
%TD*%
%TO.N,/HVBUS*%
%TO.C,TP1*%
X77505000Y-63925000D03*
%TD*%
D10*
%TO.N,/HS2*%
%TO.C,TP4*%
X100415000Y-83665000D03*
%TD*%
%TO.N,/HS3*%
%TO.C,TP5*%
X110775000Y-81655000D03*
%TD*%
%TO.N,/HS1*%
%TO.C,TP3*%
X90235000Y-81165000D03*
%TD*%
D12*
%TO.N,GND*%
X80540000Y-57000000D03*
D13*
%TO.N,/LED_GREEN*%
X79900000Y-59330000D03*
D12*
%TO.N,GND*%
X112300000Y-52500000D03*
X93900000Y-72900000D03*
X91500000Y-38600000D03*
X92400000Y-39000000D03*
X115120000Y-73580000D03*
D13*
X98200000Y-70400000D03*
D12*
X92800000Y-72900000D03*
X102300000Y-75900000D03*
D13*
X103200000Y-55600000D03*
D12*
X105830000Y-48505000D03*
X85800000Y-38900000D03*
X104370001Y-67305331D03*
X91785000Y-73805000D03*
X103112653Y-48012653D03*
D13*
X109400000Y-67470000D03*
D12*
X116120000Y-73580000D03*
X96700000Y-34400000D03*
X114120000Y-73580000D03*
X89800000Y-64300000D03*
X116710000Y-47710000D03*
D13*
X106100000Y-60700000D03*
D12*
X99225000Y-51912653D03*
X117800000Y-72600000D03*
X85900000Y-51600000D03*
X103300000Y-75900000D03*
X116720000Y-48730000D03*
D13*
X98845558Y-69664442D03*
D12*
X99690000Y-75440000D03*
D13*
X109580000Y-71330000D03*
X98775000Y-73295000D03*
D12*
X93885000Y-73805000D03*
X96300000Y-63700000D03*
X88900000Y-67900000D03*
X113110000Y-73580000D03*
X81100000Y-58000000D03*
X84900000Y-48600000D03*
X87100000Y-67900000D03*
D13*
X84470000Y-68270000D03*
X86100000Y-42200000D03*
X108970000Y-70700000D03*
X98775000Y-74434250D03*
D12*
X103300000Y-74900000D03*
D13*
X108980000Y-71940000D03*
D12*
X89800000Y-63200000D03*
X83900000Y-52600000D03*
X112300000Y-63300000D03*
X109500000Y-41300000D03*
X104200000Y-42000000D03*
X110900000Y-57900000D03*
X114120000Y-72580000D03*
X105500000Y-75900000D03*
X125000000Y-51000000D03*
X90750000Y-73830000D03*
X92785000Y-73805000D03*
X116120000Y-72580000D03*
X110500000Y-42300000D03*
X90750000Y-70980000D03*
X83393674Y-45481021D03*
X117100000Y-73500000D03*
X85900000Y-52600000D03*
X97100000Y-63700000D03*
X86400000Y-70200000D03*
X105285000Y-50155000D03*
X114540000Y-45580000D03*
D13*
X109595000Y-71947000D03*
X98845558Y-70400000D03*
D12*
X82000000Y-58000000D03*
D13*
X106200000Y-56500000D03*
X106800000Y-60100000D03*
D12*
X110000000Y-68000000D03*
X119200000Y-67800000D03*
X106000000Y-69200000D03*
X105300000Y-42000000D03*
X85900000Y-49600000D03*
X112110000Y-73580000D03*
X85900000Y-48600000D03*
X88000000Y-67900000D03*
X94900000Y-72900000D03*
X83900000Y-49600000D03*
X110900000Y-57200000D03*
X91600000Y-70970000D03*
X112300000Y-62200000D03*
X104400000Y-74900000D03*
X94900000Y-34400000D03*
X114600000Y-44600000D03*
X105400000Y-34600000D03*
X99907322Y-51217984D03*
X112110000Y-72580000D03*
D13*
X108970000Y-71320000D03*
D12*
X86200000Y-67900000D03*
X106000000Y-68200000D03*
X76900000Y-56800000D03*
X94900000Y-70900000D03*
X118600000Y-71700000D03*
X113500000Y-43600000D03*
X109500000Y-42300000D03*
X84900000Y-49600000D03*
X104400000Y-75900000D03*
X83900000Y-48600000D03*
X118200000Y-67800000D03*
D13*
X108670000Y-67310000D03*
D12*
X85300000Y-67900000D03*
X109200000Y-53000000D03*
X122800000Y-51000000D03*
X94905000Y-71765000D03*
D13*
X107500000Y-55700000D03*
D12*
X104400000Y-73900000D03*
X98790000Y-75440000D03*
X83900000Y-51600000D03*
D13*
X106200000Y-57200000D03*
X98780000Y-73850000D03*
X96800000Y-57200000D03*
D12*
X90765000Y-72925000D03*
X105300000Y-51100000D03*
X123900000Y-51000000D03*
X113110000Y-72580000D03*
X84900000Y-51600000D03*
X76000000Y-56800000D03*
X94885000Y-73805000D03*
X88700000Y-64300000D03*
X85900000Y-50600000D03*
X105300000Y-49200000D03*
X85500000Y-64800000D03*
X95800000Y-34400000D03*
D13*
X99500000Y-70400000D03*
D12*
X108600000Y-36700000D03*
X87900000Y-39000000D03*
X117100000Y-67800000D03*
D13*
X81965000Y-46255000D03*
D12*
X84900000Y-50600000D03*
X105500000Y-74900000D03*
X91800000Y-72900000D03*
D13*
X81965000Y-45285000D03*
D12*
X84200000Y-40200000D03*
X83900000Y-50600000D03*
X84900000Y-52600000D03*
X86200000Y-67000000D03*
X115120000Y-72580000D03*
D13*
%TO.N,+3V3*%
X87050000Y-38000000D03*
X90900000Y-37450000D03*
X101250000Y-36400000D03*
X99350000Y-49600000D03*
X76650000Y-55400000D03*
%TO.N,+3.3VA*%
X86950000Y-44700000D03*
X95931147Y-53500000D03*
X106800000Y-46800000D03*
X100100000Y-66500000D03*
X84300000Y-64850000D03*
X107775000Y-47535000D03*
X110000000Y-61650000D03*
%TO.N,GNDA*%
X87900000Y-45700000D03*
X107400000Y-66100000D03*
D12*
X84800000Y-65700000D03*
D13*
X96000000Y-68400000D03*
X95877210Y-51846955D03*
X91150000Y-43100000D03*
D12*
X107300000Y-48500000D03*
D13*
X97200000Y-68700000D03*
X100900000Y-65200000D03*
X83259054Y-70127764D03*
X109035000Y-60100000D03*
X109013370Y-61586630D03*
X111700000Y-59105000D03*
X84800000Y-63175000D03*
D12*
%TO.N,/HVBUS*%
X79900000Y-68750000D03*
X79900000Y-66750000D03*
X84400000Y-74300000D03*
X114100000Y-75700000D03*
X94800000Y-75900000D03*
X106600000Y-83400000D03*
X83300000Y-76500000D03*
X104500000Y-78100000D03*
X104500000Y-83400000D03*
X113500000Y-79100000D03*
X84400000Y-76500000D03*
X79900000Y-64700000D03*
X83300000Y-75400000D03*
X94800000Y-80800000D03*
X92800000Y-75900000D03*
X92800000Y-81800000D03*
X117200000Y-76800000D03*
X83300000Y-74300000D03*
X113500000Y-80300000D03*
X111900000Y-76800000D03*
X123100000Y-68100000D03*
X116135000Y-79095000D03*
X78895000Y-65700000D03*
X105500000Y-78100000D03*
X116150000Y-77915000D03*
X106600000Y-81200000D03*
X116100000Y-76800000D03*
X120900000Y-69400000D03*
X92800000Y-76900000D03*
X105500000Y-79100000D03*
X122000000Y-69400000D03*
X116100000Y-75700000D03*
X122000000Y-66800000D03*
X105500000Y-83400000D03*
X120900000Y-70700000D03*
X103500000Y-79100000D03*
X104500000Y-79100000D03*
X113000000Y-75700000D03*
X119700000Y-70700000D03*
X84400000Y-75400000D03*
X78905000Y-69750000D03*
X77905000Y-67750000D03*
X79900000Y-62700000D03*
X79905000Y-70750000D03*
X115100000Y-75700000D03*
X114100000Y-76800000D03*
X94800000Y-81700000D03*
X92800000Y-80800000D03*
X84400000Y-73200000D03*
X79900000Y-69750000D03*
X107600000Y-83400000D03*
X93800000Y-81700000D03*
X117200000Y-77900000D03*
X78900000Y-68750000D03*
X79895000Y-65700000D03*
X103500000Y-83400000D03*
X113000000Y-76800000D03*
X94800000Y-76900000D03*
X106600000Y-82300000D03*
X93800000Y-80800000D03*
X93800000Y-75900000D03*
X84400000Y-77600000D03*
X122000000Y-68100000D03*
X93800000Y-76900000D03*
X78905000Y-70750000D03*
X79900000Y-63700000D03*
X107600000Y-81200000D03*
X117200000Y-75700000D03*
X120900000Y-68100000D03*
X103500000Y-82300000D03*
D13*
X80900000Y-65000000D03*
D12*
X79900000Y-71750000D03*
X79905000Y-67750000D03*
X115100000Y-76800000D03*
X77900000Y-68750000D03*
X77905000Y-66750000D03*
X83300000Y-73200000D03*
D13*
X85300000Y-61200000D03*
D12*
X123100000Y-66800000D03*
X78905000Y-66750000D03*
X107600000Y-82300000D03*
X103500000Y-78100000D03*
X78905000Y-67750000D03*
X108700000Y-82300000D03*
D13*
%TO.N,+3V8*%
X109200000Y-47500000D03*
X112700000Y-46700000D03*
D12*
X81005000Y-45285000D03*
D13*
X109900000Y-47500000D03*
X105655000Y-52745000D03*
X110600000Y-46800000D03*
X109200000Y-46800000D03*
D12*
X81005000Y-46255000D03*
D13*
X109900000Y-46800000D03*
%TO.N,/HS2*%
X104186750Y-72490000D03*
%TO.N,/HS3*%
X115080000Y-71410000D03*
%TO.N,/HS1*%
X93245000Y-71055000D03*
%TO.N,/CURRENT_3*%
X108300000Y-63150000D03*
X93360000Y-42990000D03*
%TO.N,/CURRENT_2*%
X92112064Y-41880692D03*
X99150000Y-65580000D03*
%TO.N,/CURRENT_1*%
X86650000Y-63800000D03*
X90780000Y-41238000D03*
%TO.N,/ADC_TEMP*%
X92758058Y-60241942D03*
X99820000Y-63490000D03*
%TO.N,/TEMP_MOTOR*%
X95160000Y-51295000D03*
%TO.N,/CANH*%
X111397921Y-37724796D03*
X87800000Y-55025000D03*
%TO.N,/CANL*%
X87800000Y-56800000D03*
X111041942Y-38941942D03*
%TO.N,/U1_RX_FAULT*%
X80435000Y-50605000D03*
X93801000Y-39130000D03*
%TO.N,/U1_TX_SERVO*%
X94595342Y-39035000D03*
X82125000Y-51695000D03*
%TO.N,/LED_RED*%
X95691117Y-55625000D03*
X100100000Y-54150000D03*
X78990000Y-59990001D03*
%TO.N,/LED_GREEN*%
X99150000Y-54000000D03*
X95150000Y-55000000D03*
%TO.N,Net-(U4-VS)*%
X107330000Y-71550000D03*
X108100000Y-72190000D03*
X107330000Y-72190000D03*
X108110000Y-71550000D03*
X107340000Y-70900000D03*
X108100000Y-70900000D03*
X106750000Y-67290000D03*
D12*
%TO.N,Net-(U3-VS)*%
X97620000Y-74420000D03*
X96140000Y-74430000D03*
X96860000Y-74430000D03*
X96140000Y-73670000D03*
D13*
X97540000Y-69690000D03*
D12*
X97600000Y-73670000D03*
X96860000Y-73670000D03*
%TO.N,Net-(U2-VS)*%
X86200000Y-72430000D03*
X87020000Y-72430000D03*
X87020000Y-71710000D03*
D13*
X84400000Y-70360000D03*
D12*
X86200000Y-71710000D03*
X85380000Y-72420000D03*
X85390000Y-71710000D03*
D13*
%TO.N,/AN_IN*%
X87950000Y-43500000D03*
X89150000Y-56800000D03*
%TO.N,/VOLTAGE_1*%
X90590000Y-67040000D03*
X91161930Y-43925300D03*
%TO.N,/VOLTAGE_2*%
X91302298Y-44712892D03*
X99795000Y-73365000D03*
%TO.N,/VOLTAGE_3*%
X110395000Y-70815000D03*
X92733000Y-44850000D03*
%TO.N,/USB_DM*%
X98880000Y-40000003D03*
X80930000Y-54585000D03*
%TO.N,/USB_DP*%
X98880000Y-39200000D03*
X80935000Y-53595000D03*
%TO.N,/L1*%
X89890000Y-68860000D03*
X96556147Y-44850000D03*
%TO.N,/TX_SCL_MOSI*%
X96306149Y-57906149D03*
%TO.N,/H1*%
X91215000Y-68810000D03*
X97875000Y-43225000D03*
%TO.N,/L3*%
X102215000Y-44395822D03*
X110826707Y-67615293D03*
%TO.N,/L2*%
X100385001Y-70508771D03*
X97875000Y-44230000D03*
%TO.N,/H3*%
X111623799Y-67547109D03*
X102290000Y-40530000D03*
%TO.N,/MISO_ADC_EXT2*%
X96258058Y-58741942D03*
%TO.N,/H2*%
X98383058Y-41883058D03*
X101370000Y-70440000D03*
%TO.N,/SCK_ADC_EXT*%
X96240750Y-59608519D03*
%TO.N,/CAN_RX*%
X105870000Y-38410000D03*
X93293161Y-38410000D03*
%TO.N,/CAN_TX*%
X92290000Y-37736902D03*
X107180000Y-34840000D03*
%TO.N,/RX_SDA_NSS*%
X96208242Y-60459895D03*
%TO.N,/Vref*%
X108050000Y-59150000D03*
X100600000Y-68400000D03*
X106444669Y-58144669D03*
X105121942Y-63878058D03*
X110850000Y-64850000D03*
%TD*%
D14*
%TO.N,/LED_GREEN*%
X95150000Y-55000000D02*
X94976000Y-55174000D01*
X94976000Y-55174000D02*
X91688190Y-55174000D01*
X91688190Y-55174000D02*
X91662190Y-55200000D01*
X87255702Y-59599000D02*
X83896810Y-59599000D01*
X80371000Y-58859000D02*
X79900000Y-59330000D01*
X91662190Y-55200000D02*
X91654702Y-55200000D01*
X91654702Y-55200000D02*
X87255702Y-59599000D01*
X83896810Y-59599000D02*
X83156810Y-58859000D01*
X83156810Y-58859000D02*
X80371000Y-58859000D01*
%TO.N,/LED_RED*%
X78990000Y-59990001D02*
X80199999Y-59990001D01*
X87450000Y-60050000D02*
X91875000Y-55625000D01*
X82970000Y-59310000D02*
X83710000Y-60050000D01*
X80880000Y-59310000D02*
X82970000Y-59310000D01*
X83710000Y-60050000D02*
X87450000Y-60050000D01*
X80199999Y-59990001D02*
X80880000Y-59310000D01*
X91875000Y-55625000D02*
X95691117Y-55625000D01*
%TO.N,/CANL*%
X84295000Y-57885000D02*
X85980000Y-56200000D01*
X85980000Y-56200000D02*
X87100000Y-56200000D01*
%TO.N,/CANH*%
X82575000Y-55955000D02*
X82830000Y-55700000D01*
X82830000Y-55700000D02*
X87300000Y-55700000D01*
X110415942Y-38684058D02*
X110415942Y-38682644D01*
X110784058Y-38315942D02*
X111375204Y-37724796D01*
X111375204Y-37724796D02*
X111397921Y-37724796D01*
X87800000Y-55025000D02*
X87800000Y-55200000D01*
X87300000Y-55700000D02*
X88600000Y-55700000D01*
X99662190Y-40700000D02*
X100909190Y-39453000D01*
X110415942Y-38682644D02*
X110782644Y-38315942D01*
X108675209Y-39453000D02*
X108840362Y-39453000D01*
X108840362Y-39453000D02*
X109647000Y-39453000D01*
X97800000Y-40700000D02*
X99662190Y-40700000D01*
X108555209Y-39453000D02*
X108675209Y-39453000D01*
X95300000Y-43200000D02*
X97800000Y-40700000D01*
X108315209Y-38693000D02*
X108315209Y-39213000D01*
X88600000Y-55700000D02*
X95300000Y-49000000D01*
X100909190Y-39453000D02*
X107475209Y-39453000D01*
X87800000Y-55200000D02*
X87300000Y-55700000D01*
X110782644Y-38315942D02*
X110784058Y-38315942D01*
X95300000Y-49000000D02*
X95300000Y-43200000D01*
X109647000Y-39453000D02*
X110415942Y-38684058D01*
X107955209Y-38453000D02*
X108075209Y-38453000D01*
X107715209Y-39213000D02*
X107715209Y-38693000D01*
X108075209Y-38453000D02*
G75*
G02*
X108315200Y-38693000I-9J-240000D01*
G01*
X108315209Y-39213000D02*
G75*
G03*
X108555209Y-39452991I239991J0D01*
G01*
X107715209Y-38693000D02*
G75*
G02*
X107955209Y-38453009I239991J0D01*
G01*
X107475209Y-39453000D02*
G75*
G03*
X107715200Y-39213000I-9J240000D01*
G01*
%TO.N,/CANL*%
X105346324Y-40904000D02*
X105226324Y-40904000D01*
X95751000Y-43386810D02*
X95751000Y-49249000D01*
X104386324Y-40144000D02*
X104386324Y-40664000D01*
X110079884Y-39904000D02*
X105826324Y-39904000D01*
X105586324Y-40144000D02*
X105586324Y-40664000D01*
X101096000Y-39904000D02*
X99800000Y-41200000D01*
X88800000Y-56200000D02*
X87100000Y-56200000D01*
X111041942Y-38941942D02*
X110079884Y-39904000D01*
X103786324Y-40664000D02*
X103786324Y-40144000D01*
X104746324Y-39904000D02*
X104626324Y-39904000D01*
X95751000Y-49249000D02*
X88800000Y-56200000D01*
X103546324Y-39904000D02*
X103426324Y-39904000D01*
X97937810Y-41200000D02*
X95751000Y-43386810D01*
X99800000Y-41200000D02*
X97937810Y-41200000D01*
X104146324Y-40904000D02*
X104026324Y-40904000D01*
X103426324Y-39904000D02*
X103303786Y-39904000D01*
X104986324Y-40664000D02*
X104986324Y-40144000D01*
X103303786Y-39904000D02*
X101096000Y-39904000D01*
X87200000Y-56200000D02*
X87100000Y-56200000D01*
X87800000Y-56800000D02*
X87200000Y-56200000D01*
X105826324Y-39904000D02*
G75*
G03*
X105586300Y-40144000I-24J-240000D01*
G01*
X103786324Y-40144000D02*
G75*
G03*
X103546324Y-39903976I-240024J0D01*
G01*
X104386324Y-40664000D02*
G75*
G02*
X104146324Y-40904024I-240024J0D01*
G01*
X104026324Y-40904000D02*
G75*
G02*
X103786300Y-40664000I-24J240000D01*
G01*
X104626324Y-39904000D02*
G75*
G03*
X104386300Y-40144000I-24J-240000D01*
G01*
X104986324Y-40144000D02*
G75*
G03*
X104746324Y-39903976I-240024J0D01*
G01*
X105226324Y-40904000D02*
G75*
G02*
X104986300Y-40664000I-24J240000D01*
G01*
X105586324Y-40664000D02*
G75*
G02*
X105346324Y-40904024I-240024J0D01*
G01*
%TO.N,/U1_RX_FAULT*%
X80435000Y-50605000D02*
X80435000Y-49465000D01*
X90150000Y-39750000D02*
X93181000Y-39750000D01*
X80435000Y-49465000D02*
X90150000Y-39750000D01*
X93181000Y-39750000D02*
X93801000Y-39130000D01*
%TO.N,/U1_TX_SERVO*%
X90327810Y-40210000D02*
X93606298Y-40210000D01*
X82125000Y-51695000D02*
X82120000Y-51690000D01*
X82120000Y-51690000D02*
X82120000Y-48417810D01*
X82120000Y-48417810D02*
X90327810Y-40210000D01*
X94595342Y-39220956D02*
X94595342Y-39035000D01*
X93606298Y-40210000D02*
X94595342Y-39220956D01*
%TO.N,/USB_DM*%
X98779997Y-39900000D02*
X97637810Y-39900000D01*
X97637810Y-39900000D02*
X94700000Y-42837810D01*
X94700000Y-42837810D02*
X94700000Y-47500000D01*
X94700000Y-47500000D02*
X87800000Y-54400000D01*
X81100000Y-54400000D02*
X80930000Y-54570000D01*
X98880000Y-40000003D02*
X98779997Y-39900000D01*
X80930000Y-54570000D02*
X80930000Y-54585000D01*
X87800000Y-54400000D02*
X81100000Y-54400000D01*
%TO.N,/USB_DP*%
X94249000Y-42651000D02*
X94513190Y-42386810D01*
X94200000Y-42700000D02*
X94249000Y-42651000D01*
X80935000Y-53595000D02*
X81189000Y-53849000D01*
X81386810Y-53849000D02*
X87551000Y-53849000D01*
X98760628Y-39319372D02*
X98880000Y-39200000D01*
X97580628Y-39319372D02*
X98760628Y-39319372D01*
X97186810Y-39713190D02*
X97451000Y-39449000D01*
X87551000Y-53849000D02*
X94200000Y-47200000D01*
X81189000Y-53849000D02*
X81386810Y-53849000D01*
X97451000Y-39449000D02*
X97580628Y-39319372D01*
X94200000Y-47200000D02*
X94200000Y-42700000D01*
X94513190Y-42386810D02*
X97186810Y-39713190D01*
%TO.N,/L1*%
X94500000Y-57700000D02*
X94500000Y-64250000D01*
X96556147Y-55643853D02*
X94500000Y-57700000D01*
X94500000Y-64250000D02*
X89890000Y-68860000D01*
X96556147Y-44850000D02*
X96556147Y-55643853D01*
%TO.N,/H1*%
X95100000Y-64925000D02*
X91215000Y-68810000D01*
X95100000Y-57950000D02*
X95100000Y-64925000D01*
X97875000Y-43225000D02*
X97181147Y-43918853D01*
X97181147Y-43918853D02*
X97181147Y-55868853D01*
X97181147Y-55868853D02*
X95100000Y-57950000D01*
%TO.N,/L3*%
X103870000Y-60658586D02*
X103870000Y-47490000D01*
X103870000Y-47490000D02*
X102215000Y-45835000D01*
X110826707Y-67615293D02*
X103870000Y-60658586D01*
X102215000Y-45835000D02*
X102215000Y-44395822D01*
%TO.N,/L2*%
X100360000Y-70483770D02*
X100360000Y-70295000D01*
X100385001Y-70508771D02*
X100360000Y-70483770D01*
X100360000Y-70295000D02*
X97875000Y-67810000D01*
X97875000Y-67810000D02*
X97875000Y-44230000D01*
%TO.N,/H3*%
X111623799Y-67528501D02*
X104560000Y-60464702D01*
X102840000Y-41080000D02*
X102290000Y-40530000D01*
X104560000Y-47260000D02*
X102840000Y-45540000D01*
X102840000Y-45540000D02*
X102840000Y-41080000D01*
X104560000Y-60464702D02*
X104560000Y-47260000D01*
X111623799Y-67547109D02*
X111623799Y-67528501D01*
%TO.N,/H2*%
X98500000Y-67540000D02*
X98500000Y-42625000D01*
X101240000Y-70280000D02*
X98500000Y-67540000D01*
X101240000Y-70310000D02*
X101240000Y-70280000D01*
X98497022Y-41997022D02*
X98383058Y-41883058D01*
X101370000Y-70440000D02*
X101240000Y-70310000D01*
X98500000Y-42625000D02*
X98497022Y-42622022D01*
X98497022Y-42622022D02*
X98497022Y-41997022D01*
%TO.N,/CAN_RX*%
X93293161Y-38410000D02*
X105870000Y-38410000D01*
%TO.N,/CAN_TX*%
X104283098Y-37736902D02*
X107180000Y-34840000D01*
X92290000Y-37736902D02*
X104283098Y-37736902D01*
D15*
%TO.N,/Vref*%
X100600000Y-68400000D02*
X105121942Y-63878058D01*
%TD*%
%TA.AperFunction,Conductor*%
%TO.N,/HVBUS*%
G36*
X79722075Y-60601070D02*
G01*
X79733505Y-60602581D01*
X79827711Y-60615040D01*
X79859100Y-60623490D01*
X79949872Y-60661278D01*
X79977986Y-60677599D01*
X80001415Y-60695687D01*
X80055808Y-60737680D01*
X80078718Y-60760753D01*
X80138243Y-60838996D01*
X80154368Y-60867232D01*
X80194621Y-60965891D01*
X80199771Y-60981349D01*
X81220228Y-64881766D01*
X81225343Y-64899912D01*
X81231111Y-64917779D01*
X81466163Y-65601565D01*
X81484511Y-65654941D01*
X81498582Y-65695873D01*
X81499996Y-65699934D01*
X81501568Y-65704314D01*
X82915223Y-69591866D01*
X82919634Y-69661596D01*
X82886371Y-69721923D01*
X82818542Y-69789752D01*
X82746071Y-69915275D01*
X82746070Y-69915279D01*
X82708554Y-70055289D01*
X82708554Y-70200239D01*
X82742661Y-70327525D01*
X82746071Y-70340252D01*
X82818542Y-70465775D01*
X82818544Y-70465777D01*
X82818545Y-70465779D01*
X82921039Y-70568273D01*
X82921040Y-70568274D01*
X82921042Y-70568275D01*
X83046565Y-70640746D01*
X83046566Y-70640746D01*
X83046569Y-70640748D01*
X83186579Y-70678264D01*
X83186582Y-70678264D01*
X83331526Y-70678264D01*
X83331529Y-70678264D01*
X83471539Y-70640748D01*
X83597069Y-70568273D01*
X83609197Y-70556144D01*
X83636834Y-70541052D01*
X83663560Y-70524385D01*
X83667266Y-70524435D01*
X83670518Y-70522660D01*
X83701922Y-70524905D01*
X83733423Y-70525332D01*
X83737965Y-70527481D01*
X83740209Y-70527642D01*
X83765326Y-70540428D01*
X83907994Y-70634871D01*
X83946932Y-70676264D01*
X83959490Y-70698014D01*
X83959491Y-70698015D01*
X84061985Y-70800509D01*
X84187515Y-70872984D01*
X84302721Y-70903853D01*
X84339065Y-70920226D01*
X84623309Y-71108387D01*
X84787316Y-71216956D01*
X84832351Y-71270375D01*
X84841357Y-71339662D01*
X84821974Y-71389240D01*
X84813541Y-71401861D01*
X84813533Y-71401875D01*
X84764499Y-71520255D01*
X84764497Y-71520261D01*
X84739500Y-71645928D01*
X84739500Y-71645931D01*
X84739500Y-71774069D01*
X84739500Y-71774071D01*
X84739499Y-71774071D01*
X84764497Y-71899738D01*
X84764500Y-71899748D01*
X84808602Y-72006221D01*
X84816071Y-72075691D01*
X84805498Y-72106093D01*
X84805866Y-72106246D01*
X84754499Y-72230255D01*
X84754497Y-72230261D01*
X84729500Y-72355928D01*
X84729500Y-72355931D01*
X84729500Y-72484069D01*
X84729500Y-72484071D01*
X84729499Y-72484071D01*
X84754497Y-72609738D01*
X84754499Y-72609744D01*
X84803533Y-72728124D01*
X84803538Y-72728133D01*
X84874723Y-72834668D01*
X84874726Y-72834672D01*
X84965327Y-72925273D01*
X84965331Y-72925276D01*
X85071866Y-72996461D01*
X85071875Y-72996466D01*
X85076187Y-72998252D01*
X85190256Y-73045501D01*
X85190260Y-73045501D01*
X85190261Y-73045502D01*
X85315928Y-73070500D01*
X85315931Y-73070500D01*
X85444071Y-73070500D01*
X85528615Y-73053682D01*
X85569744Y-73045501D01*
X85688127Y-72996465D01*
X85713627Y-72979425D01*
X85780301Y-72958549D01*
X85847682Y-72977033D01*
X85851407Y-72979427D01*
X85891866Y-73006461D01*
X85891872Y-73006464D01*
X85891873Y-73006465D01*
X86010256Y-73055501D01*
X86010260Y-73055501D01*
X86010261Y-73055502D01*
X86135928Y-73080500D01*
X86135931Y-73080500D01*
X86264071Y-73080500D01*
X86348615Y-73063682D01*
X86389744Y-73055501D01*
X86508127Y-73006465D01*
X86541109Y-72984426D01*
X86607785Y-72963548D01*
X86675165Y-72982032D01*
X86678868Y-72984412D01*
X86711873Y-73006465D01*
X86830256Y-73055501D01*
X86830260Y-73055501D01*
X86830261Y-73055502D01*
X86955928Y-73080500D01*
X86955931Y-73080500D01*
X87084071Y-73080500D01*
X87168615Y-73063682D01*
X87209744Y-73055501D01*
X87328127Y-73006465D01*
X87340420Y-72998250D01*
X87407093Y-72977370D01*
X87474474Y-72995851D01*
X87477721Y-72997927D01*
X90074506Y-74716926D01*
X90206387Y-74778781D01*
X90350494Y-74799999D01*
X90350496Y-74800000D01*
X90350499Y-74800000D01*
X95539417Y-74800000D01*
X95606456Y-74819685D01*
X95630071Y-74840706D01*
X95630416Y-74840362D01*
X95725327Y-74935273D01*
X95725331Y-74935276D01*
X95831866Y-75006461D01*
X95831872Y-75006464D01*
X95831873Y-75006465D01*
X95950256Y-75055501D01*
X95950260Y-75055501D01*
X95950261Y-75055502D01*
X96075928Y-75080500D01*
X96075931Y-75080500D01*
X96204072Y-75080500D01*
X96222454Y-75076842D01*
X96248849Y-75071592D01*
X96318439Y-75077816D01*
X96323810Y-75080077D01*
X100502300Y-76956135D01*
X100602375Y-76988911D01*
X100707095Y-77000000D01*
X100707104Y-77000000D01*
X106269502Y-77000000D01*
X106269517Y-77000000D01*
X106299915Y-76999073D01*
X106299924Y-76999072D01*
X106299943Y-76999072D01*
X106330272Y-76996293D01*
X111042774Y-76419252D01*
X111189821Y-76377725D01*
X111317460Y-76293727D01*
X113151529Y-74634330D01*
X113163372Y-74624866D01*
X113244689Y-74567685D01*
X113271427Y-74553413D01*
X113357022Y-74520438D01*
X113386426Y-74513082D01*
X113463084Y-74503638D01*
X113485073Y-74500930D01*
X113500233Y-74500000D01*
X116427302Y-74500000D01*
X116550835Y-74484499D01*
X116666708Y-74438959D01*
X116767738Y-74366201D01*
X116847660Y-74270739D01*
X116892003Y-74201890D01*
X116944848Y-74156191D01*
X117014017Y-74146316D01*
X117020437Y-74147417D01*
X117027357Y-74148794D01*
X117035930Y-74150500D01*
X117035931Y-74150500D01*
X117164071Y-74150500D01*
X117248615Y-74133682D01*
X117289744Y-74125501D01*
X117408127Y-74076465D01*
X117514669Y-74005276D01*
X117605276Y-73914669D01*
X117676465Y-73808127D01*
X117725501Y-73689744D01*
X117742173Y-73605931D01*
X117750500Y-73564071D01*
X117750500Y-73435928D01*
X117743093Y-73398692D01*
X117749320Y-73329100D01*
X117792183Y-73273923D01*
X117858072Y-73250678D01*
X117863832Y-73250523D01*
X117864071Y-73250500D01*
X117948615Y-73233682D01*
X117989744Y-73225501D01*
X118108127Y-73176465D01*
X118214669Y-73105276D01*
X118305276Y-73014669D01*
X118376465Y-72908127D01*
X118425501Y-72789744D01*
X118442759Y-72702984D01*
X118450500Y-72664071D01*
X118450500Y-72535928D01*
X118443093Y-72498692D01*
X118449320Y-72429100D01*
X118492183Y-72373923D01*
X118558072Y-72350678D01*
X118564710Y-72350500D01*
X118664071Y-72350500D01*
X118762959Y-72330829D01*
X118789744Y-72325501D01*
X118908127Y-72276465D01*
X119014669Y-72205276D01*
X119105276Y-72114669D01*
X119176465Y-72008127D01*
X119225501Y-71889744D01*
X119237570Y-71829069D01*
X119250500Y-71764071D01*
X119250500Y-71635928D01*
X119225502Y-71510261D01*
X119225501Y-71510260D01*
X119225501Y-71510256D01*
X119176465Y-71391873D01*
X119176464Y-71391872D01*
X119176461Y-71391866D01*
X119105276Y-71285331D01*
X119105273Y-71285327D01*
X119014672Y-71194726D01*
X119014665Y-71194721D01*
X118986116Y-71175644D01*
X118941311Y-71122031D01*
X118932605Y-71052706D01*
X118950757Y-71005404D01*
X119475260Y-70191045D01*
X119633736Y-69944990D01*
X120220358Y-69034182D01*
X120279676Y-68904548D01*
X120300000Y-68763444D01*
X120300000Y-63708125D01*
X120301061Y-63691940D01*
X120314906Y-63586776D01*
X120323284Y-63555508D01*
X120360740Y-63465081D01*
X120376923Y-63437050D01*
X120436513Y-63359392D01*
X120459392Y-63336513D01*
X120537050Y-63276923D01*
X120565079Y-63260740D01*
X120655509Y-63223283D01*
X120686775Y-63214906D01*
X120791941Y-63201061D01*
X120808126Y-63200000D01*
X126249535Y-63200000D01*
X126316574Y-63219685D01*
X126362329Y-63272489D01*
X126372273Y-63341647D01*
X126371860Y-63344306D01*
X126365101Y-63385005D01*
X126310748Y-63712262D01*
X126309859Y-63717036D01*
X126106785Y-64699871D01*
X126105709Y-64704607D01*
X125864311Y-65678696D01*
X125863051Y-65683387D01*
X125583682Y-66647301D01*
X125582239Y-66651938D01*
X125265334Y-67604184D01*
X125263710Y-67608762D01*
X124909766Y-68547840D01*
X124907964Y-68552351D01*
X124517511Y-69476860D01*
X124515534Y-69481296D01*
X124089182Y-70389790D01*
X124087033Y-70394146D01*
X123625421Y-71285264D01*
X123623103Y-71289532D01*
X123126954Y-72161876D01*
X123124471Y-72166050D01*
X122594528Y-73018317D01*
X122591883Y-73022390D01*
X122028978Y-73853236D01*
X122026175Y-73857203D01*
X121431179Y-74665349D01*
X121428224Y-74669203D01*
X120802014Y-75453456D01*
X120798909Y-75457192D01*
X120142481Y-76216303D01*
X120139233Y-76219914D01*
X119453573Y-76952744D01*
X119450186Y-76956225D01*
X118736343Y-77661652D01*
X118732822Y-77664997D01*
X117991923Y-78341906D01*
X117988274Y-78345111D01*
X117221427Y-78992494D01*
X117217655Y-78995554D01*
X116426043Y-79612411D01*
X116422154Y-79615321D01*
X115606982Y-80200709D01*
X115602982Y-80203464D01*
X114765531Y-80756466D01*
X114761426Y-80759063D01*
X113902951Y-81278852D01*
X113898748Y-81281286D01*
X113020564Y-81767063D01*
X113016269Y-81769330D01*
X112129927Y-82215217D01*
X112061192Y-82227760D01*
X111996588Y-82201151D01*
X111956625Y-82143838D01*
X111953992Y-82074018D01*
X111956258Y-82066163D01*
X111994709Y-81947826D01*
X112004443Y-81886365D01*
X112025500Y-81753422D01*
X112025500Y-81556577D01*
X111994709Y-81362173D01*
X111962621Y-81263417D01*
X111933884Y-81174975D01*
X111933882Y-81174972D01*
X111933882Y-81174970D01*
X111844523Y-80999594D01*
X111728828Y-80840354D01*
X111589646Y-80701172D01*
X111430405Y-80585476D01*
X111255029Y-80496117D01*
X111067826Y-80435290D01*
X110873422Y-80404500D01*
X110873417Y-80404500D01*
X110676583Y-80404500D01*
X110676578Y-80404500D01*
X110482173Y-80435290D01*
X110294970Y-80496117D01*
X110119594Y-80585476D01*
X110028741Y-80651485D01*
X109960354Y-80701172D01*
X109960352Y-80701174D01*
X109960351Y-80701174D01*
X109821174Y-80840351D01*
X109821174Y-80840352D01*
X109821172Y-80840354D01*
X109771485Y-80908741D01*
X109705476Y-80999594D01*
X109616117Y-81174970D01*
X109555290Y-81362173D01*
X109524500Y-81556577D01*
X109524500Y-81753422D01*
X109555290Y-81947826D01*
X109616117Y-82135029D01*
X109705476Y-82310405D01*
X109821172Y-82469646D01*
X109960354Y-82608828D01*
X110019259Y-82651625D01*
X110119596Y-82724525D01*
X110265131Y-82798678D01*
X110315928Y-82846652D01*
X110332723Y-82914473D01*
X110310186Y-82980608D01*
X110255471Y-83024060D01*
X110251191Y-83025705D01*
X109320607Y-83363898D01*
X109316011Y-83365468D01*
X108360066Y-83671061D01*
X108355411Y-83672449D01*
X107388248Y-83940366D01*
X107383543Y-83941570D01*
X106406665Y-84171399D01*
X106401916Y-84172419D01*
X105633858Y-84321640D01*
X105564295Y-84315102D01*
X105518944Y-84283861D01*
X105424410Y-84181084D01*
X105424395Y-84181070D01*
X105230673Y-84020478D01*
X105230663Y-84020471D01*
X105230662Y-84020470D01*
X105040223Y-83901821D01*
X105017072Y-83887397D01*
X105017069Y-83887396D01*
X105017065Y-83887393D01*
X104787503Y-83784272D01*
X104716914Y-83763422D01*
X104546158Y-83712985D01*
X104546147Y-83712982D01*
X104297408Y-83674822D01*
X104122152Y-83671800D01*
X104045778Y-83670483D01*
X104045777Y-83670483D01*
X104045774Y-83670483D01*
X103795869Y-83700045D01*
X103795860Y-83700046D01*
X103596984Y-83751407D01*
X103552194Y-83762975D01*
X103552192Y-83762975D01*
X103552191Y-83762976D01*
X103552183Y-83762978D01*
X103319213Y-83858120D01*
X103319208Y-83858123D01*
X103101154Y-83983757D01*
X102901994Y-84137589D01*
X102901978Y-84137603D01*
X102725346Y-84316823D01*
X102725339Y-84316831D01*
X102574414Y-84518217D01*
X102574406Y-84518229D01*
X102510111Y-84633672D01*
X102460294Y-84682662D01*
X102403770Y-84697321D01*
X101696579Y-84708672D01*
X101693854Y-84708686D01*
X101439917Y-84707181D01*
X101372995Y-84687099D01*
X101327554Y-84634025D01*
X101318021Y-84564809D01*
X101347422Y-84501426D01*
X101352943Y-84495530D01*
X101368828Y-84479646D01*
X101484524Y-84320405D01*
X101573884Y-84145025D01*
X101634709Y-83957826D01*
X101643579Y-83901821D01*
X101665500Y-83763422D01*
X101665500Y-83566577D01*
X101634709Y-83372173D01*
X101573882Y-83184970D01*
X101518643Y-83076557D01*
X101484524Y-83009595D01*
X101368828Y-82850354D01*
X101229646Y-82711172D01*
X101070405Y-82595476D01*
X100895029Y-82506117D01*
X100707826Y-82445290D01*
X100513422Y-82414500D01*
X100513417Y-82414500D01*
X100316583Y-82414500D01*
X100316578Y-82414500D01*
X100122173Y-82445290D01*
X99934970Y-82506117D01*
X99759594Y-82595476D01*
X99682316Y-82651623D01*
X99600354Y-82711172D01*
X99600352Y-82711174D01*
X99600351Y-82711174D01*
X99461174Y-82850351D01*
X99461174Y-82850352D01*
X99461172Y-82850354D01*
X99443477Y-82874709D01*
X99345476Y-83009594D01*
X99256117Y-83184970D01*
X99195290Y-83372173D01*
X99164500Y-83566577D01*
X99164500Y-83763422D01*
X99195290Y-83957826D01*
X99256117Y-84145029D01*
X99345476Y-84320405D01*
X99444266Y-84456377D01*
X99467746Y-84522184D01*
X99451921Y-84590238D01*
X99401815Y-84638933D01*
X99337765Y-84653109D01*
X98875014Y-84630007D01*
X98872294Y-84629841D01*
X98124735Y-84576030D01*
X98059282Y-84551583D01*
X98028333Y-84517823D01*
X98025735Y-84513644D01*
X98025730Y-84513638D01*
X97788628Y-84196898D01*
X97788626Y-84196896D01*
X97788621Y-84196889D01*
X97598214Y-83983757D01*
X97525018Y-83901824D01*
X97525015Y-83901821D01*
X97509685Y-83887393D01*
X97236886Y-83630643D01*
X96926395Y-83385389D01*
X96926389Y-83385384D01*
X96621822Y-83184975D01*
X96595864Y-83167894D01*
X96247769Y-82979787D01*
X96247766Y-82979786D01*
X96247763Y-82979784D01*
X96247764Y-82979784D01*
X95884726Y-82822479D01*
X95884720Y-82822476D01*
X95884716Y-82822475D01*
X95509423Y-82697137D01*
X95124700Y-82604712D01*
X95124692Y-82604710D01*
X95124689Y-82604710D01*
X94733428Y-82545890D01*
X94338535Y-82521113D01*
X94338534Y-82521113D01*
X93942977Y-82530566D01*
X93942968Y-82530567D01*
X93942957Y-82530567D01*
X93549731Y-82574175D01*
X93161691Y-82651625D01*
X92812327Y-82753434D01*
X92781832Y-82762321D01*
X92781827Y-82762323D01*
X92412948Y-82905444D01*
X92057839Y-83079912D01*
X92057826Y-83079920D01*
X92048037Y-83085827D01*
X91980468Y-83103609D01*
X91938873Y-83095167D01*
X91899814Y-83079917D01*
X91760966Y-83025705D01*
X91170787Y-82795276D01*
X91166298Y-82793421D01*
X90656274Y-82570895D01*
X90602701Y-82526044D01*
X90581880Y-82459349D01*
X90600423Y-82391985D01*
X90652441Y-82345339D01*
X90667535Y-82339314D01*
X90715025Y-82323884D01*
X90890405Y-82234524D01*
X91049646Y-82118828D01*
X91188828Y-81979646D01*
X91304524Y-81820405D01*
X91393884Y-81645025D01*
X91454709Y-81457826D01*
X91469859Y-81362173D01*
X91485500Y-81263422D01*
X91485500Y-81066577D01*
X91454709Y-80872173D01*
X91399147Y-80701174D01*
X91393884Y-80684975D01*
X91393882Y-80684972D01*
X91393882Y-80684970D01*
X91304523Y-80509594D01*
X91188828Y-80350354D01*
X91049646Y-80211172D01*
X90890405Y-80095476D01*
X90715029Y-80006117D01*
X90527826Y-79945290D01*
X90333422Y-79914500D01*
X90333417Y-79914500D01*
X90136583Y-79914500D01*
X90136578Y-79914500D01*
X89942173Y-79945290D01*
X89754970Y-80006117D01*
X89579594Y-80095476D01*
X89488741Y-80161485D01*
X89420354Y-80211172D01*
X89420352Y-80211174D01*
X89420351Y-80211174D01*
X89281174Y-80350351D01*
X89281174Y-80350352D01*
X89281172Y-80350354D01*
X89231485Y-80418741D01*
X89165476Y-80509594D01*
X89076117Y-80684970D01*
X89015290Y-80872173D01*
X88984500Y-81066577D01*
X88984500Y-81263422D01*
X89015290Y-81457826D01*
X89047214Y-81556074D01*
X89049209Y-81625915D01*
X89013129Y-81685748D01*
X88950428Y-81716577D01*
X88881014Y-81708613D01*
X88870953Y-81703817D01*
X88448716Y-81478736D01*
X88444475Y-81476368D01*
X87578012Y-80969945D01*
X87573868Y-80967412D01*
X86727936Y-80427468D01*
X86723917Y-80424791D01*
X85899747Y-79852110D01*
X85895824Y-79849268D01*
X85094728Y-79244763D01*
X85090909Y-79241762D01*
X84314105Y-78606350D01*
X84310407Y-78603202D01*
X83559092Y-77937866D01*
X83555519Y-77934575D01*
X83239278Y-77631615D01*
X82830810Y-77240301D01*
X82827409Y-77236913D01*
X82130443Y-76514790D01*
X82127140Y-76511231D01*
X81458991Y-75762370D01*
X81455830Y-75758683D01*
X81002057Y-75208127D01*
X80817556Y-74984274D01*
X80814566Y-74980500D01*
X80207047Y-74181609D01*
X80204186Y-74177689D01*
X80158089Y-74111873D01*
X79628467Y-73355687D01*
X79625763Y-73351661D01*
X79082660Y-72507719D01*
X79080121Y-72503598D01*
X79076526Y-72497500D01*
X78574551Y-71645931D01*
X78570491Y-71639043D01*
X78568107Y-71634811D01*
X78092734Y-70750981D01*
X78090517Y-70746659D01*
X77699007Y-69944990D01*
X77650102Y-69844850D01*
X77648062Y-69840455D01*
X77587037Y-69701996D01*
X77282159Y-69010256D01*
X77243313Y-68922117D01*
X77241442Y-68917635D01*
X77122487Y-68616280D01*
X76872963Y-67984144D01*
X76871290Y-67979651D01*
X76539628Y-67032378D01*
X76538142Y-67027850D01*
X76243827Y-66068305D01*
X76242513Y-66063699D01*
X75986018Y-65093422D01*
X75984869Y-65088703D01*
X75921706Y-64805276D01*
X75766568Y-64109132D01*
X75765609Y-64104391D01*
X75763801Y-64094463D01*
X75585847Y-63117068D01*
X75585071Y-63112277D01*
X75546016Y-62836985D01*
X75444103Y-62118613D01*
X75443521Y-62113841D01*
X75341569Y-61115362D01*
X75341179Y-61110619D01*
X75317437Y-60731753D01*
X75332890Y-60663616D01*
X75382729Y-60614648D01*
X75441194Y-60600000D01*
X79705818Y-60600000D01*
X79722075Y-60601070D01*
G37*
%TD.AperFunction*%
%TD*%
%TA.AperFunction,Conductor*%
%TO.N,/LED_GREEN*%
G36*
X94989847Y-54760323D02*
G01*
X94990398Y-54761076D01*
X95149680Y-54998036D01*
X95151453Y-55002318D01*
X95205822Y-55280402D01*
X95204046Y-55289179D01*
X95196584Y-55294130D01*
X95194432Y-55294347D01*
X94619681Y-55298906D01*
X94611381Y-55295545D01*
X94607888Y-55287299D01*
X94607888Y-55054645D01*
X94611315Y-55046372D01*
X94612302Y-55045490D01*
X94973410Y-54758443D01*
X94982016Y-54755979D01*
X94989847Y-54760323D01*
G37*
%TD.AperFunction*%
%TD*%
%TA.AperFunction,Conductor*%
%TO.N,/LED_RED*%
G36*
X79060929Y-59699682D02*
G01*
X79576060Y-59862418D01*
X79582917Y-59868178D01*
X79584236Y-59873575D01*
X79584236Y-60106426D01*
X79580809Y-60114699D01*
X79576060Y-60117583D01*
X79060937Y-60280316D01*
X79052016Y-60279540D01*
X79046256Y-60272683D01*
X79045949Y-60271495D01*
X78989469Y-59992319D01*
X78989469Y-59987681D01*
X79012554Y-59873575D01*
X79045946Y-59708519D01*
X79050945Y-59701093D01*
X79059733Y-59699374D01*
X79060929Y-59699682D01*
G37*
%TD.AperFunction*%
%TD*%
%TA.AperFunction,Conductor*%
%TO.N,/LED_RED*%
G36*
X95629100Y-55335460D02*
G01*
X95634860Y-55342317D01*
X95635171Y-55343521D01*
X95691647Y-55622680D01*
X95691647Y-55627320D01*
X95635171Y-55906478D01*
X95630171Y-55913907D01*
X95621383Y-55915626D01*
X95620179Y-55915315D01*
X95105057Y-55752582D01*
X95098200Y-55746822D01*
X95096881Y-55741425D01*
X95096881Y-55512235D01*
X95098576Y-55508142D01*
X95100244Y-55504027D01*
X95100288Y-55504007D01*
X95100308Y-55503962D01*
X95108488Y-55500535D01*
X95112927Y-55500500D01*
X95112983Y-55500500D01*
X95215893Y-55500500D01*
X95215893Y-55500499D01*
X95279539Y-55483446D01*
X95343184Y-55466393D01*
X95343188Y-55466391D01*
X95398485Y-55434465D01*
X95457314Y-55400500D01*
X95476294Y-55381519D01*
X95481033Y-55378642D01*
X95620180Y-55334684D01*
X95629100Y-55335460D01*
G37*
%TD.AperFunction*%
%TD*%
%TA.AperFunction,Conductor*%
%TO.N,/CANL*%
G36*
X85609294Y-56398908D02*
G01*
X85612371Y-56401118D01*
X85778881Y-56567628D01*
X85782308Y-56575901D01*
X85781695Y-56579639D01*
X85279067Y-58070355D01*
X85273176Y-58077100D01*
X85265707Y-58078094D01*
X84301975Y-57887228D01*
X84294525Y-57882259D01*
X84292771Y-57878024D01*
X84101905Y-56914290D01*
X84103659Y-56905511D01*
X84109641Y-56900933D01*
X85600360Y-56398304D01*
X85609294Y-56398908D01*
G37*
%TD.AperFunction*%
%TD*%
%TA.AperFunction,Conductor*%
%TO.N,/CANH*%
G36*
X82782720Y-54978524D02*
G01*
X84523048Y-55572297D01*
X84529771Y-55578212D01*
X84530970Y-55583370D01*
X84530970Y-55818841D01*
X84527543Y-55827114D01*
X84525892Y-55828486D01*
X83140329Y-56779769D01*
X83131569Y-56781627D01*
X83124062Y-56776746D01*
X83124013Y-56776674D01*
X82576701Y-55959036D01*
X82574948Y-55950256D01*
X82767473Y-54987301D01*
X82772454Y-54979863D01*
X82781239Y-54978125D01*
X82782720Y-54978524D01*
G37*
%TD.AperFunction*%
%TD*%
%TA.AperFunction,Conductor*%
%TO.N,/CANH*%
G36*
X111158242Y-37564644D02*
G01*
X111159020Y-37565117D01*
X111391059Y-37719067D01*
X111396655Y-37722780D01*
X111399936Y-37726061D01*
X111557197Y-37963092D01*
X111558916Y-37971880D01*
X111553916Y-37979309D01*
X111552562Y-37980083D01*
X111062257Y-38218371D01*
X111053318Y-38218905D01*
X111048870Y-38216121D01*
X110884225Y-38051476D01*
X110880798Y-38043203D01*
X110882268Y-38037525D01*
X111142334Y-37569191D01*
X111149346Y-37563624D01*
X111158242Y-37564644D01*
G37*
%TD.AperFunction*%
%TD*%
%TA.AperFunction,Conductor*%
%TO.N,/CANH*%
G36*
X87795912Y-55023353D02*
G01*
X87803369Y-55028305D01*
X87803409Y-55028365D01*
X87960880Y-55265713D01*
X87962599Y-55274501D01*
X87958634Y-55281158D01*
X87583011Y-55595112D01*
X87574466Y-55597788D01*
X87567235Y-55594408D01*
X87402631Y-55429804D01*
X87399204Y-55421531D01*
X87399513Y-55418860D01*
X87503186Y-54977445D01*
X87508414Y-54970176D01*
X87516824Y-54968641D01*
X87795912Y-55023353D01*
G37*
%TD.AperFunction*%
%TD*%
%TA.AperFunction,Conductor*%
%TO.N,/CANL*%
G36*
X110802275Y-38781834D02*
G01*
X110803342Y-38782463D01*
X111029361Y-38932419D01*
X111040676Y-38939926D01*
X111043957Y-38943207D01*
X111201417Y-39180537D01*
X111203136Y-39189325D01*
X111198136Y-39196754D01*
X111197065Y-39197386D01*
X110717750Y-39446563D01*
X110708829Y-39447339D01*
X110704080Y-39444455D01*
X110539428Y-39279803D01*
X110536001Y-39271530D01*
X110537319Y-39266136D01*
X110786499Y-38786816D01*
X110793354Y-38781058D01*
X110802275Y-38781834D01*
G37*
%TD.AperFunction*%
%TD*%
%TA.AperFunction,Conductor*%
%TO.N,/CANL*%
G36*
X87475805Y-56295377D02*
G01*
X87955123Y-56544556D01*
X87960883Y-56551412D01*
X87960107Y-56560333D01*
X87959475Y-56561404D01*
X87802015Y-56798734D01*
X87798734Y-56802015D01*
X87561404Y-56959475D01*
X87552616Y-56961194D01*
X87545187Y-56956194D01*
X87544560Y-56955132D01*
X87295377Y-56475806D01*
X87294602Y-56466887D01*
X87297484Y-56462140D01*
X87462139Y-56297485D01*
X87470411Y-56294059D01*
X87475805Y-56295377D01*
G37*
%TD.AperFunction*%
%TD*%
%TA.AperFunction,Conductor*%
%TO.N,/U1_RX_FAULT*%
G36*
X80559699Y-50014191D02*
G01*
X80562583Y-50018940D01*
X80725315Y-50534062D01*
X80724539Y-50542983D01*
X80717682Y-50548743D01*
X80716478Y-50549054D01*
X80437320Y-50605530D01*
X80432680Y-50605530D01*
X80199553Y-50558366D01*
X80153520Y-50549053D01*
X80146092Y-50544054D01*
X80144373Y-50535266D01*
X80144680Y-50534075D01*
X80307417Y-50018939D01*
X80313177Y-50012083D01*
X80318574Y-50010764D01*
X80551426Y-50010764D01*
X80559699Y-50014191D01*
G37*
%TD.AperFunction*%
%TD*%
%TA.AperFunction,Conductor*%
%TO.N,/U1_RX_FAULT*%
G36*
X93561333Y-38969892D02*
G01*
X93562400Y-38970521D01*
X93788419Y-39120477D01*
X93799734Y-39127984D01*
X93803015Y-39131265D01*
X93960475Y-39368595D01*
X93962194Y-39377383D01*
X93957194Y-39384812D01*
X93956123Y-39385444D01*
X93476808Y-39634621D01*
X93467887Y-39635397D01*
X93463138Y-39632513D01*
X93298486Y-39467861D01*
X93295059Y-39459588D01*
X93296377Y-39454194D01*
X93545557Y-38974874D01*
X93552412Y-38969116D01*
X93561333Y-38969892D01*
G37*
%TD.AperFunction*%
%TD*%
%TA.AperFunction,Conductor*%
%TO.N,/U1_TX_SERVO*%
G36*
X82244775Y-51104191D02*
G01*
X82247628Y-51108845D01*
X82415175Y-51623988D01*
X82414475Y-51632916D01*
X82407668Y-51638733D01*
X82406369Y-51639075D01*
X82127320Y-51695530D01*
X82122680Y-51695530D01*
X81843412Y-51639031D01*
X81835983Y-51634031D01*
X81834264Y-51625243D01*
X81834541Y-51624150D01*
X81992464Y-51109034D01*
X81998165Y-51102129D01*
X82003650Y-51100764D01*
X82236502Y-51100764D01*
X82244775Y-51104191D01*
G37*
%TD.AperFunction*%
%TD*%
%TA.AperFunction,Conductor*%
%TO.N,/U1_TX_SERVO*%
G36*
X94591254Y-39033353D02*
G01*
X94598711Y-39038305D01*
X94703265Y-39195894D01*
X94756307Y-39275840D01*
X94758026Y-39284628D01*
X94754192Y-39291174D01*
X94386119Y-39608098D01*
X94377614Y-39610900D01*
X94370212Y-39607505D01*
X94207306Y-39444599D01*
X94203879Y-39436326D01*
X94205446Y-39430479D01*
X94267392Y-39323186D01*
X94277724Y-39284628D01*
X94301499Y-39195894D01*
X94301500Y-39195893D01*
X94301500Y-39064107D01*
X94301499Y-39064105D01*
X94291522Y-39026869D01*
X94291388Y-39021366D01*
X94298679Y-38987684D01*
X94303777Y-38980325D01*
X94312364Y-38978680D01*
X94591254Y-39033353D01*
G37*
%TD.AperFunction*%
%TD*%
%TA.AperFunction,Conductor*%
%TO.N,/USB_DM*%
G36*
X98819279Y-39709517D02*
G01*
X98823642Y-39716492D01*
X98880030Y-39995213D01*
X98878311Y-40004001D01*
X98878272Y-40004060D01*
X98719285Y-40240582D01*
X98711826Y-40245536D01*
X98703961Y-40244320D01*
X98309030Y-40028328D01*
X98303416Y-40021352D01*
X98302944Y-40018063D01*
X98302944Y-39785241D01*
X98306371Y-39776968D01*
X98313094Y-39773644D01*
X98810626Y-39707215D01*
X98819279Y-39709517D01*
G37*
%TD.AperFunction*%
%TD*%
%TA.AperFunction,Conductor*%
%TO.N,/USB_DM*%
G36*
X81457461Y-54278526D02*
G01*
X81461108Y-54286704D01*
X81461112Y-54287017D01*
X81461112Y-54519585D01*
X81457685Y-54527858D01*
X81456985Y-54528504D01*
X81106650Y-54825967D01*
X81098125Y-54828709D01*
X81090158Y-54824621D01*
X81089367Y-54823575D01*
X80930318Y-54586961D01*
X80928547Y-54582683D01*
X80874126Y-54304334D01*
X80875902Y-54295558D01*
X80883364Y-54290607D01*
X80885290Y-54290394D01*
X81449099Y-54275321D01*
X81457461Y-54278526D01*
G37*
%TD.AperFunction*%
%TD*%
%TA.AperFunction,Conductor*%
%TO.N,/USB_DP*%
G36*
X81190963Y-53437859D02*
G01*
X81384765Y-53721012D01*
X81386810Y-53727620D01*
X81386810Y-53960196D01*
X81383383Y-53968469D01*
X81375110Y-53971896D01*
X81373193Y-53971738D01*
X80888348Y-53891208D01*
X80880748Y-53886472D01*
X80878723Y-53877749D01*
X80878770Y-53877484D01*
X80933063Y-53599788D01*
X80938013Y-53592329D01*
X81174827Y-53434726D01*
X81183612Y-53432996D01*
X81190963Y-53437859D01*
G37*
%TD.AperFunction*%
%TD*%
%TA.AperFunction,Conductor*%
%TO.N,/USB_DP*%
G36*
X98719555Y-38959822D02*
G01*
X98878272Y-39195942D01*
X98880043Y-39204720D01*
X98880030Y-39204789D01*
X98823567Y-39483884D01*
X98818567Y-39491313D01*
X98810962Y-39493209D01*
X98321530Y-39445403D01*
X98313629Y-39441188D01*
X98310967Y-39433758D01*
X98310967Y-39200962D01*
X98314394Y-39192689D01*
X98316604Y-39190956D01*
X98703784Y-38956342D01*
X98712633Y-38954986D01*
X98719555Y-38959822D01*
G37*
%TD.AperFunction*%
%TD*%
%TA.AperFunction,Conductor*%
%TO.N,/L1*%
G36*
X90227861Y-68357486D02*
G01*
X90392513Y-68522138D01*
X90395940Y-68530411D01*
X90394621Y-68535808D01*
X90145444Y-69015123D01*
X90138587Y-69020883D01*
X90129666Y-69020107D01*
X90128595Y-69019475D01*
X89891265Y-68862015D01*
X89887984Y-68858734D01*
X89730524Y-68621404D01*
X89728805Y-68612616D01*
X89733805Y-68605187D01*
X89734859Y-68604564D01*
X90214193Y-68355377D01*
X90223112Y-68354602D01*
X90227861Y-68357486D01*
G37*
%TD.AperFunction*%
%TD*%
%TA.AperFunction,Conductor*%
%TO.N,/L1*%
G36*
X96837626Y-44905946D02*
G01*
X96845054Y-44910945D01*
X96846773Y-44919733D01*
X96846462Y-44920937D01*
X96683730Y-45436060D01*
X96677970Y-45442917D01*
X96672573Y-45444236D01*
X96439721Y-45444236D01*
X96431448Y-45440809D01*
X96428564Y-45436060D01*
X96265831Y-44920937D01*
X96266607Y-44912016D01*
X96273464Y-44906256D01*
X96274647Y-44905950D01*
X96553829Y-44849469D01*
X96558465Y-44849469D01*
X96837626Y-44905946D01*
G37*
%TD.AperFunction*%
%TD*%
%TA.AperFunction,Conductor*%
%TO.N,/H1*%
G36*
X91552861Y-68307486D02*
G01*
X91717513Y-68472138D01*
X91720940Y-68480411D01*
X91719621Y-68485808D01*
X91470444Y-68965123D01*
X91463587Y-68970883D01*
X91454666Y-68970107D01*
X91453595Y-68969475D01*
X91216265Y-68812015D01*
X91212984Y-68808734D01*
X91055524Y-68571404D01*
X91053805Y-68562616D01*
X91058805Y-68555187D01*
X91059859Y-68554564D01*
X91539193Y-68305377D01*
X91548112Y-68304602D01*
X91552861Y-68307486D01*
G37*
%TD.AperFunction*%
%TD*%
%TA.AperFunction,Conductor*%
%TO.N,/H1*%
G36*
X97635333Y-43064892D02*
G01*
X97636400Y-43065521D01*
X97862419Y-43215477D01*
X97873734Y-43222984D01*
X97877015Y-43226265D01*
X98034475Y-43463595D01*
X98036194Y-43472383D01*
X98031194Y-43479812D01*
X98030123Y-43480444D01*
X97550808Y-43729621D01*
X97541887Y-43730397D01*
X97537138Y-43727513D01*
X97372486Y-43562861D01*
X97369059Y-43554588D01*
X97370377Y-43549194D01*
X97619557Y-43069874D01*
X97626412Y-43064116D01*
X97635333Y-43064892D01*
G37*
%TD.AperFunction*%
%TD*%
%TA.AperFunction,Conductor*%
%TO.N,/L3*%
G36*
X110502512Y-67110670D02*
G01*
X110981830Y-67359849D01*
X110987590Y-67366705D01*
X110986814Y-67375626D01*
X110986182Y-67376697D01*
X110828722Y-67614027D01*
X110825441Y-67617308D01*
X110588111Y-67774768D01*
X110579323Y-67776487D01*
X110571894Y-67771487D01*
X110571267Y-67770425D01*
X110322084Y-67291099D01*
X110321309Y-67282180D01*
X110324191Y-67277433D01*
X110488846Y-67112778D01*
X110497118Y-67109352D01*
X110502512Y-67110670D01*
G37*
%TD.AperFunction*%
%TD*%
%TA.AperFunction,Conductor*%
%TO.N,/L3*%
G36*
X102496479Y-44451768D02*
G01*
X102503907Y-44456767D01*
X102505626Y-44465555D01*
X102505315Y-44466759D01*
X102342583Y-44981882D01*
X102336823Y-44988739D01*
X102331426Y-44990058D01*
X102098574Y-44990058D01*
X102090301Y-44986631D01*
X102087417Y-44981882D01*
X101924684Y-44466759D01*
X101925460Y-44457838D01*
X101932317Y-44452078D01*
X101933500Y-44451772D01*
X102212682Y-44395291D01*
X102217318Y-44395291D01*
X102496479Y-44451768D01*
G37*
%TD.AperFunction*%
%TD*%
%TA.AperFunction,Conductor*%
%TO.N,/L2*%
G36*
X100177771Y-69934905D02*
G01*
X100368104Y-70100052D01*
X100543906Y-70252592D01*
X100547909Y-70260602D01*
X100545987Y-70267897D01*
X100388410Y-70505405D01*
X100380981Y-70510404D01*
X100380937Y-70510413D01*
X100380912Y-70510418D01*
X100102074Y-70565080D01*
X100093296Y-70563309D01*
X100088377Y-70556023D01*
X100027358Y-70267897D01*
X99994077Y-70110746D01*
X99995715Y-70101945D01*
X99997245Y-70100057D01*
X100161833Y-69935469D01*
X100170105Y-69932043D01*
X100177771Y-69934905D01*
G37*
%TD.AperFunction*%
%TD*%
%TA.AperFunction,Conductor*%
%TO.N,/L2*%
G36*
X98156479Y-44285946D02*
G01*
X98163907Y-44290945D01*
X98165626Y-44299733D01*
X98165315Y-44300937D01*
X98002583Y-44816060D01*
X97996823Y-44822917D01*
X97991426Y-44824236D01*
X97758574Y-44824236D01*
X97750301Y-44820809D01*
X97747417Y-44816060D01*
X97584684Y-44300937D01*
X97585460Y-44292016D01*
X97592317Y-44286256D01*
X97593500Y-44285950D01*
X97872682Y-44229469D01*
X97877318Y-44229469D01*
X98156479Y-44285946D01*
G37*
%TD.AperFunction*%
%TD*%
%TA.AperFunction,Conductor*%
%TO.N,/H3*%
G36*
X111308996Y-67033450D02*
G01*
X111743529Y-67271908D01*
X111779314Y-67291546D01*
X111784918Y-67298530D01*
X111783942Y-67307432D01*
X111783434Y-67308271D01*
X111625814Y-67545843D01*
X111622533Y-67549124D01*
X111385448Y-67706421D01*
X111376660Y-67708140D01*
X111369231Y-67703140D01*
X111368482Y-67701837D01*
X111328409Y-67620390D01*
X111327207Y-67615225D01*
X111327207Y-67549400D01*
X111327206Y-67549398D01*
X111326253Y-67545843D01*
X111319998Y-67522497D01*
X111293100Y-67422108D01*
X111293098Y-67422104D01*
X111227209Y-67307982D01*
X111227205Y-67307977D01*
X111133479Y-67214251D01*
X111133709Y-67214020D01*
X111129783Y-67207225D01*
X111132099Y-67198575D01*
X111133102Y-67197430D01*
X111295098Y-67035434D01*
X111303370Y-67032008D01*
X111308996Y-67033450D01*
G37*
%TD.AperFunction*%
%TD*%
%TA.AperFunction,Conductor*%
%TO.N,/H3*%
G36*
X102544812Y-40373805D02*
G01*
X102545444Y-40374876D01*
X102794621Y-40854191D01*
X102795397Y-40863112D01*
X102792513Y-40867861D01*
X102627861Y-41032513D01*
X102619588Y-41035940D01*
X102614191Y-41034621D01*
X102134876Y-40785444D01*
X102129116Y-40778587D01*
X102129892Y-40769666D01*
X102130516Y-40768607D01*
X102287985Y-40531263D01*
X102291263Y-40527985D01*
X102528596Y-40370523D01*
X102537383Y-40368805D01*
X102544812Y-40373805D01*
G37*
%TD.AperFunction*%
%TD*%
%TA.AperFunction,Conductor*%
%TO.N,/H2*%
G36*
X101060946Y-69920815D02*
G01*
X101525755Y-70184369D01*
X101531261Y-70191431D01*
X101530162Y-70200318D01*
X101529733Y-70201015D01*
X101372015Y-70438734D01*
X101368734Y-70442015D01*
X101131800Y-70599212D01*
X101123012Y-70600931D01*
X101115583Y-70595931D01*
X101114766Y-70594487D01*
X101042271Y-70442015D01*
X100879968Y-70100656D01*
X100879511Y-70091716D01*
X100882260Y-70087364D01*
X101046904Y-69922720D01*
X101055176Y-69919294D01*
X101060946Y-69920815D01*
G37*
%TD.AperFunction*%
%TD*%
%TA.AperFunction,Conductor*%
%TO.N,/H2*%
G36*
X98387847Y-41883027D02*
G01*
X98396537Y-41884785D01*
X98666837Y-41939469D01*
X98674266Y-41944469D01*
X98676150Y-41952191D01*
X98623148Y-42443885D01*
X98618854Y-42451743D01*
X98611515Y-42454331D01*
X98378708Y-42454331D01*
X98370435Y-42450904D01*
X98368628Y-42448571D01*
X98139214Y-42059228D01*
X98137966Y-42050360D01*
X98142766Y-42043578D01*
X98379001Y-41884784D01*
X98387778Y-41883014D01*
X98387847Y-41883027D01*
G37*
%TD.AperFunction*%
%TD*%
%TA.AperFunction,Conductor*%
%TO.N,/CAN_RX*%
G36*
X105807983Y-38120460D02*
G01*
X105813743Y-38127317D01*
X105814054Y-38128521D01*
X105870530Y-38407680D01*
X105870530Y-38412320D01*
X105814054Y-38691478D01*
X105809054Y-38698907D01*
X105800266Y-38700626D01*
X105799062Y-38700315D01*
X105283940Y-38537582D01*
X105277083Y-38531822D01*
X105275764Y-38526425D01*
X105275764Y-38293574D01*
X105279191Y-38285301D01*
X105283940Y-38282417D01*
X105799063Y-38119684D01*
X105807983Y-38120460D01*
G37*
%TD.AperFunction*%
%TD*%
%TA.AperFunction,Conductor*%
%TO.N,/CAN_RX*%
G36*
X93364090Y-38119681D02*
G01*
X93879221Y-38282417D01*
X93886078Y-38288177D01*
X93887397Y-38293574D01*
X93887397Y-38526425D01*
X93883970Y-38534698D01*
X93879221Y-38537582D01*
X93364098Y-38700315D01*
X93355177Y-38699539D01*
X93349417Y-38692682D01*
X93349110Y-38691494D01*
X93292630Y-38412318D01*
X93292630Y-38407680D01*
X93315715Y-38293574D01*
X93349107Y-38128518D01*
X93354106Y-38121092D01*
X93362894Y-38119373D01*
X93364090Y-38119681D01*
G37*
%TD.AperFunction*%
%TD*%
%TA.AperFunction,Conductor*%
%TO.N,/CAN_TX*%
G36*
X106940333Y-34679892D02*
G01*
X106941400Y-34680521D01*
X107167419Y-34830477D01*
X107178734Y-34837984D01*
X107182015Y-34841265D01*
X107339475Y-35078595D01*
X107341194Y-35087383D01*
X107336194Y-35094812D01*
X107335123Y-35095444D01*
X106855808Y-35344621D01*
X106846887Y-35345397D01*
X106842138Y-35342513D01*
X106677486Y-35177861D01*
X106674059Y-35169588D01*
X106675377Y-35164194D01*
X106924557Y-34684874D01*
X106931412Y-34679116D01*
X106940333Y-34679892D01*
G37*
%TD.AperFunction*%
%TD*%
%TA.AperFunction,Conductor*%
%TO.N,/CAN_TX*%
G36*
X92360929Y-37446583D02*
G01*
X92876060Y-37609319D01*
X92882917Y-37615079D01*
X92884236Y-37620476D01*
X92884236Y-37853327D01*
X92880809Y-37861600D01*
X92876060Y-37864484D01*
X92360937Y-38027217D01*
X92352016Y-38026441D01*
X92346256Y-38019584D01*
X92345949Y-38018396D01*
X92289469Y-37739220D01*
X92289469Y-37734582D01*
X92312554Y-37620476D01*
X92345946Y-37455420D01*
X92350945Y-37447994D01*
X92359733Y-37446275D01*
X92360929Y-37446583D01*
G37*
%TD.AperFunction*%
%TD*%
%TA.AperFunction,Conductor*%
%TO.N,/Vref*%
G36*
X100920462Y-67880086D02*
G01*
X101119913Y-68079537D01*
X101123340Y-68087810D01*
X101121780Y-68093648D01*
X100855660Y-68555867D01*
X100848562Y-68561327D01*
X100839682Y-68560169D01*
X100839052Y-68559778D01*
X100601265Y-68402015D01*
X100597984Y-68398734D01*
X100440221Y-68160947D01*
X100438502Y-68152159D01*
X100443502Y-68144730D01*
X100444132Y-68144339D01*
X100906353Y-67878218D01*
X100915231Y-67877061D01*
X100920462Y-67880086D01*
G37*
%TD.AperFunction*%
%TD*%
%TA.AperFunction,Conductor*%
%TO.N,/Vref*%
G36*
X104882259Y-63717888D02*
G01*
X104882889Y-63718279D01*
X105120676Y-63876042D01*
X105123957Y-63879323D01*
X105281720Y-64117110D01*
X105283439Y-64125898D01*
X105278439Y-64133327D01*
X105277809Y-64133718D01*
X104815590Y-64399838D01*
X104806710Y-64400996D01*
X104801479Y-64397971D01*
X104602028Y-64198520D01*
X104598601Y-64190247D01*
X104600160Y-64184412D01*
X104866281Y-63722189D01*
X104873379Y-63716730D01*
X104882259Y-63717888D01*
G37*
%TD.AperFunction*%
%TD*%
M02*
